<?xml version="1.0" standalone="no"?>
<!DOCTYPE svg PUBLIC "-//W3C//DTD SVG 20010904//EN"
 "http://www.w3.org/TR/2001/REC-SVG-20010904/DTD/svg10.dtd">
<svg version="1.0" xmlns="http://www.w3.org/2000/svg"
 width="800.000000pt" height="800.000000pt" viewBox="0 0 800.000000 800.000000"
 preserveAspectRatio="xMidYMid meet">
<metadata>
Created by potrace 1.14, written by Peter Selinger 2001-2017
</metadata>
<g transform="translate(0.000000,800.000000) scale(0.100000,-0.100000)"
fill="#000000" stroke="none">
<path d="M2007 6963 c-4 -3 -7 -102 -7 -220 l0 -213 1955 0 1955 0 -2 218 -3
217 -1946 3 c-1070 1 -1949 -1 -1952 -5z"/>
<path d="M4135 5590 c-202 -29 -385 -146 -495 -315 -33 -50 -48 -65 -66 -65
-29 0 -29 5 -8 137 8 54 14 128 12 163 l-3 65 -265 0 -265 0 0 -1540 0 -1540
268 -3 267 -2 0 557 c0 434 -4 580 -15 658 -20 140 -20 145 9 145 19 0 35 -15
70 -69 143 -214 395 -336 656 -317 480 34 800 460 800 1065 0 375 -109 669
-320 865 -169 156 -414 230 -645 196z m128 -477 c128 -60 221 -181 269 -348
19 -68 22 -104 22 -235 0 -131 -3 -167 -22 -235 -48 -167 -141 -288 -269 -347
-57 -27 -82 -33 -161 -36 -254 -11 -420 122 -494 396 -16 61 -21 107 -21 222
0 115 5 161 21 222 55 202 159 326 319 379 45 15 81 18 163 16 94 -2 112 -6
173 -34z"/>
<path d="M2007 1683 c-4 -3 -7 -102 -7 -220 l0 -213 1955 0 1955 0 -2 218 -3
217 -1946 3 c-1070 1 -1949 -1 -1952 -5z"/>
</g>
</svg>
