<svg width="59" height="59" viewBox="0 0 59 59" fill="none" xmlns="http://www.w3.org/2000/svg">
<g clip-path="url(#clip0_1209_12084)">
<path d="M29.09 58.18C45.156 58.18 58.18 45.156 58.18 29.09C58.18 13.024 45.156 0 29.09 0C13.024 0 0 13.024 0 29.09C0 45.156 13.024 58.18 29.09 58.18Z" fill="#71CA55"/>
<path d="M35.6001 18.72C34.3301 18.22 32.9501 17.94 31.5001 17.94C25.3401 17.94 20.3501 22.93 20.3501 29.09C20.3501 35.25 25.3401 40.24 31.5001 40.24C32.9501 40.24 34.3301 39.96 35.6001 39.46" stroke="#15254B" stroke-width="2" stroke-linecap="round" stroke-linejoin="round"/>
<path d="M16.5701 26.43H31.6001" stroke="#15254B" stroke-width="2" stroke-linecap="round" stroke-linejoin="round"/>
<path d="M16.5701 31.69H30.8001" stroke="#15254B" stroke-width="2" stroke-linecap="round" stroke-linejoin="round"/>
</g>
<defs>
<clipPath id="clip0_1209_12084">
<rect width="58.18" height="58.18" fill="white"/>
</clipPath>
</defs>
</svg>
