<?xml version="1.0" encoding="utf-8"?>
<!-- Generator: Adobe Illustrator 26.0.2, SVG Export Plug-In . SVG Version: 6.00 Build 0)  -->
<svg version="1.1" id="Layer_1" xmlns="http://www.w3.org/2000/svg" xmlns:xlink="http://www.w3.org/1999/xlink" x="0px" y="0px"
	 viewBox="0 0 20 20" style="enable-background:new 0 0 20 20;" xml:space="preserve">
<style type="text/css">
	.st0{fill:none;stroke:#333333;stroke-width:1.809;stroke-linecap:round;stroke-linejoin:round;}
</style>
<path class="st0" d="M7.6,4.5H18"/>
<path class="st0" d="M7.6,10.1H18"/>
<path class="st0" d="M7.6,15.6H18"/>
<path class="st0" d="M3.3,5.9c0.8,0,1.4-0.6,1.4-1.4S4,3.1,3.3,3.1S1.9,3.8,1.9,4.5S2.5,5.9,3.3,5.9z"/>
<path class="st0" d="M3.3,11.4c0.8,0,1.4-0.6,1.4-1.4c0-0.8-0.6-1.4-1.4-1.4s-1.4,0.6-1.4,1.4C1.9,10.8,2.5,11.4,3.3,11.4z"/>
<path class="st0" d="M3.3,17c0.8,0,1.4-0.6,1.4-1.4c0-0.8-0.6-1.4-1.4-1.4s-1.4,0.6-1.4,1.4C1.9,16.4,2.5,17,3.3,17z"/>
</svg>
