<svg width="59" height="59" viewBox="0 0 59 59" fill="none" xmlns="http://www.w3.org/2000/svg">
<path d="M35.1299 17.65C35.9334 18.6986 36.4274 19.9511 36.5562 21.2659C36.685 22.5806 36.4434 23.9051 35.8587 25.0897C35.274 26.2743 34.3695 27.2717 33.2476 27.9691C32.1256 28.6665 30.831 29.0361 29.5099 29.0361C28.1889 29.0361 26.8942 28.6665 25.7723 27.9691C24.6503 27.2717 23.7459 26.2743 23.1612 25.0897C22.5765 23.9051 22.3349 22.5806 22.4637 21.2659C22.5924 19.9511 23.0865 18.6986 23.8899 17.65" stroke="currentColor" stroke-width="2" stroke-linecap="round" stroke-linejoin="round"/>
<path d="M23.07 29.06H36C37.3325 29.0784 38.6041 29.6207 39.5399 30.5695C40.4756 31.5183 41.0001 32.7974 41 34.13V42.78H18V34.13C18 32.7854 18.5342 31.4958 19.485 30.545C20.4358 29.5942 21.7254 29.06 23.07 29.06V29.06Z" stroke="currentColor" stroke-width="2" stroke-linecap="round" stroke-linejoin="round"/>
<path d="M34.22 12.63H24.8C23.5076 12.63 22.46 13.6777 22.46 14.97V15.51C22.46 16.8024 23.5076 17.85 24.8 17.85H34.22C35.5123 17.85 36.56 16.8024 36.56 15.51V14.97C36.56 13.6777 35.5123 12.63 34.22 12.63Z" stroke="currentColor" stroke-width="2" stroke-linecap="round" stroke-linejoin="round"/>
<path d="M23.8901 17.66H19.1001" stroke="currentColor" stroke-width="2" stroke-linecap="round" stroke-linejoin="round"/>
</svg>
