<svg width="59" height="59" viewBox="0 0 59 59" fill="none" xmlns="http://www.w3.org/2000/svg">
<path d="M21.3799 18.26C21.3825 16.2169 22.196 14.2584 23.6416 12.8147C25.0872 11.3709 27.0468 10.56 29.0899 10.56V10.56C31.133 10.56 33.0925 11.3709 34.5381 12.8147C35.9838 14.2584 36.7972 16.2169 36.7999 18.26" stroke="currentColor" stroke-width="2" stroke-linecap="round" stroke-linejoin="round"/>
<path d="M21.2199 18.68H20.8599C19.7774 18.68 18.8999 19.5575 18.8999 20.64V25.46C18.8999 26.5425 19.7774 27.42 20.8599 27.42H21.2199C22.3024 27.42 23.1799 26.5425 23.1799 25.46V20.64C23.1799 19.5575 22.3024 18.68 21.2199 18.68Z" stroke="currentColor" stroke-width="2" stroke-linecap="round" stroke-linejoin="round"/>
<path d="M37.36 18.68H37C35.9176 18.68 35.04 19.5575 35.04 20.64V25.46C35.04 26.5425 35.9176 27.42 37 27.42H37.36C38.4425 27.42 39.32 26.5425 39.32 25.46V20.64C39.32 19.5575 38.4425 18.68 37.36 18.68Z" stroke="currentColor" stroke-width="2" stroke-linecap="round" stroke-linejoin="round"/>
<path d="M22.6401 31.2H35.5301C36.8747 31.2 38.1643 31.7342 39.1151 32.685C40.0659 33.6358 40.6001 34.9254 40.6001 36.27V44.92H17.6001V36.27C17.6001 34.9254 18.1343 33.6358 19.0851 32.685C20.0359 31.7342 21.3254 31.2 22.6701 31.2H22.6401Z" stroke="currentColor" stroke-width="2" stroke-linecap="round" stroke-linejoin="round"/>
<path d="M23.1399 19.62C23.7585 18.5952 24.6313 17.7476 25.6737 17.1592C26.7162 16.5708 27.8929 16.2617 29.0899 16.2617C30.2869 16.2617 31.4636 16.5708 32.5061 17.1592C33.5485 17.7476 34.4213 18.5952 35.0399 19.62" stroke="currentColor" stroke-width="2" stroke-linecap="round" stroke-linejoin="round"/>
<path d="M35.3601 27.25C34.7805 28.4175 33.8865 29.4 32.7788 30.0868C31.671 30.7737 30.3935 31.1376 29.0901 31.1376C27.7867 31.1376 26.5091 30.7737 25.4014 30.0868C24.2936 29.4 23.3996 28.4175 22.8201 27.25" stroke="currentColor" stroke-width="2" stroke-linecap="round" stroke-linejoin="round"/>
<path d="M28.8101 27.42H36.8001" stroke="currentColor" stroke-width="2" stroke-linecap="round" stroke-linejoin="round"/>
</svg>
  