<svg width="40" height="40" viewBox="0 0 40 40" fill="none" xmlns="http://www.w3.org/2000/svg">
<path d="M22.5173 24.9175C22.5173 23.342 23.7728 22.0652 25.3216 22.0652C26.8704 22.0652 28.1259 23.342 28.1259 24.9175C28.1259 26.4929 26.8704 27.7697 25.3216 27.7697" stroke="currentColor" stroke-width="0.779896" stroke-linecap="round" stroke-linejoin="round"/>
<path d="M25.3218 22.1045C26.7415 22.1045 28.0973 23.121 28.0973 24.4906V14.704C28.0973 13.3013 26.7959 12.0682 25.3047 12.0682C23.8135 12.0682 22.4546 13.3013 22.4546 14.704V24.9482H22.5175C22.5175 23.185 23.773 22.1045 25.3218 22.1045Z" stroke="currentColor" stroke-width="0.779896" stroke-linecap="round" stroke-linejoin="round"/>
<path d="M22.4545 16.4832H11.8743V27.7696H25.2759" stroke="currentColor" stroke-width="0.779896" stroke-linecap="round" stroke-linejoin="round"/>
<path d="M24.1345 22.335C23.7441 22.4843 23.4113 22.7062 23.1479 22.9771C22.4705 23.6736 22.2465 24.6902 22.6636 25.6086C23.1276 26.6294 24.4076 27.1126 25.5223 26.687C26.414 26.3467 26.8353 25.408 26.4641 24.591C26.1665 23.9371 25.3484 23.6288 24.6348 23.9008C24.0641 24.1184 23.7943 24.719 24.0321 25.2416C24.222 25.6598 24.7468 25.8582 25.2033 25.6832" stroke="currentColor" stroke-width="0.779896" stroke-linecap="round" stroke-linejoin="round"/>
</svg>
