<svg width="59" height="59" viewBox="0 0 59 59" fill="none" xmlns="http://www.w3.org/2000/svg">
<path d="M46.01 41.93H11.99V20.87L29 15.87L46.01 20.87V41.93Z" stroke="currentColor" stroke-width="1.5" stroke-miterlimit="10"/>
<path d="M26.8301 24.09H29.8301C30.2792 24.09 30.7239 24.1785 31.1389 24.3504C31.5538 24.5222 31.9308 24.7741 32.2484 25.0917C32.566 25.4093 32.8179 25.7863 32.9897 26.2013C33.1616 26.6162 33.2501 27.0609 33.2501 27.51V27.51C33.2501 27.9591 33.1616 28.4039 32.9897 28.8188C32.8179 29.2337 32.566 29.6108 32.2484 29.9283C31.9308 30.2459 31.5538 30.4978 31.1389 30.6697C30.7239 30.8416 30.2792 30.93 29.8301 30.93H26.8301V24.09Z" stroke="currentColor" stroke-width="1.5" stroke-miterlimit="10"/>
<path d="M26.8301 37.22V30.94" stroke="currentColor" stroke-width="1.5" stroke-miterlimit="10"/>
</svg>
