<svg width="40" height="40" viewBox="0 0 40 40" fill="none" xmlns="http://www.w3.org/2000/svg">
<path d="M30.228 12.8076C29.9048 12.5164 29.3992 12.5622 29.092 12.8694L18.0509 23.9105C17.3587 24.6028 16.3549 24.8801 15.4056 24.6433L10.3933 23.39C9.94213 23.2769 9.50586 23.6183 9.50586 24.0833V26.6743C9.50586 27.0689 9.82586 27.3889 10.2205 27.3889H15.6915C16.4307 27.3889 17.1389 27.0956 17.6605 26.5729L30.2589 13.9745C30.5821 13.6513 30.5725 13.119 30.228 12.8097V12.8076Z" stroke="currentColor" stroke-width="0.779333" stroke-linecap="round" stroke-linejoin="round"/>
<path d="M15.0516 20.0521C16.9897 20.0521 18.5609 19.5507 18.5609 18.9321C18.5609 18.3136 16.9897 17.8121 15.0516 17.8121C13.1134 17.8121 11.5422 18.3136 11.5422 18.9321C11.5422 19.5507 13.1134 20.0521 15.0516 20.0521Z" stroke="currentColor" stroke-width="0.779333" stroke-linecap="round" stroke-linejoin="round"/>
<path d="M18.5609 18.9322C18.5609 19.5509 16.9897 20.0522 15.0516 20.0522C13.1134 20.0522 11.5433 19.5509 11.5422 18.9322V20.624C11.5422 21.2426 13.1134 21.744 15.0516 21.744C16.9897 21.744 18.5609 21.2426 18.5609 20.624V18.9312V18.9322Z" stroke="currentColor" stroke-width="0.779333" stroke-linecap="round" stroke-linejoin="round"/>
</svg>
