<svg width="40" height="40" viewBox="0 0 40 40" fill="none" xmlns="http://www.w3.org/2000/svg">
<path d="M7.65625 20.1055L6.85902 20.1268C6.85073 20.07 6.82824 20.0196 6.79155 19.9759C6.75485 19.9309 6.70691 19.896 6.64773 19.8711C6.58973 19.8451 6.52225 19.832 6.44531 19.832C6.3447 19.832 6.25888 19.8522 6.18786 19.8924C6.11802 19.9326 6.08369 19.9871 6.08487 20.0558C6.08369 20.109 6.105 20.1552 6.14879 20.1942C6.19377 20.2333 6.27367 20.2647 6.38849 20.2884L6.91406 20.3878C7.18632 20.4399 7.38873 20.5263 7.52131 20.647C7.65507 20.7678 7.72254 20.9276 7.72372 21.1264C7.72254 21.3134 7.6669 21.4762 7.55682 21.6147C7.44792 21.7532 7.29877 21.8609 7.10938 21.9379C6.91998 22.0136 6.70336 22.0515 6.45952 22.0515C6.07008 22.0515 5.7629 21.9716 5.538 21.8118C5.31428 21.6508 5.18643 21.4354 5.15447 21.1655L6.01207 21.1442C6.03101 21.2436 6.08014 21.3194 6.15945 21.3714C6.23875 21.4235 6.33996 21.4496 6.46307 21.4496C6.57434 21.4496 6.66489 21.4289 6.73473 21.3874C6.80457 21.346 6.84008 21.291 6.84126 21.2223C6.84008 21.1607 6.81286 21.1116 6.75959 21.0749C6.70632 21.0371 6.62287 21.0075 6.50923 20.9862L6.03338 20.8956C5.75994 20.8459 5.55634 20.7541 5.42259 20.6204C5.28883 20.4854 5.22254 20.3138 5.22372 20.1055C5.22254 19.9232 5.27107 19.7675 5.36932 19.6385C5.46757 19.5083 5.60724 19.4089 5.78835 19.3402C5.96946 19.2715 6.18312 19.2372 6.42933 19.2372C6.79865 19.2372 7.08984 19.3147 7.30291 19.4698C7.51598 19.6237 7.63376 19.8356 7.65625 20.1055ZM6.09908 18.1275L6.45064 18.5394L6.80398 18.1275H7.53018V18.1506L6.76314 18.946H6.13991L5.37109 18.1506V18.1275H6.09908ZM8.15119 23.0227V19.2727H9.01056V19.7397H9.0372C9.07271 19.6568 9.12302 19.5769 9.18812 19.5C9.25441 19.4231 9.33845 19.3603 9.44025 19.3118C9.54324 19.2621 9.66634 19.2372 9.80957 19.2372C9.99896 19.2372 10.1759 19.2869 10.3405 19.3864C10.5062 19.4858 10.6399 19.6391 10.7417 19.8462C10.8435 20.0534 10.8944 20.3174 10.8944 20.6381C10.8944 20.9471 10.8453 21.2057 10.7471 21.4141C10.65 21.6224 10.5186 21.7786 10.3529 21.8828C10.1884 21.987 10.0055 22.0391 9.80424 22.0391C9.66693 22.0391 9.54797 22.0166 9.44735 21.9716C9.34674 21.9266 9.2621 21.8674 9.19345 21.794C9.12598 21.7206 9.07389 21.6419 9.0372 21.5579H9.01944V23.0227H8.15119ZM9.00169 20.6364C9.00169 20.7831 9.02122 20.911 9.06028 21.0199C9.10053 21.1288 9.15794 21.2134 9.23251 21.2738C9.30827 21.333 9.39882 21.3626 9.50417 21.3626C9.61071 21.3626 9.70126 21.333 9.77583 21.2738C9.85041 21.2134 9.90663 21.1288 9.94451 21.0199C9.98358 20.911 10.0031 20.7831 10.0031 20.6364C10.0031 20.4896 9.98358 20.3623 9.94451 20.2546C9.90663 20.1469 9.85041 20.0634 9.77583 20.0043C9.70244 19.9451 9.61189 19.9155 9.50417 19.9155C9.39764 19.9155 9.30708 19.9445 9.23251 20.0025C9.15794 20.0605 9.10053 20.1433 9.06028 20.2511C9.02122 20.3588 9.00169 20.4872 9.00169 20.6364ZM12.6225 22.0515C12.3361 22.0515 12.0898 21.9929 11.8839 21.8757C11.6791 21.7573 11.5211 21.5928 11.4098 21.3821C11.2997 21.1702 11.2447 20.9246 11.2447 20.6452C11.2447 20.3647 11.2997 20.1191 11.4098 19.9084C11.5211 19.6965 11.6791 19.532 11.8839 19.4148C12.0898 19.2964 12.3361 19.2372 12.6225 19.2372C12.909 19.2372 13.1546 19.2964 13.3594 19.4148C13.5653 19.532 13.7234 19.6965 13.8335 19.9084C13.9447 20.1191 14.0004 20.3647 14.0004 20.6452C14.0004 20.9246 13.9447 21.1702 13.8335 21.3821C13.7234 21.5928 13.5653 21.7573 13.3594 21.8757C13.1546 21.9929 12.909 22.0515 12.6225 22.0515ZM12.6278 21.3963C12.732 21.3963 12.8202 21.3643 12.8924 21.3004C12.9646 21.2365 13.0196 21.1477 13.0575 21.0341C13.0966 20.9205 13.1161 20.7891 13.1161 20.6399C13.1161 20.4884 13.0966 20.3558 13.0575 20.2422C13.0196 20.1286 12.9646 20.0398 12.8924 19.9759C12.8202 19.9119 12.732 19.88 12.6278 19.88C12.5201 19.88 12.429 19.9119 12.3544 19.9759C12.281 20.0398 12.2248 20.1286 12.1857 20.2422C12.1478 20.3558 12.1289 20.4884 12.1289 20.6399C12.1289 20.7891 12.1478 20.9205 12.1857 21.0341C12.2248 21.1477 12.281 21.2365 12.3544 21.3004C12.429 21.3643 12.5201 21.3963 12.6278 21.3963ZM14.4451 22V19.2727H15.2885V19.7699H15.3169C15.3667 19.59 15.4477 19.4562 15.5602 19.3686C15.6726 19.2798 15.8034 19.2354 15.9526 19.2354C15.9928 19.2354 16.0343 19.2384 16.0769 19.2443C16.1195 19.2491 16.1592 19.2567 16.1958 19.2674V20.022C16.1544 20.0078 16.1 19.9966 16.0325 19.9883C15.9662 19.98 15.907 19.9759 15.8549 19.9759C15.752 19.9759 15.659 19.9989 15.5762 20.0451C15.4945 20.0901 15.43 20.1534 15.3826 20.2351C15.3365 20.3156 15.3134 20.4103 15.3134 20.5192V22H14.4451ZM18.216 19.2727V19.9119H16.4955V19.2727H18.216ZM16.8559 18.6193H17.7242V21.1424C17.7242 21.1957 17.7325 21.2389 17.749 21.272C17.7668 21.304 17.7922 21.3271 17.8254 21.3413C17.8585 21.3543 17.8982 21.3608 17.9443 21.3608C17.9775 21.3608 18.0124 21.3578 18.0491 21.3519C18.087 21.3448 18.1154 21.3389 18.1343 21.3342L18.2657 21.9609C18.2243 21.9728 18.1657 21.9876 18.0899 22.0053C18.0154 22.0231 17.926 22.0343 17.8218 22.0391C17.6182 22.0485 17.4436 22.0249 17.298 21.968C17.1536 21.91 17.0429 21.8201 16.966 21.6982C16.8902 21.5762 16.8535 21.4229 16.8559 21.2383V18.6193ZM19.9028 22.0515C19.6163 22.0515 19.3701 21.9929 19.1642 21.8757C18.9594 21.7573 18.8013 21.5928 18.6901 21.3821C18.58 21.1702 18.5249 20.9246 18.5249 20.6452C18.5249 20.3647 18.58 20.1191 18.6901 19.9084C18.8013 19.6965 18.9594 19.532 19.1642 19.4148C19.3701 19.2964 19.6163 19.2372 19.9028 19.2372C20.1892 19.2372 20.4349 19.2964 20.6396 19.4148C20.8456 19.532 21.0036 19.6965 21.1137 19.9084C21.225 20.1191 21.2806 20.3647 21.2806 20.6452C21.2806 20.9246 21.225 21.1702 21.1137 21.3821C21.0036 21.5928 20.8456 21.7573 20.6396 21.8757C20.4349 21.9929 20.1892 22.0515 19.9028 22.0515ZM19.9081 21.3963C20.0123 21.3963 20.1005 21.3643 20.1727 21.3004C20.2449 21.2365 20.2999 21.1477 20.3378 21.0341C20.3769 20.9205 20.3964 20.7891 20.3964 20.6399C20.3964 20.4884 20.3769 20.3558 20.3378 20.2422C20.2999 20.1286 20.2449 20.0398 20.1727 19.9759C20.1005 19.9119 20.0123 19.88 19.9081 19.88C19.8004 19.88 19.7093 19.9119 19.6347 19.9759C19.5613 20.0398 19.5051 20.1286 19.466 20.2422C19.4281 20.3558 19.4092 20.4884 19.4092 20.6399C19.4092 20.7891 19.4281 20.9205 19.466 21.0341C19.5051 21.1477 19.5613 21.2365 19.6347 21.3004C19.7093 21.3643 19.8004 21.3963 19.9081 21.3963ZM24.2831 19.2727L23.3474 22H22.3531L21.4191 19.2727H22.3335L22.836 21.1513H22.8644L23.3687 19.2727H24.2831ZM24.616 22V19.2727H25.4843V22H24.616ZM25.051 18.9549C24.9291 18.9549 24.8244 18.9147 24.7368 18.8342C24.6492 18.7525 24.6054 18.6542 24.6054 18.5394C24.6054 18.4258 24.6492 18.3287 24.7368 18.2482C24.8244 18.1665 24.9291 18.1257 25.051 18.1257C25.1742 18.1257 25.2789 18.1665 25.3653 18.2482C25.4529 18.3287 25.4967 18.4258 25.4967 18.5394C25.4967 18.6542 25.4529 18.7525 25.3653 18.8342C25.2789 18.9147 25.1742 18.9549 25.051 18.9549ZM28.418 20.1055L27.6207 20.1268C27.6125 20.07 27.59 20.0196 27.5533 19.9759C27.5166 19.9309 27.4686 19.896 27.4094 19.8711C27.3514 19.8451 27.284 19.832 27.207 19.832C27.1064 19.832 27.0206 19.8522 26.9496 19.8924C26.8797 19.9326 26.8454 19.9871 26.8466 20.0558C26.8454 20.109 26.8667 20.1552 26.9105 20.1942C26.9555 20.2333 27.0354 20.2647 27.1502 20.2884L27.6758 20.3878C27.948 20.4399 28.1504 20.5263 28.283 20.647C28.4168 20.7678 28.4843 20.9276 28.4854 21.1264C28.4843 21.3134 28.4286 21.4762 28.3185 21.6147C28.2096 21.7532 28.0605 21.8609 27.8711 21.9379C27.6817 22.0136 27.4651 22.0515 27.2212 22.0515C26.8318 22.0515 26.5246 21.9716 26.2997 21.8118C26.076 21.6508 25.9482 21.4354 25.9162 21.1655L26.7738 21.1442C26.7927 21.2436 26.8419 21.3194 26.9212 21.3714C27.0005 21.4235 27.1017 21.4496 27.2248 21.4496C27.3361 21.4496 27.4266 21.4289 27.4964 21.3874C27.5663 21.346 27.6018 21.291 27.603 21.2223C27.6018 21.1607 27.5746 21.1116 27.5213 21.0749C27.468 21.0371 27.3846 21.0075 27.271 20.9862L26.7951 20.8956C26.5217 20.8459 26.3181 20.7541 26.1843 20.6204C26.0505 20.4854 25.9843 20.3138 25.9854 20.1055C25.9843 19.9232 26.0328 19.7675 26.131 19.6385C26.2293 19.5083 26.369 19.4089 26.5501 19.3402C26.7312 19.2715 26.9448 19.2372 27.1911 19.2372C27.5604 19.2372 27.8516 19.3147 28.0646 19.4698C28.2777 19.6237 28.3955 19.8356 28.418 20.1055ZM29.6959 21.2844L29.6995 20.2493H29.8202L30.5873 19.2727H31.5709L30.431 20.6719H30.202L29.6959 21.2844ZM28.9129 22V18.3636H29.7812V22H28.9129ZM30.6068 22L29.893 20.8672L30.4648 20.2511L31.61 22H30.6068ZM33.0424 22.0515C32.756 22.0515 32.5098 21.9929 32.3038 21.8757C32.099 21.7573 31.941 21.5928 31.8297 21.3821C31.7196 21.1702 31.6646 20.9246 31.6646 20.6452C31.6646 20.3647 31.7196 20.1191 31.8297 19.9084C31.941 19.6965 32.099 19.532 32.3038 19.4148C32.5098 19.2964 32.756 19.2372 33.0424 19.2372C33.3289 19.2372 33.5745 19.2964 33.7793 19.4148C33.9853 19.532 34.1433 19.6965 34.2534 19.9084C34.3646 20.1191 34.4203 20.3647 34.4203 20.6452C34.4203 20.9246 34.3646 21.1702 34.2534 21.3821C34.1433 21.5928 33.9853 21.7573 33.7793 21.8757C33.5745 21.9929 33.3289 22.0515 33.0424 22.0515ZM33.0478 21.3963C33.1519 21.3963 33.2401 21.3643 33.3123 21.3004C33.3845 21.2365 33.4396 21.1477 33.4775 21.0341C33.5165 20.9205 33.536 20.7891 33.536 20.6399C33.536 20.4884 33.5165 20.3558 33.4775 20.2422C33.4396 20.1286 33.3845 20.0398 33.3123 19.9759C33.2401 19.9119 33.1519 19.88 33.0478 19.88C32.94 19.88 32.8489 19.9119 32.7743 19.9759C32.7009 20.0398 32.6447 20.1286 32.6056 20.2422C32.5678 20.3558 32.5488 20.4884 32.5488 20.6399C32.5488 20.7891 32.5678 20.9205 32.6056 21.0341C32.6447 21.1477 32.7009 21.2365 32.7743 21.3004C32.8489 21.3643 32.94 21.3963 33.0478 21.3963Z" fill="currentColor"/>
</svg>
