<svg width="59" height="59" viewBox="0 0 59 59" fill="none" xmlns="http://www.w3.org/2000/svg">
<g clip-path="url(#clip0_3569_24627)">
<path d="M29.0892 58.1784C45.1547 58.1784 58.1784 45.1547 58.1784 29.0892C58.1784 13.0237 45.1547 0 29.0892 0C13.0237 0 0 13.0237 0 29.0892C0 45.1547 13.0237 58.1784 29.0892 58.1784Z"/>
<path d="M43.3336 14.8015H14.8464L13.7034 21.2888C13.7034 22.9407 15.0422 24.2812 16.6958 24.2812C18.3493 24.2812 19.6882 22.9423 19.6882 21.2888H21.9678C21.9678 22.9407 23.3067 24.2812 24.9602 24.2812C26.6137 24.2812 27.9526 22.9423 27.9526 21.2888H30.2322C30.2322 22.9407 31.5711 24.2812 33.2246 24.2812C34.8781 24.2812 36.217 22.9423 36.217 21.2888H38.4966C38.4966 22.9407 39.8355 24.2812 41.489 24.2812C43.1425 24.2812 44.4814 22.9423 44.4814 21.2888L43.3384 14.8015H43.3336Z" stroke="currentColor" stroke-width="2" stroke-miterlimit="10"/>
<path d="M15.3923 23.9666V43.3786H42.7879V24.0902" stroke="currentColor" stroke-width="2" stroke-miterlimit="10"/>
<path d="M26.1192 28.5273H19.9932V43.3786H26.1192V28.5273Z" stroke="currentColor" stroke-width="2" stroke-miterlimit="10"/>
<path d="M38.4724 28.5273H30.9753V34.4463H38.4724V28.5273Z" stroke="currentColor" stroke-width="2" stroke-miterlimit="10"/>
</g>
<defs>
<clipPath id="clip0_3569_24627">
<rect width="58.18" height="58.18" fill="white"/>
</clipPath>
</defs>
</svg>
