<svg width="40" height="40" viewBox="0 0 40 40" fill="none" xmlns="http://www.w3.org/2000/svg">
<path d="M25.7549 23.6593C28.5075 20.9067 28.7668 16.7031 26.3341 14.2704C23.9014 11.8377 19.6979 12.0971 16.9452 14.8497C14.1926 17.6023 13.9333 21.8058 16.366 24.2385C18.7987 26.6713 23.0022 26.4119 25.7549 23.6593Z" stroke="currentColor" stroke-width="0.788155" stroke-linecap="round" stroke-linejoin="round"/>
<path d="M17.1048 25.0665L14.6269 27.5444C14.1224 28.0489 13.3053 28.0489 12.8008 27.5444C12.2962 27.0398 12.2962 26.2228 12.8008 25.7182L15.2786 23.2404" stroke="currentColor" stroke-width="0.788155" stroke-linecap="round" stroke-linejoin="round"/>
<path d="M12.6694 25.8494L14.4956 27.6755" stroke="currentColor" stroke-width="0.788155" stroke-linecap="round" stroke-linejoin="round"/>
<path d="M14.7571 19.588L21.0184 25.8493" stroke="currentColor" stroke-width="0.788155" stroke-linecap="round" stroke-linejoin="round"/>
<path d="M13.8954 15.8709C14.9434 15.8709 15.793 15.0213 15.793 13.9733C15.793 12.9253 14.9434 12.0757 13.8954 12.0757C12.8474 12.0757 11.9978 12.9253 11.9978 13.9733C11.9978 15.0213 12.8474 15.8709 13.8954 15.8709Z" stroke="currentColor" stroke-width="0.788155" stroke-linecap="round" stroke-linejoin="round"/>
</svg>
