<svg width="24" height="24" viewBox="0 0 24 24" fill="none" xmlns="http://www.w3.org/2000/svg">
<g clip-path="url(#clip0_3855_25302)">
<path fill-rule="evenodd" clip-rule="evenodd" d="M12 23.1301C5.86 23.1301 0.869995 18.1401 0.869995 12.0001C0.869995 5.86012 5.86 0.870117 12 0.870117C18.14 0.870117 23.13 5.86012 23.13 12.0001C23.13 18.1401 18.14 23.1301 12 23.1301ZM12 2.38012C6.69 2.37012 2.37 6.69012 2.37 12.0001C2.37 17.3101 6.69 21.6301 12 21.6301C17.31 21.6301 21.63 17.3101 21.63 12.0001C21.63 6.69012 17.31 2.37012 12 2.37012V2.38012ZM12 17.1601C11.38 17.1601 10.87 16.6501 10.87 16.0301C10.87 15.4101 11.38 14.9001 12 14.9001C12.62 14.9001 13.13 15.4101 13.13 16.0301C13.13 16.6501 12.62 17.1601 12 17.1601ZM11.25 6.61012H12.75V13.2501H11.25V6.61012Z" fill="#D00000"/>
</g>
<defs>
<clipPath id="clip0_3855_25302">
<rect width="24" height="24" fill="white"/>
</clipPath>
</defs>
</svg>
