<svg width="24" height="24" viewBox="0 0 24 24" fill="none" xmlns="http://www.w3.org/2000/svg">
<g clip-path="url(#clip0_3827_25872)">
<path d="M12.0011 23.1296C5.86109 23.1296 0.871094 18.1396 0.871094 11.9996C0.871094 5.85963 5.86109 0.869629 12.0011 0.869629C18.1411 0.869629 23.1311 5.85963 23.1311 11.9996C23.1311 18.1396 18.1411 23.1296 12.0011 23.1296ZM12.0011 2.37963C6.69109 2.36963 2.37109 6.68963 2.37109 11.9996C2.37109 17.3096 6.69109 21.6296 12.0011 21.6296C17.3111 21.6296 21.6311 17.3096 21.6311 11.9996C21.6311 6.68963 17.3111 2.36963 12.0011 2.36963V2.37963Z" fill="#D00000"/>
<circle cx="12" cy="12" r="11" fill="#D00000"/>
<path d="M12.0011 14.6394C11.3811 14.6394 10.8711 15.1494 10.8711 15.7694C10.8711 16.3894 11.3811 16.8994 12.0011 16.8994C12.6211 16.8994 13.1311 16.3894 13.1311 15.7694C13.1311 15.1494 12.6211 14.6394 12.0011 14.6394Z" fill="white"/>
<path d="M12.75 12.9902H11.25V6.35023H12.75V12.9902Z" fill="white"/>
</g>
<defs>
<clipPath id="clip0_3827_25872">
<rect width="24" height="24" fill="white"/>
</clipPath>
</defs>
</svg>
