<?xml version="1.0" encoding="UTF-8"?>
<svg width="15.22" height="27.16" xmlns="http://www.w3.org/2000/svg" viewBox="0 0 15.22 27.16">
    <g>
        <path fill="#039" d="M7.61,26.16c-2.16,0-4.12-1.01-5.38-2.77-1.25-1.76-1.57-3.94-.86-5.99L7.61,2.58l6.22,14.76c.73,2.11,.42,4.29-.84,6.05s-3.21,2.77-5.38,2.77Z"/>
        <path fill="#fff" d="M7.61,5.15l5.29,12.57c1.26,3.64-1.45,7.43-5.29,7.43s-6.55-3.79-5.29-7.43L7.61,5.15M7.61,0l-1.84,4.38L.47,16.95l-.03,.06-.02,.06c-.81,2.35-.45,4.87,.99,6.89,1.44,2.03,3.7,3.19,6.19,3.19s4.75-1.16,6.19-3.19,1.81-4.54,.99-6.89l-.02-.06-.03-.06L9.45,4.38,7.61,0h0Z"/>
    </g>
</svg>
