<svg width="181" height="45" viewBox="0 0 181 45" fill="none" xmlns="http://www.w3.org/2000/svg">
<path d="M71.3276 12.5255C74.4958 12.5255 77.4586 9.94801 77.9133 6.78472C78.368 3.56285 76.1092 0.985352 72.8823 0.985352C69.6555 0.985352 66.7514 3.56285 66.2967 6.78472C65.842 9.94801 68.1741 12.5255 71.3276 12.5255Z" fill="#D85D30"/>
<path d="M180.174 14.0632H171.829C170.186 18.0027 168.074 19.5697 166.475 20.1701C164.348 17.9294 161.063 16.7139 156.824 16.7139C146.747 16.7139 140.22 23.5384 140.22 33.2919C140.22 34.4195 140.338 35.474 140.558 36.4552C139.824 37.0263 137.654 38.4322 134.016 38.4322C129.425 38.4322 128.325 35.1664 127.738 32.794C133.473 30.9634 137.39 27.6097 137.39 22.3668C137.39 19.0717 135.307 16.6407 130.789 16.6407C127.122 16.6407 124.13 18.2809 121.871 20.4776L124.497 1.39539H115.036L110.812 31.8421C108.524 33.8191 102.819 37.6707 95.9542 37.6707C91.9793 37.6707 90.0872 35.5326 90.0872 31.3881C90.0872 27.6097 91.4953 23.7142 94.7954 23.7142C97.2302 23.7142 97.6703 26.0866 97.6703 27.8587L106.031 25.8523C106.031 19.9358 102.921 16.7139 96.3209 16.7139C86.611 16.7139 80.3187 23.7874 80.3187 33.4237C80.3187 34.3903 80.4067 35.3129 80.5681 36.1769L80.5094 36.0744C77.6639 38.0808 72.1196 41.3319 73.0877 35.679L75.6545 17.4462H71.3716C64.6099 17.4462 63.1285 21.5467 57.8043 23.348C57.7896 21.2245 57.5989 19.1157 57.2029 17.4462H47.6104C47.9771 19.2768 48.3438 21.6492 48.3438 24.3292C48.3438 29.7478 46.965 37.3485 42.4328 37.3485C40.4967 37.3485 39.6167 35.8987 39.7633 33.5262C39.866 31.886 41.1714 22.9233 41.1714 21.576C41.1714 18.0466 39.3233 16.6993 36.1552 16.6993C33.5884 16.6993 30.4789 17.4901 29.1295 18.1638L28.5868 24.6221C28.9535 24.5636 29.4962 24.505 29.9948 24.505C30.9776 24.505 31.3442 24.9297 31.3442 26.1452C31.3442 27.1118 30.9629 29.5575 30.6549 31.8274C28.5281 33.7166 22.7051 37.6561 15.6355 37.6561C11.6606 37.6561 9.76849 35.5179 9.76849 31.3734C9.76849 27.595 11.1766 23.6995 14.4767 23.6995C16.9115 23.6995 17.3515 26.072 17.3515 27.844L25.712 25.8377C25.712 19.9211 22.6025 16.6993 16.0021 16.6993C6.29232 16.6993 0 23.7727 0 33.409C0 40.175 4.03354 44.876 12.3353 44.876C22.1625 44.876 28.9241 37.7 30.2589 36.0891C30.3762 41.1708 33.6324 44.876 40.6287 44.876C51.1306 44.876 56.6749 37.451 57.6722 27.1996C60.3417 26.8482 63.1579 26.072 65.1086 24.6954L63.4659 36.8213C62.5565 43.2797 65.2993 44.8613 69.6995 44.8613C75.8452 44.8613 79.7467 41.1122 81.6828 39.3256C83.4869 42.7525 87.1244 44.8613 92.6833 44.8613C101.718 44.8613 108.157 38.7984 110.167 36.5723L109.126 44.0705H118.586L119.935 34.317L120.977 34.1999C122.693 40.9658 125.656 44.8613 132.153 44.8613C136.172 44.8613 139.971 42.152 142.186 40.2043C144.239 43.1772 147.862 44.8613 152.688 44.8613C162.647 44.8613 169.233 37.6121 169.233 27.9172C169.233 26.3063 168.998 24.8565 168.543 23.5677C178.092 21.0488 180.204 14.0485 180.204 14.0485L180.174 14.0632ZM120.581 29.4549L120.757 28.4152C121.739 25.9109 123.5 23.4213 126.125 23.4213C127.533 23.4213 128.017 24.3292 128.017 25.1933C128.017 27.639 124.6 29.0302 120.566 29.4549H120.581ZM154.184 37.6853C151.192 37.6853 150.033 35.7376 150.033 32.1935C150.033 28.1076 151.808 23.9045 155.651 23.9045C157.968 23.9045 159.317 25.618 159.317 29.0888C159.317 33.3505 157.425 37.6853 154.184 37.6853Z" fill="#D85D30"/>
<path d="M93.4461 13.082H99.709C110.695 8.83498 110.006 1.41003 110.006 1.41003H101.66C100.017 6.16961 98.2276 7.5023 96.7022 8.54208C96.7022 8.54208 94.2674 6.79934 93.5781 1.41003H86.3764C86.3764 1.41003 85.423 8.27847 93.4754 13.082H93.4461Z" fill="#D85D30"/>
</svg>
