<svg width="512" height="512" viewBox="0 0 512 512" fill="none" xmlns="http://www.w3.org/2000/svg">
<g clip-path="url(#clip0_2217_18968)">
<path d="M474.944 267.23L474.889 264.562L474.778 261.949L474.611 259.393L474.389 256.836L474.111 254.39L473.777 251.944L473.444 249.554L472.999 247.22L472.554 244.941L472.054 242.662L471.498 240.494L470.831 238.326L470.22 236.214L469.497 234.102L468.719 232.101L467.885 230.1L467.052 228.21L466.107 226.32L465.162 224.486L464.161 222.652L463.105 220.929L461.938 219.206L460.771 217.594L459.548 215.982L458.269 214.425L456.991 212.925L455.601 211.424L454.156 210.034L452.655 208.645L451.155 207.366L449.543 206.088L280.79 51.0091L172.402 107.26L122.099 61.1253L118.653 63.3487L115.262 65.6832L111.927 68.0733L108.647 70.5746L105.424 73.1314L102.255 75.7439L99.1426 78.4675L96.1411 81.1911L93.1952 84.0258L90.3048 86.9718L87.47 89.9177L84.6909 92.9748L82.0228 96.0875L79.4104 99.2558L76.8535 102.48L74.4079 105.759L71.9622 109.15L69.6832 112.54L67.4043 116.042L65.2365 119.599L63.1244 123.212L61.0678 126.825L59.1223 130.549L57.2325 134.329L55.4538 138.109L53.7307 142L52.1188 145.946L50.5069 149.893L49.0617 153.95L47.6721 158.008L46.3381 162.121L45.1152 166.29L43.948 170.514L42.8919 174.739L41.8914 179.074L41.002 183.41L40.2239 187.801L39.5013 192.192L38.8343 196.694L38.2784 201.196L37.8338 205.699L37.5003 210.312L37.2223 214.926L37.0556 218.094L37 221.262V224.375V227.488L37.1668 230.545L37.3335 233.546L37.6114 236.548L37.8893 239.438L38.2784 242.384L38.6675 245.219L39.1678 247.998L39.7236 250.777L40.335 253.501L41.002 256.169L41.7802 258.837L42.5584 261.449L43.4477 263.95L44.3371 266.452L45.3376 268.953L46.3937 271.343L47.5053 273.678L48.7282 276.012L49.951 278.291L51.285 280.459L223.15 438.15L224.54 440.318L225.985 442.43L227.486 444.486L229.042 446.487L230.654 448.433L232.377 450.323L234.1 452.213L235.934 453.991L237.824 455.714L239.77 457.382L241.826 459.049L243.883 460.606L246.051 462.107L248.274 463.552L250.553 464.997L252.887 466.331L255.277 467.609L257.779 468.832L260.336 469.944L262.948 471.055L265.616 472.112L268.34 473.056L271.174 473.946L274.009 474.835L276.955 475.613L279.957 476.28L283.069 476.947L286.182 477.559L289.406 478.059L292.685 478.504L296.02 478.893L299.411 479.171L302.913 479.449L306.47 479.615L310.083 479.727H313.752L317.531 479.671L321.311 479.56L325.202 479.393L329.148 479.115L333.984 478.726L338.764 478.17L343.544 477.559L348.269 476.836L352.938 476.002L357.551 475.113L362.165 474.113L366.667 473.001L371.114 471.834L375.505 470.555L379.896 469.277L384.121 467.832L388.345 466.386L392.458 464.886L396.516 463.329L400.518 461.662L404.409 459.994L408.188 458.271L411.912 456.493L415.47 454.714L419.027 452.88L422.418 451.045L425.753 449.156L428.921 447.21L432.034 445.32L434.98 443.375L437.814 441.374L440.594 439.428L443.15 437.483L445.652 435.537L447.986 433.592L450.21 431.647L441.483 363.834L384.454 306.805L474.778 278.235L474.889 275.401L474.944 272.621L475 269.898L474.944 267.23Z" fill="#D93D04"/>
<path d="M209.365 150.171L302.857 120.6L302.968 117.765L303.079 114.986V112.262V109.539L302.968 106.871L302.857 104.258L302.69 101.702L302.468 99.2002L302.19 96.699L301.912 94.3089L301.523 91.9188L301.134 89.5843L300.634 87.2497L300.133 85.0264L299.578 82.803L298.966 80.6353L298.299 78.5231L297.577 76.4665L296.798 74.4099L296.02 72.4645L295.131 70.519L294.242 68.6292L293.241 66.7949L292.241 65.0162L291.184 63.2376L290.073 61.57L288.906 59.9025L287.683 58.2906L286.404 56.7343L285.07 55.2335L283.681 53.7883L282.235 52.3431L280.79 51.0091L279.234 49.6751L277.678 48.3967L276.01 47.2294L274.287 46.0066L272.564 44.8949L270.785 43.8388L268.895 42.8383L267.006 41.8378L265.06 40.9485L263.004 40.0591L260.947 39.2254L258.835 38.4472L256.667 37.7246L254.388 37.0576L252.109 36.4462L249.775 35.8904L247.384 35.3345L244.939 34.8898L242.382 34.4452L239.825 34.1117L237.213 33.7782L234.545 33.5003L231.821 33.3335L228.986 33.1668L226.151 33H223.261H220.315H217.258L214.201 33.1668L211.088 33.3335L207.864 33.5558L203.307 33.9449L198.749 34.3896L194.246 35.001L189.8 35.668L185.409 36.4462L181.017 37.3355L176.738 38.336L172.458 39.3921L168.289 40.5038L164.12 41.7822L160.007 43.1162L156.005 44.5058L152.003 46.0622L148.056 47.6185L144.165 49.286L140.386 51.0647L136.606 52.899L132.882 54.8444L129.269 56.8454L125.656 58.9576L122.099 61.1254L118.653 63.3487L115.262 65.6832L111.927 68.0733L108.647 70.5746L105.424 73.1315L102.255 75.7439L99.1426 78.4675L96.1411 81.1911L93.1952 84.0259L90.3048 86.9718L87.47 89.9178L84.6909 92.9749L82.0228 96.0876L79.4104 99.2558L76.8535 102.48L74.4079 105.759L71.9622 109.15L69.6832 112.54L67.4043 116.042L65.2365 119.599L63.1244 123.157L61.0678 126.825L59.1223 130.549L57.2325 134.329L55.4538 138.109L53.7307 142L52.1188 145.946L50.5069 149.893L49.0617 153.95L47.6721 158.008L46.3381 162.121L45.1152 166.29L43.948 170.514L42.8919 174.739L41.8914 179.074L41.002 183.41L40.2239 187.801L39.5013 192.192L38.8343 196.694L38.2784 201.196L37.8338 205.699L37.5003 210.312L37.2223 214.926L37.0556 218.094L37 221.262V224.375V227.488L37.1668 230.545L37.3335 233.546L37.6114 236.548L37.8893 239.438L38.2784 242.384L38.6675 245.219L39.1678 247.998L39.7236 250.777L40.335 253.501L41.002 256.169L41.7802 258.837L42.5584 261.449L43.4477 263.95L44.3371 266.452L45.3376 268.953L46.3937 271.343L47.5053 273.678L48.7282 276.012L49.951 278.291L51.285 280.459L52.619 282.627L54.0642 284.739L55.565 286.795L57.1213 288.796L58.7888 290.797L60.4563 292.687L62.235 294.522L64.0693 296.3L65.9591 298.079L67.9046 299.746L69.9056 301.358L72.0178 302.97L74.1299 304.471L76.3533 305.916L78.6322 307.306L80.9667 308.64L83.4124 309.918L85.8581 311.141L88.415 312.308L91.0274 313.42L93.6954 314.421L96.419 315.421L99.2538 316.31L102.144 317.144L105.09 317.922L108.092 318.645L111.149 319.312L114.317 319.868L117.485 320.368L120.765 320.813L124.1 321.202L127.546 321.535L130.992 321.758L134.549 321.924L138.162 322.035L141.831 322.091L145.611 322.035L149.446 321.924L153.281 321.758L157.283 321.48L162.063 321.035L166.899 320.535L171.624 319.923L176.348 319.145L181.017 318.367L185.687 317.422L190.244 316.422L194.747 315.31L199.249 314.143L203.64 312.92L207.976 311.586L212.256 310.196L216.424 308.751L220.593 307.195L224.651 305.638L228.597 304.026L232.488 302.359L236.268 300.636L239.992 298.857L243.605 297.078L247.107 295.244L250.497 293.354L253.832 291.464L257 289.575L260.113 287.629L263.059 285.684L265.949 283.738L268.673 281.793L271.286 279.792L273.731 277.846L276.066 275.901L278.289 273.956L269.562 206.199L267.395 207.866L265.171 209.534L263.004 211.146L260.836 212.758L258.668 214.314L256.5 215.815L254.332 217.26L252.165 218.705L249.997 220.095L247.829 221.484L245.661 222.819L243.438 224.041L241.27 225.32L239.103 226.487L236.879 227.599L234.656 228.71L232.488 229.766L230.265 230.767L227.986 231.712L225.762 232.601L223.483 233.435L221.26 234.213L218.926 234.936L216.647 235.603L214.368 236.27L212.033 236.826L209.699 237.326L207.309 237.771L204.919 238.215L202.528 238.549L200.138 238.827L197.693 238.993L194.191 239.216L190.856 239.271L187.688 239.216L184.575 239.049L181.629 238.771L178.794 238.326L176.071 237.771L173.514 237.048L171.068 236.27L168.733 235.325L166.51 234.269L164.398 233.102L162.453 231.823L160.618 230.378L158.84 228.877L157.228 227.21L155.727 225.431L154.337 223.541L153.059 221.54L151.892 219.372L150.891 217.149L149.946 214.759L149.112 212.258L148.39 209.701L147.778 206.977L147.278 204.142L146.889 201.196L146.611 198.139L146.389 194.971L146.333 191.692V188.301L146.5 184.744L146.667 181.687L146.889 178.629L147.167 175.517L147.556 172.404L147.945 169.347L148.445 166.234L148.946 163.122L149.557 160.064L150.224 157.063L150.947 154.061L151.78 151.115L152.614 148.225L153.559 145.39L154.615 142.611L155.671 139.943L156.839 137.331L158.117 134.829L159.451 132.384L160.841 130.049L162.341 127.826L163.898 125.769L165.565 123.768L167.288 121.934L169.123 120.266L171.012 118.71L173.013 117.321L175.126 116.098L177.293 115.042L179.572 114.208L181.962 113.485L184.408 112.985L187.021 112.707L188.966 112.596L190.745 112.707L192.468 112.874L194.08 113.207L195.636 113.652L197.026 114.208L198.36 114.875L199.582 115.653L200.694 116.487L201.75 117.487L202.751 118.543L203.64 119.655L204.418 120.878L205.196 122.101L205.863 123.435L206.475 124.824L206.975 126.27L207.475 127.77L207.864 129.327L208.254 130.883L208.531 132.439L208.809 134.051L209.032 135.719L209.198 137.331L209.31 138.998L209.421 140.61L209.476 142.278V143.89V145.502V147.058L209.421 148.614L209.365 150.171Z" fill="#88E0FF"/>
</g>
<defs>
<clipPath id="clip0_2217_18968">
<rect width="438" height="446.727" fill="white" transform="translate(37 33)"/>
</clipPath>
</defs>
</svg>
