<svg width="18" height="18" viewBox="0 0 18 18" fill="currentColor" xmlns="http://www.w3.org/2000/svg">
<path fill-rule="evenodd" clip-rule="evenodd" d="M14.95 17.125H3.05C2.47315 17.125 1.91993 16.8958 1.51204 16.488C1.10415 16.0801 0.875 15.5268 0.875 14.95V14.0538V14.0538V3.05C0.875 2.47315 1.10415 1.91993 1.51204 1.51204C1.91993 1.10415 2.47315 0.875 3.05 0.875H14.95C15.5268 0.875 16.0801 1.10415 16.488 1.51204C16.8958 1.91993 17.125 2.47315 17.125 3.05V13.2657C17.1277 13.2996 17.1277 13.3336 17.125 13.3674V14.95C17.125 15.5268 16.8958 16.0801 16.488 16.488C16.0801 16.8958 15.5268 17.125 14.95 17.125ZM2.125 14.95V14.3433L6.17346 10.9499C6.25002 10.8808 6.34949 10.8425 6.45262 10.8425C6.55576 10.8425 6.65523 10.8808 6.73179 10.9499L8.75679 13.0165C9.04088 13.2986 9.41699 13.469 9.81636 13.4965C10.2157 13.524 10.6117 13.4069 10.9318 13.1665L12.8985 11.6415C12.9713 11.5855 13.0607 11.555 13.1526 11.555C13.2446 11.555 13.3339 11.5855 13.4068 11.6415L15.875 13.6222V14.95C15.875 15.1953 15.7775 15.4306 15.6041 15.6041C15.4306 15.7775 15.1953 15.875 14.95 15.875H3.05C2.80467 15.875 2.5694 15.7775 2.39593 15.6041C2.22245 15.4306 2.125 15.1953 2.125 14.95ZM5.36512 9.97488L2.125 12.7087V3.05C2.125 2.80467 2.22245 2.5694 2.39593 2.39593C2.5694 2.22245 2.80467 2.125 3.05 2.125H14.95C15.1953 2.125 15.4306 2.22245 15.6041 2.39593C15.7775 2.5694 15.875 2.80467 15.875 3.05V12.0159L14.1818 10.6665C13.8904 10.4422 13.5329 10.3205 13.1651 10.3205C12.7973 10.3205 12.4399 10.4422 12.1485 10.6665L10.1818 12.0915C10.1063 12.1561 10.0103 12.1916 9.91096 12.1916C9.81164 12.1916 9.7156 12.1561 9.64012 12.0915L7.61512 10.0665C7.31949 9.77266 6.92446 9.60022 6.50794 9.58325C6.09143 9.56628 5.68368 9.70601 5.36512 9.97488ZM10.2268 8.40545C10.6037 8.65726 11.0468 8.79167 11.5 8.79167C12.1078 8.79167 12.6907 8.55022 13.1205 8.12045C13.5502 7.69068 13.7917 7.10779 13.7917 6.5C13.7917 6.04675 13.6573 5.60368 13.4055 5.22682C13.1536 4.84996 12.7957 4.55623 12.377 4.38278C11.9582 4.20933 11.4975 4.16394 11.0529 4.25237C10.6084 4.34079 10.2 4.55905 9.87955 4.87955C9.55905 5.20004 9.34079 5.60838 9.25237 6.05292C9.16394 6.49746 9.20933 6.95824 9.38278 7.37698C9.55623 7.79573 9.84996 8.15364 10.2268 8.40545ZM10.9213 5.63389C11.0926 5.51943 11.294 5.45833 11.5 5.45833C11.7763 5.45833 12.0412 5.56808 12.2366 5.76343C12.4319 5.95878 12.5417 6.22373 12.5417 6.5C12.5417 6.70602 12.4806 6.90742 12.3661 7.07872C12.2517 7.25002 12.089 7.38353 11.8986 7.46237C11.7083 7.54122 11.4988 7.56184 11.2968 7.52165C11.0947 7.48146 10.9091 7.38225 10.7634 7.23657C10.6178 7.09089 10.5185 6.90528 10.4783 6.70322C10.4382 6.50116 10.4588 6.29171 10.5376 6.10137C10.6165 5.91103 10.75 5.74835 10.9213 5.63389Z" fill="currentColor"/>
</svg>
