<svg width="24" height="24" viewBox="0 0 24 24" fill="none" xmlns="http://www.w3.org/2000/svg">
<g clip-path="url(#clip0_3779_25765)">
<path d="M22.5502 13.81C22.2402 12.87 21.7202 12.08 21.0402 11.5C20.3302 10.9 19.5002 10.59 18.6302 10.59C18.1602 10.59 17.6902 10.71 17.2502 10.9L15.9002 7.22004V5.54004H18.1802V4.04004H15.1502C14.7402 4.04004 14.4002 4.38004 14.4002 4.79004V6.60004H8.97023L7.98023 4.47004C7.86023 4.21004 7.59023 4.04004 7.30023 4.04004H4.46023V5.54004H6.82023L7.63023 7.28004L6.42023 10.58C6.27023 10.56 6.11023 10.54 5.96023 10.54C4.82023 10.54 3.71023 11.11 2.92023 12.11C2.16023 13.07 1.74023 14.33 1.74023 15.67C1.74023 16.66 1.97023 17.63 2.41023 18.46C2.87023 19.32 3.51023 19.99 4.29023 20.39C4.83023 20.67 5.39023 20.81 5.97023 20.81C6.26023 20.81 6.55023 20.77 6.83023 20.7C7.67023 20.49 8.43024 19.98 9.02024 19.24C9.59024 18.52 9.97023 17.63 10.1302 16.65C10.1602 16.43 10.1802 16.21 10.2002 15.98H12.1802C12.4902 15.98 12.7702 15.79 12.8802 15.5L15.1602 9.51004L15.9902 11.78C15.8602 11.91 15.7202 12.03 15.6002 12.17C14.8402 13.13 14.4202 14.39 14.4202 15.73C14.4202 16.72 14.6502 17.69 15.0902 18.52C15.5502 19.38 16.1902 20.05 16.9702 20.45C17.5102 20.73 18.0702 20.87 18.6502 20.87C18.9402 20.87 19.2302 20.83 19.5102 20.76C20.3502 20.55 21.1102 20.05 21.7002 19.3C22.2702 18.58 22.6502 17.69 22.8102 16.71C22.9602 15.74 22.8802 14.74 22.5802 13.83L22.5502 13.81ZM7.40023 12.6C7.87023 12.99 8.23023 13.56 8.45023 14.23C8.48023 14.31 8.49024 14.4 8.52024 14.48H6.59023L7.30023 12.53C7.30023 12.53 7.37023 12.57 7.40023 12.6ZM7.82023 18.3C7.44023 18.78 6.96023 19.11 6.44023 19.24C5.94023 19.36 5.43023 19.3 4.96023 19.05C4.46023 18.79 4.03023 18.34 3.71023 17.75C3.38023 17.13 3.21023 16.41 3.21023 15.66C3.21023 14.67 3.52023 13.72 4.07023 13.03C4.56023 12.41 5.20023 12.06 5.87023 12.04L4.80023 14.96C4.72023 15.19 4.75023 15.45 4.89023 15.65C5.03023 15.85 5.26023 15.97 5.50023 15.97H8.65023C8.65023 16.11 8.63023 16.26 8.61023 16.4C8.50023 17.13 8.22023 17.78 7.81023 18.3H7.82023ZM11.6302 14.47H10.0602C10.0102 14.23 9.95023 13.99 9.87023 13.75C9.56023 12.81 9.04023 12.02 8.36023 11.44C8.19023 11.3 8.01023 11.17 7.83023 11.06L8.92023 8.09004H14.0602L11.6302 14.46V14.47ZM21.3002 16.46C21.1902 17.19 20.9102 17.84 20.5002 18.36C20.1102 18.84 19.6402 19.17 19.1202 19.3C18.6302 19.42 18.1102 19.36 17.6402 19.11C17.1402 18.85 16.7102 18.4 16.3902 17.81C16.0602 17.19 15.8902 16.47 15.8902 15.72C15.8902 14.87 16.1402 14.04 16.5502 13.39L17.3202 15.48L18.7302 14.96L17.7502 12.29C18.0302 12.16 18.3202 12.09 18.6202 12.09C19.1302 12.09 19.6302 12.28 20.0702 12.65C20.5402 13.04 20.9002 13.61 21.1202 14.28C21.3502 14.97 21.4102 15.73 21.2902 16.46H21.3002Z" fill="#333333"/>
</g>
<defs>
<clipPath id="clip0_3779_25765">
<rect width="24" height="24" fill="white"/>
</clipPath>
</defs>
</svg>
