<svg width="24" height="24" viewBox="0 0 24 24" fill="none" xmlns="http://www.w3.org/2000/svg">
<path d="M20.2601 6.18998C19.8801 4.26998 18.0101 3.00998 16.0901 3.37998C15.1601 3.55998 14.3501 4.09998 13.8201 4.87998C13.4901 5.36998 13.3101 5.91998 13.2501 6.47998H9.13012L8.18012 2.91998C8.03012 2.34998 7.59012 1.91998 7.02012 1.76998C6.45012 1.61998 5.86012 1.78998 5.44012 2.20998L3.87012 3.82998L4.95012 4.86998L6.52012 3.24998C6.52012 3.24998 6.57012 3.19998 6.64012 3.21998C6.71012 3.23998 6.72012 3.28998 6.73012 3.30998L7.57012 6.48998H5.19012L7.52012 21.08H14.9201L16.6301 10.41C16.6301 10.41 16.7101 10.42 16.7501 10.42C16.9801 10.42 17.2101 10.4 17.4301 10.35C19.3501 9.97998 20.6101 8.10998 20.2401 6.17998L20.2601 6.18998ZM15.5201 7.98998L15.2201 9.84998H7.26012L6.96012 7.98998H15.5201ZM13.6701 19.58H8.82012L7.50012 11.34H14.9801L13.6601 19.58H13.6701ZM17.1701 8.88998C17.0801 8.90998 16.9901 8.90998 16.8901 8.91998L17.2801 6.48998H14.7601C14.8101 6.21998 14.9101 5.95998 15.0701 5.72998C15.3801 5.26998 15.8401 4.96998 16.3801 4.85998C16.9201 4.75998 17.4701 4.85998 17.9201 5.16998C18.3701 5.47998 18.6801 5.93998 18.7901 6.47998C19.0101 7.58998 18.2801 8.66998 17.1701 8.88998Z" fill="#333333"/>
</svg>
