<svg width="24" height="24" viewBox="0 0 24 24" fill="none" xmlns="http://www.w3.org/2000/svg">
<path d="M21.2502 18.1501L12.7502 10.6201V9.0501C12.7502 8.5501 13.1602 8.1501 13.6502 8.1501C14.9802 8.1501 16.0502 7.0701 16.0502 5.7501V5.5001C16.0502 4.1701 14.9702 3.1001 13.6502 3.1001H10.8402V4.6001H13.6502C14.1502 4.6001 14.5502 5.0101 14.5502 5.5001V5.7501C14.5502 6.2501 14.1402 6.6501 13.6502 6.6501C12.3202 6.6501 11.2502 7.7301 11.2502 9.0501V10.6201L2.75018 18.1501C2.34018 18.5101 2.20018 19.0801 2.39018 19.6001C2.59018 20.1201 3.07018 20.4501 3.62018 20.4501H20.3702C20.9202 20.4501 21.4002 20.1201 21.6002 19.6001C21.8002 19.0801 21.6602 18.5201 21.2402 18.1501H21.2502ZM4.12018 18.9501L12.0102 11.9601L19.9002 18.9501H4.11018H4.12018Z" fill="#333333"/>
</svg>
