<svg width="24" height="24" viewBox="0 0 24 24" fill="none" xmlns="http://www.w3.org/2000/svg">
<g clip-path="url(#clip0_3817_25840)">
<path d="M11.6004 20.1899C10.5504 20.1899 9.60041 20.0499 8.70041 19.7599C7.16041 19.2699 6.01041 18.5099 5.21041 17.4299C3.69041 15.3899 3.95041 13.0099 5.88041 11.3499C6.07041 11.1899 6.25041 11.0299 6.41041 10.8499C6.31041 10.6599 6.22041 10.5999 6.01041 10.5699C5.31041 10.4899 4.63041 10.3099 4.01041 10.1199C3.06041 9.83994 2.77041 9.18994 2.70041 8.69994C2.60041 7.98994 2.95041 7.46994 3.64041 7.31994C3.99041 7.23994 4.34041 7.15994 4.69041 7.06994L5.28041 6.92994C5.33041 6.90994 5.35041 6.88994 5.38041 6.81994C5.97041 5.24994 7.11041 4.24994 8.68041 3.90994C10.0604 3.61994 11.3504 3.91994 12.4204 4.78994C13.4204 5.59994 13.8904 6.77994 13.7704 8.19994C13.7104 8.89994 13.4704 9.57994 13.0304 10.2399C12.9804 10.3199 12.9304 10.3999 12.8904 10.4599C13.0904 10.4999 13.3104 10.5199 13.5304 10.5299C13.7204 10.5399 13.8304 10.5399 13.9404 10.5299H14.1504H14.1604C15.3404 10.5599 16.5204 10.2299 17.8904 9.45994C18.0504 9.36994 18.2204 9.27994 18.4004 9.19994C18.7804 9.02994 19.1104 9.01994 19.4104 9.14994C19.7104 9.28994 19.9204 9.54994 20.0404 9.93994C20.1604 10.3399 20.2104 10.7399 20.2404 11.0699L20.2804 11.3799C20.3304 11.7799 20.3804 12.1899 20.3804 12.6099C20.3804 13.3099 20.3004 14.0299 20.1104 14.7499C19.4504 17.2399 17.7904 18.9099 15.1604 19.6999C14.2804 19.9699 13.3304 20.1099 12.0804 20.1499C11.9204 20.1499 11.7704 20.1499 11.6104 20.1499L11.6004 20.1899ZM4.42041 8.67994C5.07041 8.86994 5.61041 9.00994 6.16041 9.07994C6.86041 9.15994 7.40041 9.51994 7.72041 10.1299C8.04041 10.7499 7.98041 11.3199 7.54041 11.8199C7.32041 12.0699 7.08041 12.2899 6.85041 12.4799C5.51041 13.6299 5.34041 15.1099 6.40041 16.5299C7.02041 17.3599 7.89041 17.9299 9.15041 18.3299C10.0204 18.5999 10.9504 18.7199 12.0104 18.6799C13.1204 18.6399 13.9604 18.5199 14.7204 18.2899C16.8404 17.6499 18.1304 16.3799 18.6504 14.3899C18.8104 13.7999 18.8804 13.2099 18.8704 12.6499C18.8704 12.2899 18.8204 11.9399 18.7804 11.5799L18.7404 11.2499C18.7204 11.0799 18.7004 10.9099 18.6704 10.7499C18.6504 10.7599 18.6304 10.7699 18.6104 10.7799C17.0004 11.6799 15.5604 12.0799 14.1204 12.0399H13.9604C13.8004 12.0399 13.6404 12.0399 13.4804 12.0399C13.0404 12.0099 12.6304 11.9699 12.2204 11.8399C11.7404 11.6899 11.5204 11.3999 11.4104 11.1899C11.3004 10.9699 11.2104 10.6099 11.3804 10.1299C11.4804 9.85994 11.6104 9.65994 11.7304 9.46994C12.0604 8.96994 12.2204 8.52994 12.2604 8.07994C12.3404 7.14994 12.0704 6.44994 11.4604 5.94994C10.7504 5.36994 9.91041 5.17994 8.98041 5.36994C7.91041 5.59994 7.19041 6.23994 6.77041 7.33994C6.56041 7.89994 6.17041 8.24994 5.61041 8.37994L5.03041 8.51994C4.82041 8.56994 4.62041 8.61994 4.41041 8.66994L4.42041 8.67994Z" fill="#333333"/>
</g>
<defs>
<clipPath id="clip0_3817_25840">
<rect width="24" height="24" fill="white"/>
</clipPath>
</defs>
</svg>
