<svg width="40" height="40" viewBox="0 0 40 40" fill="none" xmlns="http://www.w3.org/2000/svg">
<circle cx="20" cy="20" r="20" transform="rotate(-180 20 20)" fill="#5158D8"/>
<path d="M6.91211 21.4175C6.91211 20.0159 7.82518 18.9877 9.23531 18.9877C10.1932 18.9877 10.6454 19.4581 10.6454 20.3178L9.43051 20.6101C9.43051 20.353 9.36864 20.0074 9.01344 20.0074C8.53451 20.0074 8.33078 20.5749 8.33078 21.1253C8.33078 21.7279 8.60598 22.0383 9.18198 22.0383C10.2774 22.0383 11.166 21.3866 11.4188 21.1402L11.3228 21.7877C11.1766 21.9733 10.1772 23.0858 8.70304 23.0858C7.49664 23.0858 6.91211 22.4031 6.91211 21.4186V21.4175Z" fill="white"/>
<path d="M18.5835 21.4175C18.5835 20.0159 19.4966 18.9877 20.9067 18.9877C21.8646 18.9877 22.3168 19.4581 22.3168 20.3178L21.1019 20.6101C21.1019 20.353 21.04 20.0074 20.6848 20.0074C20.2059 20.0074 20.0022 20.5749 20.0022 21.1253C20.0022 21.7279 20.2774 22.0383 20.8534 22.0383C21.9488 22.0383 22.8427 21.3599 23.0955 21.1125L22.9942 21.7866C22.848 21.9722 21.8486 23.0847 20.3744 23.0847C19.168 23.0847 18.5835 22.4021 18.5835 21.4175Z" fill="white"/>
<path d="M11.4656 20.3626C11.4656 20.1856 11.4123 20.1237 11.2704 20.1237C11.1989 20.1237 11.12 20.1322 11.0667 20.1418L11.1467 19.2021C11.3419 19.105 11.7941 18.9888 12.1664 18.9888C12.6272 18.9888 12.8949 19.184 12.8949 19.6981C12.8949 19.8933 12.7051 21.1968 12.6912 21.4368C12.6709 21.7802 12.7989 21.9925 13.0795 21.9925C13.7387 21.9925 13.9381 20.8874 13.9381 20.0981C13.9381 19.7077 13.8848 19.3621 13.8314 19.0965H15.2256C15.2874 19.3536 15.3141 19.6821 15.3141 20.0096C15.3141 21.7568 14.5067 23.0869 12.8128 23.0869C11.7749 23.0869 11.3056 22.528 11.3056 21.7653C11.3056 21.4634 11.4656 20.6037 11.4656 20.3637" fill="white"/>
<path d="M16.1324 21.9145C15.999 22.8542 16.398 23.0846 17.0369 23.0846C18.0374 23.0846 18.6284 22.3988 18.8662 22.1993L18.6113 21.8046C18.1985 22.0969 17.3921 22.5684 17.534 21.746L17.9062 19.0942H17.2844C16.127 19.0942 16.0342 19.923 14.8396 20.0574L14.7937 20.547C15.2908 20.547 15.9585 20.4382 16.3702 20.1502" fill="white"/>
<path d="M17.279 18.3796C17.7387 18.3796 18.1697 18.0052 18.2347 17.5455C18.3009 17.0772 17.9723 16.7018 17.5041 16.7018C17.0358 16.7018 16.6134 17.0762 16.5483 17.5455C16.4833 18.0052 16.8203 18.3796 17.279 18.3796Z" fill="white"/>
<path d="M26.3797 22.1484C27.0463 22.1484 27.3727 21.8252 27.3727 21.8252L27.8559 22.1228C27.8559 22.1228 27.0207 23.0849 26.1077 23.0849C25.1946 23.0849 24.7327 22.5175 24.4842 21.5329L24.3338 21.5511L24.1386 22.9697H22.7637L23.6234 16.7617H24.9983L24.6165 19.5372C24.945 19.2183 25.3791 18.9783 25.9114 18.9783C26.5674 18.9783 26.8693 19.3335 26.8693 19.8124C26.8693 20.5751 26.3018 21.0625 25.4677 21.3292C25.5519 21.6737 25.7119 22.1484 26.3786 22.1484H26.3797ZM24.4309 20.8407C25.0165 20.7788 25.5125 20.5751 25.5125 20.2199C25.5125 20.0961 25.4421 19.9628 25.2373 19.9628C24.8565 19.9628 24.5983 20.3265 24.4565 20.6903L24.4298 20.8407H24.4309Z" fill="white"/>
<path d="M27.2822 21.3994C27.2822 19.9807 28.2316 18.9877 29.694 18.9877C30.8289 18.9877 31.4945 19.5818 31.4945 20.6197C31.4945 22.0298 30.5366 23.0847 29.0913 23.0847C27.9564 23.0847 27.2822 22.4458 27.2822 21.3994ZM30.0577 20.7871C30.0577 20.2815 29.8625 20.033 29.5254 20.033C28.9665 20.033 28.7094 20.6453 28.7094 21.2394C28.7094 21.7535 28.878 22.0373 29.3121 22.0373C29.7825 22.0373 30.0566 21.4079 30.0566 20.7871H30.0577Z" fill="white"/>
<path d="M30.7434 19.5351C30.7434 19.5351 31.425 19.6812 31.8751 18.6028H33.0879C33.0879 18.6028 32.7317 19.7932 31.0357 20.0631L30.7434 19.5351Z" fill="white"/>
<path d="M22.896 16.7617H21.6832C21.4432 17.454 21.184 17.6471 20.9621 17.7996C20.9621 17.7996 20.608 17.5468 20.5077 16.7617H19.4613C19.4613 16.7617 19.3237 17.7612 20.4928 18.4599H21.4016C22.9962 17.8423 22.897 16.7617 22.897 16.7617H22.896Z" fill="white"/>
</svg>
