<svg width="24" height="24" viewBox="0 0 24 24" fill="none" xmlns="http://www.w3.org/2000/svg">
<g clip-path="url(#clip0_3779_25744)">
<path d="M17.7698 2.65014H6.22977C4.86977 2.65014 3.75977 3.76014 3.75977 5.12014V16.6701C3.75977 18.0301 4.86977 19.1401 6.22977 19.1401H11.0998V22.2901H12.5998V19.1401H17.7798C19.1398 19.1401 20.2398 18.0301 20.2398 16.6701V5.11014C20.2398 3.75014 19.1298 2.64014 17.7798 2.64014L17.7698 2.65014ZM18.7298 16.6601C18.7298 17.1901 18.2998 17.6301 17.7698 17.6301H6.22977C5.69977 17.6301 5.25977 17.2001 5.25977 16.6601V5.11014C5.25977 4.58014 5.68977 4.14014 6.22977 4.14014H17.7798C18.3098 4.14014 18.7398 4.57014 18.7398 5.11014V16.6601H18.7298Z" fill="#333333"/>
<path d="M12.5398 6.48998H9.7998V15.36H11.2998V12.58H12.5398C14.2198 12.58 15.5898 11.21 15.5898 9.52998C15.5898 7.84998 14.2198 6.47998 12.5398 6.47998V6.48998ZM12.5398 11.09H11.2998V7.98998H12.5398C13.3898 7.98998 14.0898 8.67998 14.0898 9.53998C14.0898 10.4 13.3998 11.09 12.5398 11.09Z" fill="#333333"/>
</g>
<defs>
<clipPath id="clip0_3779_25744">
<rect width="24" height="24" fill="white"/>
</clipPath>
</defs>
</svg>
