<svg width="24" height="24" viewBox="0 0 24 24" fill="none" xmlns="http://www.w3.org/2000/svg">
<path d="M20.66 19.9601C18.78 19.9601 18.18 18.9101 17 16.5501L16.9 16.3601C15.77 14.1001 15.08 13.1501 13.63 13.0801H13.47V7.75008H15.59L8.70004 1.58008L1.79004 7.75008H3.91004V21.5001H5.41004V15.1701H7.94004V21.5001H9.44004V15.1701H11.97V21.5001H13.47V14.5801H13.59C14.07 14.6001 14.43 14.7801 15.56 17.0301L15.66 17.2201C16.79 19.5001 17.77 21.4601 20.66 21.4601H21.57V19.9601H20.66ZM8.70004 3.59008L11.67 6.24008H5.72004L8.69004 3.59008H8.70004ZM5.42004 7.74008H11.99V13.6601H5.42004V7.74008Z" fill="#333333"/>
<path d="M8.70031 9.56982C8.08031 9.56982 7.57031 10.0798 7.57031 10.6998C7.57031 11.3198 8.08031 11.8298 8.70031 11.8298C9.32031 11.8298 9.83031 11.3198 9.83031 10.6998C9.83031 10.0798 9.32031 9.56982 8.70031 9.56982Z" fill="#333333"/>
</svg>
