<svg width="40" height="40" viewBox="0 0 40 40" fill="none" xmlns="http://www.w3.org/2000/svg">
<path d="M17.4561 23.7399V14.2861C17.4561 13.4093 18.1665 12.6989 19.0433 12.6989H19.0742C19.951 12.6989 20.6614 13.4093 20.6614 14.2861V17.6855" stroke="currentColor" stroke-width="0.788155" stroke-linecap="round" stroke-linejoin="round"/>
<path d="M26.7151 17.6855V14.2861C26.7151 13.4093 26.0047 12.6989 25.1279 12.6989H25.097C24.2202 12.6989 23.5098 13.4093 23.5098 14.2861V23.7389" stroke="currentColor" stroke-width="0.788155" stroke-linecap="round" stroke-linejoin="round"/>
<path d="M11.7578 17.6853H28.1397" stroke="currentColor" stroke-width="0.788155" stroke-linecap="round" stroke-linejoin="round"/>
<path d="M11.7578 23.7399C13.1231 23.7399 13.1231 25.1649 14.4885 25.1649C15.8538 25.1649 15.8538 23.7399 17.2191 23.7399C18.5845 23.7399 18.5845 25.1649 19.9498 25.1649C21.3151 25.1649 21.3151 23.7399 22.6805 23.7399C24.0458 23.7399 24.0458 25.1649 25.4111 25.1649C26.7765 25.1649 26.7765 23.7399 28.1418 23.7399" stroke="currentColor" stroke-width="0.788155" stroke-linecap="round" stroke-linejoin="round"/>
<path d="M11.7578 26.5887C13.1231 26.5887 13.1231 28.0138 14.4885 28.0138C15.8538 28.0138 15.8538 26.5887 17.2191 26.5887C18.5845 26.5887 18.5845 28.0138 19.9498 28.0138C21.3151 28.0138 21.3151 26.5887 22.6805 26.5887C24.0458 26.5887 24.0458 28.0138 25.4111 28.0138C26.7765 28.0138 26.7765 26.5887 28.1418 26.5887" stroke="currentColor" stroke-width="0.788155" stroke-linecap="round" stroke-linejoin="round"/>
<path d="M17.4561 19.8219H23.5105" stroke="currentColor" stroke-width="0.788155" stroke-linecap="round" stroke-linejoin="round"/>
<path d="M17.4561 21.9584H23.5105" stroke="currentColor" stroke-width="0.788155" stroke-linecap="round" stroke-linejoin="round"/>
</svg>

