<svg width="24" height="24" viewBox="0 0 24 24" fill="none" xmlns="http://www.w3.org/2000/svg">
<g clip-path="url(#clip0_3816_25822)">
<path d="M4.76953 6.9701V9.7501C4.76953 11.6301 6.10953 13.2001 7.88953 13.5501V20.3201H9.38953V3.1001H8.63953C6.50953 3.1001 4.76953 4.8401 4.76953 6.9701ZM7.88953 12.0001C6.94953 11.6901 6.26953 10.8001 6.26953 9.7501V6.9701C6.26953 5.9201 6.94953 5.0301 7.88953 4.7201V12.0001Z" fill="#333333"/>
<path d="M17.7301 3.06006V5.73006C17.7301 6.77006 17.1201 7.65006 16.2801 7.99006V3.06006H14.7801V7.99006C13.9401 7.65006 13.3301 6.77006 13.3301 5.73006V3.06006H11.8301V5.73006C11.8301 7.61006 13.1001 9.19006 14.7801 9.56006V20.3201H16.2801V9.56006C17.9601 9.19006 19.2301 7.62006 19.2301 5.73006V3.06006H17.7301Z" fill="#333333"/>
</g>
<defs>
<clipPath id="clip0_3816_25822">
<rect width="24" height="24" fill="white"/>
</clipPath>
</defs>
</svg>
