<svg width="24" height="24" viewBox="0 0 24 24" fill="none" xmlns="http://www.w3.org/2000/svg">
<path d="M16.6198 6.60979C16.2698 4.30979 14.2898 2.52979 11.8898 2.52979H8.81977C6.16976 2.52979 4.00977 4.68979 4.00977 7.33979V20.2798H5.50977V7.33979C5.50977 5.51979 6.98977 4.02979 8.81977 4.02979H11.8898C13.4698 4.02979 14.7898 5.13979 15.1198 6.62979C12.8998 6.82979 11.1398 8.67979 11.1398 10.9498V11.6998H20.7598V10.9498C20.7598 8.61979 18.9198 6.72978 16.6298 6.60979H16.6198ZM12.7298 10.1998C13.0598 8.98979 14.1698 8.08979 15.4898 8.08979H16.3898C17.7098 8.08979 18.8198 8.97978 19.1498 10.1998H12.7298Z" fill="#333333"/>
<path d="M14.79 13.6499H13.29V15.8499H14.79V13.6499Z" fill="#333333"/>
<path d="M18.5898 13.6499H17.0898V15.8499H18.5898V13.6499Z" fill="#333333"/>
<path d="M14.79 18.0698H13.29V20.2698H14.79V18.0698Z" fill="#333333"/>
<path d="M18.5898 18.0698H17.0898V20.2698H18.5898V18.0698Z" fill="#333333"/>
</svg>
