<svg width="24" height="24" viewBox="0 0 24 24" fill="none" xmlns="http://www.w3.org/2000/svg">
<path d="M3.9002 16.8701L1.2002 7.31006H3.0602L4.7802 14.3401H4.8702L6.7102 7.31006H8.4102L10.2502 14.3401H10.3302L12.0502 7.31006H13.9102L11.2102 16.8701H9.5002L7.5902 10.1601H7.5102L5.5902 16.8701H3.8802H3.9002Z" fill="#333333"/>
<path d="M22.7996 10.5302H21.0496C20.9996 10.2402 20.9096 9.99018 20.7696 9.77018C20.6396 9.55018 20.4696 9.36018 20.2696 9.20018C20.0696 9.04018 19.8396 8.93018 19.5896 8.85018C19.3396 8.77018 19.0596 8.73018 18.7696 8.73018C18.2496 8.73018 17.7896 8.86018 17.3896 9.12018C16.9896 9.38018 16.6696 9.76018 16.4496 10.2602C16.2196 10.7602 16.1096 11.3702 16.1096 12.0902C16.1096 12.8102 16.2196 13.4402 16.4496 13.9402C16.6796 14.4402 16.9896 14.8202 17.3896 15.0702C17.7896 15.3202 18.2496 15.4502 18.7696 15.4502C19.0596 15.4502 19.3196 15.4102 19.5796 15.3402C19.8296 15.2602 20.0596 15.1502 20.2596 15.0002C20.4596 14.8502 20.6296 14.6702 20.7696 14.4502C20.9096 14.2302 20.9996 13.9802 21.0596 13.7002H22.8096C22.7396 14.1602 22.5996 14.5902 22.3896 14.9902C22.1796 15.3902 21.8896 15.7402 21.5396 16.0402C21.1896 16.3402 20.7796 16.5802 20.3196 16.7502C19.8596 16.9202 19.3296 17.0002 18.7696 17.0002C17.9296 17.0002 17.1796 16.8102 16.5196 16.4202C15.8596 16.0302 15.3396 15.4702 14.9596 14.7302C14.5796 14.0002 14.3896 13.1102 14.3896 12.0902C14.3896 11.0702 14.5796 10.1802 14.9596 9.44018C15.3396 8.71018 15.8596 8.15018 16.5196 7.76018C17.1796 7.37018 17.9296 7.18018 18.7596 7.18018C19.2896 7.18018 19.7896 7.25018 20.2496 7.40018C20.7096 7.55018 21.1096 7.77018 21.4696 8.06018C21.8296 8.35018 22.1196 8.70018 22.3596 9.12018C22.5896 9.54018 22.7396 10.0102 22.8196 10.5402L22.7996 10.5302Z" fill="#333333"/>
</svg>
