<svg width="24" height="24" viewBox="0 0 24 24" fill="none" xmlns="http://www.w3.org/2000/svg">
<path d="M16.4004 21.8599H6.20035V18.2599C5.19035 17.2599 4.61035 15.8899 4.61035 14.4599V4.25994C4.61035 2.83994 5.76035 1.68994 7.18035 1.68994C8.60035 1.68994 9.75035 2.83994 9.75035 4.25994V11.3699H20.4204V12.1199C20.4204 13.2399 20.1304 14.3399 19.5704 15.3099C18.6504 16.8999 17.0404 17.9799 15.2204 18.2799L16.4004 21.8699V21.8599ZM7.70035 20.3599H14.3304L13.1804 16.8499H14.2204C15.9104 16.8499 17.4704 15.9699 18.2804 14.5499C18.5804 14.0299 18.7804 13.4599 18.8704 12.8599H8.26035V4.25994C8.26035 3.66994 7.78035 3.18994 7.19035 3.18994C6.60035 3.18994 6.12035 3.66994 6.12035 4.25994V14.4599C6.12035 15.5799 6.60035 16.6399 7.45035 17.3699L7.71035 17.5899V20.3599H7.70035Z" fill="#333333"/>
</svg>
