<svg width="24" height="24" viewBox="0 0 24 24" fill="none" xmlns="http://www.w3.org/2000/svg">
<g clip-path="url(#clip0_3779_25770)">
<path d="M16.5397 21.7401H15.1197C14.0997 21.7401 13.2697 20.9401 13.2697 19.9601V19.7101H10.7997V19.9601C10.7997 20.9401 9.96973 21.7401 8.94973 21.7401H7.47973C6.45973 21.7401 5.62973 20.9401 5.62973 19.9601V19.5601C4.55973 19.1901 3.78973 18.1401 3.78973 16.9201V9.9901H2.21973V11.5901H0.719727V8.4901H3.78973V5.8901C3.78973 4.3501 4.98973 3.1001 6.46973 3.1001H17.5097C18.9897 3.1001 20.1997 4.3501 20.1997 5.8901V8.4901H23.2797V11.5901H21.7797V9.9901H20.1997V16.9201C20.1997 18.1201 19.4497 19.1701 18.3897 19.5501V19.9701C18.3897 20.9501 17.5597 21.7501 16.5397 21.7501V21.7401ZM9.29973 18.2101H14.7697V19.9601C14.7697 20.1101 14.9297 20.2401 15.1197 20.2401H16.5397C16.7297 20.2401 16.8897 20.1101 16.8897 19.9601V18.2501L17.5897 18.2001C18.2097 18.1601 18.6997 17.5901 18.6997 16.9201V13.1701H5.28973V16.9201C5.28973 17.6101 5.78973 18.1701 6.41973 18.2001L7.12973 18.2401V19.9601C7.12973 20.1101 7.28973 20.2401 7.47973 20.2401H8.94973C9.13973 20.2401 9.29973 20.1101 9.29973 19.9601V18.2101ZM5.28973 11.6701H18.6997V8.1801H5.28973V11.6701ZM5.28973 6.6801H18.6997V5.8901C18.6997 5.1801 18.1697 4.6001 17.5097 4.6001H6.47973C5.82973 4.6001 5.29973 5.1801 5.29973 5.8901V6.6801H5.28973Z" fill="#333333"/>
<path d="M8.60039 16.6998C7.94039 16.6998 7.40039 16.1598 7.40039 15.4998C7.40039 14.8398 7.94039 14.2998 8.60039 14.2998C9.26039 14.2998 9.80039 14.8398 9.80039 15.4998C9.80039 16.1598 9.26039 16.6998 8.60039 16.6998Z" fill="#333333"/>
<path d="M15.3797 16.6998C14.7197 16.6998 14.1797 16.1598 14.1797 15.4998C14.1797 14.8398 14.7197 14.2998 15.3797 14.2998C16.0397 14.2998 16.5797 14.8398 16.5797 15.4998C16.5797 16.1598 16.0397 16.6998 15.3797 16.6998Z" fill="#333333"/>
</g>
<defs>
<clipPath id="clip0_3779_25770">
<rect width="24" height="24" fill="white"/>
</clipPath>
</defs>
</svg>
