<svg width="24" height="24" viewBox="0 0 24 24" fill="none" xmlns="http://www.w3.org/2000/svg">
<path d="M20.4702 6.83008H3.53016C2.50016 6.83008 1.66016 7.67008 1.66016 8.70008V14.7501C1.66016 15.7801 2.50016 16.6201 3.53016 16.6201H4.50016C4.57016 16.9501 4.69016 17.2701 4.88016 17.5601C5.17016 18.0001 5.58016 18.3301 6.06016 18.5301C6.38016 18.6601 6.73016 18.7301 7.07016 18.7301C7.24016 18.7301 7.41016 18.7101 7.59016 18.6801C8.10016 18.5801 8.57016 18.3301 8.94016 17.9601C9.31016 17.5901 9.56016 17.1301 9.66016 16.6201H14.3502C14.4202 16.9501 14.5402 17.2701 14.7302 17.5601C15.0202 18.0001 15.4302 18.3301 15.9102 18.5301C16.2302 18.6601 16.5802 18.7301 16.9202 18.7301C17.0902 18.7301 17.2602 18.7101 17.4402 18.6801C17.9502 18.5801 18.4202 18.3301 18.7902 17.9601C19.1602 17.5901 19.4102 17.1301 19.5102 16.6201H20.4702C21.5002 16.6201 22.3402 15.7801 22.3402 14.7501V8.70008C22.3402 7.67008 21.5002 6.83008 20.4702 6.83008ZM20.8402 8.70008V10.9701H17.9702V8.33008H20.4702C20.6702 8.33008 20.8402 8.50008 20.8402 8.70008ZM7.52016 10.9701V8.33008H11.2502V10.9701H7.52016ZM12.7502 8.33008H16.4802V10.9701H12.7502V8.33008ZM3.53016 8.33008H6.03016V10.9701H3.16016V8.70008C3.16016 8.50008 3.33016 8.33008 3.53016 8.33008ZM8.20016 16.3101C8.16016 16.5301 8.05016 16.7301 7.89016 16.8901C7.73016 17.0501 7.53016 17.1601 7.31016 17.2001C7.09016 17.2401 6.86016 17.2201 6.65016 17.1401C6.44016 17.0501 6.26016 16.9101 6.14016 16.7201C6.01016 16.5301 5.95016 16.3101 5.95016 16.0901C5.95016 15.7901 6.07016 15.5001 6.28016 15.2901C6.50016 15.0801 6.78016 14.9601 7.09016 14.9601C7.29016 14.9201 7.54016 15.0301 7.73016 15.1501C7.92016 15.2801 8.06016 15.4501 8.15016 15.6601C8.24016 15.8701 8.26016 16.0901 8.21016 16.3201L8.20016 16.3101ZM18.0502 16.3101C18.0102 16.5301 17.9002 16.7301 17.7402 16.8901C17.5802 17.0501 17.3802 17.1601 17.1602 17.2001C16.9402 17.2401 16.7102 17.2201 16.5002 17.1401C16.2902 17.0501 16.1102 16.9101 15.9902 16.7201C15.8702 16.5301 15.8002 16.3201 15.8002 16.0901C15.8002 15.7901 15.9202 15.5001 16.1302 15.2901C16.3502 15.0801 16.6302 14.9601 16.9402 14.9601C17.1702 14.9601 17.3902 15.0301 17.5702 15.1501C17.7602 15.2701 17.9002 15.4501 17.9902 15.6601C18.0802 15.8701 18.1002 16.0901 18.0602 16.3101H18.0502ZM20.4802 15.1201H19.3802C19.3802 15.1201 19.3802 15.1001 19.3702 15.0801C19.1702 14.6001 18.8302 14.1901 18.3902 13.9001C17.9502 13.6101 17.4502 13.4601 16.9302 13.4601C16.2302 13.4601 15.5602 13.7301 15.0702 14.2301C14.8102 14.4901 14.6202 14.7901 14.4802 15.1201H9.53016C9.53016 15.1201 9.53016 15.1001 9.52016 15.0801C9.32016 14.6001 8.98016 14.1901 8.54016 13.9001C8.10016 13.6101 7.60016 13.4601 7.08016 13.4601C6.38016 13.4601 5.71016 13.7301 5.21016 14.2301C4.96016 14.4801 4.76016 14.7901 4.63016 15.1201H3.53016C3.33016 15.1201 3.16016 14.9501 3.16016 14.7501V12.4801H20.8502V14.7501C20.8502 14.9501 20.6802 15.1201 20.4802 15.1201Z" fill="#333333"/>
</svg>
