<svg width="40" height="40" viewBox="0 0 40 40" fill="none" xmlns="http://www.w3.org/2000/svg">
<circle cx="20" cy="20" r="20" transform="rotate(-180 20 20)" fill="#5158D8"/>
<path d="M11.8093 16.3849C13.1747 16.3849 13.1747 17.81 14.54 17.81C15.9053 17.81 15.9053 16.3849 17.2707 16.3849C18.636 16.3849 18.636 17.81 20.0013 17.81C21.3667 17.81 21.3667 16.3849 22.732 16.3849C24.0973 16.3849 24.0973 17.81 25.4627 17.81C26.828 17.81 26.828 16.3849 28.1933 16.3849" stroke="white" stroke-width="0.788155" stroke-linecap="round" stroke-linejoin="round"/>
<path d="M11.8093 19.2875C13.1747 19.2875 13.1747 20.7125 14.54 20.7125C15.9053 20.7125 15.9053 19.2875 17.2707 19.2875C18.636 19.2875 18.636 20.7125 20.0013 20.7125C21.3667 20.7125 21.3667 19.2875 22.732 19.2875C24.0973 19.2875 24.0973 20.7125 25.4627 20.7125C26.828 20.7125 26.828 19.2875 28.1933 19.2875" stroke="white" stroke-width="0.788155" stroke-linecap="round" stroke-linejoin="round"/>
<path d="M11.8093 22.191C13.1747 22.191 13.1747 23.6161 14.54 23.6161C15.9053 23.6161 15.9053 22.191 17.2707 22.191C18.636 22.191 18.636 23.6161 20.0013 23.6161C21.3667 23.6161 21.3667 22.191 22.732 22.191C24.0973 22.191 24.0973 23.6161 25.4627 23.6161C26.828 23.6161 26.828 22.191 28.1933 22.191" stroke="white" stroke-width="0.788155" stroke-linecap="round" stroke-linejoin="round"/>
</svg>
