<svg width="24" height="24" viewBox="0 0 24 24" fill="none" xmlns="http://www.w3.org/2000/svg">
<g clip-path="url(#clip0_3816_25832)">
<path d="M21.3402 8.95006C19.4002 8.95006 17.5202 9.52006 15.9002 10.5601C15.7202 7.76006 14.5402 5.10006 12.5302 3.09006L12.0002 2.56006L11.4702 3.09006C9.47016 5.09006 8.29016 7.75006 8.10016 10.5501C6.48016 9.51006 4.60016 8.94006 2.66016 8.94006H1.91016V9.69006C1.91016 15.2501 6.43016 19.7801 11.9902 19.7801C17.5502 19.7801 22.0802 15.2601 22.0802 9.69006V8.94006H21.3302L21.3402 8.95006ZM12.0002 4.73006C13.7102 6.73006 14.5902 9.34006 14.4102 12.0001C14.2702 14.2001 13.4202 16.2801 12.0002 17.9401C10.5802 16.2801 9.73016 14.2001 9.59016 12.0001C9.42016 9.34006 10.2902 6.73006 12.0002 4.73006ZM3.45016 10.4901C5.17016 10.6501 6.79016 11.3401 8.13016 12.4501C8.33016 14.5001 9.06016 16.4501 10.2402 18.1001C6.60016 17.3401 3.80016 14.2601 3.45016 10.4901ZM13.7602 18.1001C14.9402 16.4401 15.6702 14.5001 15.8702 12.4501C17.2102 11.3401 18.8302 10.6501 20.5502 10.4901C20.2102 14.2701 17.4002 17.3401 13.7602 18.1001Z" fill="#333333"/>
</g>
<defs>
<clipPath id="clip0_3816_25832">
<rect width="24" height="24" fill="white"/>
</clipPath>
</defs>
</svg>
