<svg width="40" height="40" viewBox="0 0 40 40" fill="none" xmlns="http://www.w3.org/2000/svg">
<circle cx="20" cy="20" r="20" transform="rotate(-180 20 20)" fill="#5158D8"/>
<path d="M19.9999 28.094C24.47 28.094 28.0937 24.4702 28.0937 20.0001C28.0937 15.53 24.47 11.9062 19.9999 11.9062C15.5298 11.9062 11.906 15.53 11.906 20.0001C11.906 24.4702 15.5298 28.094 19.9999 28.094Z" stroke="white" stroke-width="0.788155" stroke-linecap="round" stroke-linejoin="round"/>
<path d="M17.9499 27.743L16.1558 25.3323L18.0608 22.6656H21.8923L23.807 25.2811L21.999 27.7878" stroke="white" stroke-width="0.788155" stroke-linecap="round" stroke-linejoin="round"/>
<path d="M26.8555 24.2571L23.776 25.2715L21.8816 22.6422L23.0528 19.056L26.1429 18.079L28.0384 20.6144" stroke="white" stroke-width="0.788155" stroke-linecap="round" stroke-linejoin="round"/>
<path d="M13.3737 24.416L16.1555 25.3323L18.0499 22.7029L16.8659 19.0592L13.7875 18.0448L12.0051 20.5184" stroke="white" stroke-width="0.788155" stroke-linecap="round" stroke-linejoin="round"/>
<path d="M13.7749 14.8713L13.7877 18.0447L16.8714 19.0559L19.9626 16.7913V13.5508L16.8714 12.5737" stroke="white" stroke-width="0.788155" stroke-linecap="round" stroke-linejoin="round"/>
<path d="M26.1429 14.8372V18.0788L23.0528 19.0559L19.9626 16.7913V13.5508L23.0528 12.5737" stroke="white" stroke-width="0.788155" stroke-linecap="round" stroke-linejoin="round"/>
</svg>
