<svg width="40" height="40" viewBox="0 0 40 40" fill="none" xmlns="http://www.w3.org/2000/svg">
<circle cx="20" cy="20" r="20" transform="rotate(-180 20 20)" fill="#5158D8"/>
<path d="M26.1535 25.7899C27.4634 25.5147 28.2751 25.0102 28.4767 23.7953C28.7167 22.3553 25.6917 22.3329 23.6682 21.7697" stroke="white" stroke-width="0.788155" stroke-linecap="round" stroke-linejoin="round"/>
<path d="M15.9253 20.2272C15.7375 20.3221 15.5359 20.3882 15.3183 20.4234C13.5882 20.705 14.5546 18.6709 13.0709 18.6709C11.5871 18.6709 11.6778 23.7941 11.6778 23.7941C11.6778 23.7941 11.0037 25.5466 12.3519 25.952C13.7002 26.3573 16.1269 25.6373 17.745 25.6373C18.5621 25.6373 19.7919 25.7877 21.0709 25.9104" stroke="white" stroke-width="0.788155" stroke-linecap="round" stroke-linejoin="round"/>
<path d="M25.5798 24.6634C26.8641 24.3935 27.7686 23.906 28.1921 23.0516" stroke="white" stroke-width="0.788155" stroke-linecap="round" stroke-linejoin="round"/>
<path d="M12.0149 23.9892C12.0149 23.9892 16.8693 23.5242 18.464 24.1983C18.8416 24.3572 19.312 24.498 19.8421 24.6122" stroke="white" stroke-width="0.788155" stroke-linecap="round" stroke-linejoin="round"/>
<path d="M13.5426 14.9962C13.5426 14.9962 11.7292 15.8026 12.4343 17.1125C13.1394 18.4224 15.4903 19.6992 16.6999 20.9077C17.9095 22.1173 19.8871 24.976 21.5511 26.3338C23.2151 27.6928 24.6871 28.5589 26.0972 27.5509C27.5074 26.5429 24.4247 23.6618 23.6183 21.6458C22.8119 19.6309 23.5255 14.896 22.1154 15.2992C20.7052 15.7024 19.6396 15.8144 18.782 15.1968C17.2791 14.1141 19.5212 13.3162 18.413 12.208C17.3047 11.0997 13.5426 14.9952 13.5426 14.9952V14.9962Z" stroke="white" stroke-width="0.788155" stroke-linecap="round" stroke-linejoin="round"/>
<path d="M13.6479 15.394C13.6479 15.394 17.6223 18.674 18.3114 20.37C19.3429 22.9108 23.7525 27.6895 26.4383 26.7818" stroke="white" stroke-width="0.788155" stroke-linecap="round" stroke-linejoin="round"/>
<path d="M23.1275 18.0906L21.0486 18.1706" stroke="white" stroke-width="0.788155" stroke-linecap="round" stroke-linejoin="round"/>
<path d="M22.9844 19.9178L21.6831 19.968" stroke="white" stroke-width="0.788155" stroke-linecap="round" stroke-linejoin="round"/>
<path d="M23.57 21.5167L22.4436 21.5658" stroke="white" stroke-width="0.788155" stroke-linecap="round" stroke-linejoin="round"/>
</svg>
