<svg width="195" height="200" viewBox="0 0 195 200" fill="none" xmlns="http://www.w3.org/2000/svg">
<rect width="195" height="200" rx="10" fill="#89C764"/>
<path d="M73.668 60.6911H86.9422V63.4946L86.0467 69.9323H87.5216C90.3134 64.3772 95.8443 60.1201 103.693 60.1201C115.808 60.1201 124.974 70.0881 124.974 86.7534C124.974 103.003 115.808 113.387 103.693 113.387C95.8443 113.387 90.2607 108.87 87.5216 103.574H86.0467L86.9422 110.479V137.684H73.668V60.6911ZM111.594 86.7534C111.594 77.2526 106.643 71.0745 99.3735 71.0745C91.7883 71.0745 86.9948 77.2007 86.9948 86.7534C86.9948 96.3061 91.7883 102.432 99.3735 102.432C106.643 102.432 111.594 96.2542 111.594 86.7534Z" fill="#16254C"/>
<path d="M145.168 25.9584H47.668V36.7744H145.168V25.9584Z" fill="#16254C"/>
<path d="M145.168 157.914H47.668V168.73H145.168V157.914Z" fill="#16254C"/>
</svg>
