<?xml version="1.0" encoding="UTF-8"?><svg id="Layer_2" xmlns="http://www.w3.org/2000/svg" viewBox="0 0 41.02 31.92"><defs><style>.cls-1{fill:none;stroke:#000;stroke-linecap:round;stroke-linejoin:round;stroke-width:.5px;}</style></defs><g id="Layer_1-2"><g><path class="cls-1" d="M22.15,31.67c11.55,0,18.61-5.04,18.61-5.04V10.4c-3.65,0-4.57-3.26-9.77-6.58-.78-.5-2.94-1.97-4.89-3.03-1.64-.89-3.75-.76-4.63,.88h0c-.76,1.41-.3,3.17,1.06,4.02l5.02,3.18s0,.01,0,.01h-11.31"/><path class="cls-1" d="M21.03,25.98H9.43c-1.55,0-2.83,1.27-2.83,2.83v.04c0,1.55,1.27,2.83,2.83,2.83h12.72"/><path class="cls-1" d="M21.03,20.28H4.49c-1.55,0-2.83,1.27-2.83,2.83v.04c0,1.55,1.27,2.83,2.83,2.83H21.03"/><path class="cls-1" d="M21.03,14.59H3.08c-1.55,0-2.83,1.27-2.83,2.83v.04c0,1.55,1.27,2.83,2.83,2.83H21.03"/><path class="cls-1" d="M19.4,8.89H7.13c-1.55,0-2.83,1.27-2.83,2.83v.04c0,1.55,1.27,2.83,2.83,2.83h13.9"/></g></g></svg>