<svg width="28" height="28" viewBox="0 0 28 28" fill="none" xmlns="http://www.w3.org/2000/svg">
<path d="M13.94 26.89C6.81 26.89 1 21.08 1 13.94C1 6.8 6.81 1 13.94 1C21.07 1 26.88 6.81 26.88 13.94C26.88 21.07 21.07 26.88 13.94 26.88V26.89Z" fill="white"/>
<path d="M13.94 2C20.54 2 25.88 7.35 25.88 13.94C25.88 20.53 20.53 25.88 13.94 25.88C7.35 25.88 2 20.54 2 13.94C2 7.34 7.35 2 13.94 2ZM13.94 0C6.26 0 0 6.26 0 13.94C0 21.62 6.26 27.88 13.94 27.88C21.62 27.88 27.88 21.62 27.88 13.94C27.88 6.26 21.63 0 13.94 0Z" fill="#003399"/>
<path d="M17.53 10.4101V8.31006H13.29H12.99H10.76V19.5801H13.29V15.0401H17.34V12.9401H13.29V10.4101H17.53Z" fill="#003399"/>
</svg>
