<svg width="40" height="28" viewBox="0 0 40 28" fill="none" xmlns="http://www.w3.org/2000/svg">
<path d="M13.94 26.89C6.81 26.89 1 21.08 1 13.94C1 6.8 6.81 1 13.94 1H25.66C32.8 1 38.6 6.81 38.6 13.94C38.6 21.07 32.79 26.89 25.66 26.89H13.94Z" fill="white"/>
<path d="M25.67 2C32.27 2 37.61 7.35 37.61 13.94C37.61 20.53 32.26 25.88 25.67 25.88H13.94C7.34 25.88 2 20.53 2 13.94C2 7.35 7.35 2 13.94 2H25.66M25.66 0H13.94C6.26 0 0 6.26 0 13.94C0 21.62 6.26 27.88 13.94 27.88H25.66C33.35 27.88 39.6 21.62 39.6 13.94C39.6 6.26 33.36 0 25.67 0H25.66Z" fill="#003399"/>
<path d="M27.77 12.4399C27.77 12.4399 27.73 12.4999 27.7 12.5299L21.86 18.3699C21.66 18.5699 21.32 18.5699 21.12 18.3699L20.06 17.3099C19.86 17.1099 19.86 16.7699 20.06 16.5699L25.9 10.7299C25.9 10.7299 25.95 10.6799 25.98 10.6599" stroke="#003399" stroke-width="0.5" stroke-linecap="round" stroke-linejoin="round"/>
<path d="M25.978 10.6439L27.7882 12.4541C27.8975 12.5635 28.0748 12.5635 28.1841 12.4541L28.6084 12.0298C28.7177 11.9205 28.7177 11.7432 28.6084 11.6339L26.7982 9.82367C26.6889 9.71433 26.5116 9.71433 26.4022 9.82367L25.978 10.2479C25.8686 10.3573 25.8686 10.5346 25.978 10.6439Z" stroke="#003399" stroke-width="0.5" stroke-linecap="round" stroke-linejoin="round"/>
<path d="M19.92 17.1699L21.26 18.5099L20.67 18.8899C20.48 19.0199 20.24 18.9999 20.09 18.8499L19.58 18.3399C19.43 18.1899 19.42 17.9499 19.54 17.7599L19.92 17.1699Z" stroke="#003399" stroke-width="0.5" stroke-linecap="round" stroke-linejoin="round"/>
<path d="M19.84 18.6001L17.21 21.2201" stroke="#003399" stroke-width="0.5" stroke-linecap="round" stroke-linejoin="round"/>
<path d="M27.3696 10.3932L28.0414 11.0649L29.5546 9.55173L28.8828 8.87998L27.3696 10.3932Z" stroke="#003399" stroke-width="0.5" stroke-linecap="round" stroke-linejoin="round"/>
<path d="M28.6405 8.63089L29.8143 9.80469C29.9198 9.91013 30.0907 9.91013 30.1962 9.80469L30.5921 9.40871C30.6976 9.30327 30.6976 9.13231 30.5921 9.02687L29.4184 7.85307C29.3129 7.74763 29.142 7.74763 29.0365 7.85307L28.6405 8.24905C28.5351 8.35449 28.5351 8.52545 28.6405 8.63089Z" stroke="#003399" stroke-width="0.5" stroke-linecap="round" stroke-linejoin="round"/>
<path d="M21.59 16.01L21.13 15.54" stroke="#003399" stroke-width="0.5" stroke-linecap="round" stroke-linejoin="round"/>
<path d="M22.6501 14.95L22.1801 14.49" stroke="#003399" stroke-width="0.5" stroke-linecap="round" stroke-linejoin="round"/>
<path d="M23.7101 13.8899L23.2401 13.4299" stroke="#003399" stroke-width="0.5" stroke-linecap="round" stroke-linejoin="round"/>
<path d="M24.76 12.8401L24.3 12.3701" stroke="#003399" stroke-width="0.5" stroke-linecap="round" stroke-linejoin="round"/>
<path d="M25.82 11.7801L25.36 11.3101" stroke="#003399" stroke-width="0.5" stroke-linecap="round" stroke-linejoin="round"/>
<path d="M22.23 18.01L20.45 16.22" stroke="#003399" stroke-width="0.5" stroke-linecap="round" stroke-linejoin="round"/>
<path d="M17.94 10.61V8.51001H13.71H13.4H11.18V19.78H13.71V15.24H17.76V13.14H13.71V10.61H17.94Z" fill="#003399"/>
</svg>
