<svg width="28" height="28" viewBox="0 0 28 28" fill="none" xmlns="http://www.w3.org/2000/svg">
<path d="M13.95 26.89C6.81 26.89 1 21.08 1 13.94C1 6.8 6.81 1 13.95 1C21.09 1 26.89 6.81 26.89 13.94C26.89 21.07 21.08 26.88 13.95 26.88V26.89Z" fill="white"/>
<path d="M13.94 2C20.54 2 25.88 7.35 25.88 13.94C25.88 20.53 20.53 25.88 13.94 25.88C7.35 25.88 2 20.54 2 13.94C2 7.34 7.35 2 13.94 2ZM13.94 0C6.26 0 0 6.26 0 13.94C0 21.62 6.26 27.88 13.94 27.88C21.62 27.88 27.88 21.62 27.88 13.94C27.88 6.26 21.63 0 13.94 0Z" fill="#003399"/>
<path d="M17.72 11.99C17.72 11.99 17.68 12.05 17.65 12.08L11.81 17.92C11.61 18.12 11.27 18.12 11.07 17.92L10.01 16.86C9.80999 16.66 9.80999 16.32 10.01 16.12L15.85 10.28C15.85 10.28 15.9 10.23 15.93 10.21" stroke="#003399" stroke-width="0.5" stroke-linecap="round" stroke-linejoin="round"/>
<path d="M15.9261 10.1886L17.7363 11.9988C17.8457 12.1081 18.023 12.1081 18.1323 11.9988L18.5566 11.5745C18.6659 11.4652 18.6659 11.2879 18.5566 11.1785L16.7464 9.36835C16.637 9.259 16.4598 9.259 16.3504 9.36835L15.9261 9.79261C15.8168 9.90196 15.8168 10.0792 15.9261 10.1886Z" stroke="#003399" stroke-width="0.5" stroke-linecap="round" stroke-linejoin="round"/>
<path d="M9.87997 16.72L11.22 18.06L10.63 18.44C10.44 18.57 10.2 18.55 10.05 18.4L9.53997 17.89C9.38997 17.74 9.37997 17.5 9.49997 17.31L9.87997 16.72V16.72Z" stroke="#003399" stroke-width="0.5" stroke-linecap="round" stroke-linejoin="round"/>
<path d="M9.78997 18.1501L7.15997 20.7701" stroke="#003399" stroke-width="0.5" stroke-linecap="round" stroke-linejoin="round"/>
<path d="M17.3278 9.93787L17.9995 10.6096L19.5127 9.09641L18.841 8.42466L17.3278 9.93787Z" stroke="#003399" stroke-width="0.5" stroke-linecap="round" stroke-linejoin="round"/>
<path d="M18.5887 8.17557L19.7625 9.34936C19.868 9.45481 20.0389 9.45481 20.1443 9.34936L20.5403 8.95338C20.6458 8.84794 20.6458 8.67699 20.5403 8.57155L19.3665 7.39775C19.2611 7.29231 19.0901 7.29231 18.9847 7.39775L18.5887 7.79373C18.4833 7.89917 18.4833 8.07013 18.5887 8.17557Z" stroke="#003399" stroke-width="0.5" stroke-linecap="round" stroke-linejoin="round"/>
<path d="M11.54 15.5501L11.08 15.0901" stroke="#003399" stroke-width="0.5" stroke-linecap="round" stroke-linejoin="round"/>
<path d="M12.6 14.5L12.14 14.03" stroke="#003399" stroke-width="0.5" stroke-linecap="round" stroke-linejoin="round"/>
<path d="M13.66 13.44L13.19 12.98" stroke="#003399" stroke-width="0.5" stroke-linecap="round" stroke-linejoin="round"/>
<path d="M14.71 12.3802L14.25 11.9202" stroke="#003399" stroke-width="0.5" stroke-linecap="round" stroke-linejoin="round"/>
<path d="M15.77 11.3301L15.31 10.8601" stroke="#003399" stroke-width="0.5" stroke-linecap="round" stroke-linejoin="round"/>
<path d="M12.18 17.55L10.4 15.77" stroke="#003399" stroke-width="0.5" stroke-linecap="round" stroke-linejoin="round"/>
</svg>
