<svg width="12" height="13" viewBox="0 0 12 13" fill="none" xmlns="http://www.w3.org/2000/svg">
<path d="M0.0762653 6.73345C0.183469 6.8801 2.73776 10.3242 6.00006 10.3242C9.26235 10.3242 11.8168 6.88009 11.9239 6.73359C12.0254 6.59446 12.0254 6.40577 11.9239 6.26664C11.8168 6.11999 9.26235 2.67587 6.00006 2.67587C2.73776 2.67587 0.183469 6.12001 0.0762653 6.26652C-0.0254059 6.40562 -0.0254059 6.59446 0.0762653 6.73345ZM6.00006 3.46707C8.40309 3.46707 10.4844 5.75301 11.1005 6.50031C10.4852 7.24828 8.40824 9.53301 6.00006 9.53301C3.59715 9.53301 1.51601 7.24748 0.89965 6.49977C1.51496 5.75183 3.59187 3.46707 6.00006 3.46707Z" fill="currentColor"/>
<path d="M6.00039 8.87378C7.30919 8.87378 8.37402 7.80894 8.37402 6.50014C8.37402 5.19134 7.30919 4.1265 6.00039 4.1265C4.69159 4.1265 3.62675 5.19134 3.62675 6.50014C3.62675 7.80894 4.69159 8.87378 6.00039 8.87378ZM6.00039 4.91773C6.87297 4.91773 7.5828 5.62759 7.5828 6.50014C7.5828 7.3727 6.87294 8.08255 6.00039 8.08255C5.12783 8.08255 4.41798 7.3727 4.41798 6.50014C4.41798 5.62759 5.12781 4.91773 6.00039 4.91773Z" fill="currentColor"/>
</svg>
