<svg width="32" height="32" viewBox="0 0 32 32" fill="none" xmlns="http://www.w3.org/2000/svg">
<g clip-path="url(#clip0_719_13943)">
<path d="M16.287 23.8528C20.1106 23.8528 23.2102 20.7532 23.2102 16.9296C23.2102 13.106 20.1106 10.0063 16.287 10.0063C12.4634 10.0063 9.36377 13.106 9.36377 16.9296C9.36377 20.7532 12.4634 23.8528 16.287 23.8528Z" stroke="currentColor" stroke-width="1.01117" stroke-linecap="round" stroke-linejoin="round"/>
<path d="M16.2871 19.1098C17.4911 19.1098 18.4672 18.1337 18.4672 16.9296C18.4672 15.7256 17.4911 14.7495 16.2871 14.7495C15.083 14.7495 14.1069 15.7256 14.1069 16.9296C14.1069 18.1337 15.083 19.1098 16.2871 19.1098Z" stroke="currentColor" stroke-width="1.01117" stroke-linecap="round" stroke-linejoin="round"/>
<path d="M16.2871 7.66699V10.0066" stroke="currentColor" stroke-width="1.01117" stroke-linecap="round" stroke-linejoin="round"/>
<path d="M16.2871 23.853V26.1927" stroke="currentColor" stroke-width="1.01117" stroke-linecap="round" stroke-linejoin="round"/>
<path d="M7.02417 16.9297H9.36382" stroke="currentColor" stroke-width="1.01117" stroke-linecap="round" stroke-linejoin="round"/>
<path d="M23.2104 16.9297H25.5501" stroke="currentColor" stroke-width="1.01117" stroke-linecap="round" stroke-linejoin="round"/>
</g>
</svg>
