<?xml version="1.0" encoding="utf-8"?>
<!-- Generator: Adobe Illustrator 26.0.2, SVG Export Plug-In . SVG Version: 6.00 Build 0)  -->
<svg version="1.1" id="Layer_1" xmlns="http://www.w3.org/2000/svg" xmlns:xlink="http://www.w3.org/1999/xlink" x="0px" y="0px"
	 viewBox="0 0 20 20" style="enable-background:new 0 0 20 20;" xml:space="preserve">
<style type="text/css">
	.st0{stroke:#000000;}
	.st1{fill:none;stroke:#000000;stroke-width:2;stroke-miterlimit:10;}
</style>
<path class="st0" d="M9,3.5c-1.1,0-2.1,0.3-3,0.9C5.1,5.1,4.4,5.9,4,6.9c-0.4,1-0.5,2.1-0.3,3.2c0.2,1.1,0.7,2,1.5,2.8
	c0.8,0.8,1.7,1.3,2.8,1.5c1.1,0.2,2.2,0.1,3.2-0.3c1-0.4,1.9-1.1,2.5-2c0.6-0.9,0.9-2,0.9-3c0-1.5-0.6-2.8-1.6-3.9
	C11.9,4.1,10.5,3.5,9,3.5z M9,2.7c1.3,0,2.5,0.4,3.5,1.1c1,0.7,1.9,1.7,2.3,2.9c0.5,1.2,0.6,2.4,0.4,3.7c-0.2,1.2-0.9,2.4-1.7,3.3
	c-0.9,0.9-2,1.5-3.3,1.7c-1.2,0.2-2.5,0.1-3.7-0.4c-1.2-0.5-2.2-1.3-2.9-2.3C3,11.5,2.7,10.3,2.7,9c0-1.7,0.7-3.3,1.9-4.5
	C5.7,3.3,7.3,2.7,9,2.7z"/>
<path class="st1" d="M13.1,13.1l4.2,4.2"/>
</svg>
