<svg width="40" height="40" viewBox="0 0 40 40" fill="none" xmlns="http://www.w3.org/2000/svg">
<path d="M18.5678 11.7499C17.2165 11.7499 15.8956 12.1507 14.7722 12.9017C13.6488 13.6526 12.7734 14.7199 12.2568 15.9685C11.7401 17.2171 11.6054 18.5909 11.8698 19.9161C12.1341 21.2412 12.7856 22.4582 13.7418 23.413C14.698 24.3678 15.9159 25.0175 17.2415 25.2799C18.567 25.5423 19.9406 25.4056 21.1885 24.8871C22.4363 24.3687 23.5023 23.4917 24.2516 22.3672C25.0009 21.2427 25.3998 19.9212 25.3978 18.5699C25.3952 16.7602 24.6744 15.0255 23.3938 13.7468C22.1132 12.4681 20.3775 11.7499 18.5678 11.7499ZM18.5678 10.6499C20.1371 10.6479 21.6716 11.1116 22.9772 11.9822C24.2829 12.8528 25.3008 14.0912 25.9023 15.5406C26.5037 16.99 26.6616 18.5853 26.3559 20.1245C26.0503 21.6637 25.2948 23.0776 24.1852 24.1873C23.0755 25.2969 21.6616 26.0524 20.1224 26.358C18.5832 26.6637 16.9879 26.5058 15.5385 25.9044C14.0891 25.3029 12.8507 24.285 11.9801 22.9793C11.1095 21.6737 10.6458 20.1392 10.6478 18.5699C10.6505 16.4702 11.4857 14.4573 12.9705 12.9725C14.4552 11.4878 16.4681 10.6526 18.5678 10.6499Z" fill="currentColor" stroke="currentColor"/>
<path d="M23.6997 23.7002L28.9297 28.9302" stroke="currentColor" stroke-width="2" stroke-miterlimit="10"/>
</svg>
