<svg width="6" height="7" viewBox="0 0 6 7" fill="none" xmlns="http://www.w3.org/2000/svg">
<path d="M2.31775 6.16683C2.14391 6.16683 1.97927 6.08949 1.87376 5.95614L0.445902 4.1575C0.401757 4.10195 0.369528 4.03866 0.351058 3.97123C0.332588 3.9038 0.328239 3.83356 0.338259 3.76453C0.34828 3.69549 0.372474 3.62902 0.409458 3.56891C0.446442 3.5088 0.495491 3.45622 0.553801 3.41419C0.61209 3.37199 0.678542 3.34116 0.749349 3.32349C0.820156 3.30581 0.893926 3.30164 0.96643 3.31119C1.03893 3.32075 1.10875 3.34385 1.17187 3.37918C1.23499 3.4145 1.29018 3.46136 1.33427 3.51706L2.27379 4.69965L4.63598 1.08331C4.71432 0.963906 4.83913 0.879002 4.98305 0.847218C5.12696 0.815435 5.27823 0.839368 5.40366 0.913768C5.66461 1.06845 5.74494 1.3961 5.58189 1.64526L2.7909 5.91614C2.74326 5.98937 2.67759 6.05042 2.59959 6.09397C2.5216 6.13752 2.43363 6.16227 2.34332 6.16607C2.33453 6.16683 2.32654 6.16683 2.31775 6.16683Z" fill="currentColor"/>
</svg>
