<svg width="751" height="47" viewBox="0 0 751 47" fill="none" xmlns="http://www.w3.org/2000/svg">
<path d="M628.129 39.4959C631.085 39.4959 633.48 37.1002 633.48 34.1449C633.48 31.1897 631.085 28.7939 628.129 28.7939C625.174 28.7939 622.778 31.1897 622.778 34.1449C622.778 37.1002 625.174 39.4959 628.129 39.4959Z" stroke="currentColor" stroke-width="1.34955" stroke-linecap="round" stroke-linejoin="round"/>
<path d="M628.129 45.5148V39.4958" stroke="currentColor" stroke-width="1.34955" stroke-linecap="round" stroke-linejoin="round"/>
<path d="M465.805 39.4959C468.76 39.4959 471.156 37.1002 471.156 34.1449C471.156 31.1897 468.76 28.7939 465.805 28.7939C462.85 28.7939 460.454 31.1897 460.454 34.1449C460.454 37.1002 462.85 39.4959 465.805 39.4959Z" stroke="currentColor" stroke-width="1.34955" stroke-linecap="round" stroke-linejoin="round"/>
<path d="M465.805 45.5148V39.4958" stroke="currentColor" stroke-width="1.34955" stroke-linecap="round" stroke-linejoin="round"/>
<path d="M516.616 39.3474C519.571 39.3474 521.967 36.9517 521.967 33.9965C521.967 31.0412 519.571 28.6455 516.616 28.6455C513.66 28.6455 511.265 31.0412 511.265 33.9965C511.265 36.9517 513.66 39.3474 516.616 39.3474Z" stroke="currentColor" stroke-width="1.34955" stroke-linecap="round" stroke-linejoin="round"/>
<path d="M516.615 45.3664V39.3474" stroke="currentColor" stroke-width="1.34955" stroke-linecap="round" stroke-linejoin="round"/>
<path d="M564.295 22.6265C567.251 22.6265 569.646 20.2308 569.646 17.2755C569.646 14.3203 567.251 11.9246 564.295 11.9246C561.34 11.9246 558.944 14.3203 558.944 17.2755C558.944 20.2308 561.34 22.6265 564.295 22.6265Z" stroke="currentColor" stroke-width="1.34955" stroke-linecap="round" stroke-linejoin="round"/>
<path d="M564.295 28.6455V22.6265" stroke="currentColor" stroke-width="1.34955" stroke-linecap="round" stroke-linejoin="round"/>
<path d="M750 45.515H620.106C614.809 40.4812 606.084 37.0803 596.307 37.0803C593.898 37.077 591.494 37.2802 589.12 37.6876C583.891 32.3434 574.95 28.821 564.828 28.821C550.341 28.821 538.316 36.0141 536.029 45.4542V45.515L1 45.3395" stroke="currentColor" stroke-width="1.34955" stroke-linecap="round" stroke-linejoin="round"/>
<path d="M639.094 38.6592H652.38L645.74 27.3027L639.094 38.6592Z" stroke="currentColor" stroke-width="1.34955" stroke-linecap="round" stroke-linejoin="round"/>
<path d="M645.74 45.5148V38.821" stroke="currentColor" stroke-width="1.34955" stroke-linecap="round" stroke-linejoin="round"/>
<path d="M573.891 24.8804H587.177L580.53 13.5239L573.891 24.8804Z" stroke="currentColor" stroke-width="1.34955" stroke-linecap="round" stroke-linejoin="round"/>
<path d="M580.53 31.7294V25.0356" stroke="currentColor" stroke-width="1.34955" stroke-linecap="round" stroke-linejoin="round"/>
<path d="M658.912 38.6592H672.198L665.552 27.3027L658.912 38.6592Z" stroke="currentColor" stroke-width="1.34955" stroke-linecap="round" stroke-linejoin="round"/>
<path d="M665.552 45.5148V38.821" stroke="currentColor" stroke-width="1.34955" stroke-linecap="round" stroke-linejoin="round"/>
<path d="M598.513 4.50883C598.513 3.57823 598.882 2.68575 599.54 2.02771C600.198 1.36968 601.091 1 602.022 1C602.952 1 603.845 1.36968 604.503 2.02771C605.161 2.68575 605.53 3.57823 605.53 4.50883" stroke="currentColor" stroke-width="1.34955" stroke-linecap="round" stroke-linejoin="round"/>
<path d="M591.495 4.50883C591.495 3.57823 591.865 2.68575 592.523 2.02771C593.181 1.36968 594.073 1 595.004 1C595.935 1 596.827 1.36968 597.485 2.02771C598.143 2.68575 598.513 3.57823 598.513 4.50883" stroke="currentColor" stroke-width="1.34955" stroke-linecap="round" stroke-linejoin="round"/>
<path d="M612.541 14.6575C612.521 14.1843 612.596 13.7117 612.763 13.2683C612.93 12.8249 613.184 12.4198 613.512 12.0776C613.84 11.7353 614.233 11.463 614.669 11.2769C615.104 11.0908 615.573 10.9949 616.047 10.9949C616.521 10.9949 616.99 11.0908 617.425 11.2769C617.861 11.463 618.254 11.7353 618.582 12.0776C618.909 12.4198 619.164 12.8249 619.331 13.2683C619.498 13.7117 619.573 14.1843 619.552 14.6575" stroke="currentColor" stroke-width="1.34955" stroke-linecap="round" stroke-linejoin="round"/>
<path d="M605.523 14.6575C605.523 13.7269 605.893 12.8344 606.551 12.1764C607.209 11.5184 608.102 11.1487 609.032 11.1487C609.963 11.1487 610.855 11.5184 611.513 12.1764C612.171 12.8344 612.541 13.7269 612.541 14.6575" stroke="currentColor" stroke-width="1.34955" stroke-linecap="round" stroke-linejoin="round"/>
</svg>
