<?xml version="1.0" encoding="UTF-8"?><svg id="Layer_2" xmlns="http://www.w3.org/2000/svg" viewBox="0 0 63.39 46.47"><defs><style>.cls-1{fill:#fff;}.cls-2{fill:none;stroke:#000;stroke-linecap:round;stroke-linejoin:round;stroke-width:.5px;}</style></defs><g id="Layer_1-2"><g><g><path class="cls-1" d="M15.57,45.47c-1.32,0-2.39-1.07-2.39-2.4v-2.12c0-1.32,1.07-2.4,2.39-2.4h.45L1.41,16.7c-.49-.74-.54-1.68-.12-2.46,.41-.78,1.22-1.26,2.11-1.26H14.59v-.23c0-1.32,1.07-2.39,2.4-2.39h4.09v-.23c0-1.32,1.07-2.39,2.39-2.39h2.22V3.39c0-1.32,1.07-2.39,2.4-2.39h7.23c1.32,0,2.4,1.07,2.4,2.39V7.73h2.22c1.32,0,2.4,1.07,2.4,2.39v.23h4.09c1.32,0,2.4,1.07,2.4,2.39v.23h11.19c.89,0,1.7,.49,2.11,1.27,.42,.78,.37,1.72-.12,2.46l-14.61,21.85h.44c1.32,0,2.4,1.07,2.4,2.4v2.12c0,1.32-1.07,2.4-2.4,2.4H15.57Z"/><path d="M35.31,2c.77,0,1.4,.63,1.4,1.4v5.34h3.22c.77,0,1.4,.63,1.4,1.4v1.23h5.09c.77,0,1.4,.63,1.4,1.4v1.23h12.19c.52,0,.99,.28,1.23,.74,.24,.45,.22,1-.07,1.43l-15.65,23.41h2.32c.77,0,1.4,.63,1.4,1.4v2.12c0,.77-.63,1.4-1.4,1.4H15.57c-.77,0-1.4-.63-1.4-1.4v-2.12c0-.77,.63-1.4,1.4-1.4h2.32L2.24,16.15c-.29-.43-.31-.98-.07-1.43,.24-.45,.71-.74,1.23-.74H15.59v-1.23c0-.77,.63-1.4,1.4-1.4h5.09v-1.23c0-.77,.63-1.4,1.4-1.4h3.22V3.4c0-.77,.63-1.4,1.4-1.4h7.23m0-2h-7.23c-1.87,0-3.4,1.52-3.4,3.4v3.34h-1.22c-1.61,0-2.96,1.12-3.31,2.62h-3.18c-1.61,0-2.96,1.12-3.31,2.62H3.4c-1.26,0-2.41,.69-3,1.8-.59,1.1-.53,2.44,.17,3.49l13.73,20.54c-1.25,.5-2.13,1.73-2.13,3.15v2.12c0,1.87,1.52,3.4,3.4,3.4H47.82c1.87,0,3.4-1.52,3.4-3.4v-2.12c0-1.43-.88-2.65-2.13-3.15l13.73-20.54c.7-1.04,.77-2.38,.17-3.49-.59-1.11-1.74-1.8-2.99-1.8h-10.28c-.35-1.5-1.7-2.62-3.31-2.62h-3.18c-.35-1.5-1.7-2.62-3.31-2.62h-1.22V3.4c0-1.87-1.52-3.4-3.4-3.4h0Z"/></g><g><path class="cls-2" d="M60,15.37H3.4l17.1,25.58h22.4L60,15.37Z"/><rect class="cls-2" x="16.98" y="12.75" width="29.42" height="2.62"/><rect class="cls-2" x="15.57" y="40.95" width="32.26" height="2.13"/><rect class="cls-2" x="23.47" y="10.13" width="16.45" height="2.62"/><rect class="cls-2" x="28.08" y="3.4" width="7.23" height="6.73"/><line class="cls-2" x1="9.55" y1="15.37" x2="26.65" y2="40.95"/><line class="cls-2" x1="16.35" y1="15.37" x2="33.45" y2="40.95"/><line class="cls-2" x1="23.15" y1="15.37" x2="40.25" y2="40.95"/><line class="cls-2" x1="29.94" y1="15.37" x2="44.97" y2="37.85"/><line class="cls-2" x1="36.74" y1="15.37" x2="48.37" y2="32.77"/><line class="cls-2" x1="43.54" y1="15.37" x2="51.77" y2="27.69"/><line class="cls-2" x1="50.33" y1="15.37" x2="55.17" y2="22.6"/><line class="cls-2" x1="53.84" y1="15.37" x2="36.74" y2="40.95"/><line class="cls-2" x1="47.04" y1="15.37" x2="29.94" y2="40.95"/><line class="cls-2" x1="40.25" y1="15.37" x2="23.15" y2="40.95"/><line class="cls-2" x1="33.45" y1="15.37" x2="18.42" y2="37.85"/><line class="cls-2" x1="26.65" y1="15.37" x2="15.02" y2="32.77"/><line class="cls-2" x1="19.86" y1="15.37" x2="11.63" y2="27.69"/><line class="cls-2" x1="13.06" y1="15.37" x2="8.23" y2="22.6"/><line class="cls-2" x1="33.91" y1="4.74" x2="33.91" y2="8.78"/><line class="cls-2" x1="32.41" y1="4.74" x2="32.41" y2="8.78"/></g></g></g></svg>