<?xml version="1.0" encoding="UTF-8"?><svg id="Layer_2" xmlns="http://www.w3.org/2000/svg" viewBox="0 0 72.83 50"><defs><style>.cls-1{fill:#fff;}.cls-2{fill:none;stroke:#000;stroke-linecap:round;stroke-linejoin:round;stroke-width:.5px;}</style></defs><g id="Layer_1-2"><g><g><path class="cls-1" d="M3.39,49c-1.32,0-2.39-1.07-2.39-2.39V9.69l.02-.27c0-.06,.02-.12,.04-.18,0,0,0-.03,.01-.06v-.08c.03-.14,.08-.28,.16-.4l.14-.22L5.08,2.18c.42-.72,1.21-1.18,2.06-1.18,.84,0,1.63,.45,2.06,1.16l3.3,5.51,3.27-5.5c.43-.72,1.22-1.17,2.06-1.17s1.63,.45,2.06,1.17l3.9,6.56c.07,.11,.11,.24,.13,.37,0,0,.04,.18,.05,.25,0,.06,.03,.19,.03,.24v2.59h24.84v-2.59c0-.09,.01-.18,.04-.27,.01-.05,.02-.1,.04-.15v-.07c.03-.14,.08-.27,.15-.39l.14-.22,3.75-6.3c.42-.72,1.21-1.16,2.06-1.16s1.63,.45,2.06,1.17l3.27,5.49,3.27-5.5c.42-.72,1.21-1.16,2.06-1.16s1.64,.45,2.06,1.17l3.9,6.55c.07,.12,.11,.25,.13,.38,0,0,.03,.15,.04,.2,.02,.09,.04,.21,.04,.28V46.6c0,1.32-1.07,2.39-2.39,2.39H3.39Z"/><path d="M17.82,2c.49,0,.95,.26,1.2,.68l3.9,6.56,.02,.11c.02,.05,.03,.11,.04,.16l.02,.07v3.59h26.85v-3.59l.03-.09s.02-.09,.03-.13l.02-.14,.14-.22,3.76-6.32c.25-.42,.71-.67,1.2-.67s.95,.26,1.2,.68l3.89,6.55h0s.46,0,.46,0h0s.14-.23,.14-.23l3.76-6.32c.25-.42,.71-.67,1.2-.67s.95,.26,1.2,.68l3.9,6.56,.02,.11c.02,.05,.03,.11,.04,.16l.02,.07V46.6c0,.77-.62,1.4-1.39,1.4H3.4c-.77,0-1.4-.63-1.4-1.4V9.69l.02-.17v-.05s.03-.07,.04-.1l.02-.14,.14-.22L5.94,2.69c.25-.42,.71-.68,1.2-.69,.49,0,.95,.26,1.2,.68l3.92,6.55h.47l.14-.22,3.76-6.32c.25-.42,.71-.68,1.2-.68m0-2c-1.19,0-2.31,.64-2.92,1.66l-2.41,4.06L10.06,1.65c-.61-1.02-1.73-1.65-2.92-1.65-1.2,0-2.32,.65-2.92,1.68L.51,7.97l-.13,.2c-.15,.24-.25,.51-.29,.8v.04s0,0,0,0c-.03,.1-.05,.22-.06,.32l-.02,.17c0,.06,0,.13,0,.19V46.6c0,1.87,1.52,3.4,3.4,3.4H69.44c1.87,0,3.4-1.52,3.4-3.4V9.59c0-.18-.02-.35-.07-.52,0-.03-.01-.07-.02-.1-.04-.26-.13-.51-.26-.74l-3.9-6.56c-.6-1.02-1.72-1.65-2.92-1.65s-2.32,.63-2.92,1.66l-2.41,4.05-2.41-4.05C57.33,.64,56.21,0,55.01,0s-2.32,.63-2.92,1.66l-3.76,6.32-.11,.18c-.15,.24-.25,.51-.29,.79v.03s-.01,.04-.02,.05v.03c-.05,.17-.08,.35-.08,.53v1.59H24.99v-1.59c0-.18-.02-.36-.07-.53,0-.03-.01-.07-.02-.1-.04-.26-.13-.51-.26-.74l-3.9-6.56c-.61-1.02-1.73-1.66-2.92-1.66h0Z"/></g><g><polygon class="cls-2" points="61.89 9.75 61.89 14.57 58.79 14.57 58.79 9.75 55.01 9.75 55.01 46.6 58.79 46.6 69.44 46.6 69.44 14.57 69.44 9.75 61.89 9.75"/><polygon class="cls-2" points="51.23 20.54 7.14 20.54 10.95 14.57 51.23 14.57 51.23 20.54"/><polyline class="cls-2" points="21.6 14.57 21.6 9.75 14.05 9.75 14.05 14.57"/><polygon class="cls-2" points="58.79 20.54 67.89 20.54 65.66 14.57 58.79 14.57 58.79 20.54"/><rect class="cls-2" x="8.3" y="23.98" width="1.46" height="2.86"/><rect class="cls-2" x="8.3" y="29.57" width="1.46" height="2.86"/><rect class="cls-2" x="8.3" y="35.16" width="1.46" height="2.86"/><rect class="cls-2" x="14.23" y="23.98" width="1.46" height="2.86"/><rect class="cls-2" x="14.23" y="29.57" width="1.46" height="2.86"/><rect class="cls-2" x="14.23" y="35.16" width="1.46" height="2.86"/><rect class="cls-2" x="20.15" y="23.98" width="1.46" height="2.86"/><rect class="cls-2" x="20.15" y="29.57" width="1.46" height="2.86"/><rect class="cls-2" x="20.15" y="35.16" width="1.46" height="2.86"/><rect class="cls-2" x="26.08" y="23.98" width="1.46" height="2.86"/><rect class="cls-2" x="26.08" y="29.57" width="1.46" height="2.86"/><rect class="cls-2" x="26.08" y="35.16" width="1.46" height="2.86"/><rect class="cls-2" x="32" y="23.98" width="1.46" height="2.86"/><rect class="cls-2" x="32" y="29.57" width="1.46" height="2.86"/><rect class="cls-2" x="32" y="35.16" width="1.46" height="2.86"/><rect class="cls-2" x="37.93" y="23.98" width="1.46" height="2.86"/><rect class="cls-2" x="37.93" y="29.57" width="1.46" height="2.86"/><rect class="cls-2" x="37.93" y="35.16" width="1.46" height="2.86"/><rect class="cls-2" x="43.85" y="23.98" width="1.46" height="2.86"/><rect class="cls-2" x="43.85" y="29.57" width="1.46" height="2.86"/><rect class="cls-2" x="43.85" y="35.16" width="1.46" height="2.86"/><rect class="cls-2" x="49.78" y="23.98" width="1.46" height="2.86"/><rect class="cls-2" x="49.78" y="29.57" width="1.46" height="2.86"/><rect class="cls-2" x="49.78" y="35.16" width="1.46" height="2.86"/><rect class="cls-2" x="58.91" y="23.98" width="1.46" height="2.86"/><rect class="cls-2" x="58.91" y="29.57" width="1.46" height="2.86"/><rect class="cls-2" x="58.91" y="35.16" width="1.46" height="2.86"/><rect class="cls-2" x="64.21" y="23.98" width="1.46" height="2.86"/><rect class="cls-2" x="64.21" y="29.57" width="1.46" height="2.86"/><rect class="cls-2" x="64.21" y="35.16" width="1.46" height="2.86"/><line class="cls-2" x1="51.23" y1="9.75" x2="51.23" y2="14.57"/><polyline class="cls-2" points="55.01 46.6 3.4 46.6 3.4 9.75"/><polygon class="cls-2" points="10.95 9.75 7.14 3.4 3.4 9.75 7.14 9.75 7.14 9.75 10.95 9.75"/><polygon class="cls-2" points="17.82 3.4 17.82 3.4 17.82 3.4 17.82 3.4 17.82 3.4 14.05 9.75 17.82 9.75 17.82 9.75 21.6 9.75 17.82 3.4"/><polygon class="cls-2" points="55.01 3.4 51.23 9.75 55.01 9.75 55.01 9.75 58.79 9.75 55.01 3.4"/><polygon class="cls-2" points="65.66 3.4 61.89 9.75 65.66 9.75 65.66 9.75 69.44 9.75 65.66 3.4"/><line class="cls-2" x1="10.95" y1="9.75" x2="10.95" y2="14.57"/></g></g></g></svg>