<?xml version="1.0" encoding="UTF-8"?><svg id="Layer_2" xmlns="http://www.w3.org/2000/svg" viewBox="0 0 56.2 44.35"><defs><style>.cls-1{fill:#fff;}.cls-2{fill:none;stroke:#000;stroke-linecap:round;stroke-linejoin:round;stroke-width:.5px;}</style></defs><g id="Layer_1-2"><g><g><path class="cls-1" d="M42.69,43.35c-2.84,0-5.28-1.77-6.19-4.38h-11.84c-.91,2.62-3.35,4.38-6.19,4.38-2.41,0-4.58-1.31-5.73-3.36-1.23,.57-2.62,.88-4.02,.88H4.16c-1.44,0-2.66-.87-3.04-2.17-.36-1.22,.14-2.52,1.24-3.23l4.88-3.16c.32-.21,.66-.4,1-.57-.18-.21-.35-.43-.5-.65-2.2-.63-3.75-2.66-3.75-4.97v-1.41c0-2.31,1.55-4.33,3.75-4.97,1.24-1.75,3.04-3.07,5.06-3.72v-2.17c-1.67-.69-2.82-2.34-2.82-4.2,0-2.5,2.04-4.54,4.54-4.54h6.9c2.5,0,4.54,2.04,4.54,4.54,0,1.86-1.14,3.51-2.82,4.2v1.69h9.05v-7.01c-1.23-.72-2.02-2.05-2.02-3.5,0-2.23,1.82-4.05,4.05-4.05h16.92c2.23,0,4.05,1.82,4.05,4.05,0,1.45-.79,2.78-2.02,3.5V31.06c1.2,.49,2.02,1.61,2.02,2.87v1.9c0,1.73-1.52,3.14-3.38,3.14h-2.94c-.91,2.62-3.35,4.38-6.19,4.38Z"/><path d="M51.15,2c1.68,0,3.05,1.37,3.05,3.05,0,1.31-.84,2.44-2.02,2.87V31.82c1.14,.16,2.02,1.04,2.02,2.11v1.9c0,1.18-1.07,2.14-2.38,2.14h-3.69c-.55,2.52-2.78,4.38-5.44,4.38s-4.89-1.86-5.44-4.38h-13.35c-.55,2.52-2.78,4.38-5.44,4.38-2.43,0-4.51-1.56-5.26-3.75-1.27,.81-2.86,1.27-4.49,1.27H4.16c-.99,0-1.83-.58-2.08-1.45-.24-.8,.09-1.63,.83-2.11l4.88-3.16c.7-.45,1.45-.79,2.24-1.02-.64-.55-1.21-1.2-1.67-1.91-1.92-.39-3.36-2.09-3.36-4.09v-1.41c0-2,1.44-3.7,3.36-4.09,1.25-1.94,3.23-3.32,5.45-3.84v-3.66c-1.61-.34-2.82-1.76-2.82-3.46,0-1.95,1.59-3.54,3.54-3.54h6.9c1.95,0,3.54,1.59,3.54,3.54,0,1.7-1.21,3.13-2.82,3.46v3.43h11.05V7.92c-1.17-.43-2.02-1.56-2.02-2.87,0-1.68,1.37-3.05,3.05-3.05h16.92m0-2h-16.92c-2.79,0-5.05,2.27-5.05,5.05,0,1.61,.77,3.09,2.02,4.03v5.48h-7.05v-.07c1.7-.97,2.82-2.79,2.82-4.82,0-3.05-2.49-5.54-5.54-5.54h-6.9c-3.05,0-5.54,2.49-5.54,5.54,0,2.03,1.12,3.86,2.82,4.82v.84c-1.84,.74-3.47,1.98-4.68,3.57-2.44,.86-4.13,3.18-4.13,5.82v1.41c0,2.38,1.38,4.5,3.44,5.53l-4.6,2.98c-1.48,.96-2.14,2.71-1.66,4.36,.51,1.72,2.12,2.88,4,2.88h4.55c1.24,0,2.48-.22,3.63-.64,1.4,1.92,3.66,3.12,6.12,3.12,3.02,0,5.66-1.74,6.87-4.38h10.49c1.21,2.64,3.85,4.38,6.87,4.38s5.66-1.74,6.87-4.38h2.26c2.42,0,4.38-1.86,4.38-4.14v-1.9c0-1.44-.8-2.74-2.02-3.48V9.08c1.25-.94,2.02-2.43,2.02-4.03,0-2.79-2.27-5.05-5.05-5.05h0Z"/></g><g><path class="cls-2" d="M9.1,21.79c1.3-2.36,3.81-3.98,6.69-3.98h18.66s0,15.23,0,15.23H15.79c-2.87,0-5.39-1.61-6.69-3.98"/><rect class="cls-2" x="34.44" y="6.85" width="16.49" height="26.19"/><rect class="cls-2" x="32.43" y="3.25" width="20.53" height="3.6" rx="1.8" ry="1.8"/><rect class="cls-2" x="12.23" y="7.38" width="11.48" height="4.58" rx="2.29" ry="2.29"/><rect class="cls-2" x="15.04" y="11.96" width="5.85" height="5.85"/><path class="cls-2" d="M13.54,36.72H51.82c.63,0,1.13-.4,1.13-.89v-1.9c0-.49-.51-.89-1.13-.89H12.39c-1.4,0-2.76,.4-3.93,1.16l-4.88,3.16c-.66,.43-.27,1.26,.58,1.26h4.55c1.9,0,3.7-.71,4.83-1.9h0Z"/><rect class="cls-2" x="37.45" y="9.67" width="10.48" height="8.14" rx="1" ry="1"/><path class="cls-2" d="M9.17,21.79h0v7.28h0c-1.62,0-2.94-1.32-2.94-2.94v-1.41c0-1.62,1.32-2.94,2.94-2.94Z"/><path class="cls-2" d="M22.79,36.77c0,2.39-1.94,4.33-4.33,4.33s-4.33-1.94-4.33-4.33"/><path class="cls-2" d="M47.02,36.77c0,2.39-1.94,4.33-4.33,4.33s-4.33-1.94-4.33-4.33"/></g></g></g></svg>