<?xml version="1.0" encoding="UTF-8"?><svg id="Layer_2" xmlns="http://www.w3.org/2000/svg" viewBox="0 0 22.94 87.62"><defs><style>.cls-1{fill:#fff;}.cls-2{fill:none;stroke:#000;stroke-linecap:round;stroke-linejoin:round;stroke-width:.5px;}</style></defs><g id="Layer_1-2"><g><g><path class="cls-1" d="M3.4,86.62c-1.32,0-2.4-1.07-2.4-2.39v-31.2c0-.07,0-.14,.02-.21,0-.08,.02-.17,.05-.23l.53-1.51v-2.52c0-1.17,.84-2.14,1.95-2.35v-5.75c-.61-.25-1.11-.75-1.34-1.4-.39-1.09,.04-2.3,1.03-2.88l.83-.49,1.59-1.8-.99-.83c-.85-.71-1.31-1.75-1.27-2.85,.04-1.1,.57-2.11,1.46-2.76l1.58-1.15c-.23-.87,.03-1.8,.73-2.42l.56-.49v-2.43l-.1-.11c-.47-.5-.7-1.17-.64-1.85,.04-.44,.19-.86,.45-1.21-.17-.68-.04-1.4,.39-1.99l.5-.69,.7-5.73-.88-2.31c-.21-.55-.21-1.16,0-1.72l1.09-2.86c.35-.93,1.23-1.53,2.24-1.53s1.89,.6,2.24,1.53l1.09,2.86c.21,.55,.21,1.16,0,1.72l-.88,2.3,.7,5.73,.5,.69c.42,.58,.56,1.31,.39,1.99,.26,.35,.42,.77,.45,1.21,.06,.67-.17,1.34-.64,1.84l-.11,.11v2.42l.56,.48c.71,.62,.97,1.57,.74,2.42l1.57,1.14c.89,.65,1.43,1.65,1.46,2.76s-.43,2.14-1.27,2.85l-.99,.83,1.59,1.8,.83,.49c.99,.58,1.43,1.79,1.04,2.88-.24,.65-.73,1.15-1.34,1.4v5.75c1.11,.21,1.95,1.18,1.95,2.35v2.52l.53,1.51c.04,.11,.06,.22,.06,.34v.04c0,.07,0,.14,0,.22v31.04c0,1.32-1.07,2.39-2.4,2.39H3.4Z"/><path d="M11.47,2c.59,0,1.1,.35,1.3,.89l1.09,2.86c.12,.32,.12,.68,0,1l-.97,2.54,.76,6.23,.65,.9c.31,.43,.36,.99,.11,1.46l-.09,.17,.08,.06c.32,.24,.52,.6,.55,1,.03,.39-.1,.78-.38,1.07l-.38,.4v3.28l.9,.78c.56,.49,.64,1.33,.18,1.92l-.05,.06,2.25,1.64c.64,.47,1.03,1.19,1.05,1.98,.03,.79-.31,1.54-.92,2.05l-1.78,1.49,2.38,2.69,.97,.57c.58,.34,.83,1.05,.6,1.68-.2,.55-.73,.92-1.31,.92h-.09v7.52h.55c.77,0,1.4,.63,1.4,1.4v2.69l.58,1.67v.1s.01,.1,.01,.16v31.04c0,.77-.63,1.4-1.4,1.4H3.4c-.77,0-1.4-.63-1.4-1.4v-31.24s.01-.06,.01-.06l.58-1.67v-2.69c0-.77,.63-1.4,1.4-1.4h.55v-7.53h-.1c-.58,0-1.11-.37-1.31-.92-.23-.63,.02-1.34,.6-1.68l.97-.57,2.38-2.69-1.78-1.49c-.61-.51-.94-1.26-.91-2.05,.03-.79,.41-1.51,1.05-1.98l2.25-1.64-.05-.06c-.47-.59-.39-1.43,.18-1.92l.9-.78v-3.28l-.38-.4c-.27-.29-.41-.68-.38-1.08,.03-.39,.23-.76,.55-1l.08-.06-.09-.18c-.24-.47-.2-1.03,.11-1.46l.65-.9,.76-6.23-.97-2.54c-.12-.32-.12-.68,0-1l1.09-2.86c.2-.54,.72-.88,1.3-.88m0-2c-1.43,0-2.67,.85-3.17,2.17l-1.09,2.86c-.3,.78-.3,1.65,0,2.44l.79,2.07-.64,5.23-.35,.48c-.51,.7-.73,1.55-.63,2.37-.22,.41-.36,.86-.4,1.33-.08,.87,.19,1.74,.75,2.42v1.59l-.21,.19c-.81,.71-1.21,1.72-1.16,2.72l-1.08,.78c-1.14,.83-1.83,2.12-1.88,3.53-.05,1.41,.55,2.74,1.63,3.65l.2,.17-.81,.91-.7,.41c-1.41,.83-2.03,2.55-1.47,4.09,.25,.68,.71,1.25,1.28,1.65v4.44c-1.15,.54-1.95,1.72-1.95,3.07v2.35l-.47,1.35c-.06,.17-.1,.35-.11,.54-.01,.08-.02,.16-.02,.23v31.2c0,1.87,1.52,3.4,3.4,3.4H19.55c1.87,0,3.4-1.52,3.4-3.4v-31.04c0-.09,0-.18-.01-.26,0-.23-.04-.45-.11-.67l-.47-1.35v-2.35c0-1.36-.8-2.53-1.95-3.07v-4.44c.58-.39,1.03-.96,1.28-1.65,.56-1.54-.06-3.26-1.47-4.08l-.7-.41-.81-.91,.2-.17c1.08-.91,1.68-2.24,1.63-3.65-.05-1.42-.73-2.7-1.88-3.53l-1.08-.78c.05-1-.35-2.02-1.17-2.73l-.21-.18v-1.59c.55-.68,.82-1.55,.75-2.43-.04-.47-.18-.92-.4-1.33,.09-.83-.12-1.67-.63-2.37l-.35-.48-.64-5.23,.79-2.07c.3-.78,.3-1.65,0-2.43l-1.09-2.85c-.5-1.32-1.75-2.17-3.17-2.17h0Z"/></g><g><polyline class="cls-2" points="19.55 53.14 19.55 84.18 3.4 84.18 3.4 53.14"/><polyline class="cls-2" points="3.99 51.45 3.99 48.51 18.95 48.51 18.95 51.45"/><polyline class="cls-2" points="17 37.95 17 48.51 5.94 48.51 5.94 37.95"/><path class="cls-2" d="M13.24,26.85h-3.54l-3.43,2.49c-.61,.44-.64,1.35-.06,1.83l2.88,2.41h4.76l2.88-2.41c.58-.49,.55-1.39-.06-1.83l-3.43-2.49Z"/><polygon class="cls-2" points="12.81 24.45 10.13 24.45 8.75 25.65 9.7 26.85 13.24 26.85 14.19 25.65 12.81 24.45"/><rect class="cls-2" x="10.13" y="19.98" width="2.69" height="4.47"/><polygon class="cls-2" points="12.51 18.38 10.43 18.38 9.37 19.18 10.13 19.98 12.81 19.98 13.57 19.18 12.51 18.38"/><polygon class="cls-2" points="12.31 16 10.63 16 9.76 17.19 10.38 18.38 12.56 18.38 13.18 17.19 12.31 16"/><polygon class="cls-2" points="12.31 16 10.63 16 11.47 9.08 11.47 9.08 12.31 16"/><polygon class="cls-2" points="10.38 6.2 11.47 9.06 12.56 6.2 11.47 3.33 10.38 6.2"/><path class="cls-2" d="M9.73,37.32c.35-.59,1-.99,1.74-.99,.7,0,1.31,.35,1.67,.89l.06,.1,5.28,.88-1.16-.68-3.48-3.93h-4.76l-3.48,3.93-1.16,.68,5.28-.88Z"/><circle class="cls-2" cx="11.47" cy="39.52" r="1.57"/><polygon class="cls-2" points="8.37 53.14 3.4 53.14 3.99 51.45 7.78 51.45 8.37 53.14"/><polyline class="cls-2" points="17.56 53.14 14.57 53.14 15.17 51.45 18.96 51.45 19.55 53.14 17.56 53.14"/><rect class="cls-2" x="10.61" y="52.45" width="1.73" height="2.26"/><rect class="cls-2" x="10.61" y="45.17" width="1.73" height="2.26"/><rect class="cls-2" x="10.61" y="57.97" width="1.73" height="2.26"/><rect class="cls-2" x="10.61" y="63.5" width="1.73" height="2.26"/><rect class="cls-2" x="10.61" y="69.02" width="1.73" height="2.26"/><rect class="cls-2" x="10.61" y="74.54" width="1.73" height="2.26"/><path class="cls-2" d="M11.47,78.59h0c1.34,0,2.42,1.08,2.42,2.42v3.16h-4.84v-3.16c0-1.34,1.08-2.42,2.42-2.42Z"/><polyline class="cls-2" points="11.47 38.62 11.47 39.52 12.19 39.52"/></g></g></g></svg>