<?xml version="1.0" encoding="UTF-8"?><svg id="Layer_2" xmlns="http://www.w3.org/2000/svg" viewBox="0 0 101.77 49.87"><defs><style>.cls-1{fill:#fff;}.cls-2{fill:none;stroke:#000;stroke-miterlimit:10;stroke-width:.5px;}</style></defs><g id="Layer_1-2"><g><g><path class="cls-1" d="M4.86,48.87c-1.39,0-2.52-1.13-2.52-2.52v-1.02c-.8-.43-1.33-1.27-1.33-2.22V15.12c0-.09,.01-.18,.04-.26l.05-.19c.02-.11,.08-.27,.15-.43,.04-.11,.1-.24,.16-.31l.19-.24L7.69,6.69l.21-.21c.06-.06,.13-.11,.2-.15,0,0,.07-.05,.07-.05,.07-.05,.14-.1,.22-.13l.17-.08c.3-.14,.65-.21,1-.21H47.83v-.85c0-2.21,1.8-4.01,4.01-4.01,.81,0,1.59,.24,2.24,.69,.66-.45,1.44-.69,2.24-.69s1.59,.24,2.24,.69c.66-.45,1.44-.69,2.24-.69s1.59,.24,2.24,.69c.66-.45,1.44-.69,2.24-.69s1.59,.24,2.24,.69c.66-.45,1.44-.69,2.24-.69s1.59,.24,2.24,.69c.66-.45,1.44-.69,2.24-.69s1.59,.24,2.24,.69c.66-.45,1.44-.69,2.24-.69,2.21,0,4.01,1.8,4.01,4.01v.85h9.43c.35,0,.7,.07,1.03,.22l.15,.07c.07,.03,.14,.08,.21,.12,0,0,.08,.06,.08,.06,.07,.04,.14,.09,.2,.15l.16,.15,6.15,7.04,.2,.25c.07,.09,.12,.19,.16,.3v.04c.09,.16,.14,.33,.18,.5l.02,.05c.03,.09,.04,.18,.04,.27v28.02c0,.95-.53,1.8-1.33,2.22v1.02c0,1.39-1.13,2.52-2.52,2.52H4.86Z"/><path d="M78.77,2c1.66,0,3.01,1.35,3.01,3.01v1.85h10.43c.21,0,.42,.04,.62,.13l.15,.07,.09,.07s.03,.02,.05,.03l.06,.03,.16,.15,6.1,6.98,.16,.21,.03,.1c.05,.11,.09,.22,.12,.34l.04,.13v.2s0,27.8,0,27.8c0,.78-.58,1.42-1.33,1.51v1.73c0,.84-.68,1.52-1.52,1.52H4.85c-.84,0-1.52-.68-1.52-1.52v-1.73c-.75-.09-1.33-.74-1.33-1.51V15.12l.05-.19c.02-.09,.06-.2,.11-.3l.03-.09,.19-.24,6.07-6.95,.15-.15,.06-.03s.03-.02,.05-.04l.08-.07,.17-.08c.17-.08,.38-.12,.6-.12H48.83v-1.85c0-1.66,1.35-3.01,3.01-3.01,.89,0,1.69,.39,2.24,1.01,.55-.62,1.35-1.01,2.24-1.01s1.69,.39,2.24,1.01c.55-.62,1.35-1.01,2.24-1.01s1.69,.39,2.24,1.01c.55-.62,1.35-1.01,2.24-1.01s1.69,.39,2.24,1.01c.55-.62,1.35-1.01,2.24-1.01s1.69,.39,2.24,1.01c.55-.62,1.35-1.01,2.24-1.01s1.69,.39,2.24,1.01c.55-.62,1.35-1.01,2.24-1.01m0-2c-.79,0-1.55,.19-2.24,.53-.69-.35-1.46-.53-2.24-.53s-1.55,.19-2.24,.53c-.69-.35-1.46-.53-2.24-.53s-1.55,.19-2.24,.53c-.69-.35-1.46-.53-2.24-.53s-1.55,.19-2.24,.53c-.69-.35-1.46-.53-2.24-.53s-1.55,.19-2.24,.53c-.69-.35-1.46-.53-2.24-.53s-1.55,.19-2.24,.53c-.69-.35-1.46-.53-2.24-.53-2.71,0-4.93,2.17-5,4.86H9.56c-.49,0-.98,.1-1.41,.3l-.17,.07c-.15,.07-.3,.15-.43,.26h0c-.13,.08-.25,.18-.36,.28l-.15,.15s-.07,.07-.1,.1L.87,12.99s-.05,.06-.08,.09l-.19,.24c-.14,.18-.24,.37-.31,.58-.08,.18-.14,.36-.18,.54l-.04,.15c-.05,.17-.07,.35-.07,.53v27.99c0,1.11,.52,2.11,1.33,2.76v.49c0,1.94,1.58,3.52,3.52,3.52H96.91c1.94,0,3.52-1.58,3.52-3.52v-.49c.82-.65,1.33-1.65,1.33-2.76V15.08c0-.18-.03-.36-.08-.54l-.02-.07c-.05-.19-.11-.38-.19-.56-.07-.22-.18-.42-.32-.6l-.16-.21s-.05-.06-.08-.09l-6.1-6.98s-.07-.07-.1-.11l-.16-.15c-.11-.11-.23-.2-.36-.28h0c-.13-.1-.27-.19-.41-.25l-.15-.07c-.45-.2-.94-.31-1.43-.31h-8.43c-.08-2.69-2.29-4.86-5-4.86h0Z"/></g><g><rect class="cls-2" x="3.52" y="15.3" width="94.72" height="27.8"/><rect class="cls-2" x="4.85" y="43.11" width="92.06" height="3.24"/><polyline class="cls-2" points="3.52 15.3 9.56 8.38 92.2 8.38 98.24 15.3"/><line class="cls-2" x1="9.56" y1="8.38" x2="9.56" y2="43.11"/><line class="cls-2" x1="92.2" y1="8.38" x2="92.2" y2="43.11"/><line class="cls-2" x1="3.52" y1="21.94" x2="98.24" y2="21.94"/><line class="cls-2" x1="3.52" y1="29.2" x2="98.24" y2="29.2"/><line class="cls-2" x1="3.52" y1="36.47" x2="98.24" y2="36.47"/><line class="cls-2" x1="9.56" y1="8.38" x2="9.56" y2="43.11"/><polyline class="cls-2" points="92.2 9.1 95.27 15.3 95.27 43.11"/><polyline class="cls-2" points="9.56 9.1 6.48 15.3 6.48 43.11"/><line class="cls-2" x1="15.96" y1="8.38" x2="15.96" y2="43.11"/><line class="cls-2" x1="22.32" y1="8.38" x2="22.32" y2="43.11"/><line class="cls-2" x1="28.67" y1="8.38" x2="28.67" y2="43.11"/><line class="cls-2" x1="35.02" y1="8.38" x2="35.02" y2="43.11"/><line class="cls-2" x1="41.38" y1="8.38" x2="41.38" y2="43.11"/><line class="cls-2" x1="47.73" y1="8.38" x2="47.73" y2="43.11"/><line class="cls-2" x1="54.08" y1="8.38" x2="54.08" y2="43.11"/><line class="cls-2" x1="60.44" y1="8.38" x2="60.44" y2="43.11"/><line class="cls-2" x1="66.79" y1="8.38" x2="66.79" y2="43.11"/><line class="cls-2" x1="73.14" y1="8.38" x2="73.14" y2="43.11"/><line class="cls-2" x1="79.5" y1="8.38" x2="79.5" y2="43.11"/><line class="cls-2" x1="85.85" y1="8.38" x2="85.85" y2="43.11"/><g><path class="cls-2" d="M78.77,3.52h0c.82,0,1.48,.67,1.48,1.48v3.38h-2.97v-3.38c0-.82,.67-1.48,1.48-1.48Z"/><circle class="cls-2" cx="78.77" cy="5.01" r="1.48"/></g><g><path class="cls-2" d="M74.28,3.52h0c.82,0,1.48,.67,1.48,1.48v3.38h-2.97v-3.38c0-.82,.67-1.48,1.48-1.48Z"/><circle class="cls-2" cx="74.28" cy="5.01" r="1.48"/></g><g><path class="cls-2" d="M69.79,3.52h0c.82,0,1.48,.67,1.48,1.48v3.38h-2.97v-3.38c0-.82,.67-1.48,1.48-1.48Z"/><circle class="cls-2" cx="69.79" cy="5.01" r="1.48"/></g><g><path class="cls-2" d="M65.3,3.52h0c.82,0,1.48,.67,1.48,1.48v3.38h-2.97v-3.38c0-.82,.67-1.48,1.48-1.48Z"/><circle class="cls-2" cx="65.3" cy="5.01" r="1.48"/></g><g><path class="cls-2" d="M60.81,3.52h0c.82,0,1.48,.67,1.48,1.48v3.38h-2.97v-3.38c0-.82,.67-1.48,1.48-1.48Z"/><circle class="cls-2" cx="60.81" cy="5.01" r="1.48"/></g><g><path class="cls-2" d="M56.33,3.52h0c.82,0,1.48,.67,1.48,1.48v3.38h-2.97v-3.38c0-.82,.67-1.48,1.48-1.48Z"/><circle class="cls-2" cx="56.33" cy="5.01" r="1.48"/></g><g><path class="cls-2" d="M51.84,3.52h0c.82,0,1.48,.67,1.48,1.48v3.38h-2.97v-3.38c0-.82,.67-1.48,1.48-1.48Z"/><circle class="cls-2" cx="51.84" cy="5.01" r="1.48"/></g></g></g></g></svg>