<?xml version="1.0" encoding="UTF-8"?><svg id="Layer_2" xmlns="http://www.w3.org/2000/svg" viewBox="0 0 41.79 90.23"><defs><style>.cls-1{fill:#fff;}.cls-2{fill:none;stroke:#000;stroke-miterlimit:10;stroke-width:.5px;}</style></defs><g id="Layer_1-2"><g><g><path class="cls-1" d="M3.52,89.23c-1.39,0-2.52-1.13-2.52-2.52v-19.49c0-1.39,1.13-2.52,2.52-2.52h5.75v-1.91c0-1.39,1.13-2.52,2.52-2.52h.3l.14-.45c.32-1.07,1.29-1.79,2.41-1.79h.66l1.29-43.78c.02-.68,.32-1.32,.8-1.77V3.52c0-1.18,.8-2.19,1.96-2.46l.15-.03c.06-.01,.12-.02,.19-.02,0,0,.2,0,.2,0,.99,0,1.88,.56,2.3,1.43l2.94,6.05c.24,.5,.31,1.07,.2,1.61l-.57,2.79c.28,.4,.44,.88,.45,1.37l1.29,43.78h.66c1.12,0,2.09,.72,2.41,1.79l.14,.45h.3c1.39,0,2.52,1.13,2.52,2.52v1.91h5.75c1.39,0,2.52,1.13,2.52,2.52v19.49c0,1.39-1.13,2.52-2.52,2.52H3.52Z"/><path d="M19.91,2c.58,0,1.12,.34,1.37,.86l2.94,6.05c.15,.3,.19,.64,.12,.97l-.67,3.27c.32,.27,.52,.67,.53,1.12l1.32,44.75h1.63c.68,0,1.26,.43,1.46,1.08l.35,1.16h1.04c.84,0,1.52,.68,1.52,1.52v2.91h6.75c.84,0,1.52,.68,1.52,1.52v19.49c0,.84-.68,1.52-1.52,1.52H3.52c-.84,0-1.52-.68-1.52-1.52v-19.49c0-.84,.68-1.52,1.52-1.52h6.75v-2.91c0-.84,.68-1.52,1.52-1.52h1.04l.35-1.16c.2-.65,.78-1.08,1.46-1.08h1.63l1.32-44.75c.02-.57,.33-1.05,.8-1.3V3.52c0-.71,.49-1.32,1.18-1.48l.14-.03h.2m0-2.01s-.04,0-.07,0h-.2c-.13,.01-.26,.03-.38,.06l-.14,.03c-1.61,.37-2.74,1.78-2.74,3.43V12.08c-.49,.59-.77,1.34-.8,2.13l-1.26,42.82c-1.35,.12-2.5,.99-2.98,2.26-1.73,.22-3.08,1.7-3.08,3.49v.91H3.52c-1.94,0-3.52,1.58-3.52,3.52v19.49c0,1.94,1.58,3.52,3.52,3.52H38.27c1.94,0,3.52-1.58,3.52-3.52v-19.49c0-1.94-1.58-3.52-3.52-3.52h-4.75v-.91c0-1.79-1.34-3.27-3.08-3.49-.48-1.27-1.63-2.14-2.98-2.26l-1.26-42.82c-.02-.54-.15-1.06-.4-1.53l.49-2.41c.15-.76,.05-1.56-.28-2.25l-2.94-6.05c-.58-1.2-1.82-1.99-3.17-1.99h0Z"/></g><g><rect class="cls-2" x="11.79" y="62.79" width="18.2" height="4.44"/><rect class="cls-2" x="3.52" y="67.22" width="34.74" height="19.49"/><polygon class="cls-2" points="27.15 60.55 14.64 60.55 13.96 62.79 27.83 62.79 27.15 60.55"/><polygon class="cls-2" points="22.68 14.32 19.11 14.32 17.74 60.55 24.05 60.55 22.68 14.32"/><polygon class="cls-2" points="19.91 3.52 19.91 9.58 19.91 14.32 21.88 14.32 22.85 9.58 19.91 3.52"/><polyline class="cls-2" points="9.95 86.71 9.95 70.49 6.26 70.49 6.26 86.71"/><polyline class="cls-2" points="16.35 86.71 16.35 70.49 12.66 70.49 12.66 86.71"/><polyline class="cls-2" points="22.74 86.71 22.74 70.49 19.05 70.49 19.05 86.71"/><polyline class="cls-2" points="29.13 86.71 29.13 70.49 25.44 70.49 25.44 86.71"/><polyline class="cls-2" points="35.53 86.71 35.53 70.49 31.84 70.49 31.84 86.71"/></g></g></g></svg>