<svg width="123" height="58" viewBox="0 0 123 58" fill="none" xmlns="http://www.w3.org/2000/svg">
<path d="M32.3901 30.9801L33.3839 36.9676L34.0739 36.8889L33.0426 30.6876C32.6364 30.8826 32.3901 30.9801 32.3901 30.9801ZM32.8276 28.0951C32.8276 28.0951 34.7951 26.9351 36.2301 25.0101C34.8989 26.5051 33.4114 27.3826 33.4114 27.3826L32.3389 16.3088C31.9351 16.255 31.6801 16.2463 31.6801 16.2463L32.8276 28.0951ZM31.1026 13.25L31.0789 13.9825C33.1876 14.0975 40.5301 14.9525 40.5301 21.2713C40.5301 23.2088 39.8051 24.8538 38.7889 26.2101C40.1001 24.7313 41.1139 22.8501 41.1139 20.5588C41.1139 13.32 31.4776 13.25 31.1126 13.25H31.1026Z" fill="#515486"/>
<path d="M55.1863 16.504L56.6838 16.5303L56.6138 31.4891L61.6438 29.9404L61.4875 35.4379L62.05 35.4691L62.2275 29.2266L57.1975 30.7766L57.2675 15.8165L55.2088 15.7803L55.1863 16.504Z" fill="#515486"/>
<path d="M43.5701 37.3165L44.0613 37.3852L44.9576 29.7389L44.4601 29.7264L43.5701 37.3165ZM44.6026 28.2364L45.2288 28.2952L46.9101 28.4489L46.7676 27.6689L45.8138 27.5814L45.1876 27.5227L45.8038 22.4026L45.5038 20.7626L44.6026 28.2364ZM45.5076 15.8538L51.8926 36.7915L52.6651 36.699L45.8251 14.2676L45.5076 15.8538Z" fill="#515486"/>
<path d="M66.5989 37.3167L67.0901 37.3855L67.9864 29.7392L67.4889 29.7267L66.5989 37.3167ZM67.6326 28.2367L68.2601 28.2954L69.9401 28.4492L69.7976 27.6692L68.8426 27.5817L68.2164 27.5229L68.8326 22.4042L68.5301 20.7641L67.6326 28.2367ZM68.5364 15.8541L74.9214 36.7917L75.6951 36.6992L68.8539 14.2666L68.5364 15.8541Z" fill="#515486"/>
<path d="M80.3877 14.4164L81.7864 15.3114C81.7864 15.3114 78.8989 20.5502 78.8989 26.2614C78.8989 33.0665 82.9089 36.7253 83.3752 37.1278L84.0027 36.4515C84.0027 36.4515 79.4827 32.7752 79.4827 25.5489C79.4827 19.8377 82.3702 14.5989 82.3702 14.5989L80.8902 13.6514C80.8902 13.6514 80.6939 13.9239 80.3877 14.4164Z" fill="#515486"/>
<path d="M88.5424 25.305L87.5724 36.8338L91.0749 36.6226L91.0987 37.9351L91.6949 37.9301L91.6587 35.9088L88.1562 36.1213L89.0712 25.25L88.5424 25.305ZM88.6487 17.3574L88.5074 22.8912H91.3362L91.2537 24.365L91.8012 24.3062L91.9199 22.1775H89.0912L89.2149 17.3512L88.6487 17.3574ZM87.0649 14.9599L91.6662 15.0862L91.6337 16.6149L92.2024 16.6087L92.2487 14.3737L87.0774 14.2324L87.0649 14.9599Z" fill="#515486"/>
<path d="M31.6788 16.246C31.6788 16.246 31.9338 16.2547 32.3375 16.3085C33.9 16.516 37.7025 17.3935 37.7025 21.011C37.7025 22.546 37.055 23.9047 36.23 25.0098C34.795 26.9348 32.8275 28.0948 32.8275 28.0948L31.6788 16.246ZM30.52 13.9634L29.75 38.0273L33.4888 37.6011L33.3838 36.9661L32.39 30.9785C32.39 30.9785 32.6363 30.881 33.0438 30.686C34.2788 30.0948 36.9925 28.6048 38.7913 26.2073C39.8075 24.851 40.5325 23.206 40.5325 21.2685C40.5325 14.9497 33.19 14.0947 31.0813 13.9797C30.775 13.9634 30.5787 13.9609 30.5325 13.9609H30.52V13.9634Z" fill="#B61A1D"/>
<path d="M54.01 35.7575L61.4663 36.1838L61.4875 35.4375L61.6438 29.94L56.6138 31.4887L56.6838 16.5299L55.1863 16.5037L54.6263 16.4937L54.01 35.7575Z" fill="#6569AB"/>
<path d="M45.2285 28.2955L44.6023 28.2368L45.5023 20.763L45.8023 22.403L46.7673 27.6693L46.9098 28.4493L45.2285 28.2955ZM40.6973 37.7094L43.4773 38.0994L43.5698 37.3169L44.4598 29.7256L44.9573 29.7381L47.1335 29.7968L48.7198 37.8144L52.0798 37.4131L51.891 36.7919L45.506 15.8542L45.2385 14.9805L40.6973 37.7094Z" fill="#DC911B"/>
<path d="M68.2588 28.2953L67.6313 28.2365L68.5288 20.7627L68.8301 22.4027L69.7951 27.6678L69.9376 28.4478L68.2588 28.2953ZM63.7263 37.7091L66.5076 38.0991L66.5988 37.3166L67.4888 29.7253L67.9863 29.7378L70.1613 29.7965L71.7501 37.8153L75.1113 37.4141L74.9213 36.7928L68.5363 15.8552L68.2701 14.9814L63.7263 37.7091Z" fill="#8CB63C"/>
<path d="M76.1038 26.7603C76.1038 34.2666 81.7488 38.9629 81.7488 38.9629L83.4163 37.1654C83.4163 37.1654 83.4013 37.1529 83.3725 37.1279C82.9063 36.7254 78.8963 33.0666 78.8963 26.2616C78.8963 20.5503 81.7838 15.3115 81.7838 15.3115L80.385 14.4165L80.3038 14.3652C80.3063 14.3652 76.1038 20.2078 76.1038 26.7603Z" fill="#DC911B"/>
<path d="M86.0576 38.6787L91.1114 38.6437L91.0989 37.9337L91.0751 36.6225L87.5726 36.8325L88.5426 25.3049L89.0701 25.2486L91.2176 25.0199L91.2539 24.3649L91.3364 22.8911H88.5076L88.6489 17.3573L89.2151 17.3511L91.6201 17.3223L91.6351 16.6148L91.6664 15.0861L87.0651 14.9598L86.4951 14.9448L86.0576 38.6787Z" fill="#B61A1D"/>
<path d="M32.48 43.9617C32.3688 44.0154 32.2488 44.0579 32.1175 44.0867C31.9863 44.1154 31.8513 44.1304 31.7113 44.1304C31.4775 44.1304 31.275 44.0942 31.1025 44.0204C30.93 43.9479 30.7863 43.8442 30.6713 43.7117C30.5563 43.5792 30.4713 43.4192 30.4163 43.2329C30.3613 43.0467 30.3338 42.8379 30.3338 42.6067C30.3338 42.3892 30.3713 42.1979 30.445 42.0342C30.5188 41.8692 30.6175 41.7304 30.74 41.6192C30.8625 41.5067 31.005 41.4217 31.1675 41.3642C31.33 41.3067 31.4988 41.2779 31.675 41.2779C31.9863 41.2779 32.255 41.3379 32.4813 41.4567V41.0179C32.3825 40.9767 32.2613 40.9454 32.1188 40.9242C31.975 40.9017 31.825 40.8904 31.67 40.8904C31.3913 40.8904 31.135 40.9329 30.9013 41.0179C30.6675 41.1029 30.4663 41.2229 30.2988 41.3792C30.13 41.5354 30 41.7254 29.9088 41.9479C29.8175 42.1704 29.77 42.4204 29.77 42.6992C29.77 42.9404 29.8075 43.1704 29.8813 43.3892C29.955 43.6079 30.07 43.8017 30.2263 43.9704C30.3825 44.1392 30.5825 44.2717 30.8263 44.3704C31.07 44.4692 31.3625 44.5179 31.7025 44.5179C31.83 44.5179 31.9588 44.5079 32.09 44.4904C32.2213 44.4717 32.3525 44.4454 32.4838 44.4117V43.9617H32.48ZM35.39 44.4817H37.4688V44.0942H35.9313V42.8304H37.3213V42.4429H35.9313V41.3117H37.3888V40.9242H35.39V44.4817ZM42.15 41.0067C42.055 40.9729 41.9388 40.9442 41.7988 40.9229C41.6588 40.9004 41.5175 40.8892 41.3738 40.8892C41.21 40.8892 41.0563 40.9079 40.9125 40.9454C40.7688 40.9829 40.6425 41.0392 40.5338 41.1129C40.425 41.1879 40.3388 41.2817 40.275 41.3929C40.2113 41.5054 40.18 41.6342 40.18 41.7804C40.18 41.8954 40.1938 41.9979 40.22 42.0867C40.2463 42.1754 40.295 42.2592 40.365 42.3392C40.435 42.4192 40.5313 42.4992 40.6538 42.5817C40.7763 42.6629 40.935 42.7517 41.1275 42.8467C41.2713 42.9179 41.3863 42.9829 41.475 43.0429C41.5638 43.1017 41.6313 43.1592 41.6775 43.2142C41.725 43.2679 41.755 43.3242 41.77 43.3817C41.785 43.4392 41.7913 43.5017 41.7913 43.5704C41.7913 43.6417 41.7738 43.7117 41.7388 43.7792C41.7038 43.8467 41.655 43.9079 41.5913 43.9604C41.5275 44.0129 41.4488 44.0542 41.355 44.0854C41.26 44.1154 41.1525 44.1317 41.0288 44.1317C40.9013 44.1317 40.7638 44.1092 40.6163 44.0629C40.4688 44.0167 40.3338 43.9642 40.21 43.9029V44.3667C40.325 44.4142 40.46 44.4517 40.6163 44.4792C40.7725 44.5067 40.9363 44.5204 41.1088 44.5204C41.3138 44.5204 41.4938 44.4942 41.65 44.4417C41.8063 44.3892 41.9363 44.3179 42.04 44.2279C42.145 44.1379 42.2238 44.0317 42.2775 43.9092C42.3313 43.7867 42.3575 43.6542 42.3575 43.5117C42.3575 43.4092 42.3425 43.3142 42.3113 43.2242C42.28 43.1342 42.2313 43.0467 42.1638 42.9617C42.0963 42.8767 42.005 42.7942 41.89 42.7142C41.775 42.6342 41.635 42.5554 41.4713 42.4767C41.315 42.4017 41.19 42.3367 41.0963 42.2804C41.0013 42.2242 40.9288 42.1704 40.8775 42.1204C40.8263 42.0692 40.7913 42.0192 40.7725 41.9704C40.7538 41.9217 40.745 41.8679 40.745 41.8104C40.745 41.6579 40.805 41.5304 40.9263 41.4304C41.0475 41.3304 41.21 41.2804 41.415 41.2804C41.5463 41.2804 41.675 41.2954 41.8025 41.3242C41.93 41.3529 42.045 41.3929 42.1475 41.4442V41.0067H42.15ZM45.8725 44.4817H46.4138V41.3129H47.3975V40.9254H44.8875V41.3129H45.8713V44.4817H45.8725ZM50.3163 42.0429C50.3713 41.8542 50.4475 41.7017 50.5438 41.5842C50.64 41.4667 50.7513 41.3829 50.8763 41.3317C51.0013 41.2804 51.1363 41.2554 51.2788 41.2554C51.4588 41.2554 51.6125 41.2954 51.74 41.3754C51.8675 41.4554 51.9713 41.5604 52.0513 41.6917C52.1313 41.8229 52.1888 41.9729 52.2238 42.1429C52.2588 42.3129 52.2763 42.4879 52.2763 42.6679C52.2763 42.9429 52.2488 43.1754 52.1938 43.3629C52.1388 43.5517 52.0625 43.7042 51.9663 43.8217C51.87 43.9392 51.7575 44.0229 51.6313 44.0742C51.5038 44.1254 51.3713 44.1504 51.2313 44.1504C51.0513 44.1504 50.8975 44.1104 50.77 44.0304C50.6425 43.9504 50.5388 43.8454 50.4588 43.7142C50.3788 43.5842 50.3213 43.4329 50.2863 43.2629C50.2513 43.0929 50.2338 42.9179 50.2338 42.7379C50.2338 42.4642 50.2613 42.2317 50.3163 42.0429ZM49.7788 43.4804C49.8525 43.6992 49.9575 43.8867 50.0925 44.0404C50.2275 44.1954 50.3913 44.3129 50.585 44.3942C50.7775 44.4754 50.9925 44.5167 51.2313 44.5167C51.74 44.5167 52.135 44.3617 52.4188 44.0529C52.7013 43.7442 52.8438 43.2817 52.8438 42.6667C52.8438 42.3917 52.8063 42.1442 52.7325 41.9254C52.6588 41.7067 52.5538 41.5192 52.4188 41.3654C52.2838 41.2104 52.12 41.0929 51.9263 41.0117C51.7338 40.9304 51.5188 40.8892 51.28 40.8892C50.7713 40.8892 50.3763 41.0442 50.0925 41.3529C49.81 41.6617 49.6675 42.1242 49.6675 42.7392C49.6675 43.0142 49.705 43.2604 49.7788 43.4804ZM58.4463 40.9254H57.905V43.2392C57.905 43.5179 57.835 43.7392 57.6963 43.9042C57.5563 44.0692 57.3575 44.1517 57.1 44.1517C56.8413 44.1517 56.6425 44.0692 56.5038 43.9042C56.3638 43.7392 56.295 43.5179 56.295 43.2392V40.9254H55.7538V43.1729C55.7538 43.2617 55.7563 43.3404 55.76 43.4104C55.7638 43.4804 55.7725 43.5467 55.785 43.6092C55.7975 43.6717 55.815 43.7329 55.8375 43.7904C55.86 43.8479 55.89 43.9079 55.9263 43.9692C55.9713 44.0442 56.0288 44.1142 56.0988 44.1804C56.1688 44.2467 56.2513 44.3054 56.3475 44.3567C56.4438 44.4079 56.555 44.4479 56.68 44.4767C56.805 44.5054 56.945 44.5204 57.1013 44.5204C57.2575 44.5204 57.3975 44.5054 57.5225 44.4767C57.6475 44.4479 57.7588 44.4079 57.855 44.3567C57.9513 44.3054 58.035 44.2467 58.1038 44.1804C58.1738 44.1142 58.2313 44.0442 58.2763 43.9692C58.3125 43.9079 58.3425 43.8492 58.365 43.7904C58.3875 43.7329 58.405 43.6729 58.4175 43.6092C58.43 43.5467 58.4375 43.4804 58.4425 43.4104C58.4463 43.3404 58.4488 43.2617 58.4488 43.1729V40.9254H58.4463ZM65.6313 41.3117H65.9575C66.22 41.3117 66.4438 41.3467 66.6275 41.4154C66.8125 41.4854 66.9613 41.5804 67.0738 41.7004C67.1863 41.8217 67.2688 41.9617 67.32 42.1229C67.3713 42.2842 67.3975 42.4579 67.3975 42.6454C67.3975 43.1042 67.2763 43.4604 67.035 43.7129C66.7925 43.9654 66.4338 44.0929 65.9588 44.0929H65.6325V41.3117H65.6313ZM65.09 44.4817H65.76C66.1625 44.4817 66.5038 44.4342 66.7838 44.3392C67.0638 44.2442 67.2925 44.1142 67.4663 43.9492C67.64 43.7842 67.7663 43.5904 67.845 43.3679C67.9225 43.1454 67.9613 42.9054 67.9613 42.6467C67.9613 42.4467 67.9375 42.2679 67.89 42.1117C67.8425 41.9554 67.7813 41.8167 67.705 41.6967C67.6288 41.5767 67.5438 41.4729 67.45 41.3879C67.355 41.3029 67.2613 41.2329 67.1675 41.1792C67.045 41.1079 66.895 41.0479 66.7188 40.9979C66.5425 40.9492 66.3113 40.9242 66.0238 40.9242H65.0888V44.4817H65.09ZM71.2938 42.0429C71.3488 41.8542 71.425 41.7017 71.5213 41.5842C71.6175 41.4667 71.7288 41.3829 71.8538 41.3317C71.9788 41.2804 72.1125 41.2554 72.2563 41.2554C72.4363 41.2554 72.59 41.2954 72.7175 41.3754C72.845 41.4554 72.9488 41.5604 73.0288 41.6917C73.1088 41.8229 73.1663 41.9729 73.2013 42.1429C73.2363 42.3129 73.2538 42.4879 73.2538 42.6679C73.2538 42.9429 73.2263 43.1754 73.1713 43.3629C73.1163 43.5517 73.04 43.7042 72.9438 43.8217C72.8475 43.9392 72.735 44.0229 72.6088 44.0742C72.4813 44.1254 72.3488 44.1504 72.2088 44.1504C72.0275 44.1504 71.8738 44.1104 71.7475 44.0304C71.62 43.9504 71.5163 43.8454 71.4363 43.7142C71.3563 43.5842 71.2988 43.4329 71.2638 43.2629C71.2288 43.0929 71.2113 42.9179 71.2113 42.7379C71.2113 42.4642 71.2388 42.2317 71.2938 42.0429ZM70.755 43.4804C70.8288 43.6992 70.9338 43.8867 71.0688 44.0404C71.2038 44.1954 71.3675 44.3129 71.5613 44.3942C71.7538 44.4754 71.9688 44.5167 72.2075 44.5167C72.7163 44.5167 73.1113 44.3617 73.395 44.0529C73.6775 43.7442 73.82 43.2817 73.82 42.6667C73.82 42.3917 73.7825 42.1442 73.7088 41.9254C73.635 41.7067 73.53 41.5192 73.395 41.3654C73.26 41.2104 73.095 41.0929 72.9025 41.0117C72.71 40.9304 72.495 40.8892 72.2563 40.8892C71.7475 40.8892 71.3525 41.0442 71.0688 41.3529C70.7863 41.6617 70.6438 42.1242 70.6438 42.7392C70.645 43.0142 70.6813 43.2604 70.755 43.4804ZM76.7288 44.4817H77.245V41.4142H77.2575L78.4263 44.4817H78.82L80.0375 41.4142H80.05V44.4817H80.5663V40.9254H79.7538L78.6525 43.7529H78.64L77.5638 40.9254H76.7275V44.4817H76.7288ZM84.1263 42.0429C84.1813 41.8542 84.2575 41.7017 84.3538 41.5842C84.45 41.4667 84.5613 41.3829 84.6863 41.3317C84.8113 41.2804 84.945 41.2554 85.0888 41.2554C85.2688 41.2554 85.4225 41.2954 85.55 41.3754C85.6775 41.4554 85.7813 41.5604 85.8613 41.6917C85.9413 41.8229 85.9988 41.9729 86.0338 42.1429C86.0688 42.3129 86.0863 42.4879 86.0863 42.6679C86.0863 42.9429 86.0588 43.1754 86.0038 43.3629C85.9488 43.5517 85.8725 43.7042 85.7763 43.8217C85.68 43.9392 85.5675 44.0229 85.4413 44.0742C85.3138 44.1254 85.1813 44.1504 85.0413 44.1504C84.8613 44.1504 84.7075 44.1104 84.58 44.0304C84.4525 43.9504 84.3488 43.8454 84.27 43.7142C84.19 43.5842 84.1325 43.4329 84.0975 43.2629C84.0625 43.0929 84.045 42.9179 84.045 42.7379C84.0438 42.4642 84.0713 42.2317 84.1263 42.0429ZM83.5875 43.4804C83.6613 43.6992 83.7663 43.8867 83.9013 44.0404C84.0363 44.1954 84.2013 44.3129 84.3938 44.3942C84.5863 44.4754 84.8013 44.5167 85.04 44.5167C85.5488 44.5167 85.9438 44.3617 86.2275 44.0529C86.51 43.7442 86.6525 43.2817 86.6525 42.6667C86.6525 42.3917 86.6163 42.1442 86.5413 41.9254C86.4675 41.7067 86.3625 41.5192 86.2275 41.3654C86.0925 41.2104 85.9275 41.0929 85.735 41.0117C85.5425 40.9304 85.3275 40.8892 85.0888 40.8892C84.58 40.8892 84.1838 41.0442 83.9013 41.3529C83.6188 41.6617 83.4775 42.1242 83.4775 42.7392C83.4775 43.0142 83.5138 43.2604 83.5875 43.4804ZM90.3363 44.4817H90.8775L92.225 40.9254H91.6838L90.6313 43.8242H90.6188L89.6225 40.9254H89.0325L90.3363 44.4817Z" fill="#515486"/>
<path d="M32.48 43.9617C32.3688 44.0154 32.2488 44.0579 32.1175 44.0867C31.9863 44.1154 31.8513 44.1304 31.7113 44.1304C31.4775 44.1304 31.275 44.0942 31.1025 44.0204C30.93 43.9479 30.7863 43.8442 30.6713 43.7117C30.5563 43.5792 30.4713 43.4192 30.4163 43.2329C30.3613 43.0467 30.3338 42.8379 30.3338 42.6067C30.3338 42.3892 30.3713 42.1979 30.445 42.0342C30.5188 41.8692 30.6175 41.7304 30.74 41.6192C30.8625 41.5067 31.005 41.4217 31.1675 41.3642C31.33 41.3067 31.4988 41.2779 31.675 41.2779C31.9863 41.2779 32.255 41.3379 32.4813 41.4567V41.0179C32.3825 40.9767 32.2613 40.9454 32.1188 40.9242C31.975 40.9017 31.825 40.8904 31.67 40.8904C31.3913 40.8904 31.135 40.9329 30.9013 41.0179C30.6675 41.1029 30.4663 41.2229 30.2988 41.3792C30.13 41.5354 30 41.7254 29.9088 41.9479C29.8175 42.1704 29.77 42.4204 29.77 42.6992C29.77 42.9404 29.8075 43.1704 29.8813 43.3892C29.955 43.6079 30.07 43.8017 30.2263 43.9704C30.3825 44.1392 30.5825 44.2717 30.8263 44.3704C31.07 44.4692 31.3625 44.5179 31.7025 44.5179C31.83 44.5179 31.9588 44.5079 32.09 44.4904C32.2213 44.4717 32.3525 44.4454 32.4838 44.4117V43.9617H32.48ZM35.39 44.4817H37.4688V44.0942H35.9313V42.8304H37.3213V42.4429H35.9313V41.3117H37.3888V40.9242H35.39V44.4817ZM42.15 41.0067C42.055 40.9729 41.9388 40.9442 41.7988 40.9229C41.6588 40.9004 41.5175 40.8892 41.3738 40.8892C41.21 40.8892 41.0563 40.9079 40.9125 40.9454C40.7688 40.9829 40.6425 41.0392 40.5338 41.1129C40.425 41.1879 40.3388 41.2817 40.275 41.3929C40.2113 41.5054 40.18 41.6342 40.18 41.7804C40.18 41.8954 40.1938 41.9979 40.22 42.0867C40.2463 42.1754 40.295 42.2592 40.365 42.3392C40.435 42.4192 40.5313 42.4992 40.6538 42.5817C40.7763 42.6629 40.935 42.7517 41.1275 42.8467C41.2713 42.9179 41.3863 42.9829 41.475 43.0429C41.5638 43.1017 41.6313 43.1592 41.6775 43.2142C41.725 43.2679 41.755 43.3242 41.77 43.3817C41.785 43.4392 41.7913 43.5017 41.7913 43.5704C41.7913 43.6417 41.7738 43.7117 41.7388 43.7792C41.7038 43.8467 41.655 43.9079 41.5913 43.9604C41.5275 44.0129 41.4488 44.0542 41.355 44.0854C41.26 44.1154 41.1525 44.1317 41.0288 44.1317C40.9013 44.1317 40.7638 44.1092 40.6163 44.0629C40.4688 44.0167 40.3338 43.9642 40.21 43.9029V44.3667C40.325 44.4142 40.46 44.4517 40.6163 44.4792C40.7725 44.5067 40.9363 44.5204 41.1088 44.5204C41.3138 44.5204 41.4938 44.4942 41.65 44.4417C41.8063 44.3892 41.9363 44.3179 42.04 44.2279C42.145 44.1379 42.2238 44.0317 42.2775 43.9092C42.3313 43.7867 42.3575 43.6542 42.3575 43.5117C42.3575 43.4092 42.3425 43.3142 42.3113 43.2242C42.28 43.1342 42.2313 43.0467 42.1638 42.9617C42.0963 42.8767 42.005 42.7942 41.89 42.7142C41.775 42.6342 41.635 42.5554 41.4713 42.4767C41.315 42.4017 41.19 42.3367 41.0963 42.2804C41.0013 42.2242 40.9288 42.1704 40.8775 42.1204C40.8263 42.0692 40.7913 42.0192 40.7725 41.9704C40.7538 41.9217 40.745 41.8679 40.745 41.8104C40.745 41.6579 40.805 41.5304 40.9263 41.4304C41.0475 41.3304 41.21 41.2804 41.415 41.2804C41.5463 41.2804 41.675 41.2954 41.8025 41.3242C41.93 41.3529 42.045 41.3929 42.1475 41.4442V41.0067H42.15ZM45.8725 44.4817H46.4138V41.3129H47.3975V40.9254H44.8875V41.3129H45.8713V44.4817H45.8725ZM50.3163 42.0429C50.3713 41.8542 50.4475 41.7017 50.5438 41.5842C50.64 41.4667 50.7513 41.3829 50.8763 41.3317C51.0013 41.2804 51.1363 41.2554 51.2788 41.2554C51.4588 41.2554 51.6125 41.2954 51.74 41.3754C51.8675 41.4554 51.9713 41.5604 52.0513 41.6917C52.1313 41.8229 52.1888 41.9729 52.2238 42.1429C52.2588 42.3129 52.2763 42.4879 52.2763 42.6679C52.2763 42.9429 52.2488 43.1754 52.1938 43.3629C52.1388 43.5517 52.0625 43.7042 51.9663 43.8217C51.87 43.9392 51.7575 44.0229 51.6313 44.0742C51.5038 44.1254 51.3713 44.1504 51.2313 44.1504C51.0513 44.1504 50.8975 44.1104 50.77 44.0304C50.6425 43.9504 50.5388 43.8454 50.4588 43.7142C50.3788 43.5842 50.3213 43.4329 50.2863 43.2629C50.2513 43.0929 50.2338 42.9179 50.2338 42.7379C50.2338 42.4642 50.2613 42.2317 50.3163 42.0429ZM49.7788 43.4804C49.8525 43.6992 49.9575 43.8867 50.0925 44.0404C50.2275 44.1954 50.3913 44.3129 50.585 44.3942C50.7775 44.4754 50.9925 44.5167 51.2313 44.5167C51.74 44.5167 52.135 44.3617 52.4188 44.0529C52.7013 43.7442 52.8438 43.2817 52.8438 42.6667C52.8438 42.3917 52.8063 42.1442 52.7325 41.9254C52.6588 41.7067 52.5538 41.5192 52.4188 41.3654C52.2838 41.2104 52.12 41.0929 51.9263 41.0117C51.7338 40.9304 51.5188 40.8892 51.28 40.8892C50.7713 40.8892 50.3763 41.0442 50.0925 41.3529C49.81 41.6617 49.6675 42.1242 49.6675 42.7392C49.6675 43.0142 49.705 43.2604 49.7788 43.4804ZM58.4463 40.9254H57.905V43.2392C57.905 43.5179 57.835 43.7392 57.6963 43.9042C57.5563 44.0692 57.3575 44.1517 57.1 44.1517C56.8413 44.1517 56.6425 44.0692 56.5038 43.9042C56.3638 43.7392 56.295 43.5179 56.295 43.2392V40.9254H55.7538V43.1729C55.7538 43.2617 55.7563 43.3404 55.76 43.4104C55.7638 43.4804 55.7725 43.5467 55.785 43.6092C55.7975 43.6717 55.815 43.7329 55.8375 43.7904C55.86 43.8479 55.89 43.9079 55.9263 43.9692C55.9713 44.0442 56.0288 44.1142 56.0988 44.1804C56.1688 44.2467 56.2513 44.3054 56.3475 44.3567C56.4438 44.4079 56.555 44.4479 56.68 44.4767C56.805 44.5054 56.945 44.5204 57.1013 44.5204C57.2575 44.5204 57.3975 44.5054 57.5225 44.4767C57.6475 44.4479 57.7588 44.4079 57.855 44.3567C57.9513 44.3054 58.035 44.2467 58.1038 44.1804C58.1738 44.1142 58.2313 44.0442 58.2763 43.9692C58.3125 43.9079 58.3425 43.8492 58.365 43.7904C58.3875 43.7329 58.405 43.6729 58.4175 43.6092C58.43 43.5467 58.4375 43.4804 58.4425 43.4104C58.4463 43.3404 58.4488 43.2617 58.4488 43.1729V40.9254H58.4463ZM65.6313 41.3117H65.9575C66.22 41.3117 66.4438 41.3467 66.6275 41.4154C66.8125 41.4854 66.9613 41.5804 67.0738 41.7004C67.1863 41.8217 67.2688 41.9617 67.32 42.1229C67.3713 42.2842 67.3975 42.4579 67.3975 42.6454C67.3975 43.1042 67.2763 43.4604 67.035 43.7129C66.7925 43.9654 66.4338 44.0929 65.9588 44.0929H65.6325V41.3117H65.6313ZM65.09 44.4817H65.76C66.1625 44.4817 66.5038 44.4342 66.7838 44.3392C67.0638 44.2442 67.2925 44.1142 67.4663 43.9492C67.64 43.7842 67.7663 43.5904 67.845 43.3679C67.9225 43.1454 67.9613 42.9054 67.9613 42.6467C67.9613 42.4467 67.9375 42.2679 67.89 42.1117C67.8425 41.9554 67.7813 41.8167 67.705 41.6967C67.6288 41.5767 67.5438 41.4729 67.45 41.3879C67.355 41.3029 67.2613 41.2329 67.1675 41.1792C67.045 41.1079 66.895 41.0479 66.7188 40.9979C66.5425 40.9492 66.3113 40.9242 66.0238 40.9242H65.0888V44.4817H65.09ZM71.2938 42.0429C71.3488 41.8542 71.425 41.7017 71.5213 41.5842C71.6175 41.4667 71.7288 41.3829 71.8538 41.3317C71.9788 41.2804 72.1125 41.2554 72.2563 41.2554C72.4363 41.2554 72.59 41.2954 72.7175 41.3754C72.845 41.4554 72.9488 41.5604 73.0288 41.6917C73.1088 41.8229 73.1663 41.9729 73.2013 42.1429C73.2363 42.3129 73.2538 42.4879 73.2538 42.6679C73.2538 42.9429 73.2263 43.1754 73.1713 43.3629C73.1163 43.5517 73.04 43.7042 72.9438 43.8217C72.8475 43.9392 72.735 44.0229 72.6088 44.0742C72.4813 44.1254 72.3488 44.1504 72.2088 44.1504C72.0275 44.1504 71.8738 44.1104 71.7475 44.0304C71.62 43.9504 71.5163 43.8454 71.4363 43.7142C71.3563 43.5842 71.2988 43.4329 71.2638 43.2629C71.2288 43.0929 71.2113 42.9179 71.2113 42.7379C71.2113 42.4642 71.2388 42.2317 71.2938 42.0429ZM70.755 43.4804C70.8288 43.6992 70.9338 43.8867 71.0688 44.0404C71.2038 44.1954 71.3675 44.3129 71.5613 44.3942C71.7538 44.4754 71.9688 44.5167 72.2075 44.5167C72.7163 44.5167 73.1113 44.3617 73.395 44.0529C73.6775 43.7442 73.82 43.2817 73.82 42.6667C73.82 42.3917 73.7825 42.1442 73.7088 41.9254C73.635 41.7067 73.53 41.5192 73.395 41.3654C73.26 41.2104 73.095 41.0929 72.9025 41.0117C72.71 40.9304 72.495 40.8892 72.2563 40.8892C71.7475 40.8892 71.3525 41.0442 71.0688 41.3529C70.7863 41.6617 70.6438 42.1242 70.6438 42.7392C70.645 43.0142 70.6813 43.2604 70.755 43.4804ZM76.7288 44.4817H77.245V41.4142H77.2575L78.4263 44.4817H78.82L80.0375 41.4142H80.05V44.4817H80.5663V40.9254H79.7538L78.6525 43.7529H78.64L77.5638 40.9254H76.7275V44.4817H76.7288ZM84.1263 42.0429C84.1813 41.8542 84.2575 41.7017 84.3538 41.5842C84.45 41.4667 84.5613 41.3829 84.6863 41.3317C84.8113 41.2804 84.945 41.2554 85.0888 41.2554C85.2688 41.2554 85.4225 41.2954 85.55 41.3754C85.6775 41.4554 85.7813 41.5604 85.8613 41.6917C85.9413 41.8229 85.9988 41.9729 86.0338 42.1429C86.0688 42.3129 86.0863 42.4879 86.0863 42.6679C86.0863 42.9429 86.0588 43.1754 86.0038 43.3629C85.9488 43.5517 85.8725 43.7042 85.7763 43.8217C85.68 43.9392 85.5675 44.0229 85.4413 44.0742C85.3138 44.1254 85.1813 44.1504 85.0413 44.1504C84.8613 44.1504 84.7075 44.1104 84.58 44.0304C84.4525 43.9504 84.3488 43.8454 84.27 43.7142C84.19 43.5842 84.1325 43.4329 84.0975 43.2629C84.0625 43.0929 84.045 42.9179 84.045 42.7379C84.0438 42.4642 84.0713 42.2317 84.1263 42.0429ZM83.5875 43.4804C83.6613 43.6992 83.7663 43.8867 83.9013 44.0404C84.0363 44.1954 84.2013 44.3129 84.3938 44.3942C84.5863 44.4754 84.8013 44.5167 85.04 44.5167C85.5488 44.5167 85.9438 44.3617 86.2275 44.0529C86.51 43.7442 86.6525 43.2817 86.6525 42.6667C86.6525 42.3917 86.6163 42.1442 86.5413 41.9254C86.4675 41.7067 86.3625 41.5192 86.2275 41.3654C86.0925 41.2104 85.9275 41.0929 85.735 41.0117C85.5425 40.9304 85.3275 40.8892 85.0888 40.8892C84.58 40.8892 84.1838 41.0442 83.9013 41.3529C83.6188 41.6617 83.4775 42.1242 83.4775 42.7392C83.4775 43.0142 83.5138 43.2604 83.5875 43.4804ZM90.3363 44.4817H90.8775L92.225 40.9254H91.6838L90.6313 43.8242H90.6188L89.6225 40.9254H89.0325L90.3363 44.4817Z" stroke="#515486" stroke-width="0.0345501" stroke-miterlimit="5.8519"/>
</svg>
