<svg width="123" height="58" viewBox="0 0 123 58" fill="none" xmlns="http://www.w3.org/2000/svg">
<g clip-path="url(#clip0_3799_25785)">
<mask id="mask0_3799_25785" style="mask-type:luminance" maskUnits="userSpaceOnUse" x="0" y="0" width="123" height="58">
<path d="M122.103 0H0V57.7574H122.103V0Z" fill="white"/>
</mask>
<g mask="url(#mask0_3799_25785)">
<path d="M79.1451 15.9175C81.0526 15.9175 82.7025 16.15 84.0276 16.5V20.545C82.7251 19.22 81.1901 18.3825 79.1676 18.3825C75.4701 18.3825 73.0051 20.9625 73.0051 24.405C73.0051 27.8475 75.4701 30.4275 79.1676 30.4275C81.1901 30.4275 82.7251 29.59 84.0276 28.265V32.31C82.7025 32.6575 81.0526 32.915 79.1451 32.915C72.7526 32.915 68.1251 29.73 68.1251 24.405C68.1251 19.08 72.7501 15.9175 79.1451 15.9175ZM60.9851 22.52C64.1701 22.9625 66.8201 24.0775 66.8201 27.5425C66.8201 31.6125 62.9601 32.9125 58.8001 32.89C55.8951 32.8675 53.4301 32.5875 51.6151 31.8675V28.2175C54.1951 29.89 56.8476 30.425 58.8001 30.425C60.8226 30.425 62.6826 29.9375 62.6826 28.4025C62.6826 26.8675 60.9626 26.495 57.4276 25.96C54.3826 25.495 51.6151 24.1925 51.5926 21.195C51.5701 17.15 55.4051 15.9175 59.0801 15.9175C61.4526 15.9175 63.7526 16.1975 65.8701 16.895V20.825C64.1026 19.2675 61.4751 18.385 58.8951 18.385C57.1501 18.385 55.5001 18.9425 55.5001 20.245C55.5001 21.87 57.9401 22.1025 60.9851 22.52ZM43.4551 30.0775C45.3376 30.0775 48.4776 29.635 49.7101 28.5425V32.5425H36.3426C36.9926 31.775 37.1101 31.2625 37.1101 29.705V19.1025C37.1101 17.545 36.9951 17.0325 36.3426 16.265H49.0126V20.265C47.7801 19.1725 44.6426 18.73 42.7576 18.73H41.2701V23.055H42.3626C43.4326 23.055 45.0826 23.0075 46.1751 22.6125V25.82C45.0826 25.425 43.4326 25.3775 42.3626 25.3775H41.2701V30.075H43.4551V30.0775ZM16.3 16.2675H34.6451V20.2675C33.3426 19.175 30.5751 18.7325 27.6226 18.7325V29.6375C27.6226 31.265 27.7626 31.7075 28.3901 32.5425H22.5551C23.1826 31.705 23.3226 31.2625 23.3226 29.6375V18.73C20.3701 18.73 17.6025 19.1725 16.3 20.265V16.2675Z" fill="#E30613"/>
</g>
<mask id="mask1_3799_25785" style="mask-type:luminance" maskUnits="userSpaceOnUse" x="0" y="0" width="123" height="58">
<path d="M122.103 0H0V57.7574H122.103V0Z" fill="white"/>
</mask>
<g mask="url(#mask1_3799_25785)">
<path d="M95.545 30.425C92.22 30.425 90.0575 27.68 90.0575 24.4025C90.0575 21.1 92.22 18.38 95.545 18.38C98.87 18.38 101.033 21.1 101.033 24.4025C101.033 27.6825 98.87 30.425 95.545 30.425ZM95.545 15.9175C88.9425 15.9175 85.175 19.7525 85.175 24.4025C85.175 29.03 88.9425 32.89 95.545 32.89C102.148 32.89 105.915 29.03 105.915 24.4025C105.915 19.755 102.148 15.9175 95.545 15.9175Z" fill="#E30613"/>
</g>
<mask id="mask2_3799_25785" style="mask-type:luminance" maskUnits="userSpaceOnUse" x="0" y="0" width="123" height="58">
<path d="M122.103 0H0V57.7574H122.103V0Z" fill="white"/>
</mask>
<g mask="url(#mask2_3799_25785)">
<path d="M94.635 36.9624H105.713C105.725 36.9624 105.735 36.9649 105.743 36.9699L105.745 36.9724C105.748 36.9749 105.75 36.9749 105.753 36.9774C105.775 36.9999 105.778 37.0424 105.743 37.0724C105.733 37.0799 105.725 37.0849 105.715 37.0899L105.695 37.0999C104.408 37.6874 102.685 39.4749 102.685 39.4749C101.398 40.6999 100.43 41.4724 98.37 41.4724H87.8075C87.7775 41.4724 87.76 41.4424 87.76 41.4124C87.76 41.3924 87.7675 41.3724 87.7825 41.3624C87.79 41.3549 87.805 41.3449 87.815 41.3399C88.975 40.6924 90.705 38.8974 90.705 38.8974C91.415 38.0574 92.8325 36.9624 94.635 36.9624Z" fill="#004A97"/>
</g>
<mask id="mask3_3799_25785" style="mask-type:luminance" maskUnits="userSpaceOnUse" x="0" y="0" width="123" height="58">
<path d="M122.103 0H0V57.7574H122.103V0Z" fill="white"/>
</mask>
<g mask="url(#mask3_3799_25785)">
<path d="M76.585 36.9624H87.6625C87.675 36.9624 87.685 36.9649 87.6925 36.9699L87.695 36.9724C87.6975 36.9749 87.7 36.9749 87.7025 36.9774C87.725 36.9999 87.7275 37.0424 87.6925 37.0724C87.6825 37.0799 87.675 37.0849 87.665 37.0899L87.645 37.0999C86.3575 37.6874 84.635 39.4749 84.635 39.4749C83.3475 40.6999 82.38 41.4724 80.32 41.4724H69.7575C69.7275 41.4724 69.71 41.4424 69.71 41.4124C69.71 41.3924 69.72 41.3724 69.7325 41.3624C69.74 41.3549 69.755 41.3449 69.765 41.3399C70.925 40.6924 72.655 38.8974 72.655 38.8974C73.365 38.0574 74.7825 36.9624 76.585 36.9624Z" fill="#004A97"/>
</g>
<mask id="mask4_3799_25785" style="mask-type:luminance" maskUnits="userSpaceOnUse" x="0" y="0" width="123" height="58">
<path d="M122.103 0H0V57.7574H122.103V0Z" fill="white"/>
</mask>
<g mask="url(#mask4_3799_25785)">
<path d="M58.5349 36.9624H69.6124C69.6249 36.9624 69.6349 36.9649 69.6424 36.9699L69.6449 36.9724C69.6474 36.9749 69.6499 36.9749 69.6524 36.9774C69.6749 36.9999 69.6774 37.0424 69.6424 37.0724C69.6324 37.0799 69.6249 37.0849 69.6149 37.0899L69.5949 37.0999C68.3074 37.6874 66.5849 39.4749 66.5849 39.4749C65.2974 40.6999 64.3299 41.4724 62.2699 41.4724H51.7074C51.6774 41.4724 51.6599 41.4424 51.6599 41.4124C51.6599 41.3924 51.6699 41.3724 51.6824 41.3624C51.6924 41.3549 51.7049 41.3449 51.7149 41.3399C52.8749 40.6924 54.6049 38.8974 54.6049 38.8974C55.3149 38.0574 56.7324 36.9624 58.5349 36.9624Z" fill="#004A97"/>
</g>
<mask id="mask5_3799_25785" style="mask-type:luminance" maskUnits="userSpaceOnUse" x="0" y="0" width="123" height="58">
<path d="M122.103 0H0V57.7574H122.103V0Z" fill="white"/>
</mask>
<g mask="url(#mask5_3799_25785)">
<path d="M40.4851 36.9624H51.5626C51.5751 36.9624 51.5851 36.9649 51.5926 36.9699L51.5951 36.9724C51.5976 36.9749 51.6001 36.9749 51.6026 36.9774C51.6251 36.9999 51.6276 37.0424 51.5926 37.0724C51.5826 37.0799 51.5751 37.0849 51.5651 37.0899L51.5451 37.0999C50.2576 37.6874 48.5351 39.4749 48.5351 39.4749C47.2476 40.6999 46.2801 41.4724 44.2201 41.4724H33.6576C33.6276 41.4724 33.6101 41.4424 33.6101 41.4124C33.6101 41.3924 33.6176 41.3724 33.6326 41.3624C33.6426 41.3549 33.6551 41.3449 33.6651 41.3399C34.8251 40.6924 36.5551 38.8974 36.5551 38.8974C37.2651 38.0574 38.6826 36.9624 40.4851 36.9624Z" fill="#004A97"/>
</g>
<mask id="mask6_3799_25785" style="mask-type:luminance" maskUnits="userSpaceOnUse" x="0" y="0" width="123" height="58">
<path d="M122.103 0H0V57.7574H122.103V0Z" fill="white"/>
</mask>
<g mask="url(#mask6_3799_25785)">
<path d="M22.435 36.9624H33.5125C33.525 36.9624 33.535 36.9649 33.5425 36.9699L33.545 36.9724C33.5475 36.9749 33.55 36.9749 33.5525 36.9774C33.575 36.9999 33.5775 37.0424 33.5425 37.0724C33.5325 37.0799 33.525 37.0849 33.515 37.0899L33.495 37.0999C32.2075 37.6874 30.485 39.4749 30.485 39.4749C29.1975 40.6999 28.23 41.4724 26.17 41.4724H15.61C15.58 41.4724 15.5625 41.4424 15.5625 41.4124C15.5625 41.3924 15.5725 41.3724 15.585 41.3624C15.5925 41.3549 15.6075 41.3449 15.6175 41.3399C16.7775 40.6924 18.5075 38.8974 18.5075 38.8974C19.215 38.0574 20.6325 36.9624 22.435 36.9624Z" fill="#004A97"/>
</g>
</g>
<defs>
<clipPath id="clip0_3799_25785">
<rect width="122.103" height="57.7574" fill="white"/>
</clipPath>
</defs>
</svg>
