<svg width="64" height="64" viewBox="0 0 64 64" fill="none" xmlns="http://www.w3.org/2000/svg">
<path d="M36.9947 31.653H27.0121L23.6924 27.1565C23.4369 26.7077 23.3027 26.2001 23.3027 25.6837V17.9766C23.3027 17.1871 23.6164 16.4299 24.1746 15.8717C24.7329 15.3134 25.4901 14.9998 26.2796 14.9998H37.7272C38.1178 14.9998 38.5045 15.0768 38.8652 15.2265C39.226 15.3762 39.5536 15.5956 39.8294 15.8721C40.1052 16.1487 40.3238 16.4769 40.4725 16.838C40.6213 17.1991 40.6973 17.5861 40.6963 17.9766V25.6837C40.6964 26.2001 40.5621 26.7077 40.3067 27.1565L36.9947 31.653Z" stroke="currentColor" stroke-width="1.5" stroke-miterlimit="10"/>
<path d="M36.9948 31.6531H27.0122V37.0535H36.9948V31.6531Z" stroke="currentColor" stroke-width="1.5" stroke-miterlimit="10"/>
<path d="M33.8695 45.883L31.9992 49.0001L30.1289 45.883V37.0537H33.8695V45.883Z" stroke="currentColor" stroke-width="1.5" stroke-miterlimit="10"/>
<path d="M40.6968 19.6211H46.6739C47.1658 19.6211 47.6375 19.8165 47.9853 20.1643C48.3332 20.5121 48.5286 20.9839 48.5286 21.4758V21.4758C48.5286 21.9677 48.3332 22.4394 47.9853 22.7872C47.6375 23.1351 47.1658 23.3305 46.6739 23.3305H40.6968V19.6211Z" stroke="currentColor" stroke-width="1.5" stroke-miterlimit="10"/>
<path d="M23.3027 23.3228H17.3256C17.0821 23.3228 16.8409 23.2748 16.6159 23.1816C16.3909 23.0884 16.1864 22.9518 16.0142 22.7795C15.842 22.6073 15.7053 22.4028 15.6121 22.1778C15.5189 21.9528 15.471 21.7116 15.471 21.4681C15.471 21.2245 15.5189 20.9833 15.6121 20.7583C15.7053 20.5333 15.842 20.3288 16.0142 20.1566C16.1864 19.9844 16.3909 19.8478 16.6159 19.7546C16.8409 19.6613 17.0821 19.6134 17.3256 19.6134H23.3027V23.3228Z" stroke="currentColor" stroke-width="1.5" stroke-miterlimit="10"/>
<path d="M38.0161 47.8623L40.9852 42.2047L43.1983 43.9736L45.957 38.2771" stroke="currentColor" stroke-width="1.5" stroke-miterlimit="10"/>
<path d="M26.35 47.8623L23.381 42.2047L21.1678 43.9736L18.4014 38.2771" stroke="currentColor" stroke-width="1.5" stroke-miterlimit="10"/>
<path d="M28.6328 19.6211H35.3736" stroke="currentColor" stroke-width="1.5" stroke-miterlimit="10"/>
<path d="M28.6328 22.7693H35.3736" stroke="currentColor" stroke-width="1.5" stroke-miterlimit="10"/>
<path d="M28.6328 25.9255H35.3736" stroke="currentColor" stroke-width="1.5" stroke-miterlimit="10"/>
</svg>
