<svg width="64" height="64" viewBox="0 0 48 48" fill="none" xmlns="http://www.w3.org/2000/svg">
<path d="M10.1234 6.99658H10.1159C9.27094 6.99658 8.58594 7.68159 8.58594 8.52658V22.5666C8.58594 23.4116 9.27094 24.0966 10.1159 24.0966H10.1234C10.9684 24.0966 11.6534 23.4116 11.6534 22.5666V8.52658C11.6534 7.68159 10.9684 6.99658 10.1234 6.99658Z" stroke="currentColor" stroke-width="1.5" stroke-miterlimit="10"/>
<path d="M24.0508 38.1368V38.1443C24.0508 38.9893 24.7358 39.6743 25.5808 39.6743H39.6208C40.4658 39.6743 41.1508 38.9893 41.1508 38.1443V38.1368C41.1508 37.2918 40.4658 36.6068 39.6208 36.6068H25.5808C24.7358 36.6068 24.0508 37.2918 24.0508 38.1368Z" stroke="currentColor" stroke-width="1.5" stroke-miterlimit="10"/>
<path d="M25.0623 17.8859L28.3998 14.0834C23.7198 10.5959 17.9223 8.52588 11.6523 8.52588V22.6334C14.8773 22.6334 17.8398 23.7434 20.2098 25.5884L25.9473 21.9059L25.0623 17.8934V17.8859Z" stroke="currentColor" stroke-width="1.5" stroke-miterlimit="10"/>
<path d="M39.7319 36.6069C39.7319 30.1644 37.5419 24.2244 33.8819 19.4844L29.3669 21.1569L29.1269 25.4544L22.2344 27.5094C24.3419 29.9544 25.6244 33.1344 25.6244 36.6069H39.7319Z" stroke="currentColor" stroke-width="1.5" stroke-miterlimit="10"/>
</svg>
