<svg width="64" height="64" viewBox="0 0 64 64" fill="none" xmlns="http://www.w3.org/2000/svg">
<g clip-path="url(#clip0_2358_20273)">
<path d="M29.9744 36.3416L33.5969 39.9641L28.7519 44.8091C27.3134 46.2491 25.4472 47.1844 23.4327 47.4751C21.4182 47.7658 19.3637 47.3962 17.5769 46.4216V46.4216C16.6023 44.6347 16.2326 42.5803 16.5233 40.5658C16.814 38.5512 17.7494 36.6851 19.1894 35.2466L24.0344 30.4016L27.6569 34.0241" stroke="currentColor" stroke-width="1.5"/>
<path d="M42.2895 24.0641L39.972 21.7466L27.657 34.0241L27.0645 35.9591C27.0099 36.0954 26.9965 36.2447 27.026 36.3885C27.0555 36.5323 27.1266 36.6643 27.2304 36.7681C27.3342 36.8719 27.4662 36.943 27.61 36.9725C27.7538 37.002 27.9032 36.9886 28.0395 36.9341L29.9745 36.3416L42.2895 24.0641Z" stroke="currentColor" stroke-width="1.5"/>
<path d="M46.0829 21.7846L42.2168 17.9184C41.3938 17.0954 40.0594 17.0954 39.2363 17.9185L39.1992 17.9556C38.3762 18.7786 38.3762 20.113 39.1992 20.936L43.0653 24.8021C43.8883 25.6252 45.2227 25.6252 46.0458 24.8021L46.0829 24.765C46.9059 23.942 46.9059 22.6076 46.0829 21.7846Z" stroke="currentColor" stroke-width="1.5"/>
<path d="M22.2568 41.7418L27.1768 36.8218" stroke="currentColor" stroke-width="1.5"/>
</g>
<defs>
<clipPath id="clip0_2358_20273">
<rect width="48" height="48" fill="currentColor" transform="translate(8 8)"/>
</clipPath>
</defs>
</svg>
