<svg width="18" height="14" viewBox="0 0 18 14" fill="none" xmlns="http://www.w3.org/2000/svg">
<path d="M3.5 9.85015C4.41667 9.76682 5.33333 9.70015 6.25 9.65015C7.16667 9.60015 8.08333 9.57515 9 9.57515C9.91667 9.57515 10.8333 9.60015 11.75 9.65015C12.6667 9.70015 13.5833 9.76682 14.5 9.85015L11 5.65015L8.325 8.85015L6.325 6.45015L3.5 9.85015ZM0.95 13.7002C0.7 13.7668 0.479333 13.7335 0.288 13.6002C0.0960001 13.4668 0 13.2502 0 12.9502V1.07515C0 0.775152 0.0960001 0.562819 0.288 0.438152C0.479333 0.312819 0.7 0.283485 0.95 0.350152C1.28333 0.433485 1.70833 0.541819 2.225 0.675152C2.74167 0.808485 3.34167 0.933485 4.025 1.05015C4.69167 1.16682 5.44167 1.27082 6.275 1.36215C7.10833 1.45415 8.01667 1.50015 9 1.50015C9.98333 1.50015 10.8877 1.45415 11.713 1.36215C12.5377 1.27082 13.2917 1.16682 13.975 1.05015C14.6417 0.933485 15.2293 0.808485 15.738 0.675152C16.246 0.541819 16.6667 0.433485 17 0.350152C17.25 0.283485 17.4793 0.312819 17.688 0.438152C17.896 0.562819 18 0.775152 18 1.07515V12.9502C18 13.2502 17.896 13.4668 17.688 13.6002C17.4793 13.7335 17.25 13.7668 17 13.7002C16.6667 13.6002 16.246 13.4835 15.738 13.3502C15.2293 13.2168 14.6417 13.0835 13.975 12.9502C13.2917 12.8335 12.5377 12.7292 11.713 12.6372C10.8877 12.5458 9.98333 12.5002 9 12.5002C8.01667 12.5002 7.10833 12.5458 6.275 12.6372C5.44167 12.7292 4.69167 12.8335 4.025 12.9502C3.34167 13.0835 2.74167 13.2168 2.225 13.3502C1.70833 13.4835 1.28333 13.6002 0.95 13.7002ZM1 12.6502C2.3 12.2668 3.621 11.9795 4.963 11.7882C6.30433 11.5962 7.65 11.5002 9 11.5002C10.35 11.5002 11.696 11.5962 13.038 11.7882C14.3793 11.9795 15.7 12.2668 17 12.6502V1.40015C15.7 1.78349 14.3793 2.06249 13.038 2.23715C11.696 2.41249 10.35 2.50015 9 2.50015C7.65 2.50015 6.30433 2.41249 4.963 2.23715C3.621 2.06249 2.3 1.78349 1 1.40015V12.6502Z" fill="#333333"/>
</svg>
