<svg width="20" height="20" viewBox="0 0 20 20" fill="currentColor" xmlns="http://www.w3.org/2000/svg">
<path fill-rule="evenodd" clip-rule="evenodd" d="M9.99805 3.39844C9.394 3.39844 8.9043 2.90876 8.9043 2.30469C8.9043 1.70062 9.394 1.21094 9.99805 1.21094C10.6021 1.21094 11.0918 1.70062 11.0918 2.30469C11.0918 2.90876 10.6021 3.39844 9.99805 3.39844ZM8.22225 3.83436C7.86831 3.42384 7.6543 2.88926 7.6543 2.30469C7.6543 1.01024 8.70366 -0.0390625 9.99805 -0.0390625C11.2924 -0.0390625 12.3418 1.01024 12.3418 2.30469C12.3418 2.88926 12.1278 3.42384 11.7738 3.83436C12.9939 4.47436 13.8262 5.75327 13.8262 7.22656V8.4375C13.8262 9.29758 13.2702 10.0278 12.498 10.2885V12.0999C14.2321 12.2619 15.7694 12.5902 16.9195 13.0412C17.5468 13.2873 18.0927 13.5828 18.4926 13.9344C18.8908 14.2845 19.2066 14.749 19.2066 15.3178C19.2066 15.844 18.9352 16.2823 18.581 16.6202C18.2278 16.9571 17.7463 17.2415 17.1949 17.4807C16.0884 17.9608 14.5703 18.3145 12.8458 18.5006L12.7117 17.2578C14.363 17.0796 15.7464 16.7466 16.6974 16.334C17.1747 16.1269 17.5109 15.9135 17.7183 15.7157C17.9246 15.5188 17.9566 15.3856 17.9566 15.3178C17.9566 15.245 17.9186 15.0942 17.6673 14.8732C17.4177 14.6538 17.0184 14.4227 16.4631 14.2049C15.4768 13.8181 14.1041 13.5138 12.498 13.3557V14.9219H7.49805V13.3558C5.92351 13.5108 4.57204 13.8064 3.58906 14.1832C3.01526 14.4032 2.60079 14.6381 2.34095 14.8625C2.0786 15.089 2.03906 15.244 2.03906 15.3179C2.03906 15.4028 2.09447 15.5963 2.46215 15.8704C2.8184 16.136 3.3737 16.4016 4.11604 16.6357C5.30714 17.0113 6.88965 17.2777 8.67642 17.3669L8.21745 16.7888L9.19639 16.0115L10.7945 18.0243L9.19639 20.037L8.21745 19.2597L8.72491 18.6206C6.8101 18.533 5.07844 18.2498 3.74013 17.8278C2.92918 17.5721 2.22747 17.2546 1.71503 16.8725C1.21402 16.499 0.789062 15.9805 0.789062 15.3179C0.789062 14.7394 1.11555 14.269 1.52405 13.9163C1.93504 13.5615 2.49622 13.2635 3.14164 13.016C4.28344 12.5783 5.79518 12.2591 7.49805 12.1001V10.2885C6.72587 10.0278 6.16992 9.29758 6.16992 8.4375V7.22656C6.16992 5.75327 7.0022 4.47436 8.22225 3.83436ZM8.74805 9.14062V13.6719H11.248V9.14062H11.873C12.2614 9.14062 12.5762 8.82581 12.5762 8.4375V7.22656C12.5762 5.80271 11.4219 4.64844 9.99805 4.64844C8.57417 4.64844 7.41992 5.80271 7.41992 7.22656V8.4375C7.41992 8.82581 7.73472 9.14062 8.12305 9.14062H8.74805Z" fill="currentColor"/>
</svg>
