<svg width="32" height="32" viewBox="0 0 32 32" fill="none" xmlns="http://www.w3.org/2000/svg">
<g clip-path="url(#clip0_2361_19389)">
<path d="M14.9527 22.5925H15.0477C16.029 22.5925 16.9701 22.9824 17.664 23.6762C18.3579 24.3701 18.7477 25.3112 18.7477 26.2925V26.8275H5.28271V26.2925C5.28271 25.3112 5.67254 24.3701 6.36642 23.6762C7.0603 22.9824 8.00141 22.5925 8.98271 22.5925H9.07771" stroke="currentColor" stroke-miterlimit="10"/>
<path d="M16.0176 17.2276C16.2821 17.3157 16.5588 17.3613 16.8376 17.3626H19.7126C19.7606 17.8655 19.6708 18.372 19.4526 18.8276C19.3291 19.0934 19.1599 19.3354 18.9526 19.5426C18.7575 19.7331 18.5105 19.8619 18.2426 19.9126C18.1444 19.9466 18.0591 20.0104 17.9988 20.0951C17.9385 20.1798 17.9061 20.2811 17.9061 20.3851C17.9061 20.4891 17.9385 20.5905 17.9988 20.6751C18.0591 20.7598 18.1444 20.8236 18.2426 20.8576C18.3508 20.8652 18.4594 20.8652 18.5676 20.8576C18.9544 20.8538 19.3354 20.7633 19.6826 20.5926C20.1114 20.3835 20.4979 20.097 20.8226 19.7476C21.4596 19.0806 21.8902 18.2437 22.0626 17.3376H24.1626C24.8394 17.335 25.4878 17.0649 25.9663 16.5864C26.4449 16.1078 26.715 15.4594 26.7176 14.7826V7.72261C26.715 7.04625 26.4448 6.39843 25.966 5.92064C25.4873 5.44285 24.839 5.17392 24.1626 5.17261H16.8376C16.1617 5.17393 15.5139 5.44301 15.0359 5.92094C14.558 6.39888 14.2889 7.04671 14.2876 7.72261V11.1176" stroke="currentColor" stroke-miterlimit="10"/>
<path d="M15.9525 14.5823C15.9843 14.7217 16.0011 14.8642 16.0025 15.0073V19.8473C16.0025 20.9081 15.5811 21.9256 14.8309 22.6757C14.0808 23.4258 13.0634 23.8473 12.0025 23.8473C10.9416 23.8473 9.92422 23.4258 9.17407 22.6757C8.42393 21.9256 8.0025 20.9081 8.0025 19.8473V15.0073C8.00152 14.8814 8.01324 14.7558 8.0375 14.6323" stroke="currentColor" stroke-miterlimit="10"/>
<path d="M10.7427 19.0822V16.7722" stroke="currentColor" stroke-miterlimit="10"/>
<path d="M13.272 19.0822V16.7722" stroke="currentColor" stroke-miterlimit="10"/>
<path d="M20.4771 14.6872V12.8572" stroke="currentColor" stroke-miterlimit="10"/>
<path d="M20.4771 11.6523V7.72729" stroke="currentColor" stroke-miterlimit="10"/>
<path d="M10.3377 10.202C10.8889 10.1753 11.4384 10.2818 11.9397 10.5124C12.441 10.7431 12.8794 11.0911 13.2177 11.527C13.6293 11.2431 14.1177 11.0914 14.6177 11.092C15.1757 11.0748 15.719 11.2729 16.1351 11.6452C16.5511 12.0175 16.8081 12.5355 16.8527 13.092V13.092C16.8527 14.092 15.9027 14.907 14.7277 14.907H9.28271C8.10771 14.907 7.15771 14.092 7.15771 13.092C7.15771 11.577 8.54772 10.247 10.3377 10.202Z" stroke="currentColor" stroke-miterlimit="10"/>
</g>
<defs>
<clipPath id="clip0_2361_19389">
<rect width="32" height="32" fill="currentColor"/>
</clipPath>
</defs>
</svg>
