<svg width="48" height="48" viewBox="-8 -8 64 64" fill="none" xmlns="http://www.w3.org/2000/svg">
<path d="M25.2486 34.7251H24.0336C23.3135 34.7251 22.623 35.0111 22.1138 35.5203C21.6046 36.0295 21.3186 36.72 21.3186 37.4401V39.1576H33.4311V37.4401C33.4311 36.72 33.1451 36.0295 32.6359 35.5203C32.1267 35.0111 31.4362 34.7251 30.7161 34.7251H29.5011" stroke="currentColor" stroke-width="1.5" stroke-miterlimit="10"/>
<path d="M25.2485 34.7253V19.4478" stroke="currentColor" stroke-width="1.5" stroke-miterlimit="10"/>
<path d="M29.5012 34.7253V19.4478" stroke="currentColor" stroke-width="1.5" stroke-miterlimit="10"/>
<path d="M25.2485 34.7251H29.501" stroke="currentColor" stroke-width="1.5" stroke-miterlimit="10"/>
<path d="M31.0312 15.7505H35.6662" stroke="currentColor" stroke-width="1.5" stroke-miterlimit="10"/>
<path d="M15.9263 15.7505H23.7188" stroke="currentColor" stroke-width="1.5" stroke-miterlimit="10"/>
<path d="M31.0312 18.578H36.8812V15.7505H35.6662" stroke="currentColor" stroke-width="1.5" stroke-miterlimit="10"/>
<path d="M15.9261 15.7505H13.9836V18.578H23.7186" stroke="currentColor" stroke-width="1.5" stroke-miterlimit="10"/>
<path d="M23.7186 18.5777C23.6333 18.3892 23.5898 18.1846 23.5911 17.9777V16.3877C23.5918 16.181 23.6352 15.9768 23.7186 15.7877C23.8326 15.5263 24.0187 15.3028 24.2551 15.1434C24.4916 14.984 24.7685 14.8953 25.0536 14.8877H29.6961C29.9771 14.892 30.2512 14.9751 30.4872 15.1276C30.7232 15.2801 30.9117 15.4958 31.0311 15.7502C31.1145 15.9393 31.1579 16.1435 31.1586 16.3502V17.9777C31.1599 18.1846 31.1164 18.3892 31.0311 18.5777C30.9128 18.8335 30.7248 19.0508 30.4887 19.2046C30.2526 19.3585 29.9779 19.4427 29.6961 19.4477H25.0536C24.7718 19.4427 24.4971 19.3585 24.261 19.2046C24.0249 19.0508 23.8369 18.8335 23.7186 18.5777V18.5777Z" stroke="currentColor" stroke-width="1.5" stroke-miterlimit="10"/>
<path d="M13.9837 26.0479H12.2962C11.9839 26.0479 11.6844 26.1719 11.4635 26.3927C11.2427 26.6136 11.1187 26.9131 11.1187 27.2254V28.0879C11.1187 28.4001 11.2427 28.6996 11.4635 28.9205C11.6844 29.1413 11.9839 29.2654 12.2962 29.2654H15.6712C15.9834 29.2654 16.2829 29.1413 16.5038 28.9205C16.7246 28.6996 16.8487 28.4001 16.8487 28.0879V27.2254C16.8487 26.9131 16.7246 26.6136 16.5038 26.3927C16.2829 26.1719 15.9834 26.0479 15.6712 26.0479H13.9837Z" stroke="currentColor" stroke-width="1.5" stroke-miterlimit="10"/>
<path d="M35.6663 15.7503L27.3788 8.84277L15.9263 15.7503" stroke="currentColor" stroke-width="1.5" stroke-miterlimit="10"/>
<path d="M13.9836 26.0479V18.5854" stroke="currentColor" stroke-width="1.5" stroke-miterlimit="10"/>
<path d="M27.3711 14.8878V8.84277" stroke="currentColor" stroke-width="1.5" stroke-miterlimit="10"/>
</svg>
