<svg width="28" height="28" viewBox="0 0 28 28" fill="none" xmlns="http://www.w3.org/2000/svg">
<circle cx="14" cy="14" r="13" fill="white" stroke="#003399" stroke-width="2"/>
<g clip-path="url(#clip0_4750_3290)">
<path d="M7.25 18.0582L5 10.0916H6.55L7.98333 15.9499H8.05833L9.59167 10.0916H11.0083L12.5417 15.9499H12.6083L14.0417 10.0916H15.5917L13.3417 18.0582H11.9167L10.325 12.4666H10.2583L8.65833 18.0582H7.23333H7.25Z" fill="#003399"/>
<path d="M22.9997 12.7751H21.5414C21.4997 12.5334 21.4247 12.3251 21.3081 12.1417C21.1997 11.9584 21.0581 11.8001 20.8914 11.6667C20.7247 11.5334 20.5331 11.4417 20.3247 11.3751C20.1164 11.3084 19.8831 11.2751 19.6414 11.2751C19.2081 11.2751 18.8247 11.3834 18.4914 11.6001C18.1581 11.8167 17.8914 12.1334 17.7081 12.5501C17.5164 12.9667 17.4247 13.4751 17.4247 14.0751C17.4247 14.6751 17.5164 15.2001 17.7081 15.6167C17.8997 16.0334 18.1581 16.3501 18.4914 16.5584C18.8247 16.7667 19.2081 16.8751 19.6414 16.8751C19.8831 16.8751 20.0997 16.8417 20.3164 16.7834C20.5247 16.7167 20.7164 16.6251 20.8831 16.5001C21.0497 16.3751 21.1914 16.2251 21.3081 16.0417C21.4247 15.8584 21.4997 15.6501 21.5497 15.4167H23.0081C22.9497 15.8001 22.8331 16.1584 22.6581 16.4917C22.4831 16.8251 22.2414 17.1167 21.9497 17.3667C21.6581 17.6167 21.3164 17.8167 20.9331 17.9584C20.5497 18.1001 20.1081 18.1667 19.6414 18.1667C18.9414 18.1667 18.3164 18.0084 17.7664 17.6834C17.2164 17.3584 16.7831 16.8917 16.4664 16.2751C16.1497 15.6667 15.9914 14.9251 15.9914 14.0751C15.9914 13.2251 16.1497 12.4834 16.4664 11.8667C16.7831 11.2584 17.2164 10.7917 17.7664 10.4667C18.3164 10.1417 18.9414 9.9834 19.6331 9.9834C20.0747 9.9834 20.4914 10.0417 20.8747 10.1667C21.2581 10.2917 21.5914 10.4751 21.8914 10.7167C22.1914 10.9584 22.4331 11.2501 22.6331 11.6001C22.8247 11.9501 22.9497 12.3417 23.0164 12.7834L22.9997 12.7751Z" fill="#003399"/>
</g>
<defs>
<clipPath id="clip0_4750_3290">
<rect width="20" height="20" fill="white" transform="translate(4 4)"/>
</clipPath>
</defs>
</svg>
