<svg width="24" height="24" viewBox="0 0 24 24" fill="none" xmlns="http://www.w3.org/2000/svg">
<path d="M8.32124 12.5061C8.69624 13.6686 10.1775 15.2323 11.3212 15.5061C11.5825 15.5604 11.8545 15.52 12.0887 15.3922C12.323 15.2645 12.5042 15.0576 12.6 14.8086C12.6587 14.633 12.7617 14.4756 12.899 14.3514C13.0364 14.2273 13.2034 14.1407 13.384 14.0999C13.5646 14.0592 13.7526 14.0658 13.93 14.119C14.1073 14.1722 14.2679 14.2702 14.3962 14.4036L16.02 16.0273C16.2153 16.2409 16.3235 16.5198 16.3235 16.8092C16.3235 17.0986 16.2153 17.3775 16.02 17.5911L14.9325 18.7123C13.7737 19.8748 10.6987 18.5961 7.97249 15.8698C5.24624 13.1436 4.02749 10.0723 5.12999 8.90985L6.23249 7.80735C6.44668 7.61182 6.72622 7.50342 7.01624 7.50342C7.30626 7.50342 7.5858 7.61182 7.79999 7.80735L9.42374 9.4311C9.56056 9.55992 9.66153 9.72211 9.71674 9.90174C9.77195 10.0814 9.7795 10.2723 9.73865 10.4557C9.69781 10.6391 9.60997 10.8088 9.48375 10.948C9.35754 11.0872 9.19729 11.1913 9.01874 11.2498C8.88616 11.2793 8.76133 11.3365 8.65249 11.4177C8.54365 11.4989 8.45329 11.6023 8.38737 11.7211C8.32144 11.8398 8.28146 11.9712 8.27006 12.1065C8.25866 12.2418 8.27611 12.378 8.32124 12.5061V12.5061Z" stroke="currentColor" stroke-miterlimit="10"/>
<path d="M10.8937 8.75635C12.073 8.76114 13.2033 9.22866 14.0413 10.0583C14.8794 10.888 15.3583 12.0134 15.375 13.1926" stroke="currentColor" stroke-miterlimit="10"/>
<path d="M10.8937 6.82129C12.5884 6.82223 14.214 7.49276 15.4164 8.68681C16.6189 9.88087 17.3009 11.5017 17.3137 13.1963" stroke="currentColor" stroke-miterlimit="10"/>
<path d="M10.8937 4.76611C13.133 4.76608 15.2813 5.65228 16.8693 7.23112C18.4573 8.80997 19.3559 10.9531 19.3687 13.1924" stroke="currentColor" stroke-miterlimit="10"/>
</svg>
