<svg width="140" height="81" viewBox="0 0 140 81" fill="none" xmlns="http://www.w3.org/2000/svg">
<path d="M128.62 9.18677L128.482 9.19607L128.317 9.20692L128.097 9.22242L127.826 9.24102L127.51 9.26272L127.155 9.28752L126.764 9.31542L126.346 9.34487L125.904 9.37587L125.444 9.40842L124.971 9.44252L124.49 9.47662L124.008 9.51072L123.529 9.54482L123.06 9.57892L122.826 10.0734L122.587 10.5322L122.345 10.9553L122.1 11.3459L121.854 11.704L121.607 12.0326L121.361 12.3317L121.114 12.603L120.87 12.8479L120.628 13.068L120.389 13.2648L120.155 13.4384L119.926 13.5919L119.702 13.7252L119.487 13.8399L119.279 13.9375L118.743 13.4446L118.131 13.023L117.446 12.6743L116.689 12.3999L115.863 12.2015L114.967 12.0791L114.005 12.0357L112.977 12.0713L112.355 12.1287L111.746 12.2108L111.149 12.3193L110.567 12.4511L109.998 12.6076L109.443 12.7874L108.903 12.9905L108.378 13.2152L107.868 13.4617L107.375 13.7298L106.898 14.0181L106.437 14.3281L105.994 14.6567L105.568 15.0055L105.16 15.3728L104.771 15.7588L104.401 16.1618L104.049 16.5818L103.716 17.0189L103.403 17.4731L103.11 17.9428L103.088 17.9815L98.9525 14.1638L98.9137 14.122L98.6378 13.8988L98.334 13.7097L99.0625 9.82382L92.0069 3.30914L85.7092 3.75709L85.176 6.58431L82.3705 3.99425H82.3503L82.3348 3.99735H82.3147L82.2914 4.00045H82.2635L82.2325 4.0051L82.1969 4.0082L82.1581 4.0113L82.1147 4.0144L82.0682 4.0175L82.0186 4.0206L81.9659 4.0237L81.9086 4.02835L81.8481 4.033L81.7846 4.03765L81.7179 4.0423L81.6482 4.04695L81.5753 4.0516L81.5009 4.05625L81.4234 4.06245L81.3428 4.06865L81.2607 4.07485L81.1754 4.08105L81.0871 4.08725L80.9972 4.09345L80.9042 4.09965L80.8096 4.10585L80.7135 4.11205L80.6143 4.11825L80.5136 4.126L80.4113 4.13375L80.3074 4.1415L80.202 4.14925L80.0951 4.157L79.9866 4.16475L79.8765 4.1725L79.7649 4.18025L79.6518 4.188L79.5386 4.19575L79.4239 4.2035L79.3077 4.21125L79.1914 4.219L79.0736 4.22675L78.9558 4.2345L78.8365 4.24225L78.7171 4.25L78.5978 4.25775L78.4784 4.26705L78.3575 4.27635L78.2366 4.28565L78.1157 4.29495L77.9948 4.30425L77.8739 4.31355L77.753 4.32285L77.6321 4.33215L77.5128 4.34145L77.3934 4.3492L77.2741 4.35695L77.1563 4.3647L77.0385 4.37245L76.9207 4.3802L76.8044 4.38795L76.7455 4.53985L76.6866 4.68865L76.6277 4.83435L76.5688 4.97695L76.5099 5.11645L76.451 5.25285L76.3921 5.38615L76.3332 5.51635L76.2743 5.64345L76.2154 5.76745L76.1565 5.88835L76.0976 6.00615L76.0387 6.12085L75.9798 6.234L75.9209 6.34405L75.862 6.45101L75.8031 6.55486L75.7458 6.65716L75.6884 6.75636L75.6311 6.85401L75.5737 6.94856L75.5164 7.04156L75.459 7.13146L75.4016 7.21981L75.3443 7.30506L75.2869 7.38876L75.2296 7.46936L75.1723 7.54841L75.1149 7.62591L75.0591 7.70186L75.0033 7.77471L74.9475 7.84601L74.8917 7.91576L74.8623 7.95141L71.4212 4.7739L71.3329 4.7801L71.243 4.7863L71.1515 4.7925L71.0585 4.7987L70.964 4.8049L70.8694 4.8111L70.7733 4.8173L70.6757 4.8235L70.578 4.8297L70.4788 4.8359L70.3796 4.84365L70.2804 4.8514L70.1797 4.85915L70.0789 4.8669L69.9782 4.87465L69.8774 4.8824L69.7767 4.89015L69.6759 4.8979L69.5752 4.90565L69.4744 4.9134L69.3737 4.92115L69.2745 4.9289L69.1753 4.93665L69.0761 4.9444L68.9784 4.9506L68.8808 4.9568L68.7847 4.963L68.6886 4.9692L68.594 4.9754L68.501 4.9816L68.408 4.9878L68.3166 4.994L68.2267 5.0002L68.1383 5.0064L68.0515 5.0126L67.9663 5.0188L67.8826 5.025L67.8004 5.0312L67.7214 5.0374L67.6439 5.0436L67.5679 5.04825L67.4951 5.0529L67.4238 5.05755L67.3556 5.0622L67.2889 5.06685L67.2254 5.0715L67.1649 5.07615L67.1076 5.0808L67.0518 5.08545L66.9991 5.08855L66.9495 5.09165L66.903 5.09475L66.8596 5.09785L66.8193 5.10095L66.7821 5.10405L66.7495 5.10715H66.7201L66.6937 5.1118H66.672L66.6534 5.1149H66.6286L66.6193 5.12575V5.13505L66.6162 5.149L66.6131 5.16605L66.61 5.1862L66.6069 5.211L66.6038 5.2389L66.6007 5.2699L66.5961 5.304L66.5914 5.34275L66.5868 5.3846L66.5837 5.42955L66.5806 5.4776L66.5775 5.52875L66.5744 5.583L66.5713 5.64345L66.5682 5.707V5.77365L66.5651 5.8434V6.0697L66.5697 6.1503L66.5728 6.234L66.5775 6.3208L66.5837 6.40916L66.5914 6.50061L66.6007 6.59361L66.6116 6.68971L66.624 6.78736L66.6379 6.88811L66.6534 6.99041L66.6705 7.09426L66.6891 7.19966L66.7108 7.30816L66.734 7.41821L66.7588 7.52981L66.7867 7.64296L66.8162 7.75766L66.8487 7.87391L66.8844 7.99016L66.9216 8.10796L66.9619 8.22731L67.0053 8.34821L67.0518 8.46911L67.1014 8.59156L67.1541 8.71402L67.2099 8.83801L67.2688 8.96202L67.3308 9.08757L67.3959 9.21312L67.4641 9.33867L67.5369 9.46577L67.6129 9.59287L67.6919 9.71997L67.7756 9.84707L67.8624 9.97417L67.9539 10.1013L68.0484 10.2284L68.1476 10.3555L68.2515 10.4826L68.36 10.6097L68.4716 10.7352L68.5878 10.8608L68.7087 10.9863L68.8343 11.1103L68.9645 11.2343L69.0389 11.3025L69.0187 11.3087L72.9418 14.9311L72.7015 14.9404L72.1017 14.9962L71.5142 15.0783L70.9392 15.1868L70.3781 15.3201L69.8294 15.4782L69.2946 15.6611L68.7738 15.8673L68.267 16.0951L67.7756 16.3462L67.6439 16.4222L67.6718 16.3478L67.7059 16.2501L67.7384 16.1525L67.7679 16.0548L67.7958 15.9556L67.8206 15.8564L67.8438 15.7572L67.864 15.6565L67.8888 15.517L67.9074 15.379L67.9213 15.2426L67.9306 15.1078L67.9337 15.0194V14.7575L67.9275 14.6722L67.9213 14.5885L67.912 14.5048L67.9012 14.4227L67.8888 14.3405L67.8748 14.2599L67.8578 14.1809L67.8392 14.1018L67.819 14.0243L67.7973 13.9484L67.7725 13.8724L67.7462 13.798L67.7183 13.7252L67.6888 13.6539L67.6578 13.5826L67.6253 13.5128L67.5912 13.4446L67.554 13.378L67.5152 13.3129L67.4749 13.2493L67.4331 13.1858L67.3897 13.1238L67.3447 13.0633L67.2982 13.0044L67.2502 12.9471L67.213 12.9052L67.2471 12.8944L60.1914 6.37971L60.1573 6.39056L60.1449 6.37661L60.0938 6.32236L60.0411 6.26965L59.9868 6.2185L59.931 6.1689L59.8737 6.12085L59.8148 6.07435L59.7543 6.0294L59.6923 5.986L59.6288 5.94415L59.5652 5.90385L59.5001 5.8651L59.4335 5.8279L59.3653 5.79225L59.2955 5.75815L59.2242 5.7256L59.1514 5.69615L59.0785 5.66825L59.0041 5.6419L58.9282 5.6171L58.8507 5.59385L58.7732 5.5737L58.6941 5.5551L58.6135 5.53805L58.5314 5.52255L58.4492 5.5086L58.3655 5.49775L58.2803 5.48845L58.195 5.4807L58.1082 5.47605L58.0199 5.47295H57.8416L57.7517 5.47605L57.6603 5.48225L57.5595 5.49L57.4588 5.50085L57.358 5.5148L57.2588 5.5303L57.1596 5.5489L57.0604 5.56905L56.9612 5.5923L56.8636 5.6171L56.7659 5.645L56.6683 5.67445L56.5706 5.707L56.4745 5.7411L56.3784 5.77675L56.2839 5.8155L56.1893 5.8558L56.0963 5.89765L56.0033 5.9426L55.9103 5.9891L55.8189 6.03715L55.729 6.08675L55.6391 6.13945L55.5507 6.1937L55.4624 6.2495L55.3756 6.30685L55.2888 6.36576L55.2035 6.42621L55.1198 6.48821L55.0377 6.55176L54.9555 6.61686L54.8749 6.68506L54.7959 6.75326L54.7184 6.82301L54.6409 6.89431L54.5649 6.96716L54.4905 7.04156L54.4177 7.11751L54.3464 7.19501L54.2766 7.27406L54.2084 7.35466L54.1418 7.43681L54.0767 7.51896L54.0131 7.60266L53.9511 7.68791L53.8907 7.77471L53.8318 7.86151L53.7744 7.94986L53.7186 8.03976L53.6644 8.12966L53.6132 8.22111L53.5636 8.31411L53.5156 8.40711L53.4691 8.50166L53.4241 8.59621L53.3823 8.69231L53.342 8.78841L53.3032 8.88607L53.2676 8.98372L53.2335 9.08292L53.2009 9.18212L53.1715 9.28287L53.1436 9.38362L53.1188 9.48437L53.0955 9.58667L53.0754 9.68897L53.0521 9.82382L53.0335 9.95712L53.0196 10.0889L53.0103 10.2191L53.0072 10.3059V10.5632L53.0134 10.6469L53.0196 10.7306L53.0289 10.8127L53.0397 10.8949L53.0521 10.9755L53.0676 11.0545L53.0847 11.1336L53.1033 11.2111L53.1234 11.287L53.1467 11.363L53.1715 11.4374L53.1978 11.5102L53.2257 11.5831L53.2552 11.6544L53.2877 11.7241L53.3218 11.7923L53.3575 11.8605L53.3947 11.9272L53.4334 11.9923L53.4737 12.0558L53.5156 12.1178L53.559 12.1783L53.6039 12.2387L53.6504 12.2976L53.6985 12.355L53.7481 12.4108L53.7992 12.465L53.8349 12.5007L53.793 12.5131L58.0757 16.4671L56.0684 16.6097L55.2624 16.6981L54.5277 16.8391L53.855 17.0282L53.235 17.2592L52.66 17.5258L52.1206 17.8234L51.6091 18.1458L51.1162 18.4868L50.6341 18.8418L50.1536 19.2045L49.6669 19.5687L49.3569 19.7904L46.6382 17.2809L40.2506 17.7351L40.3157 18.2063L40.3762 18.7116L40.4304 19.2479L40.4738 19.8136L40.5048 20.4057L40.5203 21.0242L40.5172 21.6674L40.4924 22.3324L40.4707 22.678L40.4444 23.0314L40.4196 23.2965L35.0736 18.3613H35.0705L35.0658 18.3566L34.8488 18.1908L34.607 18.0528L34.3389 17.9428L34.0475 17.8606L33.7313 17.8048L33.3918 17.7738L33.0291 17.7676L32.6447 17.7846L32.3208 17.8141L31.9891 17.856L31.6527 17.9087L31.3148 17.9707L30.9769 18.042L30.6406 18.121L30.3089 18.2063L29.9849 18.2977L29.6703 18.3938L29.3665 18.493L29.0766 18.5953L28.8038 18.6992L28.5496 18.803L28.3156 18.9053L28.1048 19.0061L27.9188 19.1037L27.3685 23.143L24.363 20.367L24.0112 19.9779L23.6051 19.6416L23.1447 19.3564L22.6301 19.1223L22.0597 18.9394L21.4335 18.8092L20.7515 18.7333L20.0137 18.71L19.2186 18.741L18.6187 18.7968L18.0313 18.879L17.4562 18.9875L16.8936 19.1208L16.3449 19.2789L15.8101 19.4618L15.2893 19.6679L14.7825 19.8958L14.2911 20.1469L13.8153 20.4197L13.3549 20.7126L12.91 21.0273L12.4822 21.3621L12.0715 21.7155L11.6778 22.0875L11.3011 22.4781L10.9431 22.8857L10.6036 23.3104L10.2828 23.7522L9.98054 24.2094L9.69689 24.6822L9.43338 25.1704L9.19003 25.6726L8.96838 26.1872L8.76688 26.7158L8.58708 27.2567L8.42898 27.8085L8.29258 28.3727L8.17943 28.9478L8.08798 29.5321L8.01978 30.1258L7.97638 30.7288L7.96398 31.5627L8.01668 32.3578L8.13448 33.1096L8.31738 33.8164L8.56693 34.4767L8.88313 35.0858L9.26598 35.6423L9.71549 36.1445L10.0038 36.3909H9.99914L16.6998 42.5785L16.7711 42.6576L16.9788 42.8343L17.0563 42.9056H17.061L17.2904 43.1009L17.8763 43.4838L18.2126 43.6481L4.82212 44.5982L3.81616 49.5024L8.42588 53.7587L10.8718 56.0171L126.696 47.7928L130.808 47.5014L131.814 42.5971L124.94 36.2483L124.76 36.0825L121.24 36.332L121.322 36.2902L121.813 36.0112L122.289 35.7105L122.413 35.6237L122.748 35.3896L123.191 35.0486L123.618 34.6875L124.025 34.3077L124.152 34.1775L124.416 33.9094L124.788 33.494L125.141 33.0615L125.475 32.612L125.718 32.2509L125.788 32.147L125.878 31.9998L126.082 31.6665L126.338 31.2046L126.357 31.1705L126.609 30.6621L126.687 30.4885L126.84 30.1397L126.904 29.977L127.049 29.605L127.175 29.2407L127.237 29.0578L127.302 28.8377L127.401 28.4983L127.514 28.0426L127.542 27.9279L127.66 27.3482L127.755 26.7592L127.814 26.2492L127.824 26.1609L127.869 25.5533L127.874 25.2944L127.883 24.7628L127.86 24.4016L127.835 24.0172L127.73 23.3166L127.587 22.7416L127.567 22.6594L128.158 22.4502L128.72 22.227L129.257 21.9914L129.767 21.7434L130.25 21.4861L130.709 21.2195L131.143 20.9467L131.552 20.6677L131.938 20.384L132.301 20.0973L132.642 19.8074L132.961 19.5176L133.259 19.2293L133.536 18.9425L133.793 18.6589L134.032 18.3799L134.251 18.1071L134.452 17.842L134.635 17.5862L134.801 17.3413L134.95 17.1073L135.083 16.8872L135.201 16.681L135.303 16.4919L135.392 16.3199L135.466 16.1664L135.528 16.0316L135.578 15.9184L135.615 15.8285L135.641 15.7619L135.661 15.7076L128.606 9.19297L128.62 9.18677ZM35.0829 25.2991L35.2627 25.4649L35.1759 25.5068L35.0302 25.5843L35.0534 25.4541L35.0813 25.2991H35.0829ZM109.017 27.0258L108.854 27.5791L108.733 28.0643L108.854 27.5791L109.017 27.0258L109.195 26.5096L109.017 27.0258ZM108.471 29.5724L108.432 29.9119L108.387 30.5226L108.376 30.9023L108.387 30.5226L108.432 29.9119L108.471 29.5724ZM75.0855 32.1253L75.0901 31.9564L75.0855 32.1253ZM75.1335 31.1426L75.1924 30.6652L75.2265 30.4637L75.1924 30.6652L75.1335 31.1426ZM69.4155 29.157L69.3148 29.4205L69.2249 29.6918L69.3148 29.4205L69.4155 29.157ZM69.0854 30.132L68.9753 30.5148L68.8389 31.0791L68.794 31.3085L68.8389 31.0791L68.9753 30.5148L69.0854 30.132ZM68.5227 33.4335L68.5661 32.8306L68.5971 32.5547L68.5661 32.8306L68.5227 33.4335L68.5165 34.0737L68.5227 33.4335ZM21.7497 34.2442L21.7854 34.0396L21.7497 34.2442ZM21.6056 35.9228L21.618 35.4175L21.6319 35.2424L21.618 35.4175L21.6056 35.9228L21.6149 36.1584L21.6056 35.9228ZM35.5014 34.7293L35.5324 34.5697L35.5014 34.7293L35.4425 34.782L35.5014 34.7293ZM35.6114 34.1465L35.6161 34.1248L35.6114 34.1465L35.6006 34.2023L35.6114 34.1465ZM35.723 33.5668L35.7773 33.2816L35.83 33.0026L35.8811 32.7298L35.9292 32.4663L35.9369 32.4214L35.9292 32.4663L35.8811 32.7298L35.83 33.0026L35.7773 33.2816L35.723 33.5668L35.7184 33.5885L35.723 33.5668ZM36.0888 31.5317L36.1136 31.3581L36.0888 31.5317L36.0547 31.744L36.0888 31.5317ZM41.9339 32.936L41.8797 33.2444L41.827 33.542L41.8177 33.5994L41.827 33.542L41.8797 33.2444L41.9339 32.936L41.9556 32.8151L41.9339 32.936ZM42.6345 28.9943L42.664 28.8222L42.6872 28.6858L42.664 28.8222L42.6345 28.9943ZM42.8794 27.3156V27.3327L42.8717 27.4319L42.8577 27.5605L42.8717 27.4319L42.8794 27.3327V27.3156ZM42.8128 27.8938L42.7973 27.9992L42.8128 27.8938L42.8252 27.8039L42.8128 27.8938ZM42.5152 29.6887L42.4609 30.0002L42.4485 30.0746L42.4609 30.0002L42.5152 29.6887L42.5198 29.667L42.5152 29.6887ZM42.3292 30.7334L42.2858 30.9721L42.2269 31.3038L42.1664 31.6371L42.1075 31.9688L42.0486 32.2974L42.03 32.3997L42.0486 32.2974L42.1075 31.9688L42.1664 31.6371L42.2269 31.3038L42.2858 30.9721L42.3292 30.7334ZM34.6907 35.4191L34.4117 35.6392L34.0692 35.8918L34.4117 35.6392L34.6907 35.4191ZM28.3915 42.8141L28.7372 42.6405L28.8751 42.5708L29.3432 42.3166L29.7974 42.0546L29.94 41.9678L30.236 41.7865L30.4468 41.6501L30.6576 41.5137L31.0637 41.2362L31.4543 40.9572L31.7535 40.734L31.8279 40.6782L32.1844 40.3992L32.5238 40.1233L32.8075 39.8831L32.8447 39.8505L33.1469 39.5855L33.4306 39.3266L33.6956 39.0771L33.7933 38.9825L33.9405 38.8384L34.0366 38.7423L34.1653 38.6136L34.3714 38.4013L34.39 38.3811L34.5574 38.2044L34.7217 38.0246L34.8643 37.8634L34.9852 37.7224L35.0658 37.6263L35.0844 37.603L35.0906 38.2308L35.148 38.8306L35.227 39.2429L35.2565 39.3995L35.4177 39.9373L35.5417 40.2303L35.63 40.4395L35.7478 40.6441L35.8966 40.9045L36.1105 41.1882L36.2175 41.3308L36.5941 41.7152L36.7817 41.8624L37.0266 42.0546L37.1816 42.1476L37.3924 42.2747L28.1342 42.9319L28.1637 42.918L28.3915 42.8126V42.8141ZM46.7358 41.602L46.8567 41.5385L46.9668 41.4734L47.3434 41.2517L47.8131 40.9433L48.2657 40.6131L48.6997 40.2628L49.1166 39.8908L49.3569 39.6552L49.5165 39.4987L49.7103 39.2894L49.8979 39.0879L50.2621 38.6586L50.6093 38.2106L50.9395 37.7441L51.2526 37.2605L51.3502 37.0946L51.5471 36.7614L51.7408 36.4002L51.8245 36.2452L51.9113 36.0685L52.0849 35.7136L52.102 35.6748L57.6882 40.8332L46.7079 41.6129L46.7327 41.6005L46.7358 41.602ZM65.6118 40.1962L65.8753 40.035L66.1388 39.8738L66.6333 39.5405L66.8239 39.401L67.0952 39.2026L67.3013 39.0399L67.5245 38.8632L67.9229 38.5284L68.0081 38.4524L68.2887 38.2044L68.4561 38.051L68.6235 37.8975L68.8048 37.7255L68.9242 37.6123L69.1939 37.355L69.4109 37.7596L69.4589 37.834L69.6573 38.1409L69.9332 38.4974L70.2401 38.8291L70.578 39.1344L70.9454 39.4134L71.2879 39.6304L71.3437 39.6645L71.6847 39.8412L65.4491 40.2845L65.6118 40.1962ZM81.9225 38.9918L82.3658 38.7671L82.7967 38.5346L83.2152 38.2943L83.4183 38.1719L83.6213 38.0494L84.0135 37.7983L84.3917 37.5441L84.6056 37.3938L84.7559 37.2884L84.99 37.1163L86.7818 38.7717L81.6156 39.1391L81.9225 38.9934V38.9918ZM94.4729 34.1279L97.9589 37.3473L98.1108 37.4697H98.1139L98.2146 37.5612L98.6347 37.8603L98.6951 37.9037L98.7277 37.9223L93.6948 38.2804L94.4729 34.1295V34.1279ZM106.439 37.3504L106.658 37.2155L106.876 37.0807L107.298 36.8001L107.62 36.5723L107.704 36.5134L108.091 36.222L108.46 35.9306L108.562 35.8469L108.809 35.6423L108.95 35.5198L109.134 35.3602L109.437 35.0889L109.686 35.4346L109.961 35.7585L110.109 35.9089L110.26 36.0592L110.584 36.3367L110.829 36.5149L110.932 36.5909L111.118 36.7056L111.304 36.8203L111.362 36.8497L111.658 37.0032L106.389 37.3767L106.436 37.3504H106.439ZM106.882 31.1473L104.069 28.5494L106.882 31.1473ZM42.8143 26.1547L42.7694 25.9702L42.8143 26.1547L42.8376 26.3112L42.8143 26.1547ZM42.4888 25.2836L42.3586 25.1038L42.4888 25.2836L42.5958 25.4866L42.4888 25.2836ZM42.1401 24.8666L42.2594 24.9891L42.1401 24.8666ZM34.3916 29.9754L34.4691 29.9584L34.3916 29.9754ZM16.1031 32.533L16.0364 32.688L15.8628 33.1437L16.0364 32.688L16.1031 32.533ZM15.6551 33.7575L15.7745 33.3963L15.6551 33.7575L15.497 34.3093L15.4412 34.5433L15.497 34.3093L15.6551 33.7575ZM126.324 12.5937L125.989 12.2852L126.324 12.5937ZM119.409 18.6434L120.031 18.586L120.832 18.5581L120.031 18.586L119.409 18.6434L119.228 18.6682L119.409 18.6434ZM117.052 19.1223L117.621 18.9658L117.83 18.9177L117.621 18.9658L117.052 19.1223L116.497 19.3021L116.323 19.3672L116.497 19.3021L117.052 19.1223ZM115.432 19.7284L115.62 19.6478L115.432 19.7284L114.922 19.9748L114.671 20.1112L114.922 19.9748L115.432 19.7284ZM57.1426 25.7687L56.7365 26.0725L56.4854 26.2523L56.7365 26.0725L57.1426 25.7687Z" fill="#D44126"/>
<path d="M82.3673 4.16947L82.3689 4.12917L82.3704 4.09352V4.06407L82.372 4.03927V4.01912V4.00517L82.3704 3.99432L82.3518 3.99587L82.3363 3.99742L82.3162 3.99897L82.2929 4.00052L82.265 4.00207L82.234 4.00362L82.1984 4.00672L82.1596 4.00982L82.1162 4.01292L82.0697 4.01602L82.0201 4.01912L81.9659 4.02377L81.9101 4.02687L81.8496 4.03152L81.7861 4.03617L81.721 4.04082L81.6512 4.04547L81.5799 4.05012L81.504 4.05632L81.4265 4.06097L81.3459 4.06717L81.2637 4.07337L81.1785 4.07957L81.0901 4.08577L81.0002 4.09197L80.9072 4.09817L80.8142 4.10437L80.7166 4.11212L80.6189 4.11832L80.5182 4.12607L80.4159 4.13382L80.312 4.14002L80.2066 4.14777L80.0997 4.15552L79.9912 4.16327L79.8811 4.17102L79.7695 4.17877L79.6564 4.18652L79.5432 4.19582L79.4285 4.20357L79.3123 4.21132L79.196 4.21907L79.0782 4.22837L78.9604 4.23612L78.8426 4.24542L78.7233 4.25317L78.6039 4.26247L78.483 4.27022L78.3637 4.27952L78.2428 4.28727L78.1219 4.29657L78.001 4.30432L77.8801 4.31362L77.7607 4.32137L77.6398 4.33068L77.5205 4.33843L77.4011 4.34772L77.2818 4.35548L77.1624 4.36478L77.0446 4.37253L76.9284 4.38028L76.8121 4.38958L76.7532 4.54148L76.6928 4.69028L76.6339 4.83443L76.575 4.97703L76.5161 5.11653L76.4572 5.25138L76.3967 5.38468L76.3378 5.51488L76.2789 5.64043L76.22 5.76443L76.1627 5.88533L76.1038 6.00313L76.0449 6.11938L75.986 6.23098L75.9271 6.34103L75.8697 6.44798L75.8108 6.55338L75.7535 6.65568L75.6946 6.75489L75.6372 6.85254L75.5799 6.94709L75.5225 7.03854L75.4652 7.12844L75.4078 7.21679L75.3505 7.30204L75.2931 7.38574L75.2358 7.46634L75.1784 7.54539L75.1226 7.62289L75.0653 7.69884L75.0095 7.77169L74.9537 7.84299L74.8963 7.91274L74.8405 7.98094L74.7847 8.04604L74.7289 8.11114L74.6746 8.17314L74.6189 8.23514L74.563 8.29404L74.5088 8.35294L74.4546 8.40874L74.4003 8.46454L74.346 8.51879L74.2918 8.57149L74.2376 8.62264L74.1833 8.67224L74.1306 8.72184L74.0763 8.76989L74.0236 8.81639L73.971 8.86134L73.9183 8.90629L73.8655 8.95124L73.8128 8.99309L73.7617 9.03649L73.709 9.07679L73.6578 9.11864L73.6067 9.15739L73.5555 9.19769L73.5044 9.23644L73.4548 9.2752L73.4036 9.3124L73.354 9.3496L73.3044 9.3868L73.2548 9.424L73.244 9.41625L73.2269 9.40385L73.2161 9.39455L73.2021 9.3837L73.1866 9.3713L73.1696 9.35735L73.151 9.34029L73.1308 9.32325L73.1091 9.3031L73.0859 9.27984L73.0611 9.2566L73.0347 9.23024L73.0068 9.20234L72.9774 9.17289L72.9479 9.14034L72.9169 9.10624L72.8844 9.06904L72.8518 9.03029L72.8177 8.98999L72.7821 8.94659L72.7464 8.90009L72.7108 8.85204L72.6736 8.80244L72.6364 8.74974L72.5976 8.69394L72.5589 8.63659L72.5201 8.57614L72.4814 8.51259L72.4411 8.44749L72.4023 8.37929L72.362 8.30799L72.3217 8.23514L72.2814 8.15764L72.2411 8.07859L72.2024 7.99644L72.1621 7.91274L72.1233 7.82439L72.0846 7.73449L72.0458 7.64149L72.0071 7.54384L71.9699 7.44464L71.9327 7.34234L71.8955 7.23694L71.8598 7.12844L71.8257 7.01684L71.7916 6.90214L71.7591 6.78278L71.7265 6.66188L71.6955 6.53788L71.6645 6.40923L71.6366 6.27748L71.6087 6.14263L71.5824 6.00468L71.5576 5.86363L71.5343 5.71793L71.5111 5.56913L71.4909 5.41723L71.4723 5.26068L71.4553 5.10103L71.4398 4.93828L71.4258 4.77088L71.3375 4.77708L71.2476 4.78483L71.1561 4.79103L71.0631 4.79723L70.9686 4.80343L70.874 4.81118L70.7764 4.81738L70.6803 4.82513L70.5826 4.83133L70.4834 4.83908L70.3842 4.84528L70.285 4.85303L70.1843 4.85923L70.0851 4.86698L69.9843 4.87318L69.8836 4.88093L69.7828 4.88868L69.6821 4.89488L69.5813 4.90263L69.4806 4.91038L69.3798 4.91658L69.2806 4.92433L69.1814 4.93053L69.0822 4.93828L68.9846 4.94448L68.8869 4.95223L68.7908 4.95843L68.6947 4.96618L68.6002 4.97238L68.5056 4.97858L68.4142 4.98478L68.3227 4.99253L68.2328 4.99873L68.1445 5.00493L68.0592 5.01113L67.974 5.01733L67.8903 5.02198L67.8097 5.02818L67.7291 5.03438L67.6516 5.03903L67.5772 5.04523L67.5043 5.04988L67.433 5.05453L67.3648 5.06073L67.2982 5.06538L67.2346 5.06848L67.1742 5.07313L67.1153 5.07778L67.061 5.08088L67.0083 5.08553L66.9587 5.08863L66.9122 5.09173L66.8688 5.09483L66.8301 5.09793L66.7929 5.10103L66.7603 5.10258L66.7309 5.10568L66.7045 5.10723L66.6828 5.10878L66.6642 5.11033H66.6503L66.6394 5.11188L66.6301 5.11963L66.6286 5.12893L66.6255 5.14288L66.6239 5.15993L66.6208 5.18163L66.6162 5.20488L66.6131 5.23278L66.61 5.26533L66.6053 5.29943L66.6022 5.33663L66.5976 5.37848L66.5945 5.42343L66.5898 5.46993L66.5867 5.52108L66.5836 5.57533L66.5805 5.63423L66.579 5.69778L66.5774 5.76443L66.5759 5.83418V5.90703V5.98143L66.5774 6.06048L66.5805 6.14108L66.5836 6.22478L66.5883 6.31158L66.5945 6.39993L66.6022 6.49138L66.61 6.58438L66.6208 6.68048L66.6332 6.77813L66.6472 6.87889L66.6611 6.97964L66.6797 7.08504L66.6983 7.19044L66.72 7.29739L66.7433 7.40744L66.7681 7.51904L66.796 7.63064L66.827 7.74534L66.8595 7.86159L66.8952 7.97784L66.9324 8.09564L66.9727 8.21499L67.0161 8.33589L67.0626 8.45679L67.1106 8.57924L67.1633 8.70169L67.2191 8.82569L67.2765 8.95124L67.3385 9.07679L67.4036 9.20234L67.4733 9.3279L67.5446 9.455L67.6206 9.5821L67.6996 9.7092L67.7833 9.8363L67.8701 9.9634L67.9616 10.092L68.0577 10.2191L68.1569 10.3462L68.2592 10.4734L68.3677 10.5989L68.4793 10.726L68.5971 10.8516L68.718 10.9756L68.8435 11.1011L68.9737 11.2251L69.1101 11.3476L69.2496 11.47L69.3953 11.5909L69.5457 11.7103L69.7007 11.8296L69.8619 11.9474L70.0277 12.0637L70.1998 12.1799L70.3765 12.2931L70.5578 12.4047L70.7469 12.5163L70.9407 12.6248L75.104 12.3287L75.4109 12.1877L75.7085 12.0451L75.9968 11.8994L76.2774 11.7537L76.5502 11.6064L76.8137 11.4561L77.0694 11.3057L77.3174 11.1554L77.5577 11.0035L77.7902 10.85L78.0149 10.695L78.2319 10.54L78.4427 10.385L78.6458 10.23L78.8411 10.0734L79.0302 9.9169L79.2115 9.76035L79.3867 9.6038L79.5556 9.44725L79.7168 9.29069L79.8734 9.13414L80.0222 8.97914L80.1663 8.82414L80.3027 8.66914L80.4345 8.51569L80.5616 8.36224L80.6809 8.20879L80.7956 8.05844L80.9057 7.90809L81.0111 7.75929L81.1103 7.61204L81.2048 7.46479L81.2932 7.32064L81.3784 7.17804L81.459 7.03544L81.535 6.89594L81.6063 6.75953L81.6729 6.62313L81.7365 6.48983L81.7969 6.35963L81.8512 6.23098L81.9039 6.10388L81.9519 5.98143L81.9969 5.86053L82.0387 5.74118L82.0775 5.62648L82.1116 5.51488L82.1441 5.40483L82.1736 5.29943L82.2015 5.19713L82.2247 5.09793L82.248 5.00183L82.2666 4.91038L82.2852 4.82203L82.3007 4.73833L82.3131 4.65773L82.3255 4.58023L82.3348 4.50893L82.3441 4.44073L82.3503 4.37718L82.3565 4.31828L82.3611 4.26402L82.3642 4.21442L82.3673 4.16947Z" fill="#8CD5F5"/>
<path d="M123.763 40.9775L124.769 36.0718L4.83294 44.5891L3.82544 49.4933L123.763 40.9775Z" fill="#8CD5F5"/>
<path d="M60.8889 8.58234L60.892 8.49399L60.8936 8.40564V8.31884L60.8905 8.23204L60.8858 8.14679L60.8796 8.06309L60.8703 7.97939L60.8595 7.89724L60.8471 7.81509L60.8331 7.73449L60.8161 7.65544L60.7975 7.57639L60.7773 7.49889L60.7556 7.42294L60.7308 7.34854L60.706 7.27414L60.6781 7.20129L60.6487 7.12999L60.6177 7.05869L60.5836 6.98894L60.5495 6.92074L60.5123 6.85409L60.4751 6.78899L60.4348 6.72544L60.3929 6.66189L60.3495 6.59989L60.3061 6.54099L60.2596 6.48209L60.2116 6.42474L60.162 6.36894L60.1108 6.31314L60.0581 6.26044L60.0039 6.20929L59.9481 6.15969L59.8907 6.11164L59.8318 6.06358L59.7714 6.01863L59.7109 5.97523L59.6474 5.93338L59.5838 5.89308L59.5187 5.85433L59.4505 5.81713L59.3823 5.78148L59.3126 5.74738L59.2428 5.71638L59.17 5.68538L59.0971 5.65748L59.0227 5.63113L58.9468 5.60633L58.8693 5.58308L58.7918 5.56293L58.7127 5.54278L58.6321 5.52573L58.55 5.51178L58.4678 5.49783L58.3841 5.48698L58.2989 5.47768L58.2136 5.46993L58.1268 5.46528L58.04 5.46218L57.9501 5.46063L57.8602 5.46218L57.7703 5.46528L57.6789 5.47148L57.5781 5.47923L57.4774 5.49008L57.3782 5.50403L57.2774 5.51953L57.1782 5.53813L57.079 5.55828L56.9798 5.58153L56.8822 5.60633L56.7845 5.63423L56.6869 5.66368L56.5892 5.69468L56.4931 5.72878L56.3986 5.76443L56.3025 5.80318L56.2079 5.84348L56.1149 5.88533L56.0219 5.93028L55.9289 5.97678L55.8375 6.02483L55.7476 6.07443L55.6577 6.12713L55.5678 6.17984L55.481 6.23564L55.3926 6.29299L55.3074 6.35189L55.2221 6.41389L55.1384 6.47589L55.0563 6.54099L54.9741 6.60609L54.8935 6.67429L54.8145 6.74249L54.7354 6.81379L54.6595 6.88509L54.5835 6.95794L54.5091 7.03389L54.4363 7.10984L54.365 7.18734L54.2952 7.26639L54.227 7.34699L54.1604 7.42759L54.0937 7.51129L54.0302 7.59499L53.9682 7.68024L53.9077 7.76549L53.8488 7.85384L53.7915 7.94219L53.7357 8.03209L53.6814 8.12199L53.6303 8.21344L53.5807 8.30644L53.5311 8.39944L53.4861 8.49399L53.4412 8.58854L53.3993 8.68464L53.359 8.78075L53.3203 8.8784L53.2846 8.97605L53.2505 9.07525L53.218 9.17445L53.1885 9.2752L53.1606 9.37595L53.1358 9.4767L53.1126 9.579L53.0924 9.6813L53.0692 9.8146L53.049 9.9479L53.0366 10.0797L53.0273 10.2083L53.0227 10.2967L53.0211 10.3835L53.0227 10.4687L53.0258 10.554L53.0304 10.6377L53.0366 10.7214L53.0459 10.8035L53.0568 10.8857L53.0707 10.9663L53.0847 11.0453L53.1017 11.1244L53.1203 11.2019L53.142 11.2794L53.1637 11.3538L53.1885 11.4282L53.2149 11.5026L53.2428 11.5739L53.2738 11.6452L53.3048 11.7149L53.3389 11.7847L53.3745 11.8513L53.4117 11.918L53.4505 11.9831L53.4908 12.0466L53.5326 12.1102L53.576 12.1706L53.621 12.2311L53.669 12.2884L53.7171 12.3458L53.7667 12.4016L53.8178 12.4558L53.8721 12.5085L53.9263 12.5597L53.9821 12.6093L54.0395 12.6573L54.0984 12.7054L54.1588 12.7503L54.2208 12.7937L54.2828 12.8356L54.3479 12.8759L54.413 12.9146L54.4797 12.9518L54.5494 12.9875L54.6176 13.02L54.6889 13.0526L54.7602 13.082L54.8331 13.1115L54.9075 13.1378L54.9834 13.1626L55.0594 13.1859L55.1369 13.206L55.2159 13.2246L55.2965 13.2432L55.3771 13.2572L55.4593 13.2711L55.5414 13.282L55.6251 13.2913L55.7104 13.299L55.7956 13.3037L55.8824 13.3068L55.9692 13.3083L56.0576 13.3068L56.1475 13.3037L56.2374 13.299L56.335 13.2913L56.4342 13.2804L56.5319 13.2665L56.6311 13.251L56.7287 13.2324L56.8264 13.2122L56.924 13.1905L57.0217 13.1642L57.1178 13.1378L57.2139 13.1084L57.31 13.0758L57.4061 13.0433L57.5006 13.0061L57.5952 12.9689L57.6897 12.9286L57.7827 12.8867L57.8757 12.8418L57.9672 12.7953L58.0586 12.7488L58.1501 12.6976L58.2384 12.6465L58.3283 12.5922L58.4167 12.538L58.5035 12.4806L58.5887 12.4217L58.674 12.3613L58.7592 12.2977L58.8414 12.2342L58.9235 12.1691L59.0057 12.1024L59.0847 12.0342L59.1638 11.9629L59.2413 11.8916L59.3172 11.8188L59.3916 11.7444L59.4645 11.6684L59.5373 11.5925L59.6071 11.5134L59.6768 11.4344L59.7435 11.3538L59.8101 11.2716L59.8752 11.1879L59.9372 11.1042L59.9992 11.019L60.0581 10.9322L60.117 10.8454L60.1728 10.7555L60.2271 10.6671L60.2798 10.5772L60.3294 10.4858L60.379 10.3928L60.4255 10.2998L60.4704 10.2068L60.5123 10.1122L60.5541 10.0161L60.5913 9.92L60.6285 9.8239L60.6626 9.72625L60.6952 9.6286L60.7246 9.53095L60.7525 9.43175L60.7773 9.33255L60.8006 9.23335L60.8208 9.1326L60.8455 8.9931L60.8642 8.8536L60.8796 8.7172L60.8889 8.58234Z" fill="#8CD5F5"/>
<path d="M128.482 9.1961L128.319 9.2085L128.099 9.224L127.828 9.2426L127.513 9.26585L127.156 9.29065L126.767 9.31855L126.347 9.348L125.906 9.379L125.445 9.41155L124.971 9.44565L124.49 9.47975L124.008 9.51385L123.531 9.54796L123.061 9.58206L122.826 10.075L122.587 10.5338L122.345 10.9569L122.1 11.3475L121.854 11.7056L121.607 12.0342L121.361 12.3333L121.114 12.6046L120.87 12.851L120.628 13.0711L120.391 13.2664L120.157 13.44L119.927 13.5935L119.704 13.7268L119.488 13.8415L119.279 13.9391L118.743 13.4447L118.131 13.0246L117.446 12.6759L116.689 12.4015L115.863 12.2031L114.967 12.0807L114.005 12.0357L112.977 12.0714L112.354 12.1287L111.745 12.2124L111.148 12.3194L110.565 12.4527L109.996 12.6077L109.443 12.7875L108.902 12.9905L108.378 13.2153L107.868 13.4617L107.375 13.7299L106.898 14.0182L106.437 14.3282L105.994 14.6568L105.568 15.0055L105.16 15.3729L104.771 15.7588L104.399 16.1618L104.047 16.5819L103.716 17.0205L103.403 17.4731L103.11 17.9428L102.837 18.4279L102.586 18.9286L102.356 19.4416L102.149 19.9702L101.963 20.5112L101.798 21.0645L101.659 21.6303L101.541 22.2084L101.448 22.7974L101.378 23.3973L101.333 24.0064L101.318 24.566L101.332 25.1054L101.374 25.6231L101.443 26.1222L101.336 26.209L101.206 26.3066L101.053 26.4151L100.878 26.5329L100.678 26.6554L100.458 26.7809L100.213 26.908L99.9476 27.0351L99.6577 27.1591L99.3477 27.2785L99.0145 27.3885L98.6595 27.4908L98.2813 27.5807L97.8814 27.6582L97.4598 27.7187L97.0165 27.7605L96.4709 27.7745L95.9811 27.7373L95.5409 27.652L95.1487 27.5265L94.8015 27.3606L94.4962 27.1622L94.2296 26.9344L93.9986 26.6817L93.7987 26.4074L93.6282 26.1175L93.484 25.8153L93.3616 25.5037L93.2608 25.1906L93.1756 24.876L93.1043 24.5675L93.0423 24.2684L93.7568 23.977L94.4419 23.6623L95.096 23.3244L95.716 22.9648L96.3019 22.582L96.8491 22.1759L97.3575 21.7481L97.8256 21.2955L98.2487 20.8181L98.627 20.3189L98.9587 19.795L99.2408 19.2463L99.4717 18.6728L99.6484 18.0745L99.7693 17.4514L99.8344 16.8035L99.8391 16.3959L99.8112 16.0068L99.7492 15.6364L99.6531 15.2861L99.5213 14.9575L99.3555 14.6537L99.1524 14.3747L98.9137 14.122L98.6394 13.8988L98.3262 13.7035L97.9759 13.5423L97.5884 13.4137L97.1622 13.3191L96.6987 13.2618L96.1934 13.2416L95.6494 13.2618L95.1983 13.3067L94.7535 13.3749L94.3195 13.4664L93.8963 13.5811L93.4809 13.7159L93.0748 13.8709L92.6796 14.043L92.2936 14.2352L91.9185 14.4413L91.5527 14.6645L91.1978 14.9017L90.8537 15.1528L90.5189 15.4147L90.1949 15.6891L89.8834 15.9727L89.5811 16.2657L92.0084 3.31073L85.7092 3.75713L81.8125 24.428L81.487 24.7148L81.1088 25.0263L80.6794 25.3611L80.2036 25.7114L79.6843 26.0726L79.1217 26.4368L78.5187 26.8011L77.8801 27.1576L77.2043 27.5001L76.4991 27.8241L75.7613 28.1248L74.9986 28.3929L74.2097 28.627L73.399 28.8176L72.5682 28.9602L71.7204 29.0501L71.243 29.0672L70.7981 29.0486L70.3889 28.9943L70.0123 28.9044L69.6682 28.7789L69.3582 28.6192L69.0807 28.4239L68.8374 28.193L68.625 27.9279L68.4468 27.6272L68.2995 27.2924L68.1848 26.9235L68.1027 26.5205L68.0515 26.0819L68.0314 25.6107L68.0438 25.1038L68.081 24.6264L68.1383 24.149L68.2205 23.6763L68.3243 23.2128L68.4514 22.7602L68.6018 22.3247L68.7754 21.9077L68.9738 21.5156L69.1954 21.1529L69.4419 20.8196L69.7116 20.5236L70.0076 20.2678L70.33 20.0539L70.6757 19.8896L71.0477 19.7749L71.446 19.7175L71.7343 19.7144L71.9916 19.7485L72.2179 19.8167L72.4163 19.9159L72.5884 20.0415L72.7356 20.1918L72.8581 20.3639L72.9604 20.5546L73.0425 20.7591L73.1077 20.9777L73.1557 21.204L73.1882 21.4365L73.2084 21.6737L73.2177 21.9093V22.1418L73.2084 22.3696L78.8473 20.6212L78.8613 19.8989L78.8241 19.2215L78.7357 18.5922L78.5947 18.011L78.4025 17.4762L78.156 16.9911L77.8569 16.554L77.505 16.168L77.0989 15.8317L76.637 15.5465L76.1224 15.3109L75.552 15.1295L74.9258 14.9993L74.2454 14.9234L73.5075 14.9001L72.7124 14.9311L72.1125 14.9869L71.5251 15.0706L70.95 15.1776L70.3889 15.3124L69.8402 15.4705L69.3055 15.6519L68.7847 15.858L68.2778 16.0859L67.788 16.337L67.3106 16.6098L66.8503 16.9043L66.407 17.2174L65.9792 17.5522L65.5684 17.9056L65.1732 18.2776L64.7981 18.6682L64.4385 19.0758L64.099 19.5005L63.7782 19.9423L63.4744 20.4011L63.1923 20.8738L62.9288 21.3606L62.6854 21.8628L62.4638 22.3774L62.2623 22.9059L62.0825 23.4469L61.9244 23.9987L61.788 24.5629L61.6733 25.1379L61.5834 25.7223L61.5152 26.3159L61.4702 26.9189L61.4625 27.8659L61.5384 28.7587L61.4996 28.6967L61.278 28.8626L61.0424 29.0331L60.7975 29.2082L60.5417 29.3849L60.2798 29.5601L60.0132 29.7321L59.7419 29.8995L59.4707 30.0607L59.1994 30.2111L58.9297 30.3521L58.6647 30.4777L58.4058 30.5893L58.1547 30.6823L57.9129 30.7551L57.6851 30.8063L57.4681 30.8342L57.2387 30.8326L57.0325 30.7939L56.8543 30.7133L56.7039 30.5893L56.5877 30.4157L56.5055 30.1925L56.4621 29.9135L56.459 29.5771L56.4978 29.2051L56.5768 28.7773L58.9344 16.399L56.087 16.602L55.2826 16.6904L54.5463 16.8314L53.8736 17.0205L53.2536 17.2499L52.677 17.5165L52.1376 17.8141L51.6261 18.1365L51.1332 18.4775L50.6496 18.8325L50.1691 19.1936L49.6824 19.5579L49.1802 19.919L48.6532 20.2709L48.0952 20.6088L47.4953 20.925L46.8474 21.2149L46.866 20.6801L46.8738 20.15L46.8691 19.6292L46.8536 19.1208L46.8242 18.6263L46.7823 18.152L46.725 17.6994L46.6537 17.2716L40.2677 17.7242L40.3328 18.197L40.3948 18.7007L40.4475 19.237L40.4909 19.8012L40.5219 20.3949L40.5374 21.0134L40.5343 21.6566L40.5095 22.3216L40.4893 22.6688L40.4614 23.0222L40.4289 23.3833L40.3886 23.7491L40.3436 24.1196L40.2909 24.4931L40.232 24.8682L40.1654 25.2433L40.0925 25.6184L40.0119 25.992L39.9236 26.3624L39.829 26.7282L39.7267 27.0894L39.6151 27.4443L39.4973 27.7915L39.3702 28.1294L39.2354 28.4565L39.0912 28.7727L38.9393 29.078L38.7781 29.3679L38.6092 29.6438L38.4294 29.9026L38.2418 30.146L38.045 30.3707L37.8373 30.5753L37.6218 30.7582L37.3955 30.921L37.1584 31.0589L36.9119 31.1736L36.6562 31.2635L36.3896 31.3255L36.1106 31.3596L35.6921 31.3503L35.3325 31.2604L35.0348 31.0946L34.7977 30.8543L34.6194 30.5443L34.5016 30.1692L34.4427 29.7306L34.4412 29.233L34.4675 28.9184L34.4815 28.8006L34.5016 28.6549L34.528 28.4828L34.559 28.2891L34.5931 28.0721L34.6334 27.8365L34.6768 27.5823L34.7248 27.311L34.7745 27.0258L34.8271 26.7298L34.8814 26.4213L34.9387 26.1051L34.9961 25.7812L35.055 25.4541L35.1154 25.1224L35.1743 24.7892L35.2348 24.4575L35.2937 24.1289L35.3511 23.8034L35.4084 23.4841L35.4627 23.1725L35.5154 22.8718L35.565 22.5835L35.6115 22.3076L35.6549 22.0472L35.6952 21.8039L35.7293 21.5807L35.7603 21.3792L35.7851 21.1994L35.8052 21.0444L35.8192 20.9173L35.8269 20.8165L35.8362 20.3902L35.8145 19.9981L35.7634 19.64L35.6828 19.3176L35.5743 19.0278L35.4379 18.7705L35.2751 18.5442L35.0845 18.3473L34.8674 18.1815L34.6256 18.0451L34.3575 17.935L34.0661 17.8529L33.7499 17.7955L33.4089 17.7645L33.0462 17.7583L32.6618 17.7754L32.3378 17.8033L32.0061 17.8451L31.6713 17.8978L31.3319 17.9598L30.994 18.0296L30.6592 18.1086L30.3275 18.1939L30.0035 18.2853L29.6889 18.3814L29.3851 18.4806L29.0952 18.5814L28.8224 18.6852L28.5667 18.7891L28.3326 18.8914L28.1218 18.9921L27.9374 19.0898L27.3406 23.4624L27.5452 23.4174L27.7808 23.374L28.0304 23.3384L28.2799 23.3136L28.5031 23.312L28.6907 23.3415L28.841 23.4066L28.9573 23.5104L29.041 23.6546L29.0937 23.8406L29.1185 24.0746L29.1154 24.3567L29.1045 24.49L29.089 24.6466L29.0658 24.8217L29.0379 25.017L29.0038 25.2294L28.965 25.4572L28.9232 25.6975L28.8782 25.9517L28.8302 26.2152L28.779 26.488L28.7263 26.767L28.6721 27.0522L28.6163 27.342L28.5605 27.6334L28.5047 27.9248L28.4504 28.2147L28.1435 28.489L27.7793 28.7944L27.3608 29.123L26.8927 29.4702L26.375 29.8298L25.8108 30.1956L25.2047 30.5598L24.5568 30.9194L23.8717 31.2666L23.1525 31.5968L22.3992 31.9006L21.6164 32.1749L20.8073 32.4136L19.9734 32.6089L19.1178 32.7547L18.2436 32.8476L17.7647 32.8647L17.3198 32.8461L16.9106 32.7918L16.534 32.7019L16.1899 32.5764L15.8799 32.4167L15.6024 32.2214L15.3591 31.9905L15.1467 31.7254L14.9685 31.4247L14.8212 31.0899L14.7065 30.721L14.6244 30.3165L14.5732 29.8794L14.5531 29.4082L14.5655 28.9013L14.6027 28.4239L14.66 27.9465L14.7422 27.4738L14.846 27.0103L14.9731 26.5577L15.1235 26.1222L15.2971 25.7052L15.4955 25.3131L15.7171 24.9488L15.9636 24.6171L16.2348 24.3211L16.5293 24.0653L16.8517 23.8514L17.1974 23.6871L17.5694 23.5724L17.9677 23.5151L18.256 23.512L18.5133 23.5461L18.7396 23.6143L18.938 23.7135L19.1101 23.839L19.2573 23.9894L19.3798 24.1614L19.4821 24.3521L19.5642 24.5567L19.6293 24.7752L19.6774 25.0015L19.7099 25.234L19.7301 25.4712L19.7394 25.7068V25.9393L19.7301 26.1671L25.369 24.4187L25.383 23.6964L25.3458 23.0191L25.2574 22.3898L25.1164 21.8085L24.9242 21.2738L24.6777 20.7886L24.3786 20.3515L24.0267 19.9655L23.6206 19.6292L23.1587 19.3424L22.6441 19.1084L22.0737 18.927L21.4475 18.7968L20.767 18.7209L20.0292 18.6976L19.2341 18.7286L18.6342 18.7844L18.0468 18.8666L17.4717 18.9751L16.9106 19.1099L16.3619 19.268L15.8272 19.4494L15.3064 19.6555L14.7995 19.8834L14.3097 20.1345L13.8323 20.4073L13.3735 20.7003L12.9287 21.0149L12.5009 21.3497L12.0901 21.7031L11.6964 22.0751L11.3198 22.4657L10.9602 22.8734L10.6207 23.2981L10.2999 23.7398L9.99605 24.1986L9.71395 24.6714L9.45045 25.1581L9.2071 25.6603L8.98545 26.1749L8.78395 26.7034L8.60414 27.2444L8.44604 27.7962L8.30964 28.3604L8.19494 28.9354L8.10504 29.5198L8.03684 30.1134L7.99189 30.7164L7.97949 31.5503L8.03219 32.3454L8.14999 33.0972L8.33289 33.804L8.58089 34.4643L8.8971 35.0735L9.27995 35.6299L9.72945 36.1321L10.2472 36.5754L10.8315 36.9583L11.4856 37.2791L12.2079 37.5333L13 37.7193L13.8602 37.834L14.7918 37.8743L15.7915 37.8402L16.4007 37.7829L16.9974 37.7007L17.5833 37.5938L18.1568 37.4636L18.7195 37.3132L19.2697 37.1427L19.8076 36.9552L20.3315 36.7506L20.843 36.532L21.339 36.2995L21.8226 36.0546L22.2907 35.802L22.7449 35.54L23.1835 35.2703L23.6051 34.9975L24.0128 34.7201L24.4018 34.4395L24.7754 34.1605L25.1319 33.8815L25.4713 33.6056L25.7922 33.3328L26.0944 33.0677L26.3781 32.8104L26.6431 32.5609L26.888 32.3222L27.1143 32.0959L27.3205 31.8851L27.5049 31.6882L27.6692 31.5084L27.8118 31.3472L27.9343 31.2062L28.0335 31.0884L28.0397 31.7161L28.097 32.3144L28.2055 32.8848L28.3652 33.4212L28.5791 33.9234L28.8457 34.3899L29.1665 34.8162L29.5432 35.2006L29.9756 35.5416L30.4639 35.8361L31.0095 36.0825L31.614 36.2763L32.2758 36.4189L32.9981 36.5057L33.7809 36.5351L34.6241 36.5026L35.2705 36.4421L35.8998 36.3553L36.5105 36.2406L37.1041 36.0996L37.6792 35.9337L38.2372 35.7431L38.7781 35.5261L39.3005 35.2874L39.8058 35.0239L40.2925 34.7387L40.7621 34.4302L41.2147 34.1001L41.6503 33.7482L42.0672 33.3778L42.4671 32.9856L42.8484 32.5748L43.2127 32.1455L43.5614 31.6975L43.89 31.231L44.2031 30.7474L44.4976 30.2483L44.7751 29.7321L45.0355 29.2005L45.2788 28.6549L45.5051 28.0938L45.7128 27.5203L45.905 26.9313L46.0786 26.3314L46.2352 25.7192L46.3747 25.0945L46.4971 24.459L46.6025 23.8142L47.2783 23.6639L47.9557 23.4856L48.6269 23.2795L49.2872 23.0423L49.9258 22.7742L50.5365 22.4766L51.1115 22.1449L51.6432 21.7822L50.1164 30.0127L49.9847 30.8233L49.918 31.5503L49.9087 32.099L49.9413 32.5934L50.0141 33.0368L50.1242 33.432L50.273 33.7792L50.459 34.0815L50.6775 34.3403L50.9302 34.5604L51.2138 34.7418L51.5285 34.8875L51.8726 34.9991L52.243 35.0781L52.6398 35.1293L53.0614 35.1541L53.5063 35.1525L53.9744 35.1293L54.7246 35.0471L55.4438 34.9138L56.132 34.7356L56.7876 34.5186L57.4107 34.2659L58.0013 33.9854L58.5608 33.6816L59.0878 33.3592L59.5823 33.0275L60.0442 32.688L60.4751 32.3485L60.8735 32.0137L61.2393 31.6898L61.5725 31.3829L61.8748 31.0977L62.1429 30.8404L62.3599 31.2449L62.6064 31.6262L62.8823 31.9827L63.1892 32.3129L63.5271 32.6198L63.8944 32.8973L64.2928 33.1499L64.7221 33.3716L65.1809 33.5669L65.6723 33.7296L66.1931 33.8629L66.7464 33.9652L67.3292 34.035L67.9446 34.0722L68.5925 34.0753L69.2698 34.0427L69.8294 33.9916L70.3796 33.9187L70.9206 33.8242L71.4507 33.711L71.9715 33.5793L72.483 33.4305L72.9821 33.2661L73.4719 33.0879L73.9493 32.8957L74.4159 32.6911L74.8716 32.4756L75.3133 32.2509L75.7442 32.0184L76.1627 31.7781L76.5673 31.5317L76.9594 31.2821L77.3376 31.0279L77.7034 30.7722L78.0537 30.5149L78.3901 30.2576L78.7125 30.0018L79.0194 29.7492L79.3108 29.5012L79.5867 29.2578L79.8471 29.0207L80.092 28.7913L80.3198 28.5712L80.5322 28.3604L80.7259 28.162L80.9042 27.9744L81.0638 27.8024L81.2064 27.6443L80.247 32.7329L86.5446 32.285L87.7878 25.6634L88.4822 25.5316L88.662 26.3469L88.865 27.1126L89.096 27.8318L89.3548 28.4983L89.6462 29.1152L89.9686 29.6794L90.3282 30.1909L90.725 30.6466L91.1637 31.045L91.6426 31.3875L92.1681 31.6727L92.7385 31.8975L93.36 32.0618L94.0312 32.1641L94.7581 32.2028L95.5393 32.178L96.04 32.1207L96.5391 32.0261L97.0335 31.8959L97.5218 31.7332L98.0023 31.5425L98.4751 31.3271L98.937 31.0899L99.3865 30.8357L99.8236 30.566L100.247 30.2855L100.653 29.9987L101.04 29.7073L101.409 29.4159L101.758 29.1276L102.083 28.8455L102.386 28.5727L102.635 28.9199L102.911 29.2423L103.21 29.543L103.534 29.8205L103.881 30.0747L104.253 30.3041L104.649 30.5087L105.067 30.69L105.507 30.845L105.972 30.9768L106.458 31.0806L106.966 31.1597L107.495 31.2124L108.046 31.2372L108.617 31.2356L109.209 31.2062L109.824 31.1488L110.427 31.0636L111.018 30.9535L111.596 30.8156L112.16 30.6544L112.712 30.4668L113.248 30.256L113.771 30.022L114.277 29.7662L114.769 29.4872L115.245 29.1865L115.705 28.8657L116.147 28.5247L116.573 28.1635L116.982 27.7838L117.371 27.3854L117.743 26.97L118.097 26.5376L118.43 26.0881L118.744 25.6231L119.039 25.1426L119.312 24.6466L119.564 24.1382L119.797 23.6158L120.006 23.0795L120.192 22.5324L120.358 21.9744L120.499 21.404L120.617 20.8243L120.711 20.2352L120.781 19.6354L120.826 19.0293L120.839 18.2388L120.792 17.4933L120.687 16.7911L120.524 16.1355L121.114 15.9278L121.677 15.7046L122.213 15.469L122.722 15.221L123.205 14.9637L123.664 14.6986L124.098 14.4243L124.507 14.1453L124.895 13.8601L125.258 13.5733L125.599 13.2835L125.918 12.9936L126.216 12.7053L126.493 12.4186L126.75 12.1349L126.989 11.8575L127.208 11.5847L127.409 11.3196L127.592 11.0654L127.758 10.819L127.907 10.5865L128.04 10.3664L128.158 10.1602L128.262 9.97111L128.35 9.79751L128.424 9.64406L128.486 9.51076L128.536 9.3976L128.573 9.3077L128.599 9.24105L128.62 9.1868L128.482 9.1961Z" fill="#8CD5F5"/>
<path d="M114.214 19.8509L114.201 20.2756L114.158 20.8134L114.087 21.3513L113.986 21.8829L113.859 22.4053L113.705 22.9122L113.526 23.402L113.321 23.867L113.092 24.3056L112.841 24.7117L112.565 25.0822L112.269 25.4108L111.951 25.696L111.611 25.9316L111.253 26.1129L110.877 26.2369L110.481 26.2974L110.123 26.3082L109.795 26.285L109.494 26.2307L109.223 26.1455L108.978 26.0292L108.761 25.882L108.57 25.7037L108.404 25.496L108.263 25.2589L108.146 24.9923L108.053 24.6962L107.983 24.3738L107.933 24.022L107.907 23.6422L107.901 23.2377L107.915 22.8052L107.955 22.2875L108.025 21.7729L108.121 21.2614L108.246 20.7592L108.398 20.2694L108.58 19.7966L108.789 19.3471L109.026 18.9224L109.291 18.5272L109.585 18.1676L109.908 17.8452L110.258 17.5662L110.638 17.3352L111.046 17.1539L111.483 17.0299L111.948 16.9632L112.23 16.957L112.493 16.9787L112.74 17.0283L112.969 17.1058L113.18 17.2128L113.372 17.3476L113.546 17.5104L113.701 17.7026L113.836 17.9227L113.95 18.1722L114.045 18.4497L114.119 18.7566L114.172 19.0929L114.203 19.4572L114.214 19.8509Z" fill="#D44126"/>
<path d="M93.5134 18.9146L93.5165 19.1301L93.4747 19.4308L93.3832 19.7191L93.2453 19.995L93.0608 20.2585L92.8376 20.508L92.5741 20.7436L92.2734 20.9668L91.9417 21.1761L91.5775 21.3729L91.1869 21.5543L90.7699 21.7232L90.3313 21.8782L89.874 22.0177L89.3982 22.1433L88.9084 22.2549L88.4077 22.351L88.5674 21.6457L88.7115 21.3218L88.8681 20.9994L89.0386 20.6816L89.2199 20.3701L89.4137 20.0678L89.6183 19.7764L89.8368 19.499L90.0662 19.237L90.3065 18.9952L90.5607 18.7736L90.8242 18.5767L91.1016 18.4047L91.3884 18.2621L91.6875 18.1505L91.9991 18.073L92.3199 18.0311L92.6423 18.0358L92.9058 18.0931L93.1182 18.1985L93.2809 18.3396L93.3987 18.5132L93.4747 18.7069L93.5134 18.9146Z" fill="#D44126"/>
<path d="M44.7503 69.7345L44.1287 67.783H37.087L35.9834 69.7345H31.3458L42.3199 51.0677H43.3103L49.391 69.7345H44.7534H44.7503ZM39.1222 64.1917H42.9678L41.5821 59.864L39.1222 64.1917Z" fill="#D6AA77"/>
<path d="M64.7733 61.7581C64.7733 66.4252 62.115 70.1018 57.6184 70.1018C56.6574 70.1018 55.8933 69.9034 55.2423 69.5934L54.3371 75.9562H49.4731L52.1035 57.3189H55.8654L56.5443 58.7619C57.7316 57.5746 59.1467 56.9515 60.6456 56.9515C63.417 56.9515 64.7748 59.0161 64.7748 61.7597L64.7733 61.7581ZM59.7109 62.8617C59.7109 61.5318 59.2862 60.825 58.4105 60.825C57.4495 60.825 56.7706 61.3629 56.2885 62.1549L55.7228 66.171C56.118 66.3694 56.628 66.5104 57.1658 66.5104C58.9189 66.5104 59.7109 64.8984 59.7109 62.8617Z" fill="#D6AA77"/>
<path d="M65.1127 64.7001C65.1127 60.0904 68.2236 56.9501 72.9759 56.9501C76.6804 56.9501 78.8861 58.8736 78.8861 62.1829C78.8861 66.7647 75.7473 70.1019 71.0524 70.1019C67.3199 70.1019 65.1127 68.0373 65.1127 64.7001ZM73.7959 62.7765C73.7959 61.3335 73.258 60.6267 72.3823 60.6267C70.8261 60.6267 70.1766 62.4371 70.1766 64.1343C70.1766 65.6053 70.5719 66.4253 71.846 66.4253C73.1201 66.4253 73.7974 64.5017 73.7974 62.7765H73.7959Z" fill="#D6AA77"/>
<path d="M79.8192 65.6611L82.0543 49.9363H86.9182L84.7405 65.2658C84.5994 66.1989 84.7978 66.5957 85.2489 66.6794C85.4752 66.7352 85.7867 66.7352 86.182 66.6515L85.9557 69.4509C85.3899 69.733 84.4847 70.1019 82.7875 70.1019C80.6376 70.1019 79.2798 69.3377 79.8176 65.6611H79.8192Z" fill="#D6AA77"/>
<path d="M87.3693 65.6611L89.6028 49.9363H94.4667L92.289 65.2658C92.1479 66.1989 92.3448 66.5957 92.7974 66.6794C93.0237 66.7352 93.3352 66.7352 93.7305 66.6515L93.5042 69.4509C92.9384 69.733 92.0332 70.1019 90.336 70.1019C88.1861 70.1019 86.8299 69.3377 87.3662 65.6611H87.3693Z" fill="#D6AA77"/>
<path d="M94.383 64.7001C94.383 60.0904 97.4939 56.9501 102.245 56.9501C105.949 56.9501 108.155 58.8736 108.155 62.1829C108.155 66.7647 105.016 70.1019 100.321 70.1019C96.5887 70.1019 94.3815 68.0373 94.3815 64.7001H94.383ZM103.066 62.7765C103.066 61.3335 102.528 60.6267 101.653 60.6267C100.096 60.6267 99.4469 62.4371 99.4469 64.1343C99.4469 65.6053 99.8421 66.4253 101.116 66.4253C102.39 66.4253 103.068 64.5017 103.068 62.7765H103.066Z" fill="#D6AA77"/>
</svg>
