<svg width="64" height="64" viewBox="0 0 64 64" fill="none" xmlns="http://www.w3.org/2000/svg">
<path d="M11.7169 38.8004L11.6594 39.4654L11.6211 40.1242L11.5955 40.7766L11.5891 41.429L11.6019 42.0687L11.6275 42.7083L11.6722 43.3417L11.7297 43.975L11.8064 44.5956L11.8959 45.2099L12.0045 45.8241L12.126 46.4257L12.2666 47.0273L12.4136 47.6161L12.5861 48.1986L12.7651 48.7747L12.9632 49.3445L13.1741 49.9079L13.402 50.465L13.6364 51.0094L13.8899 51.5474L14.1562 52.0727L14.4353 52.598L14.7271 53.1042L15.0317 53.6105L15.3492 54.104L15.6794 54.5848L16.0224 55.0593L16.3781 55.5274L16.7467 55.9828L17.128 56.4255L17.5221 56.8555L17.9226 57.2791L18.3359 57.69L18.762 58.0946L19.2008 58.4801L19.6525 58.8592L20.1105 59.2257L20.5813 59.5794L21.0585 59.9204L21.5485 60.2551L22.0513 60.5707L22.5604 60.8736L23.0823 61.1638L23.6107 61.4476L24.1518 61.7124L24.6993 61.9645L25.2596 62.1974L25.8262 62.4241L26.3993 62.6338L26.9788 62.8308L27.571 63.0151L28.1696 63.1803L28.781 63.3328L29.3924 63.4726L30.0166 63.5933L30.6472 63.7013L31.2842 63.7903L31.9276 63.8666L32.5773 63.9237L33.2335 63.9682L33.9024 63.9936L34.5713 64L35.2403 63.9936L35.9092 63.9682L24.3201 51.7041L23.6511 51.7295L22.9822 51.7359L22.3069 51.7295L21.6444 51.7041L20.9882 51.6596L20.3385 51.6025L19.6951 51.5262L19.0581 51.4372L18.4275 51.3292L17.8033 51.2085L17.1919 51.0687L16.5805 50.9162L15.9819 50.751L15.3897 50.5667L14.8102 50.3697L14.2371 50.16L13.6705 49.9334L13.1102 49.7004L12.5627 49.4483L12.0216 49.1835L11.4932 48.8997L10.9713 48.6095L10.4622 48.3066L9.95939 47.991L9.46941 47.6563L8.99221 47.3153L8.5214 46.9616L8.06338 46.5951L7.61174 46.216L7.17289 45.8305L6.74682 45.4259L6.33353 45.015L5.92664 44.5914L5.53891 44.1614L5.15758 43.7187L4.78903 43.2633L4.43326 42.7952L4.09027 42.3207L3.76007 41.8399L3.44265 41.3464L3.13801 40.8401L2.84615 40.3339L2.56708 39.8086L2.30078 39.2833L2.04727 38.7453L1.81293 38.2009L1.58498 37.6438L1.37408 37.0804L1.17596 36.5106L0.997009 35.9345L0.824451 35.352L0.671065 34.7632L0.536852 34.1616L0.415421 33.56L0.306771 32.9458L0.2173 32.3315L0.140604 31.7109L0.0830868 31.0776L0.0383512 30.4442L0.0127816 29.8046L0 29.1649L0.00639079 28.5125L0.0319605 27.8601L0.0703052 27.2014L0.127822 26.5363L11.7169 38.8004Z" fill="#D44126"/>
<path d="M41.0284 12.279L40.3595 12.2853L39.6905 12.3108L39.0216 12.3552L38.3527 12.4124L37.6901 12.4887L37.034 12.5776L36.3778 12.6857L35.7217 12.8064L35.0719 12.9462L34.4286 13.0987L33.7852 13.2639L33.1482 13.4482L32.5177 13.6452L31.8871 13.8549L31.2693 14.0815L30.6515 14.3209L30.0401 14.5729L29.435 14.8377L28.83 15.1152L28.2378 15.4054L27.6519 15.7083L27.0725 16.0302L26.4994 16.3585L25.9327 16.6996L25.3725 17.0533L24.8186 17.4197L24.2775 17.7989L23.7363 18.1907L23.2144 18.589L22.6925 18.9999L22.1833 19.4235L21.6806 19.8598L21.1906 20.3025L20.707 20.7579L20.2362 21.2197L19.7718 21.6942L19.3201 22.1813L18.8749 22.6685L18.4424 23.1748L18.0228 23.6873L17.6159 24.2063L17.2153 24.7379L16.8276 25.276L16.4527 25.8203L16.0905 26.371L15.7411 26.9345L15.4045 27.5043L15.0807 28.0804L14.7633 28.6629L14.4651 29.2581L14.1796 29.8533L13.9069 30.4548L13.647 31.0691L13.4063 31.6834L13.1783 32.3103L12.961 32.9373L12.7565 33.5706L12.5648 34.2103L12.3986 34.8564L12.2389 35.5024L12.0982 36.1611L11.9704 36.8199L11.8618 37.4786L11.7723 38.1501L11.6956 38.8152L0.106506 26.5511L0.183202 25.886L0.272673 25.2145L0.381323 24.5558L0.509146 23.897L0.649749 23.2383L0.803135 22.5923L0.975693 21.9462L1.16742 21.3065L1.36554 20.6732L1.58284 20.0462L1.81718 19.4193L2.05791 18.805L2.31781 18.1907L2.5905 17.5892L2.87596 16.994L3.17422 16.3988L3.48524 15.8163L3.81545 15.2402L4.15205 14.6704L4.50142 14.1069L4.86358 13.5562L5.23852 13.0119L5.62624 12.4739L6.02675 11.9422L6.43365 11.4233L6.85333 10.9107L7.28579 10.4044L7.73103 9.91725L8.18266 9.43007L8.64709 8.95561L9.11789 8.49385L9.60148 8.03845L10.0915 7.59576L10.5942 7.15942L11.1034 6.73579L11.6189 6.32486L12.1472 5.92665L12.6884 5.5348L13.2295 5.15564L13.7834 4.78921L14.3372 4.43547L14.9039 4.09445L15.4834 3.76614L16.0628 3.44418L16.6487 3.14128L17.2409 2.85109L17.8395 2.57362L18.451 2.30885L19.0624 2.05679L19.6802 1.81744L20.298 1.5908L20.9286 1.3811L21.5591 1.18411L22.1961 0.999833L22.8395 0.834618L23.4828 0.68211L24.1326 0.542312L24.7887 0.421579L25.4449 0.313551L26.101 0.224589L26.7636 0.148336L27.4325 0.0911461L28.1014 0.0466652L28.7704 0.0212468L29.4393 0.0148926L41.0284 12.279Z" fill="#D44126"/>
<path d="M63.706 38.8004L52.1168 26.5363L52.0082 27.2014L51.8804 27.8601L51.7398 28.5125L51.5864 29.1649L51.4138 29.8046L51.2221 30.4442L51.024 31.0776L50.8067 31.7109L50.5723 32.3315L50.3316 32.9458L50.0717 33.56L49.799 34.1616L49.5136 34.7632L49.2153 35.352L48.9043 35.9345L48.5741 36.5106L48.2375 37.0804L47.8881 37.6438L47.5259 38.2009L47.151 38.7453L46.7633 39.2833L46.3628 39.8086L45.9559 40.3339L45.5362 40.8401L45.1037 41.3464L44.6585 41.8399L44.2069 42.3207L43.7424 42.7952L43.2716 43.2633L42.788 43.7187L42.2981 44.1614L41.7953 44.5914L41.2861 45.015L40.7642 45.4259L40.2423 45.8305L39.7012 46.216L39.1601 46.5951L38.6062 46.9616L38.0523 47.3153L37.4856 47.6563L36.9062 47.991L36.3267 48.3066L35.7408 48.6095L35.1486 48.8997L34.5436 49.1835L33.9386 49.4483L33.3272 49.7004L32.7094 49.9334L32.0916 50.16L31.461 50.3697L30.8304 50.5667L30.1934 50.751L29.5501 50.9162L28.9067 51.0687L28.2569 51.2085L27.6008 51.3292L26.9446 51.4372L26.2885 51.5262L25.6259 51.6025L24.957 51.6596L24.2881 51.7041L35.8772 63.9682L36.5461 63.9237L37.215 63.8666L37.8776 63.7903L38.5337 63.7013L39.1899 63.5933L39.846 63.4726L40.4958 63.3328L41.1392 63.1803L41.7825 63.015L42.4195 62.8308L43.0501 62.6338L43.6807 62.4241L44.2985 62.1974L44.9163 61.9644L45.5277 61.7124L46.1391 61.4476L46.7377 61.1638L47.33 60.8736L47.9158 60.5707L48.4953 60.2551L49.0747 59.9204L49.6414 59.5794L50.1953 59.2257L50.7492 58.8592L51.2967 58.4801L51.8314 58.0946L52.3597 57.69L52.8753 57.2791L53.3844 56.8555L53.8872 56.4255L54.3771 55.9828L54.8607 55.5274L55.3316 55.0593L55.796 54.5848L56.2476 54.104L56.6928 53.6105L57.1253 53.1042L57.545 52.598L57.9519 52.0727L58.3524 51.5474L58.7401 51.0094L59.115 50.465L59.4772 49.9079L59.8266 49.3445L60.1632 48.7747L60.4934 48.1986L60.8044 47.6161L61.1027 47.0272L61.3881 46.4257L61.6608 45.8241L61.9207 45.2099L62.1615 44.5956L62.3958 43.975L62.6131 43.3417L62.8112 42.7083L63.0029 42.0687L63.1755 41.429L63.3289 40.7766L63.4695 40.1242L63.5973 39.4654L63.706 38.8004Z" fill="#D44126"/>
<path d="M63.706 38.8003L63.7955 38.1352L63.8722 37.4637L63.9297 36.805L63.968 36.1462L63.9936 35.4875L64 34.8415L63.9872 34.1954L63.9617 33.5557L63.9169 32.9224L63.8594 32.2954L63.7827 31.6685L63.6932 31.0542L63.5846 30.44L63.4632 29.8384L63.3289 29.2432L63.1756 28.648L63.003 28.0655L62.8241 27.4894L62.6259 26.9196L62.415 26.3562L62.1871 25.8054L61.9527 25.2611L61.6992 24.7231L61.4329 24.1914L61.1539 23.6725L60.862 23.1599L60.5574 22.6536L60.2399 22.1664L59.9097 21.6793L59.5667 21.2048L59.211 20.7431L58.8424 20.2877L58.4611 19.845L58.0734 19.4086L57.6665 18.985L57.2532 18.5741L56.8271 18.1759L56.3883 17.784L55.9366 17.4048L55.4786 17.0384L55.0078 16.6847L54.5306 16.3437L54.0406 16.0153L53.5378 15.6934L53.0287 15.3905L52.5068 15.1003L51.9784 14.8228L51.4373 14.5581L50.8898 14.306L50.3295 14.0666L49.7693 13.84L49.1898 13.6303L48.6104 13.4333L48.0181 13.249L47.4195 13.0838L46.8081 12.9313L46.1967 12.7915L45.5725 12.6708L44.9419 12.5628L44.3049 12.4738L43.6615 12.3975L43.0118 12.3403L42.3556 12.2959L41.6931 12.2704L41.0178 12.2641L29.4287 0L30.104 0.00635419L30.7665 0.0317726L31.4227 0.0762536L32.0724 0.133443L32.7158 0.209697L33.3528 0.29866L33.9834 0.406685L34.6076 0.527421L35.219 0.667216L35.8304 0.819723L36.429 0.984939L37.0212 1.16922L37.6007 1.36621L38.1738 1.5759L38.7404 1.80255L39.3007 2.0419L39.8482 2.29396L40.3893 2.55873L40.9177 2.8362L41.4396 3.12639L41.9487 3.42929L42.4515 3.75124L42.9415 4.07956L43.4187 4.42058L43.8895 4.77431L44.3475 5.14075L44.7992 5.5199L45.238 5.91176L45.6641 6.30997L46.0774 6.72089L46.4843 7.14452L46.872 7.58086L47.2533 8.02356L47.6219 8.47896L47.9776 8.94071L48.3206 9.41518L48.6508 9.90236L48.9683 10.3895L49.2729 10.8958L49.5647 11.4084L49.8438 11.9273L50.1101 12.459L50.3636 12.997L50.598 13.5413L50.8259 14.0921L51.0368 14.6555L51.2349 15.2253L51.4139 15.8014L51.5865 16.3839L51.7334 16.9791L51.874 17.5743L51.9955 18.1759L52.1041 18.7901L52.1936 19.4044L52.2703 20.0314L52.3278 20.6583L52.3726 21.2917L52.3981 21.9313L52.4109 22.5774L52.4045 23.2234L52.3789 23.8822L52.3406 24.5409L52.2831 25.1996L52.2064 25.8711L52.1169 26.5362L63.706 38.8003Z" fill="#D44126"/>
<path d="M23.0461 58.2025L22.6009 57.9059L22.1684 57.5967L21.7424 57.2747L21.3227 56.94L20.9158 56.599L20.5153 56.2453L20.1339 55.8788L19.7526 55.5061L19.3905 55.1205L19.0347 54.7287L18.6853 54.3241L18.3551 53.9132L18.0313 53.4896L17.7203 53.0596L17.4156 52.6232L17.1302 52.1742L16.8511 51.7188L16.5848 51.257L16.3313 50.7826L16.0905 50.3018L15.8626 49.8146L15.6453 49.3147L15.4408 48.8148L15.2491 48.3022L15.0701 47.7896L14.9039 47.2643L14.7506 46.7327L14.6163 46.201L14.4885 45.6567L14.3799 45.1059L14.2776 44.5552L14.1945 43.9918L14.1306 43.4284L14.0731 42.8586L14.0348 42.2824L14.0092 41.6999L14.0028 41.1175L14.0092 40.5286L14.0284 39.9334L14.0667 39.3318L14.1178 38.7303L14.1881 38.1287L14.2712 37.5208L14.3671 36.9193L14.4821 36.3241L14.61 35.7289L14.7506 35.14L14.9103 34.5512L15.0829 33.9687L15.2618 33.3989L15.46 32.8228L15.6709 32.2593L15.8946 31.7023L16.1289 31.1452L16.376 30.5945L16.6359 30.0565L16.9086 29.5185L17.1941 28.9868L17.4859 28.4679L17.7906 27.9489L18.1144 27.4363L18.4382 26.9364L18.7812 26.4429L19.1306 25.9494L19.4927 25.4749L19.8677 25.0004L20.249 24.5323L20.6367 24.0769L21.0436 23.6279L21.4505 23.1915L21.8702 22.7616L22.3026 22.3379L22.7415 21.927L23.1867 21.5224L23.6384 21.1306L24.1028 20.7451L24.5736 20.3723L25.0508 20.0122L25.5408 19.6585L26.0308 19.3111L26.5335 18.9828L27.0427 18.6608L27.5582 18.3452L28.0738 18.0487L28.6021 17.7585L29.1368 17.4874L17.5477 5.22327L17.013 5.49439L16.4847 5.78458L15.9627 6.08112L15.4536 6.39672L14.9444 6.71868L14.4417 7.04699L13.9517 7.39437L13.4617 7.7481L12.9845 8.10819L12.5137 8.48098L12.0493 8.86649L11.5976 9.25834L11.146 9.66291L10.7135 10.0738L10.2811 10.4975L9.8614 10.9274L9.44811 11.3638L9.0476 11.8128L8.65988 12.2682L8.27855 12.7363L7.90361 13.2108L7.54145 13.6853L7.19207 14.1788L6.84909 14.6723L6.52527 15.1722L6.20146 15.6848L5.89682 16.2038L5.60496 16.7227L5.31949 17.2544L5.04681 17.7924L4.7869 18.3304L4.53978 18.8811L4.30545 19.4382L4.08176 19.9952L3.87085 20.5587L3.67273 21.1348L3.48739 21.7046L3.32123 22.2871L3.16145 22.8759L3.02085 23.4648L2.89303 24.0536L2.77798 24.6552L2.68212 25.2567L2.59904 25.8646L2.52874 26.4662L2.4776 27.0678L2.43926 27.6693L2.42009 28.2645L2.4137 28.8534L2.42009 29.4358L2.44565 30.0183L2.48399 30.5945L2.54152 31.1643L2.60543 31.7277L2.68851 32.2911L2.79077 32.8418L2.89942 33.3926L3.02724 33.9369L3.16145 34.4686L3.31483 35.0002L3.481 35.5255L3.65995 36.0381L3.85168 36.5507L4.05619 37.0506L4.27349 37.5505L4.50144 38.0377L4.74217 38.5185L4.99568 38.993L5.26197 39.4547L5.54105 39.9101L5.82651 40.3592L6.13115 40.7955L6.44219 41.2255L6.766 41.6491L7.0962 42.06L7.44558 42.4646L7.80135 42.8565L8.16351 43.242L8.53845 43.6147L8.92618 43.9812L9.32668 44.3349L9.73358 44.6759L10.1533 45.0106L10.5793 45.3326L11.0118 45.6418L11.457 45.9384L23.0461 58.2025Z" fill="#D44126"/>
<path d="M61.4031 38.1352L49.8139 25.8711L49.8842 25.2632L49.9354 24.6616L49.9737 24.06L49.9929 23.4712L49.9993 22.8824L49.9929 22.2935L49.9673 21.711L49.929 21.1412L49.8715 20.5651L49.8076 20.0017L49.7245 19.4446L49.6222 18.8875L49.5136 18.3368L49.3857 17.7988L49.2515 17.2608L49.0981 16.7291L48.932 16.2102L48.753 15.6912L48.5613 15.1786L48.3568 14.6788L48.1395 14.1852L47.9115 13.6917L47.6708 13.2172L47.4173 12.7428L47.151 12.2747L46.8719 11.8193L46.5865 11.3702L46.2818 10.9339L45.9708 10.5039L45.647 10.0803L45.3168 9.66933L44.9674 9.26477L44.6116 8.87291L44.2495 8.4874L43.8681 8.11461L43.4868 7.75452L43.0863 7.40079L42.6794 7.05342L42.2597 6.7251L41.8337 6.40314L41.4012 6.08754L40.956 5.791L40.4979 5.50081L40.0335 5.22969L39.5627 4.96492L39.0855 4.7065L38.5955 4.46715L38.0992 4.24051L37.59 4.02446L37.0745 3.81476L36.5525 3.62413L36.0242 3.44621L35.4895 3.28099L34.9484 3.12848L34.3945 2.98868L33.8342 2.86159L33.2739 2.75357L32.7008 2.65825L32.1214 2.57565L31.5355 2.50575L30.9433 2.45491L30.3511 2.41678L29.7461 2.39136L29.141 2.38501L28.5296 2.39136L27.9182 2.41678L27.3132 2.45491L26.7082 2.50575L26.1095 2.57565L25.5109 2.65825L24.9123 2.75357L24.32 2.86159L23.7278 2.98868L23.142 3.12848L22.5625 3.28099L21.9831 3.44621L21.41 3.62413L20.8433 3.81476L20.2766 4.02446L19.7164 4.24051L19.1625 4.46715L18.6086 4.7065L18.0675 4.96492L17.5264 5.22969L29.1155 17.4938L29.6566 17.229L30.1977 16.9706L30.7516 16.7312L31.3055 16.5046L31.8658 16.2886L32.4324 16.0789L32.9991 15.8882L33.5722 15.7103L34.1516 15.5451L34.7375 15.3926L35.3233 15.2528L35.9092 15.1257L36.5014 15.0177L37.1 14.9223L37.6987 14.8397L38.2973 14.7698L38.9023 14.719L39.5073 14.6809L40.1187 14.6555L40.7301 14.6491L41.3352 14.6555L41.9402 14.6809L42.5324 14.719L43.1247 14.7698L43.7105 14.8397L44.29 14.9223L44.863 15.0177L45.4233 15.1257L45.9836 15.2528L46.5375 15.3926L47.0786 15.5451L47.6133 15.7103L48.148 15.8882L48.6636 16.0789L49.1791 16.2886L49.6883 16.5046L50.1846 16.7312L50.6746 16.9706L51.1518 17.229L51.629 17.4938L52.087 17.7649L52.5451 18.0551L52.9903 18.3516L53.4228 18.6672L53.8552 18.9892L54.2685 19.3175L54.6754 19.6649L55.0759 20.0186L55.4636 20.3787L55.8386 20.7515L56.2071 21.137L56.5629 21.5289L56.9059 21.9334L57.2361 22.3443L57.5599 22.768L57.8709 23.198L58.1756 23.6343L58.461 24.0833L58.7401 24.5388L59.0064 25.0069L59.2599 25.4813L59.5006 25.9558L59.7286 26.4493L59.9459 26.9429L60.1504 27.4427L60.3421 27.9553L60.5211 28.4743L60.6873 28.9932L60.8406 29.5249L60.9749 30.0629L61.1027 30.6009L61.2113 31.1516L61.3136 31.7087L61.3967 32.2658L61.4606 32.8292L61.5181 33.4053L61.5564 33.9751L61.582 34.5576L61.5884 35.1465L61.582 35.7353L61.5628 36.3305L61.5245 36.9257L61.4734 37.5273L61.4031 38.1352Z" fill="#D44126"/>
<path d="M61.4031 38.1351L61.32 38.7366L61.2241 39.3382L61.1091 39.9397L60.9813 40.5349L60.8407 41.1238L60.6809 41.7063L60.5147 42.2888L60.3294 42.8649L60.1313 43.4347L59.9204 43.9981L59.6967 44.5615L59.4623 45.1123L59.2152 45.663L58.9553 46.2073L58.6826 46.739L58.4036 47.2707L58.1053 47.796L57.8007 48.3085L57.4768 48.8211L57.153 49.321L56.81 49.8209L56.4607 50.3081L56.0985 50.7889L55.7236 51.2634L55.3422 51.7251L54.9545 52.1805L54.554 52.6296L54.1407 53.0659L53.721 53.4959L53.2886 53.9195L52.8561 54.3304L52.4045 54.735L51.9529 55.1269L51.4884 55.5124L51.0176 55.8852L50.5404 56.2516L50.0504 56.6053L49.5605 56.9464L49.0577 57.281L48.5486 57.603L48.0394 57.9122L47.5175 58.2088L46.9891 58.499L46.4544 58.7765L45.9133 59.0412L45.3722 59.2933L44.8183 59.5326L44.2644 59.7593L43.7041 59.9817L43.1375 60.185L42.5708 60.3757L41.9977 60.5536L41.4183 60.7188L40.8388 60.8713L40.253 61.0111L39.6607 61.1382L39.0685 61.2462L38.4699 61.3479L37.8712 61.4305L37.2726 61.494L36.6676 61.5512L36.0626 61.5894L35.4512 61.6084L34.8398 61.6148L34.2347 61.6084L33.6297 61.5894L33.0375 61.5512L32.4452 61.494L31.8594 61.4305L31.2799 61.3479L30.7133 61.2462L30.1466 61.1382L29.5863 61.0111L29.0388 60.8713L28.4913 60.7188L27.9566 60.5536L27.4283 60.3757L26.9063 60.185L26.3908 59.9817L25.8816 59.7593L25.3853 59.5326L24.8953 59.2933L24.4181 59.0412L23.9473 58.7765L23.4829 58.499L23.0248 58.2088L11.4357 45.9447L11.8938 46.2349L12.3518 46.5124L12.829 46.7771L13.3062 47.0292L13.7962 47.2685L14.2925 47.4952L14.8017 47.7176L15.3172 47.9209L15.8392 48.1116L16.3675 48.2895L16.9022 48.4547L17.4433 48.6072L17.9972 48.747L18.5575 48.8741L19.1178 48.9821L19.6908 49.0838L20.2703 49.1664L20.8561 49.2299L21.4484 49.2871L22.0406 49.3253L22.6456 49.3443L23.2506 49.3507L23.8621 49.3443L24.4735 49.3253L25.0785 49.2871L25.6835 49.2299L26.2821 49.1664L26.8808 49.0838L27.4794 48.9821L28.0716 48.8741L28.6639 48.747L29.2497 48.6072L29.8292 48.4547L30.4086 48.2895L30.9817 48.1116L31.5484 47.9209L32.115 47.7176L32.6753 47.4952L33.2292 47.2685L33.7831 47.0292L34.3242 46.7771L34.8653 46.5124L35.4 46.2349L35.9284 45.9447L36.4439 45.6481L36.9595 45.3389L37.4686 45.0169L37.9714 44.6823L38.4613 44.3413L38.9513 43.9875L39.4285 43.6211L39.8993 43.2483L40.3637 42.8628L40.8154 42.4709L41.2606 42.0664L41.6995 41.6554L42.1319 41.2318L42.5516 40.8018L42.9585 40.3655L43.3654 39.9164L43.7531 39.461L44.1345 38.9993L44.5094 38.5248L44.8716 38.044L45.2209 37.5568L45.5639 37.0569L45.8877 36.557L46.2116 36.0445L46.5162 35.5319L46.8081 35.0066L47.0935 34.4749L47.3662 33.9432L47.6261 33.3989L47.8732 32.8482L48.1076 32.2974L48.3291 31.734L48.54 31.1706L48.7382 30.6008L48.9235 30.0247L49.0897 29.4422L49.2494 28.8597L49.39 28.2708L49.5179 27.6756L49.6329 27.0741L49.7288 26.4725L49.8118 25.871L61.401 38.1351H61.4031Z" fill="#D44126"/>
<path d="M63.706 38.8004L63.5974 39.4655L63.4696 40.1242L63.329 40.7766L63.1756 41.429L63.003 42.0687L62.8113 42.7083L62.6132 43.3417L62.3959 43.975L62.1615 44.5956L61.9208 45.2099L61.6609 45.8242L61.3882 46.4257L61.1027 47.0273L60.8045 47.6161L60.4935 48.1986L60.1633 48.7747L59.8267 49.3445L59.4773 49.9079L59.1151 50.465L58.7402 51.0094L58.3525 51.5474L57.952 52.0727L57.5451 52.598L57.1254 53.1042L56.6929 53.6105L56.2477 54.104L55.796 54.5848L55.3316 55.0593L54.8608 55.5274L54.3772 55.9828L53.8872 56.4255L53.3845 56.8555L52.8753 57.2791L52.3598 57.69L51.8315 58.0946L51.2967 58.4801L50.7492 58.8592L50.1954 59.2257L49.6415 59.5794L49.0748 59.9204L48.4953 60.2551L47.9159 60.5707L47.33 60.8736L46.7378 61.1638L46.1392 61.4476L45.5278 61.7124L44.9163 61.9645L44.2985 62.1975L43.6807 62.4241L43.0502 62.6338L42.4196 62.8308L41.7826 63.0151L41.1392 63.1803L40.4959 63.3328L39.8461 63.4726L39.19 63.5933L38.5338 63.7013L37.8777 63.7903L37.2151 63.8666L36.5462 63.9237L35.8773 63.9682L35.2083 63.9936L34.5394 64L33.8705 63.9936L33.2015 63.9682L32.5454 63.9237L31.8956 63.8666L31.2523 63.7903L30.6153 63.7013L29.9847 63.5933L29.3605 63.4726L28.7491 63.3328L28.1377 63.1803L27.5391 63.0151L26.9468 62.8308L26.3674 62.6338L25.7943 62.4241L25.2276 62.1975L24.6674 61.9645L24.1199 61.7124L23.5788 61.4476L23.0504 61.1638L22.5285 60.8736L22.0193 60.5707L21.5166 60.2551L21.0266 59.9204L20.5494 59.5794L20.0786 59.2257L19.6206 58.8592L19.1689 58.4801L18.7301 58.0946L18.304 57.69L17.8907 57.2791L17.4902 56.8555L17.0961 56.4255L16.7148 55.9828L16.3462 55.5274L15.9904 55.0593L15.6475 54.5848L15.3173 54.104L14.9998 53.6105L14.6952 53.1042L14.4033 52.598L14.1243 52.0727L13.858 51.5474L13.6045 51.0094L13.3701 50.465L13.1422 49.9079L12.9313 49.3445L12.7331 48.7747L12.5542 48.1986L12.3816 47.6161L12.2346 47.0273L12.094 46.4257L11.9726 45.8242L11.864 45.2099L11.7745 44.5956L11.6978 43.975L11.6403 43.3417L11.5955 42.7083L11.57 42.0687L11.5572 41.429L11.5636 40.7766L11.5892 40.1242L11.6275 39.4655L11.685 38.8004L11.7617 38.1353L11.8512 37.4638L11.9598 36.8051L12.0877 36.1463L12.2283 35.4876L12.388 34.8415L12.5542 34.1955L12.7459 33.5558L12.9504 32.9225L13.1677 32.2955L13.3957 31.6685L13.6364 31.0543L13.8963 30.44L14.169 29.8385L14.4545 29.2433L14.7527 28.6481L15.0701 28.0656L15.394 27.4894L15.7306 26.9196L16.0799 26.3562L16.4421 25.8055L16.817 25.2611L17.2048 24.7231L17.6053 24.1915L18.0122 23.6725L18.4318 23.1599L18.8643 22.6537L19.3095 22.1665L19.7612 21.6793L20.2256 21.2049L20.6964 20.7431L21.18 20.2877L21.67 19.845L22.1727 19.4087L22.6819 18.9851L23.2038 18.5741L23.7258 18.1759L24.2669 17.7841L24.808 17.4049L25.3619 17.0385L25.9221 16.6847L26.4888 16.3437L27.0619 16.0154L27.6413 15.6934L28.2272 15.3906L28.8194 15.1004L29.4244 14.8229L30.0295 14.5581L30.6409 14.3061L31.2587 14.0667L31.8765 13.8401L32.5071 13.6304L33.1376 13.4334L33.7746 13.2491L34.418 13.0839L35.0613 12.9314L35.7111 12.7916L36.3673 12.6708L37.0234 12.5628L37.6796 12.4739L38.3421 12.3976L39.011 12.3404L39.6799 12.2959L40.3489 12.2705L41.0178 12.2642L41.6931 12.2705L42.3557 12.2959L43.0118 12.3404L43.6616 12.3976L44.3049 12.4739L44.9419 12.5628L45.5725 12.6708L46.1967 12.7916L46.8081 12.9314L47.4195 13.0839L48.0181 13.2491L48.6104 13.4334L49.1898 13.6304L49.7693 13.8401L50.3296 14.0667L50.8898 14.3061L51.4373 14.5581L51.9785 14.8229L52.5068 15.1004L53.0287 15.3906L53.5379 15.6934L54.0406 16.0154L54.5306 16.3437L55.0078 16.6847L55.4786 17.0385L55.9366 17.4049L56.3883 17.7841L56.8271 18.1759L57.2532 18.5741L57.6665 18.9851L58.0734 19.4087L58.4611 19.845L58.8424 20.2877L59.211 20.7431L59.5668 21.2049L59.9098 21.6793L60.24 22.1665L60.5574 22.6537L60.862 23.1599L61.1539 23.6725L61.4329 24.1915L61.6992 24.7231L61.9528 25.2611L62.1871 25.8055L62.415 26.3562L62.6259 26.9196L62.8241 27.4894L63.003 28.0656L63.1756 28.6481L63.329 29.2433L63.4632 29.8385L63.5846 30.44L63.6933 31.0543L63.7827 31.6685L63.8594 32.2955L63.9169 32.9225L63.9617 33.5558L63.9872 34.1955L64 34.8415L63.9936 35.4876L63.9681 36.1463L63.9297 36.8051L63.8722 37.4638L63.7955 38.1353L63.706 38.8004Z" fill="#D44126"/>
<path d="M61.4031 38.1351L61.4734 37.5272L61.5245 36.9256L61.5629 36.3304L61.582 35.7352L61.5884 35.1464L61.582 34.5576L61.5565 33.9751L61.5181 33.4053L61.4606 32.8291L61.3967 32.2657L61.3136 31.7086L61.2114 31.1516L61.1027 30.6008L60.9749 30.0628L60.8407 29.5248L60.6873 28.9932L60.5211 28.4742L60.3422 27.9553L60.1505 27.4427L59.9459 26.9428L59.7286 26.4493L59.5007 25.9557L59.26 25.4813L59.0065 25.0068L58.7402 24.5387L58.4611 24.0833L58.1756 23.6342L57.871 23.1979L57.5599 22.7679L57.2361 22.3443L56.9059 21.9334L56.5629 21.5288L56.2072 21.1369L55.8386 20.7514L55.4637 20.3786L55.076 20.0186L54.6755 19.6648L54.2686 19.3175L53.8553 18.9891L53.4228 18.6672L52.9903 18.3516L52.5451 18.055L52.0871 17.7648L51.6291 17.4937L51.1519 17.229L50.6747 16.9705L50.1847 16.7312L49.6883 16.5045L49.1791 16.2885L48.6636 16.0788L48.1481 15.8882L47.6133 15.7102L47.0786 15.545L46.5375 15.3925L45.9836 15.2527L45.4233 15.1256L44.8631 15.0176L44.29 14.9223L43.7105 14.8397L43.1247 14.7698L42.5325 14.7189L41.9402 14.6808L41.3352 14.6554L40.7302 14.649L40.1188 14.6554L39.5074 14.6808L38.9023 14.7189L38.2973 14.7698L37.6987 14.8397L37.1001 14.9223L36.5014 15.0176L35.9092 15.1256L35.3234 15.2527L34.7375 15.3925L34.1517 15.545L33.5722 15.7102L32.9991 15.8882L32.4325 16.0788L31.8658 16.2885L31.3055 16.5045L30.7516 16.7312L30.1977 16.9705L29.6566 17.229L29.1155 17.4937L28.5808 17.7648L28.0525 18.055L27.5369 18.3516L27.0214 18.6672L26.5122 18.9891L26.0095 19.3175L25.5195 19.6648L25.0295 20.0186L24.5523 20.3786L24.0815 20.7514L23.6171 21.1369L23.1654 21.5288L22.7202 21.9334L22.2814 22.3443L21.8489 22.7679L21.4292 23.1979L21.0223 23.6342L20.6154 24.0833L20.2277 24.5387L19.8464 25.0068L19.4714 25.4813L19.1093 25.9557L18.7599 26.4493L18.4169 26.9428L18.0931 27.4427L17.7693 27.9553L17.4646 28.4742L17.1728 28.9932L16.8873 29.5248L16.6146 30.0628L16.3547 30.6008L16.1076 31.1516L15.8733 31.7086L15.6496 32.2657L15.4387 32.8291L15.2405 33.4053L15.0616 33.9751L14.889 34.5576L14.7293 35.1464L14.5887 35.7352L14.4608 36.3304L14.3458 36.9256L14.2499 37.5272L14.1668 38.1351L14.0965 38.7367L14.0454 39.3382L14.0071 39.9398L13.9879 40.535L13.9815 41.1238L13.9879 41.7063L14.0135 42.2888L14.0518 42.8649L14.1093 43.4347L14.1732 43.9981L14.2563 44.5616L14.3586 45.1123L14.4672 45.663L14.595 46.2074L14.7293 46.739L14.8826 47.2707L15.0488 47.796L15.2278 48.3086L15.4195 48.8212L15.624 49.3211L15.8413 49.8209L16.0693 50.3081L16.31 50.7889L16.5635 51.2634L16.8298 51.7252L17.1089 52.1806L17.3943 52.6296L17.699 53.0659L18.01 53.4959L18.3338 53.9196L18.664 54.3305L19.0134 54.7351L19.3692 55.1269L19.7313 55.5124L20.1127 55.8852L20.494 56.2517L20.8945 56.6054L21.3014 56.9464L21.7211 57.2811L22.1471 57.603L22.5796 57.9123L23.0248 58.2088L23.4829 58.499L23.9473 58.7765L24.4181 59.0413L24.8953 59.2933L25.3853 59.5327L25.8816 59.7593L26.3908 59.9817L26.9063 60.1851L27.4283 60.3757L27.9566 60.5536L28.4913 60.7188L29.0388 60.8713L29.5863 61.0111L30.1466 61.1382L30.7133 61.2463L31.28 61.3479L31.8594 61.4305L32.4453 61.4941L33.0375 61.5513L33.6297 61.5894L34.2347 61.6085L34.8398 61.6148L35.4512 61.6085L36.0626 61.5894L36.6676 61.5513L37.2726 61.4941L37.8713 61.4305L38.4699 61.3479L39.0685 61.2463L39.6607 61.1382L40.253 61.0111L40.8388 60.8713L41.4183 60.7188L41.9977 60.5536L42.5708 60.3757L43.1375 60.1851L43.7042 59.9817L44.2644 59.7593L44.8183 59.5327L45.3722 59.2933L45.9133 59.0413L46.4544 58.7765L46.9892 58.499L47.5175 58.2088L48.0394 57.9123L48.5486 57.603L49.0577 57.2811L49.5605 56.9464L50.0505 56.6054L50.5404 56.2517L51.0176 55.8852L51.4884 55.5124L51.9529 55.1269L52.4045 54.7351L52.8561 54.3305L53.2886 53.9196L53.7211 53.4959L54.1407 53.0659L54.554 52.6296L54.9545 52.1806L55.3423 51.7252L55.7236 51.2634L56.0985 50.7889L56.4607 50.3081L56.8101 49.8209L57.1531 49.3211L57.4769 48.8212L57.8007 48.3086L58.1053 47.796L58.4036 47.2707L58.6826 46.739L58.9553 46.2074L59.2152 45.663L59.4623 45.1123L59.6967 44.5616L59.9182 43.9981L60.1291 43.4347L60.3273 42.8649L60.5126 42.2888L60.6788 41.7063L60.8386 41.1238L60.9792 40.535L61.107 39.9398L61.222 39.3382L61.3179 38.7367L61.401 38.1351H61.4031Z" fill="#D44126"/>
<path d="M58.1969 19.6034L45.6406 6.31628H33.4081L45.9644 19.6034H58.1969Z" fill="#D44126"/>
<path d="M30.5258 57.6158L17.9695 44.3265H5.73065L18.2933 57.6158H30.5258Z" fill="#D44126"/>
<path d="M52.1915 25.8755L52.0998 26.5363L51.9955 27.1972L51.8698 27.8581L51.7292 28.5126L51.5758 29.1607L51.4011 29.8004L51.22 30.4401L51.0176 31.0734L50.8003 31.7004L50.5681 32.321L50.3231 32.9416L50.0632 33.5474L49.7905 34.1532L49.5029 34.7526L49.2026 35.3372L48.8873 35.9219L48.5656 36.5001L48.229 37.0635L47.8711 37.627L47.5132 38.1777L47.134 38.7284L46.7484 39.2643L46.35 39.7938L45.9367 40.317L45.5171 40.8254L45.0889 41.3274L44.6415 41.8209L44.1941 42.3017L43.7318 42.7762L43.2546 43.2422L42.771 43.6955L42.2811 44.1403L41.7847 44.5724L41.2734 44.9981L40.7557 45.4091L40.2295 45.8136L39.6905 46.2034L39.1516 46.5804L38.5977 46.949L38.0374 47.3048L37.4707 47.6458L36.9041 47.9741L36.3225 48.294L35.7345 48.6011L35.1401 48.8934L34.5458 49.173L33.9365 49.4378L33.3272 49.6877L32.7115 49.9313L32.0873 50.1537L31.4631 50.3634L30.8326 50.5583L30.1956 50.7383L29.5586 50.9057L28.9152 51.0582L28.2634 51.198L27.6115 51.3166L26.9532 51.4288L26.2949 51.5199L25.6366 51.5898L24.972 51.6534L24.3073 51.6957L23.6341 51.7169L22.9609 51.7233L22.2962 51.7169L21.6316 51.6957L20.9797 51.6534L20.3278 51.5898L19.6844 51.5199L19.0475 51.4288L18.4169 51.3166L17.8012 51.198L17.1855 51.0582L16.5763 50.9057L15.9819 50.7383L15.3939 50.5583L14.8123 50.3634L14.2371 50.1537L13.6705 49.9313L13.1102 49.6877L12.5648 49.4378L12.0258 49.173L11.4996 48.8934L10.9734 48.6011L10.4685 48.294L9.96365 47.9741L9.47367 47.6458L8.99647 47.3048L8.52779 46.949L8.06551 46.5804L7.61813 46.2034L7.17715 45.8136L6.74895 45.4091L6.33567 44.9981L5.93729 44.5724L5.5453 44.1403L5.15971 43.6955L4.79542 43.2422L4.43752 42.7762L4.09453 42.3017L3.75794 41.8209L3.44265 41.3274L3.13375 40.8254L2.83976 40.317L2.55855 39.7938L2.29226 39.2643L2.04088 38.7284L1.80228 38.1777L1.57859 37.627L1.36769 37.0635L1.17169 36.5001L0.990618 35.9219L0.822318 35.3372L0.675324 34.7526L0.53472 34.1532L0.415421 33.5474L0.302513 32.9416L0.210909 32.321L0.140604 31.7004L0.076696 31.0734L0.0340864 30.4401L0.00639079 29.8004L0 29.1607L0.00639079 28.5126L0.0276956 27.8581L0.0703052 27.1972L0.125696 26.5363L0.202386 25.8755L0.293989 25.2061L0.398381 24.5453L0.524071 23.8844L0.664675 23.2362L0.81806 22.5881L0.992744 21.9399L1.17382 21.3003L1.37621 20.6733L1.5935 20.04L1.82358 19.4193L2.06857 18.8072L2.32848 18.195L2.60116 17.5893L2.88875 16.9983L3.18913 16.4073L3.50443 15.8227L3.82611 15.2508L4.16271 14.6789L4.5206 14.1155L4.87851 13.5648L5.25771 13.0225L5.6433 12.4803L6.04168 11.9571L6.45496 11.4339L6.87464 10.9192L7.30284 10.4172L7.74382 9.92367L8.19972 9.44285L8.662 8.96838L9.13921 8.50239L9.6164 8.04911L10.1128 7.60429L10.6091 7.17219L11.1204 6.74644L11.6381 6.33552L12.1643 5.93943L12.7033 5.54969L13.2423 5.1663L13.7961 4.8041L14.3564 4.44825L14.9167 4.10087L15.4919 3.77256L16.0735 3.45272L16.6615 3.15406L17.2558 2.86175L17.8502 2.5758L18.4595 2.31103L19.0688 2.06109L19.6844 1.82386L20.3086 1.5951L20.9328 1.3854L21.5634 1.19053L22.2004 1.01049L22.8374 0.843154L23.4807 0.690647L24.1326 0.550849L24.7845 0.432233L25.4428 0.328445L26.1011 0.237363L26.7593 0.16111L27.424 0.106039L28.0887 0.0636747L28.7619 0.0361394L29.435 0.0297852L30.0997 0.0361394L30.7644 0.0636747L31.4163 0.106039L32.0682 0.16111L32.7115 0.237363L33.3485 0.328445L33.9791 0.432233L34.5948 0.550849L35.2104 0.690647L35.8197 0.843154L36.4141 1.01049L37.002 1.19053L37.5836 1.3854L38.1588 1.5951L38.7255 1.82386L39.2858 2.06109L39.8312 2.31103L40.3701 2.5758L40.8963 2.86175L41.414 3.15406L41.9253 3.45272L42.4302 3.77256L42.9202 4.10087L43.3974 4.44825L43.866 4.8041L44.3283 5.1663L44.7757 5.54969L45.2167 5.93943L45.6364 6.33552L46.056 6.74644L46.4544 7.17219L46.8464 7.60429L47.232 8.04911L47.5963 8.50239L47.9542 8.96838L48.2972 9.44285L48.6338 9.92367L48.9491 10.4172L49.2579 10.9192L49.5519 11.4339L49.8331 11.9571L50.0994 12.4803L50.3508 13.0225L50.5894 13.5648L50.8131 14.1155L51.024 14.6789L51.22 15.2508L51.4011 15.8227L51.5694 16.4073L51.7164 16.9983L51.857 17.5893L51.9763 18.195L52.0892 18.8072L52.1808 19.4193L52.2511 20.04L52.315 20.6733L52.3576 21.3003L52.3853 21.9399L52.3917 22.5881L52.3853 23.2362L52.364 23.8844L52.3214 24.5453L52.266 25.2061L52.1893 25.8755H52.1915Z" fill="#8CD5F5"/>
</svg>
