<svg width="351" height="192" viewBox="0 0 351 192" fill="none" xmlns="http://www.w3.org/2000/svg">
<g clip-path="url(#clip0_2259_19097)">
<path d="M134.22 142.27H81.22V178.27H134.22V142.27Z" fill="#FDECE3"/>
<path d="M322.42 25.19L322.08 25.21L321.67 25.24L321.12 25.28L320.44 25.33L319.65 25.39L318.76 25.45L317.79 25.52L316.74 25.59L315.63 25.67L314.48 25.75L313.3 25.83L312.1 25.92L310.89 26.01L309.69 26.09L308.52 26.17L307.93 27.4L307.33 28.55L306.73 29.61L306.12 30.59L305.5 31.49L304.88 32.31L304.26 33.06L303.64 33.74L303.03 34.35L302.43 34.9L301.83 35.39L301.25 35.82L300.68 36.2L300.12 36.53L299.58 36.82L299.06 37.06L297.72 35.83L296.19 34.78L294.48 33.91L292.59 33.22L290.52 32.72L288.28 32.42L285.87 32.31L283.3 32.4L281.74 32.54L280.22 32.75L278.73 33.02L277.27 33.35L275.85 33.74L274.46 34.19L273.11 34.7L271.8 35.26L270.53 35.88L269.3 36.55L268.11 37.27L266.96 38.04L265.85 38.86L264.79 39.73L263.77 40.65L262.8 41.61L261.87 42.62L260.99 43.67L260.16 44.76L259.38 45.89L258.65 47.06L258.6 47.16L248.27 37.62L248.17 37.52L247.48 36.96L246.72 36.49L248.54 26.78L230.91 10.5L215.17 11.62L213.84 18.69L206.83 12.21H206.78H206.74H206.69H206.63H206.56L206.48 12.22H206.39L206.29 12.23H206.18L206.06 12.25H205.94L205.81 12.27H205.67L205.52 12.29H205.36L205.19 12.31H205.1L205.02 12.32H204.93L204.84 12.33H204.65L204.46 12.36H204.45L204.26 12.37H204.05L203.84 12.4H203.63L203.62 12.42L203.39 12.44L203.16 12.46L202.92 12.48L202.68 12.5L202.43 12.52L202.18 12.54H202.05L201.92 12.56L201.66 12.58L201.4 12.6L201.13 12.62L200.86 12.64L200.59 12.66L200.31 12.68L200.03 12.7L199.75 12.72L199.48 12.74H199.46L199.17 12.76L198.88 12.78L198.59 12.8L198.3 12.82L198 12.84L197.7 12.86L197.4 12.88L197.1 12.9L196.8 12.92L196.5 12.94L196.2 12.96L195.9 12.98L195.6 13L195.3 13.02L195 13.04L194.7 13.06L194.4 13.08L194.1 13.1L193.8 13.12L193.51 13.14L193.22 13.16L192.93 13.18L192.78 13.56L192.63 13.93L192.48 14.29L192.33 14.65L192.18 15L192.03 15.34L191.88 15.67L191.73 15.99L191.58 16.31L191.43 16.62L191.28 16.92L191.13 17.21L190.98 17.5L190.83 17.78L190.68 18.05L190.59 18.21L190.53 18.32L190.38 18.58L190.23 18.83L190.08 19.08L189.94 19.32L189.8 19.56L189.66 19.79L189.59 19.9L189.52 20.01L189.38 20.23L189.24 20.44L189.16 20.56L189.1 20.64L188.96 20.84L188.82 21.04L188.68 21.23L188.54 21.42L188.51 21.46L188.4 21.6L188.26 21.78L188.12 21.95L188.05 22.04L179.45 14.1L179.23 14.12L179 14.14L178.77 14.16L178.54 14.18L178.3 14.2L178.06 14.22L177.82 14.24L177.58 14.26L177.34 14.28H177.22L177.09 14.3L176.84 14.32L176.59 14.34L176.34 14.36L176.09 14.38L175.84 14.4L175.59 14.42L175.34 14.44L175.09 14.46L174.84 14.48L174.59 14.5L174.34 14.52L174.09 14.54L173.84 14.56L173.59 14.58L173.34 14.6L173.1 14.62L172.86 14.64L172.62 14.66L172.38 14.68L172.15 14.7H172.13L171.92 14.72L171.71 14.74H171.69L171.47 14.76L171.25 14.78L171.03 14.8L170.82 14.82H170.61L170.41 14.85H170.21L170.02 14.88H169.83L169.65 14.91H169.47L169.3 14.93H169.13L168.97 14.95H168.82L168.67 14.97H168.53L168.4 14.99H168.28L168.16 15.01H168.05L167.95 15.02H167.87H167.79L167.72 15.03H167.66H167.6H167.55H167.51H167.48L167.46 15.05V15.07V15.1V15.14L167.45 15.19V15.25L167.43 15.32V15.4L167.41 15.49V15.59L167.39 15.69V15.75V15.81V15.93L167.37 16.06V16.19L167.36 16.34V16.5L167.35 16.67V16.84V17.02V17.21V17.41V17.51V17.61V17.82L167.37 18.04L167.39 18.26L167.41 18.49L167.43 18.72L167.46 18.96L167.49 19.21L167.52 19.46L167.56 19.72L167.6 19.94V19.98L167.65 20.24L167.7 20.51L167.76 20.78L167.79 20.92L167.82 21.06L167.89 21.34L167.97 21.63L168.05 21.92L168.14 22.21L168.23 22.51L168.33 22.81L168.36 22.89L168.44 23.11L168.56 23.41L168.68 23.72L168.81 24.03L168.95 24.34L169.1 24.65L169.25 24.96L169.41 25.27L169.58 25.59L169.76 25.91L169.95 26.23L170.05 26.39L170.15 26.55L170.25 26.71L170.35 26.87L170.57 27.19L170.8 27.51L171.04 27.83L171.29 28.15L171.55 28.47L171.82 28.79L172.1 29.11L172.39 29.42L172.54 29.58L172.69 29.73L173 30.04L173.33 30.35L173.52 30.52L173.47 30.54L183.28 39.59L182.68 39.61L181.18 39.75L179.71 39.96L178.27 40.23L176.87 40.56L175.5 40.96L174.16 41.42L172.86 41.93L171.59 42.5L170.36 43.13L170.03 43.32L170.1 43.13L170.19 42.89L170.27 42.65L170.34 42.4L170.41 42.15L170.47 41.9L170.53 41.65L170.58 41.4L170.64 41.05L170.69 40.7L170.73 40.36L170.75 40.02V39.8L170.76 39.58V39.36V39.14V38.93L170.73 38.72L170.71 38.51L170.68 38.3L170.65 38.1L170.61 37.9L170.57 37.7L170.52 37.5L170.47 37.31L170.41 37.12L170.35 36.93L170.29 36.74L170.22 36.56L170.15 36.38L170.07 36.2L169.99 36.03L169.9 35.86L169.81 35.69L169.71 35.53L169.61 35.37L169.51 35.21L169.4 35.06L169.29 34.91L169.17 34.76L169.05 34.62L168.96 34.52L169.04 34.49L151.41 18.21L151.33 18.24L151.3 18.2L151.17 18.06L151.04 17.93L150.9 17.8L150.76 17.68L150.62 17.56L150.47 17.44L150.32 17.33L150.17 17.22L150.01 17.12L149.85 17.02L149.69 16.92L149.52 16.83L149.35 16.74L149.18 16.66L149 16.58L148.82 16.5L148.64 16.43L148.59 16.41L148.45 16.36L148.26 16.3L148.07 16.24L147.87 16.19L147.67 16.14L147.47 16.1L147.27 16.06L147.06 16.03L146.85 16L146.64 15.98L146.43 15.96H146.23L146.22 15.95H146L145.78 15.94H145.56L145.33 15.95H145.1L144.85 15.98L144.6 16.01L144.35 16.04L144.1 16.08L143.85 16.12L143.73 16.15L143.61 16.18L143.36 16.24L143.11 16.3L142.87 16.37L142.63 16.44L142.39 16.52L142.15 16.6L141.91 16.69L141.67 16.79L141.43 16.89L141.2 17L140.97 17.11L140.74 17.23L140.51 17.35L140.28 17.48L140.06 17.61L139.84 17.74L139.62 17.88L139.4 18.02L139.18 18.17L138.97 18.32L138.76 18.48L138.55 18.64L138.35 18.8L138.15 18.97L137.95 19.14L137.75 19.32L137.56 19.5L137.37 19.68L137.18 19.87L137 20.06L136.82 20.25L136.65 20.45L136.48 20.65L136.31 20.85L136.15 21.06L135.99 21.27L135.83 21.48L135.68 21.7L135.53 21.92L135.39 22.14L135.25 22.36L135.12 22.59L134.99 22.82L134.87 23.05L134.83 23.13L134.75 23.28L134.67 23.44L134.63 23.52L134.52 23.76L134.41 24L134.38 24.07L134.31 24.24L134.21 24.48L134.12 24.73L134.04 24.98L133.96 25.23L133.89 25.48L133.82 25.73L133.76 25.98L133.7 26.23L133.65 26.49L133.59 26.83L133.54 27.16L133.51 27.49L133.49 27.81V28.03L133.48 28.25V28.46V28.67V28.88L133.51 29.09L133.53 29.3L133.56 29.5L133.59 29.7L133.63 29.9L133.67 30.1L133.72 30.29L133.77 30.48L133.83 30.67L133.89 30.86L133.96 31.04L134 31.13L134.04 31.22L134.12 31.4L134.2 31.57L134.28 31.74L134.37 31.91L134.46 32.08L134.56 32.24L134.6 32.3L134.66 32.4L134.76 32.56L134.87 32.71L134.98 32.86L135.1 33.01L135.22 33.15L135.35 33.29L135.48 33.43L135.57 33.52L135.47 33.55L146.17 43.43L141.15 43.79L139.14 44.01L137.3 44.36L135.62 44.83L134.07 45.41L132.63 46.08L131.28 46.82L130 47.62L128.77 48.47L127.56 49.36L126.36 50.27L125.14 51.18L124.37 51.74L117.58 45.47L101.62 46.6L101.78 47.78L101.93 49.04L102.06 50.38L102.17 51.79L102.25 53.27L102.29 54.82V56.43L102.22 58.09L102.17 58.96L102.1 59.84L102.04 60.5L88.68 48.16L88.67 48.15L88.13 47.73L87.52 47.39L86.85 47.12L86.12 46.91L85.33 46.77L84.48 46.69L83.57 46.67L82.61 46.71L81.8 46.78L80.97 46.88L80.13 47.01L79.29 47.16L78.45 47.34L77.61 47.54L76.78 47.75L75.97 47.98L75.18 48.22L74.42 48.47L73.7 48.72L73.02 48.98L72.38 49.24L71.8 49.5L71.27 49.75L70.81 50L69.43 60.1L61.92 53.16L61.04 52.19L60.02 51.35L58.87 50.64L57.58 50.05L56.15 49.59L54.59 49.27L52.89 49.08L51.05 49.02L49.06 49.1L47.56 49.24L46.09 49.45L44.65 49.72L43.25 50.05L41.88 50.45L40.54 50.91L39.24 51.42L37.98 51.99L36.75 52.62L35.56 53.3L34.41 54.03L33.3 54.82L32.23 55.65L31.2 56.53L30.22 57.46L29.28 58.44L28.38 59.46L27.53 60.52L26.73 61.62L25.97 62.76L25.26 63.94L24.6 65.16L23.99 66.41L23.43 67.7L22.93 69.02L22.48 70.37L22.08 71.75L21.74 73.16L21.46 74.6L21.23 76.06L21.06 77.54L20.95 79.05L20.92 81.13L21.05 83.12L21.34 85L21.8 86.77L22.42 88.42L23.21 89.94L24.17 91.33L25.29 92.58L26.01 93.2H26L42.75 108.67L42.93 108.87L43.45 109.31L43.64 109.49H43.65L44.22 109.98L45.68 110.94L46.52 111.35L13.05 113.73L10.53 125.99L22.05 136.63L28.16 142.27L36.44 141.68L30.23 180.38H42.32L45.41 160.98L55.32 173.49H56.73L70.72 160.91L68.54 180.38H80.7L85.3 138.21L317.66 121.71L327.94 120.98L330.46 108.72L313.28 92.85L312.83 92.43L304.03 93.05L304.24 92.95L305.47 92.25L306.66 91.5L306.97 91.28L307.81 90.69L308.92 89.84L309.98 88.94L311 87.99L311.32 87.66L311.98 86.99L312.91 85.95L313.79 84.87L314.62 83.75L315.23 82.85L315.41 82.59L315.63 82.22L316.14 81.39L316.78 80.24L316.83 80.16L317.46 78.89L317.65 78.45L318.04 77.58L318.2 77.17L318.56 76.24L318.87 75.33L319.03 74.87L319.19 74.32L319.44 73.47L319.72 72.33L319.79 72.04L320.08 70.59L320.31 69.12L320.46 67.84L320.49 67.62L320.6 66.1V65.45L320.63 64.12L320.57 63.22L320.51 62.26L320.25 60.51L319.89 59.07L319.84 58.87L321.32 58.35L322.73 57.79L324.07 57.2L325.34 56.58L326.55 55.94L327.7 55.27L328.78 54.59L329.8 53.89L330.77 53.18L331.68 52.46L332.53 51.74L333.33 51.02L334.08 50.3L334.77 49.58L335.41 48.87L336 48.17L336.55 47.49L337.05 46.83L337.51 46.19L337.92 45.58L338.29 45L338.62 44.45L338.91 43.94L339.17 43.47L339.39 43.04L339.58 42.65L339.73 42.32L339.85 42.04L339.94 41.81L340 41.64L340.05 41.5L322.42 25.22V25.19ZM117.76 106.21L118.06 106.05L118.34 105.89L119.28 105.34L120.45 104.57L121.58 103.75L122.67 102.87L123.71 101.94L124.31 101.35L124.71 100.96L125.2 100.44L125.67 99.94L126.58 98.87L127.45 97.75L128.27 96.59L129.05 95.38L129.3 94.96L129.79 94.13L130.28 93.23L130.49 92.84L130.71 92.4L131.14 91.51L131.18 91.41L145.14 104.3L117.7 106.25L117.76 106.22V106.21ZM213.37 94.99L217.85 99.13L204.94 100.05L205.71 99.69L206.82 99.13L207.9 98.55L208.94 97.95L209.45 97.64L209.96 97.33L210.94 96.7L211.89 96.06L212.43 95.68L212.81 95.42L213.4 94.99H213.37ZM171.63 97.72L172.05 97.34L172.47 96.96L172.92 96.53L173.22 96.25L173.89 95.61L174.43 96.62L174.55 96.81L175.05 97.58L175.74 98.47L176.51 99.3L177.35 100.06L178.27 100.76L179.13 101.3L179.27 101.39L180.12 101.83L164.53 102.94L164.94 102.72L165.6 102.32L166.26 101.92L167.5 101.09L167.98 100.74L168.66 100.24L169.18 99.83L169.74 99.39L170.74 98.55L170.95 98.36L171.65 97.74L171.63 97.72ZM237.07 87.53L245.78 95.58L246.16 95.89L246.41 96.12L247.46 96.87L247.61 96.98L247.69 97.03L235.11 97.92L237.06 87.54L237.07 87.53ZM270.14 93.49L271.11 92.76L272.03 92.03L272.28 91.82L272.9 91.31L273.25 91.01L273.71 90.61L274.47 89.93L275.09 90.79L275.78 91.6L276.15 91.97L276.53 92.35L277.34 93.04L277.95 93.49L278.21 93.68L278.67 93.97L279.13 94.26L279.27 94.34L280.01 94.73L266.84 95.67L266.96 95.6L267.51 95.26L268.06 94.92L269.12 94.22L269.92 93.65L270.13 93.5L270.14 93.49ZM88.62 65.46L89.07 65.88L88.85 65.98L88.49 66.17L88.55 65.84L88.62 65.45V65.46ZM71.34 109.5L71.91 109.23L72.77 108.79L73.11 108.62L74.28 107.99L75.41 107.34L75.76 107.12L76.5 106.67L77.03 106.33L77.56 105.99L78.58 105.3L79.56 104.6L80.31 104.04L80.5 103.9L81.39 103.2L82.24 102.51L82.95 101.91L83.04 101.83L83.8 101.17L84.51 100.52L85.17 99.9L85.41 99.66L85.78 99.3L86.02 99.06L86.34 98.74L86.85 98.21L86.9 98.16L87.32 97.72L87.73 97.27L88.09 96.87L88.39 96.52L88.59 96.28L88.64 96.22L88.66 97.79L88.8 99.29L89 100.32L89.07 100.71L89.47 102.05L89.78 102.78L90 103.3L90.29 103.81L90.66 104.46L91.2 105.17L91.47 105.53L92.41 106.49L92.88 106.86L93.49 107.34L93.88 107.57L94.41 107.89L85.32 108.54L71.27 109.54L71.34 109.51V109.5ZM58.25 158.39L46.16 140.94L77.29 138.73L58.25 158.4V158.39Z" fill="#FEEDE4"/>
<path d="M80.68 190.82H68.52C65.53 190.82 62.69 189.55 60.69 187.32C59.75 186.27 59.05 185.06 58.6 183.76C57.98 183.87 57.35 183.93 56.71 183.93H55.3C54.27 183.93 53.27 183.78 52.3 183.49C50.94 187.79 46.92 190.82 42.29 190.82H30.2C27.12 190.82 24.2 189.47 22.21 187.13C20.22 184.79 19.35 181.69 19.83 178.65L24.12 151.91C22.98 151.44 21.92 150.77 21 149.92L3.37998 133.65C0.679984 131.16 -0.520016 127.43 0.219984 123.83L2.73998 111.57C3.68998 106.96 7.58998 103.54 12.28 103.21L20.72 102.61L18.85 100.88C18.85 100.88 18.82 100.85 18.8 100.84L18.42 100.52C18.07 100.22 17.74 99.9 17.44 99.56L16.32 98.31C16.02 97.97 15.74 97.62 15.48 97.25L14.52 95.86C14.27 95.5 14.05 95.13 13.85 94.74L13.06 93.22C12.87 92.86 12.71 92.48 12.56 92.1L11.94 90.45C11.81 90.1 11.69 89.74 11.6 89.37L11.14 87.6C11.05 87.27 10.98 86.93 10.93 86.59L10.64 84.71C10.59 84.4 10.56 84.09 10.54 83.78L10.41 81.79C10.39 81.51 10.38 81.22 10.39 80.94L10.42 78.86C10.42 78.66 10.43 78.46 10.45 78.26L10.56 76.75C10.57 76.61 10.58 76.47 10.6 76.33L10.77 74.85C10.79 74.71 10.81 74.57 10.83 74.42L11.06 72.96C11.08 72.82 11.11 72.67 11.14 72.53L11.42 71.09C11.45 70.95 11.48 70.81 11.51 70.67L11.85 69.26C11.88 69.12 11.92 68.98 11.96 68.83L12.36 67.45C12.4 67.31 12.44 67.17 12.49 67.02L12.94 65.67C12.99 65.53 13.04 65.39 13.09 65.25L13.59 63.93C13.64 63.79 13.7 63.65 13.76 63.51L14.32 62.22C14.38 62.08 14.44 61.94 14.51 61.81L15.12 60.56C15.19 60.42 15.26 60.28 15.33 60.15L15.99 58.93C16.06 58.79 16.14 58.66 16.22 58.53L16.93 57.35C17.01 57.22 17.09 57.08 17.18 56.95L17.94 55.81C18.03 55.68 18.12 55.55 18.21 55.42L19.01 54.32C19.1 54.19 19.2 54.07 19.3 53.94L20.15 52.88C20.25 52.75 20.35 52.63 20.46 52.51L21.36 51.49C21.47 51.37 21.58 51.25 21.69 51.13L22.63 50.15C22.74 50.03 22.86 49.92 22.98 49.81L23.96 48.88C24.08 48.77 24.2 48.66 24.32 48.55L25.35 47.67C25.48 47.56 25.61 47.46 25.74 47.35L26.81 46.52C26.94 46.42 27.07 46.32 27.21 46.22L28.32 45.43C28.46 45.33 28.59 45.24 28.73 45.15L29.88 44.42C30.02 44.33 30.16 44.24 30.31 44.16L31.5 43.48C31.65 43.4 31.79 43.32 31.94 43.24L33.17 42.61C33.32 42.53 33.47 42.46 33.62 42.39L34.88 41.82C35.03 41.75 35.19 41.68 35.35 41.62L36.65 41.11C36.8 41.05 36.96 40.99 37.12 40.94L38.46 40.48C38.62 40.43 38.78 40.38 38.94 40.33L40.31 39.93C40.47 39.88 40.63 39.84 40.79 39.8L42.19 39.47C42.35 39.43 42.51 39.4 42.67 39.37L44.11 39.1C44.27 39.07 44.43 39.04 44.6 39.02L46.07 38.81C46.23 38.79 46.39 38.77 46.55 38.75L48.05 38.61C48.24 38.59 48.43 38.58 48.62 38.57L50.61 38.49C50.86 38.49 51.1 38.48 51.35 38.49L53.19 38.55C53.47 38.55 53.76 38.58 54.04 38.61L55.74 38.8C56.06 38.84 56.38 38.89 56.7 38.95L58.26 39.27C58.62 39.34 58.98 39.44 59.33 39.55L60.76 40.01C61.15 40.13 61.53 40.28 61.91 40.45L63.2 41.04C63.6 41.22 63.99 41.43 64.37 41.66C64.84 41.3 65.35 40.97 65.88 40.68L66.34 40.43C66.46 40.36 66.59 40.3 66.71 40.24L67.24 39.99C67.35 39.94 67.45 39.89 67.56 39.84L68.14 39.58C68.23 39.54 68.32 39.5 68.42 39.46L69.06 39.2C69.14 39.17 69.22 39.14 69.3 39.11L69.98 38.85C70.05 38.82 70.13 38.79 70.21 38.77L70.93 38.52C71 38.49 71.08 38.47 71.15 38.45L71.91 38.2C71.98 38.18 72.05 38.15 72.12 38.13L72.91 37.89C72.98 37.87 73.05 37.85 73.12 37.83L73.93 37.6C74 37.58 74.07 37.56 74.15 37.54L74.98 37.33C75.05 37.31 75.13 37.29 75.2 37.27L76.04 37.07C76.12 37.05 76.2 37.03 76.28 37.02L77.12 36.84C77.21 36.82 77.3 36.8 77.38 36.79L78.22 36.64C78.31 36.62 78.41 36.61 78.5 36.59L79.34 36.46C79.45 36.44 79.55 36.43 79.66 36.42L80.49 36.32C80.61 36.31 80.72 36.29 80.84 36.28L81.65 36.21C81.81 36.2 81.97 36.18 82.13 36.18L83.09 36.14C83.31 36.14 83.53 36.13 83.75 36.14L84.66 36.16C84.92 36.16 85.17 36.18 85.42 36.2L86.27 36.28C86.56 36.31 86.86 36.35 87.15 36.4L87.94 36.54C88.28 36.6 88.62 36.68 88.96 36.77L89.69 36.98C90.07 37.09 90.45 37.22 90.81 37.37L91.48 37.64C91.89 37.81 92.29 38 92.67 38.22L93.28 38.56C93.59 38.73 93.89 38.92 94.18 39.13C95.96 37.35 98.33 36.26 100.86 36.08L116.82 34.95C119.71 34.74 122.56 35.74 124.69 37.71L125.21 38.19L125.68 37.89C125.68 37.89 125.7 37.88 125.71 37.87C125.66 37.78 125.58 37.66 125.53 37.58L125.43 37.42C125.38 37.33 125.33 37.24 125.28 37.16L125.19 36.99C125.14 36.91 125.1 36.83 125.06 36.75L124.97 36.58C124.93 36.49 124.88 36.41 124.84 36.32L124.76 36.15C124.72 36.06 124.67 35.97 124.63 35.88L124.55 35.71C124.51 35.63 124.48 35.54 124.44 35.46L124.36 35.28C124.32 35.19 124.29 35.1 124.25 35.01C124.21 34.92 124.11 34.65 124.08 34.55L124.01 34.37C123.98 34.29 123.95 34.2 123.92 34.12L123.86 33.93C123.83 33.84 123.8 33.74 123.77 33.65L123.71 33.46C123.68 33.37 123.66 33.28 123.63 33.19L123.58 33C123.56 32.92 123.54 32.83 123.52 32.75L123.47 32.56C123.45 32.46 123.42 32.37 123.4 32.27L123.36 32.07C123.34 31.98 123.32 31.89 123.31 31.8L123.27 31.6C123.25 31.52 123.24 31.43 123.23 31.35L123.2 31.15C123.18 31.05 123.17 30.96 123.16 30.86L123.13 30.66C123.12 30.57 123.11 30.49 123.1 30.4L123.08 30.19C123.08 30.1 123.06 30.02 123.06 29.93L123.04 29.72C123.04 29.63 123.03 29.54 123.02 29.45V29.24C123 29.15 123 29.06 123 28.97V28.76C123 28.68 122.99 28.6 122.99 28.52V28.31C122.99 28.22 122.99 28.13 122.99 28.04V27.82C122.99 27.73 122.99 27.65 123 27.56V27.34C123.01 27.24 123.02 27.13 123.03 27.03L123.05 26.71C123.05 26.59 123.07 26.47 123.08 26.35L123.11 26.02C123.12 25.9 123.14 25.78 123.15 25.66L123.2 25.33C123.22 25.21 123.24 25.1 123.26 24.98L123.32 24.64C123.34 24.55 123.35 24.46 123.37 24.38L123.42 24.12C123.44 24.04 123.45 23.96 123.47 23.89L123.53 23.64C123.55 23.56 123.57 23.49 123.58 23.41L123.64 23.16C123.66 23.09 123.68 23.01 123.7 22.94L123.77 22.69C123.79 22.61 123.81 22.54 123.84 22.46L123.91 22.21C123.93 22.14 123.95 22.06 123.98 21.99L124.06 21.74C124.08 21.67 124.1 21.6 124.13 21.54L124.21 21.29C124.24 21.21 124.26 21.14 124.29 21.06L124.38 20.81C124.4 20.74 124.43 20.68 124.46 20.61L124.56 20.37C124.59 20.3 124.61 20.24 124.64 20.17L124.71 20C124.74 19.93 124.79 19.8 124.82 19.73L124.93 19.49C124.96 19.42 124.99 19.36 125.02 19.29L125.13 19.05C125.16 18.98 125.2 18.91 125.23 18.84L125.33 18.64C125.36 18.57 125.4 18.5 125.44 18.43L125.52 18.28C125.55 18.22 125.62 18.09 125.65 18.03L125.77 17.8C125.8 17.74 125.84 17.67 125.88 17.61L126.01 17.38C126.04 17.32 126.08 17.26 126.11 17.21L126.24 16.98C126.27 16.92 126.31 16.87 126.34 16.81L126.48 16.59C126.52 16.53 126.55 16.48 126.59 16.42L126.73 16.2C126.77 16.14 126.81 16.08 126.85 16.02L127 15.8C127.04 15.75 127.07 15.69 127.11 15.64L127.26 15.42C127.3 15.37 127.33 15.31 127.37 15.26L127.53 15.05C127.57 15 127.61 14.94 127.65 14.89L127.81 14.68C127.85 14.63 127.89 14.57 127.94 14.52L128.1 14.31C128.1 14.31 128.18 14.22 128.21 14.17L128.38 13.97C128.43 13.91 128.47 13.86 128.52 13.8L128.69 13.6C128.69 13.6 128.76 13.52 128.8 13.47L128.97 13.27C129.02 13.22 129.06 13.16 129.11 13.11L129.29 12.92C129.29 12.92 129.38 12.82 129.43 12.77L129.61 12.58C129.61 12.58 129.69 12.5 129.73 12.46L129.92 12.27C129.97 12.22 130.02 12.17 130.07 12.12L130.26 11.94C130.26 11.94 130.35 11.85 130.4 11.81L130.59 11.63C130.59 11.63 130.68 11.54 130.73 11.5L130.93 11.32C130.93 11.32 131.03 11.23 131.08 11.19L131.28 11.02C131.28 11.02 131.38 10.94 131.43 10.89L131.63 10.72C131.68 10.68 131.73 10.63 131.79 10.59L131.99 10.43C131.99 10.43 132.09 10.35 132.14 10.31L132.35 10.15C132.4 10.11 132.46 10.07 132.51 10.03L132.72 9.87C132.77 9.83 132.82 9.79 132.87 9.76L133.08 9.61C133.14 9.57 133.19 9.53 133.25 9.49L133.47 9.34C133.53 9.3 133.58 9.26 133.64 9.23L133.86 9.09C133.92 9.05 133.97 9.02 134.03 8.98L134.25 8.84C134.31 8.8 134.37 8.76 134.43 8.73L134.65 8.6C134.71 8.57 134.76 8.53 134.82 8.5L135.04 8.37C135.1 8.34 135.15 8.3 135.21 8.27L135.44 8.14C135.5 8.1 135.57 8.07 135.63 8.04L135.86 7.92C135.92 7.89 135.99 7.85 136.05 7.82L136.28 7.7C136.35 7.67 136.42 7.63 136.48 7.6L136.71 7.49C136.77 7.46 136.83 7.43 136.89 7.41L137.12 7.3C137.19 7.27 137.26 7.24 137.33 7.21L137.57 7.11C137.64 7.08 137.71 7.05 137.78 7.03L138.02 6.93C138.09 6.9 138.15 6.88 138.22 6.85L138.46 6.76C138.53 6.73 138.6 6.71 138.67 6.68L138.91 6.6C138.98 6.57 139.05 6.55 139.13 6.53L139.37 6.45C139.45 6.42 139.52 6.4 139.6 6.38L139.84 6.31C139.91 6.29 139.99 6.27 140.06 6.24L140.3 6.17C140.37 6.15 140.44 6.13 140.52 6.11L140.77 6.05C140.85 6.03 140.93 6.01 141.01 5.99L141.26 5.93C141.35 5.91 141.44 5.89 141.52 5.87L141.73 5.83C141.82 5.81 141.91 5.79 142.01 5.78L142.26 5.74C142.33 5.73 142.41 5.71 142.48 5.7L142.73 5.66C142.81 5.65 142.89 5.64 142.97 5.62L143.22 5.59C143.31 5.58 143.41 5.57 143.51 5.56L143.76 5.53C143.84 5.53 143.92 5.51 144 5.51L144.25 5.49C144.33 5.49 144.42 5.48 144.5 5.47H144.73C144.81 5.45 144.89 5.45 144.97 5.44H145.2C145.28 5.43 145.37 5.43 145.45 5.43H145.67C145.75 5.43 145.84 5.43 145.92 5.43H146.14C146.23 5.43 146.31 5.43 146.4 5.43H146.62C146.7 5.44 146.8 5.45 146.88 5.45H147.08C147.17 5.47 147.25 5.47 147.34 5.48L147.55 5.5C147.63 5.5 147.72 5.52 147.8 5.52L148.01 5.54C148.1 5.54 148.18 5.56 148.27 5.57L148.48 5.6C148.57 5.61 148.67 5.63 148.76 5.64L148.97 5.67C149.05 5.68 149.13 5.7 149.21 5.71L149.41 5.75C149.51 5.77 149.6 5.79 149.7 5.81L149.9 5.85C149.98 5.87 150.07 5.89 150.15 5.91L150.35 5.96C150.44 5.98 150.53 6 150.62 6.03L150.82 6.08C150.91 6.1 151.01 6.13 151.1 6.16L151.29 6.22C151.37 6.24 151.46 6.27 151.54 6.3L151.73 6.36C151.82 6.39 151.91 6.42 152 6.45L152.14 6.5C152.23 6.53 152.37 6.58 152.46 6.62L152.64 6.69C152.73 6.72 152.81 6.76 152.9 6.79L153.08 6.87C153.17 6.91 153.26 6.94 153.34 6.98L153.52 7.06C153.61 7.1 153.71 7.15 153.8 7.19L153.97 7.27C154.04 7.31 154.12 7.34 154.19 7.38L154.36 7.47C154.46 7.52 154.56 7.57 154.65 7.63L154.82 7.72C154.9 7.77 154.99 7.82 155.07 7.86L155.23 7.96C155.31 8.01 155.4 8.06 155.48 8.11L155.64 8.21C155.72 8.26 155.8 8.31 155.88 8.37L156.04 8.47C156.12 8.53 156.21 8.58 156.29 8.64L156.44 8.75C156.52 8.81 156.6 8.87 156.69 8.93L156.84 9.04C156.92 9.1 156.99 9.16 157.07 9.22L157.22 9.34C157.3 9.4 157.38 9.47 157.45 9.53L157.59 9.65C157.66 9.71 157.72 9.76 157.79 9.82C157.94 9.93 158.08 10.05 158.22 10.17C158.82 9.03 159.63 8 160.6 7.15C162.34 5.63 164.56 4.71 166.86 4.57C166.89 4.57 166.93 4.57 166.94 4.57C166.97 4.57 167.02 4.57 167.05 4.57L167.9 15.04L167.2 4.56L168.09 15.02L167.33 4.55L170.97 4.29C170.97 4.29 171.05 4.29 171.09 4.29L171.43 4.27C171.43 4.27 171.47 4.27 171.49 4.27L178.72 3.76C181.2 3.58 183.65 4.29 185.64 5.73C187.38 4.04 189.69 2.98 192.2 2.8L204.12 1.95C204.12 1.95 204.23 1.95 204.24 1.95L204.84 9.86L204.86 9.76C204.86 9.76 204.86 9.74 204.86 9.72L204.38 1.94L205.54 1.86C205.54 1.86 205.66 1.86 205.67 1.86C205.68 1.86 205.76 1.86 205.77 1.86L206.14 6.36C206.14 6.36 206.19 6.28 206.21 6.24L205.91 1.85C205.91 1.85 206.03 1.85 206.07 1.84C207.51 1.74 208.96 1.94 210.3 2.42C211.55 1.77 212.95 1.36 214.42 1.25L230.16 0.029996C233.05 -0.180004 235.9 0.819996 238.03 2.79L255.66 19.07C258.32 21.52 259.52 25.17 258.86 28.72L258.35 31.45L259.22 30.74C259.35 30.64 259.48 30.54 259.61 30.44L260.72 29.62C260.85 29.52 260.99 29.42 261.13 29.33L262.28 28.56C262.42 28.47 262.55 28.38 262.69 28.3L263.88 27.58C264.02 27.49 264.16 27.41 264.31 27.33L265.54 26.66C265.68 26.58 265.83 26.51 265.97 26.44L267.24 25.82C267.39 25.75 267.54 25.68 267.69 25.62L269 25.06C269.15 25 269.3 24.94 269.45 24.88L270.8 24.37C270.95 24.31 271.1 24.26 271.25 24.21L272.64 23.76C272.79 23.71 272.94 23.66 273.1 23.62L274.52 23.23C274.67 23.19 274.82 23.15 274.97 23.12L276.43 22.79C276.58 22.76 276.73 22.72 276.89 22.7L278.38 22.43C278.53 22.4 278.68 22.38 278.83 22.36L280.35 22.15C280.5 22.13 280.65 22.11 280.8 22.1L282.36 21.96C282.56 21.94 282.76 21.93 282.96 21.92L285.53 21.83C285.81 21.83 286.09 21.83 286.37 21.83L288.78 21.94C289.09 21.95 289.41 21.98 289.72 22.03L291.96 22.33C292.31 22.38 292.66 22.44 293 22.53L295.07 23.03C295.45 23.12 295.82 23.23 296.19 23.37L297.89 23.98L298.56 22.74L299.06 21.68C300.68 18.26 304.02 15.98 307.8 15.71L321.7 14.72C324.59 14.51 327.44 15.51 329.57 17.48L347.2 33.76C350.32 36.64 351.4 41.12 349.93 45.11L349.88 45.25C349.85 45.32 349.83 45.39 349.8 45.46L349.74 45.63C349.72 45.69 349.69 45.75 349.67 45.8L349.58 46.03C349.55 46.1 349.52 46.16 349.5 46.23L349.38 46.51C349.35 46.57 349.32 46.64 349.3 46.7L349.15 47.04C349.12 47.1 349.09 47.17 349.06 47.23L348.87 47.62C348.84 47.69 348.8 47.76 348.77 47.83L348.55 48.26C348.51 48.33 348.48 48.4 348.44 48.47L348.18 48.94C348.14 49.01 348.1 49.08 348.06 49.15L347.77 49.66C347.73 49.73 347.69 49.8 347.64 49.88L347.31 50.43C347.26 50.51 347.22 50.58 347.17 50.66L346.8 51.24C346.75 51.31 346.7 51.39 346.65 51.46L346.24 52.07C346.19 52.15 346.13 52.23 346.08 52.3L345.62 52.94C345.56 53.02 345.51 53.09 345.45 53.17L344.95 53.83C344.89 53.91 344.83 53.99 344.76 54.07L344.21 54.75C344.15 54.83 344.08 54.91 344.01 54.99L343.42 55.69C343.35 55.77 343.28 55.85 343.21 55.93L342.57 56.64C342.5 56.72 342.42 56.8 342.35 56.88L341.66 57.6C341.58 57.68 341.5 57.76 341.42 57.84L340.67 58.56C340.59 58.64 340.5 58.72 340.42 58.8L339.62 59.52C339.53 59.6 339.45 59.68 339.36 59.75L338.51 60.47C338.42 60.55 338.32 60.62 338.23 60.7L337.32 61.42C337.22 61.5 337.13 61.57 337.03 61.64L336.06 62.35C335.96 62.42 335.86 62.5 335.75 62.57L334.73 63.27C334.63 63.34 334.52 63.41 334.41 63.48L333.33 64.16C333.22 64.23 333.11 64.29 333 64.36L331.85 65.03C331.74 65.09 331.63 65.16 331.51 65.22L331.14 65.42V66.28C331.12 66.48 331.11 66.68 331.1 66.88L330.99 68.4C330.98 68.55 330.97 68.69 330.95 68.84L330.78 70.34C330.76 70.49 330.74 70.63 330.72 70.78L330.49 72.25C330.47 72.4 330.44 72.54 330.41 72.69L330.12 74.14C330.09 74.29 330.06 74.44 330.02 74.59L329.67 76.01C329.63 76.16 329.59 76.3 329.55 76.45L329.14 77.85C329.1 77.99 329.05 78.14 329 78.28L328.53 79.65C328.48 79.79 328.43 79.94 328.37 80.08L327.85 81.41C327.79 81.55 327.73 81.7 327.67 81.84L327.09 83.15C327.03 83.29 326.96 83.43 326.9 83.57L326.27 84.84C326.2 84.98 326.13 85.12 326.05 85.25L325.37 86.49C325.29 86.63 325.22 86.76 325.13 86.89L324.39 88.09C324.31 88.22 324.23 88.35 324.14 88.48L324.1 88.53L337.61 101.01C340.31 103.5 341.51 107.23 340.77 110.83L338.25 123.09C337.3 127.7 333.4 131.12 328.71 131.45L94.82 148.06L91.17 181.51C90.59 186.84 86.09 190.87 80.73 190.87L80.68 190.82ZM36.42 131.12C37.88 131.12 39.32 131.43 40.63 132C42.05 131.12 43.69 130.57 45.42 130.45L76.55 128.24C77.95 128.14 79.32 128.32 80.6 128.75C81.8 128.15 83.13 127.78 84.54 127.68L317.63 111.13L309.02 103.18L304.75 103.48C299.76 103.83 295.22 100.62 293.89 95.8C292.56 90.99 294.8 85.9 299.25 83.64L300.93 82.62L302.28 81.62L303.78 80.27L304.88 79.09L306.01 77.63L307.02 76.06L308 74.15L308.65 72.58L309.25 70.68L309.7 68.68L309.99 66.59L310.07 65.25V64.34L310.02 63.34L309.9 62.53L309.61 61.37C308.31 56.12 311.21 50.75 316.3 48.95L318.63 48.08L320.53 47.2L322.21 46.27L323.68 45.3L324.97 44.32L326.32 43.11L318.61 35.99L314.95 36.25C314.89 36.35 314.83 36.44 314.76 36.54L314.14 37.44C314.05 37.57 313.96 37.69 313.87 37.81L313.25 38.63C313.16 38.76 313.06 38.88 312.96 39L312.34 39.75C312.24 39.88 312.13 40 312.02 40.12L311.4 40.8C311.29 40.92 311.18 41.04 311.06 41.16L310.45 41.77C310.33 41.89 310.21 42.01 310.08 42.13L309.48 42.68C309.35 42.8 309.22 42.91 309.09 43.02L308.49 43.51C308.35 43.62 308.22 43.73 308.07 43.84L307.49 44.27C307.35 44.38 307.2 44.48 307.06 44.57L306.49 44.95C306.35 45.05 306.2 45.14 306.05 45.23L305.49 45.56C305.34 45.65 305.18 45.74 305.03 45.82L304.49 46.11C304.33 46.19 304.18 46.27 304.02 46.35L303.5 46.59C299.64 48.39 295.08 47.69 291.95 44.81L291.15 44.07L290.8 43.83L290.29 43.57L289.56 43.3L288.58 43.06L287.33 42.89L285.81 42.82L283.96 42.88L281.86 43.12L279.82 43.53L277.92 44.1L276.16 44.81L274.52 45.65L273.01 46.62L271.62 47.7L270.35 48.9L269.19 50.22L268.15 51.66L267.66 52.45C266.07 55.18 263.34 57.05 260.22 57.54C257.05 58.04 253.82 57.06 251.46 54.88L241.17 45.41C237.49 43.13 235.59 38.81 236.38 34.55L237.13 30.55L227.1 21.29L223.92 21.52C222.98 24.86 220.44 27.55 217.11 28.65C213.48 29.85 209.49 28.99 206.69 26.4L203.01 23.01L199.83 23.26L199.77 23.37C199.77 23.37 199.74 23.43 199.72 23.46L199.38 24.06C199.38 24.06 199.35 24.12 199.33 24.15L199.18 24.4C199.18 24.4 199.15 24.46 199.13 24.49L198.99 24.73C198.99 24.73 198.95 24.79 198.94 24.82L198.8 25.06C198.8 25.06 198.76 25.13 198.74 25.16L198.6 25.39C198.6 25.39 198.56 25.45 198.55 25.48L198.4 25.71C198.4 25.71 198.36 25.78 198.34 25.81L198.2 26.03C198.2 26.03 198.16 26.09 198.14 26.12L198 26.33C198 26.33 197.95 26.4 197.93 26.43L197.81 26.61C197.81 26.61 197.75 26.69 197.73 26.73L197.59 26.93C197.59 26.93 197.55 26.99 197.53 27.01L197.39 27.21C197.39 27.21 197.34 27.28 197.31 27.32L197.17 27.51C197.17 27.51 197.13 27.57 197.11 27.59L196.97 27.78C196.97 27.78 196.93 27.84 196.91 27.87L196.55 28.33C196.55 28.33 196.5 28.39 196.47 28.43L196.33 28.6C196.33 28.6 196.28 28.66 196.26 28.68L196.19 28.77C194.8 30.46 192.93 31.66 190.85 32.23C193.64 35.12 194.55 39.36 193.15 43.16C191.68 47.15 187.95 49.85 183.71 50.02H183.4L181.44 50.26L179.57 50.66L177.82 51.21L176.18 51.9L175.28 52.37C171.43 54.57 166.62 54.11 163.25 51.24C160.09 48.54 158.84 44.27 159.99 40.33L145.24 26.71L144.45 27.48L153.31 35.66C156.39 38.5 157.48 42.9 156.09 46.85C154.7 50.8 151.1 53.55 146.93 53.85L142.11 54.19L140.72 54.34L139.73 54.53L138.89 54.77L138.13 55.05L137.39 55.39L136.63 55.81L134.88 56.97L131.45 59.53C131.4 59.57 131.34 59.61 131.29 59.65L130.52 60.21C126.47 63.12 120.93 62.78 117.27 59.4L113.81 56.21L112.8 56.28V56.43C112.8 56.54 112.8 56.65 112.8 56.76L112.74 58.42C112.74 58.51 112.74 58.59 112.73 58.68L112.68 59.55C112.68 59.6 112.68 59.66 112.67 59.71L112.6 60.59C112.6 60.64 112.6 60.7 112.59 60.75L112.53 61.41C112.16 65.39 109.57 68.82 105.84 70.25C103.49 71.15 100.94 71.17 98.64 70.37C98.18 71.34 97.58 72.23 96.85 73.02C97.39 74.28 97.68 75.67 97.68 77.13C97.68 81.12 95.46 84.59 92.18 86.37C92.19 86.37 92.2 86.37 92.21 86.38C96.35 87.86 99.15 91.74 99.2 96.13L99.27 97.82L99.54 98.71L99.89 98.92C103.81 101.28 105.75 105.91 104.68 110.37C103.61 114.82 99.78 118.07 95.21 118.39L72.07 120.03C67.02 120.39 62.43 117.09 61.16 112.19C59.89 107.29 62.29 102.18 66.88 100.04L68.31 99.34L71.82 97.26L74.18 95.57L76.86 93.35L80.61 89.55C81.49 88.5 82.54 87.66 83.7 87.04C79.62 85.6 76.69 81.71 76.69 77.14C76.69 74.64 77.56 72.35 79.01 70.55C78.38 69.16 78.05 67.63 78.07 66.08C76.85 67.83 75.09 69.2 73.01 69.95C69.33 71.27 65.21 70.44 62.34 67.78L54.83 60.84C54.58 60.61 54.34 60.36 54.11 60.11L53.83 59.83L53.52 59.73L52.97 59.62L52.17 59.53L51.12 59.5L49.79 59.55L47.83 59.78L45.95 60.18L44.2 60.73L42.56 61.42L41.03 62.25L39.6 63.21L38.27 64.3L37.04 65.52L35.91 66.86L34.89 68.33L33.99 69.92L33.21 71.63L32.56 73.46L32.05 75.4L31.69 77.44L31.49 79.82C33 75.88 36.82 73.08 41.29 73.08H41.3C46.79 73.08 51.3 77.3 51.76 82.67C52.8 82.33 53.91 82.14 55.06 82.14H55.07C60.87 82.14 65.57 86.84 65.57 92.64C65.57 98.44 60.87 103.14 55.07 103.14C54.3 103.14 53.54 103.06 52.82 102.9C56.03 105.27 57.66 109.32 56.87 113.34C55.96 118 52.04 121.47 47.31 121.81L23.39 123.51L32 131.46L35.75 131.19C36 131.17 36.25 131.16 36.49 131.16L36.42 131.12ZM42.34 93.98L45.34 96.75C44.9 95.74 44.62 94.65 44.52 93.5C43.82 93.73 43.09 93.89 42.33 93.97L42.34 93.98ZM80.31 57.62L80.07 59.36C80.63 58.58 81.29 57.88 82.03 57.28L80.3 57.63L80.31 57.62ZM117.69 116.74C113.03 116.74 108.88 113.65 107.59 109.11C106.23 104.33 108.42 99.25 112.82 96.94C112.82 96.94 112.9 96.9 112.91 96.89L113.73 96.41L115.18 95.41L116.54 94.26L117.81 92.95L119 91.48L120.25 89.61L121.27 87.76L121.62 87.04C123.01 83.99 125.77 81.79 129.05 81.12C132.37 80.44 135.81 81.39 138.3 83.69L152.26 96.58C153.22 97.47 153.99 98.51 154.55 99.65C155.36 97.17 157.09 95.01 159.51 93.7L160.58 93.06L163.09 91.23L166 88.63L166.63 88.02C169 85.75 172.3 84.72 175.54 85.24C178.78 85.76 181.6 87.76 183.15 90.65L183.76 91.66L184.26 92.11L184.96 92.5C189.13 94.67 191.35 99.34 190.4 103.95C189.45 108.55 185.55 111.96 180.86 112.29L165.27 113.4C160.96 113.71 156.97 111.35 155.11 107.58C155.09 107.65 155.06 107.72 155.04 107.78C153.65 111.73 150.05 114.48 145.88 114.78L118.44 116.73C118.19 116.75 117.94 116.76 117.69 116.76V116.74ZM204.93 110.55C200.19 110.55 196 107.36 194.78 102.71C193.5 97.82 195.88 92.72 200.45 90.56L201.94 89.83L204.39 88.42L207.16 86.53C211.21 83.56 216.8 83.87 220.49 87.28L224.97 91.42C225.17 91.61 225.37 91.8 225.55 92L226.75 85.6C227.45 81.85 230.14 78.77 233.77 77.57C237.4 76.37 241.39 77.23 244.2 79.82L252.61 87.59C252.75 87.7 252.88 87.8 253.01 87.92L253.65 88.37C255.07 89.36 256.2 90.67 256.97 92.15C257.79 89.85 259.4 87.83 261.64 86.55L263.2 85.55L265.59 83.75L267.46 82.13C269.68 80.14 272.64 79.18 275.6 79.5C278.56 79.82 281.25 81.38 283 83.8L283.69 84.66L284.34 85.13L284.88 85.41C289.05 87.58 291.27 92.25 290.32 96.86C289.37 101.46 285.47 104.87 280.78 105.2L267.61 106.14C263.39 106.44 259.47 104.18 257.56 100.53C256.18 104.42 252.65 107.2 248.45 107.5L235.87 108.39C232.62 108.62 229.45 107.33 227.29 104.9C227.16 104.75 227.03 104.6 226.91 104.45C225.18 107.4 222.09 109.37 218.59 109.62L205.68 110.54C205.43 110.56 205.18 110.57 204.93 110.57V110.55Z" fill="#FDECE3"/>
<path d="M106.55 148.55C94.74 148.55 87.01 156.35 87.01 167.81C87.01 176.11 92.49 181.24 101.77 181.24C113.44 181.24 121.24 172.95 121.24 161.56C121.24 153.34 115.76 148.56 106.55 148.56V148.55ZM103.74 172.1C100.58 172.1 99.59 170.06 99.59 166.41C99.59 162.19 101.21 157.69 105.07 157.69C107.25 157.69 108.58 159.45 108.58 163.03C108.58 167.32 106.89 172.1 103.73 172.1H103.74Z" fill="#FEEDE4"/>
<path d="M101.77 191.74C86.9 191.74 76.51 181.9 76.51 167.81C76.51 150.57 89.14 138.05 106.55 138.05C121.62 138.05 131.74 147.5 131.74 161.55C131.74 179.04 119.13 191.73 101.77 191.73V191.74ZM98.38 163.91C99.2 165.77 101.59 168.19 105.07 168.19C107.3 168.19 109.06 166.94 109.84 165.91C108.99 163.81 106.35 161.61 103.73 161.61C101.11 161.61 99.3 162.87 98.37 163.92L98.38 163.91Z" fill="#FDECE3"/>
<path d="M136.71 156.42C138.47 156.42 141.14 157.12 141.28 160.01L150.07 157.62C150.07 151.57 144.09 148.55 136.92 148.55C129.12 148.55 122.93 152.42 122.93 159.16C122.93 169.85 138.4 168.3 138.4 171.53C138.4 172.3 137.42 173.01 134.96 173.01C130.95 173.01 126.81 170.62 124.84 168.72L120.34 176.8C121.54 178 125.96 181.23 134.12 181.23C142.28 181.23 149.09 177.22 149.09 170.54C149.09 160.28 133.62 162.17 133.62 158.17C133.62 156.98 135.03 156.41 136.71 156.41V156.42Z" fill="#FEEDE4"/>
<path d="M134.1 191.74C121.39 191.74 114.66 186 112.9 184.24C109.58 180.92 108.87 175.81 111.15 171.71L113.9 166.78C112.98 164.63 112.43 162.12 112.43 159.18C112.43 146.95 122.73 138.07 136.92 138.07C151.11 138.07 160.57 146.12 160.57 157.64C160.57 159.98 159.8 162.17 158.47 163.94C159.18 165.85 159.59 168.05 159.59 170.57C159.59 182.85 148.88 191.76 134.12 191.76L134.1 191.74Z" fill="#FDECE3"/>
<path d="M168.97 141.31L156.67 142.15L155.62 149.46H151.68L150.41 158.6H154.35L152.87 169C151.75 177.15 155.47 181.23 163.56 181.23C166.44 181.23 171.36 180.67 174.25 178.98L174.95 170.26C172.98 171.38 170.87 171.88 168.83 171.88C165.46 171.88 164.75 170.19 165.32 166.54L166.44 158.6H175.16L176.35 149.46H167.77L168.97 141.31Z" fill="#FEEDE4"/>
<path d="M163.56 191.74C154.54 191.74 149.48 188.1 146.82 185.04C144.16 181.99 141.25 176.48 142.48 167.57L142.74 165.76C142.66 165.68 142.58 165.59 142.51 165.5C140.52 163.21 139.61 160.17 140.03 157.16L141.3 148.02C141.75 144.76 143.67 142.02 146.33 140.43C147.12 135.64 151.11 132 155.97 131.67L168.27 130.83C171.44 130.61 174.54 131.84 176.69 134.17C178.05 135.64 178.95 137.45 179.31 139.38C181.21 139.93 182.93 141.02 184.26 142.53C186.25 144.8 187.17 147.82 186.78 150.82L185.59 159.96C185.37 161.68 184.73 163.25 183.8 164.59C185.02 166.49 185.62 168.78 185.43 171.11L184.73 179.83C184.45 183.25 182.53 186.32 179.57 188.05C173.72 191.47 165.85 191.74 163.58 191.74H163.56Z" fill="#FDECE3"/>
<path d="M211.78 143.07C216.07 143.07 218.11 145.18 218.74 149.12L230.06 145.6C230.06 138.01 223.8 133.02 213.89 133.02C202.22 133.02 194.21 139.98 194.21 149.26C194.21 164.3 216.35 162.34 216.35 167.89C216.35 169.58 213.75 170.28 210.3 170.28C204.18 170.28 199.76 168.03 196.52 164.66L191.18 175.42C194.55 178.79 201.3 181.25 208.19 181.25C219.44 181.25 228.37 174.78 228.37 165.08C228.37 151.37 206.65 153.41 206.65 146.52C206.65 144.41 208.41 143.08 211.78 143.08V143.07Z" fill="#FEEDE4"/>
<path d="M208.2 191.74C198.62 191.74 189.26 188.33 183.76 182.83C180.57 179.64 179.77 174.77 181.78 170.73L186.74 160.75C184.89 157.69 183.71 153.92 183.71 149.25C183.71 134.01 196.69 122.51 213.89 122.51C229.59 122.51 240.56 132 240.56 145.59C240.56 149.12 238.79 152.34 235.98 154.26C237.74 157.13 238.87 160.67 238.87 165.06C238.87 180.26 225.68 191.73 208.19 191.73L208.2 191.74Z" fill="#FDECE3"/>
<path d="M263.67 156.49L243 133.93H237.73L231.47 180.32H244.19L247.22 157.9L267.88 180.32H273.16L279.48 133.93H266.76L263.67 156.49Z" fill="#FEEDE4"/>
<path d="M273.16 190.82H267.89C264.96 190.82 262.16 189.59 260.17 187.44L254.64 181.44L254.6 181.72C253.9 186.93 249.45 190.82 244.19 190.82H231.47C228.44 190.82 225.56 189.51 223.56 187.23C221.56 184.95 220.65 181.92 221.06 178.92L227.32 132.52C228.02 127.31 232.47 123.42 237.73 123.42H243C245.94 123.42 248.75 124.66 250.74 126.83L256.3 132.9L256.36 132.5C257.07 127.3 261.51 123.43 266.76 123.43H279.48C282.51 123.43 285.4 124.74 287.39 127.03C289.38 129.31 290.29 132.35 289.88 135.35L283.55 181.75C282.84 186.95 278.4 190.83 273.15 190.83L273.16 190.82Z" fill="#FDECE3"/>
<path d="M302.47 133.93H286.93L280.6 180.33H293.32L294.66 170.28H298.25C312.66 170.28 321.59 161.84 321.59 148.56C321.59 139.28 315.54 133.94 302.47 133.94V133.93ZM298.67 159.94H296.07L298.18 144.33H301.48C306.19 144.33 308.37 146.16 308.37 150.8C308.37 156.7 305.07 159.94 298.67 159.94Z" fill="#FEEDE4"/>
<path d="M293.33 190.82H280.61C277.58 190.82 274.69 189.51 272.7 187.22C270.71 184.94 269.8 181.9 270.21 178.9L276.54 132.5C277.25 127.3 281.69 123.42 286.94 123.42H302.48C329.96 123.42 332.1 142.65 332.1 148.54C332.1 165.96 320.99 178.21 303.92 180.41L303.75 181.7C303.06 186.92 298.61 190.82 293.34 190.82H293.33Z" fill="#FDECE3"/>
<path d="M196.89 132.92H162.89V169.92H196.89V132.92Z" fill="#FDECE3"/>
<path d="M196.89 180.42H162.89C157.09 180.42 152.39 175.72 152.39 169.92V132.92C152.39 127.12 157.09 122.42 162.89 122.42H196.89C202.69 122.42 207.39 127.12 207.39 132.92V169.92C207.39 175.72 202.69 180.42 196.89 180.42ZM173.39 159.42H186.39V143.42H173.39V159.42Z" fill="#FEEDE4"/>
<path d="M322.42 25.19L322.08 25.21L321.67 25.24L321.12 25.28L320.44 25.33L319.65 25.39L318.76 25.45L317.79 25.52L316.74 25.59L315.63 25.67L314.48 25.75L313.3 25.83L312.1 25.92L310.89 26.01L309.69 26.09L308.52 26.17L307.93 27.4L307.33 28.54L306.72 29.6L306.11 30.58L305.49 31.48L304.87 32.3L304.25 33.05L303.63 33.73L303.02 34.34L302.42 34.89L301.82 35.38L301.24 35.81L300.67 36.19L300.11 36.52L299.57 36.81L299.05 37.05L297.71 35.82L296.18 34.77L294.47 33.9L292.58 33.21L290.51 32.71L288.27 32.41L285.86 32.3L283.29 32.39L281.73 32.53L280.21 32.74L278.72 33.01L277.26 33.34L275.84 33.73L274.45 34.18L273.1 34.69L271.79 35.25L270.52 35.87L269.29 36.54L268.1 37.26L266.95 38.03L265.84 38.85L264.78 39.72L263.76 40.64L262.79 41.6L261.86 42.61L260.98 43.66L260.15 44.75L259.37 45.88L258.64 47.05L258.59 47.15L248.26 37.61L248.16 37.51L247.47 36.95L246.71 36.48L248.53 26.77L230.9 10.49L215.16 11.61L213.83 18.68L206.82 12.2H206.77H206.73H206.68H206.62H206.55L206.47 12.21H206.38L206.28 12.22H206.17L206.05 12.24H205.93L205.8 12.26H205.66L205.51 12.28H205.35L205.18 12.3H205.01L204.83 12.33H204.64L204.45 12.36H204.25L204.04 12.39L203.83 12.41L203.61 12.43L203.38 12.45L203.15 12.47L202.91 12.49L202.67 12.51L202.42 12.53L202.17 12.55L201.91 12.57L201.65 12.59L201.39 12.61L201.12 12.63L200.85 12.65L200.58 12.67L200.3 12.69L200.02 12.71L199.74 12.73L199.45 12.75L199.16 12.77L198.87 12.79L198.58 12.81L198.28 12.83L197.98 12.85L197.68 12.87L197.38 12.89L197.08 12.91L196.78 12.93L196.48 12.95L196.18 12.97L195.88 12.99L195.58 13.01L195.28 13.03L194.98 13.05L194.68 13.07L194.38 13.09L194.08 13.11L193.78 13.13L193.49 13.15L193.2 13.17L192.91 13.19L192.76 13.57L192.61 13.94L192.46 14.3L192.31 14.66L192.16 15.01L192.01 15.35L191.86 15.68L191.71 16L191.56 16.32L191.41 16.63L191.26 16.93L191.11 17.23L190.96 17.52L190.81 17.8L190.66 18.07L190.51 18.34L190.36 18.6L190.21 18.86L190.07 19.11L189.93 19.35L189.79 19.59L189.65 19.82L189.51 20.04L189.37 20.26L189.23 20.47L189.09 20.68L188.95 20.88L188.81 21.08L188.67 21.27L188.53 21.46L188.39 21.64L188.25 21.82L188.11 21.99L188.04 22.08L179.44 14.14L179.22 14.16L178.99 14.18L178.76 14.2L178.53 14.22L178.29 14.24L178.05 14.26L177.81 14.28L177.57 14.3L177.33 14.32L177.08 14.34L176.83 14.36L176.58 14.38L176.33 14.4L176.08 14.42L175.83 14.44L175.58 14.46L175.33 14.48L175.08 14.5L174.83 14.52L174.58 14.54L174.33 14.56L174.08 14.58L173.83 14.6L173.58 14.62L173.33 14.64L173.09 14.66L172.85 14.68L172.61 14.7L172.37 14.72L172.14 14.74L171.91 14.76L171.68 14.78L171.46 14.8L171.24 14.82L171.02 14.84L170.81 14.86H170.6L170.4 14.89H170.2L170.01 14.92H169.82L169.64 14.95H169.46L169.29 14.97H169.12L168.96 14.99H168.81L168.66 15.01H168.52L168.39 15.03H168.27L168.15 15.05H168.04L167.94 15.06H167.85L167.77 15.07H167.7H167.64H167.58H167.53H167.49H167.46L167.44 15.09V15.11V15.14V15.18L167.43 15.23V15.29L167.41 15.36V15.44L167.39 15.53V15.62L167.37 15.72V15.83L167.35 15.95V16.08L167.33 16.21V16.36L167.32 16.52V16.69V16.86V17.04V17.23V17.43V17.63V17.84L167.34 18.06L167.36 18.28L167.38 18.51L167.4 18.74L167.43 18.98L167.46 19.22L167.49 19.47L167.53 19.73L167.57 19.99L167.62 20.25L167.67 20.52L167.73 20.79L167.79 21.07L167.86 21.35L167.94 21.64L168.02 21.93L168.11 22.22L168.2 22.52L168.3 22.82L168.41 23.12L168.53 23.42L168.65 23.73L168.78 24.04L168.92 24.35L169.07 24.66L169.22 24.97L169.38 25.28L169.55 25.6L169.73 25.92L169.92 26.24L170.12 26.56L170.33 26.88L170.55 27.2L170.78 27.52L171.02 27.84L171.27 28.16L171.53 28.48L171.8 28.8L172.08 29.12L172.37 29.43L172.67 29.74L172.98 30.05L173.31 30.36L173.5 30.53L173.45 30.55L183.26 39.6L182.66 39.62L181.16 39.76L179.69 39.97L178.25 40.24L176.85 40.57L175.48 40.97L174.14 41.43L172.84 41.94L171.58 42.51L170.35 43.14L170.02 43.33L170.09 43.14L170.18 42.9L170.26 42.66L170.33 42.41L170.4 42.16L170.46 41.91L170.52 41.66L170.57 41.41L170.63 41.06L170.68 40.71L170.72 40.37L170.74 40.03V39.81L170.75 39.59V39.37V39.15V38.94L170.72 38.73L170.7 38.52L170.67 38.31L170.64 38.11L170.6 37.91L170.56 37.71L170.51 37.51L170.46 37.32L170.4 37.13L170.34 36.94L170.28 36.75L170.21 36.57L170.14 36.39L170.06 36.21L169.98 36.04L169.89 35.87L169.8 35.7L169.7 35.54L169.6 35.38L169.5 35.22L169.39 35.07L169.28 34.92L169.16 34.77L169.04 34.63L168.95 34.53L169.03 34.5L151.4 18.22L151.32 18.25L151.29 18.22L151.16 18.08L151.03 17.95L150.89 17.82L150.75 17.7L150.61 17.58L150.46 17.46L150.31 17.35L150.16 17.24L150 17.13L149.84 17.03L149.68 16.93L149.51 16.84L149.34 16.75L149.17 16.67L148.99 16.59L148.81 16.51L148.63 16.44L148.44 16.37L148.25 16.31L148.06 16.25L147.86 16.2L147.66 16.15L147.46 16.11L147.26 16.07L147.05 16.04L146.84 16.01L146.63 15.99L146.42 15.97H146.2L145.98 15.95H145.76H145.54H145.31L145.08 15.97L144.83 15.99L144.58 16.02L144.33 16.05L144.08 16.09L143.83 16.14L143.58 16.19L143.33 16.25L143.08 16.31L142.84 16.38L142.6 16.45L142.36 16.53L142.12 16.61L141.88 16.7L141.64 16.8L141.4 16.9L141.17 17.01L140.94 17.12L140.71 17.24L140.48 17.36L140.25 17.49L140.03 17.62L139.81 17.75L139.59 17.89L139.37 18.03L139.15 18.18L138.94 18.33L138.73 18.49L138.52 18.65L138.32 18.81L138.12 18.98L137.92 19.15L137.72 19.33L137.53 19.51L137.34 19.69L137.15 19.88L136.97 20.07L136.79 20.26L136.62 20.46L136.45 20.66L136.28 20.86L136.12 21.07L135.96 21.28L135.8 21.49L135.65 21.71L135.5 21.93L135.36 22.15L135.22 22.37L135.09 22.6L134.96 22.83L134.83 23.06L134.71 23.29L134.59 23.53L134.48 23.77L134.37 24.01L134.27 24.25L134.17 24.49L134.08 24.74L133.99 24.99L133.91 25.24L133.84 25.49L133.77 25.74L133.71 25.99L133.65 26.24L133.6 26.5L133.54 26.84L133.49 27.17L133.46 27.5L133.44 27.82V28.04L133.43 28.26V28.47V28.68V28.89L133.46 29.1L133.48 29.31L133.51 29.51L133.54 29.71L133.58 29.91L133.62 30.11L133.67 30.3L133.72 30.49L133.78 30.68L133.84 30.87L133.91 31.05L133.98 31.23L134.06 31.41L134.14 31.58L134.22 31.75L134.31 31.92L134.4 32.09L134.5 32.25L134.6 32.41L134.71 32.57L134.82 32.72L134.93 32.87L135.05 33.02L135.17 33.16L135.3 33.3L135.43 33.44L135.52 33.53L135.42 33.56L146.12 43.44L141.1 43.8L139.09 44.02L137.25 44.37L135.57 44.84L134.02 45.42L132.58 46.09L131.23 46.83L129.95 47.63L128.72 48.48L127.51 49.37L126.31 50.28L125.09 51.19L124.32 51.75L117.53 45.48L101.57 46.61L101.73 47.79L101.88 49.05L102.01 50.39L102.12 51.8L102.2 53.28L102.24 54.83V56.44L102.17 58.1L102.12 58.97L102.05 59.85L101.99 60.51L88.63 48.17L88.62 48.16L88.08 47.74L87.47 47.4L86.8 47.13L86.07 46.92L85.28 46.78L84.43 46.7L83.52 46.68L82.56 46.72L81.75 46.79L80.92 46.89L80.08 47.02L79.24 47.17L78.39 47.35L77.55 47.55L76.72 47.76L75.91 47.99L75.12 48.23L74.36 48.48L73.64 48.73L72.96 48.99L72.32 49.25L71.73 49.51L71.2 49.76L70.74 50.01L69.36 60.11L61.85 53.17L60.97 52.2L59.95 51.36L58.8 50.65L57.51 50.06L56.08 49.6L54.52 49.28L52.82 49.09L50.98 49.03L48.99 49.11L47.49 49.25L46.02 49.46L44.58 49.73L43.18 50.06L41.81 50.46L40.47 50.92L39.17 51.43L37.91 52L36.68 52.63L35.49 53.31L34.34 54.04L33.23 54.83L32.16 55.67L31.13 56.55L30.15 57.48L29.21 58.46L28.31 59.48L27.46 60.54L26.66 61.64L25.9 62.78L25.19 63.96L24.53 65.18L23.92 66.43L23.36 67.72L22.86 69.04L22.41 70.39L22.01 71.77L21.67 73.18L21.39 74.62L21.16 76.08L20.99 77.56L20.88 79.07L20.85 81.15L20.98 83.14L21.27 85.02L21.73 86.79L22.35 88.44L23.14 89.96L24.1 91.35L25.22 92.6L25.94 93.22H25.93L42.68 108.69L42.86 108.89L43.38 109.33L43.57 109.51H43.58L44.15 110L45.61 110.96L46.45 111.37L12.98 113.75L10.46 126.01L21.98 136.65L28.09 142.29L317.59 121.73L327.87 121L330.39 108.74L313.21 92.87L312.76 92.45L303.96 93.07L304.17 92.97L305.4 92.27L306.59 91.52L306.9 91.3L307.74 90.71L308.85 89.86L309.91 88.96L310.93 88.01L311.25 87.68L311.91 87.01L312.84 85.97L313.72 84.89L314.55 83.77L315.16 82.87L315.34 82.61L315.56 82.24L316.07 81.41L316.71 80.26L316.76 80.18L317.39 78.91L317.58 78.47L317.97 77.6L318.13 77.19L318.49 76.26L318.8 75.35L318.96 74.89L319.12 74.34L319.37 73.49L319.65 72.35L319.72 72.06L320.01 70.61L320.25 69.14L320.4 67.86L320.43 67.64L320.54 66.12V65.47L320.57 64.14L320.51 63.24L320.45 62.28L320.19 60.53L319.83 59.09L319.78 58.89L321.26 58.37L322.67 57.81L324.01 57.22L325.28 56.6L326.49 55.96L327.64 55.29L328.72 54.61L329.74 53.91L330.71 53.2L331.62 52.48L332.47 51.76L333.27 51.04L334.02 50.32L334.71 49.6L335.35 48.89L335.94 48.19L336.49 47.51L336.99 46.85L337.45 46.21L337.86 45.6L338.23 45.02L338.56 44.47L338.85 43.96L339.11 43.49L339.33 43.06L339.52 42.68L339.67 42.34L339.79 42.06L339.88 41.83L339.94 41.66L339.99 41.52L322.36 25.24L322.42 25.19ZM88.63 65.46L89.08 65.88L88.86 65.98L88.5 66.17L88.56 65.85L88.63 65.46ZM273.42 69.77L273.01 71.15L272.71 72.36L273.01 71.15L273.42 69.77L273.86 68.48L273.42 69.77ZM272.06 76.14L271.96 76.99L271.85 78.51L271.82 79.46L271.85 78.51L271.96 76.99L272.06 76.14ZM188.62 82.52V82.1V82.52ZM188.74 80.06L188.89 78.87L188.98 78.37L188.89 78.87L188.74 80.06ZM174.45 75.1L174.2 75.76L173.97 76.44L174.2 75.76L174.45 75.1ZM173.63 77.54L173.36 78.5L173.02 79.91L172.91 80.48L173.02 79.91L173.36 78.5L173.63 77.54ZM172.22 85.79L172.33 84.28L172.41 83.59L172.33 84.28L172.22 85.79V87.39H172.21V85.79H172.22ZM55.33 87.82L55.42 87.31L55.33 87.82ZM54.97 92.01L55 90.75L55.03 90.31L55 90.75L54.97 92.01L54.99 92.6L54.97 92.01ZM89.7 89.03L89.78 88.63L89.7 89.03L89.55 89.16L89.7 89.03ZM89.98 87.58V87.53V87.58L89.95 87.72L89.98 87.58ZM90.26 86.13L90.4 85.42L90.53 84.72L90.66 84.04L90.78 83.38L90.8 83.27L90.78 83.38L90.66 84.04L90.53 84.72L90.4 85.42L90.26 86.13V86.18V86.13ZM91.17 81.04L91.23 80.61L91.17 81.04L91.09 81.57L91.17 81.04ZM105.78 84.55L105.64 85.32L105.51 86.06L105.49 86.2L105.51 86.06L105.64 85.32L105.78 84.55L105.83 84.25L105.78 84.55ZM107.53 74.7L107.6 74.27L107.66 73.93L107.6 74.27L107.53 74.7ZM108.14 70.5V70.54L108.12 70.79L108.08 71.11L108.12 70.79L108.14 70.54V70.5ZM107.97 71.95L107.93 72.21L107.97 71.95L108 71.73L107.97 71.95ZM107.23 76.44L107.09 77.22L107.06 77.4L107.09 77.22L107.23 76.44V76.38V76.44ZM106.77 79.05L106.66 79.65L106.51 80.48L106.36 81.31L106.21 82.14L106.06 82.96L106.01 83.21L106.06 82.96L106.21 82.14L106.36 81.31L106.51 80.48L106.66 79.65L106.77 79.05ZM87.68 90.76L86.98 91.31L86.12 91.94L86.98 91.31L87.68 90.76ZM71.93 109.24L72.79 108.8L73.13 108.63L74.3 108L75.43 107.35L75.78 107.13L76.52 106.68L77.05 106.34L77.58 106L78.6 105.31L79.58 104.61L80.33 104.05L80.52 103.91L81.41 103.21L82.26 102.52L82.97 101.92L83.06 101.84L83.82 101.18L84.53 100.53L85.19 99.91L85.43 99.67L85.8 99.31L86.04 99.07L86.36 98.75L86.87 98.22L86.92 98.17L87.34 97.73L87.75 97.28L88.11 96.88L88.41 96.53L88.61 96.29L88.66 96.23L88.68 97.8L88.82 99.3L89.02 100.33L89.09 100.72L89.49 102.06L89.8 102.79L90.02 103.31L90.31 103.82L90.68 104.47L91.22 105.18L91.49 105.54L92.43 106.5L92.9 106.87L93.51 107.35L93.9 107.58L94.43 107.9L71.29 109.54L71.36 109.51L71.93 109.24ZM117.78 106.21L118.08 106.05L118.36 105.89L119.3 105.34L120.47 104.57L121.6 103.75L122.69 102.87L123.73 101.94L124.33 101.35L124.73 100.96L125.22 100.44L125.69 99.94L126.6 98.87L127.47 97.75L128.29 96.59L129.07 95.38L129.32 94.96L129.81 94.13L130.3 93.23L130.51 92.84L130.73 92.4L131.16 91.51L131.2 91.41L145.16 104.3L117.72 106.25L117.78 106.22V106.21ZM164.96 102.7L165.62 102.3L166.28 101.9L167.52 101.07L168 100.72L168.68 100.22L169.2 99.81L169.76 99.37L170.76 98.53L170.97 98.34L171.67 97.72L172.09 97.34L172.51 96.96L172.96 96.53L173.26 96.25L173.93 95.61L174.47 96.62L174.59 96.81L175.09 97.58L175.78 98.47L176.55 99.3L177.39 100.06L178.31 100.76L179.17 101.3L179.31 101.39L180.16 101.83L164.57 102.94L164.98 102.72L164.96 102.7ZM205.73 99.69L206.84 99.13L207.92 98.55L208.96 97.95L209.47 97.64L209.98 97.33L210.96 96.7L211.91 96.07L212.45 95.69L212.83 95.43L213.42 95L217.9 99.14L204.99 100.06L205.76 99.7L205.73 99.69ZM237.1 87.53L245.81 95.58L246.19 95.89L246.44 96.12L247.49 96.87L247.64 96.98L247.72 97.03L235.14 97.92L237.09 87.54L237.1 87.53ZM267.01 95.59L267.56 95.25L268.11 94.91L269.17 94.21L269.97 93.64L270.18 93.49L271.15 92.76L272.07 92.03L272.32 91.82L272.94 91.31L273.29 91.01L273.75 90.61L274.51 89.93L275.13 90.79L275.82 91.6L276.19 91.97L276.57 92.35L277.38 93.04L277.99 93.49L278.25 93.68L278.71 93.97L279.17 94.26L279.31 94.33L280.05 94.72L266.88 95.65L267 95.58L267.01 95.59ZM268.12 80.09L261.09 73.6L268.12 80.09ZM107.98 67.61L107.87 67.15L107.98 67.61L108.04 68L107.98 67.61ZM107.17 65.43L106.85 64.98L107.17 65.43L107.44 65.94L107.17 65.43ZM106.3 64.39L106.6 64.7L106.3 64.39ZM86.93 77.16L87.12 77.12L86.93 77.16ZM41.22 83.55L41.05 83.94L40.62 85.08L41.05 83.94L41.22 83.55ZM40.1 86.61L40.4 85.71L40.1 86.61L39.7 87.99L39.56 88.57L39.7 87.99L40.1 86.61ZM316.68 33.71L315.84 32.94L316.68 33.71ZM299.4 48.83L300.96 48.69L302.96 48.62L300.96 48.69L299.4 48.83L298.95 48.89L299.4 48.83ZM293.51 50.03L294.93 49.64L295.45 49.52L294.93 49.64L293.51 50.03L292.12 50.48L291.68 50.64L292.12 50.48L293.51 50.03ZM289.46 51.55L289.93 51.35L289.46 51.55L288.19 52.17L287.56 52.51L288.19 52.17L289.46 51.55ZM143.77 66.65L142.76 67.41L142.13 67.86L142.76 67.41L143.77 66.65Z" fill="#D64126"/>
<path d="M206.81 12.65L206.82 12.55V12.46V12.38V12.32V12.27V12.24V12.21H206.77L206.73 12.22H206.68H206.62L206.56 12.23H206.48L206.39 12.24L206.29 12.25L206.18 12.26H206.07L205.94 12.27L205.81 12.28L205.67 12.29L205.52 12.3L205.36 12.31L205.19 12.33L205.02 12.34L204.84 12.35L204.65 12.36L204.46 12.38L204.26 12.39L204.05 12.41L203.84 12.42L203.62 12.44L203.39 12.45L203.16 12.47L202.93 12.49L202.69 12.5L202.44 12.52L202.19 12.54L201.93 12.56L201.67 12.58L201.41 12.59L201.14 12.61L200.87 12.63L200.6 12.65L200.32 12.67L200.04 12.69L199.75 12.71L199.47 12.73L199.18 12.75L198.88 12.77L198.59 12.79L198.3 12.82L198 12.84L197.7 12.86L197.4 12.88L197.1 12.9L196.8 12.92L196.5 12.94L196.2 12.96L195.9 12.99L195.6 13.01L195.3 13.03L195 13.05L194.7 13.07L194.4 13.09L194.1 13.11L193.8 13.13L193.51 13.16L193.22 13.18L192.93 13.2L192.78 13.58L192.63 13.95L192.48 14.31L192.33 14.67L192.18 15.01L192.04 15.35L191.89 15.69L191.74 16.01L191.59 16.33L191.45 16.64L191.3 16.94L191.15 17.23L191.01 17.52L190.86 17.8L190.72 18.08L190.57 18.34L190.42 18.61L190.28 18.86L190.13 19.11L189.99 19.35L189.85 19.59L189.7 19.82L189.56 20.05L189.41 20.26L189.27 20.48L189.13 20.69L188.99 20.89L188.84 21.09L188.7 21.28L188.56 21.47L188.42 21.65L188.28 21.83L188.14 22L188 22.17L187.86 22.34L187.72 22.5L187.58 22.66L187.44 22.81L187.31 22.96L187.17 23.1L187.03 23.25L186.9 23.38L186.76 23.52L186.63 23.65L186.49 23.78L186.36 23.9L186.22 24.03L186.09 24.15L185.96 24.26L185.82 24.38L185.69 24.49L185.56 24.6L185.43 24.71L185.3 24.81L185.17 24.92L185.04 25.02L184.91 25.12L184.79 25.22L184.66 25.31L184.53 25.41L184.41 25.5L184.28 25.6L184.16 25.69L184.03 25.78L184.01 25.76L183.97 25.73L183.94 25.71L183.9 25.68L183.87 25.65L183.82 25.61L183.78 25.57L183.73 25.53L183.67 25.48L183.61 25.42L183.55 25.36L183.48 25.3L183.42 25.23L183.34 25.15L183.27 25.07L183.19 24.99L183.11 24.9L183.03 24.8L182.94 24.7L182.86 24.59L182.77 24.47L182.68 24.35L182.58 24.23L182.49 24.09L182.39 23.96L182.3 23.81L182.2 23.66L182.1 23.5L182 23.34L181.9 23.17L181.8 22.99L181.7 22.81L181.6 22.62L181.5 22.42L181.4 22.22L181.3 22L181.21 21.78L181.11 21.56L181.01 21.32L180.92 21.08L180.82 20.84L180.73 20.58L180.64 20.32L180.55 20.04L180.46 19.76L180.38 19.48L180.29 19.18L180.21 18.88L180.14 18.57L180.06 18.25L179.99 17.92L179.92 17.58L179.85 17.24L179.79 16.88L179.73 16.52L179.68 16.15L179.63 15.77L179.58 15.38L179.54 14.98L179.5 14.57L179.47 14.15L179.24 14.17L179.02 14.18L178.79 14.2L178.56 14.22L178.32 14.23L178.08 14.25L177.84 14.27L177.6 14.29L177.36 14.3L177.11 14.32L176.86 14.34L176.61 14.36L176.36 14.37L176.11 14.39L175.86 14.41L175.61 14.43L175.36 14.44L175.1 14.46L174.85 14.48L174.6 14.5L174.35 14.52L174.1 14.53L173.85 14.55L173.61 14.57L173.36 14.59L173.12 14.6L172.88 14.62L172.64 14.64L172.4 14.65L172.17 14.67L171.94 14.69L171.71 14.7L171.48 14.72L171.26 14.74L171.05 14.75L170.83 14.77L170.63 14.78L170.42 14.79L170.22 14.81L170.03 14.82L169.84 14.84L169.66 14.85L169.48 14.86L169.31 14.87L169.15 14.89L168.99 14.9L168.84 14.91L168.69 14.92L168.55 14.93L168.42 14.94L168.3 14.95H168.18L168.07 14.96L167.97 14.97L167.88 14.98H167.8L167.73 14.99H167.66H167.61L167.56 15H167.53H167.5L167.48 15.02L167.47 15.05V15.08L167.46 15.12L167.45 15.18L167.44 15.24L167.43 15.31V15.39L167.42 15.47L167.41 15.57L167.4 15.67L167.39 15.78L167.38 15.9L167.37 16.03L167.36 16.16L167.35 16.31V16.47L167.34 16.64V16.81V16.99V17.18V17.37L167.35 17.58L167.36 17.79L167.37 18L167.39 18.22L167.41 18.45L167.43 18.68L167.45 18.92L167.48 19.17L167.52 19.42L167.56 19.67L167.6 19.93L167.65 20.2L167.7 20.47L167.76 20.74L167.82 21.02L167.89 21.3L167.97 21.59L168.05 21.87L168.14 22.17L168.23 22.46L168.33 22.76L168.44 23.06L168.56 23.36L168.68 23.67L168.81 23.98L168.95 24.29L169.09 24.6L169.25 24.91L169.41 25.23L169.58 25.54L169.76 25.86L169.95 26.18L170.15 26.49L170.36 26.81L170.58 27.13L170.81 27.45L171.04 27.77L171.29 28.09L171.55 28.4L171.82 28.72L172.1 29.03L172.39 29.35L172.69 29.66L173.01 29.97L173.34 30.28L173.67 30.59L174.02 30.89L174.39 31.2L174.76 31.5L175.15 31.79L175.55 32.09L175.97 32.38L176.4 32.67L176.84 32.95L177.3 33.23L177.77 33.51L178.25 33.78L188.66 33.04L189.42 32.69L190.17 32.33L190.89 31.97L191.59 31.6L192.27 31.23L192.93 30.86L193.57 30.49L194.19 30.11L194.79 29.73L195.37 29.34L195.93 28.96L196.48 28.57L197 28.18L197.51 27.8L198 27.4L198.47 27.01L198.92 26.62L199.36 26.23L199.78 25.84L200.19 25.45L200.58 25.06L200.95 24.67L201.31 24.28L201.65 23.89L201.98 23.51L202.3 23.13L202.6 22.75L202.88 22.37L203.16 21.99L203.42 21.62L203.67 21.25L203.9 20.89L204.13 20.52L204.34 20.17L204.54 19.81L204.73 19.46L204.91 19.12L205.08 18.78L205.24 18.45L205.38 18.12L205.52 17.8L205.65 17.48L205.77 17.18L205.89 16.87L205.99 16.58L206.09 16.29L206.17 16.01L206.25 15.74L206.33 15.47L206.4 15.22L206.46 14.97L206.51 14.73L206.56 14.5L206.6 14.28L206.64 14.07L206.68 13.87L206.71 13.68L206.73 13.5L206.75 13.33L206.77 13.17L206.78 13.02L206.8 12.88V12.76L206.81 12.65Z" fill="#8ED7F7"/>
<path d="M310.28 104.65L312.79 92.39L13.0199 113.67L10.4999 125.93L310.28 104.65Z" fill="#8ED7F7"/>
<path d="M153.13 23.68L153.14 23.46V23.24V23.02L153.13 22.8L153.12 22.59L153.1 22.38L153.08 22.17L153.05 21.96L153.02 21.76L152.99 21.56L152.95 21.36L152.9 21.16L152.85 20.97L152.79 20.78L152.73 20.59L152.67 20.41L152.6 20.23L152.53 20.05L152.45 19.87L152.37 19.7L152.28 19.53L152.19 19.36L152.09 19.2L151.99 19.04L151.89 18.88L151.78 18.72L151.67 18.57L151.55 18.43L151.43 18.28L151.31 18.14L151.18 18.01L151.05 17.88L150.91 17.75L150.77 17.62L150.63 17.5L150.49 17.38L150.34 17.27L150.18 17.16L150.02 17.06L149.86 16.95L149.7 16.86L149.53 16.77L149.36 16.68L149.19 16.59L149.01 16.51L148.83 16.44L148.65 16.37L148.46 16.3L148.27 16.24L148.08 16.18L147.88 16.13L147.69 16.08L147.49 16.04L147.28 16L147.08 15.97L146.87 15.94L146.65 15.92L146.44 15.9L146.22 15.89L146 15.88H145.78H145.56L145.33 15.89L145.1 15.9L144.85 15.92L144.6 15.95L144.35 15.98L144.1 16.02L143.85 16.07L143.6 16.12L143.36 16.18L143.11 16.24L142.87 16.31L142.62 16.38L142.38 16.46L142.14 16.55L141.9 16.64L141.66 16.73L141.43 16.83L141.19 16.94L140.96 17.05L140.73 17.16L140.5 17.28L140.27 17.41L140.05 17.54L139.83 17.67L139.61 17.81L139.39 17.96L139.18 18.1L138.96 18.26L138.75 18.41L138.55 18.57L138.34 18.74L138.14 18.91L137.94 19.08L137.75 19.26L137.56 19.44L137.37 19.62L137.18 19.81L137 20L136.82 20.19L136.65 20.39L136.47 20.59L136.31 20.79L136.14 21L135.98 21.21L135.83 21.42L135.68 21.64L135.53 21.86L135.39 22.08L135.25 22.3L135.11 22.53L134.98 22.76L134.86 22.99L134.74 23.22L134.62 23.46L134.51 23.69L134.41 23.93L134.3 24.17L134.21 24.42L134.12 24.66L134.03 24.91L133.95 25.16L133.88 25.41L133.81 25.66L133.75 25.91L133.69 26.17L133.64 26.42L133.58 26.76L133.53 27.09L133.5 27.42L133.48 27.74L133.47 27.96L133.46 28.18V28.39L133.47 28.61L133.48 28.82L133.5 29.03L133.52 29.23L133.55 29.44L133.58 29.64L133.62 29.84L133.66 30.03L133.71 30.23L133.76 30.42L133.82 30.61L133.88 30.79L133.95 30.98L134.02 31.16L134.09 31.33L134.17 31.51L134.26 31.68L134.34 31.85L134.44 32.02L134.53 32.18L134.63 32.34L134.74 32.49L134.85 32.65L134.96 32.8L135.08 32.94L135.2 33.09L135.33 33.22L135.45 33.36L135.59 33.49L135.72 33.62L135.86 33.74L136.01 33.87L136.15 33.98L136.31 34.09L136.46 34.2L136.62 34.31L136.78 34.41L136.94 34.51L137.11 34.6L137.28 34.69L137.45 34.77L137.63 34.85L137.81 34.93L137.99 35L138.18 35.06L138.37 35.13L138.56 35.18L138.75 35.24L138.95 35.28L139.15 35.33L139.35 35.36L139.55 35.4L139.76 35.43L139.97 35.45L140.18 35.47L140.4 35.48L140.61 35.49H140.83H141.05L141.27 35.48L141.5 35.47L141.75 35.45L141.99 35.42L142.24 35.39L142.48 35.35L142.73 35.3L142.97 35.25L143.22 35.19L143.46 35.13L143.7 35.06L143.94 34.99L144.18 34.91L144.42 34.83L144.66 34.74L144.9 34.64L145.13 34.54L145.36 34.44L145.59 34.33L145.82 34.21L146.05 34.09L146.28 33.97L146.5 33.84L146.73 33.7L146.95 33.56L147.16 33.42L147.38 33.27L147.59 33.12L147.8 32.97L148.01 32.81L148.22 32.64L148.42 32.48L148.62 32.3L148.81 32.13L149.01 31.95L149.2 31.77L149.38 31.58L149.57 31.39L149.75 31.2L149.92 31L150.1 30.81L150.27 30.6L150.43 30.4L150.59 30.19L150.75 29.98L150.9 29.77L151.05 29.55L151.2 29.33L151.34 29.11L151.47 28.89L151.6 28.66L151.73 28.43L151.85 28.2L151.97 27.97L152.08 27.74L152.19 27.5L152.29 27.26L152.38 27.02L152.48 26.78L152.56 26.54L152.64 26.29L152.72 26.05L152.79 25.8L152.85 25.55L152.91 25.3L152.96 25.05L153.02 24.7L153.07 24.36L153.1 24.02L153.13 23.68Z" fill="#8ED7F7"/>
<path d="M322.07 25.21L321.66 25.24L321.11 25.28L320.44 25.33L319.65 25.39L318.76 25.45L317.79 25.52L316.74 25.59L315.63 25.67L314.48 25.75L313.3 25.84L312.1 25.92L310.89 26.01L309.7 26.09L308.52 26.18L307.94 27.41L307.34 28.55L306.73 29.61L306.12 30.59L305.51 31.49L304.89 32.31L304.27 33.05L303.66 33.73L303.05 34.35L302.44 34.9L301.85 35.39L301.26 35.82L300.69 36.2L300.13 36.54L299.59 36.82L299.07 37.07L297.73 35.83L296.2 34.78L294.49 33.91L292.6 33.22L290.53 32.73L288.29 32.42L285.89 32.31L283.32 32.4L281.76 32.54L280.24 32.75L278.75 33.02L277.29 33.35L275.87 33.74L274.48 34.19L273.13 34.7L271.82 35.26L270.55 35.87L269.32 36.54L268.12 37.27L266.97 38.04L265.87 38.86L264.8 39.73L263.78 40.65L262.81 41.61L261.88 42.62L261 43.67L260.17 44.77L259.39 45.9L258.65 47.08L257.97 48.29L257.35 49.54L256.77 50.82L256.25 52.14L255.79 53.49L255.38 54.88L255.03 56.29L254.73 57.74L254.5 59.21L254.33 60.71L254.21 62.23L254.18 63.63L254.21 64.97L254.32 66.27L254.49 67.52L254.22 67.73L253.9 67.98L253.51 68.25L253.07 68.54L252.58 68.85L252.03 69.16L251.42 69.48L250.75 69.8L250.03 70.11L249.25 70.41L248.42 70.68L247.53 70.94L246.59 71.17L245.59 71.36L244.53 71.51L243.42 71.61L242.06 71.65L240.84 71.55L239.74 71.34L238.76 71.03L237.89 70.62L237.13 70.12L236.46 69.55L235.88 68.92L235.38 68.23L234.96 67.51L234.6 66.75L234.29 65.97L234.04 65.19L233.83 64.4L233.65 63.63L233.49 62.89L235.28 62.15L236.99 61.37L238.63 60.53L240.18 59.63L241.64 58.67L243.01 57.66L244.28 56.58L245.45 55.45L246.51 54.26L247.45 53.01L248.28 51.7L248.99 50.33L249.56 48.9L250 47.4L250.31 45.85L250.47 44.22L250.48 43.21L250.41 42.23L250.26 41.31L250.02 40.43L249.69 39.61L249.27 38.85L248.76 38.15L248.17 37.52L247.48 36.96L246.7 36.48L245.83 36.07L244.86 35.75L243.79 35.52L242.63 35.37L241.37 35.32L240.01 35.37L238.88 35.48L237.77 35.66L236.69 35.89L235.63 36.17L234.59 36.51L233.58 36.9L232.59 37.33L231.62 37.81L230.68 38.32L229.77 38.88L228.88 39.47L228.02 40.1L227.19 40.76L226.38 41.44L225.6 42.15L224.84 42.88L230.91 10.5L215.17 11.62L205.42 63.29L204.61 64L203.66 64.78L202.59 65.62L201.4 66.49L200.1 67.39L198.7 68.31L197.19 69.22L195.59 70.11L193.91 70.96L192.14 71.77L190.3 72.52L188.39 73.2L186.42 73.78L184.4 74.25L182.32 74.61L180.2 74.84L179.01 74.88L177.9 74.83L176.87 74.7L175.93 74.47L175.07 74.16L174.29 73.76L173.6 73.27L172.99 72.69L172.46 72.03L172.02 71.28L171.65 70.44L171.36 69.52L171.16 68.51L171.03 67.42L170.98 66.24L171.01 64.97L171.1 63.78L171.25 62.59L171.45 61.41L171.71 60.25L172.03 59.11L172.4 58.03L172.84 56.99L173.33 56.01L173.89 55.1L174.5 54.27L175.18 53.53L175.92 52.88L176.72 52.35L177.59 51.94L178.52 51.65L179.52 51.51L180.24 51.5L180.88 51.59L181.44 51.76L181.94 52.01L182.37 52.32L182.74 52.7L183.04 53.13L183.3 53.6L183.51 54.11L183.67 54.66L183.79 55.23L183.87 55.81L183.92 56.4L183.94 56.99V57.57L183.92 58.14L198.01 53.77L198.05 51.96L197.96 50.27L197.73 48.7L197.38 47.24L196.9 45.91L196.29 44.7L195.54 43.6L194.66 42.64L193.64 41.8L192.49 41.08L191.2 40.5L189.78 40.04L188.21 39.72L186.51 39.53L184.66 39.47L182.68 39.55L181.18 39.69L179.71 39.89L178.27 40.16L176.87 40.5L175.5 40.89L174.16 41.35L172.86 41.86L171.6 42.43L170.37 43.06L169.18 43.74L168.03 44.48L166.92 45.26L165.85 46.1L164.82 46.98L163.84 47.91L162.9 48.89L162 49.91L161.15 50.97L160.35 52.07L159.59 53.22L158.88 54.4L158.23 55.62L157.62 56.87L157.06 58.16L156.56 59.48L156.11 60.83L155.71 62.21L155.37 63.62L155.09 65.06L154.86 66.52L154.69 68L154.58 69.51L154.56 71.87L154.75 74.11L154.65 73.95L154.1 74.37L153.51 74.8L152.9 75.23L152.26 75.67L151.6 76.11L150.94 76.54L150.26 76.96L149.58 77.36L148.9 77.74L148.23 78.09L147.57 78.41L146.92 78.68L146.29 78.92L145.69 79.1L145.12 79.23L144.58 79.3L144 79.29L143.49 79.2L143.04 79L142.67 78.68L142.37 78.25L142.17 77.69L142.06 76.99V76.15L142.15 75.23L142.35 74.16L148.24 43.22L141.12 43.72L139.11 43.94L137.27 44.3L135.59 44.77L134.04 45.34L132.6 46.01L131.25 46.75L129.97 47.56L128.74 48.41L127.53 49.3L126.33 50.2L125.12 51.11L123.86 52.01L122.54 52.89L121.15 53.74L119.65 54.53L118.03 55.25L118.08 53.92L118.1 52.59L118.09 51.29L118.05 50.02L117.97 48.78L117.87 47.6L117.73 46.46L117.55 45.4L101.58 46.53L101.75 47.71L101.9 48.97L102.04 50.31L102.14 51.72L102.22 53.2L102.26 54.75L102.25 56.36L102.19 58.02L102.14 58.89L102.07 59.77L101.99 60.67L101.89 61.59L101.77 62.51L101.64 63.45L101.49 64.38L101.33 65.32L101.15 66.26L100.95 67.19L100.73 68.12L100.49 69.03L100.23 69.94L99.9499 70.82L99.66 71.69L99.3399 72.53L98.9999 73.35L98.6399 74.14L98.2599 74.9L97.8599 75.63L97.4399 76.32L96.9899 76.97L96.5199 77.58L96.0299 78.14L95.5099 78.65L94.9699 79.11L94.41 79.51L93.8099 79.86L93.1999 80.14L92.5599 80.37L91.8899 80.52L91.1999 80.61L90.1499 80.59L89.2499 80.36L88.5099 79.95L87.91 79.35L87.4699 78.57L87.1699 77.63L87.0199 76.54V75.29L87.0899 74.51L87.1199 74.21L87.1699 73.85L87.2399 73.42L87.3099 72.93L87.3999 72.39L87.4999 71.8L87.6099 71.17L87.7299 70.49L87.8499 69.78L87.9899 69.04L88.1199 68.27L88.2599 67.48L88.41 66.67L88.5599 65.85L88.7099 65.02L88.8599 64.19L88.9999 63.36L89.1499 62.53L89.2999 61.72L89.4399 60.92L89.5699 60.15L89.7099 59.39L89.8299 58.67L89.9499 57.98L90.0599 57.33L90.1499 56.73L90.2399 56.17L90.3199 55.66L90.3799 55.21L90.4299 54.83L90.4699 54.51L90.4899 54.26L90.5099 53.19L90.4499 52.21L90.3299 51.32L90.1299 50.51L89.8499 49.79L89.5099 49.14L89.0999 48.58L88.6299 48.09L88.0899 47.67L87.4799 47.33L86.8099 47.05L86.0799 46.85L85.2899 46.71L84.4399 46.63L83.5399 46.61L82.5699 46.65L81.7599 46.73L80.9399 46.83L80.0999 46.96L79.2499 47.11L78.41 47.29L77.5699 47.49L76.7399 47.7L75.9299 47.93L75.1399 48.17L74.3799 48.42L73.66 48.67L72.9799 48.93L72.3399 49.19L71.7599 49.44L71.2299 49.7L70.7599 49.94L69.2699 60.87L69.7899 60.76L70.3699 60.65L70.9999 60.56L71.6199 60.5L72.1799 60.49L72.6499 60.57L73.0199 60.73L73.3099 60.99L73.5199 61.35L73.66 61.82L73.7199 62.4L73.7099 63.11L73.6799 63.44L73.6399 63.83L73.5899 64.27L73.5099 64.76L73.4299 65.29L73.3399 65.86L73.2299 66.46L73.1199 67.09L72.9999 67.75L72.8699 68.43L72.7399 69.13L72.5999 69.84L72.4599 70.57L72.3199 71.29L72.1799 72.02L72.0499 72.75L71.2799 73.43L70.3699 74.2L69.3299 75.02L68.1499 75.89L66.8599 76.78L65.4499 77.7L63.9299 78.61L62.3199 79.51L60.5999 80.38L58.7999 81.2L56.9199 81.96L54.9699 82.65L52.9399 83.24L50.8599 83.73L48.7199 84.1L46.5299 84.33L45.3399 84.37L44.2299 84.32L43.1999 84.19L42.2599 83.96L41.3999 83.65L40.6299 83.25L39.9399 82.76L39.3299 82.19L38.7999 81.52L38.3499 80.77L37.9799 79.94L37.6999 79.01L37.4899 78L37.3599 76.91L37.3099 75.73L37.3399 74.47L37.4299 73.27L37.5799 72.08L37.7799 70.9L38.0399 69.74L38.3599 68.61L38.7399 67.52L39.1699 66.48L39.6699 65.5L40.2199 64.59L40.8399 63.76L41.5099 63.02L42.2499 62.38L43.0599 61.84L43.9199 61.43L44.8499 61.15L45.8499 61L46.5699 60.99L47.2099 61.08L47.7799 61.25L48.2699 61.5L48.6999 61.81L49.0699 62.19L49.3799 62.62L49.6299 63.09L49.8399 63.61L49.9999 64.15L50.1199 64.72L50.1999 65.3L50.2499 65.89L50.2799 66.48L50.2699 67.06L50.2499 67.63L64.3499 63.26L64.3799 61.45L64.2899 59.76L64.0699 58.19L63.7199 56.74L63.2299 55.4L62.6199 54.19L61.8699 53.1L60.9899 52.13L59.9699 51.29L58.8199 50.57L57.5399 49.99L56.1099 49.53L54.5499 49.21L52.8399 49.02L50.9999 48.96L49.0099 49.04L47.5099 49.18L46.0399 49.38L44.6099 49.66L43.1999 49.99L41.8299 50.39L40.4999 50.84L39.1899 51.36L37.9299 51.93L36.6999 52.55L35.5099 53.23L34.3599 53.97L33.2499 54.75L32.1799 55.59L31.1499 56.47L30.1699 57.4L29.2299 58.38L28.3299 59.4L27.4799 60.46L26.6799 61.56L25.9199 62.71L25.2199 63.89L24.5599 65.11L23.9499 66.36L23.3999 67.65L22.8899 68.97L22.4399 70.32L22.0499 71.7L21.7099 73.11L21.4199 74.55L21.1899 76.01L21.0199 77.49L20.9099 79L20.8799 81.09L21.0099 83.07L21.3099 84.95L21.7599 86.72L22.3899 88.37L23.1799 89.89L24.1299 91.28L25.2599 92.54L26.5499 93.65L28.0099 94.6L29.6499 95.4L31.4499 96.04L33.4299 96.5L35.5799 96.79L37.9099 96.89L40.4099 96.81L41.9299 96.66L43.4199 96.46L44.8899 96.19L46.3199 95.87L47.7299 95.49L49.0999 95.06L50.4399 94.59L51.7599 94.08L53.0299 93.54L54.2699 92.95L55.4799 92.35L56.6499 91.71L57.7899 91.06L58.8799 90.38L59.9399 89.7L60.9499 89.01L61.9299 88.31L62.8599 87.61L63.7499 86.91L64.5999 86.22L65.3999 85.54L66.16 84.88L66.8699 84.23L67.5299 83.61L68.1399 83.02L68.7099 82.45L69.2199 81.92L69.6899 81.43L70.0999 80.98L70.4499 80.58L70.7599 80.23L71.0099 79.93L71.0199 81.5L71.16 83L71.4299 84.42L71.8399 85.76L72.3699 87.02L73.0399 88.18L73.8399 89.25L74.7799 90.21L75.8599 91.06L77.0799 91.8L78.4399 92.41L79.9499 92.9L81.6099 93.25L83.4199 93.47L85.3699 93.54L87.4799 93.46L89.0899 93.31L90.6699 93.09L92.1899 92.81L93.6799 92.46L95.1199 92.04L96.5099 91.56L97.8599 91.02L99.1699 90.43L100.43 89.77L101.65 89.05L102.82 88.28L103.95 87.46L105.04 86.58L106.08 85.65L107.08 84.67L108.04 83.65L108.95 82.57L109.82 81.45L110.64 80.29L111.42 79.08L112.16 77.83L112.85 76.54L113.5 75.21L114.11 73.85L114.67 72.45L115.2 71.01L115.67 69.54L116.11 68.04L116.5 66.51L116.85 64.95L117.15 63.36L117.42 61.75L119.11 61.37L120.8 60.93L122.48 60.41L124.13 59.82L125.72 59.15L127.25 58.4L128.69 57.58L130.02 56.67L126.2 77.24L125.87 79.27L125.71 81.08L125.68 82.46L125.76 83.69L125.94 84.8L126.22 85.79L126.59 86.66L127.06 87.41L127.6 88.06L128.23 88.61L128.94 89.06L129.73 89.42L130.59 89.7L131.52 89.9L132.51 90.03L133.56 90.09H134.68L135.84 90.03L137.72 89.83L139.52 89.49L141.24 89.05L142.87 88.5L144.43 87.87L145.91 87.17L147.31 86.41L148.62 85.61L149.86 84.78L151.02 83.93L152.09 83.08L153.09 82.24L154 81.44L154.84 80.67L155.59 79.95L156.26 79.31L156.8 80.32L157.42 81.27L158.11 82.17L158.88 82.99L159.72 83.76L160.64 84.45L161.63 85.08L162.71 85.64L163.85 86.12L165.08 86.53L166.38 86.87L167.77 87.12L169.23 87.3L170.76 87.39L172.38 87.4L174.08 87.32L175.47 87.19L176.85 87L178.2 86.77L179.53 86.49L180.83 86.16L182.1 85.79L183.35 85.37L184.58 84.93L185.77 84.45L186.94 83.94L188.07 83.4L189.18 82.84L190.26 82.26L191.3 81.66L192.31 81.04L193.29 80.41L194.24 79.78L195.15 79.14L196.03 78.5L196.87 77.85L197.67 77.22L198.44 76.58L199.17 75.96L199.86 75.35L200.51 74.76L201.12 74.19L201.69 73.64L202.22 73.11L202.71 72.61L203.15 72.15L203.55 71.72L203.91 71.32L201.51 84.04L217.25 82.92L220.36 66.37L222.1 66.04L222.54 68.08L223.05 70L223.63 71.79L224.28 73.46L225 75L225.81 76.41L226.71 77.69L227.7 78.83L228.8 79.82L230 80.68L231.31 81.39L232.73 81.95L234.29 82.36L235.97 82.62L237.78 82.72L239.73 82.65L240.99 82.51L242.23 82.28L243.47 81.95L244.69 81.54L245.89 81.07L247.07 80.53L248.23 79.94L249.35 79.3L250.44 78.63L251.5 77.93L252.51 77.21L253.48 76.48L254.41 75.75L255.28 75.03L256.09 74.32L256.85 73.64L257.47 74.51L258.16 75.32L258.91 76.07L259.72 76.76L260.59 77.4L261.51 77.97L262.5 78.48L263.55 78.94L264.65 79.32L265.81 79.65L267.02 79.91L268.29 80.11L269.62 80.24L270.99 80.3H272.42L273.9 80.23L275.44 80.08L276.95 79.87L278.42 79.59L279.87 79.25L281.28 78.84L282.65 78.38L284 77.85L285.3 77.27L286.57 76.62L287.8 75.93L288.99 75.18L290.14 74.38L291.24 73.52L292.31 72.62L293.33 71.67L294.3 70.68L295.23 69.64L296.12 68.55L296.95 67.43L297.73 66.27L298.47 65.07L299.15 63.83L299.78 62.56L300.36 61.25L300.89 59.91L301.35 58.55L301.77 57.15L302.12 55.73L302.41 54.28L302.65 52.8L302.82 51.31L302.94 49.79L302.97 47.81L302.85 45.95L302.59 44.2L302.18 42.56L303.66 42.04L305.06 41.48L306.4 40.89L307.68 40.27L308.89 39.63L310.03 38.96L311.12 38.28L312.14 37.58L313.11 36.87L314.01 36.15L314.87 35.43L315.66 34.71L316.41 33.98L317.1 33.27L317.75 32.56L318.34 31.86L318.89 31.18L319.39 30.52L319.85 29.88L320.26 29.27L320.64 28.69L320.97 28.14L321.26 27.62L321.52 27.15L321.74 26.72L321.93 26.33L322.08 26L322.21 25.71L322.3 25.49L322.37 25.32L322.42 25.19L322.07 25.21Z" fill="#8ED7F7"/>
<path d="M286.41 51.85L286.38 52.9L286.27 54.25L286.09 55.59L285.84 56.92L285.52 58.23L285.14 59.5L284.69 60.72L284.18 61.88L283.61 62.98L282.98 63.99L282.29 64.92L281.55 65.74L280.75 66.45L279.91 67.04L279.01 67.49L278.07 67.8L277.08 67.96L276.19 67.98L275.36 67.93L274.61 67.79L273.94 67.58L273.32 67.28L272.78 66.92L272.3 66.47L271.89 65.95L271.54 65.36L271.24 64.69L271.01 63.95L270.83 63.15L270.71 62.27L270.65 61.32L270.63 60.31L270.66 59.23L270.77 57.94L270.94 56.65L271.18 55.37L271.49 54.11L271.88 52.89L272.33 51.71L272.85 50.58L273.44 49.52L274.11 48.54L274.84 47.64L275.65 46.83L276.52 46.13L277.47 45.55L278.49 45.1L279.58 44.79L280.75 44.63L281.45 44.61L282.11 44.66L282.73 44.79L283.3 44.98L283.83 45.25L284.31 45.59L284.74 45.99L285.13 46.47L285.46 47.02L285.75 47.65L285.99 48.34L286.17 49.11L286.3 49.95L286.38 50.86L286.41 51.85Z" fill="#D64126"/>
<path d="M234.67 49.5L234.68 50.04L234.57 50.79L234.35 51.52L234 52.2L233.54 52.86L232.98 53.49L232.32 54.08L231.57 54.63L230.74 55.16L229.83 55.65L228.86 56.1L227.81 56.52L226.72 56.91L225.57 57.26L224.38 57.57L223.16 57.85L221.91 58.09L222.31 56.33L222.67 55.52L223.06 54.72L223.48 53.92L223.94 53.14L224.42 52.38L224.94 51.66L225.48 50.96L226.05 50.31L226.66 49.7L227.29 49.15L227.95 48.66L228.64 48.23L229.36 47.87L230.11 47.59L230.88 47.4L231.69 47.29L232.49 47.31L233.15 47.45L233.68 47.71L234.09 48.07L234.38 48.5L234.57 48.98L234.67 49.5Z" fill="#D64126"/>
<path d="M81.94 133.93H85.74L80.68 180.33H68.52L70.7 160.86L56.71 173.44H55.3L45.39 160.93L42.3 180.33H30.21L37.66 133.93H41.32L58.26 158.39L81.95 133.93H81.94Z" fill="#0B6384"/>
<path d="M87.0099 167.81C87.0099 156.35 94.7399 148.55 106.55 148.55C115.76 148.55 121.24 153.33 121.24 161.56C121.24 172.95 113.44 181.24 101.77 181.24C92.4899 181.24 87.0099 176.11 87.0099 167.81ZM108.59 163.03C108.59 159.44 107.25 157.69 105.08 157.69C101.21 157.69 99.5999 162.19 99.5999 166.41C99.5999 170.07 100.58 172.1 103.75 172.1C106.92 172.1 108.6 167.32 108.6 163.03H108.59Z" fill="#0B6384"/>
<path d="M120.33 176.81L124.83 168.73C126.8 170.63 130.95 173.02 134.95 173.02C137.41 173.02 138.39 172.32 138.39 171.54C138.39 168.31 122.92 169.85 122.92 159.17C122.92 152.42 129.11 148.56 136.91 148.56C144.08 148.56 150.06 151.58 150.06 157.63L141.27 160.02C141.13 157.14 138.46 156.43 136.7 156.43C134.94 156.43 133.61 156.99 133.61 158.19C133.61 162.2 149.08 160.3 149.08 170.56C149.08 177.24 142.54 181.25 134.11 181.25C125.68 181.25 121.53 178.02 120.33 176.82V176.81Z" fill="#0B6384"/>
<path d="M166.44 158.6L165.32 166.54C164.76 170.2 165.46 171.88 168.83 171.88C170.87 171.88 172.98 171.39 174.95 170.26L174.25 178.98C171.37 180.67 166.45 181.23 163.56 181.23C155.48 181.23 151.75 177.15 152.87 169L154.35 158.6H150.41L151.68 149.46H155.62L156.67 142.15L168.97 141.31L167.77 149.46H176.35L175.16 158.6H166.44Z" fill="#0B6384"/>
<path d="M191.19 175.4L196.53 164.64C199.76 168.01 204.19 170.26 210.31 170.26C213.75 170.26 216.36 169.56 216.36 167.87C216.36 162.32 194.22 164.28 194.22 149.24C194.22 139.96 202.23 133 213.9 133C223.81 133 230.07 137.99 230.07 145.58L218.75 149.09C218.12 145.15 216.08 143.04 211.79 143.04C208.42 143.04 206.66 144.38 206.66 146.48C206.66 153.37 228.38 151.33 228.38 165.04C228.38 174.74 219.45 181.21 208.2 181.21C201.31 181.21 194.56 178.75 191.19 175.38V175.4Z" fill="#0B6384"/>
<path d="M266.76 133.93H279.48L273.15 180.33H267.88L247.21 157.91L244.19 180.33H231.47L237.73 133.93H243L263.67 156.5L266.76 133.93Z" fill="#0B6384"/>
<path d="M302.47 133.93C315.55 133.93 321.59 139.27 321.59 148.55C321.59 161.84 312.66 170.27 298.25 170.27H294.66L293.32 180.32H280.6L286.93 133.92H302.47V133.93ZM298.67 159.94C305.07 159.94 308.37 156.71 308.37 150.8C308.37 146.16 306.19 144.33 301.48 144.33H298.18L296.07 159.94H298.67Z" fill="#0B6384"/>
</g>
<defs>
<clipPath id="clip0_2259_19097">
<rect width="350.55" height="191.74" fill="white"/>
</clipPath>
</defs>
</svg>
