<svg width="140" height="81" viewBox="0 0 140 81" fill="none" xmlns="http://www.w3.org/2000/svg">
<path d="M128.62 8.08172L128.482 8.09102L128.317 8.10187L128.097 8.11737L127.826 8.13597L127.51 8.15768L127.155 8.18248L126.764 8.21038L126.346 8.23983L125.904 8.27083L125.444 8.30338L124.971 8.33748L124.49 8.37158L124.008 8.40568L123.529 8.43978L123.06 8.47388L122.826 8.96833L122.587 9.42713L122.345 9.85028L122.1 10.2409L121.854 10.5989L121.607 10.9275L121.361 11.2267L121.114 11.4979L120.87 11.7428L120.628 11.9629L120.389 12.1598L120.155 12.3334L119.926 12.4868L119.702 12.6201L119.487 12.7348L119.279 12.8325L118.743 12.3396L118.131 11.918L117.446 11.5692L116.689 11.2949L115.863 11.0965L114.967 10.974L114.005 10.9306L112.977 10.9663L112.355 11.0236L111.746 11.1058L111.149 11.2143L110.567 11.346L109.998 11.5026L109.443 11.6824L108.903 11.8854L108.378 12.1102L107.868 12.3566L107.375 12.6248L106.898 12.9131L106.437 13.2231L105.994 13.5517L105.568 13.9004L105.16 14.2678L104.771 14.6538L104.401 15.0568L104.049 15.4768L103.716 15.9139L103.403 16.3681L103.11 16.8377L103.088 16.8765L98.9525 13.0588L98.9137 13.0169L98.6378 12.7937L98.334 12.6046L99.0625 8.71878L92.0069 2.2041L85.7092 2.65205L85.176 5.47926L82.3705 2.8892H82.3503L82.3348 2.8923H82.3147L82.2914 2.8954H82.2635L82.2325 2.90005L82.1969 2.90315L82.1581 2.90625L82.1147 2.90935L82.0682 2.91245L82.0186 2.91555L81.9659 2.91865L81.9086 2.9233L81.8481 2.92795L81.7846 2.9326L81.7179 2.93725L81.6482 2.9419L81.5753 2.94655L81.5009 2.9512L81.4234 2.9574L81.3428 2.9636L81.2607 2.9698L81.1754 2.976L81.0871 2.9822L80.9972 2.9884L80.9042 2.9946L80.8096 3.0008L80.7135 3.007L80.6143 3.0132L80.5136 3.02095L80.4113 3.0287L80.3074 3.03645L80.202 3.0442L80.0951 3.05195L79.9866 3.0597L79.8765 3.06746L79.7649 3.0752L79.6518 3.08295L79.5386 3.09071L79.4239 3.09846L79.3077 3.10621L79.1914 3.11396L79.0736 3.12171L78.9558 3.12946L78.8365 3.13721L78.7171 3.14496L78.5978 3.15271L78.4784 3.16201L78.3575 3.17131L78.2366 3.18061L78.1157 3.18991L77.9948 3.19921L77.8739 3.20851L77.753 3.21781L77.6321 3.22711L77.5128 3.23641L77.3934 3.24416L77.2741 3.25191L77.1563 3.25966L77.0385 3.26741L76.9207 3.27516L76.8044 3.28291L76.7455 3.43481L76.6866 3.58361L76.6277 3.72931L76.5688 3.87191L76.5099 4.01141L76.451 4.14781L76.3921 4.28111L76.3332 4.41131L76.2743 4.53841L76.2154 4.66241L76.1565 4.78331L76.0976 4.90111L76.0387 5.01581L75.9798 5.12896L75.9209 5.23901L75.862 5.34596L75.8031 5.44981L75.7458 5.55211L75.6884 5.65131L75.6311 5.74897L75.5737 5.84352L75.5164 5.93652L75.459 6.02642L75.4016 6.11477L75.3443 6.20002L75.2869 6.28372L75.2296 6.36432L75.1723 6.44337L75.1149 6.52087L75.0591 6.59682L75.0033 6.66967L74.9475 6.74097L74.8917 6.81072L74.8623 6.84637L71.4212 3.66886L71.3329 3.67506L71.243 3.68126L71.1515 3.68746L71.0585 3.69366L70.964 3.69986L70.8694 3.70606L70.7733 3.71226L70.6757 3.71846L70.578 3.72466L70.4788 3.73086L70.3796 3.73861L70.2804 3.74636L70.1797 3.75411L70.0789 3.76186L69.9782 3.76961L69.8774 3.77736L69.7767 3.78511L69.6759 3.79286L69.5752 3.80061L69.4744 3.80836L69.3737 3.81611L69.2745 3.82386L69.1753 3.83161L69.0761 3.83936L68.9784 3.84556L68.8808 3.85176L68.7847 3.85796L68.6886 3.86416L68.594 3.87036L68.501 3.87656L68.408 3.88276L68.3166 3.88896L68.2267 3.89516L68.1383 3.90136L68.0515 3.90756L67.9663 3.91376L67.8826 3.91996L67.8004 3.92616L67.7214 3.93236L67.6439 3.93856L67.5679 3.94321L67.4951 3.94786L67.4238 3.95251L67.3556 3.95716L67.2889 3.96181L67.2254 3.96646L67.1649 3.97111L67.1076 3.97576L67.0518 3.98041L66.9991 3.98351L66.9495 3.98661L66.903 3.98971L66.8596 3.99281L66.8193 3.99591L66.7821 3.99901L66.7495 4.00211H66.7201L66.6937 4.00676H66.672L66.6534 4.00986H66.6286L66.6193 4.02071V4.03001L66.6162 4.04396L66.6131 4.06101L66.61 4.08116L66.6069 4.10596L66.6038 4.13386L66.6007 4.16486L66.5961 4.19896L66.5914 4.23771L66.5868 4.27956L66.5837 4.32451L66.5806 4.37256L66.5775 4.42371L66.5744 4.47796L66.5713 4.53841L66.5682 4.60196V4.66861L66.5651 4.73836V4.96466L66.5697 5.04526L66.5728 5.12896L66.5775 5.21576L66.5837 5.30411L66.5914 5.39556L66.6007 5.48856L66.6116 5.58466L66.624 5.68232L66.6379 5.78307L66.6534 5.88537L66.6705 5.98922L66.6891 6.09462L66.7108 6.20312L66.734 6.31317L66.7588 6.42477L66.7867 6.53792L66.8162 6.65262L66.8487 6.76887L66.8844 6.88512L66.9216 7.00292L66.9619 7.12227L67.0053 7.24317L67.0518 7.36407L67.1014 7.48652L67.1541 7.60897L67.2099 7.73297L67.2688 7.85697L67.3308 7.98252L67.3959 8.10807L67.4641 8.23362L67.5369 8.36073L67.6129 8.48783L67.6919 8.61493L67.7756 8.74203L67.8624 8.86913L67.9539 8.99623L68.0484 9.12333L68.1476 9.25043L68.2515 9.37753L68.36 9.50463L68.4716 9.63018L68.5878 9.75573L68.7087 9.88128L68.8343 10.0053L68.9645 10.1293L69.0389 10.1975L69.0187 10.2037L72.9418 13.826L72.7015 13.8353L72.1017 13.8911L71.5142 13.9733L70.9392 14.0818L70.3781 14.2151L69.8294 14.3732L69.2946 14.5561L68.7738 14.7623L68.267 14.9901L67.7756 15.2412L67.6439 15.3172L67.6718 15.2428L67.7059 15.1451L67.7384 15.0475L67.7679 14.9498L67.7958 14.8506L67.8206 14.7514L67.8438 14.6522L67.864 14.5514L67.8888 14.412L67.9074 14.274L67.9213 14.1376L67.9306 14.0027L67.9337 13.9144V13.6524L67.9275 13.5672L67.9213 13.4835L67.912 13.3998L67.9012 13.3176L67.8888 13.2355L67.8748 13.1549L67.8578 13.0758L67.8392 12.9968L67.819 12.9193L67.7973 12.8433L67.7725 12.7674L67.7462 12.693L67.7183 12.6201L67.6888 12.5488L67.6578 12.4775L67.6253 12.4078L67.5912 12.3396L67.554 12.2729L67.5152 12.2078L67.4749 12.1443L67.4331 12.0807L67.3897 12.0187L67.3447 11.9583L67.2982 11.8994L67.2502 11.842L67.213 11.8002L67.2471 11.7893L60.1914 5.27466L60.1573 5.28551L60.1449 5.27156L60.0938 5.21731L60.0411 5.16461L59.9868 5.11346L59.931 5.06386L59.8737 5.01581L59.8148 4.96931L59.7543 4.92436L59.6923 4.88096L59.6288 4.83911L59.5652 4.79881L59.5001 4.76006L59.4335 4.72286L59.3653 4.68721L59.2955 4.65311L59.2242 4.62056L59.1514 4.59111L59.0785 4.56321L59.0041 4.53686L58.9282 4.51206L58.8507 4.48881L58.7732 4.46866L58.6941 4.45006L58.6135 4.43301L58.5314 4.41751L58.4492 4.40356L58.3655 4.39271L58.2803 4.38341L58.195 4.37566L58.1082 4.37101L58.0199 4.36791H57.8416L57.7517 4.37101L57.6603 4.37721L57.5595 4.38496L57.4588 4.39581L57.358 4.40976L57.2588 4.42526L57.1596 4.44386L57.0604 4.46401L56.9612 4.48726L56.8636 4.51206L56.7659 4.53996L56.6683 4.56941L56.5706 4.60196L56.4745 4.63606L56.3784 4.67171L56.2839 4.71046L56.1893 4.75076L56.0963 4.79261L56.0033 4.83756L55.9103 4.88406L55.8189 4.93211L55.729 4.98171L55.6391 5.03441L55.5507 5.08866L55.4624 5.14446L55.3756 5.20181L55.2888 5.26071L55.2035 5.32116L55.1198 5.38316L55.0377 5.44671L54.9555 5.51181L54.8749 5.58001L54.7959 5.64821L54.7184 5.71797L54.6409 5.78927L54.5649 5.86212L54.4905 5.93652L54.4177 6.01247L54.3464 6.08997L54.2766 6.16902L54.2084 6.24962L54.1418 6.33177L54.0767 6.41392L54.0131 6.49762L53.9511 6.58287L53.8907 6.66967L53.8318 6.75647L53.7744 6.84482L53.7186 6.93472L53.6644 7.02462L53.6132 7.11607L53.5636 7.20907L53.5156 7.30207L53.4691 7.39662L53.4241 7.49117L53.3823 7.58727L53.342 7.68337L53.3032 7.78102L53.2676 7.87867L53.2335 7.97787L53.2009 8.07707L53.1715 8.17782L53.1436 8.27858L53.1188 8.37933L53.0955 8.48163L53.0754 8.58393L53.0521 8.71878L53.0335 8.85208L53.0196 8.98383L53.0103 9.11403L53.0072 9.20083V9.45813L53.0134 9.54183L53.0196 9.62553L53.0289 9.70768L53.0397 9.78983L53.0521 9.87043L53.0676 9.94948L53.0847 10.0285L53.1033 10.106L53.1234 10.182L53.1467 10.2579L53.1715 10.3323L53.1978 10.4052L53.2257 10.478L53.2552 10.5493L53.2877 10.6191L53.3218 10.6873L53.3575 10.7555L53.3947 10.8221L53.4334 10.8872L53.4737 10.9508L53.5156 11.0128L53.559 11.0732L53.6039 11.1337L53.6504 11.1926L53.6985 11.2499L53.7481 11.3057L53.7992 11.36L53.8349 11.3956L53.793 11.408L58.0757 15.3621L56.0684 15.5047L55.2624 15.5931L54.5277 15.7341L53.855 15.9232L53.235 16.1542L52.66 16.4208L52.1206 16.7184L51.6091 17.0408L51.1162 17.3818L50.6341 17.7367L50.1536 18.0994L49.6669 18.4637L49.3569 18.6853L46.6382 16.1759L40.2506 16.63L40.3157 17.1012L40.3762 17.6065L40.4304 18.1428L40.4738 18.7086L40.5048 19.3007L40.5203 19.9191L40.5172 20.5624L40.4924 21.2273L40.4707 21.573L40.4444 21.9264L40.4196 22.1914L35.0736 17.2562H35.0705L35.0658 17.2516L34.8488 17.0857L34.607 16.9478L34.3389 16.8377L34.0475 16.7556L33.7313 16.6998L33.3918 16.6688L33.0291 16.6626L32.6447 16.6796L32.3208 16.7091L31.9891 16.7509L31.6527 16.8036L31.3148 16.8656L30.9769 16.9369L30.6406 17.016L30.3089 17.1012L29.9849 17.1927L29.6703 17.2888L29.3665 17.388L29.0766 17.4903L28.8038 17.5941L28.5496 17.698L28.3156 17.8003L28.1048 17.901L27.9188 17.9987L27.3685 22.038L24.363 19.2619L24.0112 18.8729L23.6051 18.5365L23.1447 18.2513L22.6301 18.0173L22.0597 17.8344L21.4335 17.7042L20.7515 17.6282L20.0137 17.605L19.2186 17.636L18.6187 17.6918L18.0313 17.7739L17.4562 17.8824L16.8936 18.0157L16.3449 18.1738L15.8101 18.3567L15.2893 18.5629L14.7825 18.7907L14.2911 19.0418L13.8153 19.3146L13.3549 19.6076L12.91 19.9222L12.4822 20.257L12.0715 20.6104L11.6778 20.9824L11.3011 21.373L10.9431 21.7807L10.6036 22.2054L10.2828 22.6471L9.98054 23.1044L9.69689 23.5771L9.43338 24.0654L9.19003 24.5676L8.96838 25.0822L8.76688 25.6107L8.58708 26.1517L8.42898 26.7035L8.29258 27.2677L8.17943 27.8428L8.08798 28.4271L8.01978 29.0208L7.97638 29.6237L7.96398 30.4576L8.01668 31.2528L8.13448 32.0045L8.31738 32.7113L8.56693 33.3716L8.88313 33.9808L9.26598 34.5372L9.71549 35.0394L10.0038 35.2859H9.99914L16.6998 41.4735L16.7711 41.5526L16.9788 41.7293L17.0563 41.8006H17.061L17.2904 41.9959L17.8763 42.3787L18.2126 42.543L4.82212 43.4932L3.81616 48.3974L8.42588 52.6537L10.8718 54.9121L126.696 46.6877L130.808 46.3963L131.814 41.4921L124.94 35.1433L124.76 34.9774L121.24 35.227L121.322 35.1851L121.813 34.9061L122.289 34.6054L122.413 34.5186L122.748 34.2846L123.191 33.9436L123.618 33.5824L124.025 33.2027L124.152 33.0725L124.416 32.8043L124.788 32.3889L125.141 31.9565L125.475 31.507L125.718 31.1458L125.788 31.042L125.878 30.8947L126.082 30.5615L126.338 30.0996L126.357 30.0655L126.609 29.5571L126.687 29.3835L126.84 29.0347L126.904 28.872L127.049 28.5L127.175 28.1357L127.237 27.9528L127.302 27.7327L127.401 27.3932L127.514 26.9375L127.542 26.8228L127.66 26.2431L127.755 25.6541L127.814 25.1442L127.824 25.0558L127.869 24.4482L127.874 24.1894L127.883 23.6577L127.86 23.2966L127.835 22.9122L127.73 22.2116L127.587 21.6365L127.567 21.5544L128.158 21.3451L128.72 21.1219L129.257 20.8863L129.767 20.6383L130.25 20.381L130.709 20.1144L131.143 19.8416L131.552 19.5626L131.938 19.279L132.301 18.9922L132.642 18.7024L132.961 18.4125L133.259 18.1242L133.536 17.8375L133.793 17.5538L134.032 17.2748L134.251 17.002L134.452 16.737L134.635 16.4812L134.801 16.2363L134.95 16.0023L135.083 15.7822L135.201 15.576L135.303 15.3869L135.392 15.2149L135.466 15.0614L135.528 14.9266L135.578 14.8134L135.615 14.7235L135.641 14.6568L135.661 14.6026L128.606 8.08792L128.62 8.08172ZM35.0829 24.194L35.2627 24.3599L35.1759 24.4017L35.0302 24.4792L35.0534 24.349L35.0813 24.194H35.0829ZM109.017 25.9207L108.854 26.4741L108.733 26.9592L108.854 26.4741L109.017 25.9207L109.195 25.4046L109.017 25.9207ZM108.471 28.4674L108.432 28.8069L108.387 29.4176L108.376 29.7973L108.387 29.4176L108.432 28.8069L108.471 28.4674ZM75.0855 31.0203L75.0901 30.8513L75.0855 31.0203ZM75.1335 30.0376L75.1924 29.5602L75.2265 29.3587L75.1924 29.5602L75.1335 30.0376ZM69.4155 28.052L69.3148 28.3155L69.2249 28.5868L69.3148 28.3155L69.4155 28.052ZM69.0854 29.027L68.9753 29.4098L68.8389 29.974L68.794 30.2034L68.8389 29.974L68.9753 29.4098L69.0854 29.027ZM68.5227 32.3285L68.5661 31.7255L68.5971 31.4496L68.5661 31.7255L68.5227 32.3285L68.5165 32.9686L68.5227 32.3285ZM21.7497 33.1391L21.7854 32.9345L21.7497 33.1391ZM21.6056 34.8178L21.618 34.3125L21.6319 34.1373L21.618 34.3125L21.6056 34.8178L21.6149 35.0534L21.6056 34.8178ZM35.5014 33.6243L35.5324 33.4646L35.5014 33.6243L35.4425 33.677L35.5014 33.6243ZM35.6114 33.0415L35.6161 33.0198L35.6114 33.0415L35.6006 33.0973L35.6114 33.0415ZM35.723 32.4618L35.7773 32.1766L35.83 31.8976L35.8811 31.6248L35.9292 31.3613L35.9369 31.3163L35.9292 31.3613L35.8811 31.6248L35.83 31.8976L35.7773 32.1766L35.723 32.4618L35.7184 32.4835L35.723 32.4618ZM36.0888 30.4266L36.1136 30.253L36.0888 30.4266L36.0547 30.639L36.0888 30.4266ZM41.9339 31.8309L41.8797 32.1394L41.827 32.437L41.8177 32.4943L41.827 32.437L41.8797 32.1394L41.9339 31.8309L41.9556 31.71L41.9339 31.8309ZM42.6345 27.8893L42.664 27.7172L42.6872 27.5808L42.664 27.7172L42.6345 27.8893ZM42.8794 26.2106V26.2276L42.8717 26.3268L42.8577 26.4555L42.8717 26.3268L42.8794 26.2276V26.2106ZM42.8128 26.7887L42.7973 26.8941L42.8128 26.7887L42.8252 26.6988L42.8128 26.7887ZM42.5152 28.5837L42.4609 28.8952L42.4485 28.9696L42.4609 28.8952L42.5152 28.5837L42.5198 28.562L42.5152 28.5837ZM42.3292 29.6284L42.2858 29.8671L42.2269 30.1988L42.1664 30.532L42.1075 30.8637L42.0486 31.1923L42.03 31.2946L42.0486 31.1923L42.1075 30.8637L42.1664 30.532L42.2269 30.1988L42.2858 29.8671L42.3292 29.6284ZM34.6907 34.314L34.4117 34.5341L34.0692 34.7868L34.4117 34.5341L34.6907 34.314ZM28.3915 41.7091L28.7372 41.5355L28.8751 41.4658L29.3432 41.2116L29.7974 40.9496L29.94 40.8628L30.236 40.6815L30.4468 40.5451L30.6576 40.4087L31.0637 40.1312L31.4543 39.8522L31.7535 39.629L31.8279 39.5732L32.1844 39.2942L32.5238 39.0183L32.8075 38.778L32.8447 38.7455L33.1469 38.4804L33.4306 38.2216L33.6956 37.972L33.7933 37.8775L33.9405 37.7333L34.0366 37.6372L34.1653 37.5086L34.3714 37.2962L34.39 37.2761L34.5574 37.0994L34.7217 36.9196L34.8643 36.7584L34.9852 36.6173L35.0658 36.5212L35.0844 36.498L35.0906 37.1257L35.148 37.7256L35.227 38.1379L35.2565 38.2944L35.4177 38.8323L35.5417 39.1252L35.63 39.3345L35.7478 39.5391L35.8966 39.7995L36.1105 40.0832L36.2175 40.2257L36.5941 40.6102L36.7817 40.7574L37.0266 40.9496L37.1816 41.0426L37.3924 41.1697L28.1342 41.8269L28.1637 41.813L28.3915 41.7076V41.7091ZM46.7358 40.497L46.8567 40.4334L46.9668 40.3684L47.3434 40.1467L47.8131 39.8382L48.2657 39.5081L48.6997 39.1578L49.1166 38.7858L49.3569 38.5502L49.5165 38.3936L49.7103 38.1844L49.8979 37.9829L50.2621 37.5535L50.6093 37.1056L50.9395 36.639L51.2526 36.1554L51.3502 35.9896L51.5471 35.6563L51.7408 35.2952L51.8245 35.1402L51.9113 34.9635L52.0849 34.6085L52.102 34.5698L57.6882 39.7282L46.7079 40.5079L46.7327 40.4955L46.7358 40.497ZM65.6118 39.0911L65.8753 38.9299L66.1388 38.7687L66.6333 38.4355L66.8239 38.296L67.0952 38.0976L67.3013 37.9348L67.5245 37.7581L67.9229 37.4233L68.0081 37.3474L68.2887 37.0994L68.4561 36.9459L68.6235 36.7925L68.8048 36.6204L68.9242 36.5073L69.1939 36.25L69.4109 36.6545L69.4589 36.7289L69.6573 37.0358L69.9332 37.3923L70.2401 37.724L70.578 38.0294L70.9454 38.3084L71.2879 38.5254L71.3437 38.5595L71.6847 38.7362L65.4491 39.1795L65.6118 39.0911ZM81.9225 37.8868L82.3658 37.662L82.7967 37.4295L83.2152 37.1893L83.4183 37.0668L83.6213 36.9444L84.0135 36.6933L84.3917 36.4391L84.6056 36.2887L84.7559 36.1833L84.99 36.0113L86.7818 37.6667L81.6156 38.034L81.9225 37.8883V37.8868ZM94.4729 33.0229L97.9589 36.2422L98.1108 36.3647H98.1139L98.2146 36.4561L98.6347 36.7553L98.6951 36.7987L98.7277 36.8173L93.6948 37.1753L94.4729 33.0244V33.0229ZM106.439 36.2453L106.658 36.1105L106.876 35.9756L107.298 35.6951L107.62 35.4672L107.704 35.4083L108.091 35.1169L108.46 34.8255L108.562 34.7418L108.809 34.5372L108.95 34.4148L109.134 34.2551L109.437 33.9839L109.686 34.3295L109.961 34.6535L110.109 34.8038L110.26 34.9542L110.584 35.2316L110.829 35.4099L110.932 35.4858L111.118 35.6005L111.304 35.7152L111.362 35.7447L111.658 35.8981L106.389 36.2717L106.436 36.2453H106.439ZM106.882 30.0422L104.069 27.4444L106.882 30.0422ZM42.8143 25.0496L42.7694 24.8652L42.8143 25.0496L42.8376 25.2062L42.8143 25.0496ZM42.4888 24.1785L42.3586 23.9987L42.4888 24.1785L42.5958 24.3816L42.4888 24.1785ZM42.1401 23.7616L42.2594 23.884L42.1401 23.7616ZM34.3916 28.8704L34.4691 28.8534L34.3916 28.8704ZM16.1031 31.4279L16.0364 31.5829L15.8628 32.0386L16.0364 31.5829L16.1031 31.4279ZM15.6551 32.6524L15.7745 32.2913L15.6551 32.6524L15.497 33.2042L15.4412 33.4383L15.497 33.2042L15.6551 32.6524ZM126.324 11.4886L125.989 11.1802L126.324 11.4886ZM119.409 17.5383L120.031 17.481L120.832 17.4531L120.031 17.481L119.409 17.5383L119.228 17.5631L119.409 17.5383ZM117.052 18.0173L117.621 17.8607L117.83 17.8127L117.621 17.8607L117.052 18.0173L116.497 18.1971L116.323 18.2622L116.497 18.1971L117.052 18.0173ZM115.432 18.6233L115.62 18.5427L115.432 18.6233L114.922 18.8698L114.671 19.0062L114.922 18.8698L115.432 18.6233ZM57.1426 24.6637L56.7365 24.9675L56.4854 25.1473L56.7365 24.9675L57.1426 24.6637Z" fill="#D44126"/>
<path d="M82.3674 3.06431L82.3689 3.02401L82.3705 2.98836V2.95891L82.372 2.93411V2.91396V2.90001L82.3705 2.88916L82.3519 2.89071L82.3364 2.89226L82.3162 2.89381L82.293 2.89536L82.2651 2.89691L82.2341 2.89846L82.1984 2.90156L82.1597 2.90466L82.1163 2.90776L82.0698 2.91086L82.0202 2.91396L81.9659 2.91861L81.9101 2.92171L81.8497 2.92636L81.7861 2.93101L81.721 2.93566L81.6513 2.94031L81.58 2.94496L81.504 2.95116L81.4265 2.95581L81.3459 2.96201L81.2638 2.96821L81.1785 2.97441L81.0902 2.98061L81.0003 2.98681L80.9073 2.99301L80.8143 2.99921L80.7166 3.00696L80.619 3.01316L80.5182 3.02091L80.4159 3.02866L80.3121 3.03486L80.2067 3.04261L80.0997 3.05036L79.9912 3.05811L79.8812 3.06586L79.7696 3.07361L79.6564 3.08136L79.5433 3.09066L79.4286 3.09841L79.3123 3.10616L79.1961 3.11391L79.0782 3.12321L78.9605 3.13096L78.8426 3.14026L78.7233 3.14801L78.6039 3.15731L78.483 3.16506L78.3637 3.17436L78.2428 3.18211L78.1219 3.19141L78.001 3.19916L77.8801 3.20846L77.7607 3.21621L77.6398 3.22551L77.5205 3.23326L77.4011 3.24256L77.2818 3.25031L77.1624 3.25961L77.0446 3.26736L76.9284 3.27511L76.8121 3.28441L76.7532 3.43631L76.6928 3.58511L76.6339 3.72926L76.575 3.87186L76.5161 4.01136L76.4572 4.14622L76.3967 4.27952L76.3378 4.40972L76.2789 4.53527L76.22 4.65927L76.1627 4.78017L76.1038 4.89797L76.0449 5.01422L75.986 5.12582L75.9271 5.23587L75.8697 5.34282L75.8108 5.44822L75.7535 5.55052L75.6946 5.64972L75.6372 5.74737L75.5799 5.84192L75.5225 5.93337L75.4652 6.02327L75.4078 6.11162L75.3505 6.19687L75.2931 6.28057L75.2358 6.36117L75.1784 6.44177L75.1226 6.51772L75.0653 6.59368L75.0095 6.66653L74.9537 6.73783L74.8963 6.80758L74.8405 6.87578L74.7847 6.94088L74.7289 7.00598L74.6747 7.06798L74.6189 7.12998L74.5631 7.18888L74.5088 7.24778L74.4546 7.30358L74.4003 7.35938L74.3461 7.41363L74.2918 7.46633L74.2376 7.51748L74.1833 7.56708L74.1306 7.61668L74.0764 7.66473L74.0237 7.71123L73.971 7.75618L73.9183 7.80113L73.8656 7.84608L73.8129 7.88793L73.7617 7.93133L73.709 7.97163L73.6579 8.01348L73.6067 8.05378L73.5556 8.09253L73.5044 8.13128L73.4548 8.17003L73.4037 8.20723L73.3541 8.24443L73.3045 8.28163L73.2549 8.31883L73.244 8.31108L73.227 8.29868L73.2161 8.28938L73.2022 8.27853L73.1867 8.26613L73.1696 8.25218L73.151 8.23513L73.1309 8.21808L73.1092 8.19793L73.0859 8.17623L73.0611 8.15143L73.0348 8.12508L73.0069 8.09718L72.9774 8.06773L72.948 8.03518L72.917 8.00108L72.8844 7.96388L72.8519 7.92513L72.8178 7.88483L72.7821 7.84143L72.7465 7.79493L72.7108 7.74688L72.6736 7.69728L72.6364 7.64458L72.5977 7.58878L72.5589 7.53143L72.5202 7.47098L72.4814 7.40743L72.4411 7.34233L72.4024 7.27413L72.3621 7.20283L72.3218 7.12998L72.2815 7.05248L72.2412 6.97343L72.2024 6.89283L72.1621 6.80758L72.1234 6.71923L72.0846 6.62933L72.0459 6.53632L72.0071 6.43867L71.9699 6.33947L71.9327 6.23717L71.8955 6.13177L71.8599 6.02327L71.8258 5.91167L71.7917 5.79697L71.7591 5.67762L71.7266 5.55672L71.6956 5.43272L71.6646 5.30407L71.6367 5.17232L71.6088 5.03747L71.5824 4.89952L71.5576 4.75847L71.5344 4.61277L71.5111 4.46397L71.491 4.31207L71.4724 4.15552L71.4553 3.99586L71.4398 3.83311L71.4259 3.66571L71.3375 3.67346L71.2476 3.67966L71.1562 3.68586L71.0632 3.69206L70.9686 3.69826L70.8741 3.70601L70.7764 3.71221L70.6803 3.71996L70.5827 3.72616L70.4835 3.73391L70.3843 3.74011L70.2851 3.74786L70.1843 3.75406L70.0851 3.76181L69.9844 3.76956L69.8836 3.77576L69.7829 3.78351L69.6821 3.78971L69.5814 3.79746L69.4806 3.80521L69.3799 3.81141L69.2807 3.81916L69.1815 3.82536L69.0823 3.83311L68.9846 3.83931L68.887 3.84706L68.7909 3.85326L68.6948 3.86101L68.6002 3.86721L68.5057 3.87341L68.4142 3.87961L68.3228 3.88736L68.2329 3.89356L68.1445 3.89976L68.0593 3.90596L67.974 3.91216L67.8903 3.91681L67.8097 3.92301L67.7291 3.92921L67.6516 3.93386L67.5772 3.94006L67.5044 3.94471L67.4331 3.94936L67.3648 3.95556L67.2982 3.96021L67.2346 3.96331L67.1742 3.96796L67.1153 3.97261L67.061 3.97571L67.0084 3.98036L66.9587 3.98346L66.9123 3.98656L66.8689 3.98966L66.8301 3.99276L66.7929 3.99586L66.7603 3.99741L66.7309 4.00051L66.7046 4.00206L66.6828 4.00361L66.6642 4.00516H66.6503L66.6394 4.00671L66.6301 4.01446L66.6286 4.02376L66.6255 4.03771L66.6239 4.05476L66.6208 4.07646L66.6162 4.09972L66.6131 4.12762L66.61 4.16017L66.6053 4.19427L66.6022 4.23147L66.5976 4.27332L66.5945 4.31827L66.5898 4.36477L66.5867 4.41592L66.5837 4.47017L66.5805 4.52907L66.579 4.59262L66.5774 4.65927L66.5759 4.72902V4.80187V4.87627L66.5774 4.95532L66.5805 5.03592L66.5837 5.11962L66.5883 5.20642L66.5945 5.29477L66.6022 5.38622L66.61 5.47922L66.6208 5.57532L66.6333 5.67297L66.6472 5.77372L66.6612 5.87447L66.6797 5.97987L66.6983 6.08527L66.7201 6.19222L66.7433 6.30227L66.7681 6.41387L66.796 6.52547L66.827 6.64018L66.8596 6.75643L66.8952 6.87268L66.9324 6.99048L66.9727 7.10983L67.0161 7.23073L67.0626 7.35163L67.1107 7.47408L67.1634 7.59808L67.2192 7.72053L67.2765 7.84608L67.3385 7.97163L67.4036 8.09718L67.4734 8.22273L67.5447 8.34983L67.6206 8.47693L67.6997 8.60403L67.7834 8.73113L67.8702 8.85823L67.9616 8.98689L68.0577 9.11399L68.1569 9.24109L68.2592 9.36819L68.3677 9.49374L68.4793 9.62084L68.5971 9.74639L68.718 9.87039L68.8436 9.99594L68.9738 10.1199L69.1102 10.2424L69.2497 10.3648L69.3954 10.4857L69.5457 10.6051L69.7007 10.7244L69.8619 10.8422L70.0278 10.9585L70.1998 11.0747L70.3765 11.1879L70.5579 11.2995L70.747 11.4111L70.9407 11.5196L75.104 11.2235L75.4109 11.0825L75.7085 10.9399L75.9968 10.7942L76.2774 10.6485L76.5502 10.5012L76.8137 10.3509L77.0694 10.2021L77.3174 10.0502L77.5577 9.89829L77.7902 9.74484L78.0149 9.58984L78.2319 9.43484L78.4427 9.27984L78.6458 9.12484L78.8411 8.96829L79.0302 8.81173L79.2116 8.65518L79.3867 8.49863L79.5557 8.34208L79.7169 8.18553L79.8734 8.02898L80.0222 7.87398L80.1664 7.71898L80.3028 7.56398L80.4345 7.41053L80.5616 7.25708L80.681 7.10518L80.7957 6.95328L80.9057 6.80293L81.0111 6.65413L81.1103 6.50687L81.2049 6.35962L81.2932 6.21547L81.3785 6.07287L81.4591 5.93027L81.535 5.79077L81.6063 5.65437L81.673 5.51797L81.7365 5.38467L81.797 5.25447L81.8512 5.12582L81.9039 4.99872L81.952 4.87627L81.9969 4.75537L82.0388 4.63602L82.0775 4.52132L82.1116 4.40972L82.1442 4.29967L82.1736 4.19427L82.2015 4.09197L82.2248 3.99276L82.248 3.89666L82.2666 3.80521L82.2852 3.71686L82.3007 3.63316L82.3131 3.55256L82.3255 3.47506L82.3348 3.40376L82.3441 3.33556L82.3503 3.27201L82.3565 3.21311L82.3612 3.15886L82.3643 3.10926L82.3674 3.06431Z" fill="#8CD5F5"/>
<path d="M123.763 39.8723L124.769 34.9666L4.83297 43.4838L3.82547 48.3881L123.763 39.8723Z" fill="#8CD5F5"/>
<path d="M60.8889 7.47718L60.892 7.38883L60.8936 7.30048V7.21368L60.8905 7.12688L60.8858 7.04163L60.8796 6.95793L60.8703 6.87423L60.8595 6.79208L60.8471 6.70993L60.8331 6.62933L60.8161 6.55028L60.7975 6.47123L60.7773 6.39373L60.7556 6.31778L60.7308 6.24338L60.706 6.16898L60.6781 6.09613L60.6487 6.02483L60.6177 5.95352L60.5836 5.88377L60.5495 5.81712L60.5123 5.74892L60.4751 5.68382L60.4348 5.62027L60.3929 5.55672L60.3495 5.49472L60.3061 5.43582L60.2596 5.37692L60.2116 5.31957L60.162 5.26377L60.1108 5.20952L60.0581 5.15527L60.0039 5.10412L59.9481 5.05452L59.8907 5.00647L59.8318 4.95842L59.7714 4.91347L59.7109 4.87007L59.6474 4.82822L59.5838 4.78792L59.5187 4.74917L59.4505 4.71197L59.3823 4.67632L59.3126 4.64222L59.2428 4.61122L59.17 4.58022L59.0971 4.55232L59.0227 4.52597L58.9468 4.50117L58.8693 4.47792L58.7918 4.45777L58.7127 4.43762L58.6321 4.42057L58.55 4.40662L58.4678 4.39267L58.3841 4.38182L58.2989 4.37252L58.2136 4.36477L58.1268 4.36012L58.04 4.35702L57.9501 4.35547L57.8602 4.35702L57.7703 4.36012L57.6789 4.36632L57.5781 4.37407L57.4774 4.38492L57.3782 4.39887L57.2774 4.41437L57.1782 4.43297L57.079 4.45312L56.9798 4.47637L56.8822 4.50117L56.7845 4.52907L56.6869 4.55852L56.5892 4.58952L56.4931 4.62362L56.3985 4.65927L56.3024 4.69802L56.2079 4.73832L56.1149 4.78017L56.0219 4.82512L55.9289 4.87162L55.8374 4.91967L55.7475 4.96927L55.6576 5.02197L55.5677 5.07467L55.4809 5.13047L55.3926 5.18782L55.3073 5.24827L55.2221 5.30872L55.1384 5.37072L55.0562 5.43582L54.9741 5.50092L54.8935 5.56912L54.8144 5.63732L54.7354 5.70862L54.6594 5.77992L54.5835 5.85277L54.5091 5.92872L54.4362 6.00468L54.3649 6.08218L54.2952 6.16123L54.227 6.24183L54.1603 6.32243L54.0937 6.40613L54.0301 6.48983L53.9681 6.57508L53.9077 6.66033L53.8488 6.74868L53.7914 6.83703L53.7356 6.92693L53.6814 7.01683L53.6302 7.10828L53.5806 7.20128L53.531 7.29428L53.4861 7.38883L53.4411 7.48338L53.3993 7.57948L53.359 7.67558L53.3202 7.77323L53.2846 7.87088L53.2505 7.97008L53.2179 8.06928L53.1885 8.17003L53.1606 8.27078L53.1358 8.37153L53.1125 8.47383L53.0924 8.57614L53.0691 8.70944L53.049 8.84274L53.0366 8.97449L53.0273 9.10314L53.0226 9.19149L53.0211 9.27829L53.0226 9.36354L53.0257 9.44879L53.0304 9.53249L53.0366 9.61619L53.0459 9.69834L53.0567 9.78049L53.0707 9.86109L53.0846 9.94014L53.1017 10.0192L53.1203 10.0967L53.142 10.1742L53.1637 10.2486L53.1885 10.3245L53.2148 10.3974L53.2427 10.4687L53.2737 10.54L53.3047 10.6097L53.3388 10.6795L53.3745 10.7461L53.4117 10.8128L53.4504 10.8779L53.4907 10.9414L53.5326 11.005L53.576 11.0654L53.6209 11.1259L53.669 11.1832L53.717 11.2406L53.7666 11.2964L53.8178 11.3506L53.872 11.4033L53.9263 11.4545L53.9821 11.5041L54.0394 11.5537L54.0983 11.6002L54.1588 11.6451L54.2208 11.6885L54.2828 11.7304L54.3479 11.7707L54.413 11.8094L54.4796 11.8466L54.5494 11.8823L54.6176 11.9148L54.6889 11.9474L54.7602 11.9768L54.833 12.0063L54.9074 12.0326L54.9834 12.0574L55.0593 12.0807L55.1368 12.1008L55.2159 12.1195L55.2965 12.138L55.3771 12.152L55.4592 12.1659L55.5414 12.1768L55.6251 12.1861L55.7103 12.1938L55.7956 12.1985L55.8824 12.2016L55.9692 12.2032L56.0575 12.2016L56.1474 12.1985L56.2374 12.1938L56.335 12.1861L56.4342 12.1753L56.5319 12.1613L56.631 12.1458L56.7287 12.1272L56.8264 12.107L56.924 12.0853L57.0217 12.059L57.1178 12.0326L57.2139 12.0032L57.31 11.9706L57.4061 11.9381L57.5006 11.9009L57.5952 11.8637L57.6897 11.8234L57.7827 11.7815L57.8757 11.7366L57.9672 11.6916L58.0586 11.6436L58.1501 11.5924L58.2384 11.5413L58.3283 11.487L58.4167 11.4328L58.5035 11.3754L58.5887 11.3165L58.674 11.2561L58.7592 11.1941L58.8414 11.129L58.9235 11.0639L59.0057 10.9972L59.0847 10.929L59.1638 10.8577L59.2413 10.7864L59.3172 10.7136L59.3916 10.6392L59.4645 10.5632L59.5373 10.4873L59.6071 10.4082L59.6768 10.3292L59.7435 10.2486L59.8101 10.1664L59.8752 10.0827L59.9372 9.99904L59.9992 9.91379L60.0581 9.82699L60.117 9.74019L60.1728 9.65184L60.2271 9.56194L60.2798 9.47204L60.3294 9.38059L60.379 9.28759L60.4255 9.19459L60.4704 9.10159L60.5123 9.00704L60.5541 8.91094L60.5913 8.81639L60.6285 8.71874L60.6626 8.62109L60.6952 8.52344L60.7246 8.42579L60.7525 8.32658L60.7773 8.22738L60.8006 8.12818L60.8207 8.02743L60.8455 7.88793L60.8641 7.74843L60.8796 7.61203L60.8889 7.47718Z" fill="#8CD5F5"/>
<path d="M128.482 8.09094L128.319 8.10334L128.099 8.11884L127.828 8.13744L127.513 8.16069L127.156 8.18549L126.767 8.21339L126.347 8.24284L125.906 8.27384L125.445 8.30639L124.971 8.34049L124.49 8.37459L124.008 8.40869L123.531 8.44279L123.061 8.47689L122.826 8.96979L122.587 9.4286L122.345 9.85175L122.1 10.2423L121.854 10.6004L121.607 10.929L121.361 11.2282L121.114 11.4994L120.87 11.7459L120.628 11.966L120.391 12.1613L120.157 12.3349L119.927 12.4883L119.704 12.6216L119.488 12.7363L119.279 12.834L118.743 12.3411L118.131 11.9195L117.446 11.5707L116.689 11.2964L115.863 11.098L114.967 10.9755L114.005 10.9306L112.977 10.9662L112.354 11.0236L111.745 11.1073L111.148 11.2142L110.565 11.3475L109.996 11.5025L109.443 11.6823L108.902 11.8854L108.378 12.1101L107.868 12.3566L107.375 12.6247L106.898 12.913L106.437 13.223L105.994 13.5516L105.568 13.9004L105.16 14.2677L104.771 14.6537L104.399 15.0567L104.047 15.4767L103.716 15.9154L103.403 16.368L103.11 16.8376L102.837 17.3228L102.586 17.8234L102.356 18.3365L102.149 18.865L101.963 19.406L101.798 19.9593L101.659 20.5251L101.541 21.1032L101.448 21.6922L101.378 22.2921L101.333 22.9013L101.318 23.4608L101.332 24.0002L101.374 24.5179L101.443 25.017L101.336 25.1038L101.206 25.2015L101.053 25.31L100.878 25.4278L100.678 25.5502L100.458 25.6758L100.213 25.8029L99.9476 25.93L99.6577 26.054L99.3477 26.1733L99.0145 26.2834L98.6595 26.3857L98.2813 26.4756L97.8814 26.5531L97.4598 26.6135L97.0165 26.6554L96.4709 26.6693L95.9811 26.6321L95.5409 26.5469L95.1487 26.4213L94.8015 26.2555L94.4962 26.0571L94.2296 25.8292L93.9986 25.5766L93.7987 25.3022L93.6282 25.0124L93.484 24.7101L93.3616 24.3986L93.2608 24.0855L93.1756 23.7708L93.1043 23.4624L93.0423 23.1632L93.7568 22.8718L94.4419 22.5571L95.096 22.2192L95.716 21.8596L96.3019 21.4768L96.8491 21.0707L97.3575 20.6429L97.8256 20.1903L98.2487 19.7144L98.627 19.2138L98.9587 18.6899L99.2408 18.1412L99.4717 17.5677L99.6484 16.9694L99.7693 16.3463L99.8344 15.6984L99.8391 15.2907L99.8112 14.9017L99.7492 14.5312L99.6531 14.1809L99.5213 13.8523L99.3555 13.5485L99.1524 13.2695L98.9137 13.0169L98.6394 12.7937L98.3262 12.5999L97.9759 12.4372L97.5884 12.3085L97.1622 12.214L96.6987 12.1566L96.1934 12.1365L95.6494 12.1566L95.1983 12.2016L94.7535 12.2698L94.3195 12.3612L93.8963 12.4759L93.4809 12.6108L93.0748 12.7658L92.6796 12.9378L92.2936 13.13L91.9185 13.3362L91.5527 13.5594L91.1978 13.7965L90.8537 14.0476L90.5189 14.3096L90.1949 14.5839L89.8834 14.8676L89.5811 15.1605L92.0084 2.20557L85.7092 2.65197L81.8125 23.3229L81.487 23.6096L81.1088 23.9212L80.6794 24.256L80.2036 24.6063L79.6843 24.9674L79.1217 25.3332L78.5187 25.6959L77.8801 26.0524L77.2043 26.395L76.4991 26.7189L75.7613 27.0196L74.9986 27.2878L74.2097 27.5218L73.399 27.7125L72.5682 27.8551L71.7204 27.945L71.243 27.962L70.7981 27.9434L70.3889 27.8892L70.0123 27.7993L69.6682 27.6737L69.3582 27.5141L69.0807 27.3188L68.8374 27.0878L68.625 26.8228L68.4468 26.5221L68.2995 26.1873L68.1848 25.8184L68.1027 25.4154L68.0515 24.9767L68.0314 24.5055L68.0438 23.9987L68.081 23.5213L68.1383 23.0439L68.2205 22.5711L68.3243 22.1076L68.4514 21.655L68.6018 21.2195L68.7754 20.8025L68.9738 20.4104L69.1954 20.0477L69.4419 19.7144L69.7116 19.4184L70.0076 19.1626L70.33 18.9487L70.6757 18.7844L71.0477 18.6697L71.446 18.6124L71.7343 18.6093L71.9916 18.6434L72.2179 18.7116L72.4163 18.8108L72.5884 18.9363L72.7356 19.0867L72.8581 19.2587L72.9604 19.4494L73.0425 19.654L73.1077 19.8725L73.1557 20.0988L73.1882 20.3313L73.2084 20.5685L73.2177 20.8041V21.0366L73.2084 21.2644L78.8473 19.516L78.8613 18.7937L78.8241 18.1164L78.7357 17.4871L78.5947 16.9058L78.4025 16.3711L78.156 15.8859L77.8569 15.4488L77.505 15.0629L77.0989 14.7265L76.637 14.4413L76.1224 14.2057L75.552 14.0244L74.9258 13.8942L74.2454 13.8182L73.5075 13.795L72.7124 13.826L72.1125 13.8818L71.5251 13.9655L70.95 14.074L70.3889 14.2073L69.8402 14.3654L69.3055 14.5467L68.7847 14.7529L68.2778 14.9823L67.788 15.2318L67.3106 15.5046L66.8503 15.7991L66.407 16.1122L65.9792 16.447L65.5684 16.8004L65.1732 17.1724L64.7981 17.563L64.4385 17.9707L64.099 18.3969L63.7782 18.8371L63.4744 19.2959L63.1923 19.7687L62.9288 20.2554L62.6854 20.7576L62.4638 21.2722L62.2623 21.8007L62.0825 22.3417L61.9244 22.8935L61.788 23.4577L61.6733 24.0328L61.5834 24.6171L61.5152 25.2108L61.4702 25.8137L61.4625 26.7608L61.5384 27.6551L61.4996 27.5916L61.278 27.7574L61.0424 27.9279L60.7975 28.1031L60.5417 28.2798L60.2798 28.4549L60.0132 28.627L59.7419 28.7959L59.4707 28.9556L59.1994 29.1059L58.9297 29.247L58.6647 29.3725L58.4058 29.4841L58.1547 29.5771L57.9129 29.65L57.6851 29.7011L57.4681 29.729L57.2387 29.7275L57.0325 29.6887L56.8543 29.6081L56.7039 29.4841L56.5877 29.3105L56.5055 29.0873L56.4621 28.8083L56.459 28.472L56.4978 28.1L56.5768 27.6722L58.9344 15.2938L56.087 15.4969L55.2826 15.5852L54.5463 15.7263L53.8736 15.9154L53.2536 16.1448L52.677 16.4114L52.1376 16.709L51.6261 17.0314L51.1332 17.3724L50.6496 17.7273L50.1691 18.0885L49.6824 18.4527L49.1802 18.8139L48.6532 19.1657L48.0952 19.5036L47.4953 19.8198L46.8474 20.1097L46.866 19.5749L46.8738 19.0448L46.8691 18.524L46.8536 18.0156L46.8242 17.5212L46.7823 17.0469L46.725 16.5943L46.6537 16.1665L40.2677 16.6191L40.3328 17.0918L40.3948 17.5956L40.4475 18.1319L40.4909 18.6961L40.5219 19.2897L40.5374 19.9082L40.5343 20.5514L40.5095 21.2179L40.4893 21.5636L40.4614 21.917L40.4289 22.2781L40.3886 22.6439L40.3436 23.0144L40.2909 23.388L40.232 23.7631L40.1654 24.1382L40.0925 24.5133L40.0119 24.8868L39.9236 25.2573L39.829 25.6231L39.7267 25.9842L39.6151 26.3392L39.4973 26.6864L39.3702 27.0243L39.2354 27.3513L39.0912 27.6675L38.9393 27.9729L38.7781 28.2627L38.6092 28.5386L38.4294 28.7975L38.2418 29.0408L38.045 29.2656L37.8373 29.4702L37.6218 29.6531L37.3955 29.8158L37.1584 29.9538L36.9119 30.0685L36.6562 30.1584L36.3896 30.2204L36.1106 30.2545L35.6921 30.2452L35.3325 30.1553L35.0348 29.9894L34.7977 29.7492L34.6194 29.4392L34.5016 29.0641L34.4427 28.6254L34.4412 28.1279L34.4675 27.8132L34.4815 27.6954L34.5016 27.5497L34.528 27.3777L34.559 27.1839L34.5931 26.9669L34.6334 26.7313L34.6768 26.4771L34.7248 26.2059L34.7745 25.9207L34.8271 25.6246L34.8814 25.3162L34.9387 25L34.9961 24.6776L35.055 24.349L35.1154 24.0173L35.1743 23.684L35.2348 23.3523L35.2937 23.0237L35.3511 22.6982L35.4084 22.3789L35.4627 22.0673L35.5154 21.7666L35.565 21.4783L35.6115 21.2024L35.6549 20.942L35.6952 20.6987L35.7293 20.4755L35.7603 20.274L35.7851 20.0942L35.8052 19.9392L35.8192 19.8121L35.8269 19.7113L35.8362 19.2851L35.8145 18.8929L35.7634 18.5349L35.6828 18.2125L35.5743 17.9226L35.4379 17.6653L35.2751 17.439L35.0845 17.2422L34.8674 17.0763L34.6256 16.9399L34.3575 16.8299L34.0661 16.7477L33.7499 16.6904L33.4089 16.6594L33.0462 16.6532L32.6618 16.6702L32.3378 16.6981L32.0061 16.74L31.6713 16.7927L31.3319 16.8547L30.994 16.9244L30.6592 17.0035L30.3275 17.0887L30.0035 17.1802L29.6889 17.2763L29.3851 17.3755L29.0952 17.4762L28.8224 17.5801L28.5667 17.6839L28.3326 17.7862L28.1218 17.887L27.9374 17.9846L27.3406 22.3572L27.5452 22.3122L27.7808 22.2688L28.0304 22.2332L28.2799 22.2084L28.5031 22.2068L28.6907 22.2363L28.841 22.3014L28.9573 22.4052L29.041 22.5494L29.0937 22.7354L29.1185 22.9695L29.1154 23.2516L29.1045 23.3849L29.089 23.5414L29.0658 23.7181L29.0379 23.9119L29.0038 24.1242L28.965 24.3521L28.9232 24.5923L28.8782 24.8465L28.8302 25.11L28.779 25.3828L28.7263 25.6618L28.6721 25.947L28.6163 26.2369L28.5605 26.5283L28.5047 26.8197L28.4504 27.1095L28.1435 27.3839L27.7793 27.6892L27.3608 28.0178L26.8927 28.365L26.375 28.7246L25.8108 29.0904L25.2047 29.4547L24.5568 29.8143L23.8717 30.1615L23.1525 30.4916L22.3992 30.7954L21.6164 31.0698L20.8073 31.3085L19.9734 31.5038L19.1178 31.6495L18.2436 31.7425L17.7647 31.7595L17.3198 31.7409L16.9106 31.6867L16.534 31.5968L16.1899 31.4712L15.8799 31.3116L15.6024 31.1163L15.3591 30.8853L15.1467 30.6203L14.9685 30.3196L14.8212 29.9848L14.7065 29.6159L14.6244 29.2129L14.5732 28.7742L14.5531 28.303L14.5655 27.7962L14.6027 27.3188L14.66 26.8414L14.7422 26.3686L14.846 25.9052L14.9731 25.4526L15.1235 25.017L15.2971 24.6001L15.4955 24.2079L15.7171 23.8452L15.9636 23.512L16.2348 23.2159L16.5293 22.9602L16.8517 22.7463L17.1974 22.5819L17.5694 22.4672L17.9677 22.4099L18.256 22.4068L18.5133 22.4409L18.7396 22.5091L18.938 22.6083L19.1101 22.7339L19.2573 22.8842L19.3798 23.0563L19.4821 23.2469L19.5642 23.4515L19.6293 23.6701L19.6774 23.8964L19.7099 24.1289L19.7301 24.366L19.7394 24.6016V24.8341L19.7301 25.062L25.369 23.3136L25.383 22.5912L25.3458 21.9139L25.2574 21.2846L25.1164 20.7033L24.9242 20.1686L24.6777 19.6834L24.3786 19.2463L24.0267 18.8604L23.6206 18.524L23.1587 18.2388L22.6441 18.0032L22.0737 17.8219L21.4475 17.6917L20.767 17.6157L20.0292 17.5925L19.2341 17.6235L18.6342 17.6793L18.0468 17.7614L17.4717 17.8699L16.9106 18.0048L16.3619 18.1629L15.8272 18.3442L15.3064 18.5504L14.7995 18.7782L14.3097 19.0293L13.8323 19.3021L13.3735 19.5966L12.9287 19.9097L12.5009 20.2445L12.0901 20.5979L11.6964 20.9699L11.3198 21.3605L10.9602 21.7682L10.6207 22.1929L10.2999 22.6346L9.99605 23.0935L9.71395 23.5662L9.45045 24.0529L9.2071 24.5551L8.98545 25.0697L8.78395 25.5983L8.60414 26.1392L8.44604 26.691L8.30964 27.2552L8.19494 27.8303L8.10504 28.4146L8.03684 29.0083L7.99189 29.6112L7.97949 30.4451L8.03219 31.2403L8.14999 31.992L8.33289 32.6988L8.58089 33.3591L8.8971 33.9683L9.27995 34.5247L9.72945 35.027L10.2472 35.4702L10.8315 35.8531L11.4856 36.174L12.2079 36.4282L13 36.6142L13.8602 36.7289L14.7918 36.7692L15.7915 36.7351L16.4007 36.6777L16.9974 36.5956L17.5833 36.4886L18.1568 36.3584L18.7195 36.2081L19.2697 36.0376L19.8076 35.85L20.3315 35.6454L20.843 35.4268L21.339 35.1944L21.8226 34.9494L22.2907 34.6968L22.7449 34.4348L23.1835 34.1651L23.6051 33.8923L24.0128 33.6149L24.4018 33.3343L24.7754 33.0553L25.1319 32.7763L25.4713 32.5004L25.7922 32.2292L26.0944 31.9626L26.3781 31.7053L26.6431 31.4557L26.888 31.217L27.1143 30.9907L27.3205 30.7799L27.5049 30.5831L27.6692 30.4033L27.8118 30.2421L27.9343 30.101L28.0335 29.9832L28.0397 30.611L28.097 31.2093L28.2055 31.7797L28.3652 32.316L28.5791 32.8182L28.8457 33.2847L29.1665 33.711L29.5432 34.0954L29.9756 34.4364L30.4639 34.7309L31.0095 34.9773L31.614 35.1711L32.2758 35.3137L32.9981 35.4005L33.7809 35.43L34.6241 35.3974L35.2705 35.337L35.8998 35.2501L36.5105 35.1354L37.1041 34.9944L37.6792 34.8285L38.2372 34.6379L38.7781 34.4209L39.3005 34.1822L39.8058 33.9187L40.2925 33.6335L40.7621 33.325L41.2147 32.9949L41.6503 32.6446L42.0672 32.2726L42.4671 31.8804L42.8484 31.4697L43.2127 31.0403L43.5614 30.5924L43.89 30.1258L44.2031 29.6422L44.4976 29.1431L44.7751 28.627L45.0355 28.0953L45.2788 27.5497L45.5051 26.9886L45.7128 26.4151L45.905 25.8261L46.0786 25.2263L46.2352 24.614L46.3747 23.9894L46.4971 23.3539L46.6025 22.709L47.2783 22.5587L47.9557 22.382L48.6269 22.1743L49.2872 21.9371L49.9258 21.669L50.5365 21.3714L51.1115 21.0397L51.6432 20.677L50.1164 28.9075L49.9847 29.7182L49.918 30.4451L49.9087 30.9938L49.9413 31.4883L50.0141 31.9316L50.1242 32.3268L50.273 32.674L50.459 32.9763L50.6775 33.2351L50.9302 33.4552L51.2138 33.6366L51.5285 33.7823L51.8726 33.8939L52.243 33.9729L52.6398 34.0241L53.0614 34.0489L53.5063 34.0473L53.9744 34.0241L54.7246 33.9419L55.4438 33.8086L56.132 33.6304L56.7876 33.4134L57.4107 33.1607L58.0013 32.8802L58.5608 32.5764L59.0878 32.254L59.5823 31.9223L60.0442 31.5828L60.4751 31.2434L60.8735 30.9086L61.2393 30.5846L61.5725 30.2777L61.8748 29.9925L62.1429 29.7352L62.3599 30.1398L62.6064 30.5211L62.8823 30.8776L63.1892 31.2093L63.5271 31.5146L63.8944 31.7936L64.2928 32.0447L64.7221 32.2679L65.1809 32.4617L65.6723 32.6244L66.1931 32.7577L66.7464 32.86L67.3292 32.9298L67.9446 32.967L68.5925 32.9701L69.2698 32.9375L69.8294 32.8864L70.3796 32.8135L70.9206 32.719L71.4507 32.6058L71.9715 32.4741L72.483 32.3253L72.9821 32.161L73.4719 31.9827L73.9493 31.7905L74.4159 31.5859L74.8716 31.3705L75.3133 31.1457L75.7442 30.9132L76.1627 30.673L76.5673 30.4281L76.9594 30.177L77.3376 29.9228L77.7034 29.667L78.0537 29.4097L78.3901 29.1524L78.7125 28.8967L79.0194 28.644L79.3108 28.396L79.5867 28.1527L79.8471 27.9155L80.092 27.6861L80.3198 27.466L80.5322 27.2552L80.7259 27.0568L80.9042 26.8693L81.0638 26.6972L81.2064 26.5407L80.247 31.6278L86.5446 31.1798L87.7878 24.5582L88.4822 24.4265L88.662 25.2418L88.865 26.0075L89.096 26.7267L89.3548 27.3932L89.6462 28.0101L89.9686 28.5743L90.3282 29.0858L90.725 29.5415L91.1637 29.9398L91.6426 30.2824L92.1681 30.5676L92.7385 30.7923L93.36 30.9566L94.0312 31.0589L94.7581 31.0977L95.5393 31.0729L96.04 31.0155L96.5391 30.921L97.0335 30.7908L97.5218 30.628L98.0023 30.4374L98.4751 30.2219L98.937 29.9848L99.3865 29.7306L99.8236 29.4609L100.247 29.1819L100.653 28.8936L101.04 28.6022L101.409 28.3108L101.758 28.0225L102.083 27.7404L102.386 27.4676L102.635 27.8148L102.911 28.1372L103.21 28.4379L103.534 28.7153L103.881 28.9695L104.253 29.1989L104.649 29.4035L105.067 29.5849L105.507 29.7399L105.972 29.8716L106.458 29.9755L106.966 30.0545L107.495 30.1072L108.046 30.132L108.617 30.1305L109.209 30.101L109.824 30.0437L110.427 29.9584L111.018 29.8484L111.596 29.7104L112.16 29.5492L112.712 29.3617L113.248 29.1509L113.771 28.9168L114.277 28.6611L114.769 28.3821L115.245 28.0814L115.705 27.7605L116.147 27.4195L116.573 27.0584L116.982 26.6786L117.371 26.2803L117.743 25.8649L118.097 25.4324L118.43 24.9829L118.744 24.5179L119.039 24.0374L119.312 23.5414L119.564 23.033L119.797 22.5106L120.006 21.9743L120.192 21.4272L120.358 20.8692L120.499 20.2988L120.617 19.7191L120.711 19.1301L120.781 18.5302L120.826 17.9242L120.839 17.1337L120.792 16.3881L120.687 15.6875L120.524 15.0303L121.114 14.8226L121.677 14.5994L122.213 14.3638L122.722 14.1158L123.205 13.8585L123.664 13.5935L124.098 13.3191L124.507 13.0401L124.895 12.7565L125.258 12.4682L125.599 12.1783L125.918 11.8885L126.216 11.6002L126.493 11.3134L126.75 11.0298L126.989 10.7523L127.208 10.4795L127.409 10.2144L127.592 9.96025L127.758 9.71535L127.907 9.4813L128.04 9.2612L128.158 9.05504L128.262 8.86594L128.35 8.69234L128.424 8.53889L128.486 8.40559L128.536 8.29244L128.573 8.20254L128.599 8.13589L128.62 8.08164L128.482 8.09094Z" fill="#8CD5F5"/>
<path d="M114.214 18.7457L114.201 19.1704L114.158 19.7082L114.087 20.2461L113.986 20.7777L113.859 21.3001L113.705 21.8069L113.526 22.2967L113.321 22.7617L113.092 23.2004L112.841 23.6065L112.565 23.9769L112.269 24.3055L111.951 24.5907L111.611 24.8263L111.253 25.0077L110.877 25.1317L110.481 25.1921L110.123 25.203L109.795 25.1797L109.494 25.1255L109.223 25.0402L108.978 24.924L108.761 24.7767L108.57 24.5985L108.404 24.3908L108.263 24.1536L108.146 23.887L108.053 23.591L107.983 23.2686L107.933 22.9167L107.907 22.5385L107.901 22.1324L107.915 21.7L107.955 21.1823L108.025 20.6677L108.121 20.1562L108.246 19.654L108.398 19.1642L108.58 18.6914L108.789 18.2419L109.026 17.8172L109.291 17.422L109.585 17.0624L109.908 16.74L110.258 16.461L110.638 16.23L111.046 16.0487L111.483 15.9247L111.948 15.858L112.23 15.8518L112.493 15.8735L112.74 15.9231L112.969 16.0006L113.18 16.1076L113.372 16.2424L113.546 16.4052L113.701 16.5974L113.836 16.8175L113.95 17.067L114.045 17.3445L114.119 17.6514L114.172 17.9877L114.203 18.352L114.214 18.7457Z" fill="#D44126"/>
<path d="M93.5135 17.8095L93.5166 18.025L93.4747 18.3257L93.3833 18.614L93.2453 18.8899L93.0609 19.1534L92.8377 19.4029L92.5742 19.6385L92.2735 19.8617L91.9418 20.071L91.5775 20.2678L91.1869 20.4492L90.77 20.6181L90.3313 20.7731L89.8741 20.9126L89.3982 21.0382L88.9084 21.1498L88.4077 21.2474L88.5674 20.5406L88.7115 20.2167L88.8681 19.8943L89.0386 19.5765L89.2199 19.265L89.4137 18.9627L89.6183 18.6713L89.8369 18.3939L90.0663 18.1319L90.3065 17.8901L90.5607 17.6685L90.8242 17.4716L91.1017 17.2996L91.3884 17.157L91.6876 17.0454L91.9991 16.9679L92.32 16.926L92.6424 16.9307L92.9059 16.988L93.1182 17.0934L93.281 17.2345L93.3988 17.4081L93.4747 17.6018L93.5135 17.8095Z" fill="#D44126"/>
<path d="M47.748 52.1731L47.1822 56.3302H41.9789L40.0274 70.8383H34.9077L36.8592 56.3302H31.6558L32.2216 52.1731H47.748Z" fill="#D6AA77"/>
<path d="M53.545 58.4243H58.381L56.6279 70.8399C56.0343 75.0249 52.5561 77.2879 48.2843 77.2879C46.0213 77.2879 43.9008 76.6663 43.1088 75.958L44.5797 72.6766C45.4571 73.2982 46.7002 73.5245 48.3122 73.5245C50.631 73.5245 51.5362 72.5635 51.7904 70.8383L51.9314 69.7642C50.9983 70.7546 49.8668 71.2072 48.4532 71.2072C45.3424 71.2072 44.3519 68.9737 44.7766 65.8907L45.795 58.4243H50.6883L49.7831 64.8165C49.6142 65.9759 49.7258 67.1633 50.7162 67.1633C51.3951 67.1633 51.9609 66.6548 52.4987 65.7775L53.545 58.4243Z" fill="#D6AA77"/>
<path d="M70.0619 58.2259L69.383 62.9209L69.1288 63.0061C68.7041 62.7519 67.912 62.5814 66.8379 62.5814C66.159 62.5814 65.339 62.6946 64.5749 63.1472L63.5007 70.8399H58.6368L60.3619 58.4243H64.9438L65.0011 60.0642C66.0753 58.9048 67.4331 58.0554 68.9893 58.0554C69.4419 58.0554 69.7534 58.1128 70.0634 58.2244L70.0619 58.2259Z" fill="#D6AA77"/>
<path d="M73.6811 61.9304C73.6811 63.5424 79.9028 62.7783 79.9028 66.9075C79.9028 69.5936 77.2725 71.2057 73.878 71.2057C70.4835 71.2057 68.8156 69.9052 68.3351 69.4231L70.1456 66.1712C70.9376 66.9354 72.6054 67.8964 74.2174 67.8964C75.2079 67.8964 75.6031 67.6143 75.6031 67.3027C75.6031 66.0023 69.3814 66.6238 69.3814 62.3257C69.3814 59.6101 71.8707 58.0554 75.0095 58.0554C77.894 58.0554 80.2981 59.2722 80.2981 61.7041L76.7625 62.6651C76.7067 61.5057 75.631 61.2221 74.9242 61.2221C74.2174 61.2221 73.6796 61.4484 73.6796 61.9289L73.6811 61.9304ZM77.1593 56.9239H73.2843L70.5982 51.8616H74.1337L75.5768 54.1804L77.6414 51.8616H81.2327L77.1609 56.9239H77.1593Z" fill="#D6AA77"/>
<path d="M93.422 66.6254C93.2515 67.87 93.4778 68.2947 94.8077 68.039L94.4683 70.6414C93.9025 70.9235 92.7989 71.2072 91.4706 71.2072C89.8865 71.2072 89.0107 70.443 88.6992 69.1984C87.4824 70.4988 85.9836 71.2072 84.3716 71.2072C81.628 71.2072 80.2702 69.1426 80.2702 66.3991C80.2702 61.7041 82.9285 58.0554 87.4251 58.0554C88.6124 58.0554 89.5455 58.3669 90.3375 58.8753L90.6196 58.4228H94.5783L93.4189 66.6254H93.422ZM88.6139 66.1728L89.2076 61.9583C88.8123 61.7599 88.3597 61.6468 87.8498 61.6468C86.1246 61.6468 85.3047 63.2588 85.3047 65.2955C85.3047 66.6254 85.7573 67.3322 86.6051 67.3322C87.453 67.3322 88.1319 66.8796 88.6139 66.1728ZM95.0619 51.8616L89.7733 56.896H86.182L90.3391 51.8616H95.0619Z" fill="#D6AA77"/>
<path d="M109.373 67.6437L108.242 71.2072C104.48 71.2072 101.99 69.5099 101.2 66.3138C101.115 66.3138 101.002 66.3138 100.918 66.3417L100.296 70.8383H95.4324L98.1759 51.04H103.04L101.823 59.7511C102.869 58.7606 104.283 58.0259 105.952 58.0259C108.074 58.0259 109.063 59.1853 109.063 60.7415C109.063 63.2014 107.31 64.7297 104.736 65.5775C105.98 66.8501 108.101 67.4732 109.373 67.6422V67.6437ZM101.284 63.685L101.256 63.9671C102.84 63.7687 104.253 63.2603 104.253 62.214C104.253 61.8746 104.085 61.5072 103.547 61.5072C102.359 61.5072 101.651 62.5814 101.284 63.685Z" fill="#D6AA77"/>
</svg>
