<svg width="140" height="81" viewBox="0 0 140 81" fill="none" xmlns="http://www.w3.org/2000/svg">
<path d="M128.62 8.31421L128.482 8.32351L128.317 8.33436L128.097 8.34986L127.826 8.36846L127.51 8.39016L127.155 8.41496L126.764 8.44286L126.346 8.47231L125.904 8.50331L125.444 8.53586L124.971 8.56996L124.49 8.60406L124.008 8.63816L123.529 8.67226L123.06 8.70636L122.826 9.20081L122.587 9.65961L122.345 10.0828L122.1 10.4734L121.854 10.8314L121.607 11.16L121.361 11.4592L121.114 11.7304L120.87 11.9753L120.628 12.1954L120.389 12.3923L120.155 12.5659L119.926 12.7193L119.702 12.8526L119.487 12.9673L119.279 13.065L118.743 12.5721L118.131 12.1505L117.446 11.8017L116.689 11.5274L115.863 11.329L114.967 11.2065L114.005 11.1631L112.977 11.1988L112.355 11.2561L111.746 11.3383L111.149 11.4468L110.567 11.5785L109.998 11.7351L109.443 11.9149L108.903 12.1179L108.378 12.3427L107.868 12.5891L107.375 12.8573L106.898 13.1456L106.437 13.4556L105.994 13.7842L105.568 14.1329L105.16 14.5003L104.771 14.8862L104.401 15.2892L104.049 15.7093L103.716 16.1464L103.403 16.6005L103.11 17.0702L103.088 17.1089L98.9525 13.2913L98.9137 13.2494L98.6378 13.0262L98.334 12.8371L99.0625 8.95126L92.0069 2.43658L85.7092 2.88454L85.176 5.71175L82.3705 3.12169H82.3503L82.3348 3.12479H82.3147L82.2914 3.12789H82.2635L82.2325 3.13254L82.1969 3.13564L82.1581 3.13874L82.1147 3.14184L82.0682 3.14494L82.0186 3.14804L81.9659 3.15114L81.9086 3.15579L81.8481 3.16044L81.7846 3.16509L81.7179 3.16974L81.6482 3.17439L81.5753 3.17904L81.5009 3.18369L81.4234 3.18989L81.3428 3.19609L81.2607 3.20229L81.1754 3.20849L81.0871 3.21469L80.9972 3.22089L80.9042 3.22709L80.8096 3.23329L80.7135 3.23949L80.6143 3.24569L80.5136 3.25344L80.4113 3.26119L80.3074 3.26894L80.202 3.27669L80.0951 3.28444L79.9866 3.29219L79.8765 3.29994L79.7649 3.30769L79.6518 3.31544L79.5386 3.32319L79.4239 3.33094L79.3077 3.33869L79.1914 3.34644L79.0736 3.35419L78.9558 3.36194L78.8365 3.36969L78.7171 3.37744L78.5978 3.38519L78.4784 3.39449L78.3575 3.40379L78.2366 3.41309L78.1157 3.42239L77.9948 3.43169L77.8739 3.44099L77.753 3.45029L77.6321 3.45959L77.5128 3.46889L77.3934 3.47664L77.2741 3.48439L77.1563 3.49214L77.0385 3.49989L76.9207 3.50764L76.8044 3.51539L76.7455 3.66729L76.6866 3.81609L76.6277 3.96179L76.5688 4.10439L76.5099 4.24389L76.451 4.38029L76.3921 4.51359L76.3332 4.64379L76.2743 4.77089L76.2154 4.89489L76.1565 5.01579L76.0976 5.13359L76.0387 5.2483L75.9798 5.36145L75.9209 5.4715L75.862 5.57845L75.8031 5.6823L75.7458 5.7846L75.6884 5.8838L75.6311 5.98145L75.5737 6.076L75.5164 6.169L75.459 6.2589L75.4016 6.34725L75.3443 6.4325L75.2869 6.5162L75.2296 6.5968L75.1723 6.67585L75.1149 6.75335L75.0591 6.8293L75.0033 6.90215L74.9475 6.97345L74.8917 7.0432L74.8623 7.07885L71.4212 3.90134L71.3329 3.90754L71.243 3.91374L71.1515 3.91994L71.0585 3.92614L70.964 3.93234L70.8694 3.93854L70.7733 3.94474L70.6757 3.95094L70.578 3.95714L70.4788 3.96334L70.3796 3.97109L70.2804 3.97884L70.1797 3.98659L70.0789 3.99434L69.9782 4.00209L69.8774 4.00984L69.7767 4.01759L69.6759 4.02534L69.5752 4.03309L69.4744 4.04084L69.3737 4.04859L69.2745 4.05634L69.1753 4.06409L69.0761 4.07184L68.9784 4.07804L68.8808 4.08424L68.7847 4.09044L68.6886 4.09664L68.594 4.10284L68.501 4.10904L68.408 4.11524L68.3166 4.12144L68.2267 4.12764L68.1383 4.13384L68.0515 4.14004L67.9663 4.14624L67.8826 4.15244L67.8004 4.15864L67.7214 4.16484L67.6439 4.17104L67.5679 4.17569L67.4951 4.18034L67.4238 4.18499L67.3556 4.18964L67.2889 4.19429L67.2254 4.19894L67.1649 4.20359L67.1076 4.20824L67.0518 4.21289L66.9991 4.21599L66.9495 4.21909L66.903 4.22219L66.8596 4.22529L66.8193 4.22839L66.7821 4.23149L66.7495 4.23459H66.7201L66.6937 4.23924H66.672L66.6534 4.24234H66.6286L66.6193 4.25319V4.26249L66.6162 4.27644L66.6131 4.29349L66.61 4.31364L66.6069 4.33844L66.6038 4.36634L66.6007 4.39734L66.5961 4.43144L66.5914 4.47019L66.5868 4.51204L66.5837 4.55699L66.5806 4.60504L66.5775 4.65619L66.5744 4.71044L66.5713 4.77089L66.5682 4.83444V4.90109L66.5651 4.97084V5.19714L66.5697 5.27775L66.5728 5.36145L66.5775 5.44825L66.5837 5.5366L66.5914 5.62805L66.6007 5.72105L66.6116 5.81715L66.624 5.9148L66.6379 6.01555L66.6534 6.11785L66.6705 6.2217L66.6891 6.3271L66.7108 6.4356L66.734 6.54565L66.7588 6.65725L66.7867 6.7704L66.8162 6.8851L66.8487 7.00135L66.8844 7.1176L66.9216 7.2354L66.9619 7.35475L67.0053 7.47565L67.0518 7.59655L67.1014 7.71901L67.1541 7.84146L67.2099 7.96546L67.2688 8.08946L67.3308 8.21501L67.3959 8.34056L67.4641 8.46611L67.5369 8.59321L67.6129 8.72031L67.6919 8.84741L67.7756 8.97451L67.8624 9.10161L67.9539 9.22871L68.0484 9.35581L68.1476 9.48291L68.2515 9.61001L68.36 9.73711L68.4716 9.86266L68.5878 9.98821L68.7087 10.1138L68.8343 10.2378L68.9645 10.3618L69.0389 10.43L69.0187 10.4362L72.9418 14.0585L72.7015 14.0678L72.1017 14.1236L71.5142 14.2058L70.9392 14.3143L70.3781 14.4476L69.8294 14.6057L69.2946 14.7886L68.7738 14.9947L68.267 15.2226L67.7756 15.4737L67.6439 15.5496L67.6718 15.4752L67.7059 15.3776L67.7384 15.2799L67.7679 15.1823L67.7958 15.0831L67.8206 14.9839L67.8438 14.8847L67.864 14.7839L67.8888 14.6444L67.9074 14.5065L67.9213 14.3701L67.9306 14.2352L67.9337 14.1469V13.8849L67.9275 13.7997L67.9213 13.716L67.912 13.6323L67.9012 13.5501L67.8888 13.468L67.8748 13.3874L67.8578 13.3083L67.8392 13.2293L67.819 13.1518L67.7973 13.0758L67.7725 12.9999L67.7462 12.9255L67.7183 12.8526L67.6888 12.7813L67.6578 12.71L67.6253 12.6403L67.5912 12.5721L67.554 12.5054L67.5152 12.4403L67.4749 12.3768L67.4331 12.3132L67.3897 12.2512L67.3447 12.1908L67.2982 12.1319L67.2502 12.0745L67.213 12.0327L67.2471 12.0218L60.1914 5.50715L60.1573 5.518L60.1449 5.50405L60.0938 5.4498L60.0411 5.3971L59.9868 5.34595L59.931 5.29635L59.8737 5.2483L59.8148 5.2018L59.7543 5.15685L59.6923 5.11345L59.6288 5.07159L59.5652 5.03129L59.5001 4.99254L59.4335 4.95534L59.3653 4.91969L59.2955 4.88559L59.2242 4.85304L59.1514 4.82359L59.0785 4.79569L59.0041 4.76934L58.9282 4.74454L58.8507 4.72129L58.7732 4.70114L58.6941 4.68254L58.6135 4.66549L58.5314 4.64999L58.4492 4.63604L58.3655 4.62519L58.2803 4.61589L58.195 4.60814L58.1082 4.60349L58.0199 4.60039H57.8416L57.7517 4.60349L57.6603 4.60969L57.5595 4.61744L57.4588 4.62829L57.358 4.64224L57.2588 4.65774L57.1596 4.67634L57.0604 4.69649L56.9612 4.71974L56.8636 4.74454L56.7659 4.77244L56.6683 4.80189L56.5706 4.83444L56.4745 4.86854L56.3784 4.90419L56.2839 4.94294L56.1893 4.98324L56.0963 5.02509L56.0033 5.07004L55.9103 5.11654L55.8189 5.1646L55.729 5.2142L55.6391 5.2669L55.5507 5.32115L55.4624 5.37695L55.3756 5.4343L55.2888 5.4932L55.2035 5.55365L55.1198 5.61565L55.0377 5.6792L54.9555 5.7443L54.8749 5.8125L54.7959 5.8807L54.7184 5.95045L54.6409 6.02175L54.5649 6.0946L54.4905 6.169L54.4177 6.24495L54.3464 6.32245L54.2766 6.4015L54.2084 6.4821L54.1418 6.56425L54.0767 6.6464L54.0131 6.7301L53.9511 6.81535L53.8907 6.90215L53.8318 6.98895L53.7744 7.0773L53.7186 7.1672L53.6644 7.2571L53.6132 7.34855L53.5636 7.44155L53.5156 7.53455L53.4691 7.62911L53.4241 7.72366L53.3823 7.81976L53.342 7.91586L53.3032 8.01351L53.2676 8.11116L53.2335 8.21036L53.2009 8.30956L53.1715 8.41031L53.1436 8.51106L53.1188 8.61181L53.0955 8.71411L53.0754 8.81641L53.0521 8.95126L53.0335 9.08456L53.0196 9.21631L53.0103 9.34651L53.0072 9.43331V9.69061L53.0134 9.77431L53.0196 9.85801L53.0289 9.94016L53.0397 10.0223L53.0521 10.1029L53.0676 10.182L53.0847 10.261L53.1033 10.3385L53.1234 10.4145L53.1467 10.4904L53.1715 10.5648L53.1978 10.6377L53.2257 10.7105L53.2552 10.7818L53.2877 10.8516L53.3218 10.9198L53.3575 10.988L53.3947 11.0546L53.4334 11.1197L53.4737 11.1833L53.5156 11.2453L53.559 11.3057L53.6039 11.3662L53.6504 11.4251L53.6985 11.4824L53.7481 11.5382L53.7992 11.5925L53.8349 11.6281L53.793 11.6405L58.0757 15.5946L56.0684 15.7372L55.2624 15.8255L54.5277 15.9666L53.855 16.1557L53.235 16.3866L52.66 16.6532L52.1206 16.9508L51.6091 17.2732L51.1162 17.6142L50.6341 17.9692L50.1536 18.3319L49.6669 18.6961L49.3569 18.9178L46.6382 16.4083L40.2506 16.8625L40.3157 17.3337L40.3762 17.839L40.4304 18.3753L40.4738 18.941L40.5048 19.5332L40.5203 20.1516L40.5172 20.7949L40.4924 21.4598L40.4707 21.8055L40.4444 22.1589L40.4196 22.4239L35.0736 17.4887H35.0705L35.0658 17.484L34.8488 17.3182L34.607 17.1802L34.3389 17.0702L34.0475 16.988L33.7313 16.9322L33.3918 16.9012L33.0291 16.895L32.6447 16.9121L32.3208 16.9415L31.9891 16.9834L31.6527 17.0361L31.3148 17.0981L30.9769 17.1694L30.6406 17.2484L30.3089 17.3337L29.9849 17.4251L29.6703 17.5212L29.3665 17.6204L29.0766 17.7227L28.8038 17.8266L28.5496 17.9304L28.3156 18.0327L28.1048 18.1335L27.9188 18.2311L27.3685 22.2705L24.363 19.4944L24.0112 19.1054L23.6051 18.769L23.1447 18.4838L22.6301 18.2497L22.0597 18.0668L21.4335 17.9366L20.7515 17.8607L20.0137 17.8374L19.2186 17.8684L18.6187 17.9242L18.0313 18.0064L17.4562 18.1149L16.8936 18.2482L16.3449 18.4063L15.8101 18.5892L15.2893 18.7953L14.7825 19.0232L14.2911 19.2743L13.8153 19.5471L13.3549 19.8401L12.91 20.1547L12.4822 20.4895L12.0715 20.8429L11.6778 21.2149L11.3011 21.6055L10.9431 22.0132L10.6036 22.4379L10.2828 22.8796L9.98054 23.3369L9.69689 23.8096L9.43338 24.2979L9.19003 24.8001L8.96838 25.3147L8.76688 25.8432L8.58708 26.3842L8.42898 26.936L8.29258 27.5002L8.17943 28.0752L8.08798 28.6596L8.01978 29.2532L7.97638 29.8562L7.96398 30.6901L8.01668 31.4853L8.13448 32.237L8.31738 32.9438L8.56693 33.6041L8.88313 34.2133L9.26598 34.7697L9.71549 35.2719L10.0038 35.5184H9.99914L16.6998 41.706L16.7711 41.785L16.9788 41.9617L17.0563 42.033H17.061L17.2904 42.2283L17.8763 42.6112L18.2126 42.7755L4.82212 43.7256L3.81616 48.6299L8.42588 52.8862L10.8718 55.1445L126.696 46.9202L130.808 46.6288L131.814 41.7246L124.94 35.3758L124.76 35.2099L121.24 35.4595L121.322 35.4176L121.813 35.1386L122.289 34.8379L122.413 34.7511L122.748 34.5171L123.191 34.1761L123.618 33.8149L124.025 33.4352L124.152 33.305L124.416 33.0368L124.788 32.6214L125.141 32.189L125.475 31.7395L125.718 31.3783L125.788 31.2744L125.878 31.1272L126.082 30.7939L126.338 30.332L126.357 30.2979L126.609 29.7895L126.687 29.6159L126.84 29.2672L126.904 29.1044L127.049 28.7324L127.175 28.3682L127.237 28.1853L127.302 27.9652L127.401 27.6257L127.514 27.17L127.542 27.0553L127.66 26.4756L127.755 25.8866L127.814 25.3767L127.824 25.2883L127.869 24.6807L127.874 24.4219L127.883 23.8902L127.86 23.5291L127.835 23.1447L127.73 22.4441L127.587 21.869L127.567 21.7869L128.158 21.5776L128.72 21.3544L129.257 21.1188L129.767 20.8708L130.25 20.6135L130.709 20.3469L131.143 20.0741L131.552 19.7951L131.938 19.5115L132.301 19.2247L132.642 18.9349L132.961 18.645L133.259 18.3567L133.536 18.0699L133.793 17.7863L134.032 17.5073L134.251 17.2345L134.452 16.9694L134.635 16.7137L134.801 16.4688L134.95 16.2347L135.083 16.0146L135.201 15.8085L135.303 15.6194L135.392 15.4473L135.466 15.2939L135.528 15.159L135.578 15.0459L135.615 14.956L135.641 14.8893L135.661 14.8351L128.606 8.32041L128.62 8.31421ZM35.0829 24.4265L35.2627 24.5924L35.1759 24.6342L35.0302 24.7117L35.0534 24.5815L35.0813 24.4265H35.0829ZM109.017 26.1532L108.854 26.7066L108.733 27.1917L108.854 26.7066L109.017 26.1532L109.195 25.6371L109.017 26.1532ZM108.471 28.6999L108.432 29.0393L108.387 29.65L108.376 30.0298L108.387 29.65L108.432 29.0393L108.471 28.6999ZM75.0855 31.2527L75.0901 31.0838L75.0855 31.2527ZM75.1335 30.27L75.1924 29.7926L75.2265 29.5911L75.1924 29.7926L75.1335 30.27ZM69.4155 28.2845L69.3148 28.548L69.2249 28.8192L69.3148 28.548L69.4155 28.2845ZM69.0854 29.2594L68.9753 29.6423L68.8389 30.2065L68.794 30.4359L68.8389 30.2065L68.9753 29.6423L69.0854 29.2594ZM68.5227 32.561L68.5661 31.958L68.5971 31.6821L68.5661 31.958L68.5227 32.561L68.5165 33.2011L68.5227 32.561ZM21.7497 33.3716L21.7854 33.167L21.7497 33.3716ZM21.6056 35.0503L21.618 34.545L21.6319 34.3698L21.618 34.545L21.6056 35.0503L21.6149 35.2859L21.6056 35.0503ZM35.5014 33.8568L35.5324 33.6971L35.5014 33.8568L35.4425 33.9095L35.5014 33.8568ZM35.6114 33.274L35.6161 33.2523L35.6114 33.274L35.6006 33.3298L35.6114 33.274ZM35.723 32.6943L35.7773 32.4091L35.83 32.1301L35.8811 31.8573L35.9292 31.5938L35.9369 31.5488L35.9292 31.5938L35.8811 31.8573L35.83 32.1301L35.7773 32.4091L35.723 32.6943L35.7184 32.716L35.723 32.6943ZM36.0888 30.6591L36.1136 30.4855L36.0888 30.6591L36.0547 30.8714L36.0888 30.6591ZM41.9339 32.0634L41.8797 32.3719L41.827 32.6695L41.8177 32.7268L41.827 32.6695L41.8797 32.3719L41.9339 32.0634L41.9556 31.9425L41.9339 32.0634ZM42.6345 28.1217L42.664 27.9497L42.6872 27.8133L42.664 27.9497L42.6345 28.1217ZM42.8794 26.4431V26.4601L42.8717 26.5593L42.8577 26.688L42.8717 26.5593L42.8794 26.4601V26.4431ZM42.8128 27.0212L42.7973 27.1266L42.8128 27.0212L42.8252 26.9313L42.8128 27.0212ZM42.5152 28.8161L42.4609 29.1277L42.4485 29.2021L42.4609 29.1277L42.5152 28.8161L42.5198 28.7944L42.5152 28.8161ZM42.3292 29.8608L42.2858 30.0995L42.2269 30.4312L42.1664 30.7645L42.1075 31.0962L42.0486 31.4248L42.03 31.5271L42.0486 31.4248L42.1075 31.0962L42.1664 30.7645L42.2269 30.4312L42.2858 30.0995L42.3292 29.8608ZM34.6907 34.5465L34.4117 34.7666L34.0692 35.0193L34.4117 34.7666L34.6907 34.5465ZM28.3915 41.9416L28.7372 41.768L28.8751 41.6982L29.3432 41.444L29.7974 41.1821L29.94 41.0953L30.236 40.9139L30.4468 40.7775L30.6576 40.6411L31.0637 40.3637L31.4543 40.0847L31.7535 39.8615L31.8279 39.8057L32.1844 39.5267L32.5238 39.2508L32.8075 39.0105L32.8447 38.978L33.1469 38.7129L33.4306 38.4541L33.6956 38.2045L33.7933 38.11L33.9405 37.9658L34.0366 37.8697L34.1653 37.7411L34.3714 37.5287L34.39 37.5086L34.5574 37.3319L34.7217 37.1521L34.8643 36.9909L34.9852 36.8498L35.0658 36.7537L35.0844 36.7305L35.0906 37.3582L35.148 37.9581L35.227 38.3704L35.2565 38.5269L35.4177 39.0648L35.5417 39.3577L35.63 39.567L35.7478 39.7716L35.8966 40.032L36.1105 40.3156L36.2175 40.4582L36.5941 40.8426L36.7817 40.9899L37.0266 41.1821L37.1816 41.2751L37.3924 41.4022L28.1342 42.0594L28.1637 42.0454L28.3915 41.94V41.9416ZM46.7358 40.7295L46.8567 40.6659L46.9668 40.6008L47.3434 40.3792L47.8131 40.0707L48.2657 39.7406L48.6997 39.3903L49.1166 39.0183L49.3569 38.7827L49.5165 38.6261L49.7103 38.4169L49.8979 38.2154L50.2621 37.786L50.6093 37.3381L50.9395 36.8715L51.2526 36.3879L51.3502 36.2221L51.5471 35.8888L51.7408 35.5277L51.8245 35.3727L51.9113 35.196L52.0849 34.841L52.102 34.8023L57.6882 39.9607L46.7079 40.7403L46.7327 40.7279L46.7358 40.7295ZM65.6118 39.3236L65.8753 39.1624L66.1388 39.0012L66.6333 38.668L66.8239 38.5285L67.0952 38.3301L67.3013 38.1673L67.5245 37.9906L67.9229 37.6558L68.0081 37.5799L68.2887 37.3319L68.4561 37.1784L68.6235 37.025L68.8048 36.8529L68.9242 36.7398L69.1939 36.4825L69.4109 36.887L69.4589 36.9614L69.6573 37.2683L69.9332 37.6248L70.2401 37.9565L70.578 38.2619L70.9454 38.5409L71.2879 38.7579L71.3437 38.792L71.6847 38.9687L65.4491 39.412L65.6118 39.3236ZM81.9225 38.1193L82.3658 37.8945L82.7967 37.662L83.2152 37.4218L83.4183 37.2993L83.6213 37.1769L84.0135 36.9258L84.3917 36.6716L84.6056 36.5212L84.7559 36.4158L84.99 36.2438L86.7818 37.8992L81.6156 38.2665L81.9225 38.1208V38.1193ZM94.4729 33.2554L97.9589 36.4747L98.1108 36.5972H98.1139L98.2146 36.6886L98.6347 36.9878L98.6951 37.0312L98.7277 37.0498L93.6948 37.4078L94.4729 33.2569V33.2554ZM106.439 36.4778L106.658 36.343L106.876 36.2081L107.298 35.9276L107.62 35.6997L107.704 35.6408L108.091 35.3494L108.46 35.058L108.562 34.9743L108.809 34.7697L108.95 34.6473L109.134 34.4876L109.437 34.2164L109.686 34.562L109.961 34.886L110.109 35.0363L110.26 35.1867L110.584 35.4641L110.829 35.6424L110.932 35.7183L111.118 35.833L111.304 35.9477L111.362 35.9772L111.658 36.1306L106.389 36.5042L106.436 36.4778H106.439ZM106.882 30.2747L104.069 27.6769L106.882 30.2747ZM42.8143 25.2821L42.7694 25.0977L42.8143 25.2821L42.8376 25.4387L42.8143 25.2821ZM42.4888 24.411L42.3586 24.2312L42.4888 24.411L42.5958 24.6141L42.4888 24.411ZM42.1401 23.9941L42.2594 24.1165L42.1401 23.9941ZM34.3916 29.1029L34.4691 29.0858L34.3916 29.1029ZM16.1031 31.6604L16.0364 31.8154L15.8628 32.2711L16.0364 31.8154L16.1031 31.6604ZM15.6551 32.8849L15.7745 32.5238L15.6551 32.8849L15.497 33.4367L15.4412 33.6708L15.497 33.4367L15.6551 32.8849ZM126.324 11.7211L125.989 11.4127L126.324 11.7211ZM119.409 17.7708L120.031 17.7134L120.832 17.6855L120.031 17.7134L119.409 17.7708L119.228 17.7956L119.409 17.7708ZM117.052 18.2497L117.621 18.0932L117.83 18.0451L117.621 18.0932L117.052 18.2497L116.497 18.4295L116.323 18.4946L116.497 18.4295L117.052 18.2497ZM115.432 18.8558L115.62 18.7752L115.432 18.8558L114.922 19.1022L114.671 19.2387L114.922 19.1022L115.432 18.8558ZM57.1426 24.8962L56.7365 25.2L56.4854 25.3798L56.7365 25.2L57.1426 24.8962Z" fill="#D44126"/>
<path d="M82.3674 3.29692L82.3689 3.25662L82.3705 3.22097V3.19152L82.372 3.16672V3.14657V3.13262L82.3705 3.12177L82.3519 3.12332L82.3364 3.12487L82.3162 3.12642L82.293 3.12797L82.2651 3.12952L82.2341 3.13107L82.1984 3.13417L82.1597 3.13727L82.1163 3.14037L82.0698 3.14347L82.0202 3.14657L81.9659 3.15122L81.9101 3.15432L81.8497 3.15897L81.7861 3.16362L81.721 3.16827L81.6513 3.17292L81.58 3.17757L81.504 3.18377L81.4265 3.18842L81.3459 3.19462L81.2638 3.20082L81.1785 3.20702L81.0902 3.21322L81.0003 3.21942L80.9073 3.22562L80.8143 3.23182L80.7166 3.23957L80.619 3.24577L80.5182 3.25352L80.4159 3.26127L80.3121 3.26747L80.2067 3.27522L80.0997 3.28297L79.9912 3.29072L79.8812 3.29847L79.7696 3.30622L79.6564 3.31397L79.5433 3.32327L79.4286 3.33102L79.3123 3.33877L79.1961 3.34652L79.0783 3.35582L78.9605 3.36357L78.8427 3.37287L78.7233 3.38062L78.604 3.38992L78.4831 3.39767L78.3637 3.40697L78.2428 3.41472L78.1219 3.42402L78.001 3.43177L77.8801 3.44107L77.7608 3.44882L77.6399 3.45812L77.5205 3.46587L77.4012 3.47517L77.2818 3.48292L77.1625 3.49222L77.0447 3.49997L76.9284 3.50772L76.8122 3.51702L76.7533 3.66892L76.6928 3.81772L76.6339 3.96187L76.575 4.10447L76.5161 4.24397L76.4572 4.37882L76.3968 4.51212L76.3379 4.64232L76.279 4.76787L76.2201 4.89187L76.1627 5.01277L76.1038 5.13057L76.0449 5.24682L75.986 5.35842L75.9271 5.46847L75.8698 5.57543L75.8109 5.68083L75.7535 5.78313L75.6946 5.88233L75.6373 5.97998L75.5799 6.07453L75.5226 6.16598L75.4652 6.25588L75.4079 6.34423L75.3505 6.42948L75.2932 6.51318L75.2358 6.59378L75.1785 6.67438L75.1227 6.75033L75.0653 6.82628L75.0095 6.89913L74.9537 6.97043L74.8964 7.04018L74.8406 7.10838L74.7848 7.17348L74.729 7.23858L74.6747 7.30058L74.6189 7.36258L74.5631 7.42148L74.5089 7.48038L74.4546 7.53618L74.4004 7.59198L74.3461 7.64623L74.2919 7.69893L74.2376 7.75008L74.1834 7.79968L74.1307 7.84928L74.0764 7.89733L74.0237 7.94383L73.971 7.98879L73.9183 8.03374L73.8656 8.07869L73.8129 8.12054L73.7618 8.16394L73.7091 8.20424L73.6579 8.24609L73.6068 8.28484L73.5556 8.32514L73.5045 8.36389L73.4549 8.40264L73.4037 8.43984L73.3541 8.47704L73.3045 8.51424L73.2549 8.55144L73.2441 8.54369L73.227 8.53129L73.2162 8.52199L73.2022 8.51114L73.1867 8.49874L73.1697 8.48479L73.1511 8.46774L73.1309 8.45069L73.1092 8.43054L73.086 8.40884L73.0612 8.38404L73.0348 8.35769L73.0069 8.32979L72.9775 8.30034L72.948 8.26779L72.917 8.23369L72.8845 8.19649L72.8519 8.15774L72.8178 8.11744L72.7822 8.07404L72.7465 8.02754L72.7109 7.97949L72.6737 7.92988L72.6365 7.87718L72.5977 7.82138L72.559 7.76403L72.5202 7.70358L72.4815 7.64003L72.4412 7.57493L72.4024 7.50673L72.3621 7.43543L72.3218 7.36258L72.2815 7.28508L72.2412 7.20603L72.2025 7.12543L72.1622 7.04018L72.1234 6.95183L72.0847 6.86193L72.0459 6.76893L72.0072 6.67128L71.97 6.57208L71.9327 6.46978L71.8956 6.36438L71.8599 6.25588L71.8258 6.14428L71.7917 6.02958L71.7591 5.91023L71.7266 5.78933L71.6956 5.66533L71.6646 5.53668L71.6367 5.40492L71.6088 5.27007L71.5825 5.13212L71.5577 4.99107L71.5344 4.84537L71.5111 4.69657L71.491 4.54467L71.4724 4.38812L71.4553 4.22847L71.4398 4.06572L71.4259 3.89832L71.3375 3.90607L71.2476 3.91227L71.1562 3.91847L71.0632 3.92467L70.9686 3.93087L70.8741 3.93862L70.7764 3.94482L70.6803 3.95257L70.5827 3.95877L70.4835 3.96652L70.3843 3.97272L70.2851 3.98047L70.1843 3.98667L70.0851 3.99442L69.9844 4.00217L69.8836 4.00837L69.7829 4.01612L69.6821 4.02232L69.5814 4.03007L69.4806 4.03782L69.3799 4.04402L69.2807 4.05177L69.1815 4.05797L69.0823 4.06572L68.9846 4.07192L68.887 4.07967L68.7909 4.08587L68.6948 4.09362L68.6002 4.09982L68.5057 4.10602L68.4142 4.11222L68.3228 4.11997L68.2329 4.12617L68.1445 4.13237L68.0593 4.13857L67.974 4.14477L67.8903 4.14942L67.8097 4.15562L67.7291 4.16182L67.6516 4.16647L67.5772 4.17267L67.5044 4.17732L67.4331 4.18197L67.3649 4.18817L67.2982 4.19282L67.2347 4.19592L67.1742 4.20057L67.1153 4.20522L67.0611 4.20832L67.0084 4.21297L66.9588 4.21607L66.9123 4.21917L66.8689 4.22227L66.8301 4.22537L66.7929 4.22847L66.7604 4.23002L66.7309 4.23312L66.7046 4.23467L66.6829 4.23622L66.6643 4.23777H66.6503L66.6395 4.23932L66.6302 4.24707L66.6286 4.25637L66.6255 4.27032L66.624 4.28737L66.6209 4.30907L66.6162 4.33232L66.6131 4.36022L66.61 4.39277L66.6054 4.42687L66.6023 4.46407L66.5976 4.50592L66.5945 4.55087L66.5899 4.59737L66.5868 4.64852L66.5837 4.70277L66.5806 4.76167L66.579 4.82522L66.5775 4.89187L66.5759 4.96162V5.03447V5.10887L66.5775 5.18792L66.5806 5.26852L66.5837 5.35222L66.5883 5.43902L66.5945 5.52737L66.6023 5.61883L66.61 5.71183L66.6209 5.80793L66.6333 5.90558L66.6472 6.00633L66.6612 6.10708L66.6798 6.21248L66.6984 6.31788L66.7201 6.42483L66.7433 6.53488L66.7681 6.64648L66.796 6.75808L66.827 6.87278L66.8596 6.98903L66.8952 7.10528L66.9324 7.22308L66.9727 7.34243L67.0161 7.46333L67.0626 7.58423L67.1107 7.70668L67.1634 7.83068L67.2192 7.95314L67.2765 8.07869L67.3385 8.20424L67.4036 8.32979L67.4734 8.45534L67.5447 8.58244L67.6206 8.70954L67.6997 8.83664L67.7834 8.96374L67.8702 9.09084L67.9616 9.21949L68.0577 9.34659L68.1569 9.47369L68.2592 9.60079L68.3677 9.72634L68.4793 9.85344L68.5971 9.97899L68.718 10.103L68.8436 10.2285L68.9738 10.3525L69.1102 10.475L69.2497 10.5974L69.3954 10.7183L69.5457 10.8377L69.7007 10.957L69.8619 11.0748L70.0278 11.1911L70.1998 11.3073L70.3765 11.4205L70.5579 11.5321L70.747 11.6437L70.9407 11.7522L75.1041 11.4561L75.411 11.3151L75.7086 11.1725L75.9969 11.0268L76.2774 10.8811L76.5502 10.7338L76.8137 10.5835L77.0695 10.4347L77.3175 10.2828L77.5577 10.1309L77.7902 9.97744L78.015 9.82244L78.232 9.66744L78.4428 9.51244L78.6458 9.35744L78.8411 9.20089L79.0302 9.04434L79.2116 8.88779L79.3867 8.73124L79.5557 8.57469L79.7169 8.41814L79.8734 8.26159L80.0222 8.10659L80.1664 7.95158L80.3028 7.79658L80.4345 7.64313L80.5616 7.48968L80.681 7.33623L80.7957 7.18588L80.9057 7.03553L81.0111 6.88673L81.1103 6.73948L81.2049 6.59223L81.2932 6.44808L81.3785 6.30548L81.4591 6.16288L81.535 6.02338L81.6063 5.88698L81.673 5.75058L81.7365 5.61728L81.797 5.48708L81.8512 5.35842L81.9039 5.23132L81.952 5.10887L81.9969 4.98797L82.0388 4.86862L82.0775 4.75392L82.1116 4.64232L82.1442 4.53227L82.1736 4.42687L82.2015 4.32457L82.2248 4.22537L82.248 4.12927L82.2666 4.03782L82.2852 3.94947L82.3007 3.86577L82.3131 3.78517L82.3255 3.70767L82.3348 3.63637L82.3441 3.56817L82.3503 3.50462L82.3565 3.44572L82.3612 3.39147L82.3643 3.34187L82.3674 3.29692Z" fill="#8CD5F5"/>
<path d="M123.763 40.1049L124.769 35.1991L4.833 43.7164L3.8255 48.6206L123.763 40.1049Z" fill="#8CD5F5"/>
<path d="M60.8889 7.70979L60.892 7.62144L60.8936 7.53309V7.44629L60.8905 7.35948L60.8858 7.27423L60.8796 7.19053L60.8703 7.10683L60.8595 7.02468L60.8471 6.94253L60.8331 6.86193L60.8161 6.78288L60.7975 6.70383L60.7773 6.62633L60.7556 6.55038L60.7308 6.47598L60.706 6.40158L60.6781 6.32873L60.6487 6.25743L60.6177 6.18613L60.5836 6.11638L60.5495 6.04973L60.5123 5.98153L60.4751 5.91643L60.4348 5.85288L60.3929 5.78933L60.3495 5.72733L60.3061 5.66843L60.2596 5.60953L60.2116 5.55218L60.162 5.49638L60.1108 5.44058L60.0581 5.38788L60.0039 5.33673L59.9481 5.28713L59.8907 5.23908L59.8318 5.19103L59.7714 5.14608L59.7109 5.10268L59.6474 5.06083L59.5838 5.02053L59.5187 4.98178L59.4505 4.94458L59.3823 4.90892L59.3126 4.87482L59.2428 4.84382L59.17 4.81282L59.0971 4.78492L59.0227 4.75857L58.9468 4.73377L58.8693 4.71052L58.7918 4.69037L58.7127 4.67022L58.6321 4.65317L58.55 4.63922L58.4678 4.62527L58.3841 4.61442L58.2989 4.60512L58.2136 4.59737L58.1268 4.59272L58.04 4.58962L57.9501 4.58807L57.8602 4.58962L57.7703 4.59272L57.6789 4.59892L57.5781 4.60667L57.4774 4.61752L57.3782 4.63147L57.2774 4.64697L57.1782 4.66557L57.079 4.68572L56.9798 4.70897L56.8822 4.73377L56.7845 4.76167L56.6869 4.79112L56.5892 4.82212L56.4931 4.85622L56.3986 4.89187L56.3025 4.93062L56.2079 4.97093L56.1149 5.01278L56.0219 5.05773L55.9289 5.10423L55.8375 5.15228L55.7476 5.20188L55.6577 5.25458L55.5678 5.30728L55.481 5.36308L55.3926 5.42043L55.3074 5.48088L55.2221 5.54133L55.1384 5.60333L55.0563 5.66843L54.9741 5.73353L54.8935 5.80173L54.8145 5.86993L54.7354 5.94123L54.6595 6.01253L54.5835 6.08538L54.5091 6.16133L54.4363 6.23728L54.365 6.31478L54.2952 6.39383L54.227 6.47443L54.1604 6.55503L54.0937 6.63873L54.0302 6.72243L53.9682 6.80768L53.9077 6.89293L53.8488 6.98128L53.7915 7.06963L53.7357 7.15953L53.6814 7.24943L53.6303 7.34088L53.5807 7.43388L53.5311 7.52689L53.4861 7.62144L53.4412 7.71599L53.3993 7.81209L53.359 7.90819L53.3203 8.00584L53.2846 8.10349L53.2505 8.20269L53.218 8.30189L53.1885 8.40264L53.1606 8.50339L53.1358 8.60414L53.1126 8.70644L53.0924 8.80874L53.0692 8.94204L53.049 9.07534L53.0366 9.20709L53.0273 9.33574L53.0227 9.42409L53.0211 9.51089L53.0227 9.59614L53.0258 9.68139L53.0304 9.76509L53.0366 9.84879L53.0459 9.93094L53.0568 10.0131L53.0707 10.0937L53.0847 10.1727L53.1017 10.2518L53.1203 10.3293L53.142 10.4068L53.1637 10.4812L53.1885 10.5571L53.2149 10.63L53.2428 10.7013L53.2738 10.7726L53.3048 10.8423L53.3389 10.9121L53.3745 10.9787L53.4117 11.0454L53.4505 11.1105L53.4908 11.174L53.5326 11.2376L53.576 11.2981L53.621 11.3585L53.669 11.4159L53.7171 11.4732L53.7667 11.529L53.8178 11.5833L53.8721 11.636L53.9263 11.6871L53.9821 11.7367L54.0395 11.7863L54.0984 11.8328L54.1588 11.8778L54.2208 11.9212L54.2828 11.963L54.3479 12.0033L54.413 12.0421L54.4797 12.0793L54.5494 12.1149L54.6176 12.1475L54.6889 12.18L54.7602 12.2095L54.8331 12.2389L54.9075 12.2653L54.9834 12.2901L55.0594 12.3133L55.1369 12.3335L55.2159 12.3521L55.2965 12.3707L55.3771 12.3846L55.4593 12.3986L55.5414 12.4094L55.6251 12.4187L55.7104 12.4265L55.7956 12.4311L55.8824 12.4342L55.9692 12.4358L56.0576 12.4342L56.1475 12.4311L56.2374 12.4265L56.335 12.4187L56.4342 12.4079L56.5319 12.3939L56.6311 12.3784L56.7287 12.3598L56.8264 12.3397L56.924 12.318L57.0217 12.2916L57.1178 12.2653L57.2139 12.2358L57.31 12.2033L57.4061 12.1707L57.5006 12.1335L57.5952 12.0963L57.6897 12.056L57.7827 12.0142L57.8757 11.9692L57.9672 11.9243L58.0586 11.8762L58.1501 11.8251L58.2384 11.7739L58.3283 11.7197L58.4167 11.6654L58.5035 11.6081L58.5887 11.5492L58.674 11.4887L58.7592 11.4267L58.8414 11.3616L58.9235 11.2965L59.0057 11.2298L59.0847 11.1617L59.1638 11.0904L59.2413 11.019L59.3172 10.9462L59.3916 10.8718L59.4645 10.7958L59.5373 10.7199L59.6071 10.6408L59.6768 10.5618L59.7435 10.4812L59.8101 10.399L59.8752 10.3153L59.9372 10.2316L59.9992 10.1464L60.0581 10.0596L60.117 9.97279L60.1728 9.88444L60.2271 9.79454L60.2798 9.70464L60.3294 9.61319L60.379 9.52019L60.4255 9.42719L60.4704 9.33419L60.5123 9.23964L60.5541 9.14354L60.5913 9.04899L60.6285 8.95134L60.6626 8.85369L60.6952 8.75604L60.7246 8.65839L60.7525 8.55919L60.7773 8.45999L60.8006 8.36079L60.8208 8.26004L60.8455 8.12054L60.8642 7.98104L60.8796 7.84464L60.8889 7.70979Z" fill="#8CD5F5"/>
<path d="M128.482 8.32361L128.319 8.33601L128.099 8.35151L127.828 8.37011L127.513 8.39336L127.156 8.41816L126.767 8.44606L126.347 8.47551L125.906 8.50651L125.445 8.53906L124.971 8.57316L124.49 8.60726L124.008 8.64136L123.531 8.67546L123.061 8.70956L122.826 9.20246L122.587 9.66126L122.345 10.0844L122.1 10.475L121.854 10.8331L121.607 11.1617L121.361 11.4608L121.114 11.7321L120.87 11.9785L120.628 12.1986L120.391 12.3939L120.157 12.5675L119.927 12.721L119.704 12.8543L119.489 12.969L119.279 13.0666L118.743 12.5737L118.131 12.1521L117.446 11.8034L116.689 11.529L115.863 11.3306L114.967 11.2082L114.005 11.1632L112.977 11.1989L112.354 11.2562L111.745 11.3399L111.148 11.4469L110.565 11.5802L109.996 11.7352L109.443 11.915L108.902 12.118L108.378 12.3428L107.868 12.5892L107.375 12.8574L106.898 13.1457L106.437 13.4557L105.994 13.7843L105.568 14.133L105.16 14.5004L104.771 14.8863L104.399 15.2893L104.047 15.7094L103.716 16.148L103.403 16.6006L103.11 17.0703L102.837 17.5554L102.586 18.0561L102.356 18.5691L102.149 19.0977L101.963 19.6387L101.798 20.192L101.659 20.7578L101.541 21.3359L101.448 21.9249L101.378 22.5248L101.333 23.1339L101.318 23.6935L101.332 24.2329L101.374 24.7506L101.443 25.2497L101.336 25.3365L101.206 25.4341L101.053 25.5426L100.878 25.6604L100.678 25.7829L100.458 25.9084L100.213 26.0355L99.9476 26.1626L99.6577 26.2866L99.3477 26.406L99.0145 26.516L98.6595 26.6183L98.2813 26.7082L97.8814 26.7857L97.4598 26.8462L97.0165 26.888L96.4709 26.902L95.9811 26.8648L95.5409 26.7795L95.1488 26.654L94.8016 26.4881L94.4962 26.2897L94.2296 26.0619L93.9987 25.8092L93.7987 25.5349L93.6282 25.245L93.4841 24.9428L93.3616 24.6312L93.2609 24.3181L93.1756 24.0035L93.1043 23.695L93.0423 23.3959L93.7569 23.1045L94.442 22.7898L95.0961 22.4519L95.7161 22.0923L96.302 21.7095L96.8491 21.3034L97.3575 20.8756L97.8256 20.423L98.2488 19.9471L98.627 19.4465L98.9587 18.9226L99.2408 18.3738L99.4717 17.8003L99.6484 17.202L99.7693 16.5789L99.8344 15.931L99.8391 15.5234L99.8112 15.1343L99.7492 14.7639L99.6531 14.4136L99.5213 14.085L99.3555 13.7812L99.1524 13.5022L98.9137 13.2495L98.6394 13.0263L98.3263 12.8326L97.976 12.6698L97.5885 12.5412L97.1622 12.4466L96.6988 12.3893L96.1935 12.3691L95.6494 12.3893L95.1984 12.4342L94.7535 12.5024L94.3195 12.5939L93.8964 12.7086L93.481 12.8434L93.0749 12.9984L92.6796 13.1705L92.2937 13.3627L91.9186 13.5688L91.5527 13.792L91.1978 14.0292L90.8537 14.2803L90.5189 14.5422L90.195 14.8166L89.8834 15.1002L89.5811 15.3932L92.0085 2.43823L85.7092 2.88463L81.8125 23.5555L81.487 23.8423L81.1088 24.1538L80.6795 24.4886L80.2036 24.8389L79.6844 25.2001L79.1217 25.5659L78.5188 25.9286L77.8801 26.2851L77.2043 26.6276L76.4991 26.9516L75.7613 27.2523L74.9987 27.5204L74.2097 27.7545L73.3991 27.9451L72.5683 28.0877L71.7204 28.1776L71.243 28.1947L70.7982 28.1761L70.389 28.1218L70.0123 28.0319L69.6682 27.9064L69.3582 27.7467L69.0808 27.5514L68.8374 27.3205L68.6251 27.0554L68.4468 26.7547L68.2996 26.4199L68.1849 26.051L68.1027 25.648L68.0516 25.2094L68.0314 24.7382L68.0438 24.2313L68.081 23.7539L68.1384 23.2765L68.2205 22.8038L68.3244 22.3403L68.4515 21.8877L68.6018 21.4522L68.7754 21.0352L68.9738 20.6431L69.1955 20.2804L69.4419 19.9471L69.7116 19.6511L70.0077 19.3953L70.3301 19.1814L70.6757 19.0171L71.0477 18.9024L71.4461 18.845L71.7344 18.8419L71.9917 18.876L72.218 18.9443L72.4164 19.0434L72.5884 19.169L72.7357 19.3194L72.8581 19.4914L72.9604 19.6821L73.0426 19.8867L73.1077 20.1052L73.1557 20.3315L73.1883 20.564L73.2084 20.8012L73.2177 21.0368V21.2693L73.2084 21.4971L78.8474 19.7487L78.8613 19.0264L78.8241 18.349L78.7357 17.7197L78.5947 17.1385L78.4025 16.6037L78.1561 16.1186L77.8569 15.6815L77.505 15.2955L77.0989 14.9592L76.637 14.674L76.1224 14.4384L75.552 14.257L74.9258 14.1268L74.2454 14.0509L73.5076 14.0276L72.7124 14.0586L72.1126 14.1144L71.5251 14.1981L70.9501 14.3066L70.389 14.4399L69.8403 14.598L69.3055 14.7794L68.7847 14.9855L68.2779 15.2149L67.7881 15.4645L67.3107 15.7373L66.8503 16.0318L66.407 16.3449L65.9792 16.6797L65.5684 17.0331L65.1732 17.4051L64.7981 17.7957L64.4385 18.2033L64.099 18.6296L63.7782 19.0698L63.4744 19.5286L63.1923 20.0014L62.9288 20.4881L62.6854 20.9903L62.4638 21.5049L62.2623 22.0334L62.0825 22.5744L61.9244 23.1262L61.788 23.6904L61.6733 24.2654L61.5834 24.8498L61.5152 25.4434L61.4702 26.0464L61.4625 26.9934L61.5384 27.8878L61.4997 27.8242L61.278 27.9901L61.0424 28.1606L60.7975 28.3357L60.5418 28.5124L60.2798 28.6876L60.0132 28.8596L59.742 29.027L59.4707 29.1882L59.1995 29.3386L58.9298 29.4796L58.6647 29.6052L58.4059 29.7168L58.1548 29.8098L57.913 29.8826L57.6851 29.9338L57.4681 29.9617L57.2387 29.9601L57.0326 29.9214L56.8543 29.8408L56.704 29.7168L56.5877 29.5432L56.5056 29.32L56.4622 29.041L56.4591 28.7046L56.4978 28.3326L56.5769 27.9048L58.9344 15.5265L56.0871 15.7295L55.2826 15.8179L54.5464 15.9589L53.8737 16.148L53.2537 16.3774L52.677 16.644L52.1376 16.9416L51.6261 17.264L51.1332 17.605L50.6496 17.96L50.1691 18.3211L49.6824 18.6854L49.1802 19.0465L48.6532 19.3984L48.0952 19.7363L47.4954 20.0525L46.8475 20.3424L46.8661 19.8076L46.8738 19.2775L46.8692 18.7567L46.8537 18.2483L46.8242 17.7538L46.7824 17.2795L46.725 16.8269L46.6537 16.3991L40.2677 16.8517L40.3328 17.3245L40.3948 17.8282L40.4475 18.3645L40.4909 18.9287L40.5219 19.5224L40.5374 20.1409L40.5343 20.7841L40.5095 21.4506L40.4894 21.7963L40.4615 22.1497L40.4289 22.5108L40.3886 22.8766L40.3437 23.2471L40.291 23.6206L40.2321 23.9957L40.1654 24.3708L40.0926 24.7459L40.012 25.1195L39.9236 25.4899L39.829 25.8557L39.7267 26.2169L39.6151 26.5718L39.4973 26.919L39.3702 27.2569L39.2354 27.584L39.0912 27.9002L38.9393 28.2055L38.7781 28.4954L38.6092 28.7713L38.4294 29.0301L38.2418 29.2735L38.045 29.4982L37.8373 29.7028L37.6218 29.8857L37.3955 30.0485L37.1584 30.1864L36.9119 30.3011L36.6562 30.391L36.3896 30.453L36.1106 30.4871L35.6921 30.4778L35.3325 30.3879L35.0349 30.2221L34.7977 29.9818L34.6195 29.6718L34.5017 29.2967L34.4428 28.8581L34.4412 28.3605L34.4676 28.0459L34.4815 27.9281L34.5017 27.7824L34.528 27.6103L34.559 27.4166L34.5931 27.1996L34.6334 26.964L34.6768 26.7098L34.7249 26.4385L34.7745 26.1533L34.8272 25.8573L34.8814 25.5488L34.9388 25.2326L34.9961 24.9087L35.055 24.5816L35.1155 24.2499L35.1744 23.9167L35.2348 23.585L35.2937 23.2564L35.3511 22.9309L35.4084 22.6116L35.4627 22.3L35.5154 21.9993L35.565 21.711L35.6115 21.4351L35.6549 21.1747L35.6952 20.9314L35.7293 20.7082L35.7603 20.5067L35.7851 20.3269L35.8052 20.1719L35.8192 20.0448L35.8269 19.944L35.8362 19.5178L35.8145 19.1256L35.7634 18.7675L35.6828 18.4451L35.5743 18.1553L35.4379 17.898L35.2751 17.6717L35.0845 17.4748L34.8675 17.309L34.6257 17.1726L34.3575 17.0625L34.0661 16.9804L33.7499 16.923L33.4089 16.892L33.0462 16.8858L32.6618 16.9029L32.3379 16.9308L32.0062 16.9726L31.6714 17.0253L31.3319 17.0873L30.994 17.1571L30.6592 17.2361L30.3275 17.3214L30.0036 17.4128L29.6889 17.5089L29.3851 17.6081L29.0953 17.7089L28.8225 17.8127L28.5667 17.9166L28.3327 18.0189L28.1219 18.1196L27.9374 18.2173L27.3407 22.5899L27.5453 22.5449L27.7809 22.5015L28.0304 22.4659L28.28 22.4411L28.5032 22.4395L28.6907 22.469L28.8411 22.5341L28.9573 22.6379L29.041 22.7821L29.0937 22.9681L29.1185 23.2021L29.1154 23.4842L29.1046 23.6175L29.0891 23.7741L29.0658 23.9492L29.0379 24.1445L29.0038 24.3569L28.9651 24.5847L28.9232 24.825L28.8783 25.0792L28.8302 25.3427L28.7791 25.6155L28.7264 25.8945L28.6721 26.1797L28.6163 26.4695L28.5605 26.7609L28.5047 27.0523L28.4505 27.3422L28.1436 27.6165L27.7793 27.9219L27.3608 28.2505L26.8927 28.5977L26.375 28.9573L25.8108 29.3231L25.2047 29.6873L24.5568 30.0469L23.8717 30.3941L23.1525 30.7243L22.3992 31.0281L21.6165 31.3025L20.8074 31.5412L19.9735 31.7365L19.1179 31.8822L18.2437 31.9752L17.7647 31.9922L17.3199 31.9736L16.9107 31.9194L16.534 31.8295L16.1899 31.7039L15.8799 31.5443L15.6025 31.3489L15.3591 31.118L15.1468 30.8529L14.9685 30.5522L14.8213 30.2174L14.7065 29.8485L14.6244 29.444L14.5732 29.0069L14.5531 28.5357L14.5655 28.0288L14.6027 27.5514L14.66 27.074L14.7422 26.6013L14.846 26.1378L14.9732 25.6852L15.1235 25.2497L15.2971 24.8327L15.4955 24.4406L15.7172 24.0779L15.9636 23.7446L16.2349 23.4486L16.5294 23.1928L16.8518 22.9789L17.1974 22.8146L17.5694 22.6999L17.9678 22.6426L18.2561 22.6395L18.5134 22.6736L18.7397 22.7418L18.9381 22.841L19.1101 22.9665L19.2574 23.1169L19.3798 23.2889L19.4821 23.4796L19.5643 23.6842L19.6294 23.9027L19.6774 24.129L19.71 24.3615L19.7301 24.5987L19.7394 24.8343V25.0668L19.7301 25.2946L25.369 23.5462L25.383 22.8239L25.3458 22.1466L25.2574 21.5173L25.1164 20.936L24.9242 20.4013L24.6777 19.9161L24.3786 19.479L24.0267 19.0931L23.6206 18.7567L23.1587 18.4715L22.6441 18.2359L22.0737 18.0545L21.4475 17.9243L20.7671 17.8484L20.0293 17.8251L19.2341 17.8561L18.6343 17.9119L18.0468 17.9941L17.4718 18.1026L16.9107 18.2374L16.362 18.3955L15.8272 18.5769L15.3064 18.783L14.7996 19.0109L14.3097 19.262L13.8323 19.5348L13.3735 19.8293L12.9287 20.1424L12.5009 20.4772L12.0901 20.8306L11.6964 21.2026L11.3198 21.5932L10.9602 22.0009L10.6207 22.4256L10.2999 22.8673L9.99608 23.3261L9.71398 23.7989L9.45048 24.2856L9.20713 24.7878L8.98548 25.3024L8.78398 25.8309L8.60417 26.3719L8.44607 26.9237L8.30967 27.4879L8.19497 28.0629L8.10507 28.6473L8.03687 29.2409L7.99192 29.8439L7.97952 30.6778L8.03222 31.473L8.15002 32.2247L8.33292 32.9315L8.58093 33.5918L8.89713 34.201L9.27998 34.7574L9.72948 35.2596L10.2472 35.7029L10.8315 36.0858L11.4856 36.4066L12.2079 36.6608L13 36.8468L13.8602 36.9615L14.7918 37.0018L15.7916 36.9677L16.4007 36.9104L16.9975 36.8282L17.5834 36.7213L18.1569 36.5911L18.7195 36.4407L19.2698 36.2702L19.8076 36.0827L20.3315 35.8781L20.843 35.6595L21.339 35.427L21.8226 35.1821L22.2907 34.9295L22.7449 34.6675L23.1835 34.3978L23.6051 34.125L24.0128 33.8476L24.4018 33.567L24.7754 33.288L25.1319 33.009L25.4713 32.7331L25.7922 32.4603L26.0944 32.1953L26.3781 31.938L26.6431 31.6884L26.888 31.4497L27.1143 31.2234L27.3205 31.0126L27.5049 30.8157L27.6693 30.6359L27.8119 30.4747L27.9343 30.3337L28.0335 30.2159L28.0397 30.8436L28.0971 31.442L28.2056 32.0124L28.3652 32.5487L28.5791 33.0509L28.8457 33.5174L29.1666 33.9437L29.5432 34.3281L29.9757 34.6691L30.4639 34.9636L31.0095 35.21L31.614 35.4038L32.2759 35.5464L32.9982 35.6332L33.7809 35.6626L34.6241 35.6301L35.2705 35.5696L35.8998 35.4828L36.5105 35.3681L37.1041 35.2271L37.6792 35.0612L38.2372 34.8706L38.7781 34.6536L39.3005 34.4149L39.8058 34.1514L40.2925 33.8662L40.7622 33.5577L41.2148 33.2276L41.6503 32.8773L42.0673 32.5053L42.4672 32.1131L42.8485 31.7024L43.2127 31.273L43.5615 30.825L43.8901 30.3585L44.2032 29.8749L44.4977 29.3758L44.7751 28.8596L45.0355 28.328L45.2789 27.7824L45.5052 27.2213L45.7129 26.6478L45.9051 26.0588L46.0787 25.4589L46.2352 24.8467L46.3747 24.222L46.4972 23.5865L46.6026 22.9417L47.2784 22.7914L47.9557 22.6147L48.6269 22.407L49.2872 22.1698L49.9258 21.9017L50.5365 21.6041L51.1115 21.2724L51.6432 20.9097L50.1164 29.1402L49.9847 29.9508L49.918 30.6778L49.9087 31.2265L49.9413 31.721L50.0141 32.1643L50.1242 32.5595L50.273 32.9067L50.459 33.209L50.6775 33.4678L50.9302 33.6879L51.2138 33.8693L51.5285 34.015L51.8726 34.1266L52.243 34.2056L52.6398 34.2568L53.0614 34.2816L53.5063 34.28L53.9744 34.2568L54.7246 34.1746L55.4438 34.0413L56.132 33.8631L56.7877 33.6461L57.4108 33.3934L58.0013 33.1129L58.5609 32.8091L59.0879 32.4867L59.5823 32.155L60.0442 31.8155L60.4751 31.4761L60.8735 31.1413L61.2393 30.8173L61.5725 30.5104L61.8748 30.2252L62.1429 29.9679L62.3599 30.3724L62.6064 30.7537L62.8823 31.1103L63.1892 31.442L63.5271 31.7473L63.8944 32.0263L64.2928 32.2774L64.7221 32.5006L65.1809 32.6944L65.6723 32.8571L66.1931 32.9904L66.7465 33.0927L67.3293 33.1625L67.9446 33.1997L68.5925 33.2028L69.2699 33.1702L69.8294 33.1191L70.3797 33.0462L70.9206 32.9517L71.4507 32.8385L71.9715 32.7068L72.483 32.558L72.9821 32.3937L73.4719 32.2154L73.9493 32.0232L74.4159 31.8186L74.8716 31.6032L75.3133 31.3784L75.7442 31.1459L76.1627 30.9056L76.5673 30.6607L76.9594 30.4096L77.3376 30.1554L77.7034 29.8997L78.0537 29.6424L78.3901 29.3851L78.7125 29.1293L79.0194 28.8767L79.3108 28.6287L79.5867 28.3853L79.8471 28.1482L80.092 27.9188L80.3199 27.6987L80.5322 27.4879L80.726 27.2895L80.9042 27.1019L81.0639 26.9299L81.2065 26.7718L80.247 31.8605L86.5447 31.4125L87.7878 24.7909L88.4822 24.6591L88.662 25.4744L88.865 26.2401L89.096 26.9593L89.3548 27.6258L89.6462 28.2427L89.9687 28.8069L90.3283 29.3184L90.7251 29.7741L91.1637 30.1725L91.6427 30.515L92.1681 30.8002L92.7385 31.025L93.3601 31.1893L94.0312 31.2916L94.7582 31.3304L95.5394 31.3055L96.04 31.2482L96.5391 31.1537L97.0336 31.0234L97.5218 30.8607L98.0023 30.67L98.4751 30.4546L98.937 30.2174L99.3865 29.9632L99.8236 29.6935L100.247 29.413L100.653 29.1262L101.04 28.8348L101.409 28.5434L101.758 28.2551L102.083 27.973L102.386 27.7002L102.635 28.0474L102.911 28.3698L103.21 28.6705L103.534 28.948L103.882 29.2022L104.254 29.4316L104.649 29.6362L105.067 29.8175L105.507 29.9725L105.972 30.1043L106.458 30.2081L106.966 30.2872L107.495 30.3399L108.046 30.3647L108.617 30.3631L109.209 30.3337L109.824 30.2763L110.427 30.1911L111.018 30.081L111.596 29.9431L112.16 29.7819L112.712 29.5943L113.248 29.3835L113.771 29.1495L114.277 28.8937L114.769 28.6147L115.245 28.314L115.705 27.9932L116.147 27.6522L116.573 27.291L116.982 26.9113L117.371 26.5129L117.743 26.0975L118.097 25.6651L118.43 25.2156L118.745 24.7506L119.039 24.2701L119.312 23.7741L119.564 23.2657L119.797 22.7433L120.006 22.207L120.192 21.6599L120.358 21.1019L120.499 20.5315L120.617 19.9518L120.711 19.3628L120.781 18.7629L120.826 18.1568L120.839 17.3663L120.792 16.6208L120.687 15.9202L120.524 15.263L121.114 15.0553L121.677 14.8321L122.213 14.5965L122.722 14.3485L123.205 14.0912L123.664 13.8261L124.098 13.5518L124.507 13.2728L124.895 12.9891L125.258 12.7008L125.599 12.411L125.918 12.1211L126.216 11.8328L126.493 11.5461L126.75 11.2624L126.989 10.985L127.208 10.7122L127.409 10.4471L127.592 10.1929L127.758 9.94801L127.907 9.71396L128.04 9.49386L128.158 9.28771L128.262 9.09861L128.35 8.92501L128.424 8.77156L128.486 8.63826L128.536 8.52511L128.573 8.43521L128.599 8.36856L128.62 8.31431L128.482 8.32361Z" fill="#8CD5F5"/>
<path d="M114.214 18.9783L114.201 19.403L114.158 19.9409L114.087 20.4787L113.986 21.0104L113.859 21.5327L113.705 22.0396L113.526 22.5294L113.321 22.9944L113.092 23.4331L112.841 23.8392L112.565 24.2096L112.269 24.5382L111.951 24.8234L111.611 25.059L111.253 25.2404L110.877 25.3644L110.481 25.4248L110.123 25.4357L109.795 25.4124L109.494 25.3582L109.223 25.2729L108.978 25.1567L108.761 25.0094L108.57 24.8312L108.404 24.6235L108.263 24.3863L108.146 24.1197L108.053 23.8237L107.983 23.5013L107.933 23.1494L107.907 22.7712L107.901 22.3651L107.915 21.9326L107.955 21.4149L108.025 20.9003L108.121 20.3888L108.246 19.8866L108.398 19.3968L108.58 18.9241L108.789 18.4746L109.026 18.0499L109.291 17.6546L109.585 17.295L109.908 16.9726L110.258 16.6936L110.638 16.4627L111.046 16.2813L111.483 16.1573L111.948 16.0907L112.23 16.0845L112.493 16.1062L112.74 16.1558L112.969 16.2333L113.18 16.3402L113.372 16.4751L113.546 16.6378L113.701 16.83L113.836 17.0501L113.95 17.2997L114.045 17.5771L114.119 17.884L114.172 18.2204L114.203 18.5846L114.214 18.9783Z" fill="#D44126"/>
<path d="M93.5135 18.0421L93.5166 18.2576L93.4747 18.5583L93.3833 18.8466L93.2453 19.1225L93.0609 19.386L92.8377 19.6355L92.5742 19.8711L92.2735 20.0943L91.9418 20.3036L91.5775 20.5004L91.1869 20.6818L90.77 20.8507L90.3313 21.0057L89.8741 21.1452L89.3982 21.2708L88.9084 21.3824L88.4078 21.4785L88.5674 20.7732L88.7116 20.4493L88.8681 20.1269L89.0386 19.8091L89.22 19.4976L89.4137 19.1953L89.6183 18.9039L89.8369 18.6265L90.0663 18.3645L90.3065 18.1227L90.5607 17.9011L90.8242 17.7042L91.1017 17.5322L91.3884 17.3896L91.6876 17.278L91.9991 17.2005L92.32 17.1586L92.6424 17.1633L92.9059 17.2206L93.1182 17.326L93.281 17.4671L93.3988 17.6407L93.4747 17.8344L93.5135 18.0421Z" fill="#D44126"/>
<path d="M36.9724 51.9409H42.0921L39.547 70.6076H37.425L29.1108 61.585L27.894 70.6076H22.7744L25.2916 51.9409H27.4135L35.7278 61.0192L36.9724 51.9409Z" fill="#D6AA77"/>
<path d="M55.1571 66.3931C54.9882 67.6377 55.2129 68.0624 56.5428 67.8067L56.2034 70.4091C55.6376 70.6912 54.534 70.9749 53.2057 70.9749C51.6216 70.9749 50.7458 70.2107 50.4342 68.9661C49.2175 70.2665 47.7186 70.9749 46.1066 70.9749C43.3631 70.9749 42.0053 68.9103 42.0053 66.1668C42.0053 61.4718 44.6636 57.8231 49.1601 57.8231C50.3474 57.8231 51.2805 58.1346 52.0726 58.6431L52.3547 58.1905H56.3134L55.154 66.3931H55.1571ZM50.349 65.9405L50.9426 61.726C50.5474 61.5276 50.0948 61.4145 49.5848 61.4145C47.8597 61.4145 47.0397 63.0265 47.0397 65.0632C47.0397 66.3931 47.4923 67.0999 48.3402 67.0999C49.188 67.0999 49.8669 66.6473 50.349 65.9405ZM56.797 51.6293L51.5084 56.6637H47.917L52.0741 51.6293H56.797Z" fill="#D6AA77"/>
<path d="M71.5608 62.6312C71.5608 67.2983 68.9025 70.9749 64.406 70.9749C63.0482 70.9749 62.0298 70.5797 61.182 69.9566L60.8146 70.6076H57.138L59.9094 50.8093H64.8028L63.586 59.4072C64.7175 58.361 66.0474 57.8231 67.4331 57.8231C70.2046 57.8231 71.5624 59.8877 71.5624 62.6312H71.5608ZM66.4985 63.7348C66.4985 62.4049 66.0738 61.6981 65.198 61.6981C64.237 61.6981 63.5581 62.236 63.0482 63.0559L62.4824 67.0441C62.9071 67.2425 63.3876 67.3835 63.9534 67.3835C65.7064 67.3835 66.4985 65.7715 66.4985 63.7348Z" fill="#D6AA77"/>
<path d="M82.958 66.3652L83.5796 69.3071C82.4481 70.0713 80.8361 70.9765 78.0925 70.9765C73.5681 70.9765 71.8987 68.5445 71.8987 65.4337C71.8987 61.1355 75.0669 57.8262 79.7324 57.8262C82.8712 57.8262 84.6258 59.353 84.6258 61.5602C84.6258 64.8974 80.7229 66.4536 76.8773 66.0568C77.0757 67.0178 77.6973 67.4998 79.1403 67.4998C80.5834 67.4998 81.8265 67.0472 82.958 66.3683V66.3652ZM77.0757 63.3954C78.7156 63.4233 80.0176 63.0839 80.0176 61.9244C80.0176 61.5292 79.9045 61.0766 79.1977 61.0766C78.0941 61.0766 77.4167 62.1802 77.0773 63.3954H77.0757Z" fill="#D6AA77"/>
<path d="M85.6163 62.236L86.182 58.192H97.6924L97.4382 60.1435L91.838 66.5636H96.5888L96.0509 70.6076H84.3701L84.6537 68.6282L90.3376 62.236H85.6147H85.6163ZM94.2699 56.6932H90.3949L87.7088 51.6309H91.2443L92.6858 53.9497L94.7504 51.6309H98.3418L94.2699 56.6932Z" fill="#D6AA77"/>
<path d="M97.8908 66.9867L99.1633 58.1905H104.027L102.868 66.3931C102.699 67.6935 103.009 68.0051 104.311 67.8067L104.142 70.4092C103.576 70.6076 102.643 70.9749 101.003 70.9749C98.8254 70.9749 97.4397 70.2108 97.8923 66.9867H97.8908ZM99.3338 53.6086C99.5601 52.0524 100.974 50.8093 102.502 50.8093C104.03 50.8093 105.132 52.054 104.906 53.6086C104.68 55.1354 103.266 56.38 101.738 56.38C100.21 56.38 99.1075 55.1354 99.3338 53.6086Z" fill="#D6AA77"/>
<path d="M116.105 66.3652L116.726 69.3071C115.595 70.0713 113.983 70.9765 111.239 70.9765C106.715 70.9765 105.046 68.5445 105.046 65.4337C105.046 61.1355 108.214 57.8262 112.879 57.8262C116.018 57.8262 117.773 59.353 117.773 61.5602C117.773 64.8974 113.87 66.4536 110.023 66.0568C110.221 67.0178 110.843 67.4998 112.286 67.4998C113.729 67.4998 114.972 67.0472 116.103 66.3683L116.105 66.3652ZM110.223 63.3954C111.863 63.4233 113.165 63.0839 113.165 61.9244C113.165 61.5292 113.051 61.0766 112.345 61.0766C111.241 61.0766 110.562 62.1802 110.224 63.3954H110.223Z" fill="#D6AA77"/>
</svg>
