<svg width="377" height="199" viewBox="0 0 377 199" fill="none" xmlns="http://www.w3.org/2000/svg">
<g clip-path="url(#clip0_2259_19206)">
<path d="M363.56 157.08H77.5601V184.08H363.56V157.08Z" fill="#FDECE3"/>
<path d="M51.01 145.46L333.97 125.37L344.59 124.62L347.19 111.95L329.43 95.55L328.96 95.12L319.87 95.77L320.08 95.66L321.35 94.94L322.58 94.16L322.9 93.94L323.77 93.34L324.91 92.46L326.01 91.53L327.06 90.55L327.39 90.21L328.07 89.52L329.03 88.45L329.94 87.33L330.8 86.17L331.43 85.24L331.61 84.97L331.84 84.59L332.37 83.73L333.03 82.54L333.08 82.45L333.73 81.14L333.93 80.69L334.33 79.79L334.49 79.37L334.87 78.41L335.19 77.47L335.35 77L335.52 76.43L335.78 75.55L336.07 74.37L336.14 74.07L336.44 72.57L336.68 71.05L336.83 69.73L336.86 69.5L336.98 67.93V67.26L337.01 65.89L336.95 64.96L336.89 63.97L336.62 62.16L336.25 60.68L336.2 60.47L337.72 59.93L339.17 59.35L340.55 58.74L341.87 58.1L343.12 57.43L344.3 56.74L345.42 56.03L346.48 55.31L347.48 54.58L348.42 53.84L349.3 53.09L350.12 52.34L350.89 51.59L351.61 50.85L352.27 50.12L352.88 49.4L353.45 48.7L353.97 48.02L354.44 47.36L354.87 46.73L355.26 46.13L355.6 45.56L355.9 45.03L356.17 44.54L356.4 44.09L356.59 43.69L356.75 43.34L356.88 43.05L356.98 42.82L357.05 42.65L357.1 42.51L338.88 25.68L338.53 25.7L338.11 25.73L337.54 25.77L336.84 25.82L336.02 25.88L335.1 25.94L334.09 26.01L333.01 26.09L331.87 26.17L330.68 26.25L329.46 26.34L328.22 26.43L326.97 26.52L325.73 26.61L324.52 26.7L323.91 27.97L323.29 29.15L322.66 30.24L322.03 31.25L321.39 32.18L320.75 33.03L320.11 33.8L319.47 34.5L318.84 35.13L318.22 35.7L317.6 36.21L317 36.66L316.41 37.05L315.83 37.39L315.27 37.69L314.73 37.94L313.34 36.67L311.76 35.58L309.99 34.68L308.04 33.97L305.9 33.46L303.59 33.15L301.1 33.04L298.45 33.13L296.84 33.28L295.27 33.49L293.73 33.77L292.22 34.11L290.75 34.51L289.32 34.97L287.93 35.49L286.58 36.07L285.26 36.71L283.99 37.4L282.76 38.15L281.57 38.95L280.43 39.8L279.33 40.7L278.28 41.65L277.27 42.65L276.31 43.69L275.4 44.78L274.54 45.91L273.73 47.08L272.97 48.29L272.91 48.39L262.23 38.53L262.13 38.42L261.42 37.84L260.64 37.35L262.52 27.32L244.3 10.49L228.03 11.64L226.65 18.94L219.4 12.25H219.35H219.31H219.26H219.2H219.13L219.05 12.26H219H218.95H218.9H218.85H218.74L218.62 12.28H218.49L218.35 12.3H218.2L218.05 12.32H217.89L217.72 12.34H217.54L217.45 12.36H217.36L217.17 12.38H216.97L216.76 12.41L216.55 12.43L216.33 12.45L216.1 12.47H215.98L215.86 12.49L215.62 12.51L215.38 12.53L215.13 12.55L214.88 12.57L214.62 12.59L214.36 12.61H214.23L214.1 12.63L213.83 12.65L213.55 12.67L213.27 12.69L212.99 12.71L212.7 12.73L212.41 12.75L212.12 12.77L211.82 12.79L211.52 12.81L211.22 12.83L210.92 12.85L210.62 12.87L210.31 12.89L210 12.91L209.69 12.93L209.38 12.95L209.07 12.97L208.76 12.99L208.45 13.01L208.14 13.03L207.83 13.05L207.52 13.07L207.21 13.09L206.9 13.11L206.59 13.13L206.28 13.15L205.97 13.17L205.67 13.19L205.37 13.21L205.07 13.23L204.92 13.62L204.77 14L204.69 14.19L204.61 14.38L204.51 14.61L204.45 14.75L204.3 15.11L204.15 15.46L204 15.8L203.85 16.13L203.7 16.46L203.55 16.78L203.4 17.09L203.25 17.39L203.1 17.69L202.95 17.98L202.8 18.26L202.65 18.54L202.5 18.81L202.35 19.07L202.2 19.33L202.05 19.58L201.98 19.7L201.91 19.82L201.76 20.06L201.69 20.18L201.62 20.3L201.55 20.41L201.48 20.52L201.33 20.74L201.18 20.96L201.03 21.17L200.88 21.37L200.73 21.57L200.58 21.76L200.43 21.95L200.28 22.13L200.14 22.31L200.06 22.4L191.17 14.19H191.06L190.94 14.21L190.71 14.23L190.47 14.25L190.23 14.27L189.99 14.29L189.74 14.31L189.49 14.33L189.24 14.35L188.99 14.37L188.75 14.39H188.73L188.47 14.41L188.21 14.43L187.95 14.45L187.69 14.47L187.43 14.49L187.17 14.51L186.91 14.53L186.65 14.55L186.39 14.57H186.26L186.14 14.59L185.88 14.61L185.62 14.63L185.36 14.65L185.11 14.67L184.86 14.69L184.61 14.71L184.36 14.73H184.24L184.11 14.75L183.87 14.77L183.63 14.79L183.39 14.81L183.15 14.83L182.92 14.85L182.69 14.87L182.47 14.89L182.25 14.91L182.04 14.93L181.83 14.95H181.62L181.42 14.98H181.23L181.04 15.01H180.86L180.68 15.04H180.51L180.43 15.06H180.35L180.19 15.08H180.04L179.9 15.1H179.77H179.64L179.52 15.12H179.41L179.31 15.14H179.22L179.14 15.15H179.06L178.99 15.16H178.93H178.88H178.84H178.81L178.78 15.18V15.2V15.23V15.27L178.77 15.32V15.38L178.75 15.45V15.53L178.73 15.62V15.72L178.71 15.83V15.94L178.69 16.06V16.19L178.67 16.33V16.49L178.66 16.65V16.82V17V17.19V17.38V17.58L178.67 17.78V18V18.22L178.7 18.45L178.72 18.69L178.74 18.93L178.77 19.18L178.8 19.43L178.84 19.69L178.88 19.95L178.92 20.22L178.97 20.49L179.03 20.77L179.09 21.05L179.16 21.34L179.23 21.63L179.31 21.92L179.39 22.22L179.48 22.52L179.58 22.83L179.68 23.14L179.79 23.45L179.91 23.76L180.04 24.08L180.17 24.4L180.31 24.72L180.46 25.04L180.62 25.36L180.79 25.68L180.97 26.01L181.16 26.34L181.36 26.67L181.57 27L181.63 27.09L181.78 27.33L181.94 27.56L182 27.65L182.24 27.98L182.49 28.31L182.75 28.64L183.02 28.97L183.3 29.3L183.59 29.63L183.89 29.95L184.2 30.27L184.53 30.59L184.87 30.91L185.05 31.07L185.07 31.09L185.02 31.11L195.15 40.47L194.53 40.49L192.98 40.64L191.46 40.85L189.98 41.13L188.53 41.48L187.11 41.89L185.73 42.36L184.39 42.89L183.08 43.48L181.81 44.13L181.47 44.32L181.54 44.13L181.63 43.88L181.71 43.63L181.79 43.38L181.86 43.12L181.93 42.86L181.99 42.6L182.04 42.34L182.1 41.98L182.15 41.62L182.19 41.27L182.21 40.92V40.69L182.22 40.46V40.23V40.01V39.79L182.19 39.57L182.17 39.35L182.14 39.14L182.11 38.93L182.07 38.72L182.03 38.51L181.98 38.31L181.93 38.11L181.87 37.91L181.81 37.72L181.74 37.53L181.67 37.34L181.59 37.15L181.51 36.97L181.42 36.79L181.33 36.61L181.24 36.44L181.14 36.27L181.04 36.1L180.93 35.94L180.82 35.78L180.7 35.62L180.58 35.47L180.46 35.32L180.36 35.21L180.45 35.18L162.23 18.35L162.14 18.38L162.11 18.34L161.98 18.2L161.84 18.06L161.7 17.93L161.56 17.8L161.43 17.69L161.41 17.67L161.26 17.55L161.1 17.43L160.94 17.32L160.78 17.21L160.61 17.11L160.44 17.01L160.27 16.91L160.09 16.82L159.91 16.73L159.73 16.65L159.54 16.57L159.35 16.5L159.25 16.47L159.15 16.44L158.95 16.38L158.75 16.32L158.55 16.27L158.35 16.22L158.14 16.18L157.93 16.14L157.72 16.11L157.5 16.08L157.28 16.06H157.17L157.06 16.04H156.84L156.61 16.02H156.38H156.15H155.92L155.68 16.04L155.42 16.06L155.16 16.09L154.9 16.12L154.64 16.16L154.38 16.21L154.12 16.26L153.87 16.32L153.74 16.35L153.61 16.38L153.41 16.44L153.35 16.46L153.1 16.54L152.85 16.62L152.6 16.71L152.35 16.8L152.1 16.9L151.86 17L151.62 17.11L151.38 17.22L151.14 17.34L150.9 17.46L150.67 17.59L150.44 17.72L150.21 17.86L149.98 18L149.76 18.15L149.54 18.3L149.32 18.46L149.1 18.62L148.89 18.79L148.68 18.96L148.47 19.13L148.26 19.31L148.06 19.49L147.86 19.68L147.66 19.87L147.47 20.06L147.28 20.26L147.1 20.46L146.92 20.66L146.74 20.87L146.57 21.08L146.4 21.29L146.24 21.51L146.08 21.73L145.92 21.95L145.77 22.18L145.62 22.41L145.48 22.64L145.34 22.87L145.21 23.11L145.08 23.35L144.96 23.59L144.84 23.83L144.73 24.08L144.62 24.33L144.52 24.58L144.42 24.83L144.33 25.08L144.24 25.33L144.18 25.52L144.16 25.58L144.08 25.84L144.01 26.1L143.95 26.36L143.89 26.62L143.84 26.88L143.78 27.23L143.76 27.4L143.74 27.57L143.7 27.91L143.68 28.24V28.47L143.67 28.69V28.91V29.13V29.35L143.7 29.56L143.72 29.77L143.75 29.98L143.78 30.19L143.82 30.4L143.84 30.5L143.86 30.6V30.64L143.91 30.8L143.95 30.96V31L144.02 31.19L144.08 31.38L144.15 31.57L144.22 31.76L144.3 31.94L144.38 32.12L144.47 32.3L144.56 32.47L144.66 32.64L144.76 32.81L144.86 32.97L144.97 33.13L145.08 33.29L145.14 33.37L145.2 33.45L145.32 33.6L145.44 33.75L145.57 33.89L145.7 34.03L145.79 34.12L145.68 34.15L156.74 44.36L151.55 44.73L149.47 44.96L147.57 45.33L145.83 45.82L144.23 46.42L142.74 47.11L141.35 47.88L140.03 48.71L138.76 49.59L137.51 50.51L136.27 51.45L135.01 52.39L134.21 52.96L127.19 46.48L110.69 47.65L110.86 48.87L111.02 50.17L111.16 51.55L111.27 53.01L111.35 54.54L111.39 56.14V57.8L111.32 59.52L111.27 60.41L111.2 61.32L111.14 62.01L97.33 49.26L97.32 49.25L96.76 48.82L96.13 48.47L95.44 48.19L94.69 47.98L93.87 47.83L92.99 47.75L92.05 47.73L91.06 47.77L90.22 47.85L89.36 47.96L88.49 48.09L87.62 48.25L86.75 48.43L85.88 48.63L85.02 48.85L84.18 49.09L83.37 49.34L82.59 49.6L81.84 49.86L81.13 50.13L80.47 50.4L79.87 50.67L79.33 50.93L78.85 51.18L77.43 61.61L69.67 54.44L68.76 53.44L67.71 52.57L66.52 51.83L65.19 51.23L63.72 50.76L62.1 50.42L60.34 50.22L58.43 50.16L56.38 50.24L54.83 50.39L53.31 50.6L51.83 50.88L50.38 51.23L48.96 51.64L47.58 52.11L46.24 52.64L44.93 53.23L43.66 53.88L42.43 54.58L41.24 55.34L40.09 56.15L38.98 57.01L37.92 57.92L36.9 58.88L35.93 59.89L35 60.94L34.12 62.04L33.29 63.18L32.51 64.36L31.78 65.58L31.1 66.84L30.47 68.14L29.9 69.47L29.38 70.83L28.92 72.23L28.51 73.66L28.16 75.12L27.87 76.6L27.64 78.11L27.47 79.64L27.36 81.2L27.33 83.35L27.46 85.4L27.76 87.34L28.23 89.17L28.87 90.87L29.69 92.44L30.68 93.88L31.84 95.18L32.58 95.82H32.57L49.87 111.8L50.05 112.01L50.58 112.47L50.78 112.65H50.79L51.38 113.15L52.89 114.14L53.76 114.57L19.17 117.03L16.95 127.86L16.57 129.7L25.86 138.28H17.04L10.47 186.49H23.69L25.08 176.04H28.81C43.78 176.04 53.06 167.27 53.06 153.47C53.06 150.31 52.37 147.6 50.99 145.37L51.01 145.46ZM252.18 100.57L248.72 100.82L250.73 90.1L259.73 98.41L260.12 98.73L260.38 98.97L261.46 99.74L261.61 99.85L261.7 99.9L252.16 100.58L252.18 100.57ZM127.37 109.43L127.43 109.4L127.74 109.24L128.02 109.07L128.99 108.5L130.2 107.7L131.37 106.85L132.49 105.94L133.57 104.98L134.19 104.37L134.6 103.97L135.1 103.43L135.58 102.91L136.52 101.8L137.42 100.64L138.27 99.44L139.08 98.19L139.33 97.76L139.84 96.9L140.34 95.97L140.55 95.57L140.77 95.11L141.22 94.2L141.26 94.1L155.69 107.42L127.33 109.43H127.37ZM175.77 105.99L176.19 105.76L176.87 105.35L177.55 104.93L178.83 104.07L179.32 103.71L180.02 103.2L180.55 102.78L181.13 102.32L182.16 101.46L182.38 101.26L183.1 100.62L183.53 100.22L183.96 99.82L184.43 99.38L184.74 99.09L185.44 98.42L186 99.46L186.12 99.65L186.63 100.44L187.34 101.36L188.13 102.22L189 103.01L189.95 103.73L190.84 104.29L190.98 104.38L191.86 104.84L175.75 105.98L175.77 105.99ZM226.24 97.8L230.87 102.07L217.53 103.02L218.32 102.64L219.46 102.06L220.57 101.46L221.65 100.84L222.17 100.52L222.69 100.2L223.7 99.55L224.68 98.89L225.23 98.5L225.62 98.23L226.23 97.79L226.24 97.8ZM284.91 96.25L285.91 95.5L286.86 94.75L287.12 94.53L287.76 94L288.12 93.69L288.6 93.28L289.38 92.58L290.03 93.47L290.74 94.31L291.13 94.7L291.52 95.09L292.36 95.81L292.99 96.27L293.26 96.46L293.74 96.76L294.22 97.06L294.37 97.14L295.14 97.54L281.53 98.51L281.65 98.44L282.21 98.09L282.77 97.74L283.86 97.02L284.69 96.43L284.91 96.28V96.25ZM97.33 67.29L97.8 67.72L97.58 67.83L97.2 68.03L97.26 67.69L97.33 67.29ZM79.47 112.8L80.06 112.53L80.95 112.08L81.31 111.9L82.52 111.24L83.69 110.56L84.06 110.33L84.83 109.86L85.38 109.51L85.93 109.16L86.98 108.44L87.99 107.72L88.76 107.14L88.95 107L89.87 106.28L90.74 105.57L91.47 104.95L91.57 104.87L92.35 104.18L93.08 103.51L93.76 102.87L94.01 102.63L94.39 102.26L94.64 102.01L94.97 101.68L95.5 101.13L95.55 101.08L95.98 100.62L96.4 100.16L96.77 99.74L97.08 99.38L97.29 99.13L97.34 99.07L97.36 100.69L97.51 102.24L97.71 103.31L97.79 103.72L98.2 105.11L98.52 105.87L98.75 106.41L99.05 106.94L99.44 107.61L99.99 108.34L100.27 108.71L101.24 109.7L101.72 110.08L102.35 110.58L102.75 110.82L103.29 111.15L79.38 112.85L79.46 112.81L79.47 112.8ZM29.27 165.38H26.57L28.76 149.16H32.19C37.08 149.16 39.35 151.06 39.35 155.88C39.35 162.02 35.92 165.38 29.27 165.38Z" fill="#FEEDE4"/>
<path d="M23.72 197.07H10.5C7.46997 197.07 4.57997 195.76 2.58997 193.47C0.59997 191.19 -0.31003 188.15 0.09997 185.15L6.66997 136.94C6.77997 136.12 6.97997 135.34 7.26997 134.6C6.18997 132.5 5.82997 130.06 6.30997 127.67L8.90997 115C9.85997 110.39 13.76 106.97 18.45 106.64L27.98 105.96L25.45 103.62C25.45 103.62 25.41 103.59 25.39 103.57L25 103.24C24.65 102.94 24.32 102.62 24.02 102.28L22.86 100.98C22.56 100.64 22.28 100.29 22.02 99.92L21.03 98.48C20.78 98.12 20.56 97.75 20.36 97.36L19.54 95.79C19.35 95.43 19.19 95.05 19.04 94.67L18.4 92.97C18.27 92.62 18.15 92.26 18.06 91.89L17.59 90.06C17.5 89.73 17.43 89.39 17.38 89.05L17.08 87.11C17.03 86.8 17 86.49 16.98 86.18L16.85 84.13C16.83 83.85 16.82 83.56 16.83 83.28L16.86 81.13C16.86 80.93 16.87 80.73 16.89 80.52L17 78.96C17.01 78.82 17.02 78.68 17.04 78.54L17.21 77.01C17.23 76.87 17.25 76.73 17.27 76.58L17.5 75.07C17.52 74.93 17.55 74.79 17.58 74.64L17.87 73.16C17.9 73.02 17.93 72.87 17.96 72.73L18.31 71.27C18.34 71.13 18.38 70.98 18.42 70.84L18.83 69.41C18.87 69.27 18.91 69.13 18.96 68.99L19.42 67.59C19.47 67.45 19.52 67.31 19.57 67.16L20.09 65.8C20.14 65.66 20.2 65.52 20.26 65.38L20.83 64.05C20.89 63.91 20.95 63.77 21.02 63.63L21.65 62.33C21.72 62.19 21.79 62.05 21.86 61.92L22.54 60.66C22.61 60.52 22.69 60.39 22.77 60.25L23.5 59.03C23.58 58.9 23.66 58.76 23.75 58.63L24.53 57.45C24.62 57.32 24.71 57.19 24.8 57.06L25.63 55.92C25.72 55.79 25.82 55.66 25.92 55.54L26.8 54.44C26.9 54.32 27 54.19 27.11 54.07L28.04 53.02C28.15 52.9 28.26 52.78 28.37 52.66L29.34 51.65C29.45 51.53 29.57 51.42 29.69 51.3L30.71 50.34C30.83 50.23 30.95 50.12 31.07 50.01L32.13 49.1C32.26 48.99 32.39 48.89 32.52 48.78L33.63 47.92C33.76 47.82 33.89 47.72 34.03 47.62L35.18 46.81C35.31 46.71 35.45 46.62 35.59 46.53L36.78 45.77C36.92 45.68 37.07 45.59 37.22 45.51L38.45 44.81C38.59 44.73 38.74 44.65 38.89 44.57L40.16 43.92C40.31 43.84 40.46 43.77 40.62 43.7L41.93 43.11C42.08 43.04 42.24 42.98 42.39 42.91L43.73 42.38C43.89 42.32 44.04 42.26 44.2 42.21L45.58 41.74C45.74 41.69 45.9 41.64 46.06 41.59L47.48 41.18C47.64 41.13 47.8 41.09 47.96 41.05L49.41 40.7C49.57 40.66 49.73 40.63 49.9 40.6L51.38 40.32C51.54 40.29 51.7 40.26 51.86 40.24L53.38 40.03C53.54 40.01 53.7 39.99 53.86 39.97L55.41 39.82C55.6 39.8 55.79 39.79 55.98 39.78L58.03 39.7C58.28 39.7 58.52 39.69 58.77 39.7L60.68 39.76C60.96 39.76 61.25 39.79 61.53 39.82L63.29 40.02C63.61 40.06 63.93 40.11 64.25 40.17L65.87 40.51C66.23 40.58 66.58 40.68 66.93 40.79L68.4 41.26C68.79 41.39 69.18 41.53 69.55 41.7L70.88 42.3C71.29 42.49 71.69 42.7 72.07 42.93L72.26 43.05C72.78 42.62 73.35 42.25 73.96 41.92L74.44 41.67C74.57 41.6 74.69 41.54 74.82 41.48L75.36 41.22C75.46 41.17 75.56 41.12 75.67 41.08L76.27 40.81C76.36 40.77 76.45 40.73 76.55 40.69L77.21 40.42C77.29 40.39 77.37 40.36 77.45 40.33L78.16 40.06C78.24 40.03 78.31 40 78.39 39.98L79.14 39.72C79.21 39.69 79.28 39.67 79.35 39.65L80.13 39.39C80.2 39.37 80.27 39.34 80.34 39.32L81.15 39.07C81.22 39.05 81.29 39.03 81.36 39.01L82.2 38.77C82.27 38.75 82.35 38.73 82.42 38.71L83.28 38.49C83.35 38.47 83.43 38.45 83.5 38.44L84.37 38.24C84.45 38.22 84.53 38.2 84.61 38.19L85.48 38.01C85.57 37.99 85.65 37.97 85.74 37.96L86.61 37.8C86.7 37.78 86.8 37.77 86.89 37.75L87.76 37.62C87.87 37.6 87.97 37.59 88.08 37.58L88.94 37.47C89.06 37.46 89.18 37.44 89.3 37.43L90.14 37.35C90.3 37.34 90.46 37.32 90.63 37.32L91.62 37.28C91.84 37.28 92.05 37.27 92.27 37.28L93.21 37.3C93.46 37.3 93.72 37.32 93.97 37.34L94.85 37.42C95.15 37.45 95.44 37.49 95.74 37.54L96.56 37.69C96.9 37.75 97.23 37.83 97.56 37.92L98.31 38.13C98.7 38.24 99.07 38.37 99.44 38.52L100.13 38.8C100.54 38.97 100.94 39.16 101.32 39.38L101.95 39.73C102.35 39.95 102.73 40.2 103.09 40.48C104.89 38.57 107.35 37.4 109.98 37.22L126.48 36.05C129.37 35.84 132.22 36.84 134.35 38.81L135.08 39.49L135.8 39.04C135.91 38.97 136.02 38.9 136.13 38.84C136.09 38.78 136.05 38.72 136.02 38.66L135.92 38.5C135.86 38.41 135.81 38.32 135.76 38.23L135.66 38.06C135.61 37.98 135.57 37.9 135.53 37.83L135.43 37.66C135.38 37.56 135.32 37.47 135.27 37.37L135.18 37.2C135.14 37.13 135.11 37.06 135.07 36.98L134.98 36.8C134.93 36.71 134.89 36.61 134.85 36.52L134.77 36.34C134.73 36.26 134.7 36.17 134.66 36.09L134.58 35.91C134.54 35.82 134.51 35.74 134.47 35.65L134.4 35.46C134.36 35.36 134.33 35.27 134.29 35.17L134.22 34.98C134.19 34.9 134.16 34.81 134.13 34.73L134.07 34.54C134.04 34.45 134.01 34.36 133.99 34.27L133.93 34.08C133.91 34 133.88 33.93 133.86 33.85C133.86 33.83 133.84 33.77 133.83 33.75L133.79 33.59C133.77 33.5 133.74 33.42 133.72 33.33L133.68 33.17C133.66 33.09 133.63 32.96 133.61 32.88L133.57 32.68C133.55 32.59 133.53 32.49 133.51 32.4L133.47 32.19C133.45 32.1 133.44 32.02 133.42 31.93L133.39 31.72C133.38 31.63 133.36 31.54 133.35 31.44L133.32 31.23C133.31 31.14 133.3 31.05 133.29 30.95L133.27 30.74C133.27 30.66 133.25 30.58 133.25 30.5L133.23 30.29C133.23 30.2 133.22 30.11 133.21 30.02V29.8C133.19 29.71 133.19 29.63 133.19 29.54V29.32C133.18 29.23 133.18 29.13 133.18 29.04V28.82C133.18 28.74 133.18 28.67 133.18 28.59V28.37C133.18 28.28 133.18 28.19 133.19 28.1V27.87C133.2 27.77 133.21 27.67 133.22 27.57L133.24 27.24C133.24 27.11 133.26 26.99 133.27 26.86L133.31 26.52C133.32 26.41 133.34 26.29 133.35 26.18L133.4 25.8C133.42 25.69 133.43 25.59 133.45 25.48L133.51 25.13C133.53 25.04 133.54 24.95 133.56 24.86L133.61 24.6C133.63 24.52 133.64 24.43 133.66 24.35L133.72 24.09C133.74 24.02 133.75 23.95 133.77 23.88L133.83 23.62C133.85 23.54 133.87 23.46 133.89 23.37L133.96 23.11C133.98 23.04 134 22.97 134.02 22.9L134.1 22.64C134.12 22.56 134.15 22.48 134.18 22.4L134.26 22.16C134.28 22.09 134.31 22.02 134.33 21.94L134.42 21.69C134.44 21.62 134.47 21.55 134.5 21.48L134.59 21.23C134.61 21.16 134.64 21.1 134.67 21.03L134.77 20.78C134.8 20.71 134.82 20.64 134.85 20.57L134.95 20.32C134.98 20.25 135.01 20.19 135.03 20.12L135.14 19.87C135.17 19.8 135.2 19.73 135.24 19.65L135.35 19.4C135.38 19.34 135.41 19.28 135.43 19.22L135.55 18.98C135.58 18.92 135.61 18.86 135.64 18.81L135.76 18.57C135.79 18.5 135.83 18.44 135.87 18.37L136 18.13C136.04 18.07 136.07 18 136.11 17.94L136.24 17.7C136.27 17.65 136.3 17.59 136.33 17.54L136.47 17.31C136.51 17.25 136.54 17.19 136.58 17.13L136.72 16.9C136.76 16.84 136.8 16.78 136.83 16.72L136.98 16.49C136.98 16.49 137.04 16.4 137.07 16.35L137.22 16.12C137.26 16.06 137.31 15.99 137.35 15.93L137.51 15.71C137.55 15.65 137.59 15.6 137.63 15.54L137.79 15.32C137.79 15.32 137.86 15.23 137.89 15.18L138.05 14.96C138.09 14.9 138.14 14.84 138.18 14.79L138.35 14.58C138.35 14.58 138.43 14.48 138.47 14.44L138.64 14.23C138.68 14.18 138.73 14.13 138.77 14.08L138.95 13.87C138.95 13.87 139.03 13.78 139.07 13.73L139.25 13.53C139.3 13.48 139.34 13.42 139.39 13.37L139.57 13.17C139.57 13.17 139.65 13.09 139.69 13.04L139.88 12.84C139.88 12.84 139.97 12.74 140.02 12.7L140.21 12.51C140.26 12.46 140.31 12.41 140.36 12.36L140.56 12.17C140.56 12.17 140.64 12.09 140.69 12.05L140.89 11.86C140.89 11.86 140.99 11.77 141.04 11.72L141.24 11.54C141.24 11.54 141.34 11.45 141.39 11.41L141.6 11.23C141.6 11.23 141.7 11.15 141.74 11.11L141.95 10.94C142 10.9 142.05 10.85 142.11 10.81L142.32 10.64C142.32 10.64 142.42 10.56 142.47 10.52L142.68 10.35C142.74 10.31 142.8 10.26 142.86 10.22L143.08 10.06C143.13 10.02 143.18 9.98 143.23 9.95L143.45 9.79C143.5 9.75 143.56 9.72 143.61 9.68L143.83 9.53C143.88 9.49 143.94 9.46 143.99 9.42L144.21 9.27C144.26 9.23 144.32 9.2 144.37 9.16L144.6 9.02C144.67 8.98 144.73 8.94 144.8 8.89L145.03 8.75C145.08 8.72 145.14 8.69 145.19 8.65L145.42 8.52C145.48 8.49 145.54 8.45 145.6 8.42L145.83 8.29C145.89 8.26 145.96 8.22 146.02 8.19L146.26 8.07C146.32 8.04 146.39 8 146.45 7.97L146.69 7.85C146.75 7.82 146.82 7.79 146.88 7.76L147.12 7.65C147.18 7.62 147.24 7.59 147.31 7.56L147.55 7.45C147.62 7.42 147.68 7.39 147.75 7.36L147.99 7.26C148.06 7.23 148.13 7.2 148.2 7.17L148.45 7.07C148.52 7.04 148.59 7.01 148.66 6.99L148.91 6.9C148.98 6.87 149.04 6.85 149.11 6.83L149.36 6.74C149.44 6.71 149.52 6.69 149.59 6.66L149.84 6.58C149.91 6.56 149.99 6.53 150.06 6.51L150.31 6.43C150.37 6.41 150.43 6.39 150.49 6.38L150.78 6.3C150.85 6.28 150.91 6.26 150.98 6.25L151.27 6.18C151.34 6.16 151.41 6.14 151.48 6.13L151.73 6.07C151.81 6.05 151.9 6.03 151.99 6.01L152.25 5.96C152.33 5.94 152.4 5.93 152.48 5.92L152.74 5.87C152.82 5.85 152.91 5.84 152.99 5.83L153.25 5.79C153.33 5.78 153.41 5.77 153.48 5.76L153.74 5.73C153.83 5.72 153.91 5.71 154 5.7L154.26 5.67C154.35 5.66 154.44 5.65 154.53 5.64L154.79 5.62C154.87 5.62 154.95 5.61 155.03 5.6H155.27C155.36 5.58 155.44 5.58 155.53 5.57H155.76C155.84 5.56 155.92 5.56 156 5.56H156.23C156.31 5.56 156.39 5.56 156.47 5.56H156.7C156.78 5.56 156.87 5.56 156.95 5.56H157.18C157.26 5.57 157.35 5.57 157.43 5.58H157.65C157.74 5.6 157.82 5.6 157.91 5.61L158.13 5.63C158.22 5.63 158.31 5.65 158.4 5.66L158.62 5.68C158.7 5.68 158.79 5.7 158.87 5.71L159.09 5.74C159.17 5.75 159.26 5.76 159.34 5.78L159.55 5.81C159.65 5.83 159.75 5.84 159.85 5.86L160.06 5.9C160.14 5.91 160.21 5.93 160.29 5.95L160.5 5.99C160.6 6.01 160.69 6.03 160.79 6.06L160.99 6.11C161.07 6.13 161.15 6.15 161.23 6.17L161.43 6.22C161.53 6.25 161.62 6.27 161.72 6.3L161.92 6.36C162.01 6.39 162.1 6.41 162.19 6.44L162.39 6.5C162.48 6.53 162.56 6.56 162.65 6.59L162.84 6.66C162.93 6.69 163.02 6.73 163.11 6.76L163.3 6.83C163.39 6.86 163.47 6.9 163.56 6.93L163.75 7.01C163.84 7.05 163.93 7.09 164.02 7.13L164.2 7.21C164.29 7.25 164.37 7.29 164.46 7.33L164.64 7.42C164.73 7.46 164.81 7.5 164.9 7.55L165.08 7.64C165.17 7.68 165.25 7.73 165.34 7.78L165.51 7.88C165.6 7.93 165.68 7.98 165.76 8.03L165.93 8.13C166.02 8.18 166.11 8.24 166.19 8.29L166.36 8.39C166.43 8.44 166.51 8.48 166.58 8.53L166.74 8.64C166.83 8.7 166.92 8.76 167.01 8.83L167.17 8.94C167.25 9 167.32 9.05 167.4 9.11L167.56 9.23C167.64 9.29 167.72 9.35 167.79 9.41L167.94 9.53C168.02 9.6 168.1 9.66 168.18 9.73L168.32 9.84C168.39 9.9 168.46 9.96 168.53 10.03C168.8 10.23 169.05 10.44 169.3 10.67C169.92 9.36 170.81 8.18 171.91 7.23C173.62 5.75 175.79 4.84 178.04 4.68C178.06 4.68 178.15 4.68 178.18 4.68C178.18 4.68 178.29 4.68 178.3 4.68C178.33 4.68 178.47 4.67 178.49 4.67L179.11 4.63C179.11 4.63 179.16 4.63 179.18 4.63L179.59 4.6C179.59 4.6 179.71 4.6 179.73 4.6L187.99 4.01C187.99 4.01 188.03 4.01 188.05 4.01L190.41 3.84C192.99 3.65 195.53 4.43 197.57 5.99C199.34 4.18 201.73 3.04 204.35 2.85L216.63 1.98C216.63 1.98 216.76 1.98 216.78 1.97L218.16 1.87C218.16 1.87 218.29 1.87 218.33 1.86C218.34 1.86 218.44 1.86 218.45 1.86C218.47 1.86 218.68 1.84 218.7 1.84C220.19 1.74 221.68 1.96 223.06 2.47C224.34 1.77 225.79 1.34 227.32 1.23L243.62 0.029996C246.51 -0.180004 249.36 0.819996 251.49 2.79L269.71 19.62C272.37 22.07 273.57 25.72 272.91 29.27L272.2 33.06L272.37 32.91C272.49 32.8 272.62 32.69 272.75 32.59L273.85 31.69C273.98 31.59 274.11 31.48 274.24 31.39L275.38 30.54C275.51 30.44 275.65 30.35 275.78 30.25L276.97 29.45C277.11 29.36 277.24 29.27 277.38 29.19L278.61 28.44C278.75 28.36 278.89 28.27 279.04 28.2L280.31 27.51C280.45 27.43 280.6 27.36 280.75 27.28L282.07 26.64C282.21 26.57 282.36 26.5 282.51 26.44L283.86 25.86C284.01 25.8 284.16 25.73 284.31 25.68L285.7 25.16C285.85 25.1 286 25.05 286.15 25L287.58 24.54C287.73 24.49 287.88 24.45 288.04 24.4L289.51 24C289.66 23.96 289.81 23.92 289.97 23.89L291.48 23.55C291.63 23.52 291.78 23.49 291.93 23.46L293.47 23.18C293.62 23.15 293.77 23.13 293.93 23.11L295.5 22.9C295.65 22.88 295.8 22.86 295.95 22.85L297.56 22.7C297.76 22.68 297.96 22.67 298.16 22.66L300.81 22.57C301.09 22.57 301.37 22.57 301.65 22.57L304.14 22.68C304.45 22.69 304.77 22.72 305.08 22.77L307.39 23.08C307.74 23.13 308.08 23.19 308.43 23.27L310.57 23.78C310.95 23.87 311.33 23.98 311.69 24.12L313.64 24.83C313.64 24.83 313.69 24.85 313.71 24.86L314.55 23.31L315.07 22.21C316.69 18.79 320.03 16.51 323.81 16.24L338.18 15.22C341.07 15.02 343.91 16.02 346.04 17.98L364.26 34.81C367.38 37.69 368.46 42.17 366.99 46.15L366.94 46.29C366.91 46.37 366.88 46.44 366.85 46.51L366.78 46.68C366.76 46.74 366.73 46.8 366.71 46.86L366.61 47.09C366.59 47.15 366.56 47.21 366.54 47.26L366.41 47.55C366.38 47.61 366.35 47.68 366.32 47.74L366.16 48.09C366.13 48.16 366.1 48.22 366.07 48.29L365.88 48.69C365.85 48.76 365.81 48.83 365.78 48.9L365.55 49.35C365.52 49.42 365.48 49.48 365.45 49.55L365.18 50.04C365.14 50.11 365.1 50.19 365.06 50.26L364.76 50.79C364.72 50.86 364.68 50.93 364.63 51L364.29 51.57C364.24 51.65 364.2 51.72 364.15 51.8L363.76 52.4C363.71 52.48 363.66 52.55 363.61 52.62L363.18 53.25C363.13 53.33 363.07 53.4 363.02 53.48L362.55 54.14C362.49 54.22 362.44 54.3 362.38 54.37L361.86 55.05C361.8 55.13 361.74 55.21 361.67 55.29L361.1 55.99C361.04 56.07 360.97 56.15 360.9 56.23L360.29 56.95C360.22 57.03 360.15 57.11 360.08 57.19L359.42 57.92C359.35 58 359.27 58.08 359.19 58.16L358.47 58.9C358.39 58.98 358.31 59.06 358.23 59.14L357.46 59.89C357.38 59.97 357.3 60.05 357.21 60.12L356.39 60.87C356.3 60.95 356.21 61.03 356.12 61.11L355.24 61.86C355.15 61.94 355.06 62.01 354.96 62.09L354.02 62.83C353.92 62.91 353.83 62.98 353.73 63.05L352.73 63.78C352.63 63.85 352.53 63.93 352.43 64L351.37 64.72C351.27 64.79 351.16 64.86 351.05 64.93L349.93 65.64C349.82 65.71 349.71 65.78 349.6 65.84L348.42 66.53C348.31 66.59 348.2 66.66 348.08 66.72L347.52 67.02L347.5 68.13C347.5 68.33 347.49 68.53 347.47 68.73L347.35 70.3C347.34 70.45 347.32 70.61 347.31 70.76L347.13 72.29C347.11 72.44 347.09 72.59 347.07 72.73L346.83 74.25C346.81 74.4 346.78 74.54 346.75 74.69L346.45 76.19C346.42 76.33 346.39 76.48 346.35 76.62L345.98 78.1C345.94 78.25 345.9 78.39 345.86 78.54L345.43 79.98C345.39 80.12 345.34 80.27 345.29 80.41L344.81 81.82C344.76 81.96 344.71 82.11 344.65 82.25L344.11 83.63C344.05 83.77 344 83.91 343.94 84.05L343.34 85.41C343.28 85.55 343.21 85.69 343.15 85.82L342.5 87.13C342.43 87.27 342.36 87.41 342.28 87.55L341.58 88.82C341.5 88.96 341.42 89.09 341.34 89.23L340.58 90.47C340.5 90.6 340.42 90.73 340.33 90.86L340.12 91.17L354.31 104.27C357.01 106.77 358.21 110.49 357.47 114.09L354.87 126.76C353.92 131.37 350.02 134.79 345.33 135.12L63.56 155.1C62.92 172.25 51.55 184.21 34.35 186.3L34.13 187.96C33.44 193.18 28.99 197.08 23.72 197.08V197.07ZM36.37 139.04C38.28 139.4 40.03 140 41.59 140.83C41.62 140.78 41.64 140.73 41.67 140.68C43.34 137.4 46.61 135.24 50.28 134.98L334.8 114.78L325.2 105.91L320.64 106.23C315.65 106.58 311.11 103.38 309.78 98.56C308.45 93.75 310.69 88.66 315.14 86.39L316.92 85.32L318.34 84.27L319.94 82.83L321.08 81.6L322.27 80.07L323.33 78.42L324.37 76.41L325.05 74.77L325.68 72.78L326.15 70.69L326.45 68.49L326.53 67.08L326.55 66.13L326.48 65.07L326.35 64.19L326.05 62.97C324.75 57.72 327.65 52.35 332.74 50.55L335.17 49.64L337.16 48.72L338.92 47.74L340.46 46.73L341.81 45.7L343.49 44.18L335.14 36.47L331.03 36.76L330.99 36.83C330.91 36.95 330.83 37.08 330.75 37.2L330.11 38.13C330.02 38.26 329.93 38.38 329.84 38.51L329.2 39.36C329.11 39.48 329.01 39.6 328.91 39.72L328.27 40.49C328.17 40.62 328.06 40.74 327.95 40.86L327.31 41.56C327.2 41.68 327.08 41.8 326.97 41.92L326.34 42.55C326.22 42.67 326.1 42.79 325.97 42.9L325.35 43.47C325.22 43.58 325.09 43.7 324.96 43.81L324.34 44.32C324.2 44.43 324.06 44.54 323.92 44.65L323.32 45.1C323.18 45.21 323.03 45.31 322.88 45.41L322.29 45.8C322.15 45.9 322 45.99 321.85 46.08L321.27 46.42C321.12 46.51 320.96 46.6 320.81 46.68L320.25 46.98C320.09 47.06 319.94 47.14 319.78 47.22L319.24 47.47C315.38 49.28 310.82 48.57 307.68 45.69L306.83 44.91L306.43 44.63L305.86 44.34L305.07 44.05L304.02 43.8L302.7 43.62L301.11 43.55L299.18 43.62L296.98 43.87L294.84 44.3L292.85 44.9L291 45.64L289.28 46.52L287.69 47.54L286.23 48.68L284.89 49.95L283.67 51.34L282.57 52.85L282.06 53.67C280.48 56.4 277.75 58.28 274.62 58.77C271.44 59.27 268.21 58.3 265.85 56.11L255.16 46.28C251.48 44 249.58 39.68 250.38 35.42L251.19 31.09L240.57 21.29L236.89 21.55C236.01 25 233.43 27.79 230.01 28.92C226.38 30.12 222.39 29.26 219.59 26.67L215.68 23.06L212.06 23.32C212.06 23.32 212.05 23.34 212.04 23.35L211.7 23.97C211.7 23.97 211.66 24.03 211.65 24.06L211.5 24.32C211.5 24.32 211.47 24.38 211.45 24.41L210.89 25.34C210.89 25.34 210.85 25.41 210.83 25.44L210.68 25.68C210.68 25.68 210.64 25.74 210.63 25.77L210.48 26C210.48 26 210.44 26.07 210.41 26.1L210.07 26.62C210.07 26.62 210.02 26.69 210 26.73L209.85 26.95C209.85 26.95 209.8 27.02 209.78 27.05L209.63 27.26C209.63 27.26 209.59 27.32 209.57 27.35L209.42 27.55C209.42 27.55 209.37 27.61 209.35 27.64L209.2 27.84C209.2 27.84 209.16 27.9 209.14 27.93L208.99 28.12C208.99 28.12 208.94 28.19 208.91 28.22L208.76 28.41C208.76 28.41 208.71 28.47 208.69 28.5L208.54 28.68C208.54 28.68 208.5 28.73 208.48 28.76L208.34 28.94C208.34 28.94 208.28 29.01 208.25 29.05L208.17 29.14C206.65 30.98 204.55 32.24 202.23 32.73L202.25 32.75C205.37 35.63 206.45 40.11 204.98 44.1C203.51 48.09 199.79 50.79 195.54 50.96H195.21L193.15 51.22L191.18 51.64L189.34 52.22L187.62 52.95L186.67 53.44C182.83 55.64 178.01 55.19 174.64 52.31C171.43 49.57 170.18 45.18 171.43 41.19L155.96 26.9C155.91 26.86 155.86 26.83 155.81 26.79L154.51 28.07L163.88 36.73C166.96 39.57 168.05 43.97 166.67 47.92C165.29 51.87 161.68 54.62 157.51 54.92L152.53 55.27L151.07 55.43L150.02 55.63L149.12 55.88L148.31 56.18L147.53 56.54L146.72 56.99L145.85 57.54L143.81 59L141.33 60.86C141.28 60.9 141.22 60.94 141.17 60.98L140.37 61.55C136.32 64.46 130.78 64.12 127.12 60.74L123.44 57.34L121.92 57.45V57.93C121.92 58.04 121.92 58.15 121.92 58.26L121.86 59.98C121.86 60.07 121.86 60.15 121.85 60.24L121.8 61.13C121.8 61.18 121.8 61.24 121.79 61.29L121.72 62.2C121.72 62.25 121.72 62.31 121.71 62.36L121.65 63.05C121.28 67.03 118.69 70.46 114.96 71.89C112.5 72.83 109.84 72.81 107.46 71.9C106.46 74.19 104.67 76.08 102.36 77.18L102.14 77.29C98.59 79.17 94.28 78.86 91.04 76.49C87.86 74.17 86.25 70.28 86.85 66.41C85.66 68.77 83.6 70.63 81.03 71.56C77.35 72.88 73.23 72.05 70.36 69.39L62.6 62.22C62.35 61.99 62.12 61.75 61.89 61.5L61.58 61.16L61.09 60.99L60.49 60.87L59.63 60.77L58.52 60.74L57.12 60.79L55.06 61.03L53.09 61.45L51.24 62.03L49.51 62.76L47.9 63.63L46.39 64.64L44.99 65.79L43.7 67.07L42.52 68.48L41.45 70.02L40.5 71.69L39.68 73.49L39 75.4L38.46 77.43L38.08 79.57L37.88 81.72L37.86 83.15L37.96 84.49C38.67 79.38 43.05 75.46 48.35 75.46H48.36C54.01 75.46 58.61 79.92 58.85 85.5C60.01 85.06 61.27 84.82 62.58 84.82H62.59C68.39 84.82 73.09 89.52 73.09 95.32C73.09 101.12 68.39 105.82 62.59 105.82C60.63 105.82 58.8 105.28 57.22 104.35C57.27 104.4 57.32 104.44 57.36 104.49L57.44 104.56C57.44 104.56 57.51 104.62 57.55 104.66C57.58 104.69 57.62 104.72 57.65 104.75L57.73 104.82L58.41 105.22C62.67 107.31 65 112 64.09 116.66C63.18 121.32 59.26 124.79 54.53 125.13L29 126.94L33.01 130.64C35.38 132.83 36.57 135.93 36.36 139.03L36.37 139.04ZM48.67 96.47L53.99 101.38C52.86 99.79 52.17 97.86 52.08 95.79C51.01 96.2 49.87 96.43 48.67 96.47ZM88.43 58.91L87.92 62.64C88.77 60.92 90.08 59.46 91.71 58.43L91.63 58.36L90.28 58.54L88.43 58.93V58.91ZM79.39 123.34C74.65 123.34 70.45 120.14 69.24 115.5C67.96 110.61 70.35 105.5 74.92 103.35C74.93 103.35 75.02 103.3 75.03 103.3L76.44 102.6L80.09 100.43L82.54 98.67L85.34 96.35L87.9 93.88L87.91 93.87L89.23 92.4C89.23 92.4 89.31 92.31 89.32 92.29C92.15 88.94 96.77 87.7 100.9 89.18C105.03 90.67 107.8 94.56 107.84 98.95V100.13L108 101.21L108.34 101.91L108.72 102.14C112.64 104.5 114.58 109.13 113.51 113.59C112.44 118.04 108.61 121.29 104.04 121.61L80.13 123.31C79.88 123.33 79.63 123.34 79.38 123.34H79.39ZM127.37 119.93C122.7 119.93 118.55 116.83 117.27 112.28C115.92 107.49 118.12 102.4 122.54 100.11L123.47 99.57L125 98.51L126.43 97.3L127.77 95.92L129.02 94.38L130.33 92.41L131.4 90.47L131.76 89.73C133.15 86.68 135.9 84.48 139.18 83.8C142.5 83.11 145.95 84.07 148.44 86.37L162.87 99.69C164.08 100.81 164.98 102.16 165.55 103.64C166.21 100.78 168.05 98.24 170.77 96.76L171.9 96.08L174.52 94.16L177.55 91.45L178.2 90.83C180.57 88.56 183.87 87.53 187.11 88.04C190.35 88.56 193.17 90.56 194.72 93.46L195.39 94.57L195.97 95.1L196.74 95.53C200.91 97.7 203.13 102.37 202.18 106.98C201.23 111.58 197.33 114.99 192.64 115.32L176.53 116.46C171.89 116.79 167.62 114.03 165.98 109.75C165.89 110.13 165.78 110.51 165.65 110.89C164.26 114.84 160.66 117.59 156.49 117.89L128.13 119.9C127.88 119.92 127.63 119.93 127.38 119.93H127.37ZM217.52 113.53C212.78 113.53 208.59 110.34 207.37 105.69C206.09 100.8 208.47 95.7 213.04 93.54L214.59 92.78L217.15 91.31L220.03 89.35C224.08 86.38 229.67 86.7 233.36 90.1L237.99 94.37C238.37 94.72 238.72 95.1 239.04 95.49L240.41 88.16C241.11 84.41 243.8 81.33 247.43 80.13C251.06 78.93 255.05 79.79 257.86 82.38L266.56 90.41C266.7 90.52 266.85 90.64 266.99 90.76L267.67 91.25C269.34 92.41 270.6 94.02 271.37 95.84C272.07 93.18 273.79 90.82 276.31 89.38L277.93 88.34L279.51 87.19L281.67 85.41L282.37 84.78C284.59 82.79 287.55 81.83 290.51 82.14C293.47 82.46 296.16 84.02 297.91 86.44L298.67 87.38L299.41 87.91L299.98 88.21C304.15 90.38 306.37 95.05 305.42 99.66C304.47 104.26 300.57 107.67 295.88 108L282.27 108.97C277.74 109.29 273.56 106.67 271.84 102.56C270.7 106.89 266.97 110.06 262.47 110.38L252.93 111.06L249.47 111.31C246.23 111.54 243.06 110.25 240.89 107.82C240.64 107.54 240.4 107.25 240.19 106.94C238.52 110.15 235.29 112.31 231.62 112.57L218.28 113.52C218.03 113.54 217.78 113.55 217.53 113.55L217.52 113.53Z" fill="#FDECE3"/>
<path d="M82.2999 153.99C81.4999 153.7 80.6899 153.55 79.5199 153.55C75.4999 153.55 71.9999 155.74 69.2199 158.74L69.0699 154.5H57.2399L52.7799 186.57H65.3399L68.1199 166.7C70.0899 165.53 72.2099 165.24 73.9599 165.24C76.7399 165.24 78.7799 165.68 79.8799 166.34L80.5399 166.12L82.2899 153.99H82.2999Z" fill="#FEEDE4"/>
<path d="M65.3599 197.07H52.7999C49.7599 197.07 46.8799 195.76 44.8799 193.46C42.8899 191.17 41.9799 188.13 42.3999 185.12L46.8599 153.05C47.5799 147.86 52.0199 143.99 57.2599 143.99H69.0899C70.0899 143.99 71.0599 144.13 71.9699 144.39C74.4099 143.5 76.9399 143.04 79.5299 143.04C81.8599 143.04 83.8799 143.38 85.8899 144.11C90.5699 145.81 93.4099 150.56 92.6899 155.48L90.9399 167.61C90.3699 171.54 87.6299 174.82 83.8599 176.07L83.1999 176.29C81.2899 176.93 79.2599 176.99 77.3499 176.52L75.7399 188.02C75.0199 193.21 70.5799 197.07 65.3399 197.07H65.3599Z" fill="#FDECE3"/>
<path d="M100.49 153.55C88.2199 153.55 80.1799 161.66 80.1799 173.56C80.1799 182.18 85.8799 187.51 95.5199 187.51C107.64 187.51 115.75 178.89 115.75 167.06C115.75 158.51 110.05 153.55 100.48 153.55H100.49ZM97.5699 178.02C94.2799 178.02 93.2599 175.9 93.2599 172.1C93.2599 167.72 94.9399 163.04 98.9599 163.04C101.22 163.04 102.61 164.87 102.61 168.59C102.61 173.05 100.86 178.01 97.5699 178.01V178.02Z" fill="#FEEDE4"/>
<path d="M95.5299 198.02C80.0699 198.02 69.6899 188.19 69.6899 173.57C69.6899 155.89 82.6499 143.06 100.5 143.06C115.91 143.06 126.27 152.71 126.27 167.07C126.27 185.01 113.34 198.02 95.5399 198.02H95.5299ZM92.4999 169.58C93.3899 171.35 95.6999 173.55 98.9699 173.55C100.99 173.55 102.64 172.47 103.45 171.52C102.53 169.54 100.04 167.52 97.5799 167.52C95.1199 167.52 93.4499 168.6 92.4999 169.58Z" fill="#FDECE3"/>
<path d="M171.2 175.69L172.44 166.56C173.46 158.82 170.1 153.56 163.31 153.56C158.42 153.56 154.76 155.9 151.99 160.64C151.11 156.26 148.12 153.56 143.15 153.56C138.55 153.56 135.04 155.6 132.41 159.77L132.85 154.51H121.31L116.71 186.58H129.27L131.02 173.72C132.04 168.39 134.16 163.93 137.3 163.93C139.27 163.93 139.78 165.46 139.13 170.21L136.94 186.57H149.5L151.18 173.57C152.13 168.68 154.17 163.93 157.53 163.93C159.28 163.93 159.87 165.46 159.28 170.21L158.26 178.61C157.46 184.75 160.74 187.52 167.03 187.52C170.61 187.52 172.65 186.79 174.11 186.06L174.91 179.34C174.47 179.41 173.74 179.49 173.23 179.49C171.92 179.49 170.75 178.98 171.18 175.69H171.2Z" fill="#FEEDE4"/>
<path d="M167.04 198.02C161.95 198.02 158.25 196.75 155.59 195.13C153.87 196.35 151.77 197.07 149.51 197.07H136.95C135.62 197.07 134.33 196.82 133.12 196.35C131.93 196.82 130.63 197.07 129.28 197.07H116.72C113.68 197.07 110.78 195.75 108.79 193.45C106.8 191.15 105.9 188.1 106.33 185.08L110.93 153.01C111.67 147.84 116.1 144 121.32 144H132.86C133.73 144 134.59 144.11 135.42 144.32C137.82 143.48 140.41 143.05 143.16 143.05C146.8 143.05 150.12 143.9 152.96 145.45C156.61 143.59 160.27 143.05 163.32 143.05C169.24 143.05 174.49 145.32 178.11 149.45C182.14 154.05 183.83 160.61 182.86 167.93L182.33 171.84C184.65 174.12 185.75 177.35 185.36 180.58L184.56 187.3C184.14 190.81 181.99 193.87 178.83 195.44C175.32 197.19 171.58 198.01 167.05 198.01L167.04 198.02Z" fill="#FDECE3"/>
<path d="M209.4 163.2C209.4 157.5 204.87 153.56 196.76 153.56C184.71 153.56 176.53 162.11 176.53 173.21C176.53 181.25 180.84 187.53 192.53 187.53C199.61 187.53 203.78 185.19 206.7 183.22L205.09 175.62C202.17 177.37 198.88 178.54 195.23 178.54C191.58 178.54 189.9 177.3 189.39 174.81C199.32 175.83 209.4 171.81 209.4 163.2ZM189.9 167.95C190.78 164.81 192.53 161.96 195.38 161.96C197.21 161.96 197.5 163.13 197.5 164.15C197.5 167.14 194.14 168.02 189.9 167.95Z" fill="#FEEDE4"/>
<path d="M192.53 198.02C176.43 198.02 166.03 188.28 166.03 173.2C166.03 156.01 179.24 143.05 196.76 143.05C212.66 143.05 219.9 153.49 219.9 163.19C219.9 167.69 218.46 171.93 215.79 175.46L216.97 181.03C217.85 185.21 216.12 189.51 212.57 191.91C208.36 194.75 202.27 198.02 192.53 198.02Z" fill="#FDECE3"/>
<path d="M244.83 175.69L246.07 166.56C247.17 158.82 243.88 153.56 236.57 153.56C232.04 153.56 228.53 155.53 225.91 159.48L226.28 154.51H214.74L210.21 186.58H222.77L224.67 172.85C225.62 168.18 227.59 163.94 230.81 163.94C232.93 163.94 233.66 165.47 233 170.22L231.9 178.11C230.95 185.05 234.24 187.53 240.74 187.53C244.03 187.53 246.51 186.8 247.97 186.07L248.7 179.35C248.33 179.42 247.6 179.5 246.95 179.5C245.64 179.5 244.39 178.99 244.83 175.7V175.69Z" fill="#FEEDE4"/>
<path d="M240.74 198.02C236.02 198.02 232.07 197.03 228.93 195.08C227.19 196.34 225.06 197.07 222.77 197.07H210.21C207.17 197.07 204.28 195.75 202.28 193.46C200.29 191.16 199.38 188.12 199.81 185.11L204.34 153.04C205.07 147.86 209.51 144.01 214.74 144.01H226.28C227.15 144.01 228 144.12 228.82 144.32C231.23 143.48 233.82 143.06 236.57 143.06C242.77 143.06 248.21 145.39 251.88 149.61C254.7 152.86 257.79 158.69 256.46 168.03L255.95 171.76C258.3 174.01 259.48 177.23 259.13 180.48L258.4 187.2C258.01 190.75 255.85 193.86 252.66 195.46C249.47 197.06 245.11 198.03 240.73 198.03L240.74 198.02ZM246.95 168.99C246.87 169 246.74 169.03 246.64 169.05C246.75 169.03 246.85 169.01 246.96 168.99H246.95Z" fill="#FDECE3"/>
<path d="M265.43 150.56H274.71L288.37 137.56H276.17L265.43 150.56Z" fill="#FEEDE4"/>
<path d="M274.71 161.06H265.43C261.36 161.06 257.66 158.71 255.93 155.03C254.2 151.35 254.74 147 257.33 143.87L268.07 130.87C270.06 128.45 273.03 127.06 276.17 127.06H288.37C292.66 127.06 296.53 129.67 298.12 133.66C299.71 137.65 298.72 142.2 295.61 145.16L281.95 158.16C280 160.02 277.41 161.05 274.71 161.05V161.06Z" fill="#FDECE3"/>
<path d="M284.13 175.69L287.12 154.51H276.89L276.16 155.68C274.12 154.37 271.7 153.56 268.64 153.56C257.03 153.56 250.16 162.98 250.16 175.11C250.16 182.19 253.67 187.53 260.75 187.53C264.91 187.53 268.78 185.7 271.93 182.34C272.73 185.55 275 187.53 279.09 187.53C282.52 187.53 285.37 186.8 286.83 186.07L287.71 179.35C284.28 180.01 283.69 178.91 284.13 175.7V175.69ZM271.71 174.52C270.47 176.35 268.79 177.51 266.52 177.51C264.25 177.51 263.16 175.68 263.16 172.25C263.16 166.99 265.28 162.83 269.73 162.83C271.04 162.83 272.21 163.12 273.24 163.63L271.71 174.51V174.52Z" fill="#FEEDE4"/>
<path d="M279.09 198.02C275.87 198.02 272.93 197.33 270.4 196.04C267.35 197.34 264.09 198.02 260.76 198.02C248.34 198.02 239.67 188.6 239.67 175.1C239.67 156.53 251.86 143.05 268.65 143.05C271.15 143.05 273.54 143.39 275.8 144.06C276.16 144.02 276.53 144 276.9 144H287.13C290.17 144 293.06 145.32 295.06 147.61C297.06 149.9 297.96 152.95 297.53 155.97L295.26 172.03C297.48 174.32 298.55 177.51 298.13 180.69L297.25 187.41C296.8 190.87 294.66 193.88 291.54 195.44C288.27 197.07 283.74 198.01 279.1 198.01L279.09 198.02ZM270.85 168.41L268.92 172.27C270.26 171.87 271.67 171.74 273.08 171.89C273.21 171.77 273.32 171.65 273.42 171.53C273.01 170.52 272.13 169.32 270.85 168.41Z" fill="#FDECE3"/>
<path d="M323.21 175.69L328.83 135.44H316.27L313.57 154.87C311.89 153.99 309.92 153.56 307.51 153.56C295.9 153.56 289.03 162.98 289.03 175.11C289.03 182.19 292.54 187.53 299.62 187.53C303.86 187.53 307.8 185.63 311.02 182.05C311.75 185.56 313.94 187.53 318.32 187.53C321.75 187.53 324.6 186.8 326.06 186.07L326.94 179.35C323.73 179.72 322.7 179.35 323.21 175.7V175.69ZM310.87 174.01C309.63 176.13 307.87 177.52 305.39 177.52C303.2 177.52 302.03 175.69 302.03 172.26C302.03 167 304.15 162.84 308.6 162.84C309.99 162.84 311.3 163.21 312.33 163.72L310.87 174.02V174.01Z" fill="#FEEDE4"/>
<path d="M318.32 198.02C314.98 198.02 311.96 197.3 309.39 195.97C306.3 197.32 303 198.02 299.62 198.02C287.2 198.02 278.53 188.6 278.53 175.1C278.53 157.62 289.33 144.66 304.6 143.19L305.88 133.99C306.6 128.8 311.04 124.94 316.28 124.94H328.84C331.88 124.94 334.77 126.26 336.76 128.55C338.75 130.84 339.66 133.89 339.24 136.89L334.35 171.89C334.35 171.89 334.4 171.94 334.43 171.97C336.69 174.27 337.77 177.49 337.36 180.69L336.48 187.41C336.03 190.87 333.89 193.88 330.76 195.44C327.63 197 322.96 198.01 318.32 198.01V198.02ZM309.9 168.56L308.22 171.92C309.51 171.57 310.86 171.46 312.22 171.61C312.24 171.58 312.26 171.56 312.29 171.53C311.9 170.57 311.08 169.44 309.91 168.55L309.9 168.56Z" fill="#FDECE3"/>
<path d="M362.22 175.69L365.21 154.51H354.98L354.25 155.68C352.21 154.37 349.79 153.56 346.73 153.56C335.12 153.56 328.25 162.98 328.25 175.11C328.25 182.19 331.76 187.53 338.84 187.53C343 187.53 346.87 185.7 350.02 182.34C350.82 185.55 353.09 187.53 357.18 187.53C360.61 187.53 363.46 186.8 364.92 186.07L365.8 179.35C362.37 180.01 361.78 178.91 362.22 175.7V175.69ZM349.8 174.52C348.56 176.35 346.88 177.51 344.61 177.51C342.34 177.51 341.25 175.68 341.25 172.25C341.25 166.99 343.37 162.83 347.82 162.83C349.13 162.83 350.3 163.12 351.33 163.63L349.8 174.51V174.52Z" fill="#FEEDE4"/>
<path d="M357.18 198.02C353.96 198.02 351.02 197.33 348.49 196.04C345.44 197.34 342.18 198.02 338.85 198.02C326.43 198.02 317.76 188.6 317.76 175.1C317.76 156.53 329.95 143.05 346.74 143.05C349.24 143.05 351.63 143.39 353.89 144.06C354.25 144.02 354.62 144 354.99 144H365.22C368.26 144 371.15 145.32 373.15 147.61C375.15 149.9 376.05 152.95 375.62 155.97L373.35 172.03C375.57 174.32 376.64 177.51 376.22 180.69L375.34 187.41C374.89 190.87 372.75 193.88 369.63 195.44C366.36 197.07 361.83 198.01 357.19 198.01L357.18 198.02ZM348.94 168.41L347.01 172.27C348.35 171.87 349.76 171.74 351.17 171.89C351.3 171.77 351.41 171.65 351.51 171.53C351.1 170.52 350.22 169.32 348.94 168.41Z" fill="#FDECE3"/>
<path d="M313.76 109.07H152.76V155.07H313.76V109.07Z" fill="#FEEDE4"/>
<path d="M313.76 165.57H152.76C146.96 165.57 142.26 160.87 142.26 155.07V109.07C142.26 103.27 146.96 98.57 152.76 98.57H313.76C319.56 98.57 324.26 103.27 324.26 109.07V155.07C324.26 160.87 319.56 165.57 313.76 165.57ZM163.26 144.57H303.26V119.57H163.26V144.57Z" fill="#FDECE3"/>
<path d="M338.92 25.68L338.56 25.71L338.14 25.74L337.57 25.78L336.87 25.83L336.05 25.89L335.13 25.96L334.12 26.03L333.04 26.11L331.9 26.19L330.71 26.27L329.49 26.36L328.25 26.45L327 26.54L325.76 26.63L324.55 26.72L323.94 28L323.32 29.18L322.69 30.27L322.06 31.28L321.42 32.21L320.78 33.06L320.14 33.83L319.5 34.53L318.87 35.16L318.25 35.73L317.63 36.24L317.03 36.69L316.44 37.08L315.86 37.42L315.3 37.72L314.76 37.97L313.37 36.7L311.79 35.61L310.02 34.71L308.07 34L305.93 33.49L303.62 33.18L301.13 33.07L298.48 33.16L296.87 33.31L295.3 33.52L293.76 33.8L292.25 34.14L290.78 34.54L289.35 35L287.96 35.52L286.6 36.1L285.28 36.74L284.01 37.43L282.78 38.18L281.59 38.98L280.45 39.83L279.35 40.73L278.3 41.68L277.29 42.68L276.33 43.72L275.42 44.81L274.56 45.94L273.75 47.11L272.99 48.32L272.93 48.42L262.25 38.56L262.15 38.45L261.44 37.87L260.66 37.38L262.54 27.35L244.32 10.52L228.05 11.68L226.67 18.98L219.42 12.29H219.37H219.33H219.28H219.22H219.15L219.07 12.3H218.98L218.88 12.31H218.77L218.65 12.33H218.52L218.38 12.35H218.23L218.08 12.37H217.92L217.75 12.39H217.57L217.38 12.42H217.19L216.99 12.45H216.78L216.57 12.48L216.35 12.5L216.12 12.52L215.89 12.54L215.65 12.56L215.41 12.58L215.16 12.6L214.91 12.62L214.65 12.64L214.39 12.66L214.12 12.68L213.85 12.7L213.57 12.72L213.29 12.74L213.01 12.76L212.72 12.78L212.43 12.8L212.14 12.82L211.84 12.84L211.54 12.86L211.24 12.88L210.94 12.9L210.64 12.92L210.33 12.94L210.02 12.96L209.71 12.98L209.4 13L209.09 13.02L208.78 13.04L208.47 13.06L208.16 13.08L207.85 13.1L207.54 13.12L207.23 13.14L206.92 13.16L206.61 13.18L206.3 13.2L205.99 13.22L205.69 13.24L205.39 13.26L205.09 13.28L204.94 13.67L204.79 14.05L204.64 14.43L204.49 14.8L204.34 15.16L204.19 15.51L204.04 15.85L203.89 16.19L203.74 16.52L203.59 16.84L203.44 17.15L203.29 17.45L203.14 17.75L202.99 18.04L202.84 18.32L202.69 18.6L202.54 18.87L202.39 19.13L202.24 19.39L202.09 19.64L201.94 19.88L201.79 20.12L201.64 20.35L201.49 20.58L201.34 20.8L201.19 21.02L201.04 21.23L200.89 21.43L200.74 21.63L200.59 21.82L200.44 22.01L200.29 22.19L200.15 22.37L200.07 22.46L191.18 14.25L190.95 14.27L190.72 14.29L190.48 14.31L190.24 14.33L190 14.35L189.75 14.37L189.5 14.39L189.25 14.41L189 14.43L188.75 14.45L188.49 14.47L188.23 14.49L187.97 14.51L187.71 14.53L187.45 14.55L187.19 14.57L186.93 14.59L186.67 14.61L186.41 14.63L186.15 14.65L185.89 14.67L185.63 14.69L185.37 14.71L185.11 14.73L184.86 14.75L184.61 14.77L184.36 14.79L184.11 14.81L183.87 14.83L183.63 14.85L183.39 14.87L183.15 14.89L182.92 14.91L182.69 14.93L182.47 14.95L182.25 14.97L182.04 14.99H181.83L181.62 15.02H181.42L181.23 15.05H181.04L180.86 15.08H180.68L180.51 15.1H180.35L180.19 15.12H180.04L179.9 15.14H179.76L179.63 15.16H179.51L179.4 15.18H179.3L179.21 15.19H179.12L179.04 15.2H178.97H178.91H178.86H178.82H178.79L178.76 15.22V15.25V15.28V15.32L178.75 15.37V15.43L178.73 15.5V15.58L178.71 15.67V15.77L178.69 15.88V15.99L178.67 16.11V16.24L178.65 16.38V16.54L178.64 16.7V16.87V17.05V17.24V17.43V17.63L178.65 17.84V18.06L178.67 18.28L178.69 18.51L178.71 18.75L178.73 18.99L178.76 19.24L178.79 19.49L178.83 19.75L178.87 20.01L178.91 20.28L178.96 20.55L179.01 20.83L179.07 21.11L179.14 21.4L179.21 21.69L179.29 21.98L179.37 22.28L179.46 22.58L179.56 22.89L179.66 23.2L179.77 23.51L179.89 23.82L180.02 24.14L180.15 24.46L180.29 24.78L180.44 25.1L180.6 25.42L180.77 25.74L180.95 26.07L181.14 26.4L181.34 26.73L181.55 27.06L181.77 27.39L182 27.72L182.24 28.05L182.49 28.38L182.75 28.71L183.02 29.04L183.3 29.37L183.59 29.7L183.89 30.02L184.2 30.34L184.53 30.66L184.87 30.98L185.06 31.16L185.01 31.18L195.14 40.54L194.52 40.56L192.97 40.71L191.45 40.92L189.97 41.2L188.52 41.55L187.1 41.96L185.72 42.43L184.38 42.96L183.07 43.55L181.8 44.2L181.46 44.39L181.53 44.2L181.62 43.95L181.7 43.7L181.78 43.45L181.85 43.19L181.92 42.93L181.98 42.67L182.03 42.41L182.09 42.05L182.14 41.69L182.18 41.34L182.2 40.99V40.76L182.21 40.53V40.3V40.08V39.86L182.18 39.64L182.16 39.42L182.13 39.21L182.1 39L182.06 38.79L182.02 38.58L181.97 38.38L181.92 38.18L181.86 37.98L181.8 37.79L181.73 37.6L181.66 37.41L181.58 37.22L181.5 37.04L181.41 36.86L181.32 36.68L181.23 36.51L181.13 36.34L181.03 36.17L180.92 36.01L180.81 35.85L180.69 35.69L180.57 35.54L180.45 35.39L180.35 35.28L180.44 35.25L162.22 18.42L162.13 18.45L162.1 18.41L161.97 18.27L161.83 18.13L161.69 18L161.55 17.87L161.4 17.74L161.25 17.62L161.09 17.5L160.93 17.39L160.77 17.28L160.6 17.18L160.43 17.08L160.26 16.98L160.08 16.89L159.9 16.8L159.72 16.72L159.53 16.64L159.34 16.57L159.15 16.5L158.95 16.44L158.75 16.38L158.55 16.33L158.35 16.28L158.14 16.24L157.93 16.2L157.72 16.17L157.5 16.14L157.28 16.12L157.06 16.1H156.84L156.61 16.08H156.38H156.15H155.92L155.68 16.1L155.42 16.12L155.16 16.15L154.9 16.18L154.64 16.22L154.38 16.27L154.12 16.32L153.86 16.38L153.61 16.44L153.36 16.51L153.11 16.59L152.86 16.67L152.61 16.76L152.36 16.85L152.11 16.95L151.87 17.05L151.63 17.16L151.39 17.27L151.15 17.39L150.91 17.51L150.68 17.64L150.45 17.77L150.22 17.91L149.99 18.05L149.77 18.2L149.55 18.35L149.33 18.51L149.11 18.67L148.9 18.84L148.69 19.01L148.48 19.18L148.28 19.36L148.08 19.54L147.88 19.73L147.68 19.92L147.49 20.11L147.3 20.31L147.12 20.51L146.94 20.71L146.76 20.92L146.59 21.13L146.42 21.34L146.26 21.56L146.1 21.78L145.94 22L145.79 22.23L145.64 22.46L145.5 22.69L145.36 22.92L145.23 23.16L145.1 23.4L144.98 23.64L144.86 23.88L144.75 24.13L144.64 24.38L144.54 24.63L144.44 24.88L144.35 25.13L144.26 25.39L144.18 25.65L144.1 25.91L144.03 26.17L143.96 26.43L143.9 26.69L143.85 26.95L143.79 27.3L143.74 27.64L143.7 27.98L143.68 28.31V28.54L143.67 28.76V28.98V29.2V29.42L143.7 29.64L143.72 29.85L143.75 30.06L143.78 30.27L143.82 30.48L143.86 30.68L143.91 30.88L143.96 31.08L144.02 31.28L144.08 31.47L144.15 31.66L144.22 31.85L144.3 32.03L144.38 32.21L144.47 32.39L144.56 32.56L144.66 32.73L144.76 32.9L144.86 33.06L144.97 33.22L145.08 33.38L145.2 33.53L145.32 33.68L145.45 33.83L145.58 33.97L145.71 34.11L145.8 34.2L145.69 34.23L156.75 44.44L151.56 44.81L149.48 45.04L147.58 45.41L145.84 45.9L144.24 46.5L142.75 47.19L141.36 47.96L140.04 48.79L138.77 49.67L137.52 50.59L136.28 51.53L135.02 52.47L134.22 53.04L127.2 46.56L110.7 47.73L110.87 48.95L111.03 50.25L111.17 51.63L111.28 53.09L111.36 54.62L111.4 56.22V57.88L111.33 59.6L111.28 60.49L111.21 61.4L111.15 62.09L97.3399 49.34L97.3299 49.33L96.7699 48.9L96.1399 48.55L95.4499 48.27L94.6999 48.06L93.8799 47.91L92.9999 47.83L92.0599 47.81L91.0699 47.85L90.2299 47.93L89.3699 48.04L88.4999 48.17L87.6299 48.33L86.7599 48.51L85.8899 48.71L85.0299 48.93L84.1899 49.17L83.3799 49.42L82.5999 49.68L81.8499 49.94L81.1399 50.21L80.4799 50.48L79.8799 50.75L79.3399 51.01L78.8599 51.26L77.4399 61.69L69.6799 54.52L68.7699 53.52L67.7199 52.65L66.5299 51.91L65.1999 51.3L63.7299 50.83L62.1099 50.49L60.3499 50.29L58.4399 50.23L56.3899 50.31L54.8399 50.46L53.3199 50.67L51.8399 50.95L50.3899 51.3L48.9699 51.71L47.5899 52.18L46.2499 52.71L44.9399 53.3L43.6699 53.95L42.4399 54.65L41.2499 55.41L40.0999 56.22L38.9899 57.08L37.9299 57.99L36.9099 58.95L35.9399 59.96L35.0099 61.01L34.1299 62.11L33.2999 63.25L32.5199 64.43L31.7899 65.65L31.1099 66.91L30.4799 68.21L29.9099 69.54L29.3899 70.9L28.9199 72.3L28.5099 73.73L28.1599 75.19L27.8699 76.67L27.6399 78.18L27.4699 79.71L27.3599 81.27L27.3299 83.42L27.4599 85.47L27.7599 87.41L28.2299 89.24L28.8699 90.94L29.6899 92.51L30.6799 93.95L31.8399 95.25L32.5799 95.89H32.5699L49.8699 111.87L50.0499 112.08L50.5799 112.54L50.7799 112.72H50.7899L51.3799 113.22L52.8899 114.21L53.7599 114.63L19.1699 117.09L16.5699 129.76L28.4799 140.75L34.7999 146.58L333.96 125.34L344.58 124.59L347.18 111.92L329.42 95.52L328.95 95.09L319.86 95.74L320.07 95.63L321.34 94.91L322.57 94.13L322.89 93.91L323.76 93.31L324.9 92.43L326 91.5L327.05 90.52L327.38 90.18L328.06 89.49L329.02 88.42L329.93 87.3L330.79 86.14L331.42 85.21L331.6 84.94L331.83 84.56L332.36 83.7L333.02 82.51L333.07 82.42L333.72 81.11L333.92 80.66L334.32 79.76L334.48 79.34L334.86 78.38L335.18 77.44L335.34 76.97L335.51 76.4L335.77 75.52L336.06 74.34L336.13 74.04L336.43 72.54L336.67 71.02L336.82 69.7L336.85 69.47L336.97 67.9V67.23L337 65.86L336.94 64.93L336.88 63.94L336.61 62.13L336.24 60.65L336.19 60.44L337.71 59.9L339.16 59.32L340.54 58.71L341.86 58.07L343.11 57.41L344.29 56.72L345.41 56.01L346.47 55.29L347.47 54.56L348.41 53.82L349.29 53.07L350.11 52.32L350.88 51.57L351.6 50.83L352.26 50.1L352.87 49.38L353.44 48.68L353.96 48L354.43 47.34L354.86 46.71L355.25 46.11L355.59 45.54L355.89 45.01L356.16 44.52L356.39 44.07L356.58 43.67L356.74 43.32L356.87 43.03L356.97 42.8L357.04 42.63L357.09 42.49L338.87 25.66L338.92 25.68ZM97.3299 67.29L97.7999 67.72L97.5799 67.83L97.1999 68.03L97.2599 67.69L97.3299 67.29ZM288.29 71.75L287.87 73.18L287.56 74.43L287.87 73.18L288.29 71.75L288.75 70.42L288.29 71.75ZM286.88 78.33L286.78 79.21L286.66 80.79L286.63 81.77L286.66 80.79L286.78 79.21L286.88 78.33ZM200.65 84.92V84.48V84.92ZM200.77 82.38L200.92 81.15L201.01 80.63L200.92 81.15L200.77 82.38ZM186 77.25L185.74 77.93L185.51 78.63L185.74 77.93L186 77.25ZM185.15 79.77L184.87 80.76L184.52 82.22L184.4 82.81L184.52 82.22L184.87 80.76L185.15 79.77ZM183.7 88.3L183.81 86.74L183.89 86.03L183.81 86.74L183.7 88.3V89.95H183.69V88.3H183.7ZM62.9099 90.39L62.9999 89.86L62.9099 90.39ZM62.5399 94.72L62.5699 93.41L62.5999 92.96L62.5699 93.41L62.5399 94.72L62.5599 95.33L62.5399 94.72ZM98.4299 91.64L98.5099 91.23L98.4299 91.64L98.2799 91.78L98.4299 91.64ZM98.7099 90.14V90.08V90.14L98.6799 90.28L98.7099 90.14ZM98.9999 88.64L99.1399 87.9L99.2799 87.18L99.41 86.48L99.5399 85.8L99.5599 85.68L99.5399 85.8L99.41 86.48L99.2799 87.18L99.1399 87.9L98.9999 88.64V88.7V88.64ZM99.9399 83.38L100.01 82.93L99.9399 83.38L99.8499 83.93L99.9399 83.38ZM115.04 87.01L114.9 87.8L114.76 88.57L114.73 88.72L114.76 88.57L114.9 87.8L115.04 87.01L115.1 86.7L115.04 87.01ZM116.85 76.83L116.93 76.39L116.99 76.04L116.93 76.39L116.85 76.83ZM117.48 72.49V72.53L117.46 72.79L117.42 73.12L117.46 72.79L117.48 72.53V72.49ZM117.31 73.98L117.27 74.25L117.31 73.98L117.34 73.75L117.31 73.98ZM116.54 78.61L116.4 79.41L116.37 79.6L116.4 79.41L116.54 78.61V78.55V78.61ZM116.06 81.31L115.95 81.93L115.8 82.79L115.65 83.65L115.5 84.51L115.35 85.36L115.3 85.62L115.35 85.36L115.5 84.51L115.65 83.65L115.8 82.79L115.95 81.93L116.06 81.31ZM96.3299 93.41L95.6099 93.98L94.7299 94.63L95.6099 93.98L96.3299 93.41ZM80.0599 112.51L80.9499 112.06L81.3099 111.88L82.5199 111.22L83.6899 110.54L84.0599 110.32L84.8299 109.85L85.3799 109.5L85.9299 109.15L86.9799 108.43L87.9899 107.71L88.7599 107.13L88.9499 106.99L89.8699 106.27L90.7399 105.56L91.4699 104.94L91.5699 104.86L92.3499 104.17L93.0799 103.5L93.7599 102.86L94.0099 102.62L94.3899 102.25L94.6399 102L94.9699 101.67L95.4999 101.12L95.5499 101.07L95.9799 100.61L96.3999 100.15L96.7699 99.73L97.0799 99.37L97.2899 99.12L97.3399 99.06L97.3599 100.68L97.5099 102.23L97.7099 103.3L97.7899 103.71L98.1999 105.1L98.5199 105.86L98.7499 106.4L99.0499 106.93L99.4399 107.6L99.9899 108.33L100.27 108.7L101.24 109.69L101.72 110.07L102.35 110.57L102.75 110.81L103.29 111.14L79.3799 112.84L79.4599 112.8L80.0499 112.53L80.0599 112.51ZM127.44 109.38L127.75 109.22L128.03 109.05L129 108.48L130.21 107.68L131.38 106.83L132.5 105.92L133.58 104.96L134.2 104.35L134.61 103.95L135.11 103.41L135.59 102.89L136.53 101.78L137.43 100.62L138.28 99.42L139.09 98.17L139.34 97.74L139.85 96.88L140.35 95.95L140.57 95.55L140.79 95.09L141.24 94.18L141.28 94.08L155.71 107.4L127.35 109.41L127.41 109.38H127.44ZM176.19 105.75L176.87 105.34L177.55 104.93L178.83 104.07L179.32 103.71L180.02 103.2L180.55 102.78L181.13 102.32L182.16 101.46L182.38 101.26L183.1 100.62L183.53 100.22L183.96 99.82L184.43 99.38L184.74 99.09L185.44 98.42L186 99.46L186.13 99.65L186.64 100.44L187.35 101.36L188.14 102.22L189.01 103.01L189.96 103.73L190.85 104.29L190.99 104.38L191.87 104.84L175.76 105.98L176.18 105.75H176.19ZM218.32 102.64L219.46 102.06L220.57 101.46L221.65 100.84L222.17 100.52L222.69 100.2L223.7 99.55L224.68 98.89L225.23 98.5L225.62 98.23L226.23 97.79L230.86 102.06L217.52 103.01L218.31 102.63L218.32 102.64ZM250.74 90.08L259.74 98.39L260.13 98.71L260.39 98.95L261.47 99.72L261.63 99.83L261.72 99.88L248.72 100.8L250.73 90.08H250.74ZM281.64 98.4L282.2 98.05L282.76 97.7L283.85 96.98L284.68 96.39L284.9 96.24L285.9 95.49L286.85 94.74L287.11 94.52L287.75 93.99L288.11 93.68L288.59 93.27L289.37 92.57L290.01 93.46L290.72 94.3L291.11 94.69L291.5 95.08L292.34 95.8L292.97 96.26L293.24 96.45L293.72 96.75L294.2 97.05L294.35 97.13L295.12 97.53L281.51 98.5L281.63 98.43L281.64 98.4ZM282.79 82.38L275.52 75.67L282.79 82.38ZM117.31 69.49L117.19 69.01L117.31 69.49L117.37 69.9L117.31 69.49ZM116.47 67.24L116.13 66.78L116.47 67.24L116.75 67.76L116.47 67.24ZM115.57 66.16L115.88 66.48L115.57 66.16ZM95.5599 79.35L95.7599 79.31L95.5599 79.35ZM48.3299 85.96L48.1599 86.36L47.7099 87.54L48.1599 86.36L48.3299 85.96ZM47.1699 89.12L47.4799 88.19L47.1699 89.12L46.7599 90.55L46.6099 91.15L46.7599 90.55L47.1699 89.12ZM332.99 34.48L332.13 33.68L332.99 34.48ZM315.13 50.1L316.74 49.95L318.81 49.88L316.74 49.95L315.13 50.1L314.66 50.16L315.13 50.1ZM309.04 51.34L310.51 50.94L311.05 50.82L310.51 50.94L309.04 51.34L307.61 51.8L307.16 51.97L307.61 51.8L309.04 51.34ZM304.86 52.91L305.34 52.7L304.86 52.91L303.54 53.55L302.89 53.9L303.54 53.55L304.86 52.91ZM154.31 68.51L153.26 69.29L152.61 69.76L153.26 69.29L154.31 68.51Z" fill="#D54127"/>
<path d="M219.46 12.72V12.61L219.47 12.52V12.45V12.38V12.33V12.3V12.27H219.42H219.38L219.33 12.28H219.27L219.19 12.29H219.11L219.02 12.3L218.92 12.31H218.81L218.69 12.32L218.56 12.33L218.42 12.34L218.28 12.35L218.12 12.36L217.96 12.37L217.79 12.39L217.61 12.4L217.42 12.41L217.23 12.43L217.03 12.44L216.82 12.46L216.61 12.47L216.39 12.49L216.16 12.5L215.93 12.52L215.69 12.54L215.44 12.55L215.2 12.57L214.94 12.59L214.68 12.61L214.42 12.63L214.15 12.65L213.88 12.66L213.6 12.68L213.32 12.7L213.04 12.72L212.75 12.74L212.46 12.77L212.16 12.79L211.87 12.81L211.57 12.83L211.27 12.85L210.96 12.87L210.66 12.89L210.35 12.91L210.05 12.94L209.74 12.96L209.43 12.98L209.12 13L208.8 13.02L208.49 13.05L208.18 13.07L207.87 13.09L207.56 13.11L207.25 13.14L206.94 13.16L206.63 13.18L206.32 13.2L206.02 13.22L205.71 13.24L205.41 13.27L205.11 13.29L204.96 13.68L204.8 14.06L204.65 14.44L204.5 14.81L204.34 15.16L204.19 15.52L204.04 15.86L203.89 16.19L203.73 16.52L203.58 16.84L203.43 17.15L203.28 17.46L203.13 17.76L202.98 18.05L202.83 18.33L202.68 18.61L202.53 18.88L202.38 19.14L202.23 19.4L202.08 19.65L201.93 19.89L201.78 20.13L201.63 20.36L201.48 20.59L201.33 20.81L201.19 21.03L201.04 21.24L200.89 21.44L200.75 21.64L200.6 21.83L200.45 22.02L200.31 22.21L200.16 22.39L200.02 22.56L199.87 22.73L199.73 22.9L199.59 23.06L199.45 23.22L199.3 23.37L199.16 23.52L199.02 23.67L198.88 23.81L198.74 23.95L198.6 24.09L198.46 24.22L198.32 24.35L198.18 24.48L198.04 24.6L197.91 24.72L197.77 24.84L197.64 24.96L197.5 25.07L197.36 25.18L197.23 25.29L197.1 25.4L196.96 25.5L196.83 25.6L196.7 25.71L196.57 25.81L196.44 25.91L196.31 26L196.18 26.1L196.05 26.2L195.92 26.29L195.9 26.27L195.85 26.24L195.82 26.21L195.79 26.19L195.75 26.15L195.7 26.12L195.66 26.08L195.6 26.03L195.55 25.98L195.49 25.92L195.42 25.86L195.35 25.79L195.28 25.72L195.21 25.64L195.13 25.56L195.05 25.47L194.97 25.38L194.88 25.28L194.79 25.17L194.7 25.06L194.61 24.94L194.52 24.81L194.42 24.68L194.32 24.55L194.23 24.41L194.13 24.26L194.03 24.1L193.92 23.94L193.82 23.77L193.72 23.59L193.62 23.41L193.51 23.22L193.41 23.02L193.31 22.82L193.2 22.61L193.1 22.39L193 22.16L192.9 21.93L192.8 21.69L192.7 21.44L192.6 21.18L192.51 20.92L192.41 20.64L192.32 20.36L192.23 20.07L192.14 19.78L192.06 19.47L191.97 19.16L191.89 18.83L191.82 18.5L191.74 18.16L191.67 17.82L191.6 17.46L191.54 17.09L191.48 16.72L191.42 16.33L191.37 15.94L191.32 15.54L191.27 15.13L191.24 14.71L191.2 14.27L190.97 14.29L190.74 14.31L190.5 14.32L190.26 14.34L190.02 14.36L189.77 14.38L189.52 14.39L189.27 14.41L189.02 14.43L188.77 14.45L188.51 14.47L188.25 14.48L187.99 14.5L187.73 14.52L187.47 14.54L187.21 14.56L186.95 14.58L186.69 14.59L186.43 14.61L186.17 14.63L185.91 14.65L185.66 14.67L185.4 14.69L185.14 14.7L184.89 14.72L184.64 14.74L184.39 14.76L184.14 14.78L183.9 14.79L183.66 14.81L183.42 14.83L183.18 14.84L182.95 14.86L182.72 14.88L182.5 14.89L182.28 14.91L182.07 14.92L181.86 14.94L181.65 14.95L181.45 14.97L181.26 14.98L181.07 14.99L180.88 15.01L180.71 15.02L180.54 15.03L180.37 15.04L180.22 15.05L180.07 15.07L179.92 15.08H179.79L179.66 15.09L179.54 15.1L179.43 15.11L179.33 15.12H179.23L179.15 15.13L179.07 15.14H179H178.95L178.9 15.15H178.86H178.84L178.81 15.17V15.2L178.8 15.23L178.79 15.28V15.33L178.78 15.4L178.77 15.47L178.76 15.55L178.75 15.64L178.74 15.74L178.73 15.84L178.72 15.96L178.71 16.08L178.7 16.21L178.69 16.35L178.68 16.5V16.67L178.67 16.84V17.02V17.21V17.4L178.68 17.6V17.81L178.69 18.03L178.7 18.25L178.72 18.48L178.74 18.72L178.76 18.96L178.79 19.2L178.82 19.46L178.85 19.72L178.89 19.98L178.94 20.25L178.99 20.52L179.04 20.8L179.1 21.08L179.17 21.37L179.24 21.66L179.32 21.96L179.4 22.25L179.49 22.56L179.59 22.86L179.7 23.17L179.81 23.48L179.93 23.79L180.05 24.11L180.19 24.43L180.33 24.75L180.48 25.07L180.64 25.39L180.81 25.72L180.99 26.04L181.17 26.37L181.37 26.7L181.58 27.03L181.79 27.36L182.02 27.69L182.25 28.01L182.5 28.34L182.75 28.67L183.02 29L183.3 29.33L183.59 29.65L183.89 29.98L184.2 30.3L184.53 30.62L184.87 30.94L185.22 31.26L185.58 31.57L185.95 31.89L186.34 32.2L186.74 32.5L187.16 32.81L187.59 33.11L188.03 33.41L188.49 33.7L188.96 33.99L189.44 34.28L189.94 34.56L200.7 33.8L201.49 33.43L202.26 33.06L203.01 32.69L203.73 32.31L204.43 31.93L205.12 31.54L205.78 31.15L206.42 30.76L207.04 30.37L207.64 29.97L208.22 29.57L208.78 29.18L209.32 28.77L209.84 28.37L210.35 27.97L210.84 27.56L211.31 27.16L211.76 26.76L212.19 26.35L212.61 25.95L213.02 25.54L213.4 25.14L213.77 24.74L214.13 24.34L214.47 23.94L214.79 23.55L215.1 23.15L215.4 22.76L215.68 22.38L215.95 21.99L216.21 21.61L216.45 21.23L216.69 20.86L216.9 20.49L217.11 20.12L217.31 19.76L217.49 19.41L217.67 19.06L217.83 18.71L217.98 18.38L218.13 18.04L218.26 17.72L218.39 17.4L218.5 17.09L218.61 16.78L218.71 16.48L218.8 16.19L218.88 15.91L218.96 15.64L219.03 15.37L219.09 15.12L219.15 14.87L219.2 14.63L219.24 14.4L219.28 14.19L219.32 13.98L219.35 13.78L219.38 13.6L219.4 13.42L219.42 13.26L219.43 13.1L219.44 12.96L219.45 12.83L219.46 12.72Z" fill="#8DD5F6"/>
<path d="M326.38 107.79L328.98 95.12L19.2 117.12L16.6 129.78L326.38 107.79Z" fill="#8DD5F6"/>
<path d="M163.98 24.12L163.99 23.89L164 23.66L163.99 23.44V23.21L163.98 22.99L163.96 22.78L163.94 22.56L163.91 22.35L163.88 22.14L163.84 21.93L163.8 21.72L163.75 21.52L163.7 21.32L163.64 21.12L163.58 20.93L163.51 20.74L163.44 20.55L163.36 20.36L163.28 20.18L163.2 20L163.11 19.83L163.01 19.66L162.91 19.49L162.81 19.32L162.7 19.16L162.59 19L162.48 18.84L162.36 18.69L162.23 18.54L162.1 18.4L161.97 18.26L161.84 18.12L161.7 17.99L161.55 17.86L161.4 17.73L161.25 17.61L161.1 17.5L160.94 17.38L160.78 17.27L160.61 17.17L160.44 17.07L160.27 16.97L160.09 16.88L159.91 16.8L159.73 16.71L159.54 16.64L159.36 16.56L159.16 16.49L158.97 16.43L158.77 16.37L158.57 16.32L158.36 16.27L158.15 16.22L157.94 16.19L157.73 16.15L157.51 16.12L157.3 16.1L157.07 16.08L156.85 16.07L156.62 16.06H156.39H156.16L155.93 16.07L155.69 16.08L155.43 16.1L155.17 16.13L154.91 16.17L154.66 16.21L154.4 16.25L154.14 16.31L153.89 16.37L153.63 16.43L153.38 16.5L153.13 16.58L152.88 16.66L152.63 16.75L152.38 16.84L152.14 16.94L151.89 17.04L151.65 17.15L151.41 17.27L151.17 17.39L150.94 17.51L150.7 17.64L150.47 17.77L150.24 17.91L150.01 18.06L149.79 18.21L149.57 18.36L149.35 18.52L149.13 18.68L148.92 18.84L148.71 19.01L148.5 19.19L148.29 19.37L148.09 19.55L147.89 19.73L147.7 19.92L147.51 20.12L147.32 20.31L147.13 20.51L146.95 20.72L146.78 20.93L146.6 21.14L146.43 21.35L146.27 21.57L146.11 21.79L145.95 22.01L145.8 22.23L145.65 22.46L145.51 22.69L145.37 22.93L145.23 23.16L145.11 23.4L144.98 23.64L144.86 23.89L144.75 24.13L144.64 24.38L144.53 24.63L144.43 24.88L144.34 25.14L144.25 25.39L144.17 25.65L144.09 25.91L144.02 26.17L143.96 26.43L143.9 26.69L143.84 26.96L143.78 27.3L143.74 27.64L143.7 27.98L143.68 28.32L143.67 28.54L143.66 28.77L143.67 28.99V29.21L143.69 29.43L143.7 29.64L143.73 29.86L143.75 30.07L143.79 30.27L143.83 30.48L143.87 30.68L143.92 30.88L143.97 31.08L144.03 31.28L144.1 31.47L144.16 31.66L144.24 31.85L144.31 32.03L144.4 32.21L144.48 32.39L144.57 32.56L144.67 32.73L144.77 32.9L144.87 33.07L144.98 33.23L145.1 33.39L145.21 33.54L145.33 33.69L145.46 33.84L145.59 33.98L145.72 34.12L145.86 34.26L146 34.39L146.14 34.52L146.29 34.64L146.44 34.76L146.6 34.88L146.76 34.99L146.92 35.1L147.09 35.21L147.26 35.31L147.43 35.4L147.61 35.49L147.79 35.58L147.97 35.66L148.16 35.74L148.34 35.81L148.54 35.88L148.73 35.95L148.93 36.01L149.13 36.06L149.33 36.11L149.54 36.15L149.75 36.19L149.96 36.23L150.17 36.26L150.39 36.28L150.61 36.3L150.83 36.31L151.05 36.32H151.28H151.51L151.74 36.31L151.97 36.3L152.22 36.28L152.48 36.25L152.73 36.22L152.98 36.18L153.24 36.13L153.49 36.08L153.74 36.02L153.99 35.95L154.24 35.88L154.49 35.81L154.74 35.72L154.99 35.64L155.23 35.54L155.48 35.45L155.72 35.34L155.96 35.23L156.2 35.12L156.44 35L156.67 34.88L156.91 34.75L157.14 34.61L157.37 34.48L157.6 34.33L157.82 34.18L158.04 34.03L158.26 33.88L158.48 33.72L158.7 33.55L158.91 33.38L159.12 33.21L159.32 33.03L159.53 32.85L159.73 32.67L159.92 32.48L160.12 32.29L160.3 32.09L160.49 31.89L160.67 31.69L160.85 31.48L161.03 31.27L161.2 31.06L161.36 30.85L161.53 30.63L161.68 30.41L161.84 30.19L161.99 29.96L162.13 29.73L162.27 29.5L162.41 29.27L162.54 29.03L162.66 28.79L162.79 28.55L162.9 28.31L163.01 28.07L163.12 27.82L163.22 27.57L163.31 27.32L163.4 27.07L163.48 26.82L163.56 26.57L163.63 26.31L163.7 26.05L163.76 25.8L163.81 25.54L163.87 25.18L163.92 24.82L163.96 24.47L163.98 24.12Z" fill="#8DD5F6"/>
<path d="M338.56 25.7L338.14 25.73L337.57 25.77L336.87 25.82L336.06 25.88L335.14 25.95L334.13 26.02L333.05 26.09L331.91 26.18L330.72 26.26L329.5 26.35L328.26 26.44L327.01 26.52L325.77 26.61L324.56 26.7L323.96 27.97L323.34 29.16L322.71 30.25L322.08 31.26L321.45 32.19L320.81 33.03L320.17 33.81L319.53 34.51L318.9 35.14L318.28 35.71L317.66 36.22L317.06 36.67L316.47 37.06L315.89 37.4L315.34 37.7L314.8 37.95L313.41 36.68L311.83 35.59L310.06 34.69L308.11 33.98L305.97 33.47L303.66 33.15L301.17 33.04L298.52 33.13L296.91 33.28L295.33 33.49L293.79 33.77L292.29 34.11L290.82 34.52L289.39 34.98L287.99 35.5L286.64 36.08L285.32 36.72L284.05 37.41L282.82 38.16L281.63 38.96L280.48 39.81L279.38 40.71L278.33 41.66L277.32 42.65L276.36 43.69L275.45 44.78L274.6 45.91L273.79 47.08L273.03 48.3L272.33 49.55L271.68 50.84L271.09 52.17L270.55 53.53L270.07 54.93L269.65 56.36L269.28 57.82L268.98 59.31L268.74 60.83L268.56 62.38L268.44 63.96L268.4 65.4L268.44 66.79L268.55 68.13L268.73 69.42L268.45 69.64L268.11 69.9L267.72 70.18L267.26 70.48L266.75 70.8L266.18 71.12L265.55 71.45L264.86 71.78L264.12 72.1L263.31 72.4L262.45 72.69L261.54 72.96L260.56 73.19L259.53 73.39L258.44 73.54L257.29 73.65L255.89 73.69L254.62 73.59L253.48 73.37L252.47 73.05L251.58 72.62L250.79 72.11L250.1 71.52L249.5 70.87L248.98 70.16L248.54 69.41L248.17 68.63L247.86 67.82L247.59 67.01L247.37 66.2L247.19 65.41L247.03 64.63L248.88 63.88L250.65 63.06L252.33 62.19L253.94 61.26L255.45 60.28L256.86 59.23L258.18 58.12L259.38 56.95L260.48 55.72L261.46 54.43L262.31 53.08L263.04 51.66L263.63 50.18L264.09 48.63L264.41 47.02L264.57 45.35L264.59 44.3L264.51 43.29L264.35 42.34L264.1 41.43L263.76 40.58L263.33 39.8L262.81 39.08L262.19 38.43L261.48 37.85L260.68 37.35L259.77 36.93L258.77 36.59L257.67 36.35L256.47 36.2L255.17 36.15L253.77 36.2L252.6 36.32L251.45 36.5L250.33 36.73L249.23 37.03L248.16 37.38L247.12 37.78L246.09 38.22L245.1 38.72L244.13 39.25L243.18 39.83L242.27 40.44L241.38 41.09L240.51 41.77L239.68 42.47L238.87 43.2L238.09 43.96L244.36 10.5L228.09 11.66L218.03 65.05L217.18 65.78L216.21 66.59L215.1 67.46L213.87 68.36L212.53 69.29L211.07 70.23L209.52 71.17L207.87 72.09L206.12 72.98L204.3 73.82L202.4 74.59L200.43 75.29L198.39 75.89L196.29 76.38L194.15 76.75L191.96 76.98L190.73 77.03L189.58 76.98L188.52 76.84L187.55 76.61L186.66 76.28L185.86 75.87L185.14 75.36L184.51 74.77L183.96 74.08L183.5 73.31L183.12 72.44L182.83 71.49L182.61 70.45L182.48 69.32L182.43 68.1L182.46 66.79L182.56 65.56L182.71 64.33L182.92 63.1L183.19 61.9L183.51 60.74L183.9 59.61L184.35 58.54L184.86 57.52L185.44 56.58L186.07 55.73L186.77 54.96L187.54 54.3L188.37 53.75L189.26 53.32L190.22 53.03L191.25 52.88L192 52.87L192.66 52.96L193.24 53.14L193.76 53.39L194.2 53.71L194.58 54.1L194.9 54.55L195.16 55.04L195.38 55.57L195.54 56.13L195.67 56.72L195.75 57.32L195.8 57.93L195.83 58.54L195.82 59.14L195.8 59.73L210.37 55.21L210.4 53.34L210.31 51.6L210.08 49.97L209.71 48.47L209.22 47.09L208.58 45.84L207.81 44.71L206.9 43.71L205.85 42.84L204.66 42.1L203.33 41.5L201.86 41.03L200.24 40.69L198.48 40.49L196.57 40.43L194.52 40.51L192.97 40.66L191.45 40.87L189.97 41.15L188.52 41.5L187.1 41.91L185.72 42.38L184.38 42.91L183.07 43.5L181.8 44.15L180.57 44.85L179.38 45.61L178.23 46.42L177.13 47.28L176.07 48.2L175.05 49.16L174.08 50.17L173.15 51.22L172.27 52.32L171.44 53.46L170.66 54.64L169.93 55.86L169.25 57.12L168.62 58.42L168.05 59.75L167.53 61.11L167.06 62.51L166.66 63.94L166.3 65.39L166.01 66.88L165.78 68.39L165.6 69.92L165.49 71.48L165.46 73.92L165.66 76.23L165.56 76.07L164.99 76.5L164.38 76.94L163.75 77.39L163.09 77.85L162.41 78.3L161.72 78.75L161.02 79.18L160.32 79.59L159.62 79.98L158.92 80.34L158.24 80.67L157.57 80.96L156.92 81.2L156.3 81.39L155.71 81.52L155.15 81.59H154.56L154.02 81.49L153.56 81.28L153.18 80.96L152.87 80.51L152.66 79.93L152.55 79.21L152.54 78.34L152.64 77.38L152.85 76.28L158.93 44.31L151.58 44.83L149.5 45.06L147.6 45.42L145.86 45.91L144.26 46.51L142.77 47.19L141.38 47.96L140.06 48.79L138.78 49.67L137.54 50.59L136.3 51.53L135.04 52.47L133.74 53.4L132.38 54.31L130.94 55.18L129.39 56L127.72 56.75L127.76 55.36L127.78 54L127.77 52.65L127.73 51.34L127.66 50.06L127.55 48.83L127.4 47.66L127.22 46.56L110.72 47.73L110.89 48.95L111.05 50.25L111.19 51.64L111.3 53.1L111.38 54.63L111.42 56.23L111.41 57.89L111.35 59.61L111.29 60.5L111.22 61.41L111.14 62.35L111.04 63.29L110.92 64.25L110.78 65.21L110.63 66.18L110.46 67.15L110.27 68.12L110.06 69.08L109.83 70.04L109.59 70.99L109.32 71.92L109.04 72.83L108.73 73.73L108.4 74.6L108.05 75.45L107.68 76.27L107.29 77.05L106.88 77.8L106.44 78.52L105.98 79.19L105.49 79.81L104.98 80.39L104.45 80.92L103.89 81.39L103.3 81.81L102.69 82.17L102.06 82.47L101.39 82.7L100.7 82.86L99.99 82.95L98.9 82.92L97.98 82.69L97.21 82.26L96.59 81.64L96.14 80.84L95.83 79.87L95.68 78.74L95.67 77.45L95.74 76.64L95.78 76.34L95.83 75.96L95.9 75.52L95.98 75.02L96.07 74.46L96.17 73.85L96.28 73.19L96.4 72.49L96.53 71.76L96.67 70.99L96.81 70.19L96.96 69.38L97.11 68.54L97.26 67.69L97.41 66.84L97.57 65.98L97.72 65.12L97.87 64.27L98.02 63.43L98.17 62.61L98.31 61.8L98.45 61.03L98.58 60.28L98.7 59.57L98.81 58.89L98.91 58.27L99 57.69L99.08 57.17L99.15 56.7L99.2 56.31L99.23 55.97L99.25 55.72L99.27 54.61L99.22 53.6L99.09 52.68L98.88 51.84L98.6 51.1L98.25 50.43L97.83 49.85L97.33 49.34L96.77 48.91L96.15 48.56L95.46 48.27L94.7 48.06L93.89 47.91L93.01 47.83L92.07 47.82L91.08 47.86L90.24 47.93L89.38 48.04L88.52 48.18L87.64 48.34L86.77 48.52L85.9 48.72L85.05 48.94L84.21 49.18L83.4 49.43L82.61 49.68L81.87 49.94L81.16 50.21L80.5 50.48L79.9 50.74L79.35 51L78.87 51.26L77.33 62.55L77.86 62.43L78.47 62.32L79.11 62.23L79.76 62.17L80.34 62.16L80.82 62.24L81.21 62.41L81.51 62.67L81.73 63.05L81.86 63.53L81.92 64.13V64.86L81.89 65.21L81.85 65.61L81.79 66.06L81.72 66.57L81.63 67.11L81.53 67.7L81.42 68.32L81.3 68.98L81.18 69.66L81.05 70.36L80.91 71.09L80.77 71.82L80.63 72.57L80.48 73.32L80.34 74.07L80.2 74.82L79.41 75.53L78.47 76.32L77.39 77.17L76.18 78.07L74.84 79L73.38 79.94L71.82 80.88L70.14 81.81L68.38 82.71L66.52 83.56L64.57 84.34L62.55 85.05L60.46 85.67L58.31 86.17L56.1 86.55L53.84 86.79L52.6 86.83L51.45 86.79L50.39 86.65L49.42 86.41L48.53 86.09L47.73 85.68L47.02 85.17L46.39 84.58L45.84 83.89L45.38 83.12L45 82.25L44.7 81.3L44.49 80.25L44.36 79.12L44.31 77.91L44.34 76.6L44.43 75.37L44.58 74.13L44.79 72.91L45.06 71.71L45.39 70.54L45.78 69.42L46.23 68.34L46.74 67.33L47.31 66.39L47.95 65.53L48.65 64.77L49.41 64.11L50.24 63.56L51.14 63.13L52.1 62.84L53.13 62.68H53.87L54.53 62.77L55.12 62.94L55.63 63.2L56.08 63.52L56.45 63.91L56.77 64.36L57.04 64.85L57.25 65.38L57.42 65.94L57.54 66.53L57.63 67.13L57.68 67.74L57.7 68.35V68.95L57.68 69.53L72.24 65.02L72.28 63.15L72.18 61.41L71.95 59.78L71.59 58.28L71.09 56.9L70.46 55.64L69.68 54.52L68.77 53.52L67.72 52.65L66.53 51.91L65.2 51.31L63.73 50.84L62.11 50.5L60.35 50.3L58.45 50.24L56.4 50.32L54.85 50.47L53.33 50.68L51.84 50.96L50.39 51.31L48.98 51.72L47.6 52.19L46.25 52.72L44.94 53.31L43.68 53.96L42.45 54.66L41.26 55.42L40.11 56.23L39 57.09L37.94 58.01L36.93 58.97L35.95 59.98L35.03 61.03L34.15 62.13L33.32 63.27L32.54 64.45L31.81 65.67L31.13 66.93L30.5 68.23L29.93 69.56L29.4 70.92L28.94 72.32L28.53 73.74L28.18 75.2L27.88 76.68L27.65 78.19L27.48 79.73L27.36 81.29L27.33 83.44L27.46 85.49L27.77 87.44L28.24 89.26L28.88 90.97L29.7 92.54L30.69 93.98L31.85 95.27L33.18 96.42L34.7 97.41L36.38 98.23L38.25 98.89L40.29 99.37L42.52 99.67L44.92 99.78L47.51 99.69L49.08 99.54L50.62 99.32L52.13 99.05L53.61 98.71L55.07 98.32L56.49 97.88L57.88 97.4L59.23 96.87L60.55 96.3L61.83 95.7L63.08 95.08L64.29 94.42L65.46 93.74L66.59 93.05L67.69 92.34L68.74 91.62L69.74 90.9L70.71 90.18L71.63 89.46L72.5 88.75L73.33 88.05L74.11 87.36L74.85 86.69L75.53 86.05L76.17 85.43L76.75 84.85L77.28 84.3L77.76 83.8L78.18 83.33L78.55 82.92L78.87 82.55L79.12 82.25L79.14 83.87L79.29 85.41L79.57 86.89L79.98 88.27L80.53 89.57L81.22 90.77L82.05 91.87L83.02 92.87L84.14 93.75L85.4 94.51L86.81 95.14L88.37 95.65L90.08 96.01L91.95 96.24L93.97 96.31L96.15 96.23L97.82 96.08L99.44 95.85L101.02 95.55L102.55 95.19L104.04 94.76L105.48 94.27L106.87 93.71L108.22 93.09L109.53 92.41L110.79 91.67L112 90.88L113.17 90.02L114.29 89.12L115.37 88.16L116.4 87.15L117.39 86.09L118.33 84.98L119.23 83.82L120.08 82.61L120.89 81.37L121.65 80.08L122.37 78.74L123.04 77.37L123.67 75.96L124.25 74.51L124.79 73.03L125.28 71.51L125.73 69.96L126.13 68.38L126.49 66.77L126.81 65.13L127.08 63.46L128.83 63.07L130.58 62.61L132.31 62.08L134.02 61.47L135.67 60.77L137.24 60L138.73 59.15L140.1 58.21L136.16 79.47L135.82 81.56L135.65 83.44L135.62 84.86L135.71 86.14L135.89 87.28L136.18 88.3L136.57 89.2L137.04 89.98L137.61 90.65L138.26 91.21L138.99 91.68L139.81 92.06L140.69 92.35L141.65 92.55L142.68 92.68L143.77 92.75L144.92 92.74L146.12 92.68L148.06 92.47L149.92 92.13L151.7 91.67L153.39 91.1L155 90.45L156.52 89.73L157.97 88.94L159.33 88.11L160.61 87.25L161.8 86.38L162.91 85.5L163.94 84.64L164.89 83.8L165.75 83.01L166.53 82.27L167.22 81.61L167.78 82.65L168.42 83.63L169.13 84.56L169.93 85.41L170.8 86.2L171.75 86.92L172.77 87.57L173.88 88.15L175.07 88.65L176.34 89.07L177.68 89.41L179.11 89.68L180.62 89.86L182.21 89.95L183.88 89.96L185.63 89.88L187.08 89.75L188.5 89.56L189.89 89.31L191.26 89.02L192.61 88.68L193.93 88.3L195.22 87.87L196.48 87.41L197.72 86.91L198.92 86.39L200.1 85.83L201.24 85.25L202.35 84.65L203.43 84.03L204.48 83.39L205.49 82.75L206.47 82.09L207.41 81.43L208.32 80.76L209.19 80.1L210.02 79.44L210.81 78.79L211.56 78.15L212.28 77.52L212.95 76.91L213.58 76.31L214.17 75.74L214.72 75.2L215.22 74.69L215.68 74.21L216.09 73.76L216.46 73.35L213.98 86.49L230.25 85.34L233.46 68.23L235.25 67.89L235.72 70L236.24 71.98L236.84 73.83L237.51 75.56L238.26 77.15L239.09 78.61L240.02 79.93L241.05 81.1L242.18 82.14L243.42 83.02L244.77 83.76L246.25 84.34L247.85 84.76L249.59 85.02L251.46 85.12L253.48 85.06L254.77 84.91L256.06 84.67L257.34 84.33L258.6 83.91L259.84 83.42L261.06 82.86L262.25 82.25L263.42 81.59L264.55 80.9L265.64 80.17L266.69 79.43L267.69 78.68L268.64 77.93L269.54 77.18L270.38 76.45L271.16 75.75L271.81 76.64L272.52 77.48L273.29 78.26L274.13 78.97L275.03 79.63L275.99 80.22L277.01 80.75L278.09 81.22L279.23 81.62L280.42 81.96L281.68 82.23L282.99 82.43L284.36 82.57L285.78 82.63H287.26L288.79 82.55L290.38 82.4L291.93 82.18L293.46 81.9L294.95 81.54L296.41 81.12L297.83 80.64L299.22 80.1L300.57 79.49L301.88 78.83L303.15 78.11L304.37 77.33L305.56 76.51L306.71 75.62L307.81 74.69L308.86 73.71L309.87 72.68L310.83 71.61L311.74 70.49L312.6 69.33L313.41 68.13L314.17 66.89L314.88 65.61L315.53 64.29L316.13 62.94L316.67 61.56L317.15 60.15L317.58 58.71L317.95 57.23L318.25 55.74L318.49 54.21L318.67 52.67L318.79 51.1L318.82 49.06L318.7 47.13L318.43 45.32L318.01 43.63L319.53 43.09L320.99 42.51L322.37 41.9L323.69 41.26L324.94 40.6L326.12 39.91L327.24 39.21L328.3 38.48L329.3 37.75L330.24 37.01L331.12 36.26L331.94 35.51L332.71 34.77L333.43 34.03L334.09 33.29L334.71 32.57L335.27 31.87L335.79 31.19L336.26 30.53L336.69 29.9L337.08 29.29L337.42 28.73L337.73 28.19L337.99 27.7L338.22 27.26L338.42 26.86L338.58 26.51L338.7 26.22L338.8 25.99L338.87 25.82L338.92 25.68L338.56 25.7Z" fill="#8DD5F6"/>
<path d="M301.71 53.22L301.68 54.32L301.57 55.71L301.38 57.1L301.12 58.47L300.8 59.82L300.4 61.13L299.93 62.39L299.41 63.59L298.81 64.73L298.16 65.78L297.45 66.73L296.69 67.58L295.87 68.32L294.99 68.93L294.07 69.39L293.09 69.71L292.07 69.87L291.15 69.9L290.3 69.84L289.52 69.7L288.82 69.48L288.19 69.18L287.63 68.8L287.13 68.34L286.71 67.8L286.34 67.19L286.04 66.5L285.8 65.74L285.62 64.9L285.49 63.99L285.42 63.02L285.41 61.97L285.44 60.85L285.55 59.52L285.73 58.18L285.98 56.86L286.3 55.57L286.69 54.3L287.16 53.08L287.7 51.92L288.31 50.82L289 49.8L289.76 48.87L290.59 48.04L291.5 47.32L292.48 46.72L293.53 46.26L294.66 45.93L295.86 45.77L296.59 45.75L297.27 45.8L297.91 45.93L298.5 46.13L299.04 46.41L299.54 46.76L299.99 47.18L300.39 47.67L300.73 48.24L301.03 48.88L301.28 49.6L301.47 50.4L301.6 51.26L301.69 52.21L301.71 53.22Z" fill="#D54127"/>
<path d="M248.25 50.81L248.26 51.36L248.15 52.14L247.91 52.88L247.55 53.6L247.08 54.27L246.5 54.92L245.82 55.53L245.05 56.11L244.19 56.65L243.25 57.15L242.24 57.62L241.16 58.06L240.03 58.46L238.85 58.82L237.62 59.14L236.35 59.43L235.06 59.68L235.47 57.86L235.84 57.02L236.25 56.19L236.69 55.37L237.16 54.56L237.66 53.78L238.19 53.03L238.75 52.31L239.34 51.64L239.96 51.01L240.62 50.44L241.3 49.93L242.02 49.49L242.76 49.12L243.53 48.83L244.33 48.63L245.17 48.52L246 48.53L246.68 48.68L247.23 48.95L247.65 49.32L247.95 49.77L248.15 50.27L248.25 50.81Z" fill="#D54127"/>
<path d="M33.22 138.36C46.81 138.36 53.09 143.91 53.09 153.55C53.09 167.36 43.81 176.12 28.84 176.12H25.11L23.72 186.57H10.5L17.07 138.36H33.21H33.22ZM29.28 165.39C35.93 165.39 39.36 162.03 39.36 155.89C39.36 151.07 37.1 149.17 32.2 149.17H28.77L26.58 165.39H29.28Z" fill="#0B6384"/>
<path d="M82.3 153.99L80.55 166.12L79.89 166.34C78.79 165.68 76.75 165.24 73.97 165.24C72.22 165.24 70.1 165.53 68.13 166.7L65.35 186.57H52.79L57.25 154.5H69.08L69.23 158.74C72.01 155.75 75.51 153.55 79.53 153.55C80.7 153.55 81.5 153.7 82.31 153.99H82.3Z" fill="#0B6384"/>
<path d="M80.1899 173.57C80.1899 161.66 88.2199 153.56 100.5 153.56C110.07 153.56 115.77 158.53 115.77 167.07C115.77 178.9 107.66 187.52 95.5399 187.52C85.8999 187.52 80.1999 182.19 80.1999 173.57H80.1899ZM102.61 168.6C102.61 164.87 101.22 163.05 98.9599 163.05C94.9399 163.05 93.2599 167.72 93.2599 172.11C93.2599 175.91 94.2799 178.03 97.5699 178.03C100.86 178.03 102.61 173.06 102.61 168.61V168.6Z" fill="#0B6384"/>
<path d="M174.93 179.34L174.13 186.06C172.67 186.79 170.62 187.52 167.04 187.52C160.76 187.52 157.47 184.74 158.27 178.61L159.29 170.21C159.87 165.46 159.29 163.93 157.54 163.93C154.18 163.93 152.13 168.68 151.19 173.57L149.51 186.57H136.95L139.14 170.21C139.8 165.46 139.29 163.93 137.31 163.93C134.17 163.93 132.05 168.39 131.03 173.72L129.28 186.58H116.72L121.32 154.51H132.86L132.42 159.77C135.05 155.61 138.56 153.56 143.16 153.56C148.13 153.56 151.12 156.26 152 160.65C154.78 155.9 158.43 153.56 163.32 153.56C170.11 153.56 173.47 158.82 172.45 166.56L171.21 175.69C170.77 178.98 171.94 179.49 173.26 179.49C173.77 179.49 174.5 179.42 174.94 179.34H174.93Z" fill="#0B6384"/>
<path d="M205.09 175.61L206.7 183.21C203.78 185.18 199.61 187.52 192.53 187.52C180.84 187.52 176.53 181.24 176.53 173.2C176.53 162.1 184.71 153.55 196.76 153.55C204.87 153.55 209.4 157.49 209.4 163.19C209.4 171.81 199.32 175.83 189.39 174.8C189.9 177.28 191.51 178.53 195.23 178.53C198.95 178.53 202.17 177.36 205.09 175.61ZM189.9 167.94C194.14 168.01 197.5 167.14 197.5 164.14C197.5 163.12 197.21 161.95 195.38 161.95C192.53 161.95 190.78 164.8 189.9 167.94Z" fill="#0B6384"/>
<path d="M248.7 179.34L247.97 186.06C246.51 186.79 244.03 187.52 240.74 187.52C234.24 187.52 230.95 185.04 231.9 178.1L233 170.21C233.66 165.46 232.93 163.93 230.81 163.93C227.6 163.93 225.62 168.17 224.67 172.84L222.77 186.57H210.21L214.74 154.5H226.28L225.91 159.47C228.54 155.53 232.05 153.55 236.57 153.55C243.87 153.55 247.16 158.81 246.07 166.55L244.83 175.68C244.39 178.97 245.63 179.48 246.95 179.48C247.61 179.48 248.34 179.41 248.7 179.33V179.34Z" fill="#0B6384"/>
<path d="M284.13 175.69C283.69 178.9 284.28 180 287.71 179.34L286.83 186.06C285.37 186.79 282.52 187.52 279.09 187.52C275 187.52 272.74 185.55 271.93 182.33C268.79 185.69 264.92 187.52 260.75 187.52C253.66 187.52 250.16 182.19 250.16 175.1C250.16 162.97 257.03 153.55 268.64 153.55C271.71 153.55 274.12 154.35 276.16 155.67L276.89 154.5H287.12L284.13 175.68V175.69ZM271.71 174.52L273.24 163.64C272.22 163.13 271.05 162.84 269.73 162.84C265.27 162.84 263.16 167 263.16 172.26C263.16 175.69 264.33 177.52 266.52 177.52C268.71 177.52 270.46 176.35 271.71 174.53V174.52ZM288.36 137.56L274.7 150.56H265.42L276.16 137.56H288.36Z" fill="#0B6384"/>
<path d="M323.21 175.69C322.7 179.34 323.72 179.71 326.94 179.34L326.06 186.06C324.6 186.79 321.75 187.52 318.32 187.52C313.94 187.52 311.75 185.55 311.02 182.04C307.81 185.62 303.86 187.52 299.62 187.52C292.53 187.52 289.03 182.19 289.03 175.1C289.03 162.97 295.9 153.55 307.51 153.55C309.92 153.55 311.89 153.99 313.57 154.86L316.27 135.43H328.83L323.21 175.68V175.69ZM310.87 174.01L312.33 163.71C311.31 163.2 309.99 162.83 308.6 162.83C304.14 162.83 302.03 166.99 302.03 172.25C302.03 175.68 303.2 177.51 305.39 177.51C307.87 177.51 309.63 176.12 310.87 174V174.01Z" fill="#0B6384"/>
<path d="M362.22 175.69C361.78 178.9 362.37 180 365.8 179.34L364.92 186.06C363.46 186.79 360.61 187.52 357.18 187.52C353.09 187.52 350.83 185.55 350.02 182.33C346.88 185.69 343.01 187.52 338.84 187.52C331.75 187.52 328.25 182.19 328.25 175.1C328.25 162.97 335.12 153.55 346.73 153.55C349.8 153.55 352.21 154.35 354.25 155.67L354.98 154.5H365.21L362.22 175.68V175.69ZM349.8 174.52L351.33 163.64C350.31 163.13 349.14 162.84 347.82 162.84C343.36 162.84 341.25 167 341.25 172.26C341.25 175.69 342.42 177.52 344.61 177.52C346.8 177.52 348.55 176.35 349.8 174.53V174.52Z" fill="#0B6384"/>
</g>
<defs>
<clipPath id="clip0_2259_19206">
<rect width="376.3" height="198.02" fill="white"/>
</clipPath>
</defs>
</svg>
