<svg width="169" height="81" viewBox="0 0 169 81" fill="none" xmlns="http://www.w3.org/2000/svg">
<path d="M143.112 8.31415L142.974 8.32345L142.81 8.3343L142.59 8.3498L142.319 8.3684L142.002 8.3901L141.647 8.4149L141.257 8.4428L140.838 8.47225L140.397 8.50325L139.936 8.5358L139.463 8.5699L138.983 8.604L138.501 8.6381L138.022 8.6722L137.552 8.7063L137.318 9.20075L137.08 9.65955L136.838 10.0827L136.593 10.4733L136.346 10.8314L136.1 11.16L135.854 11.4591L135.607 11.7304L135.362 11.9753L135.12 12.1954L134.882 12.3922L134.648 12.5658L134.418 12.7193L134.195 12.8526L133.98 12.9673L133.772 13.0649L133.236 12.572L132.623 12.1504L131.938 11.8017L131.182 11.5273L130.356 11.3289L129.46 11.2065L128.497 11.1631L127.47 11.1987L126.848 11.2561L126.239 11.3382L125.642 11.4467L125.059 11.5785L124.49 11.735L123.936 11.9148L123.396 12.1179L122.871 12.3426L122.361 12.5891L121.868 12.8572L121.39 13.1455L120.93 13.4555L120.487 13.7841L120.06 14.1329L119.653 14.5002L119.264 14.8862L118.893 15.2892L118.541 15.7092L118.208 16.1463L117.895 16.6005L117.602 17.0701L117.58 17.1089L113.445 13.2912L113.406 13.2494L113.13 13.0262L112.827 12.8371L113.555 8.9512L106.499 2.43652L100.202 2.88448L99.6686 5.71169L96.8631 3.12163H96.8429L96.8274 3.12473H96.8073L96.784 3.12783H96.7561L96.7252 3.13248L96.6895 3.13558L96.6507 3.13868L96.6073 3.14178L96.5608 3.14488L96.5112 3.14798L96.4585 3.15108L96.4012 3.15573L96.3407 3.16038L96.2772 3.16503L96.2105 3.16968L96.1408 3.17433L96.0679 3.17898L95.9935 3.18363L95.916 3.18983L95.8354 3.19603L95.7533 3.20223L95.668 3.20843L95.5797 3.21463L95.4898 3.22083L95.3968 3.22703L95.3022 3.23323L95.2061 3.23943L95.1069 3.24563L95.0062 3.25338L94.9039 3.26113L94.8 3.26888L94.6946 3.27663L94.5877 3.28438L94.4792 3.29213L94.3691 3.29988L94.2575 3.30763L94.1444 3.31538L94.0312 3.32313L93.9165 3.33088L93.8003 3.33863L93.684 3.34638L93.5662 3.35413L93.4484 3.36188L93.3291 3.36963L93.2097 3.37738L93.0904 3.38513L92.971 3.39443L92.8501 3.40373L92.7292 3.41303L92.6083 3.42233L92.4874 3.43163L92.3665 3.44093L92.2456 3.45023L92.1247 3.45953L92.0054 3.46883L91.886 3.47658L91.7667 3.48433L91.6489 3.49208L91.5311 3.49983L91.4133 3.50758L91.297 3.51533L91.2381 3.66723L91.1792 3.81603L91.1203 3.96173L91.0614 4.10433L91.0025 4.24383L90.9436 4.38023L90.8847 4.51353L90.8258 4.64373L90.7669 4.77083L90.708 4.89483L90.6491 5.01573L90.5902 5.13353L90.5313 5.24823L90.4724 5.36138L90.4135 5.47144L90.3546 5.57839L90.2957 5.68224L90.2384 5.78454L90.181 5.88374L90.1237 5.98139L90.0663 6.07594L90.009 6.16894L89.9516 6.25884L89.8943 6.34719L89.8369 6.43244L89.7796 6.51614L89.7222 6.59674L89.6649 6.67579L89.6075 6.75329L89.5517 6.82924L89.4959 6.90209L89.4401 6.97339L89.3843 7.04314L89.3549 7.07879L85.9139 3.90128L85.8255 3.90748L85.7356 3.91368L85.6441 3.91988L85.5511 3.92608L85.4566 3.93228L85.362 3.93848L85.2659 3.94468L85.1683 3.95088L85.0706 3.95708L84.9715 3.96328L84.8722 3.97103L84.773 3.97878L84.6723 3.98653L84.5715 3.99428L84.4708 4.00203L84.37 4.00978L84.2693 4.01753L84.1685 4.02528L84.0678 4.03303L83.967 4.04078L83.8663 4.04853L83.7671 4.05628L83.6679 4.06403L83.5687 4.07178L83.471 4.07798L83.3734 4.08418L83.2773 4.09038L83.1812 4.09658L83.0866 4.10278L82.9936 4.10898L82.9006 4.11518L82.8092 4.12138L82.7193 4.12758L82.6309 4.13378L82.5441 4.13998L82.4589 4.14618L82.3752 4.15238L82.293 4.15858L82.214 4.16478L82.1365 4.17098L82.0605 4.17563L81.9877 4.18028L81.9164 4.18493L81.8482 4.18958L81.7815 4.19423L81.718 4.19888L81.6575 4.20353L81.6002 4.20818L81.5444 4.21283L81.4917 4.21593L81.4421 4.21903L81.3956 4.22213L81.3522 4.22523L81.3119 4.22833L81.2747 4.23143L81.2421 4.23453H81.2127L81.1863 4.23918H81.1646L81.146 4.24228H81.1212L81.1119 4.25313V4.26243L81.1088 4.27638L81.1057 4.29343L81.1026 4.31358L81.0995 4.33838L81.0964 4.36628L81.0933 4.39728L81.0887 4.43138L81.084 4.47013L81.0794 4.51198L81.0763 4.55693L81.0732 4.60498L81.0701 4.65613L81.067 4.71038L81.0639 4.77083L81.0608 4.83438V4.90103L81.0577 4.97078V5.19708L81.0623 5.27768L81.0654 5.36138L81.0701 5.44819L81.0763 5.53654L81.084 5.62799L81.0933 5.72099L81.1042 5.81709L81.1166 5.91474L81.1305 6.01549L81.146 6.11779L81.1631 6.22164L81.1817 6.32704L81.2034 6.43554L81.2266 6.54559L81.2514 6.65719L81.2793 6.77034L81.3088 6.88504L81.3413 7.00129L81.377 7.11754L81.4142 7.23534L81.4545 7.35469L81.4979 7.47559L81.5444 7.59649L81.594 7.71894L81.6467 7.84139L81.7025 7.96539L81.7614 8.0894L81.8234 8.21495L81.8885 8.3405L81.9567 8.46605L82.0295 8.59315L82.1055 8.72025L82.1845 8.84735L82.2682 8.97445L82.355 9.10155L82.4465 9.22865L82.541 9.35575L82.6402 9.48285L82.7441 9.60995L82.8526 9.73705L82.9642 9.8626L83.0804 9.98815L83.2013 10.1137L83.3269 10.2377L83.4571 10.3617L83.5315 10.4299L83.5113 10.4361L87.4344 14.0585L87.1942 14.0678L86.5943 14.1236L86.0069 14.2057L85.4318 14.3142L84.8707 14.4475L84.322 14.6056L83.7872 14.7885L83.2664 14.9947L82.7596 15.2225L82.2682 15.4736L82.1365 15.5496L82.1644 15.4752L82.1985 15.3775L82.231 15.2799L82.2605 15.1822L82.2884 15.083L82.3132 14.9838L82.3364 14.8846L82.3566 14.7839L82.3814 14.6444L82.4 14.5064L82.4139 14.37L82.4232 14.2352L82.4263 14.1468V13.8849L82.4201 13.7996L82.4139 13.7159L82.4046 13.6322L82.3938 13.5501L82.3814 13.4679L82.3674 13.3873L82.3504 13.3083L82.3318 13.2292L82.3116 13.1517L82.2899 13.0758L82.2651 12.9998L82.2388 12.9254L82.2109 12.8526L82.1814 12.7813L82.1504 12.71L82.1179 12.6402L82.0838 12.572L82.0466 12.5054L82.0078 12.4403L81.9675 12.3767L81.9257 12.3132L81.8823 12.2512L81.8373 12.1907L81.7908 12.1318L81.7428 12.0745L81.7056 12.0326L81.7397 12.0218L74.6841 5.50709L74.65 5.51794L74.6376 5.50399L74.5864 5.44974L74.5337 5.39703L74.4795 5.34589L74.4237 5.29628L74.3663 5.24823L74.3074 5.20173L74.247 5.15678L74.185 5.11338L74.1214 5.07153L74.0579 5.03123L73.9928 4.99248L73.9261 4.95528L73.8579 4.91963L73.7882 4.88553L73.7169 4.85298L73.644 4.82353L73.5712 4.79563L73.4968 4.76928L73.4208 4.74448L73.3433 4.72123L73.2658 4.70108L73.1868 4.68248L73.1061 4.66543L73.024 4.64993L72.9418 4.63598L72.8581 4.62513L72.7729 4.61583L72.6876 4.60808L72.6008 4.60343L72.5125 4.60033H72.3342L72.2443 4.60343L72.1529 4.60963L72.0521 4.61738L71.9514 4.62823L71.8506 4.64218L71.7514 4.65768L71.6522 4.67628L71.553 4.69643L71.4538 4.71968L71.3562 4.74448L71.2585 4.77238L71.1609 4.80183L71.0632 4.83438L70.9671 4.86848L70.871 4.90413L70.7765 4.94288L70.6819 4.98318L70.5889 5.02503L70.4959 5.06998L70.4029 5.11648L70.3115 5.16453L70.2216 5.21413L70.1317 5.26683L70.0433 5.32108L69.955 5.37688L69.8682 5.43424L69.7814 5.49314L69.6961 5.55359L69.6124 5.61559L69.5303 5.67914L69.4481 5.74424L69.3675 5.81244L69.2885 5.88064L69.211 5.95039L69.1335 6.02169L69.0575 6.09454L68.9831 6.16894L68.9103 6.24489L68.839 6.32239L68.7692 6.40144L68.701 6.48204L68.6344 6.56419L68.5693 6.64634L68.5057 6.73004L68.4437 6.81529L68.3833 6.90209L68.3244 6.98889L68.267 7.07724L68.2112 7.16714L68.157 7.25704L68.1058 7.34849L68.0562 7.44149L68.0082 7.53449L67.9617 7.62904L67.9167 7.72359L67.8749 7.81969L67.8346 7.91579L67.7958 8.01345L67.7602 8.1111L67.7261 8.2103L67.6935 8.3095L67.6641 8.41025L67.6362 8.511L67.6114 8.61175L67.5881 8.71405L67.568 8.81635L67.5447 8.9512L67.5261 9.0845L67.5122 9.21625L67.5029 9.34645L67.4998 9.43325V9.69055L67.506 9.77425L67.5122 9.85795L67.5215 9.9401L67.5323 10.0223L67.5447 10.1029L67.5602 10.1819L67.5773 10.261L67.5959 10.3385L67.616 10.4144L67.6393 10.4904L67.6641 10.5648L67.6904 10.6376L67.7183 10.7105L67.7478 10.7818L67.7803 10.8515L67.8144 10.9197L67.8501 10.9879L67.8873 11.0546L67.926 11.1197L67.9663 11.1832L68.0082 11.2452L68.0516 11.3057L68.0965 11.3661L68.143 11.425L68.1911 11.4824L68.2407 11.5382L68.2918 11.5924L68.3275 11.6281L68.2856 11.6405L72.5683 15.5945L70.561 15.7371L69.755 15.8255L69.0203 15.9665L68.3476 16.1556L67.7276 16.3866L67.1526 16.6532L66.6132 16.9508L66.1017 17.2732L65.6088 17.6142L65.1267 17.9691L64.6462 18.3318L64.1595 18.6961L63.8495 18.9177L61.1308 16.4083L54.7432 16.8624L54.8083 17.3336L54.8688 17.8389L54.923 18.3752L54.9664 18.941L54.9974 19.5331L55.0129 20.1515L55.0098 20.7948L54.985 21.4597L54.9633 21.8054L54.937 22.1588L54.9122 22.4239L49.5662 17.4886H49.5631L49.5585 17.484L49.3415 17.3181L49.0997 17.1802L48.8315 17.0701L48.5401 16.988L48.2239 16.9322L47.8844 16.9012L47.5217 16.895L47.1373 16.912L46.8134 16.9415L46.4817 16.9833L46.1453 17.036L45.8074 17.098L45.4695 17.1693L45.1332 17.2484L44.8015 17.3336L44.4775 17.4251L44.1629 17.5212L43.8591 17.6204L43.5692 17.7227L43.2964 17.8265L43.0422 17.9304L42.8082 18.0327L42.5974 18.1334L42.4114 18.2311L41.8611 22.2704L38.8557 19.4943L38.5038 19.1053L38.0977 18.7689L37.6374 18.4837L37.1228 18.2497L36.5524 18.0668L35.9261 17.9366L35.2441 17.8606L34.5063 17.8374L33.7112 17.8684L33.1113 17.9242L32.5239 18.0063L31.9488 18.1148L31.3862 18.2481L30.8375 18.4062L30.3027 18.5891L29.7819 18.7953L29.2751 19.0231L28.7837 19.2742L28.3079 19.547L27.8475 19.84L27.4027 20.1546L26.9749 20.4894L26.5641 20.8428L26.1704 21.2148L25.7938 21.6054L25.4357 22.0131L25.0963 22.4378L24.7754 22.8796L24.4732 23.3368L24.1895 23.8096L23.926 24.2978L23.6826 24.8L23.461 25.3146L23.2595 25.8432L23.0797 26.3841L22.9216 26.9359L22.7852 27.5001L22.672 28.0752L22.5806 28.6595L22.5124 29.2532L22.469 29.8561L22.4566 30.69L22.5093 31.4852L22.6271 32.2369L22.81 32.9437L23.0595 33.604L23.3757 34.2132L23.7586 34.7697L24.2081 35.2719L24.4964 35.5183H24.4918L31.1924 41.7059L31.2637 41.785L31.4714 41.9617L31.5489 42.033H31.5536L31.783 42.2283L32.3689 42.6111L32.7052 42.7754L19.3147 43.7256L18.3088 48.6298L22.9185 52.8861L25.3644 55.1445L141.189 46.9201L145.301 46.6287L146.307 41.7245L139.432 35.3757L139.253 35.2099L135.733 35.4594L135.815 35.4176L136.306 35.1386L136.782 34.8378L136.906 34.751L137.241 34.517L137.684 34.176L138.11 33.8148L138.518 33.4351L138.645 33.3049L138.909 33.0367L139.281 32.6213L139.634 32.1889L139.967 31.7394L140.211 31.3782L140.28 31.2744L140.37 31.1271L140.575 30.7939L140.831 30.332L140.849 30.2979L141.102 29.7895L141.179 29.6159L141.333 29.2671L141.396 29.1044L141.542 28.7324L141.668 28.3681L141.73 28.1852L141.795 27.9651L141.894 27.6257L142.007 27.17L142.035 27.0553L142.153 26.4756L142.247 25.8866L142.306 25.3766L142.317 25.2883L142.362 24.6807L142.367 24.4218L142.376 23.8902L142.353 23.529L142.328 23.1446L142.222 22.444L142.08 21.8689L142.06 21.7868L142.65 21.5775L143.213 21.3543L143.749 21.1187L144.259 20.8707L144.743 20.6134L145.202 20.3468L145.636 20.074L146.045 19.795L146.431 19.5114L146.793 19.2246L147.134 18.9348L147.454 18.6449L147.751 18.3566L148.029 18.0699L148.286 17.7862L148.525 17.5072L148.743 17.2344L148.945 16.9694L149.128 16.7136L149.294 16.4687L149.442 16.2347L149.576 16.0146L149.694 15.8084L149.796 15.6193L149.884 15.4473L149.959 15.2938L150.021 15.159L150.07 15.0458L150.107 14.9559L150.134 14.8893L150.154 14.835L143.098 8.32035L143.112 8.31415ZM49.5755 24.4265L49.7553 24.5923L49.6685 24.6342L49.5228 24.7117L49.5461 24.5815L49.574 24.4265H49.5755ZM123.509 26.1532L123.347 26.7065L123.226 27.1917L123.347 26.7065L123.509 26.1532L123.688 25.637L123.509 26.1532ZM122.964 28.6998L122.925 29.0393L122.88 29.65L122.869 30.0297L122.88 29.65L122.925 29.0393L122.964 28.6998ZM89.5781 31.2527L89.5827 31.0837L89.5781 31.2527ZM89.6261 30.27L89.685 29.7926L89.7191 29.5911L89.685 29.7926L89.6261 30.27ZM83.9081 28.2844L83.8074 28.5479L83.7175 28.8192L83.8074 28.5479L83.9081 28.2844ZM83.578 29.2594L83.4679 29.6422L83.3315 30.2064L83.2866 30.4358L83.3315 30.2064L83.4679 29.6422L83.578 29.2594ZM83.0153 32.5609L83.0587 31.9579L83.0897 31.682L83.0587 31.9579L83.0153 32.5609L83.0091 33.201L83.0153 32.5609ZM36.2423 33.3715L36.278 33.1669L36.2423 33.3715ZM36.0982 35.0502L36.1106 34.5449L36.1245 34.3698L36.1106 34.5449L36.0982 35.0502L36.1075 35.2858L36.0982 35.0502ZM49.994 33.8567L50.025 33.697L49.994 33.8567L49.9351 33.9094L49.994 33.8567ZM50.1041 33.2739L50.1087 33.2522L50.1041 33.2739L50.0932 33.3297L50.1041 33.2739ZM50.2157 32.6942L50.2699 32.409L50.3226 32.13L50.3738 31.8572L50.4218 31.5937L50.4296 31.5487L50.4218 31.5937L50.3738 31.8572L50.3226 32.13L50.2699 32.409L50.2157 32.6942L50.211 32.7159L50.2157 32.6942ZM50.5815 30.659L50.6063 30.4854L50.5815 30.659L50.5474 30.8714L50.5815 30.659ZM56.4265 32.0633L56.3723 32.3718L56.3196 32.6694L56.3103 32.7267L56.3196 32.6694L56.3723 32.3718L56.4265 32.0633L56.4482 31.9424L56.4265 32.0633ZM57.1271 28.1217L57.1566 27.9496L57.1798 27.8132L57.1566 27.9496L57.1271 28.1217ZM57.372 26.443V26.4601L57.3643 26.5593L57.3503 26.6879L57.3643 26.5593L57.372 26.4601V26.443ZM57.3054 27.0212L57.2899 27.1266L57.3054 27.0212L57.3178 26.9313L57.3054 27.0212ZM57.0078 28.8161L56.9535 29.1276L56.9411 29.202L56.9535 29.1276L57.0078 28.8161L57.0124 28.7944L57.0078 28.8161ZM56.8218 29.8608L56.7784 30.0995L56.7195 30.4312L56.659 30.7644L56.6001 31.0961L56.5412 31.4247L56.5226 31.527L56.5412 31.4247L56.6001 31.0961L56.659 30.7644L56.7195 30.4312L56.7784 30.0995L56.8218 29.8608ZM49.1834 34.5465L48.9044 34.7666L48.5618 35.0192L48.9044 34.7666L49.1834 34.5465ZM42.8841 41.9415L43.2298 41.7679L43.3677 41.6982L43.8358 41.444L44.29 41.182L44.4326 41.0952L44.7286 40.9139L44.9394 40.7775L45.1502 40.6411L45.5563 40.3636L45.9469 40.0846L46.2461 39.8614L46.3205 39.8056L46.677 39.5266L47.0164 39.2507L47.3001 39.0105L47.3373 38.9779L47.6395 38.7129L47.9232 38.454L48.1883 38.2045L48.2859 38.1099L48.4331 37.9658L48.5292 37.8697L48.6579 37.741L48.8641 37.5287L48.8827 37.5085L49.0501 37.3318L49.2144 37.152L49.357 36.9908L49.4779 36.8498L49.5585 36.7537L49.5771 36.7304L49.5833 37.3582L49.6406 37.958L49.7197 38.3703L49.7491 38.5269L49.9103 39.0647L50.0343 39.3577L50.1227 39.5669L50.2405 39.7715L50.3893 40.0319L50.6032 40.3156L50.7101 40.4582L51.0868 40.8426L51.2743 40.9898L51.5192 41.182L51.6742 41.275L51.885 41.4021L42.6268 42.0593L42.6563 42.0454L42.8841 41.94V41.9415ZM61.2285 40.7294L61.3493 40.6659L61.4594 40.6008L61.8361 40.3791L62.3057 40.0707L62.7583 39.7405L63.1923 39.3902L63.6093 39.0182L63.8495 38.7826L64.0092 38.6261L64.2029 38.4168L64.3905 38.2153L64.7547 37.786L65.1019 37.338L65.4321 36.8715L65.7452 36.3879L65.8428 36.222L66.0397 35.8888L66.2334 35.5276L66.3171 35.3726L66.4039 35.1959L66.5775 34.841L66.5946 34.8022L72.1808 39.9606L61.2006 40.7403L61.2253 40.7279L61.2285 40.7294ZM80.1044 39.3236L80.3679 39.1624L80.6314 39.0012L81.1259 38.6679L81.3165 38.5284L81.5878 38.33L81.7939 38.1673L82.0171 37.9906L82.4155 37.6558L82.5007 37.5798L82.7813 37.3318L82.9487 37.1784L83.1161 37.0249L83.2974 36.8529L83.4168 36.7397L83.6865 36.4824L83.9035 36.887L83.9515 36.9614L84.1499 37.2683L84.4258 37.6248L84.7327 37.9565L85.0706 38.2618L85.438 38.5408L85.7805 38.7578L85.8364 38.7919L86.1774 38.9686L79.9417 39.4119L80.1044 39.3236ZM96.4151 38.1192L96.8584 37.8945L97.2893 37.662L97.7078 37.4217L97.9109 37.2993L98.114 37.1768L98.5061 36.9257L98.8843 36.6715L99.0982 36.5212L99.2486 36.4158L99.4826 36.2437L101.274 37.8991L96.1082 38.2665L96.4151 38.1208V38.1192ZM108.966 33.2553L112.452 36.4747L112.603 36.5971H112.607L112.707 36.6886L113.127 36.9877L113.188 37.0311L113.22 37.0497L108.187 37.4078L108.966 33.2568V33.2553ZM120.932 36.4778L121.15 36.3429L121.369 36.2081L121.79 35.9275L122.113 35.6997L122.196 35.6408L122.584 35.3494L122.953 35.0579L123.055 34.9743L123.302 34.7697L123.443 34.6472L123.627 34.4875L123.929 34.2163L124.179 34.562L124.453 34.8859L124.602 35.0363L124.752 35.1866L125.076 35.4641L125.321 35.6423L125.425 35.7183L125.611 35.833L125.797 35.9477L125.854 35.9771L126.15 36.1306L120.882 36.5041L120.928 36.4778H120.932ZM121.375 30.2746L118.562 27.6768L121.375 30.2746ZM57.3069 25.2821L57.262 25.0976L57.3069 25.2821L57.3302 25.4386L57.3069 25.2821ZM56.9814 24.411L56.8512 24.2312L56.9814 24.411L57.0884 24.614L56.9814 24.411ZM56.6327 23.994L56.752 24.1165L56.6327 23.994ZM48.8842 29.1028L48.9617 29.0858L48.8842 29.1028ZM30.5957 31.6603L30.529 31.8153L30.3554 32.271L30.529 31.8153L30.5957 31.6603ZM30.1477 32.8848L30.2671 32.5237L30.1477 32.8848L29.9896 33.4366L29.9338 33.6707L29.9896 33.4366L30.1477 32.8848ZM140.817 11.7211L140.482 11.4126L140.817 11.7211ZM133.902 17.7707L134.524 17.7134L135.325 17.6855L134.524 17.7134L133.902 17.7707L133.721 17.7955L133.902 17.7707ZM131.544 18.2497L132.113 18.0931L132.323 18.0451L132.113 18.0931L131.544 18.2497L130.99 18.4295L130.816 18.4946L130.99 18.4295L131.544 18.2497ZM129.925 18.8557L130.112 18.7751L129.925 18.8557L129.415 19.1022L129.164 19.2386L129.415 19.1022L129.925 18.8557ZM71.6352 24.8961L71.2291 25.1999L70.978 25.3797L71.2291 25.1999L71.6352 24.8961Z" fill="#D44126"/>
<path d="M96.8599 3.29673L96.8614 3.25643L96.863 3.22078V3.19133L96.8645 3.16653V3.14638V3.13243L96.863 3.12158L96.8428 3.12313L96.8289 3.12468L96.8087 3.12623L96.7855 3.12778L96.7576 3.12933L96.7266 3.13088L96.6909 3.13398L96.6522 3.13708L96.6088 3.14018L96.5623 3.14328L96.5127 3.14638L96.4584 3.15103L96.4026 3.15413L96.3422 3.15878L96.2786 3.16343L96.2135 3.16808L96.1438 3.17273L96.0725 3.17738L95.9965 3.18358L95.919 3.18823L95.8384 3.19443L95.7563 3.20063L95.671 3.20683L95.5827 3.21303L95.4928 3.21923L95.3998 3.22543L95.3068 3.23163L95.2091 3.23938L95.1115 3.24558L95.0107 3.25333L94.9084 3.26108L94.8046 3.26728L94.6992 3.27503L94.5922 3.28278L94.4837 3.29053L94.3737 3.29828L94.2621 3.30603L94.1489 3.31378L94.0358 3.32308L93.9211 3.33083L93.8048 3.33858L93.6886 3.34788L93.5708 3.35563L93.453 3.36338L93.3352 3.37268L93.2158 3.38043L93.0965 3.38973L92.9756 3.39748L92.8562 3.40678L92.7353 3.41453L92.6144 3.42383L92.4935 3.43158L92.3726 3.44088L92.2533 3.44863L92.1324 3.45793L92.013 3.46568L91.8937 3.47498L91.7743 3.48273L91.655 3.49203L91.5372 3.49978L91.4209 3.50753L91.3047 3.51683L91.2458 3.66873L91.1853 3.81753L91.1264 3.96169L91.0675 4.10429L91.0086 4.24379L90.9497 4.37864L90.8893 4.51194L90.8304 4.64214L90.7715 4.76769L90.7126 4.89169L90.6552 5.01259L90.5963 5.13039L90.5374 5.24664L90.4785 5.35824L90.4196 5.46829L90.3623 5.57524L90.3034 5.68064L90.246 5.78294L90.1871 5.88214L90.1298 5.97979L90.0724 6.07434L90.0151 6.16579L89.9577 6.25569L89.9004 6.34405L89.843 6.4293L89.7857 6.513L89.7283 6.5936L89.671 6.6742L89.6151 6.75015L89.5578 6.8261L89.502 6.89895L89.4462 6.97025L89.3889 7.04L89.3331 7.1082L89.2772 7.1733L89.2214 7.2384L89.1672 7.3004L89.1114 7.3624L89.0556 7.4213L89.0014 7.4802L88.9471 7.536L88.8928 7.5918L88.8386 7.64605L88.7843 7.69875L88.7301 7.7499L88.6758 7.7995L88.6231 7.8491L88.5689 7.89715L88.5162 7.94365L88.4635 7.9886L88.4108 8.03355L88.3581 8.0785L88.3054 8.12035L88.2542 8.16375L88.2015 8.20405L88.1504 8.2459L88.0992 8.2862L88.0481 8.32495L87.9969 8.3637L87.9473 8.40245L87.8962 8.43965L87.8466 8.47685L87.797 8.51405L87.7474 8.55125L87.7365 8.5435L87.7195 8.5311L87.7086 8.5218L87.6947 8.51095L87.6792 8.49855L87.6621 8.4846L87.6435 8.46755L87.6234 8.4505L87.6017 8.43035L87.5784 8.40865L87.5536 8.38385L87.5273 8.3575L87.4994 8.3296L87.4699 8.30015L87.4405 8.2676L87.4095 8.2335L87.3769 8.1963L87.3444 8.15755L87.3103 8.11725L87.2746 8.07385L87.239 8.02735L87.2033 7.9793L87.1661 7.9297L87.1289 7.877L87.0902 7.8212L87.0514 7.76385L87.0127 7.7034L86.9739 7.63985L86.9336 7.57475L86.8949 7.50655L86.8546 7.43525L86.8143 7.3624L86.774 7.2849L86.7337 7.20585L86.6949 7.12525L86.6546 7.04L86.6159 6.95165L86.5771 6.86175L86.5384 6.76875L86.4996 6.6711L86.4624 6.5719L86.4252 6.4696L86.388 6.3642L86.3524 6.25569L86.3183 6.14409L86.2842 6.02939L86.2516 5.91004L86.2191 5.78914L86.1881 5.66514L86.1571 5.53649L86.1292 5.40474L86.1013 5.26989L86.0749 5.13194L86.0501 4.99089L86.0269 4.84519L86.0036 4.69639L85.9835 4.54449L85.9649 4.38794L85.9478 4.22829L85.9323 4.06554L85.9184 3.89814L85.83 3.90589L85.7401 3.91209L85.6487 3.91829L85.5557 3.92449L85.4611 3.93069L85.365 3.93844L85.2689 3.94464L85.1728 3.95239L85.0752 3.95859L84.976 3.96634L84.8768 3.97254L84.7776 3.98029L84.6768 3.98649L84.5776 3.99424L84.4769 4.00199L84.3761 4.00819L84.2754 4.01594L84.1746 4.02214L84.0739 4.02989L83.9731 4.03764L83.8724 4.04384L83.7732 4.05159L83.674 4.05779L83.5748 4.06554L83.4771 4.07174L83.3795 4.07949L83.2818 4.08569L83.1873 4.09344L83.0927 4.09964L82.9982 4.10584L82.9067 4.11204L82.8153 4.11979L82.7254 4.12599L82.637 4.13219L82.5518 4.13839L82.4665 4.14459L82.3828 4.14924L82.3022 4.15544L82.2216 4.16164L82.1441 4.16629L82.0697 4.17249L81.9969 4.17714L81.9256 4.18179L81.8574 4.18799L81.7907 4.19264L81.7272 4.19574L81.6667 4.20039L81.6078 4.20504L81.5536 4.20814L81.5009 4.21279L81.4513 4.21589L81.4048 4.21899L81.3614 4.22209L81.3226 4.22519L81.2854 4.22829L81.2529 4.22984L81.2234 4.23294L81.1971 4.23449L81.1754 4.23604L81.1568 4.23759H81.1428L81.132 4.23914L81.1227 4.24689L81.1211 4.25619L81.118 4.27014L81.1165 4.28719L81.1134 4.30889L81.1087 4.33214L81.1056 4.36004L81.1025 4.39259L81.0979 4.42669L81.0948 4.46389L81.0901 4.50574L81.087 4.55069L81.0824 4.59719L81.0793 4.64834L81.0762 4.70259L81.0731 4.76149L81.0715 4.82504L81.07 4.89169L81.0684 4.96144V5.03429V5.10869L81.07 5.18774L81.0731 5.26834L81.0762 5.35204L81.0808 5.43884L81.087 5.52719L81.0948 5.61864L81.1025 5.71164L81.1134 5.80774L81.1258 5.90539L81.1397 6.00614L81.1537 6.10689L81.1723 6.21229L81.1909 6.31769L81.2126 6.42465L81.2358 6.5347L81.2606 6.6463L81.2885 6.7579L81.3195 6.8726L81.3521 6.98885L81.3877 7.1051L81.4249 7.2229L81.4652 7.34225L81.5086 7.46315L81.5551 7.58405L81.6032 7.7065L81.6559 7.8305L81.7117 7.9545L81.769 8.0785L81.831 8.20405L81.8961 8.3296L81.9659 8.45515L82.0372 8.58225L82.1131 8.70935L82.1922 8.83645L82.2759 8.96356L82.3627 9.09066L82.4541 9.21931L82.5502 9.34641L82.6494 9.47351L82.7517 9.60061L82.8602 9.72616L82.9718 9.85326L83.0896 9.97881L83.2105 10.1028L83.3361 10.2284L83.4663 10.3524L83.6027 10.4748L83.7422 10.5973L83.8879 10.7182L84.0382 10.8375L84.1932 10.9569L84.3544 11.0747L84.5203 11.1909L84.6923 11.3072L84.869 11.4203L85.0504 11.5319L85.2395 11.6435L85.4332 11.752L89.5965 11.456L89.9035 11.3149L90.2011 11.1723L90.4894 11.0266L90.7699 10.8809L91.0427 10.7337L91.3062 10.5833L91.562 10.4345L91.81 10.2826L92.0502 10.1307L92.2827 9.97726L92.5075 9.82226L92.7245 9.66726L92.9353 9.51226L93.1383 9.35726L93.3336 9.20071L93.5227 9.04416L93.7041 8.88761L93.8792 8.73106L94.0482 8.5745L94.2094 8.41795L94.3659 8.2614L94.5147 8.1064L94.6589 7.9514L94.7953 7.7964L94.927 7.64295L95.0541 7.4895L95.1735 7.3376L95.2882 7.1857L95.3982 7.03535L95.5036 6.88655L95.6028 6.7393L95.6974 6.59205L95.7857 6.4479L95.871 6.30529L95.9516 6.16269L96.0275 6.02319L96.0988 5.88679L96.1655 5.75039L96.229 5.61709L96.2895 5.48689L96.3437 5.35824L96.3964 5.23114L96.4445 5.10869L96.4894 4.98779L96.5313 4.86844L96.57 4.75374L96.6041 4.64214L96.6367 4.53209L96.6661 4.42669L96.694 4.32439L96.7173 4.22519L96.7405 4.12909L96.7591 4.03764L96.7777 3.94929L96.7932 3.86559L96.8056 3.78498L96.818 3.70748L96.8273 3.63618L96.8366 3.56798L96.8428 3.50443L96.849 3.44553L96.8537 3.39128L96.8568 3.34168L96.8599 3.29673Z" fill="#8CD5F5"/>
<path d="M138.256 40.1047L139.262 35.199L19.3255 43.7163L18.318 48.6205L138.256 40.1047Z" fill="#8CD5F5"/>
<path d="M75.3814 7.7096L75.3845 7.62125L75.3861 7.5329V7.4461L75.383 7.3593L75.3783 7.27405L75.3721 7.19035L75.3628 7.10665L75.352 7.0245L75.3396 6.94235L75.3256 6.86175L75.3086 6.7827L75.29 6.70365L75.2698 6.62615L75.2481 6.5502L75.2233 6.4758L75.1985 6.4014L75.1706 6.32855L75.1412 6.25725L75.1102 6.18595L75.0761 6.1162L75.042 6.04955L75.0048 5.98135L74.9676 5.91625L74.9273 5.8527L74.8854 5.78915L74.842 5.72715L74.7986 5.66824L74.7521 5.60934L74.7041 5.55199L74.6545 5.49619L74.6033 5.44194L74.5506 5.38769L74.4964 5.33654L74.4406 5.28694L74.3832 5.23889L74.3243 5.19084L74.2639 5.14589L74.2034 5.10249L74.1399 5.06064L74.0763 5.02034L74.0112 4.98159L73.943 4.94439L73.8748 4.90874L73.8051 4.87464L73.7353 4.84364L73.6625 4.81264L73.5896 4.78474L73.5152 4.75839L73.4393 4.73359L73.3618 4.71034L73.2843 4.69019L73.2052 4.67004L73.1246 4.65299L73.0425 4.63904L72.9603 4.62509L72.8766 4.61424L72.7914 4.60494L72.7061 4.59719L72.6193 4.59254L72.531 4.58944L72.4426 4.58789L72.3527 4.58944L72.2628 4.59254L72.1714 4.59874L72.0706 4.60649L71.9699 4.61734L71.8707 4.63129L71.7699 4.64679L71.6707 4.66539L71.5715 4.68554L71.4723 4.70879L71.3747 4.73359L71.277 4.76149L71.1794 4.79094L71.0817 4.82194L70.9856 4.85604L70.8911 4.89169L70.795 4.93044L70.7004 4.97074L70.6074 5.01259L70.5144 5.05754L70.4214 5.10404L70.33 5.15209L70.2401 5.20169L70.1502 5.25439L70.0603 5.30709L69.9735 5.36289L69.8851 5.42024L69.7999 5.48069L69.7146 5.54114L69.6309 5.60314L69.5488 5.66824L69.4666 5.73335L69.386 5.80155L69.307 5.86975L69.2279 5.94105L69.152 6.01235L69.076 6.0852L69.0016 6.16115L68.9288 6.2371L68.8575 6.3146L68.7877 6.39365L68.7195 6.47425L68.6529 6.55485L68.5862 6.63855L68.5227 6.72225L68.4607 6.8075L68.4002 6.89275L68.3413 6.9811L68.284 7.06945L68.2282 7.15935L68.1739 7.24925L68.1228 7.3407L68.0732 7.4337L68.0236 7.5267L67.9786 7.62125L67.9337 7.7158L67.8918 7.8119L67.8515 7.908L67.8128 8.00565L67.7771 8.1033L67.743 8.2025L67.7105 8.30171L67.681 8.40246L67.6531 8.50321L67.6283 8.60396L67.6051 8.70626L67.5849 8.80856L67.5601 8.94186L67.5415 9.07516L67.5276 9.20691L67.5198 9.33556L67.5152 9.42391L67.5136 9.51071L67.5152 9.59596L67.5183 9.68121L67.5229 9.76491L67.5291 9.84861L67.5384 9.93076L67.5493 10.0129L67.5632 10.0935L67.5772 10.1726L67.5942 10.2516L67.6128 10.3291L67.6345 10.4066L67.6562 10.481L67.681 10.557L67.7074 10.6298L67.7353 10.7011L67.7663 10.7724L67.7973 10.8422L67.8314 10.9119L67.867 10.9786L67.9042 11.0452L67.943 11.1103L67.9833 11.1739L68.0251 11.2374L68.0685 11.2979L68.1135 11.3583L68.1615 11.4157L68.2096 11.473L68.2592 11.5288L68.3103 11.5831L68.3646 11.6358L68.4188 11.6869L68.4746 11.7365L68.532 11.7861L68.5909 11.8326L68.6513 11.8776L68.7133 11.921L68.7753 11.9628L68.8404 12.0031L68.9055 12.0419L68.9722 12.0791L69.0419 12.1147L69.1101 12.1473L69.1814 12.1798L69.2527 12.2093L69.3256 12.2387L69.4 12.2651L69.4759 12.2899L69.5519 12.3131L69.6294 12.3333L69.7084 12.3519L69.789 12.3705L69.8696 12.3844L69.9518 12.3984L70.0339 12.4092L70.1176 12.4185L70.2029 12.4263L70.2881 12.4309L70.3749 12.434L70.4617 12.4356L70.5501 12.434L70.64 12.4309L70.7299 12.4263L70.8275 12.4185L70.9267 12.4077L71.0244 12.3937L71.1236 12.3782L71.2212 12.3596L71.3189 12.3395L71.4165 12.3178L71.5142 12.2914L71.6103 12.2651L71.7064 12.2356L71.8025 12.2031L71.8986 12.1705L71.9931 12.1333L72.0877 12.0961L72.1822 12.0558L72.2752 12.014L72.3682 11.969L72.4597 11.9241L72.5511 11.876L72.6426 11.8249L72.7309 11.7737L72.8208 11.7195L72.9092 11.6652L72.996 11.6079L73.0812 11.549L73.1665 11.4885L73.2517 11.4265L73.3339 11.3614L73.416 11.2963L73.4982 11.2297L73.5772 11.1615L73.6563 11.0902L73.7338 11.0189L73.8097 10.946L73.8841 10.8716L73.957 10.7957L74.0298 10.7197L74.0996 10.6407L74.1693 10.5616L74.236 10.481L74.3026 10.3989L74.3677 10.3152L74.4297 10.2315L74.4917 10.1462L74.5506 10.0594L74.6095 9.97261L74.6653 9.88426L74.7196 9.79436L74.7723 9.70446L74.8219 9.61301L74.8715 9.52001L74.918 9.42701L74.9629 9.33401L75.0048 9.23946L75.0466 9.14336L75.0838 9.04881L75.121 8.95116L75.1551 8.85351L75.1877 8.75586L75.2171 8.65821L75.245 8.55901L75.2698 8.45981L75.2931 8.36061L75.3132 8.25986L75.338 8.12035L75.3566 7.98085L75.3721 7.84445L75.3814 7.7096Z" fill="#8CD5F5"/>
<path d="M142.974 8.32342L142.811 8.33582L142.591 8.35132L142.32 8.36992L142.005 8.39317L141.649 8.41797L141.26 8.44587L140.84 8.47532L140.398 8.50632L139.938 8.53887L139.463 8.57297L138.983 8.60707L138.501 8.64117L138.023 8.67527L137.554 8.70937L137.318 9.20228L137.08 9.66108L136.838 10.0842L136.593 10.4748L136.346 10.8329L136.1 11.1615L135.853 11.4606L135.607 11.7319L135.362 11.9783L135.12 12.1984L134.883 12.3937L134.649 12.5673L134.42 12.7208L134.196 12.8541L133.981 12.9688L133.772 13.0664L133.235 12.5735L132.623 12.1519L131.938 11.8032L131.182 11.5288L130.356 11.3304L129.46 11.208L128.497 11.1646L127.469 11.1987L126.846 11.256L126.237 11.3397L125.64 11.4467L125.058 11.58L124.489 11.735L123.934 11.9148L123.395 12.1178L122.871 12.3426L122.361 12.589L121.868 12.8572L121.39 13.1455L120.93 13.4555L120.487 13.7841L120.06 14.1328L119.653 14.5002L119.264 14.8861L118.892 15.2892L118.54 15.7092L118.208 16.1479L117.895 16.6005L117.602 17.0701L117.329 17.5553L117.078 18.0559L116.849 18.569L116.641 19.0975L116.455 19.6385L116.291 20.1918L116.151 20.7576L116.034 21.3357L115.941 21.9247L115.871 22.5246L115.826 23.1337L115.81 23.6933L115.824 24.2327L115.866 24.7504L115.936 25.2495L115.829 25.3363L115.699 25.4339L115.545 25.5424L115.369 25.6602L115.17 25.7827L114.95 25.9082L114.705 26.0353L114.44 26.1624L114.15 26.2864L113.84 26.4058L113.507 26.5158L113.152 26.6181L112.774 26.708L112.374 26.7855L111.952 26.846L111.509 26.8878L110.963 26.9018L110.474 26.8646L110.033 26.7793L109.641 26.6538L109.294 26.4879L108.989 26.2895L108.722 26.0617L108.491 25.809L108.291 25.5347L108.121 25.2448L107.977 24.9426L107.854 24.631L107.753 24.3179L107.668 24.0033L107.597 23.6948L107.535 23.3957L108.249 23.1043L108.934 22.7896L109.589 22.4517L110.209 22.0921L110.794 21.7093L111.342 21.3032L111.85 20.8754L112.318 20.4228L112.741 19.9469L113.12 19.4463L113.451 18.9224L113.733 18.3737L113.964 17.8002L114.141 17.2019L114.262 16.5788L114.327 15.9309L114.332 15.5232L114.304 15.1342L114.242 14.7637L114.146 14.4134L114.014 14.0848L113.848 13.781L113.645 13.502L113.406 13.2493L113.132 13.0261L112.819 12.8324L112.468 12.6696L112.081 12.541L111.655 12.4464L111.191 12.3891L110.686 12.3689L110.142 12.3891L109.691 12.434L109.246 12.5022L108.812 12.5937L108.389 12.7084L107.973 12.8432L107.567 12.9982L107.172 13.1718L106.786 13.3625L106.411 13.5686L106.045 13.7918L105.69 14.029L105.346 14.2801L105.011 14.542L104.687 14.8164L104.376 15.1001L104.074 15.393L106.501 2.43805L100.202 2.88445L96.305 23.5553L95.9795 23.8421L95.6013 24.1536L95.172 24.4884L94.6961 24.8387L94.1769 25.1999L93.6142 25.5657L93.0113 25.9284L92.3727 26.2849L91.6969 26.6274L90.9916 26.9514L90.2538 27.2521L89.4912 27.5203L88.7023 27.7543L87.8916 27.945L87.0608 28.0876L86.213 28.1775L85.7355 28.1945L85.2907 28.1759L84.8815 28.1217L84.5048 28.0318L84.1607 27.9062L83.8507 27.7466L83.5733 27.5513L83.3299 27.3203L83.1176 27.0553L82.9393 26.7545L82.7921 26.4197L82.6774 26.0508L82.5952 25.6478L82.5441 25.2092L82.5239 24.738L82.5363 24.2311L82.5735 23.7537L82.6309 23.2763L82.713 22.8036L82.8169 22.3401L82.944 21.8875L83.0943 21.452L83.2679 21.035L83.4663 20.6429L83.688 20.2802L83.9344 19.9469L84.2041 19.6509L84.5002 19.3951L84.8226 19.1812L85.1682 19.0169L85.5402 18.9022L85.9386 18.8449L86.2269 18.8418L86.4842 18.8759L86.7105 18.9441L86.9089 19.0433L87.081 19.1688L87.2282 19.3192L87.3507 19.4912L87.453 19.6819L87.5351 19.8865L87.6002 20.105L87.6483 20.3313L87.6808 20.5638L87.701 20.801L87.7103 21.0366V21.2691L87.701 21.4969L93.3399 19.7485L93.3538 19.0262L93.3166 18.3489L93.2283 17.7196L93.0872 17.1383L92.895 16.6036L92.6486 16.1184L92.3494 15.6813L91.9976 15.2954L91.5915 14.959L91.1296 14.6738L90.615 14.4382L90.0446 14.2568L89.4184 14.1266L88.7379 14.0507L88.0001 14.0274L87.205 14.0584L86.6051 14.1142L86.0177 14.1979L85.4426 14.3064L84.8815 14.4397L84.3328 14.5978L83.798 14.7792L83.2772 14.9853L82.7704 15.2148L82.2806 15.4643L81.8032 15.7371L81.3428 16.0316L80.8995 16.3447L80.4717 16.6795L80.061 17.0329L79.6657 17.4049L79.2906 17.7955L78.931 18.2032L78.5916 18.6294L78.2707 19.0696L77.9669 19.5284L77.6848 20.0012L77.4213 20.4879L77.178 20.9901L76.9563 21.5047L76.7548 22.0332L76.575 22.5742L76.4169 23.126L76.2805 23.6902L76.1658 24.2652L76.0759 24.8496L76.0077 25.4432L75.9628 26.0462L75.955 26.9932L76.031 27.8876L75.9922 27.8241L75.7706 27.9899L75.535 28.1604L75.2901 28.3356L75.0343 28.5123L74.7724 28.6874L74.5058 28.8595L74.2345 29.0284L73.9633 29.1881L73.692 29.3384L73.4223 29.4795L73.1572 29.605L72.8984 29.7166L72.6473 29.8096L72.4055 29.8825L72.1776 29.9336L71.9606 29.9615H71.7312L71.5251 29.9212L71.3468 29.8406L71.1965 29.7166L71.0802 29.543L70.9981 29.3198L70.9547 29.0408L70.9516 28.7045L70.9903 28.3325L71.0694 27.9047L73.4269 15.5263L70.5796 15.7294L69.7736 15.8177L69.0389 15.9588L68.3662 16.1479L67.7462 16.3773L67.1696 16.6439L66.6302 16.9415L66.1187 17.2639L65.6258 17.6049L65.1422 17.9598L64.6617 18.321L64.175 18.6852L63.6728 19.0464L63.1458 19.3982L62.5878 19.7361L61.9879 20.0523L61.34 20.3422L61.3586 19.8074L61.3664 19.2773L61.3617 18.7565L61.3462 18.2481L61.3167 17.7537L61.2749 17.2794L61.2176 16.8268L61.1462 16.399L54.7602 16.8516L54.8253 17.3243L54.8873 17.8281L54.94 18.3644L54.9834 18.9286L55.0144 19.5222L55.0299 20.1407L55.0268 20.7839L55.002 21.4504L54.9819 21.7961L54.954 22.1495L54.9214 22.5106L54.8811 22.8764L54.8362 23.2469L54.7835 23.6204L54.7246 23.9955L54.6579 24.3706L54.5851 24.7457L54.5045 25.1193L54.4161 25.4897L54.3216 25.8555L54.2193 26.2167L54.1077 26.5716L53.9899 26.9188L53.8628 27.2568L53.7279 27.5838L53.5838 27.9L53.4319 28.2054L53.2707 28.4952L53.1017 28.7711L52.9219 29.0315L52.7344 29.2733L52.5375 29.4981L52.3298 29.7027L52.1144 29.8856L51.8881 30.0483L51.6509 30.1863L51.4045 30.301L51.1487 30.3909L50.8806 30.4529L50.6031 30.487L50.1846 30.4777L49.825 30.3878L49.5274 30.2219L49.2903 29.9817L49.112 29.6717L48.9942 29.2966L48.9353 28.8579L48.9338 28.3604L48.9585 28.0457L48.9741 27.9279L48.9942 27.7822L49.0206 27.6102L49.0515 27.4164L49.0857 27.1994L49.126 26.9638L49.1694 26.7096L49.2174 26.4383L49.267 26.1531L49.3197 25.8571L49.374 25.5486L49.4313 25.2324L49.4887 24.91L49.5476 24.5814L49.608 24.2497L49.6669 23.9165L49.7274 23.5848L49.7863 23.2562L49.8436 22.9307L49.901 22.6114L49.9552 22.2998L50.0079 21.9991L50.0575 21.7108L50.104 21.4349L50.1474 21.1745L50.1877 20.9312L50.2218 20.708L50.2528 20.5065L50.2776 20.3267L50.2978 20.1717L50.3117 20.0446L50.3195 19.9438L50.3288 19.5176L50.3071 19.1254L50.2559 18.7674L50.1753 18.445L50.0668 18.1551L49.9304 17.8978L49.7677 17.6715L49.577 17.4747L49.36 17.3088L49.1182 17.1724L48.8501 17.0624L48.5586 16.9802L48.2424 16.9229L47.9014 16.8919L47.5387 16.8857L47.1543 16.9027L46.8304 16.9306L46.4987 16.9725L46.1639 17.0252L45.8244 17.0872L45.4865 17.1569L45.1517 17.236L44.82 17.3212L44.4961 17.4127L44.1814 17.5088L43.8776 17.608L43.5878 17.7087L43.315 17.8126L43.0592 17.9164L42.8252 18.0187L42.6144 18.1195L42.4299 18.2171L41.8332 22.5897L42.0378 22.5447L42.2734 22.5013L42.5229 22.4657L42.7725 22.4409L42.9957 22.4393L43.1832 22.4688L43.3336 22.5339L43.4498 22.6377L43.5335 22.7819L43.5862 22.9679L43.611 23.2019L43.6079 23.484L43.5971 23.6173L43.5816 23.7739L43.5583 23.9506L43.5304 24.1443L43.4963 24.3567L43.4576 24.5845L43.4157 24.8248L43.3708 25.079L43.3227 25.3425L43.2716 25.6153L43.2189 25.8943L43.1631 26.1795L43.1088 26.4693L43.053 26.7607L42.9972 27.0521L42.943 27.342L42.6361 27.6164L42.2718 27.9217L41.8533 28.2503L41.3852 28.5975L40.8675 28.9571L40.3033 29.3229L39.6973 29.6872L39.0494 30.0468L38.3643 30.394L37.6451 30.7241L36.8918 31.0279L36.109 31.3023L35.2999 31.541L34.466 31.7363L33.6104 31.882L32.7362 31.975L32.2572 31.992L31.8124 31.9734L31.4032 31.9192L31.0265 31.8293L30.6824 31.7037L30.3724 31.5441L30.095 31.3488L29.8516 31.1178L29.6393 30.8528L29.461 30.5521L29.3138 30.2173L29.1991 29.8484L29.1169 29.4454L29.0658 29.0067L29.0456 28.5355L29.058 28.0287L29.0952 27.5513L29.1526 27.0738L29.2347 26.6011L29.3386 26.1376L29.4657 25.685L29.616 25.2495L29.7896 24.8325L29.988 24.4404L30.2097 24.0777L30.4561 23.7444L30.7274 23.4484L31.0219 23.1926L31.3443 22.9787L31.6899 22.8144L32.0619 22.6997L32.4603 22.6424L32.7486 22.6393L33.0059 22.6734L33.2322 22.7416L33.4306 22.8408L33.6026 22.9663L33.7499 23.1167L33.8723 23.2887L33.9746 23.4794L34.0568 23.684L34.1219 23.9025L34.1699 24.1288L34.2025 24.3613L34.2226 24.5985L34.2319 24.8341V25.0666L34.2226 25.2944L39.8616 23.546L39.8755 22.8237L39.8383 22.1464L39.75 21.5171L39.6089 20.9358L39.4167 20.4011L39.1703 19.9159L38.8711 19.4788L38.5193 19.0929L38.1132 18.7565L37.6513 18.4713L37.1367 18.2357L36.5663 18.0544L35.94 17.9242L35.2596 17.8482L34.5218 17.825L33.7266 17.856L33.1268 17.9118L32.5393 17.9939L31.9643 18.1024L31.4032 18.2373L30.8545 18.3954L30.3197 18.5767L29.7989 18.7829L29.2921 19.0107L28.8023 19.2618L28.3249 19.5346L27.8661 19.8291L27.4212 20.1422L26.9934 20.477L26.5827 20.8304L26.1874 21.2024L25.8123 21.593L25.4527 22.0007L25.1133 22.4254L24.7924 22.8671L24.4886 23.3259L24.2065 23.7987L23.943 24.2854L23.6997 24.7876L23.478 25.3022L23.2765 25.8307L23.0967 26.3717L22.9386 26.9235L22.8022 27.4877L22.6875 28.0628L22.5976 28.6471L22.5294 29.2408L22.4844 29.8437L22.472 30.6776L22.5247 31.4728L22.6425 32.2245L22.8254 32.9313L23.0734 33.5916L23.3896 34.2008L23.7725 34.7572L24.222 35.2594L24.7397 35.7027L25.3241 36.0856L25.9782 36.4064L26.7005 36.6606L27.4925 36.8466L28.3528 36.9613L29.2843 37.0016L30.2841 36.9675L30.8932 36.9102L31.49 36.828L32.0759 36.7211L32.6494 36.5909L33.212 36.4405L33.7623 36.27L34.3001 36.0825L34.824 35.8779L35.3355 35.6593L35.8315 35.4268L36.3152 35.1819L36.7833 34.9293L37.2374 34.6673L37.6761 34.3976L38.0977 34.1248L38.5053 33.8474L38.8944 33.5668L39.2679 33.2878L39.6244 33.0088L39.9639 32.7329L40.2847 32.4617L40.587 32.1951L40.8706 31.9378L41.1357 31.6882L41.3806 31.4495L41.6069 31.2232L41.813 31.0124L41.9975 30.8156L42.1618 30.6358L42.3044 30.4746L42.4268 30.3351L42.526 30.2157L42.5322 30.8435L42.5896 31.4418L42.6981 32.0122L42.8577 32.5485L43.0716 33.0507L43.3382 33.5172L43.6591 33.9435L44.0357 34.3279L44.4682 34.6689L44.9564 34.9634L45.502 35.2098L46.1065 35.4036L46.7684 35.5462L47.4907 35.633L48.2734 35.6624L49.1167 35.6299L49.763 35.5694L50.3923 35.4826L51.003 35.3679L51.5967 35.2269L52.1717 35.061L52.7297 34.8704L53.2707 34.6534L53.793 34.4147L54.2983 34.1512L54.785 33.866L55.2547 33.5575L55.7073 33.2274L56.1428 32.8771L56.5598 32.5051L56.9597 32.1129L57.341 31.7022L57.7052 31.2728L58.054 30.8249L58.3826 30.3583L58.6957 29.8747L58.9902 29.3756L59.2676 28.8595L59.528 28.3278L59.7714 27.7822L59.9977 27.2211L60.2054 26.6476L60.3976 26.0586L60.5712 25.4587L60.7277 24.8465L60.8672 24.2218L60.9897 23.5863L61.0951 22.9415L61.7709 22.7912L62.4483 22.6145L63.1194 22.4068L63.7797 22.1696L64.4183 21.9015L65.029 21.6039L65.6041 21.2722L66.1357 20.9095L64.609 29.14L64.4772 29.9507L64.4106 30.6776L64.4013 31.2263L64.4338 31.7208L64.5067 32.1641L64.6167 32.5593L64.7655 32.9065L64.9515 33.2088L65.1701 33.4676L65.4227 33.6877L65.7064 33.8691L66.021 34.0148L66.3651 34.1264L66.7356 34.2054L67.1324 34.2566L67.554 34.2814L67.9988 34.2798L68.4669 34.2566L69.2171 34.1744L69.9363 34.0411L70.6245 33.8629L71.2802 33.6459L71.9033 33.3932L72.4938 33.1127L73.0534 32.8089L73.5804 32.4865L74.0748 32.1548L74.5368 31.8153L74.9677 31.4759L75.366 31.1411L75.7318 30.8171L76.0651 30.5102L76.3673 30.225L76.6355 29.9677L76.8525 30.3723L77.0989 30.7536L77.3748 31.1101L77.6817 31.4418L78.0196 31.7471L78.387 32.0261L78.7853 32.2772L79.2147 32.5004L79.6735 32.6942L80.1648 32.8569L80.6856 32.9902L81.239 33.0925L81.8218 33.1623L82.4371 33.1995L83.085 33.2026L83.7624 33.17L84.3219 33.1189L84.8722 33.046L85.4131 32.9515L85.9432 32.8383L86.4641 32.7066L86.9756 32.5578L87.4747 32.3935L87.9645 32.2152L88.4419 32.023L88.9084 31.8184L89.3641 31.603L89.8059 31.3782L90.2368 31.1457L90.6553 30.9055L91.0598 30.6606L91.452 30.4095L91.8302 30.1553L92.196 29.8995L92.5463 29.6422L92.8826 29.3849L93.205 29.1292L93.5119 28.8765L93.8033 28.6285L94.0792 28.3852L94.3396 28.148L94.5845 27.9186L94.8124 27.6985L95.0247 27.4877L95.2185 27.2893L95.3967 27.1018L95.5564 26.9297L95.699 26.7731L94.7395 31.8603L101.037 31.4123L102.28 24.7907L102.975 24.6589L103.155 25.4742L103.358 26.2399L103.589 26.9591L103.847 27.6257L104.139 28.2426L104.461 28.8068L104.821 29.3183L105.218 29.774L105.656 30.1723L106.135 30.5149L106.661 30.8001L107.231 31.0248L107.853 31.1891L108.524 31.2914L109.251 31.3302L110.032 31.3054L110.533 31.248L111.032 31.1535L111.526 31.0233L112.014 30.8605L112.495 30.6699L112.968 30.4544L113.43 30.2173L113.879 29.9631L114.316 29.6934L114.739 29.4144L115.145 29.1261L115.533 28.8347L115.902 28.5433L116.251 28.255L116.576 27.9729L116.878 27.7001L117.128 28.0473L117.402 28.3697L117.703 28.6704L118.027 28.9478L118.374 29.202L118.746 29.4314L119.141 29.636L119.56 29.8174L120 29.9724L120.465 30.1041L120.95 30.208L121.459 30.287L121.987 30.3397L122.539 30.3645L123.109 30.363L123.701 30.3351L124.317 30.2762L124.92 30.1909L125.51 30.0809L126.088 29.9429L126.653 29.7817L127.204 29.5942L127.741 29.3834L128.263 29.1493L128.77 28.8936L129.261 28.6146L129.737 28.3139L130.197 27.993L130.639 27.652L131.065 27.2909L131.475 26.9111L131.864 26.5127L132.236 26.0973L132.589 25.6649L132.922 25.2154L133.237 24.7504L133.532 24.2699L133.804 23.7739L134.057 23.2655L134.288 22.7431L134.499 22.2068L134.685 21.6597L134.851 21.1017L134.992 20.5313L135.109 19.9516L135.204 19.3626L135.274 18.7627L135.319 18.1567L135.331 17.3662L135.285 16.6206L135.179 15.92L135.016 15.2628L135.607 15.0551L136.17 14.8319L136.706 14.5963L137.214 14.3483L137.698 14.091L138.157 13.8259L138.591 13.5516L139 13.2726L139.387 12.9889L139.75 12.7006L140.091 12.4108L140.41 12.1209L140.708 11.8326L140.986 11.5459L141.243 11.2622L141.482 10.9848L141.7 10.712L141.902 10.4469L142.084 10.1927L142.25 9.94783L142.399 9.71378L142.532 9.49368L142.65 9.28753L142.754 9.09843L142.842 8.92483L142.917 8.77138L142.979 8.63807L143.028 8.52492L143.066 8.43502L143.092 8.36837L143.112 8.31412L142.974 8.32342Z" fill="#8CD5F5"/>
<path d="M128.706 18.9798L128.694 19.4029L128.651 19.9408L128.579 20.4786L128.479 21.0103L128.351 21.5326L128.198 22.0395L128.018 22.5293L127.814 22.9943L127.584 23.4329L127.333 23.839L127.057 24.2095L126.761 24.5381L126.443 24.8233L126.104 25.0589L125.746 25.2402L125.369 25.3642L124.974 25.4247L124.616 25.4355L124.287 25.4123L123.987 25.3596L123.715 25.2728L123.47 25.1565L123.253 25.0093L123.063 24.831L122.897 24.6233L122.756 24.3862L122.638 24.1196L122.545 23.8235L122.475 23.5011L122.426 23.1493L122.399 22.7711L122.393 22.365L122.407 21.9325L122.447 21.4148L122.517 20.9002L122.613 20.3887L122.739 19.8865L122.891 19.3967L123.072 18.924L123.281 18.4745L123.518 18.0498L123.784 17.6545L124.078 17.2949L124.4 16.9725L124.751 16.6935L125.13 16.4626L125.538 16.2812L125.975 16.1572L126.44 16.0906L126.722 16.0844L126.986 16.1061L127.232 16.1557L127.462 16.2332L127.673 16.3401L127.865 16.475L128.038 16.6377L128.193 16.8299L128.328 17.05L128.443 17.2996L128.537 17.577L128.612 17.8839L128.665 18.2203L128.696 18.5845L128.706 18.9798Z" fill="#D44126"/>
<path d="M108.006 18.042L108.009 18.2574L107.967 18.5581L107.876 18.8464L107.738 19.1223L107.553 19.3858L107.33 19.6354L107.067 19.871L106.766 20.0942L106.434 20.3034L106.07 20.5003L105.679 20.6816L105.262 20.8506L104.824 21.0056L104.367 21.1451L103.891 21.2706L103.401 21.3822L102.9 21.4799L103.06 20.7731L103.204 20.4491L103.361 20.1267L103.531 19.809L103.712 19.4974L103.906 19.1952L104.111 18.9038L104.329 18.6263L104.559 18.3644L104.799 18.1226L105.053 17.9009L105.317 17.7041L105.594 17.532L105.881 17.3894L106.18 17.2778L106.492 17.2003L106.812 17.1584L107.135 17.1631L107.398 17.2204L107.611 17.3258L107.773 17.4684L107.891 17.6405L107.967 17.8343L108.006 18.042Z" fill="#D44126"/>
<path d="M24.7521 51.9406C30.0128 51.9406 32.4447 54.0904 32.4447 57.8228C32.4447 63.1688 28.8534 66.5618 23.0548 66.5618H21.6117L21.0739 70.6057H15.9542L18.4993 51.939H24.749L24.7521 51.9406ZM23.2253 62.4047C25.7983 62.4047 27.1282 61.1042 27.1282 58.7281C27.1282 56.8618 26.2509 56.1256 24.3568 56.1256H23.0269L22.179 62.4047H23.2253Z" fill="#D6AA77"/>
<path d="M43.7582 57.9933L43.0793 62.6883L42.8251 62.7735C42.4004 62.5193 41.6084 62.3488 40.5342 62.3488C39.8553 62.3488 39.0354 62.462 38.2712 62.9146L37.197 70.6073H32.3331L34.0583 58.1917H38.6401L38.6975 59.8316C39.7716 58.6722 41.1294 57.8228 42.6856 57.8228C43.1382 57.8228 43.4498 57.8802 43.7598 57.9918L43.7582 57.9933Z" fill="#D6AA77"/>
<path d="M42.9383 65.5728C42.9383 60.9631 46.0492 57.8228 50.8015 57.8228C54.506 57.8228 56.7132 59.7464 56.7132 63.0556C56.7132 67.6375 53.5744 70.9746 48.8795 70.9746C45.1455 70.9746 42.9398 68.91 42.9398 65.5728H42.9383ZM51.6214 63.6493C51.6214 62.2062 51.0836 61.4994 50.2078 61.4994C48.6516 61.4994 48.0022 63.3098 48.0022 65.0071C48.0022 66.4781 48.3974 67.298 49.6715 67.298C50.9456 67.298 51.623 65.3744 51.623 63.6493H51.6214Z" fill="#D6AA77"/>
<path d="M79.6192 67.8064L79.3076 70.4089C78.7419 70.691 77.9498 70.9746 76.5641 70.9746C74.1321 70.9746 72.8596 69.9005 73.1711 67.5243L73.5664 64.2724C73.7927 62.4341 73.5664 61.8404 72.8875 61.8404C71.587 61.8404 70.795 63.6788 70.4276 65.5744L69.7766 70.6088H64.9127L65.7606 64.274C66.0148 62.4356 65.8179 61.842 65.0538 61.842C63.837 61.842 63.0171 63.5671 62.6218 65.6318L61.9429 70.6088H57.079L58.8615 58.1933H63.3302L63.1612 60.23C64.1796 58.618 65.5374 57.8259 67.3183 57.8259C69.2419 57.8259 70.4013 58.8722 70.7407 60.5694C71.8149 58.7311 73.23 57.8259 75.1242 57.8259C77.7545 57.8259 79.055 59.8626 78.6597 62.8603L78.1792 66.3959C78.0103 67.6685 78.4613 67.8669 78.9713 67.8669C79.1697 67.8669 79.4518 67.839 79.6223 67.8111L79.6192 67.8064Z" fill="#D6AA77"/>
<path d="M91.2984 66.3649L91.92 69.3068C90.7885 70.071 89.1765 70.9762 86.433 70.9762C81.9085 70.9762 80.2391 68.5442 80.2391 65.4334C80.2391 61.1352 83.4074 57.8259 88.0729 57.8259C91.2116 57.8259 92.9662 59.3527 92.9662 61.5599C92.9662 64.8971 89.0633 66.4533 85.2162 66.0565C85.4146 67.0175 86.0362 67.4995 87.4792 67.4995C88.9223 67.4995 90.1654 67.0469 91.2969 66.368L91.2984 66.3649ZM85.4162 63.3951C87.0561 63.423 88.3581 63.0835 88.3581 61.9241C88.3581 61.5289 88.2449 61.0763 87.5381 61.0763C86.4345 61.0763 85.7556 62.1799 85.4177 63.3951H85.4162Z" fill="#D6AA77"/>
<path d="M108.184 67.8064L107.902 70.4089C107.336 70.691 106.375 70.9746 105.103 70.9746C102.586 70.9746 101.313 70.0136 101.68 67.3259L102.105 64.2708C102.359 62.4325 102.077 61.8389 101.257 61.8389C100.013 61.8389 99.2484 63.4788 98.8811 65.2892L98.1464 70.6057H93.2825L95.0355 58.1902H99.5042L99.3631 60.1137C100.381 58.587 101.739 57.8228 103.492 57.8228C106.321 57.8228 107.594 59.8595 107.169 62.8572L106.688 66.3928C106.518 67.6654 107 67.8638 107.508 67.8638C107.763 67.8638 108.046 67.8359 108.187 67.808L108.184 67.8064Z" fill="#D6AA77"/>
<path d="M121.9 66.3928C121.731 67.6375 121.956 68.0622 123.286 67.8064L122.946 70.4089C122.381 70.691 121.277 70.9747 119.949 70.9747C118.365 70.9747 117.489 70.2105 117.177 68.9658C115.961 70.2663 114.462 70.9747 112.85 70.9747C110.106 70.9747 108.748 68.91 108.748 66.1665C108.748 61.4716 111.407 57.8229 115.903 57.8229C117.091 57.8229 118.024 58.1344 118.816 58.6428L119.098 58.1902H123.057L121.897 66.3928H121.9ZM117.092 65.9402L117.686 61.7258C117.291 61.5274 116.838 61.4142 116.328 61.4142C114.603 61.4142 113.783 63.0262 113.783 65.0629C113.783 66.3928 114.235 67.0996 115.083 67.0996C115.931 67.0996 116.61 66.647 117.092 65.9402ZM123.54 51.629L118.252 56.6634H114.66L118.817 51.629H123.54Z" fill="#D6AA77"/>
<path d="M137.03 66.3928C136.831 67.8064 137.228 67.949 138.473 67.8064L138.133 70.4089C137.568 70.691 136.464 70.9746 135.136 70.9746C133.438 70.9746 132.591 70.2105 132.307 68.8527C131.062 70.2384 129.536 70.9746 127.896 70.9746C125.152 70.9746 123.794 68.91 123.794 66.1665C123.794 61.4715 126.453 57.8228 130.949 57.8228C131.882 57.8228 132.646 57.9918 133.296 58.3312L134.342 50.8075H139.206L137.028 66.3913L137.03 66.3928ZM132.25 65.7418L132.815 61.7536C132.42 61.5552 131.91 61.4142 131.372 61.4142C129.647 61.4142 128.827 63.0262 128.827 65.0629C128.827 66.3928 129.28 67.0996 130.128 67.0996C131.089 67.0996 131.768 66.5618 132.25 65.7418Z" fill="#D6AA77"/>
<path d="M152.133 66.3928C151.964 67.6375 152.19 68.0622 153.519 67.8064L153.179 70.4089C152.614 70.691 151.51 70.9746 150.182 70.9746C148.598 70.9746 147.722 70.2105 147.41 68.9658C146.194 70.2663 144.695 70.9746 143.083 70.9746C140.339 70.9746 138.981 68.91 138.981 66.1665C138.981 61.4715 141.64 57.8228 146.136 57.8228C147.323 57.8228 148.258 58.1344 149.049 58.6428L149.332 58.1902H153.291L152.132 66.3928H152.133ZM147.325 65.9402L147.919 61.7257C147.523 61.5273 147.071 61.4142 146.561 61.4142C144.836 61.4142 144.016 63.0262 144.016 65.0629C144.016 66.3928 144.468 67.0996 145.316 67.0996C146.164 67.0996 146.843 66.647 147.325 65.9402Z" fill="#D6AA77"/>
</svg>
