<svg width="133" height="54" viewBox="0 0 133 54" fill="none" xmlns="http://www.w3.org/2000/svg">
<path d="M125.112 6.31415L124.974 6.32345L124.81 6.3343L124.59 6.3498L124.319 6.3684L124.002 6.3901L123.647 6.4149L123.257 6.4428L122.838 6.47225L122.397 6.50325L121.936 6.5358L121.463 6.5699L120.983 6.604L120.501 6.6381L120.022 6.6722L119.552 6.7063L119.318 7.20075L119.08 7.65955L118.838 8.0827L118.593 8.4733L118.346 8.83136L118.1 9.15996L117.854 9.45911L117.607 9.73036L117.362 9.97526L117.12 10.1954L116.882 10.3922L116.648 10.5658L116.418 10.7193L116.195 10.8526L115.98 10.9673L115.772 11.0649L115.236 10.572L114.623 10.1504L113.938 9.80166L113.182 9.52731L112.356 9.32891L111.46 9.20646L110.497 9.16306L109.47 9.19871L108.848 9.25606L108.239 9.33821L107.642 9.44671L107.059 9.57846L106.49 9.73501L105.936 9.91481L105.396 10.1179L104.871 10.3426L104.361 10.5891L103.868 10.8572L103.39 11.1455L102.93 11.4555L102.487 11.7841L102.06 12.1329L101.653 12.5002L101.264 12.8862L100.893 13.2892L100.541 13.7092L100.208 14.1463L99.8951 14.6005L99.6022 15.0701L99.5805 15.1089L95.4451 11.2912L95.4063 11.2494L95.1304 11.0262L94.8266 10.8371L95.5551 6.9512L88.4995 0.436523L82.2018 0.884475L81.6686 3.71169L78.8631 1.12163H78.8429L78.8274 1.12473H78.8073L78.784 1.12783H78.7561L78.7252 1.13248L78.6895 1.13558L78.6507 1.13868L78.6073 1.14178L78.5608 1.14488L78.5112 1.14798L78.4585 1.15108L78.4012 1.15573L78.3407 1.16038L78.2772 1.16503L78.2105 1.16968L78.1408 1.17433L78.0679 1.17898L77.9935 1.18363L77.916 1.18983L77.8354 1.19603L77.7533 1.20223L77.668 1.20843L77.5797 1.21463L77.4898 1.22083L77.3968 1.22703L77.3022 1.23323L77.2061 1.23943L77.1069 1.24563L77.0062 1.25338L76.9039 1.26113L76.8 1.26888L76.6946 1.27663L76.5877 1.28438L76.4792 1.29213L76.3691 1.29988L76.2575 1.30763L76.1444 1.31538L76.0312 1.32313L75.9165 1.33088L75.8003 1.33863L75.684 1.34638L75.5662 1.35413L75.4484 1.36188L75.3291 1.36963L75.2097 1.37738L75.0904 1.38513L74.971 1.39443L74.8501 1.40373L74.7292 1.41303L74.6083 1.42233L74.4874 1.43163L74.3665 1.44093L74.2456 1.45023L74.1247 1.45953L74.0054 1.46883L73.886 1.47658L73.7667 1.48433L73.6489 1.49208L73.5311 1.49983L73.4133 1.50758L73.297 1.51533L73.2381 1.66723L73.1792 1.81603L73.1203 1.96173L73.0614 2.10433L73.0025 2.24383L72.9436 2.38023L72.8847 2.51353L72.8258 2.64373L72.7669 2.77083L72.708 2.89483L72.6491 3.01573L72.5902 3.13353L72.5313 3.24823L72.4724 3.36138L72.4135 3.47144L72.3546 3.57839L72.2957 3.68224L72.2384 3.78454L72.181 3.88374L72.1237 3.98139L72.0663 4.07594L72.009 4.16894L71.9516 4.25884L71.8943 4.34719L71.8369 4.43244L71.7796 4.51614L71.7222 4.59674L71.6649 4.67579L71.6075 4.75329L71.5517 4.82924L71.4959 4.90209L71.4401 4.97339L71.3843 5.04314L71.3549 5.07879L67.9139 1.90128L67.8255 1.90748L67.7356 1.91368L67.6441 1.91988L67.5511 1.92608L67.4566 1.93228L67.362 1.93848L67.2659 1.94468L67.1683 1.95088L67.0706 1.95708L66.9715 1.96328L66.8722 1.97103L66.773 1.97878L66.6723 1.98653L66.5715 1.99428L66.4708 2.00203L66.37 2.00978L66.2693 2.01753L66.1685 2.02528L66.0678 2.03303L65.967 2.04078L65.8663 2.04853L65.7671 2.05628L65.6679 2.06403L65.5687 2.07178L65.471 2.07798L65.3734 2.08418L65.2773 2.09038L65.1812 2.09658L65.0866 2.10278L64.9936 2.10898L64.9006 2.11518L64.8092 2.12138L64.7193 2.12758L64.6309 2.13378L64.5441 2.13998L64.4589 2.14618L64.3752 2.15238L64.293 2.15858L64.214 2.16478L64.1365 2.17098L64.0605 2.17563L63.9877 2.18028L63.9164 2.18493L63.8482 2.18958L63.7815 2.19423L63.718 2.19888L63.6575 2.20353L63.6002 2.20818L63.5444 2.21283L63.4917 2.21593L63.4421 2.21903L63.3956 2.22213L63.3522 2.22523L63.3119 2.22833L63.2747 2.23143L63.2421 2.23453H63.2127L63.1863 2.23918H63.1646L63.146 2.24228H63.1212L63.1119 2.25313V2.26243L63.1088 2.27638L63.1057 2.29343L63.1026 2.31358L63.0995 2.33838L63.0964 2.36628L63.0933 2.39728L63.0887 2.43138L63.084 2.47013L63.0794 2.51198L63.0763 2.55693L63.0732 2.60498L63.0701 2.65613L63.067 2.71038L63.0639 2.77083L63.0608 2.83438V2.90103L63.0577 2.97078V3.19708L63.0623 3.27768L63.0654 3.36138L63.0701 3.44819L63.0763 3.53654L63.084 3.62799L63.0933 3.72099L63.1042 3.81709L63.1166 3.91474L63.1305 4.01549L63.146 4.11779L63.1631 4.22164L63.1817 4.32704L63.2034 4.43554L63.2266 4.54559L63.2514 4.65719L63.2793 4.77034L63.3088 4.88504L63.3413 5.00129L63.377 5.11754L63.4142 5.23534L63.4545 5.35469L63.4979 5.47559L63.5444 5.59649L63.594 5.71894L63.6467 5.84139L63.7025 5.96539L63.7614 6.0894L63.8234 6.21495L63.8885 6.3405L63.9567 6.46605L64.0295 6.59315L64.1055 6.72025L64.1845 6.84735L64.2682 6.97445L64.355 7.10155L64.4465 7.22865L64.541 7.35575L64.6402 7.48285L64.7441 7.60995L64.8526 7.73705L64.9642 7.8626L65.0804 7.98815L65.2013 8.1137L65.3269 8.2377L65.4571 8.3617L65.5315 8.4299L65.5113 8.43611L69.4344 12.0585L69.1942 12.0678L68.5943 12.1236L68.0069 12.2057L67.4318 12.3142L66.8707 12.4475L66.322 12.6056L65.7872 12.7885L65.2664 12.9947L64.7596 13.2225L64.2682 13.4736L64.1365 13.5496L64.1644 13.4752L64.1985 13.3775L64.231 13.2799L64.2605 13.1822L64.2884 13.083L64.3132 12.9838L64.3364 12.8846L64.3566 12.7839L64.3814 12.6444L64.4 12.5064L64.4139 12.37L64.4232 12.2352L64.4263 12.1468V11.8849L64.4201 11.7996L64.4139 11.7159L64.4046 11.6322L64.3938 11.5501L64.3814 11.4679L64.3674 11.3873L64.3504 11.3083L64.3318 11.2292L64.3116 11.1517L64.2899 11.0758L64.2651 10.9998L64.2388 10.9254L64.2109 10.8526L64.1814 10.7813L64.1504 10.71L64.1179 10.6402L64.0838 10.572L64.0466 10.5054L64.0078 10.4403L63.9675 10.3767L63.9257 10.3132L63.8823 10.2512L63.8373 10.1907L63.7908 10.1318L63.7428 10.0745L63.7056 10.0326L63.7397 10.0218L56.6841 3.50709L56.65 3.51794L56.6376 3.50399L56.5864 3.44974L56.5337 3.39703L56.4795 3.34589L56.4237 3.29628L56.3663 3.24823L56.3074 3.20173L56.247 3.15678L56.185 3.11338L56.1214 3.07153L56.0579 3.03123L55.9928 2.99248L55.9261 2.95528L55.8579 2.91963L55.7882 2.88553L55.7169 2.85298L55.644 2.82353L55.5712 2.79563L55.4968 2.76928L55.4208 2.74448L55.3433 2.72123L55.2658 2.70108L55.1868 2.68248L55.1061 2.66543L55.024 2.64993L54.9418 2.63598L54.8581 2.62513L54.7729 2.61583L54.6876 2.60808L54.6008 2.60343L54.5125 2.60033H54.3342L54.2443 2.60343L54.1529 2.60963L54.0521 2.61738L53.9514 2.62823L53.8506 2.64218L53.7514 2.65768L53.6522 2.67628L53.553 2.69643L53.4538 2.71968L53.3562 2.74448L53.2585 2.77238L53.1609 2.80183L53.0632 2.83438L52.9671 2.86848L52.871 2.90413L52.7765 2.94288L52.6819 2.98318L52.5889 3.02503L52.4959 3.06998L52.4029 3.11648L52.3115 3.16453L52.2216 3.21413L52.1317 3.26683L52.0433 3.32108L51.955 3.37688L51.8682 3.43424L51.7814 3.49314L51.6961 3.55359L51.6124 3.61559L51.5303 3.67914L51.4481 3.74424L51.3675 3.81244L51.2885 3.88064L51.211 3.95039L51.1335 4.02169L51.0575 4.09454L50.9831 4.16894L50.9103 4.24489L50.839 4.32239L50.7692 4.40144L50.701 4.48204L50.6344 4.56419L50.5693 4.64634L50.5057 4.73004L50.4437 4.81529L50.3833 4.90209L50.3244 4.98889L50.267 5.07724L50.2112 5.16714L50.157 5.25704L50.1058 5.34849L50.0562 5.44149L50.0082 5.53449L49.9617 5.62904L49.9167 5.72359L49.8749 5.81969L49.8346 5.91579L49.7958 6.01345L49.7602 6.1111L49.7261 6.2103L49.6935 6.3095L49.6641 6.41025L49.6362 6.511L49.6114 6.61175L49.5881 6.71405L49.568 6.81635L49.5447 6.9512L49.5261 7.0845L49.5122 7.21625L49.5029 7.34645L49.4998 7.43325V7.69055L49.506 7.77425L49.5122 7.85795L49.5215 7.9401L49.5323 8.02225L49.5447 8.10285L49.5602 8.1819L49.5773 8.26095L49.5959 8.33845L49.616 8.41441L49.6393 8.49036L49.6641 8.56476L49.6904 8.63761L49.7183 8.71046L49.7478 8.78176L49.7803 8.85151L49.8144 8.91971L49.8501 8.98791L49.8873 9.05456L49.926 9.11966L49.9663 9.18321L50.0082 9.24521L50.0516 9.30566L50.0965 9.36611L50.143 9.42501L50.1911 9.48236L50.2407 9.53816L50.2918 9.59241L50.3275 9.62806L50.2856 9.64046L54.5683 13.5945L52.561 13.7371L51.755 13.8255L51.0203 13.9665L50.3476 14.1556L49.7276 14.3866L49.1526 14.6532L48.6132 14.9508L48.1017 15.2732L47.6088 15.6142L47.1267 15.9691L46.6462 16.3318L46.1595 16.6961L45.8495 16.9177L43.1308 14.4083L36.7432 14.8624L36.8083 15.3336L36.8688 15.8389L36.923 16.3752L36.9664 16.941L36.9974 17.5331L37.0129 18.1515L37.0098 18.7948L36.985 19.4597L36.9633 19.8054L36.937 20.1588L36.9122 20.4239L31.5662 15.4886H31.5631L31.5585 15.484L31.3415 15.3181L31.0997 15.1802L30.8315 15.0701L30.5401 14.988L30.2239 14.9322L29.8844 14.9012L29.5217 14.895L29.1373 14.912L28.8134 14.9415L28.4817 14.9833L28.1453 15.036L27.8074 15.098L27.4695 15.1693L27.1332 15.2484L26.8015 15.3336L26.4775 15.4251L26.1629 15.5212L25.8591 15.6204L25.5692 15.7227L25.2964 15.8265L25.0422 15.9304L24.8082 16.0327L24.5974 16.1334L24.4114 16.2311L23.8611 20.2704L20.8557 17.4943L20.5038 17.1053L20.0977 16.7689L19.6374 16.4837L19.1228 16.2497L18.5524 16.0668L17.9261 15.9366L17.2441 15.8606L16.5063 15.8374L15.7112 15.8684L15.1113 15.9242L14.5239 16.0063L13.9488 16.1148L13.3862 16.2481L12.8375 16.4062L12.3027 16.5891L11.7819 16.7953L11.2751 17.0231L10.7837 17.2742L10.3079 17.547L9.84752 17.84L9.40266 18.1546L8.97486 18.4894L8.56411 18.8428L8.17041 19.2148L7.79376 19.6054L7.43571 20.0131L7.09625 20.4378L6.7754 20.8796L6.47315 21.3368L6.1895 21.8096L5.926 22.2978L5.68265 22.8L5.461 23.3146L5.2595 23.8432L5.07969 24.3841L4.9216 24.9359L4.78519 25.5001L4.67204 26.0752L4.58059 26.6595L4.51239 27.2532L4.46899 27.8561L4.45659 28.69L4.50929 29.4852L4.62709 30.2369L4.81 30.9437L5.05955 31.604L5.37575 32.2132L5.7586 32.7697L6.2081 33.2719L6.4964 33.5183H6.49175L13.1924 39.7059L13.2637 39.785L13.4714 39.9617L13.5489 40.033H13.5536L13.783 40.2283L14.3689 40.6111L14.7052 40.7754L1.31473 41.7256L0.308777 46.6298L4.9185 50.8861L7.3644 53.1445L123.189 44.9201L127.301 44.6287L128.307 39.7245L121.432 33.3757L121.253 33.2099L117.733 33.4594L117.815 33.4176L118.306 33.1386L118.782 32.8378L118.906 32.751L119.241 32.517L119.684 32.176L120.11 31.8148L120.518 31.4351L120.645 31.3049L120.909 31.0367L121.281 30.6213L121.634 30.1889L121.967 29.7394L122.211 29.3782L122.28 29.2744L122.37 29.1271L122.575 28.7939L122.831 28.332L122.849 28.2979L123.102 27.7895L123.179 27.6159L123.333 27.2671L123.396 27.1044L123.542 26.7324L123.668 26.3681L123.73 26.1852L123.795 25.9651L123.894 25.6257L124.007 25.17L124.035 25.0553L124.153 24.4756L124.247 23.8866L124.306 23.3766L124.317 23.2883L124.362 22.6807L124.367 22.4218L124.376 21.8902L124.353 21.529L124.328 21.1446L124.222 20.444L124.08 19.8689L124.06 19.7868L124.65 19.5775L125.213 19.3543L125.749 19.1187L126.259 18.8707L126.743 18.6134L127.202 18.3468L127.636 18.074L128.045 17.795L128.431 17.5114L128.793 17.2246L129.134 16.9348L129.454 16.6449L129.751 16.3566L130.029 16.0699L130.286 15.7862L130.525 15.5072L130.743 15.2344L130.945 14.9694L131.128 14.7136L131.294 14.4687L131.442 14.2347L131.576 14.0146L131.694 13.8084L131.796 13.6193L131.884 13.4473L131.959 13.2938L132.021 13.159L132.07 13.0458L132.107 12.9559L132.134 12.8893L132.154 12.835L125.098 6.32035L125.112 6.31415ZM31.5755 22.4265L31.7553 22.5923L31.6685 22.6342L31.5228 22.7117L31.5461 22.5815L31.574 22.4265H31.5755ZM105.509 24.1532L105.347 24.7065L105.226 25.1917L105.347 24.7065L105.509 24.1532L105.688 23.637L105.509 24.1532ZM104.964 26.6998L104.925 27.0393L104.88 27.65L104.869 28.0297L104.88 27.65L104.925 27.0393L104.964 26.6998ZM71.5781 29.2527L71.5827 29.0837L71.5781 29.2527ZM71.6261 28.27L71.685 27.7926L71.7191 27.5911L71.685 27.7926L71.6261 28.27ZM65.9081 26.2844L65.8074 26.5479L65.7175 26.8192L65.8074 26.5479L65.9081 26.2844ZM65.578 27.2594L65.4679 27.6422L65.3315 28.2064L65.2866 28.4358L65.3315 28.2064L65.4679 27.6422L65.578 27.2594ZM65.0153 30.5609L65.0587 29.9579L65.0897 29.682L65.0587 29.9579L65.0153 30.5609L65.0091 31.201L65.0153 30.5609ZM18.2423 31.3715L18.278 31.1669L18.2423 31.3715ZM18.0982 33.0502L18.1106 32.5449L18.1245 32.3698L18.1106 32.5449L18.0982 33.0502L18.1075 33.2858L18.0982 33.0502ZM31.994 31.8567L32.025 31.697L31.994 31.8567L31.9351 31.9094L31.994 31.8567ZM32.1041 31.2739L32.1087 31.2522L32.1041 31.2739L32.0932 31.3297L32.1041 31.2739ZM32.2157 30.6942L32.2699 30.409L32.3226 30.13L32.3738 29.8572L32.4218 29.5937L32.4296 29.5487L32.4218 29.5937L32.3738 29.8572L32.3226 30.13L32.2699 30.409L32.2157 30.6942L32.211 30.7159L32.2157 30.6942ZM32.5815 28.659L32.6063 28.4854L32.5815 28.659L32.5474 28.8714L32.5815 28.659ZM38.4265 30.0633L38.3723 30.3718L38.3196 30.6694L38.3103 30.7267L38.3196 30.6694L38.3723 30.3718L38.4265 30.0633L38.4482 29.9424L38.4265 30.0633ZM39.1271 26.1217L39.1566 25.9496L39.1798 25.8132L39.1566 25.9496L39.1271 26.1217ZM39.372 24.443V24.4601L39.3643 24.5593L39.3503 24.6879L39.3643 24.5593L39.372 24.4601V24.443ZM39.3054 25.0212L39.2899 25.1266L39.3054 25.0212L39.3178 24.9313L39.3054 25.0212ZM39.0078 26.8161L38.9535 27.1276L38.9411 27.202L38.9535 27.1276L39.0078 26.8161L39.0124 26.7944L39.0078 26.8161ZM38.8218 27.8608L38.7784 28.0995L38.7195 28.4312L38.659 28.7644L38.6001 29.0961L38.5412 29.4247L38.5226 29.527L38.5412 29.4247L38.6001 29.0961L38.659 28.7644L38.7195 28.4312L38.7784 28.0995L38.8218 27.8608ZM31.1834 32.5465L30.9044 32.7666L30.5618 33.0192L30.9044 32.7666L31.1834 32.5465ZM24.8841 39.9415L25.2298 39.7679L25.3677 39.6982L25.8358 39.444L26.29 39.182L26.4326 39.0952L26.7286 38.9139L26.9394 38.7775L27.1502 38.6411L27.5563 38.3636L27.9469 38.0846L28.2461 37.8614L28.3205 37.8056L28.677 37.5266L29.0164 37.2507L29.3001 37.0105L29.3373 36.9779L29.6395 36.7129L29.9232 36.454L30.1883 36.2045L30.2859 36.1099L30.4331 35.9658L30.5292 35.8697L30.6579 35.741L30.8641 35.5287L30.8827 35.5085L31.0501 35.3318L31.2144 35.152L31.357 34.9908L31.4779 34.8498L31.5585 34.7537L31.5771 34.7304L31.5833 35.3582L31.6406 35.958L31.7197 36.3703L31.7491 36.5269L31.9103 37.0647L32.0343 37.3577L32.1227 37.5669L32.2405 37.7715L32.3893 38.0319L32.6032 38.3156L32.7101 38.4582L33.0868 38.8426L33.2743 38.9898L33.5192 39.182L33.6742 39.275L33.885 39.4021L24.6268 40.0593L24.6563 40.0454L24.8841 39.94V39.9415ZM43.2285 38.7294L43.3493 38.6659L43.4594 38.6008L43.8361 38.3791L44.3057 38.0707L44.7583 37.7405L45.1923 37.3902L45.6093 37.0182L45.8495 36.7826L46.0092 36.6261L46.2029 36.4168L46.3905 36.2153L46.7547 35.786L47.1019 35.338L47.4321 34.8715L47.7452 34.3879L47.8428 34.222L48.0397 33.8888L48.2334 33.5276L48.3171 33.3726L48.4039 33.1959L48.5775 32.841L48.5946 32.8022L54.1808 37.9606L43.2006 38.7403L43.2253 38.7279L43.2285 38.7294ZM62.1044 37.3236L62.3679 37.1624L62.6314 37.0012L63.1259 36.6679L63.3165 36.5284L63.5878 36.33L63.7939 36.1673L64.0171 35.9906L64.4155 35.6558L64.5007 35.5798L64.7813 35.3318L64.9487 35.1784L65.1161 35.0249L65.2974 34.8529L65.4168 34.7397L65.6865 34.4824L65.9035 34.887L65.9515 34.9614L66.1499 35.2683L66.4258 35.6248L66.7327 35.9565L67.0706 36.2618L67.438 36.5408L67.7805 36.7578L67.8364 36.7919L68.1774 36.9686L61.9417 37.4119L62.1044 37.3236ZM78.4151 36.1192L78.8584 35.8945L79.2893 35.662L79.7078 35.4217L79.9109 35.2993L80.114 35.1768L80.5061 34.9257L80.8843 34.6715L81.0982 34.5212L81.2486 34.4158L81.4826 34.2437L83.2744 35.8991L78.1082 36.2665L78.4151 36.1208V36.1192ZM90.9655 31.2553L94.4515 34.4747L94.6034 34.5971H94.6065L94.7073 34.6886L95.1273 34.9877L95.1878 35.0311L95.2203 35.0497L90.1874 35.4078L90.9655 31.2568V31.2553ZM102.932 34.4778L103.15 34.3429L103.369 34.2081L103.79 33.9275L104.113 33.6997L104.196 33.6408L104.584 33.3494L104.953 33.0579L105.055 32.9743L105.302 32.7697L105.443 32.6472L105.627 32.4875L105.929 32.2163L106.179 32.562L106.453 32.8859L106.602 33.0363L106.752 33.1866L107.076 33.4641L107.321 33.6423L107.425 33.7183L107.611 33.833L107.797 33.9477L107.854 33.9771L108.15 34.1306L102.882 34.5041L102.928 34.4778H102.932ZM103.375 28.2746L100.562 25.6768L103.375 28.2746ZM39.3069 23.2821L39.262 23.0976L39.3069 23.2821L39.3302 23.4386L39.3069 23.2821ZM38.9814 22.411L38.8512 22.2312L38.9814 22.411L39.0884 22.614L38.9814 22.411ZM38.6327 21.994L38.752 22.1165L38.6327 21.994ZM30.8842 27.1028L30.9617 27.0858L30.8842 27.1028ZM12.5957 29.6603L12.529 29.8153L12.3554 30.271L12.529 29.8153L12.5957 29.6603ZM12.1477 30.8848L12.2671 30.5237L12.1477 30.8848L11.9896 31.4366L11.9338 31.6707L11.9896 31.4366L12.1477 30.8848ZM122.817 9.72106L122.482 9.41261L122.817 9.72106ZM115.902 15.7707L116.524 15.7134L117.325 15.6855L116.524 15.7134L115.902 15.7707L115.721 15.7955L115.902 15.7707ZM113.544 16.2497L114.113 16.0931L114.323 16.0451L114.113 16.0931L113.544 16.2497L112.99 16.4295L112.816 16.4946L112.99 16.4295L113.544 16.2497ZM111.925 16.8557L112.112 16.7751L111.925 16.8557L111.415 17.1022L111.164 17.2386L111.415 17.1022L111.925 16.8557ZM53.6352 22.8961L53.2291 23.1999L52.978 23.3797L53.2291 23.1999L53.6352 22.8961Z" fill="#D44126"/>
<path d="M78.8599 1.29673L78.8614 1.25643L78.863 1.22078V1.19133L78.8645 1.16653V1.14638V1.13243L78.863 1.12158L78.8428 1.12313L78.8289 1.12468L78.8087 1.12623L78.7855 1.12778L78.7576 1.12933L78.7266 1.13088L78.6909 1.13398L78.6522 1.13708L78.6088 1.14018L78.5623 1.14328L78.5127 1.14638L78.4584 1.15103L78.4026 1.15413L78.3422 1.15878L78.2786 1.16343L78.2135 1.16808L78.1438 1.17273L78.0725 1.17738L77.9965 1.18358L77.919 1.18823L77.8384 1.19443L77.7563 1.20063L77.671 1.20683L77.5827 1.21303L77.4928 1.21923L77.3998 1.22543L77.3068 1.23163L77.2091 1.23938L77.1115 1.24558L77.0107 1.25333L76.9084 1.26108L76.8046 1.26728L76.6992 1.27503L76.5922 1.28278L76.4837 1.29053L76.3737 1.29828L76.2621 1.30603L76.1489 1.31378L76.0358 1.32308L75.9211 1.33083L75.8048 1.33858L75.6886 1.34788L75.5708 1.35563L75.453 1.36338L75.3352 1.37268L75.2158 1.38043L75.0965 1.38973L74.9756 1.39748L74.8562 1.40678L74.7353 1.41453L74.6144 1.42383L74.4935 1.43158L74.3726 1.44088L74.2533 1.44863L74.1324 1.45793L74.013 1.46568L73.8937 1.47498L73.7743 1.48273L73.655 1.49203L73.5372 1.49978L73.4209 1.50753L73.3047 1.51683L73.2458 1.66873L73.1853 1.81753L73.1264 1.96169L73.0675 2.10429L73.0086 2.24379L72.9497 2.37864L72.8893 2.51194L72.8304 2.64214L72.7715 2.76769L72.7126 2.89169L72.6552 3.01259L72.5963 3.13039L72.5374 3.24664L72.4785 3.35824L72.4196 3.46829L72.3623 3.57524L72.3034 3.68064L72.246 3.78294L72.1871 3.88214L72.1298 3.97979L72.0724 4.07434L72.0151 4.16579L71.9577 4.25569L71.9004 4.34405L71.843 4.4293L71.7857 4.513L71.7283 4.5936L71.671 4.6742L71.6151 4.75015L71.5578 4.8261L71.502 4.89895L71.4462 4.97025L71.3889 5.04L71.3331 5.1082L71.2772 5.1733L71.2214 5.2384L71.1672 5.3004L71.1114 5.3624L71.0556 5.4213L71.0014 5.4802L70.9471 5.536L70.8928 5.5918L70.8386 5.64605L70.7843 5.69875L70.7301 5.7499L70.6758 5.7995L70.6231 5.8491L70.5689 5.89715L70.5162 5.94365L70.4635 5.9886L70.4108 6.03355L70.3581 6.0785L70.3054 6.12035L70.2542 6.16375L70.2015 6.20405L70.1504 6.2459L70.0992 6.2862L70.0481 6.32495L69.9969 6.3637L69.9473 6.40245L69.8962 6.43965L69.8466 6.47685L69.797 6.51405L69.7474 6.55125L69.7365 6.5435L69.7195 6.5311L69.7086 6.5218L69.6947 6.51095L69.6792 6.49855L69.6621 6.4846L69.6435 6.46755L69.6234 6.4505L69.6017 6.43035L69.5784 6.40865L69.5536 6.38385L69.5273 6.3575L69.4994 6.3296L69.4699 6.30015L69.4405 6.2676L69.4095 6.2335L69.3769 6.1963L69.3444 6.15755L69.3103 6.11725L69.2746 6.07385L69.239 6.02735L69.2033 5.9793L69.1661 5.9297L69.1289 5.877L69.0902 5.8212L69.0514 5.76385L69.0127 5.7034L68.9739 5.63985L68.9336 5.57475L68.8949 5.50655L68.8546 5.43525L68.8143 5.3624L68.774 5.2849L68.7337 5.20585L68.6949 5.12525L68.6546 5.04L68.6159 4.95165L68.5771 4.86175L68.5384 4.76875L68.4996 4.6711L68.4624 4.5719L68.4252 4.4696L68.388 4.3642L68.3524 4.25569L68.3183 4.14409L68.2842 4.02939L68.2516 3.91004L68.2191 3.78914L68.1881 3.66514L68.1571 3.53649L68.1292 3.40474L68.1013 3.26989L68.0749 3.13194L68.0501 2.99089L68.0269 2.84519L68.0036 2.69639L67.9835 2.54449L67.9649 2.38794L67.9478 2.22829L67.9323 2.06554L67.9184 1.89814L67.83 1.90589L67.7401 1.91209L67.6487 1.91829L67.5557 1.92449L67.4611 1.93069L67.365 1.93844L67.2689 1.94464L67.1728 1.95239L67.0752 1.95859L66.976 1.96634L66.8768 1.97254L66.7776 1.98029L66.6768 1.98649L66.5776 1.99424L66.4769 2.00199L66.3761 2.00819L66.2754 2.01594L66.1746 2.02214L66.0739 2.02989L65.9731 2.03764L65.8724 2.04384L65.7732 2.05159L65.674 2.05779L65.5748 2.06554L65.4771 2.07174L65.3795 2.07949L65.2818 2.08569L65.1873 2.09344L65.0927 2.09964L64.9982 2.10584L64.9067 2.11204L64.8153 2.11979L64.7254 2.12599L64.637 2.13219L64.5518 2.13839L64.4665 2.14459L64.3828 2.14924L64.3022 2.15544L64.2216 2.16164L64.1441 2.16629L64.0697 2.17249L63.9969 2.17714L63.9256 2.18179L63.8574 2.18799L63.7907 2.19264L63.7272 2.19574L63.6667 2.20039L63.6078 2.20504L63.5536 2.20814L63.5009 2.21279L63.4513 2.21589L63.4048 2.21899L63.3614 2.22209L63.3226 2.22519L63.2854 2.22829L63.2529 2.22984L63.2234 2.23294L63.1971 2.23449L63.1754 2.23604L63.1568 2.23759H63.1428L63.132 2.23914L63.1227 2.24689L63.1211 2.25619L63.118 2.27014L63.1165 2.28719L63.1134 2.30889L63.1087 2.33214L63.1056 2.36004L63.1025 2.39259L63.0979 2.42669L63.0948 2.46389L63.0901 2.50574L63.087 2.55069L63.0824 2.59719L63.0793 2.64834L63.0762 2.70259L63.0731 2.76149L63.0715 2.82504L63.07 2.89169L63.0684 2.96144V3.03429V3.10869L63.07 3.18774L63.0731 3.26834L63.0762 3.35204L63.0808 3.43884L63.087 3.52719L63.0948 3.61864L63.1025 3.71164L63.1134 3.80774L63.1258 3.90539L63.1397 4.00614L63.1537 4.10689L63.1723 4.21229L63.1909 4.31769L63.2126 4.42465L63.2358 4.5347L63.2606 4.6463L63.2885 4.7579L63.3195 4.8726L63.3521 4.98885L63.3877 5.1051L63.4249 5.2229L63.4652 5.34225L63.5086 5.46315L63.5551 5.58405L63.6032 5.7065L63.6559 5.8305L63.7117 5.9545L63.769 6.0785L63.831 6.20405L63.8961 6.3296L63.9659 6.45515L64.0372 6.58225L64.1131 6.70935L64.1922 6.83645L64.2759 6.96356L64.3627 7.09066L64.4541 7.21931L64.5502 7.34641L64.6494 7.47351L64.7517 7.60061L64.8602 7.72616L64.9718 7.85326L65.0896 7.97881L65.2105 8.10281L65.3361 8.22836L65.4663 8.35236L65.6027 8.47481L65.7422 8.59726L65.8879 8.71816L66.0382 8.83751L66.1932 8.95686L66.3544 9.07466L66.5203 9.19091L66.6923 9.30717L66.869 9.42032L67.0504 9.53192L67.2395 9.64352L67.4332 9.75202L71.5965 9.45597L71.9035 9.31492L72.2011 9.17231L72.4894 9.02661L72.7699 8.88091L73.0427 8.73366L73.3062 8.58331L73.562 8.43451L73.81 8.28261L74.0502 8.13071L74.2827 7.97726L74.5075 7.82226L74.7245 7.66726L74.9353 7.51226L75.1383 7.35726L75.3336 7.20071L75.5227 7.04416L75.7041 6.88761L75.8792 6.73106L76.0482 6.5745L76.2094 6.41795L76.3659 6.2614L76.5147 6.1064L76.6589 5.9514L76.7953 5.7964L76.927 5.64295L77.0541 5.4895L77.1735 5.3376L77.2882 5.1857L77.3982 5.03535L77.5036 4.88655L77.6028 4.7393L77.6974 4.59205L77.7857 4.4479L77.871 4.30529L77.9516 4.16269L78.0275 4.02319L78.0988 3.88679L78.1655 3.75039L78.229 3.61709L78.2895 3.48689L78.3437 3.35824L78.3964 3.23114L78.4445 3.10869L78.4894 2.98779L78.5313 2.86844L78.57 2.75374L78.6041 2.64214L78.6367 2.53209L78.6661 2.42669L78.694 2.32439L78.7173 2.22519L78.7405 2.12909L78.7591 2.03764L78.7777 1.94929L78.7932 1.86559L78.8056 1.78498L78.818 1.70748L78.8273 1.63618L78.8366 1.56798L78.8428 1.50443L78.849 1.44553L78.8537 1.39128L78.8568 1.34168L78.8599 1.29673Z" fill="#8CD5F5"/>
<path d="M120.256 38.1047L121.262 33.199L1.3255 41.7163L0.317993 46.6205L120.256 38.1047Z" fill="#8CD5F5"/>
<path d="M57.3814 5.7096L57.3845 5.62125L57.3861 5.5329V5.4461L57.383 5.3593L57.3783 5.27405L57.3721 5.19035L57.3628 5.10665L57.352 5.0245L57.3396 4.94235L57.3256 4.86175L57.3086 4.7827L57.29 4.70365L57.2698 4.62615L57.2481 4.5502L57.2233 4.4758L57.1985 4.4014L57.1706 4.32855L57.1412 4.25725L57.1102 4.18595L57.0761 4.1162L57.042 4.04955L57.0048 3.98135L56.9676 3.91625L56.9273 3.8527L56.8854 3.78915L56.842 3.72715L56.7986 3.66824L56.7521 3.60934L56.7041 3.55199L56.6545 3.49619L56.6033 3.44194L56.5506 3.38769L56.4964 3.33654L56.4406 3.28694L56.3832 3.23889L56.3243 3.19084L56.2639 3.14589L56.2034 3.10249L56.1399 3.06064L56.0763 3.02034L56.0112 2.98159L55.943 2.94439L55.8748 2.90874L55.8051 2.87464L55.7353 2.84364L55.6625 2.81264L55.5896 2.78474L55.5152 2.75839L55.4393 2.73359L55.3618 2.71034L55.2843 2.69019L55.2052 2.67004L55.1246 2.65299L55.0425 2.63904L54.9603 2.62509L54.8766 2.61424L54.7914 2.60494L54.7061 2.59719L54.6193 2.59254L54.531 2.58944L54.4426 2.58789L54.3527 2.58944L54.2628 2.59254L54.1714 2.59874L54.0706 2.60649L53.9699 2.61734L53.8707 2.63129L53.7699 2.64679L53.6707 2.66539L53.5715 2.68554L53.4723 2.70879L53.3747 2.73359L53.277 2.76149L53.1794 2.79094L53.0817 2.82194L52.9856 2.85604L52.8911 2.89169L52.795 2.93044L52.7004 2.97074L52.6074 3.01259L52.5144 3.05754L52.4214 3.10404L52.33 3.15209L52.2401 3.20169L52.1502 3.25439L52.0603 3.30709L51.9735 3.36289L51.8851 3.42024L51.7999 3.48069L51.7146 3.54114L51.6309 3.60314L51.5488 3.66824L51.4666 3.73335L51.386 3.80155L51.307 3.86975L51.2279 3.94105L51.152 4.01235L51.076 4.0852L51.0016 4.16115L50.9288 4.2371L50.8575 4.3146L50.7877 4.39365L50.7195 4.47425L50.6529 4.55485L50.5862 4.63855L50.5227 4.72225L50.4607 4.8075L50.4002 4.89275L50.3413 4.9811L50.284 5.06945L50.2282 5.15935L50.1739 5.24925L50.1228 5.3407L50.0732 5.4337L50.0236 5.5267L49.9786 5.62125L49.9337 5.7158L49.8918 5.8119L49.8515 5.908L49.8128 6.00565L49.7771 6.1033L49.743 6.2025L49.7105 6.30171L49.681 6.40246L49.6531 6.50321L49.6283 6.60396L49.6051 6.70626L49.5849 6.80856L49.5601 6.94186L49.5415 7.07516L49.5276 7.20691L49.5198 7.33556L49.5152 7.42391L49.5136 7.51071L49.5152 7.59596L49.5183 7.68121L49.5229 7.76491L49.5291 7.84861L49.5384 7.93076L49.5493 8.01291L49.5632 8.09351L49.5772 8.17256L49.5942 8.25161L49.6128 8.32911L49.6345 8.40661L49.6562 8.48101L49.681 8.55696L49.7074 8.62982L49.7353 8.70112L49.7663 8.77242L49.7973 8.84216L49.8314 8.91192L49.867 8.97857L49.9042 9.04522L49.943 9.11032L49.9833 9.17387L50.0251 9.23742L50.0685 9.29787L50.1135 9.35832L50.1615 9.41567L50.2096 9.47302L50.2592 9.52882L50.3103 9.58307L50.3646 9.63577L50.4188 9.68692L50.4746 9.73652L50.532 9.78612L50.5909 9.83262L50.6513 9.87757L50.7133 9.92097L50.7753 9.96282L50.8404 10.0031L50.9055 10.0419L50.9722 10.0791L51.0419 10.1147L51.1101 10.1473L51.1814 10.1798L51.2527 10.2093L51.3256 10.2387L51.4 10.2651L51.4759 10.2899L51.5519 10.3131L51.6294 10.3333L51.7084 10.3519L51.789 10.3705L51.8696 10.3844L51.9518 10.3984L52.0339 10.4092L52.1176 10.4185L52.2029 10.4263L52.2881 10.4309L52.3749 10.434L52.4617 10.4356L52.5501 10.434L52.64 10.4309L52.7299 10.4263L52.8275 10.4185L52.9267 10.4077L53.0244 10.3937L53.1236 10.3782L53.2212 10.3596L53.3189 10.3395L53.4165 10.3178L53.5142 10.2914L53.6103 10.2651L53.7064 10.2356L53.8025 10.2031L53.8986 10.1705L53.9931 10.1333L54.0877 10.0961L54.1822 10.0558L54.2752 10.014L54.3682 9.96902L54.4597 9.92407L54.5511 9.87602L54.6426 9.82487L54.7309 9.77372L54.8208 9.71947L54.9092 9.66522L54.996 9.60787L55.0812 9.54897L55.1665 9.48852L55.2517 9.42652L55.3339 9.36142L55.416 9.29632L55.4982 9.22967L55.5772 9.16147L55.6563 9.09017L55.7338 9.01887L55.8097 8.94602L55.8841 8.87162L55.957 8.79567L56.0298 8.71972L56.0996 8.64067L56.1693 8.56161L56.236 8.48101L56.3026 8.39886L56.3677 8.31516L56.4297 8.23146L56.4917 8.14621L56.5506 8.05941L56.6095 7.97261L56.6653 7.88426L56.7196 7.79436L56.7723 7.70446L56.8219 7.61301L56.8715 7.52001L56.918 7.42701L56.9629 7.33401L57.0048 7.23946L57.0466 7.14336L57.0838 7.04881L57.121 6.95116L57.1551 6.85351L57.1877 6.75586L57.2171 6.65821L57.245 6.55901L57.2698 6.45981L57.2931 6.36061L57.3132 6.25986L57.338 6.12035L57.3566 5.98085L57.3721 5.84445L57.3814 5.7096Z" fill="#8CD5F5"/>
<path d="M124.974 6.32342L124.811 6.33582L124.591 6.35132L124.32 6.36992L124.005 6.39317L123.649 6.41797L123.26 6.44587L122.84 6.47532L122.398 6.50632L121.938 6.53887L121.463 6.57297L120.983 6.60707L120.501 6.64117L120.023 6.67527L119.554 6.70937L119.318 7.20228L119.08 7.66108L118.838 8.08423L118.593 8.47483L118.346 8.83288L118.1 9.16148L117.853 9.46064L117.607 9.73189L117.362 9.97834L117.12 10.1984L116.883 10.3937L116.649 10.5673L116.42 10.7208L116.196 10.8541L115.981 10.9688L115.772 11.0664L115.235 10.5735L114.623 10.1519L113.938 9.80319L113.182 9.52884L112.356 9.33043L111.46 9.20798L110.497 9.16458L109.469 9.19868L108.846 9.25604L108.237 9.33974L107.64 9.44669L107.058 9.57999L106.489 9.73499L105.934 9.91479L105.395 10.1178L104.871 10.3426L104.361 10.589L103.868 10.8572L103.39 11.1455L102.93 11.4555L102.487 11.7841L102.06 12.1328L101.653 12.5002L101.264 12.8861L100.892 13.2892L100.54 13.7092L100.208 14.1479L99.8951 14.6005L99.6021 15.0701L99.3293 15.5553L99.0782 16.0559L98.8488 16.569L98.6411 17.0975L98.4551 17.6385L98.2908 18.1918L98.1513 18.7576L98.0335 19.3357L97.9405 19.9247L97.8708 20.5246L97.8258 21.1337L97.8103 21.6933L97.8243 22.2327L97.8661 22.7504L97.9359 23.2495L97.8289 23.3363L97.6987 23.4339L97.5453 23.5424L97.3686 23.6602L97.1702 23.7827L96.9501 23.9082L96.7052 24.0353L96.4401 24.1624L96.1503 24.2864L95.8403 24.4058L95.507 24.5158L95.1521 24.6181L94.7739 24.708L94.374 24.7855L93.9524 24.846L93.509 24.8878L92.9634 24.9018L92.4736 24.8646L92.0334 24.7793L91.6413 24.6538L91.2941 24.4879L90.9887 24.2895L90.7221 24.0617L90.4912 23.809L90.2912 23.5347L90.1207 23.2448L89.9766 22.9426L89.8541 22.631L89.7534 22.3179L89.6681 22.0033L89.5968 21.6948L89.5348 21.3957L90.2494 21.1043L90.9345 20.7896L91.5886 20.4517L92.2086 20.0921L92.7945 19.7093L93.3417 19.3032L93.8501 18.8754L94.3182 18.4228L94.7413 17.9469L95.1195 17.4463L95.4512 16.9224L95.7333 16.3737L95.9643 15.8002L96.141 15.2019L96.2619 14.5788L96.327 13.9309L96.3316 13.5232L96.3037 13.1342L96.2417 12.7637L96.1456 12.4134L96.0139 12.0848L95.848 11.781L95.645 11.502L95.4063 11.2493L95.1319 11.0261L94.8188 10.8324L94.4685 10.6696L94.081 10.541L93.6547 10.4464L93.1913 10.3891L92.686 10.3689L92.142 10.3891L91.6909 10.434L91.246 10.5022L90.812 10.5937L90.3889 10.7084L89.9735 10.8432L89.5674 10.9982L89.1721 11.1718L88.7862 11.3625L88.4111 11.5686L88.0453 11.7918L87.6903 12.029L87.3462 12.2801L87.0114 12.542L86.6875 12.8164L86.3759 13.1001L86.0737 13.393L88.501 0.438049L82.2018 0.884451L78.305 21.5553L77.9795 21.8421L77.6013 22.1536L77.172 22.4884L76.6961 22.8387L76.1769 23.1999L75.6142 23.5657L75.0113 23.9284L74.3727 24.2849L73.6969 24.6274L72.9916 24.9514L72.2538 25.2521L71.4912 25.5203L70.7023 25.7543L69.8916 25.945L69.0608 26.0876L68.213 26.1775L67.7355 26.1945L67.2907 26.1759L66.8815 26.1217L66.5048 26.0318L66.1607 25.9062L65.8507 25.7466L65.5733 25.5513L65.3299 25.3203L65.1176 25.0553L64.9393 24.7545L64.7921 24.4197L64.6774 24.0508L64.5952 23.6478L64.5441 23.2092L64.5239 22.738L64.5363 22.2311L64.5735 21.7537L64.6309 21.2763L64.713 20.8036L64.8169 20.3401L64.944 19.8875L65.0943 19.452L65.2679 19.035L65.4663 18.6429L65.688 18.2802L65.9344 17.9469L66.2041 17.6509L66.5002 17.3951L66.8226 17.1812L67.1682 17.0169L67.5402 16.9022L67.9386 16.8449L68.2269 16.8418L68.4842 16.8759L68.7105 16.9441L68.9089 17.0433L69.081 17.1688L69.2282 17.3192L69.3507 17.4912L69.453 17.6819L69.5351 17.8865L69.6002 18.105L69.6483 18.3313L69.6808 18.5638L69.701 18.801L69.7103 19.0366V19.2691L69.701 19.4969L75.3399 17.7485L75.3538 17.0262L75.3166 16.3489L75.2283 15.7196L75.0872 15.1383L74.895 14.6036L74.6486 14.1184L74.3494 13.6813L73.9976 13.2954L73.5915 12.959L73.1296 12.6738L72.615 12.4382L72.0446 12.2568L71.4184 12.1266L70.7379 12.0507L70.0001 12.0274L69.205 12.0584L68.6051 12.1142L68.0177 12.1979L67.4426 12.3064L66.8815 12.4397L66.3328 12.5978L65.798 12.7792L65.2772 12.9853L64.7704 13.2148L64.2806 13.4643L63.8032 13.7371L63.3428 14.0316L62.8995 14.3447L62.4717 14.6795L62.061 15.0329L61.6657 15.4049L61.2906 15.7955L60.931 16.2032L60.5916 16.6294L60.2707 17.0696L59.9669 17.5284L59.6848 18.0012L59.4213 18.4879L59.178 18.9901L58.9563 19.5047L58.7548 20.0332L58.575 20.5742L58.4169 21.126L58.2805 21.6902L58.1658 22.2652L58.0759 22.8496L58.0077 23.4432L57.9628 24.0462L57.955 24.9932L58.031 25.8876L57.9922 25.8241L57.7706 25.9899L57.535 26.1604L57.2901 26.3356L57.0343 26.5123L56.7724 26.6874L56.5058 26.8595L56.2345 27.0284L55.9633 27.1881L55.692 27.3384L55.4223 27.4795L55.1572 27.605L54.8984 27.7166L54.6473 27.8096L54.4055 27.8825L54.1776 27.9336L53.9606 27.9615H53.7312L53.5251 27.9212L53.3468 27.8406L53.1965 27.7166L53.0802 27.543L52.9981 27.3198L52.9547 27.0408L52.9516 26.7045L52.9903 26.3325L53.0694 25.9047L55.4269 13.5263L52.5796 13.7294L51.7736 13.8177L51.0389 13.9588L50.3662 14.1479L49.7462 14.3773L49.1696 14.6439L48.6302 14.9415L48.1187 15.2639L47.6258 15.6049L47.1422 15.9598L46.6617 16.321L46.175 16.6852L45.6728 17.0464L45.1458 17.3982L44.5878 17.7361L43.9879 18.0523L43.34 18.3422L43.3586 17.8074L43.3664 17.2773L43.3617 16.7565L43.3462 16.2481L43.3167 15.7537L43.2749 15.2794L43.2176 14.8268L43.1462 14.399L36.7602 14.8516L36.8253 15.3243L36.8873 15.8281L36.94 16.3644L36.9834 16.9286L37.0144 17.5222L37.0299 18.1407L37.0268 18.7839L37.002 19.4504L36.9819 19.7961L36.954 20.1495L36.9214 20.5106L36.8811 20.8764L36.8362 21.2469L36.7835 21.6204L36.7246 21.9955L36.6579 22.3706L36.5851 22.7457L36.5045 23.1193L36.4161 23.4897L36.3216 23.8555L36.2193 24.2167L36.1077 24.5716L35.9899 24.9188L35.8628 25.2568L35.7279 25.5838L35.5838 25.9L35.4319 26.2054L35.2707 26.4952L35.1017 26.7711L34.9219 27.0315L34.7344 27.2733L34.5375 27.4981L34.3298 27.7027L34.1144 27.8856L33.8881 28.0483L33.6509 28.1863L33.4045 28.301L33.1487 28.3909L32.8806 28.4529L32.6031 28.487L32.1846 28.4777L31.825 28.3878L31.5274 28.2219L31.2903 27.9817L31.112 27.6717L30.9942 27.2966L30.9353 26.8579L30.9338 26.3604L30.9585 26.0457L30.9741 25.9279L30.9942 25.7822L31.0206 25.6102L31.0515 25.4164L31.0857 25.1994L31.126 24.9638L31.1694 24.7096L31.2174 24.4383L31.267 24.1531L31.3197 23.8571L31.374 23.5486L31.4313 23.2324L31.4887 22.91L31.5476 22.5814L31.608 22.2497L31.6669 21.9165L31.7274 21.5848L31.7863 21.2562L31.8436 20.9307L31.901 20.6114L31.9552 20.2998L32.0079 19.9991L32.0575 19.7108L32.104 19.4349L32.1474 19.1745L32.1877 18.9312L32.2218 18.708L32.2528 18.5065L32.2776 18.3267L32.2978 18.1717L32.3117 18.0446L32.3195 17.9438L32.3288 17.5176L32.3071 17.1254L32.2559 16.7674L32.1753 16.445L32.0668 16.1551L31.9304 15.8978L31.7677 15.6715L31.577 15.4747L31.36 15.3088L31.1182 15.1724L30.8501 15.0624L30.5586 14.9802L30.2424 14.9229L29.9014 14.8919L29.5387 14.8857L29.1543 14.9027L28.8304 14.9306L28.4987 14.9725L28.1639 15.0252L27.8244 15.0872L27.4865 15.1569L27.1517 15.236L26.82 15.3212L26.4961 15.4127L26.1814 15.5088L25.8776 15.608L25.5878 15.7087L25.315 15.8126L25.0592 15.9164L24.8252 16.0187L24.6144 16.1195L24.4299 16.2171L23.8332 20.5897L24.0378 20.5447L24.2734 20.5013L24.5229 20.4657L24.7725 20.4409L24.9957 20.4393L25.1832 20.4688L25.3336 20.5339L25.4498 20.6377L25.5335 20.7819L25.5862 20.9679L25.611 21.2019L25.6079 21.484L25.5971 21.6173L25.5816 21.7739L25.5583 21.9506L25.5304 22.1443L25.4963 22.3567L25.4576 22.5845L25.4157 22.8248L25.3708 23.079L25.3227 23.3425L25.2716 23.6153L25.2189 23.8943L25.1631 24.1795L25.1088 24.4693L25.053 24.7607L24.9972 25.0521L24.943 25.342L24.6361 25.6164L24.2718 25.9217L23.8533 26.2503L23.3852 26.5975L22.8675 26.9571L22.3033 27.3229L21.6973 27.6872L21.0494 28.0468L20.3643 28.394L19.6451 28.7241L18.8918 29.0279L18.109 29.3023L17.2999 29.541L16.466 29.7363L15.6104 29.882L14.7362 29.975L14.2572 29.992L13.8124 29.9734L13.4032 29.9192L13.0265 29.8293L12.6824 29.7037L12.3724 29.5441L12.095 29.3488L11.8516 29.1178L11.6393 28.8528L11.461 28.5521L11.3138 28.2173L11.1991 27.8484L11.1169 27.4454L11.0658 27.0067L11.0456 26.5355L11.058 26.0287L11.0952 25.5513L11.1526 25.0738L11.2347 24.6011L11.3386 24.1376L11.4657 23.685L11.616 23.2495L11.7896 22.8325L11.988 22.4404L12.2097 22.0777L12.4561 21.7444L12.7274 21.4484L13.0219 21.1926L13.3443 20.9787L13.6899 20.8144L14.0619 20.6997L14.4603 20.6424L14.7486 20.6393L15.0059 20.6734L15.2322 20.7416L15.4306 20.8408L15.6026 20.9663L15.7499 21.1167L15.8723 21.2887L15.9746 21.4794L16.0568 21.684L16.1219 21.9025L16.1699 22.1288L16.2025 22.3613L16.2226 22.5985L16.2319 22.8341V23.0666L16.2226 23.2944L21.8616 21.546L21.8755 20.8237L21.8383 20.1464L21.75 19.5171L21.6089 18.9358L21.4167 18.4011L21.1703 17.9159L20.8711 17.4788L20.5193 17.0929L20.1132 16.7565L19.6513 16.4713L19.1367 16.2357L18.5663 16.0544L17.94 15.9242L17.2596 15.8482L16.5218 15.825L15.7266 15.856L15.1268 15.9118L14.5393 15.9939L13.9643 16.1024L13.4032 16.2373L12.8545 16.3954L12.3197 16.5767L11.7989 16.7829L11.2921 17.0107L10.8023 17.2618L10.3249 17.5346L9.86607 17.8291L9.42122 18.1422L8.99341 18.477L8.58266 18.8304L8.18741 19.2024L7.81231 19.593L7.45271 20.0007L7.11326 20.4254L6.79241 20.8671L6.48861 21.3259L6.2065 21.7987L5.943 22.2854L5.69965 22.7876L5.478 23.3022L5.2765 23.8307L5.0967 24.3717L4.9386 24.9235L4.8022 25.4877L4.6875 26.0628L4.5976 26.6471L4.5294 27.2408L4.48445 27.8437L4.47205 28.6776L4.52475 29.4728L4.64255 30.2245L4.82545 30.9313L5.07345 31.5916L5.38965 32.2008L5.7725 32.7572L6.222 33.2594L6.73971 33.7027L7.32406 34.0856L7.97816 34.4064L8.70046 34.6606L9.49252 34.8466L10.3528 34.9613L11.2843 35.0016L12.2841 34.9675L12.8932 34.9102L13.49 34.828L14.0759 34.7211L14.6494 34.5909L15.212 34.4405L15.7623 34.27L16.3001 34.0825L16.824 33.8779L17.3355 33.6593L17.8315 33.4268L18.3152 33.1819L18.7833 32.9293L19.2374 32.6673L19.6761 32.3976L20.0977 32.1248L20.5053 31.8474L20.8944 31.5668L21.2679 31.2878L21.6244 31.0088L21.9639 30.7329L22.2847 30.4617L22.587 30.1951L22.8706 29.9378L23.1357 29.6882L23.3806 29.4495L23.6069 29.2232L23.813 29.0124L23.9975 28.8156L24.1618 28.6358L24.3044 28.4746L24.4268 28.3351L24.526 28.2157L24.5322 28.8435L24.5896 29.4418L24.6981 30.0122L24.8577 30.5485L25.0716 31.0507L25.3382 31.5172L25.6591 31.9435L26.0357 32.3279L26.4682 32.6689L26.9564 32.9634L27.502 33.2098L28.1065 33.4036L28.7684 33.5462L29.4907 33.633L30.2734 33.6624L31.1167 33.6299L31.763 33.5694L32.3923 33.4826L33.003 33.3679L33.5967 33.2269L34.1717 33.061L34.7297 32.8704L35.2707 32.6534L35.793 32.4147L36.2983 32.1512L36.785 31.866L37.2547 31.5575L37.7073 31.2274L38.1428 30.8771L38.5598 30.5051L38.9597 30.1129L39.341 29.7022L39.7052 29.2728L40.054 28.8249L40.3826 28.3583L40.6957 27.8747L40.9902 27.3756L41.2676 26.8595L41.528 26.3278L41.7714 25.7822L41.9977 25.2211L42.2054 24.6476L42.3976 24.0586L42.5712 23.4587L42.7277 22.8465L42.8672 22.2218L42.9897 21.5863L43.0951 20.9415L43.7709 20.7912L44.4483 20.6145L45.1194 20.4068L45.7797 20.1696L46.4183 19.9015L47.029 19.6039L47.6041 19.2722L48.1357 18.9095L46.609 27.14L46.4772 27.9507L46.4106 28.6776L46.4013 29.2263L46.4338 29.7208L46.5067 30.1641L46.6167 30.5593L46.7655 30.9065L46.9515 31.2088L47.1701 31.4676L47.4227 31.6877L47.7064 31.8691L48.021 32.0148L48.3651 32.1264L48.7356 32.2054L49.1324 32.2566L49.554 32.2814L49.9988 32.2798L50.4669 32.2566L51.2171 32.1744L51.9363 32.0411L52.6245 31.8629L53.2802 31.6459L53.9033 31.3932L54.4938 31.1127L55.0534 30.8089L55.5804 30.4865L56.0748 30.1548L56.5368 29.8153L56.9677 29.4759L57.366 29.1411L57.7318 28.8171L58.0651 28.5102L58.3673 28.225L58.6355 27.9677L58.8525 28.3723L59.0989 28.7536L59.3748 29.1101L59.6817 29.4418L60.0196 29.7471L60.387 30.0261L60.7853 30.2772L61.2147 30.5004L61.6735 30.6942L62.1648 30.8569L62.6856 30.9902L63.239 31.0925L63.8218 31.1623L64.4371 31.1995L65.085 31.2026L65.7624 31.17L66.3219 31.1189L66.8722 31.046L67.4131 30.9515L67.9432 30.8383L68.4641 30.7066L68.9756 30.5578L69.4747 30.3935L69.9645 30.2152L70.4419 30.023L70.9084 29.8184L71.3641 29.603L71.8059 29.3782L72.2368 29.1457L72.6553 28.9055L73.0598 28.6606L73.452 28.4095L73.8302 28.1553L74.196 27.8995L74.5463 27.6422L74.8826 27.3849L75.205 27.1292L75.5119 26.8765L75.8033 26.6285L76.0792 26.3852L76.3396 26.148L76.5845 25.9186L76.8124 25.6985L77.0247 25.4877L77.2185 25.2893L77.3967 25.1018L77.5564 24.9297L77.699 24.7731L76.7395 29.8603L83.0372 29.4123L84.2803 22.7907L84.9747 22.6589L85.1545 23.4742L85.3576 24.2399L85.5885 24.9591L85.8474 25.6257L86.1388 26.2426L86.4612 26.8068L86.8208 27.3183L87.2176 27.774L87.6562 28.1723L88.1352 28.5149L88.6606 28.8001L89.231 29.0248L89.8526 29.1891L90.5237 29.2914L91.2507 29.3302L92.0319 29.3054L92.5325 29.248L93.0317 29.1535L93.5261 29.0233L94.0144 28.8605L94.4949 28.6699L94.9676 28.4544L95.4295 28.2173L95.879 27.9631L96.3161 27.6934L96.7393 27.4144L97.1454 27.1261L97.5329 26.8347L97.9018 26.5433L98.2505 26.255L98.576 25.9729L98.8783 25.7001L99.1278 26.0473L99.4022 26.3697L99.7029 26.6704L100.027 26.9478L100.374 27.202L100.746 27.4314L101.141 27.636L101.56 27.8174L102 27.9724L102.465 28.1041L102.95 28.208L103.459 28.287L103.987 28.3397L104.539 28.3645L105.109 28.363L105.701 28.3351L106.317 28.2762L106.92 28.1909L107.51 28.0809L108.088 27.9429L108.653 27.7817L109.204 27.5942L109.741 27.3834L110.263 27.1493L110.77 26.8936L111.261 26.6146L111.737 26.3139L112.197 25.993L112.639 25.652L113.065 25.2909L113.475 24.9111L113.864 24.5127L114.236 24.0973L114.589 23.6649L114.922 23.2154L115.237 22.7504L115.532 22.2699L115.804 21.7739L116.057 21.2655L116.288 20.7431L116.499 20.2068L116.685 19.6597L116.851 19.1017L116.992 18.5313L117.109 17.9516L117.204 17.3626L117.274 16.7627L117.319 16.1567L117.331 15.3662L117.285 14.6206L117.179 13.92L117.016 13.2628L117.607 13.0551L118.17 12.8319L118.706 12.5963L119.214 12.3483L119.698 12.091L120.157 11.8259L120.591 11.5516L121 11.2726L121.387 10.9889L121.75 10.7006L122.091 10.4108L122.41 10.1209L122.708 9.83264L122.986 9.54589L123.243 9.26224L123.482 8.98478L123.7 8.71198L123.902 8.44693L124.084 8.19273L124.25 7.94783L124.399 7.71378L124.532 7.49368L124.65 7.28753L124.754 7.09843L124.842 6.92483L124.917 6.77138L124.979 6.63807L125.028 6.52492L125.066 6.43502L125.092 6.36837L125.112 6.31412L124.974 6.32342Z" fill="#8CD5F5"/>
<path d="M110.706 16.9798L110.694 17.4029L110.651 17.9408L110.579 18.4786L110.479 19.0103L110.351 19.5326L110.198 20.0395L110.018 20.5293L109.814 20.9943L109.584 21.4329L109.333 21.839L109.057 22.2095L108.761 22.5381L108.443 22.8233L108.104 23.0589L107.746 23.2402L107.369 23.3642L106.974 23.4247L106.616 23.4355L106.287 23.4123L105.987 23.3596L105.715 23.2728L105.47 23.1565L105.253 23.0093L105.063 22.831L104.897 22.6233L104.756 22.3862L104.638 22.1196L104.545 21.8235L104.475 21.5011L104.426 21.1493L104.399 20.7711L104.393 20.365L104.407 19.9325L104.447 19.4148L104.517 18.9002L104.613 18.3887L104.739 17.8865L104.891 17.3967L105.072 16.924L105.281 16.4745L105.518 16.0498L105.784 15.6545L106.078 15.2949L106.4 14.9725L106.751 14.6935L107.13 14.4626L107.538 14.2812L107.975 14.1572L108.44 14.0906L108.722 14.0844L108.986 14.1061L109.232 14.1557L109.462 14.2332L109.673 14.3401L109.865 14.475L110.038 14.6377L110.193 14.8299L110.328 15.05L110.443 15.2996L110.537 15.577L110.612 15.8839L110.665 16.2203L110.696 16.5845L110.706 16.9798Z" fill="#D44126"/>
<path d="M90.006 16.042L90.0091 16.2574L89.9672 16.5581L89.8758 16.8464L89.7378 17.1223L89.5534 17.3858L89.3302 17.6354L89.0667 17.871L88.766 18.0942L88.4343 18.3034L88.07 18.5003L87.6794 18.6816L87.2625 18.8506L86.8238 19.0056L86.3666 19.1451L85.8907 19.2706L85.4009 19.3822L84.9003 19.4799L85.0599 18.7731L85.2041 18.4491L85.3606 18.1267L85.5311 17.809L85.7125 17.4974L85.9062 17.1952L86.1108 16.9038L86.3294 16.6263L86.5588 16.3644L86.799 16.1226L87.0532 15.9009L87.3167 15.7041L87.5942 15.532L87.8809 15.3894L88.1801 15.2778L88.4916 15.2003L88.8125 15.1584L89.1349 15.1631L89.3984 15.2204L89.6107 15.3258L89.7735 15.4684L89.8913 15.6405L89.9672 15.8343L90.006 16.042Z" fill="#D44126"/>
</svg>
