<svg width="140" height="81" viewBox="0 0 140 81" fill="none" xmlns="http://www.w3.org/2000/svg">
<path d="M128.619 8.31427L128.481 8.32357L128.317 8.33442L128.097 8.34992L127.826 8.36852L127.51 8.39022L127.155 8.41502L126.764 8.44292L126.346 8.47237L125.904 8.50337L125.443 8.53592L124.971 8.57002L124.49 8.60412L124.008 8.63822L123.529 8.67232L123.06 8.70642L122.826 9.20087L122.587 9.65967L122.345 10.0828L122.1 10.4734L121.854 10.8315L121.607 11.1601L121.361 11.4592L121.114 11.7305L120.869 11.9754L120.628 12.1955L120.389 12.3923L120.155 12.5659L119.925 12.7194L119.702 12.8527L119.487 12.9674L119.279 13.065L118.743 12.5721L118.131 12.1505L117.445 11.8018L116.689 11.5274L115.863 11.329L114.967 11.2066L114.004 11.1632L112.977 11.1988L112.355 11.2562L111.746 11.3383L111.149 11.4468L110.567 11.5786L109.998 11.7351L109.443 11.9149L108.903 12.118L108.378 12.3427L107.868 12.5892L107.375 12.8573L106.898 13.1456L106.437 13.4556L105.994 13.7842L105.568 14.133L105.16 14.5003L104.771 14.8863L104.401 15.2893L104.049 15.7093L103.715 16.1464L103.402 16.6006L103.109 17.0703L103.088 17.109L98.9523 13.2913L98.9136 13.2495L98.6377 13.0263L98.3339 12.8372L99.0624 8.95132L92.0068 2.43665L85.7091 2.8846L85.1759 5.71181L82.3704 3.12175H82.3502L82.3347 3.12485H82.3146L82.2913 3.12795H82.2634L82.2324 3.1326L82.1968 3.1357L82.158 3.1388L82.1146 3.1419L82.0681 3.145L82.0185 3.1481L81.9658 3.1512L81.9085 3.15585L81.848 3.1605L81.7845 3.16515L81.7178 3.1698L81.6481 3.17445L81.5752 3.1791L81.5008 3.18375L81.4233 3.18995L81.3427 3.19615L81.2606 3.20235L81.1753 3.20855L81.087 3.21475L80.9971 3.22095L80.9041 3.22715L80.8095 3.23335L80.7134 3.23955L80.6142 3.24575L80.5135 3.2535L80.4112 3.26125L80.3073 3.269L80.2019 3.27675L80.0949 3.2845L79.9864 3.29225L79.8764 3.3L79.7648 3.30775L79.6516 3.3155L79.5385 3.32325L79.4238 3.331L79.3075 3.33875L79.1913 3.3465L79.0735 3.35425L78.9557 3.362L78.8363 3.36975L78.717 3.3775L78.5976 3.38525L78.4783 3.39455L78.3574 3.40385L78.2365 3.41315L78.1156 3.42245L77.9947 3.43175L77.8738 3.44105L77.7529 3.45035L77.632 3.45965L77.5126 3.46895L77.3933 3.4767L77.2739 3.48445L77.1561 3.4922L77.0383 3.49995L76.9205 3.5077L76.8043 3.51545L76.7454 3.66735L76.6865 3.81615L76.6276 3.96185L76.5687 4.10445L76.5098 4.24395L76.4509 4.38035L76.392 4.51365L76.3331 4.64385L76.2742 4.77095L76.2153 4.89496L76.1564 5.01586L76.0975 5.13366L76.0386 5.24836L75.9797 5.36151L75.9208 5.47156L75.8619 5.57851L75.803 5.68236L75.7456 5.78466L75.6883 5.88386L75.6309 5.98151L75.5736 6.07606L75.5162 6.16906L75.4589 6.25896L75.4015 6.34731L75.3442 6.43256L75.2868 6.51626L75.2295 6.59686L75.1721 6.67591L75.1148 6.75341L75.059 6.82936L75.0032 6.90221L74.9474 6.97351L74.8916 7.04326L74.8621 7.07891L71.4211 3.9014L71.3328 3.9076L71.2429 3.9138L71.1514 3.92L71.0584 3.9262L70.9639 3.9324L70.8693 3.9386L70.7732 3.9448L70.6756 3.951L70.5779 3.9572L70.4787 3.9634L70.3795 3.97115L70.2803 3.9789L70.1796 3.98665L70.0788 3.9944L69.9781 4.00215L69.8773 4.0099L69.7766 4.01765L69.6758 4.0254L69.5751 4.03315L69.4743 4.0409L69.3736 4.04865L69.2744 4.0564L69.1752 4.06415L69.076 4.0719L68.9783 4.0781L68.8807 4.0843L68.7846 4.0905L68.6885 4.0967L68.5939 4.1029L68.5009 4.1091L68.4079 4.1153L68.3165 4.1215L68.2266 4.1277L68.1382 4.1339L68.0514 4.1401L67.9661 4.1463L67.8825 4.1525L67.8003 4.1587L67.7212 4.1649L67.6437 4.1711L67.5678 4.17575L67.4949 4.1804L67.4236 4.18505L67.3554 4.1897L67.2888 4.19435L67.2252 4.199L67.1648 4.20365L67.1074 4.2083L67.0516 4.21295L66.9989 4.21605L66.9493 4.21915L66.9028 4.22225L66.8594 4.22535L66.8191 4.22845L66.7819 4.23155L66.7494 4.23465H66.7199L66.6936 4.2393H66.6719L66.6533 4.2424H66.6285L66.6192 4.25325V4.26255L66.6161 4.2765L66.613 4.29355L66.6099 4.3137L66.6068 4.3385L66.6037 4.3664L66.6006 4.3974L66.5959 4.4315L66.5913 4.47025L66.5866 4.5121L66.5835 4.55705L66.5804 4.6051L66.5773 4.65625L66.5742 4.7105L66.5711 4.77095L66.568 4.83451V4.90116L66.5649 4.97091V5.19721L66.5696 5.27781L66.5727 5.36151L66.5773 5.44831L66.5835 5.53666L66.5913 5.62811L66.6006 5.72111L66.6114 5.81721L66.6238 5.91486L66.6378 6.01561L66.6533 6.11791L66.6703 6.22176L66.6889 6.32716L66.7106 6.43566L66.7339 6.54571L66.7587 6.65731L66.7866 6.77046L66.816 6.88516L66.8486 7.00141L66.8842 7.11766L66.9214 7.23546L66.9617 7.35482L67.0051 7.47572L67.0516 7.59662L67.1012 7.71907L67.1539 7.84152L67.2097 7.96552L67.2686 8.08952L67.3307 8.21507L67.3957 8.34062L67.4639 8.46617L67.5368 8.59327L67.6127 8.72037L67.6918 8.84747L67.7755 8.97457L67.8623 9.10167L67.9538 9.22877L68.0483 9.35587L68.1475 9.48297L68.2514 9.61007L68.3598 9.73717L68.4715 9.86272L68.5877 9.98828L68.7086 10.1138L68.8342 10.2378L68.9644 10.3618L69.0388 10.43L69.0186 10.4362L72.9417 14.0586L72.7014 14.0679L72.1016 14.1237L71.5141 14.2058L70.9391 14.3143L70.378 14.4476L69.8293 14.6057L69.2945 14.7886L68.7737 14.9948L68.2669 15.2226L67.7755 15.4737L67.6437 15.5497L67.6716 15.4753L67.7057 15.3776L67.7383 15.28L67.7677 15.1823L67.7957 15.0831L67.8204 14.9839L67.8437 14.8847L67.8638 14.784L67.8886 14.6445L67.9072 14.5065L67.9212 14.3701L67.9305 14.2353L67.9336 14.1469V13.885L67.9274 13.7997L67.9212 13.716L67.9119 13.6323L67.9011 13.5502L67.8886 13.468L67.8747 13.3874L67.8577 13.3084L67.8391 13.2293L67.8189 13.1518L67.7972 13.0759L67.7724 12.9999L67.7461 12.9255L67.7182 12.8527L67.6887 12.7814L67.6577 12.7101L67.6251 12.6403L67.591 12.5721L67.5538 12.5055L67.5151 12.4404L67.4748 12.3768L67.4329 12.3133L67.3895 12.2513L67.3446 12.1908L67.2981 12.1319L67.25 12.0746L67.2128 12.0327L67.2469 12.0219L60.1913 5.50721L60.1572 5.51806L60.1448 5.50411L60.0937 5.44986L60.041 5.39716L59.9867 5.34601L59.9309 5.29641L59.8736 5.24836L59.8147 5.20186L59.7542 5.15691L59.6922 5.11351L59.6287 5.07166L59.5651 5.03136L59.5 4.99261L59.4334 4.95541L59.3652 4.91976L59.2954 4.88566L59.2241 4.8531L59.1513 4.82366L59.0784 4.79575L59.004 4.7694L58.9281 4.7446L58.8506 4.72135L58.7731 4.7012L58.694 4.6826L58.6134 4.66555L58.5313 4.65005L58.4491 4.6361L58.3654 4.62525L58.2802 4.61595L58.1949 4.6082L58.1081 4.60355L58.0198 4.60045H57.8415L57.7516 4.60355L57.6602 4.60975L57.5594 4.6175L57.4587 4.62835L57.3579 4.6423L57.2587 4.6578L57.1595 4.6764L57.0603 4.69655L56.9611 4.7198L56.8635 4.7446L56.7658 4.7725L56.6682 4.80195L56.5705 4.83451L56.4744 4.86861L56.3783 4.90426L56.2838 4.94301L56.1892 4.98331L56.0962 5.02516L56.0032 5.07011L55.9102 5.11661L55.8188 5.16466L55.7289 5.21426L55.639 5.26696L55.5506 5.32121L55.4622 5.37701L55.3755 5.43436L55.2887 5.49326L55.2034 5.55371L55.1197 5.61571L55.0375 5.67926L54.9554 5.74436L54.8748 5.81256L54.7957 5.88076L54.7182 5.95051L54.6407 6.02181L54.5648 6.09466L54.4904 6.16906L54.4175 6.24501L54.3462 6.32251L54.2765 6.40156L54.2083 6.48216L54.1416 6.56431L54.0765 6.64646L54.013 6.73016L53.951 6.81541L53.8905 6.90221L53.8316 6.98901L53.7743 7.07736L53.7185 7.16726L53.6642 7.25716L53.6131 7.34861L53.5635 7.44161L53.5154 7.53462L53.4689 7.62917L53.424 7.72372L53.3821 7.81982L53.3418 7.91592L53.3031 8.01357L53.2674 8.11122L53.2333 8.21042L53.2008 8.30962L53.1713 8.41037L53.1434 8.51112L53.1186 8.61187L53.0954 8.71417L53.0752 8.81647L53.052 8.95132L53.0334 9.08462L53.0194 9.21637L53.0101 9.34657L53.007 9.43337V9.69067L53.0132 9.77437L53.0194 9.85807L53.0287 9.94022L53.0396 10.0224L53.052 10.103L53.0675 10.182L53.0845 10.2611L53.1031 10.3386L53.1233 10.4145L53.1465 10.4905L53.1713 10.5649L53.1977 10.6377L53.2256 10.7106L53.255 10.7819L53.2876 10.8516L53.3217 10.9198L53.3573 10.988L53.3945 11.0547L53.4333 11.1198L53.4736 11.1833L53.5154 11.2453L53.5588 11.3058L53.6038 11.3662L53.6503 11.4251L53.6983 11.4825L53.7479 11.5383L53.7991 11.5925L53.8347 11.6282L53.7929 11.6406L58.0756 15.5946L56.0683 15.7372L55.2623 15.8256L54.5276 15.9666L53.8549 16.1558L53.2349 16.3867L52.6598 16.6533L52.1204 16.9509L51.6089 17.2733L51.116 17.6143L50.634 17.9693L50.1535 18.332L49.6668 18.6962L49.3568 18.9179L46.6381 16.4084L40.2505 16.8626L40.3156 17.3338L40.376 17.8391L40.4303 18.3754L40.4737 18.9411L40.5047 19.5332L40.5202 20.1517L40.5171 20.7949L40.4923 21.4599L40.4706 21.8055L40.4442 22.1589L40.4194 22.424L35.0735 17.4888H35.0704L35.0657 17.4841L34.8487 17.3183L34.6069 17.1803L34.3388 17.0703L34.0474 16.9881L33.7312 16.9323L33.3917 16.9013L33.029 16.8951L32.6446 16.9122L32.3207 16.9416L31.989 16.9835L31.6526 17.0362L31.3147 17.0982L30.9768 17.1695L30.6404 17.2485L30.3087 17.3338L29.9848 17.4252L29.6701 17.5213L29.3663 17.6205L29.0765 17.7228L28.8037 17.8267L28.5495 17.9305L28.3154 18.0328L28.1046 18.1336L27.9186 18.2312L27.3684 22.2705L24.3629 19.4945L24.0111 19.1054L23.605 18.7691L23.1446 18.4839L22.63 18.2498L22.0596 18.0669L21.4334 17.9367L20.7514 17.8608L20.0136 17.8375L19.2185 17.8685L18.6186 17.9243L18.0311 18.0065L17.4561 18.115L16.8934 18.2483L16.3447 18.4064L15.81 18.5893L15.2892 18.7954L14.7823 19.0233L14.291 19.2744L13.8151 19.5472L13.3548 19.8401L12.9099 20.1548L12.4821 20.4896L12.0714 20.843L11.6777 21.215L11.301 21.6056L10.943 22.0132L10.6035 22.4379L10.2827 22.8797L9.98041 23.3369L9.69676 23.8097L9.43326 24.2979L9.18991 24.8001L8.96826 25.3147L8.76676 25.8433L8.58696 26.3842L8.42886 26.936L8.29246 27.5002L8.17931 28.0753L8.08786 28.6596L8.01966 29.2533L7.97626 29.8563L7.96386 30.6902L8.01656 31.4853L8.13436 32.2371L8.31726 32.9439L8.56681 33.6042L8.88301 34.2133L9.26586 34.7698L9.71536 35.272L10.0037 35.5184H9.99901L16.6997 41.7061L16.771 41.7851L16.9787 41.9618L17.0562 42.0331H17.0608L17.2902 42.2284L17.8761 42.6113L18.2125 42.7756L4.82199 43.7257L3.81604 48.6299L8.42576 52.8862L10.8717 55.1446L126.696 46.9203L130.808 46.6289L131.814 41.7247L124.94 35.3758L124.76 35.21L121.24 35.4595L121.322 35.4177L121.813 35.1387L122.289 34.838L122.413 34.7512L122.748 34.5171L123.191 34.1761L123.618 33.815L124.025 33.4352L124.152 33.305L124.416 33.0369L124.788 32.6215L125.141 32.189L125.474 31.7395L125.718 31.3784L125.788 31.2745L125.877 31.1273L126.082 30.794L126.338 30.3321L126.356 30.298L126.609 29.7896L126.687 29.616L126.84 29.2673L126.904 29.1045L127.049 28.7325L127.175 28.3682L127.237 28.1853L127.302 27.9652L127.401 27.6258L127.514 27.1701L127.542 27.0554L127.66 26.4757L127.755 25.8867L127.813 25.3767L127.824 25.2884L127.869 24.6808L127.874 24.4219L127.883 23.8903L127.86 23.5291L127.835 23.1447L127.73 22.4441L127.587 21.8691L127.567 21.7869L128.158 21.5777L128.72 21.3545L129.256 21.1189L129.766 20.8709L130.25 20.6136L130.709 20.347L131.143 20.0742L131.552 19.7952L131.938 19.5115L132.301 19.2248L132.642 18.9349L132.961 18.6451L133.259 18.3568L133.536 18.07L133.793 17.7864L134.032 17.5074L134.251 17.2346L134.452 16.9695L134.635 16.7138L134.801 16.4689L134.95 16.2348L135.083 16.0147L135.201 15.8085L135.303 15.6194L135.391 15.4474L135.466 15.2939L135.528 15.1591L135.577 15.0459L135.615 14.956L135.641 14.8894L135.661 14.8351L128.605 8.32047L128.619 8.31427ZM35.0828 24.4266L35.2626 24.5924L35.1758 24.6343L35.0301 24.7118L35.0533 24.5816L35.0812 24.4266H35.0828ZM109.017 26.1533L108.854 26.7066L108.733 27.1918L108.854 26.7066L109.017 26.1533L109.195 25.6371L109.017 26.1533ZM108.471 28.6999L108.432 29.0394L108.387 29.6501L108.376 30.0299L108.387 29.6501L108.432 29.0394L108.471 28.6999ZM75.0853 31.2528L75.09 31.0839L75.0853 31.2528ZM75.1334 30.2701L75.1923 29.7927L75.2264 29.5912L75.1923 29.7927L75.1334 30.2701ZM69.4154 28.2845L69.3147 28.548L69.2248 28.8193L69.3147 28.548L69.4154 28.2845ZM69.0853 29.2595L68.9752 29.6424L68.8388 30.2066L68.7939 30.436L68.8388 30.2066L68.9752 29.6424L69.0853 29.2595ZM68.5226 32.561L68.566 31.9581L68.597 31.6822L68.566 31.9581L68.5226 32.561L68.5164 33.2012L68.5226 32.561ZM21.7496 33.3717L21.7853 33.1671L21.7496 33.3717ZM21.6055 35.0503L21.6179 34.545L21.6318 34.3699L21.6179 34.545L21.6055 35.0503L21.6148 35.2859L21.6055 35.0503ZM35.5013 33.8568L35.5323 33.6972L35.5013 33.8568L35.4424 33.9095L35.5013 33.8568ZM35.6113 33.274L35.616 33.2523L35.6113 33.274L35.6005 33.3298L35.6113 33.274ZM35.7229 32.6943L35.7772 32.4091L35.8299 32.1301L35.881 31.8573L35.9291 31.5938L35.9368 31.5489L35.9291 31.5938L35.881 31.8573L35.8299 32.1301L35.7772 32.4091L35.7229 32.6943L35.7183 32.716L35.7229 32.6943ZM36.0887 30.6592L36.1135 30.4856L36.0887 30.6592L36.0546 30.8715L36.0887 30.6592ZM41.9338 32.0635L41.8795 32.3719L41.8268 32.6695L41.8175 32.7269L41.8268 32.6695L41.8795 32.3719L41.9338 32.0635L41.9555 31.9426L41.9338 32.0635ZM42.6344 28.1218L42.6638 27.9497L42.6871 27.8133L42.6638 27.9497L42.6344 28.1218ZM42.8793 26.4431V26.4602L42.8715 26.5594L42.8576 26.688L42.8715 26.5594L42.8793 26.4602V26.4431ZM42.8126 27.0213L42.7971 27.1267L42.8126 27.0213L42.8251 26.9314L42.8126 27.0213ZM42.515 28.8162L42.4608 29.1278L42.4484 29.2022L42.4608 29.1278L42.515 28.8162L42.5197 28.7945L42.515 28.8162ZM42.329 29.8609L42.2856 30.0996L42.2267 30.4313L42.1663 30.7646L42.1074 31.0963L42.0485 31.4249L42.0299 31.5272L42.0485 31.4249L42.1074 31.0963L42.1663 30.7646L42.2267 30.4313L42.2856 30.0996L42.329 29.8609ZM34.6906 34.5466L34.4116 34.7667L34.0691 35.0193L34.4116 34.7667L34.6906 34.5466ZM28.3914 41.9417L28.737 41.7681L28.875 41.6983L29.3431 41.4441L29.7972 41.1821L29.9398 41.0953L30.2359 40.914L30.4467 40.7776L30.6575 40.6412L31.0636 40.3637L31.4542 40.0847L31.7534 39.8615L31.8278 39.8057L32.1843 39.5267L32.5237 39.2508L32.8074 39.0106L32.8446 38.978L33.1468 38.713L33.4305 38.4541L33.6955 38.2046L33.7932 38.11L33.9404 37.9659L34.0365 37.8698L34.1652 37.7411L34.3713 37.5288L34.3899 37.5086L34.5573 37.3319L34.7216 37.1521L34.8642 36.9909L34.9851 36.8499L35.0657 36.7538L35.0843 36.7305L35.0905 37.3583L35.1479 37.9581L35.2269 38.3704L35.2564 38.527L35.4176 39.0648L35.5416 39.3578L35.6299 39.567L35.7477 39.7716L35.8965 40.032L36.1104 40.3157L36.2174 40.4583L36.594 40.8427L36.7816 40.9899L37.0265 41.1821L37.1815 41.2752L37.3923 41.4022L28.1341 42.0595L28.1635 42.0455L28.3914 41.9401V41.9417ZM46.7357 40.7295L46.8566 40.666L46.9667 40.6009L47.3433 40.3792L47.813 40.0708L48.2656 39.7406L48.6996 39.3903L49.1165 39.0183L49.3568 38.7827L49.5164 38.6262L49.7102 38.4169L49.8977 38.2154L50.262 37.7861L50.6092 37.3381L50.9393 36.8716L51.2524 36.388L51.3501 36.2221L51.5469 35.8889L51.7407 35.5277L51.8244 35.3727L51.9112 35.196L52.0848 34.8411L52.1018 34.8023L57.6881 39.9607L46.7078 40.7404L46.7326 40.728L46.7357 40.7295ZM65.6117 39.3237L65.8752 39.1625L66.1387 39.0013L66.6331 38.668L66.8238 38.5285L67.095 38.3301L67.3012 38.1674L67.5244 37.9907L67.9228 37.6559L68.008 37.5799L68.2886 37.3319L68.4559 37.1785L68.6234 37.025L68.8047 36.853L68.9241 36.7398L69.1938 36.4825L69.4108 36.8871L69.4588 36.9615L69.6572 37.2684L69.9331 37.6249L70.24 37.9566L70.5779 38.2619L70.9453 38.5409L71.2878 38.7579L71.3436 38.792L71.6846 38.9687L65.4489 39.412L65.6117 39.3237ZM81.9224 38.1193L82.3657 37.8946L82.7966 37.6621L83.2151 37.4218L83.4182 37.2994L83.6212 37.1769L84.0134 36.9258L84.3916 36.6716L84.6055 36.5213L84.7558 36.4159L84.9899 36.2438L86.7817 37.8992L81.6155 38.2666L81.9224 38.1209V38.1193ZM94.4728 33.2554L97.9588 36.4748L98.1107 36.5972H98.1138L98.2145 36.6887L98.6346 36.9878L98.695 37.0312L98.7276 37.0498L93.6947 37.4079L94.4728 33.257V33.2554ZM106.439 36.4779L106.657 36.343L106.876 36.2082L107.298 35.9276L107.62 35.6998L107.704 35.6409L108.091 35.3495L108.46 35.0581L108.562 34.9744L108.809 34.7698L108.95 34.6473L109.134 34.4877L109.437 34.2164L109.686 34.5621L109.96 34.886L110.109 35.0364L110.26 35.1867L110.584 35.4642L110.828 35.6424L110.932 35.7184L111.118 35.8331L111.304 35.9478L111.362 35.9772L111.658 36.1307L106.389 36.5042L106.436 36.4779H106.439ZM106.882 30.2748L104.069 27.6769L106.882 30.2748ZM42.8142 25.2822L42.7692 25.0977L42.8142 25.2822L42.8374 25.4387L42.8142 25.2822ZM42.4887 24.4111L42.3585 24.2313L42.4887 24.4111L42.5956 24.6141L42.4887 24.4111ZM42.1399 23.9941L42.2593 24.1166L42.1399 23.9941ZM34.3915 29.1029L34.469 29.0859L34.3915 29.1029ZM16.1029 31.6605L16.0363 31.8155L15.8627 32.2712L16.0363 31.8155L16.1029 31.6605ZM15.655 32.885L15.7743 32.5238L15.655 32.885L15.4969 33.4368L15.4411 33.6708L15.4969 33.4368L15.655 32.885ZM126.324 11.7212L125.989 11.4127L126.324 11.7212ZM119.409 17.7709L120.031 17.7135L120.832 17.6856L120.031 17.7135L119.409 17.7709L119.228 17.7957L119.409 17.7709ZM117.052 18.2498L117.621 18.0933L117.83 18.0452L117.621 18.0933L117.052 18.2498L116.497 18.4296L116.323 18.4947L116.497 18.4296L117.052 18.2498ZM115.432 18.8559L115.62 18.7753L115.432 18.8559L114.922 19.1023L114.671 19.2387L114.922 19.1023L115.432 18.8559ZM57.1425 24.8962L56.7364 25.2L56.4853 25.3798L56.7364 25.2L57.1425 24.8962Z" fill="#D44126"/>
<path d="M82.3674 3.29704L82.3689 3.25674L82.3705 3.22109V3.19164L82.372 3.16684V3.14669V3.13274L82.3705 3.12189L82.3519 3.12344L82.3364 3.12499L82.3162 3.12654L82.293 3.12809L82.2651 3.12964L82.2341 3.13119L82.1984 3.13429L82.1597 3.13739L82.1163 3.14049L82.0698 3.14359L82.0202 3.14669L81.9659 3.15134L81.9101 3.15444L81.8497 3.15909L81.7861 3.16374L81.721 3.16839L81.6513 3.17304L81.58 3.17769L81.504 3.18389L81.4265 3.18854L81.3459 3.19474L81.2638 3.20094L81.1785 3.20714L81.0902 3.21334L81.0003 3.21954L80.9073 3.22574L80.8143 3.23194L80.7166 3.23969L80.619 3.24589L80.5182 3.25364L80.4159 3.26139L80.3121 3.26759L80.2067 3.27534L80.0997 3.28309L79.9912 3.29084L79.8812 3.29859L79.7696 3.30634L79.6564 3.31409L79.5433 3.32339L79.4286 3.33114L79.3123 3.33889L79.1961 3.34819L79.0782 3.35594L78.9605 3.36369L78.8426 3.37299L78.7233 3.38074L78.6039 3.39004L78.483 3.39779L78.3637 3.40709L78.2428 3.41484L78.1219 3.42414L78.001 3.43189L77.8801 3.44119L77.7607 3.44894L77.6398 3.45824L77.5205 3.46599L77.4011 3.47529L77.2818 3.48304L77.1624 3.49234L77.0446 3.50009L76.9284 3.50784L76.8121 3.51714L76.7532 3.66904L76.6928 3.81784L76.6339 3.96199L76.575 4.10459L76.5161 4.24409L76.4572 4.37894L76.3967 4.51224L76.3378 4.64244L76.2789 4.76799L76.22 4.89199L76.1627 5.01289L76.1038 5.1307L76.0449 5.24695L75.986 5.35855L75.9271 5.4686L75.8697 5.57555L75.8108 5.68095L75.7535 5.78325L75.6946 5.88245L75.6372 5.9801L75.5799 6.07465L75.5225 6.1661L75.4652 6.256L75.4078 6.34435L75.3505 6.4296L75.2931 6.5133L75.2358 6.5939L75.1784 6.6745L75.1226 6.75045L75.0653 6.8264L75.0095 6.89925L74.9537 6.97055L74.8963 7.0403L74.8405 7.1085L74.7847 7.1736L74.7289 7.2387L74.6747 7.3007L74.6189 7.3627L74.5631 7.4216L74.5088 7.4805L74.4546 7.5363L74.4003 7.59211L74.3461 7.64636L74.2918 7.69906L74.2376 7.75021L74.1833 7.79981L74.1306 7.84941L74.0764 7.89746L74.0237 7.94396L73.971 7.98891L73.9183 8.03386L73.8656 8.07881L73.8129 8.12066L73.7617 8.16406L73.709 8.20436L73.6579 8.24621L73.6067 8.28651L73.5556 8.32526L73.5044 8.36401L73.4548 8.40276L73.4037 8.43996L73.3541 8.47716L73.3045 8.51436L73.2549 8.55156L73.244 8.54381L73.227 8.53141L73.2161 8.52211L73.2022 8.51126L73.1867 8.49886L73.1696 8.48491L73.151 8.46786L73.1309 8.45081L73.1092 8.43066L73.0859 8.40896L73.0611 8.38416L73.0348 8.35781L73.0069 8.32991L72.9774 8.30046L72.948 8.26791L72.917 8.23381L72.8844 8.19661L72.8519 8.15786L72.8178 8.11756L72.7821 8.07416L72.7465 8.02766L72.7108 7.97961L72.6736 7.93001L72.6364 7.87731L72.5977 7.82151L72.5589 7.76416L72.5202 7.70371L72.4814 7.64016L72.4411 7.57506L72.4024 7.50686L72.3621 7.43555L72.3218 7.3627L72.2815 7.2852L72.2412 7.20615L72.2024 7.12555L72.1621 7.0403L72.1234 6.95195L72.0846 6.86205L72.0459 6.76905L72.0071 6.6714L71.9699 6.5722L71.9327 6.4699L71.8955 6.3645L71.8599 6.256L71.8258 6.1444L71.7917 6.0297L71.7591 5.91035L71.7266 5.78945L71.6956 5.66545L71.6646 5.5368L71.6367 5.40505L71.6088 5.2702L71.5824 5.13225L71.5576 4.99119L71.5344 4.84549L71.5111 4.69669L71.491 4.54479L71.4724 4.38824L71.4553 4.22859L71.4398 4.06584L71.4259 3.89844L71.3375 3.90619L71.2476 3.91239L71.1562 3.91859L71.0632 3.92479L70.9686 3.93099L70.8741 3.93874L70.7764 3.94494L70.6803 3.95269L70.5827 3.95889L70.4835 3.96664L70.3843 3.97284L70.2851 3.98059L70.1843 3.98679L70.0851 3.99454L69.9844 4.00229L69.8836 4.00849L69.7829 4.01624L69.6821 4.02244L69.5814 4.03019L69.4806 4.03794L69.3799 4.04414L69.2807 4.05189L69.1815 4.05809L69.0823 4.06584L68.9846 4.07204L68.887 4.07979L68.7909 4.08599L68.6948 4.09374L68.6002 4.09994L68.5057 4.10614L68.4142 4.11234L68.3228 4.12009L68.2329 4.12629L68.1445 4.13249L68.0593 4.13869L67.974 4.14489L67.8903 4.14954L67.8097 4.15574L67.7291 4.16194L67.6516 4.16659L67.5772 4.17279L67.5044 4.17744L67.4331 4.18209L67.3648 4.18829L67.2982 4.19294L67.2346 4.19604L67.1742 4.20069L67.1153 4.20534L67.061 4.20844L67.0084 4.21309L66.9587 4.21619L66.9123 4.21929L66.8689 4.22239L66.8301 4.22549L66.7929 4.22859L66.7603 4.23014L66.7309 4.23324L66.7046 4.23479L66.6828 4.23634L66.6642 4.23789H66.6503L66.6394 4.23944L66.6301 4.24719L66.6286 4.25649L66.6255 4.27044L66.6239 4.28749L66.6208 4.30919L66.6162 4.33244L66.6131 4.36034L66.61 4.39289L66.6053 4.42699L66.6022 4.46419L66.5976 4.50604L66.5945 4.55099L66.5898 4.59749L66.5867 4.64864L66.5837 4.70289L66.5805 4.76179L66.579 4.82534L66.5774 4.89199L66.5759 4.96174V5.0346V5.109L66.5774 5.18805L66.5805 5.26865L66.5837 5.35235L66.5883 5.43915L66.5945 5.5275L66.6022 5.61895L66.61 5.71195L66.6208 5.80805L66.6333 5.9057L66.6472 6.00645L66.6612 6.1072L66.6797 6.2126L66.6983 6.318L66.7201 6.42495L66.7433 6.535L66.7681 6.6466L66.796 6.7582L66.827 6.8729L66.8596 6.98915L66.8952 7.1054L66.9324 7.2232L66.9727 7.34255L67.0161 7.46346L67.0626 7.58436L67.1107 7.70681L67.1634 7.83081L67.2192 7.95326L67.2765 8.07881L67.3385 8.20436L67.4036 8.32991L67.4734 8.45546L67.5447 8.58256L67.6206 8.70966L67.6997 8.83676L67.7834 8.96386L67.8702 9.09096L67.9616 9.21961L68.0577 9.34671L68.1569 9.47381L68.2592 9.60091L68.3677 9.72646L68.4793 9.85356L68.5971 9.97911L68.718 10.1031L68.8436 10.2287L68.9738 10.3527L69.1102 10.4751L69.2497 10.5976L69.3954 10.7185L69.5457 10.8378L69.7007 10.9572L69.8619 11.075L70.0278 11.1912L70.1998 11.3075L70.3765 11.4206L70.5579 11.5322L70.747 11.6438L70.9407 11.7523L75.104 11.4563L75.4109 11.3152L75.7085 11.1726L75.9968 11.0269L76.2774 10.8812L76.5502 10.734L76.8137 10.5836L77.0694 10.4348L77.3174 10.2829L77.5577 10.131L77.7902 9.97757L78.0149 9.82256L78.2319 9.66756L78.4427 9.51256L78.6458 9.35756L78.8411 9.20101L79.0302 9.04446L79.2116 8.88791L79.3867 8.73136L79.5557 8.57481L79.7169 8.41826L79.8734 8.26171L80.0222 8.10671L80.1664 7.95171L80.3028 7.79671L80.4345 7.64326L80.5616 7.4898L80.681 7.3379L80.7957 7.186L80.9057 7.03565L81.0111 6.88685L81.1103 6.7396L81.2049 6.59235L81.2932 6.4482L81.3785 6.3056L81.4591 6.163L81.535 6.0235L81.6063 5.8871L81.673 5.7507L81.7365 5.6174L81.797 5.4872L81.8512 5.35855L81.9039 5.23145L81.952 5.109L81.9969 4.98809L82.0388 4.86874L82.0775 4.75404L82.1116 4.64244L82.1442 4.53239L82.1736 4.42699L82.2015 4.32469L82.2248 4.22549L82.248 4.12939L82.2666 4.03794L82.2852 3.94959L82.3007 3.86589L82.3131 3.78529L82.3255 3.70779L82.3348 3.63649L82.3441 3.56829L82.3503 3.50474L82.3565 3.44584L82.3612 3.39159L82.3643 3.34199L82.3674 3.29704Z" fill="#8CD5F5"/>
<path d="M123.763 40.1051L124.769 35.1993L4.83297 43.7166L3.82547 48.6208L123.763 40.1051Z" fill="#8CD5F5"/>
<path d="M60.8889 7.70991L60.892 7.62156L60.8936 7.53321V7.44641L60.8905 7.35961L60.8858 7.27436L60.8796 7.19066L60.8703 7.10696L60.8595 7.02481L60.8471 6.94266L60.8331 6.86205L60.8161 6.783L60.7975 6.70395L60.7773 6.62645L60.7556 6.5505L60.7308 6.4761L60.706 6.4017L60.6781 6.32885L60.6487 6.25755L60.6177 6.18625L60.5836 6.1165L60.5495 6.04985L60.5123 5.98165L60.4751 5.91655L60.4348 5.853L60.3929 5.78945L60.3495 5.72745L60.3061 5.66855L60.2596 5.60965L60.2116 5.5523L60.162 5.4965L60.1108 5.44225L60.0581 5.388L60.0039 5.33685L59.9481 5.28725L59.8907 5.2392L59.8318 5.19115L59.7714 5.1462L59.7109 5.1028L59.6474 5.06095L59.5838 5.02065L59.5187 4.9819L59.4505 4.9447L59.3823 4.90905L59.3126 4.87495L59.2428 4.84395L59.17 4.81295L59.0971 4.78505L59.0227 4.7587L58.9468 4.7339L58.8693 4.71065L58.7918 4.6905L58.7127 4.67035L58.6321 4.6533L58.55 4.63935L58.4678 4.6254L58.3841 4.61455L58.2989 4.60525L58.2136 4.5975L58.1268 4.59285L58.04 4.58975L57.9501 4.5882L57.8602 4.58975L57.7703 4.59285L57.6789 4.59905L57.5781 4.6068L57.4774 4.61765L57.3782 4.6316L57.2774 4.6471L57.1782 4.6657L57.079 4.68585L56.9798 4.7091L56.8822 4.7339L56.7845 4.7618L56.6869 4.79125L56.5892 4.82225L56.4931 4.85635L56.3985 4.892L56.3024 4.93075L56.2079 4.97105L56.1149 5.0129L56.0219 5.05785L55.9289 5.10435L55.8374 5.1524L55.7475 5.202L55.6576 5.2547L55.5677 5.3074L55.4809 5.3632L55.3926 5.42055L55.3073 5.481L55.2221 5.54145L55.1384 5.60345L55.0562 5.66855L54.9741 5.73365L54.8935 5.80185L54.8144 5.87005L54.7354 5.94135L54.6594 6.01265L54.5835 6.0855L54.5091 6.16145L54.4362 6.2374L54.3649 6.3149L54.2952 6.39395L54.227 6.47455L54.1603 6.55515L54.0937 6.63885L54.0301 6.72255L53.9681 6.8078L53.9077 6.89305L53.8488 6.98141L53.7914 7.06976L53.7356 7.15966L53.6814 7.24956L53.6302 7.34101L53.5806 7.43401L53.531 7.52701L53.4861 7.62156L53.4411 7.71611L53.3993 7.81221L53.359 7.90831L53.3202 8.00596L53.2846 8.10361L53.2505 8.20281L53.2179 8.30201L53.1885 8.40276L53.1606 8.50351L53.1358 8.60426L53.1125 8.70656L53.0924 8.80886L53.0691 8.94216L53.049 9.07546L53.0366 9.20721L53.0273 9.33586L53.0226 9.42421L53.0211 9.51102L53.0226 9.59627L53.0257 9.68152L53.0304 9.76522L53.0366 9.84892L53.0459 9.93107L53.0567 10.0132L53.0707 10.0938L53.0846 10.1729L53.1017 10.2519L53.1203 10.3294L53.142 10.4069L53.1637 10.4813L53.1885 10.5573L53.2148 10.6301L53.2427 10.7014L53.2737 10.7727L53.3047 10.8425L53.3388 10.9122L53.3745 10.9789L53.4117 11.0455L53.4504 11.1106L53.4907 11.1742L53.5326 11.2377L53.576 11.2982L53.6209 11.3586L53.669 11.416L53.717 11.4733L53.7666 11.5291L53.8178 11.5834L53.872 11.6361L53.9263 11.6872L53.9821 11.7368L54.0394 11.7864L54.0983 11.8329L54.1588 11.8779L54.2208 11.9213L54.2828 11.9631L54.3479 12.0034L54.413 12.0422L54.4796 12.0794L54.5494 12.115L54.6176 12.1476L54.6889 12.1801L54.7602 12.2096L54.833 12.239L54.9074 12.2654L54.9834 12.2902L55.0593 12.3134L55.1368 12.3336L55.2159 12.3522L55.2965 12.3708L55.3771 12.3847L55.4592 12.3987L55.5414 12.4095L55.6251 12.4188L55.7103 12.4266L55.7956 12.4312L55.8824 12.4343L55.9692 12.4359L56.0575 12.4343L56.1474 12.4312L56.2374 12.4266L56.335 12.4188L56.4342 12.408L56.5319 12.394L56.631 12.3785L56.7287 12.3599L56.8264 12.3398L56.924 12.3181L57.0217 12.2917L57.1178 12.2654L57.2139 12.2359L57.31 12.2034L57.4061 12.1708L57.5006 12.1336L57.5952 12.0964L57.6897 12.0561L57.7827 12.0143L57.8757 11.9693L57.9672 11.9244L58.0586 11.8763L58.1501 11.8252L58.2384 11.774L58.3283 11.7198L58.4167 11.6655L58.5035 11.6082L58.5887 11.5493L58.674 11.4888L58.7592 11.4268L58.8414 11.3617L58.9235 11.2966L59.0057 11.23L59.0847 11.1618L59.1638 11.0905L59.2413 11.0192L59.3172 10.9463L59.3916 10.8719L59.4645 10.796L59.5373 10.72L59.6071 10.641L59.6768 10.5619L59.7435 10.4813L59.8101 10.3992L59.8752 10.3155L59.9372 10.2318L59.9992 10.1465L60.0581 10.0597L60.117 9.97292L60.1728 9.88457L60.2271 9.79467L60.2798 9.70477L60.3294 9.61332L60.379 9.52032L60.4255 9.42731L60.4704 9.33431L60.5123 9.23976L60.5541 9.14366L60.5913 9.04911L60.6285 8.95146L60.6626 8.85381L60.6952 8.75616L60.7246 8.65851L60.7525 8.55931L60.7773 8.46011L60.8006 8.36091L60.8207 8.26016L60.8455 8.12066L60.8641 7.98116L60.8796 7.84476L60.8889 7.70991Z" fill="#8CD5F5"/>
<path d="M128.482 8.32367L128.319 8.33607L128.099 8.35157L127.828 8.37017L127.513 8.39342L127.156 8.41822L126.767 8.44612L126.347 8.47557L125.906 8.50657L125.445 8.53912L124.971 8.57322L124.49 8.60732L124.008 8.64142L123.531 8.67552L123.061 8.70962L122.826 9.20252L122.587 9.66132L122.345 10.0845L122.1 10.4751L121.854 10.8331L121.607 11.1617L121.361 11.4609L121.114 11.7321L120.87 11.9786L120.628 12.1987L120.391 12.394L120.157 12.5676L119.927 12.721L119.704 12.8543L119.488 12.969L119.279 13.0667L118.743 12.5738L118.131 12.1522L117.446 11.8034L116.689 11.5291L115.863 11.3307L114.967 11.2082L114.005 11.1648L112.977 11.1989L112.354 11.2563L111.745 11.34L111.148 11.4469L110.565 11.5802L109.996 11.7352L109.443 11.915L108.902 12.1181L108.378 12.3428L107.868 12.5893L107.375 12.8574L106.898 13.1457L106.437 13.4557L105.994 13.7843L105.568 14.1331L105.16 14.5004L104.771 14.8864L104.399 15.2894L104.047 15.7094L103.716 16.1481L103.403 16.6007L103.11 17.0704L102.837 17.5555L102.586 18.0562L102.356 18.5692L102.149 19.0978L101.963 19.6387L101.798 20.1921L101.659 20.7578L101.541 21.336L101.448 21.925L101.378 22.5248L101.333 23.134L101.318 23.6935L101.332 24.2329L101.374 24.7506L101.443 25.2497L101.336 25.3365L101.206 25.4342L101.053 25.5427L100.878 25.6605L100.678 25.7829L100.458 25.9085L100.213 26.0356L99.9476 26.1627L99.6577 26.2867L99.3477 26.406L99.0145 26.5161L98.6595 26.6184L98.2813 26.7083L97.8814 26.7858L97.4598 26.8462L97.0165 26.8881L96.4709 26.902L95.9811 26.8648L95.5409 26.7796L95.1487 26.654L94.8015 26.4882L94.4962 26.2898L94.2296 26.0619L93.9986 25.8093L93.7987 25.5349L93.6282 25.2451L93.484 24.9428L93.3616 24.6313L93.2608 24.3182L93.1756 24.0035L93.1043 23.6951L93.0423 23.3959L93.7568 23.1045L94.4419 22.7899L95.096 22.452L95.716 22.0924L96.3019 21.7095L96.8491 21.3034L97.3575 20.8756L97.8256 20.423L98.2487 19.9472L98.627 19.4465L98.9587 18.9226L99.2408 18.3739L99.4717 17.8004L99.6484 17.2021L99.7693 16.579L99.8344 15.9311L99.8391 15.5234L99.8112 15.1344L99.7492 14.7639L99.6531 14.4136L99.5213 14.085L99.3555 13.7812L99.1524 13.5022L98.9137 13.2496L98.6394 13.0264L98.3262 12.8326L97.9759 12.6699L97.5884 12.5412L97.1622 12.4467L96.6987 12.3893L96.1934 12.3692L95.6494 12.3893L95.1983 12.4343L94.7535 12.5025L94.3195 12.5939L93.8963 12.7086L93.4809 12.8435L93.0748 12.9985L92.6796 13.1705L92.2936 13.3627L91.9185 13.5689L91.5527 13.7921L91.1978 14.0292L90.8537 14.2803L90.5189 14.5423L90.1949 14.8166L89.8834 15.1003L89.5811 15.3932L92.0084 2.43829L85.7092 2.8847L81.8125 23.5556L81.487 23.8423L81.1088 24.1539L80.6794 24.4887L80.2036 24.839L79.6843 25.2001L79.1217 25.5659L78.5187 25.9286L77.8801 26.2851L77.2043 26.6277L76.4991 26.9516L75.7613 27.2523L74.9986 27.5205L74.2097 27.7545L73.399 27.9452L72.5682 28.0878L71.7204 28.1777L71.243 28.1947L70.7981 28.1761L70.3889 28.1219L70.0123 28.032L69.6682 27.9064L69.3582 27.7468L69.0807 27.5515L68.8374 27.3205L68.625 27.0555L68.4468 26.7548L68.2995 26.42L68.1848 26.0511L68.1027 25.6481L68.0515 25.2094L68.0314 24.7382L68.0438 24.2314L68.081 23.754L68.1383 23.2766L68.2205 22.8038L68.3243 22.3404L68.4514 21.8878L68.6018 21.4522L68.7754 21.0353L68.9738 20.6431L69.1954 20.2804L69.4419 19.9472L69.7116 19.6511L70.0076 19.3954L70.33 19.1815L70.6757 19.0172L71.0477 18.9025L71.446 18.8451L71.7343 18.842L71.9916 18.8761L72.2179 18.9443L72.4163 19.0435L72.5884 19.1691L72.7356 19.3194L72.8581 19.4915L72.9604 19.6821L73.0425 19.8867L73.1077 20.1053L73.1557 20.3316L73.1882 20.5641L73.2084 20.8012L73.2177 21.0368V21.2693L73.2084 21.4972L78.8473 19.7488L78.8613 19.0265L78.8241 18.3491L78.7357 17.7198L78.5947 17.1386L78.4025 16.6038L78.156 16.1186L77.8569 15.6815L77.505 15.2956L77.0989 14.9592L76.637 14.674L76.1224 14.4384L75.552 14.2571L74.9258 14.1269L74.2454 14.0509L73.5075 14.0277L72.7124 14.0587L72.1125 14.1145L71.5251 14.1982L70.95 14.3067L70.3889 14.44L69.8402 14.5981L69.3055 14.7794L68.7847 14.9856L68.2778 15.215L67.788 15.4645L67.3106 15.7373L66.8503 16.0318L66.407 16.3449L65.9792 16.6798L65.5684 17.0332L65.1732 17.4052L64.7981 17.7958L64.4385 18.2034L64.099 18.6297L63.7782 19.0699L63.4744 19.5287L63.1923 20.0014L62.9288 20.4881L62.6854 20.9903L62.4638 21.5049L62.2623 22.0335L62.0825 22.5744L61.9244 23.1262L61.788 23.6904L61.6733 24.2655L61.5834 24.8498L61.5152 25.4435L61.4702 26.0464L61.4625 26.9935L61.5384 27.8878L61.4996 27.8243L61.278 27.9901L61.0424 28.1606L60.7975 28.3358L60.5417 28.5125L60.2798 28.6877L60.0132 28.8597L59.7419 29.0287L59.4707 29.1883L59.1994 29.3387L58.9297 29.4797L58.6647 29.6053L58.4058 29.7169L58.1547 29.8099L57.9129 29.8827L57.6851 29.9339L57.4681 29.9618H57.2387L57.0325 29.9215L56.8543 29.8409L56.7039 29.7169L56.5877 29.5433L56.5055 29.3201L56.4621 29.0411L56.459 28.7047L56.4978 28.3327L56.5768 27.9049L58.9344 15.5265L56.087 15.7296L55.2826 15.8179L54.5463 15.959L53.8736 16.1481L53.2536 16.3775L52.677 16.6441L52.1376 16.9417L51.6261 17.2641L51.1332 17.6051L50.6496 17.9601L50.1691 18.3212L49.6824 18.6855L49.1802 19.0466L48.6532 19.3985L48.0952 19.7364L47.4953 20.0526L46.8474 20.3424L46.866 19.8077L46.8738 19.2776L46.8691 18.7568L46.8536 18.2484L46.8242 17.7539L46.7823 17.2796L46.725 16.827L46.6537 16.3992L40.2677 16.8518L40.3328 17.3246L40.3948 17.8283L40.4475 18.3646L40.4909 18.9288L40.5219 19.5225L40.5374 20.1409L40.5343 20.7842L40.5095 21.4507L40.4893 21.7963L40.4614 22.1497L40.4289 22.5109L40.3886 22.8767L40.3436 23.2471L40.2909 23.6207L40.232 23.9958L40.1654 24.3709L40.0925 24.746L40.0119 25.1195L39.9236 25.49L39.829 25.8558L39.7267 26.2169L39.6151 26.5719L39.4973 26.9191L39.3702 27.257L39.2354 27.584L39.0912 27.9002L38.9393 28.2056L38.7781 28.4954L38.6092 28.7713L38.4294 29.0302L38.2418 29.2736L38.045 29.4983L37.8373 29.7029L37.6218 29.8858L37.3955 30.0486L37.1584 30.1865L36.9119 30.3012L36.6562 30.3911L36.3896 30.4531L36.1106 30.4872L35.6921 30.4779L35.3325 30.388L35.0348 30.2222L34.7977 29.9819L34.6194 29.6719L34.5016 29.2968L34.4427 28.8582L34.4412 28.3606L34.4675 28.0459L34.4815 27.9281L34.5016 27.7824L34.528 27.6104L34.559 27.4166L34.5931 27.1996L34.6334 26.964L34.6768 26.7098L34.7248 26.4386L34.7745 26.1534L34.8271 25.8573L34.8814 25.5489L34.9387 25.2327L34.9961 24.9103L35.055 24.5817L35.1154 24.25L35.1743 23.9167L35.2348 23.585L35.2937 23.2564L35.3511 22.9309L35.4084 22.6116L35.4627 22.3001L35.5154 21.9994L35.565 21.7111L35.6115 21.4352L35.6549 21.1748L35.6952 20.9314L35.7293 20.7082L35.7603 20.5067L35.7851 20.3269L35.8052 20.1719L35.8192 20.0448L35.8269 19.9441L35.8362 19.5178L35.8145 19.1257L35.7634 18.7676L35.6828 18.4452L35.5743 18.1554L35.4379 17.8981L35.2751 17.6718L35.0845 17.4749L34.8674 17.3091L34.6256 17.1727L34.3575 17.0626L34.0661 16.9805L33.7499 16.9231L33.4089 16.8921L33.0462 16.8859L32.6618 16.903L32.3378 16.9309L32.0061 16.9727L31.6713 17.0254L31.3319 17.0874L30.994 17.1572L30.6592 17.2362L30.3275 17.3215L30.0035 17.4129L29.6889 17.509L29.3851 17.6082L29.0952 17.709L28.8224 17.8128L28.5667 17.9167L28.3326 18.019L28.1218 18.1197L27.9374 18.2174L27.3406 22.5899L27.5452 22.545L27.7808 22.5016L28.0304 22.4659L28.2799 22.4411L28.5031 22.4396L28.6907 22.469L28.841 22.5341L28.9573 22.638L29.041 22.7821L29.0937 22.9681L29.1185 23.2022L29.1154 23.4843L29.1045 23.6176L29.089 23.7741L29.0658 23.9508L29.0379 24.1446L29.0038 24.3569L28.965 24.5848L28.9232 24.825L28.8782 25.0792L28.8302 25.3427L28.779 25.6155L28.7263 25.8945L28.6721 26.1797L28.6163 26.4696L28.5605 26.761L28.5047 27.0524L28.4504 27.3422L28.1435 27.6166L27.7793 27.9219L27.3608 28.2505L26.8927 28.5977L26.375 28.9574L25.8108 29.3232L25.2047 29.6874L24.5568 30.047L23.8717 30.3942L23.1525 30.7244L22.3992 31.0282L21.6164 31.3025L20.8073 31.5412L19.9734 31.7365L19.1178 31.8822L18.2436 31.9752L17.7647 31.9923L17.3198 31.9737L16.9106 31.9194L16.534 31.8295L16.1899 31.704L15.8799 31.5443L15.6024 31.349L15.3591 31.1181L15.1467 30.853L14.9685 30.5523L14.8212 30.2175L14.7065 29.8486L14.6244 29.4456L14.5732 29.007L14.5531 28.5358L14.5655 28.0289L14.6027 27.5515L14.66 27.0741L14.7422 26.6013L14.846 26.1379L14.9731 25.6853L15.1235 25.2497L15.2971 24.8328L15.4955 24.4406L15.7171 24.0779L15.9636 23.7447L16.2348 23.4486L16.5293 23.1929L16.8517 22.979L17.1974 22.8147L17.5694 22.7L17.9677 22.6426L18.256 22.6395L18.5133 22.6736L18.7396 22.7418L18.938 22.841L19.1101 22.9666L19.2573 23.1169L19.3798 23.289L19.4821 23.4796L19.5642 23.6842L19.6293 23.9028L19.6774 24.1291L19.7099 24.3616L19.7301 24.5987L19.7394 24.8343V25.0668L19.7301 25.2947L25.369 23.5463L25.383 22.824L25.3458 22.1466L25.2574 21.5173L25.1164 20.9361L24.9242 20.4013L24.6777 19.9162L24.3786 19.4791L24.0267 19.0931L23.6206 18.7568L23.1587 18.4716L22.6441 18.236L22.0737 18.0546L21.4475 17.9244L20.767 17.8485L20.0292 17.8252L19.2341 17.8562L18.6342 17.912L18.0468 17.9942L17.4717 18.1027L16.9106 18.2375L16.3619 18.3956L15.8272 18.577L15.3064 18.7831L14.7995 19.011L14.3097 19.2621L13.8323 19.5349L13.3735 19.8294L12.9287 20.1425L12.5009 20.4773L12.0901 20.8307L11.6964 21.2027L11.3198 21.5933L10.9602 22.0009L10.6207 22.4256L10.2999 22.8674L9.99605 23.3262L9.71395 23.7989L9.45045 24.2856L9.2071 24.7878L8.98545 25.3024L8.78395 25.831L8.60414 26.3719L8.44604 26.9237L8.30964 27.4879L8.19494 28.063L8.10504 28.6474L8.03684 29.241L7.99189 29.844L7.97949 30.6779L8.03219 31.473L8.14999 32.2248L8.33289 32.9316L8.58089 33.5919L8.8971 34.201L9.27995 34.7575L9.72945 35.2597L10.2472 35.703L10.8315 36.0858L11.4856 36.4067L12.2079 36.6609L13 36.8469L13.8602 36.9616L14.7918 37.0019L15.7915 36.9678L16.4007 36.9104L16.9974 36.8283L17.5833 36.7213L18.1568 36.5911L18.7195 36.4408L19.2697 36.2703L19.8076 36.0827L20.3315 35.8781L20.843 35.6596L21.339 35.4271L21.8226 35.1822L22.2907 34.9295L22.7449 34.6676L23.1835 34.3979L23.6051 34.1251L24.0128 33.8476L24.4018 33.5671L24.7754 33.2881L25.1319 33.0091L25.4713 32.7332L25.7922 32.4619L26.0944 32.1953L26.3781 31.938L26.6431 31.6885L26.888 31.4498L27.1143 31.2235L27.3205 31.0127L27.5049 30.8158L27.6692 30.636L27.8118 30.4748L27.9343 30.3353L28.0335 30.216L28.0397 30.8437L28.097 31.442L28.2055 32.0124L28.3652 32.5487L28.5791 33.0509L28.8457 33.5175L29.1665 33.9437L29.5432 34.3281L29.9756 34.6691L30.4639 34.9636L31.0095 35.2101L31.614 35.4038L32.2758 35.5464L32.9981 35.6332L33.7809 35.6627L34.6241 35.6301L35.2705 35.5697L35.8998 35.4829L36.5105 35.3682L37.1041 35.2271L37.6792 35.0613L38.2372 34.8706L38.7781 34.6536L39.3005 34.4149L39.8058 34.1514L40.2925 33.8662L40.7621 33.5578L41.2147 33.2276L41.6503 32.8773L42.0672 32.5053L42.4671 32.1132L42.8484 31.7024L43.2127 31.2731L43.5614 30.8251L43.89 30.3586L44.2031 29.875L44.4976 29.3759L44.7751 28.8597L45.0355 28.328L45.2788 27.7824L45.5051 27.2213L45.7128 26.6478L45.905 26.0588L46.0786 25.459L46.2352 24.8467L46.3747 24.2221L46.4971 23.5866L46.6025 22.9418L47.2783 22.7914L47.9557 22.6147L48.6269 22.407L49.2872 22.1699L49.9258 21.9017L50.5365 21.6041L51.1115 21.2724L51.6432 20.9097L50.1164 29.1403L49.9847 29.9509L49.918 30.6779L49.9087 31.2266L49.9413 31.721L50.0141 32.1643L50.1242 32.5596L50.273 32.9068L50.459 33.209L50.6775 33.4679L50.9302 33.688L51.2138 33.8693L51.5285 34.015L51.8726 34.1266L52.243 34.2057L52.6398 34.2568L53.0614 34.2816L53.5063 34.2801L53.9744 34.2568L54.7246 34.1747L55.4438 34.0414L56.132 33.8631L56.7876 33.6461L57.4107 33.3935L58.0013 33.1129L58.5608 32.8091L59.0878 32.4867L59.5823 32.155L60.0442 31.8156L60.4751 31.4761L60.8735 31.1413L61.2393 30.8174L61.5725 30.5105L61.8748 30.2253L62.1429 29.968L62.3599 30.3725L62.6064 30.7538L62.8823 31.1103L63.1892 31.442L63.5271 31.7474L63.8944 32.0264L64.2928 32.2775L64.7221 32.5007L65.1809 32.6944L65.6723 32.8572L66.1931 32.9905L66.7464 33.0928L67.3292 33.1625L67.9446 33.1997L68.5925 33.2028L69.2698 33.1703L69.8294 33.1191L70.3796 33.0463L70.9206 32.9517L71.4507 32.8386L71.9715 32.7068L72.483 32.558L72.9821 32.3937L73.4719 32.2155L73.9493 32.0233L74.4159 31.8187L74.8716 31.6032L75.3133 31.3785L75.7442 31.146L76.1627 30.9057L76.5673 30.6608L76.9594 30.4097L77.3376 30.1555L77.7034 29.8998L78.0537 29.6425L78.3901 29.3852L78.7125 29.1294L79.0194 28.8768L79.3108 28.6287L79.5867 28.3854L79.8471 28.1482L80.092 27.9188L80.3198 27.6987L80.5322 27.4879L80.7259 27.2895L80.9042 27.102L81.0638 26.9299L81.2064 26.7734L80.247 31.8605L86.5446 31.4126L87.7878 24.7909L88.4822 24.6592L88.662 25.4745L88.865 26.2402L89.096 26.9594L89.3548 27.6259L89.6462 28.2428L89.9686 28.807L90.3282 29.3185L90.725 29.7742L91.1637 30.1726L91.6426 30.5151L92.1681 30.8003L92.7385 31.0251L93.36 31.1894L94.0312 31.2917L94.7581 31.3304L95.5393 31.3056L96.04 31.2483L96.5391 31.1537L97.0335 31.0235L97.5218 30.8608L98.0023 30.6701L98.4751 30.4547L98.937 30.2175L99.3865 29.9633L99.8236 29.6936L100.247 29.4146L100.653 29.1263L101.04 28.8349L101.409 28.5435L101.758 28.2552L102.083 27.9731L102.386 27.7003L102.635 28.0475L102.911 28.3699L103.21 28.6706L103.534 28.9481L103.881 29.2023L104.253 29.4317L104.649 29.6363L105.067 29.8176L105.507 29.9726L105.972 30.1044L106.458 30.2082L106.966 30.2873L107.495 30.34L108.046 30.3648L108.617 30.3632L109.209 30.3353L109.824 30.2764L110.427 30.1912L111.018 30.0811L111.596 29.9432L112.16 29.782L112.712 29.5944L113.248 29.3836L113.771 29.1496L114.277 28.8938L114.769 28.6148L115.245 28.3141L115.705 27.9932L116.147 27.6522L116.573 27.2911L116.982 26.9113L117.371 26.513L117.743 26.0976L118.097 25.6651L118.43 25.2156L118.744 24.7506L119.039 24.2701L119.312 23.7741L119.564 23.2657L119.797 22.7434L120.006 22.2071L120.192 21.6599L120.358 21.1019L120.499 20.5315L120.617 19.9518L120.711 19.3628L120.781 18.763L120.826 18.1569L120.839 17.3664L120.792 16.6209L120.687 15.9202L120.524 15.263L121.114 15.0553L121.677 14.8321L122.213 14.5965L122.722 14.3485L123.205 14.0912L123.664 13.8262L124.098 13.5518L124.507 13.2728L124.895 12.9892L125.258 12.7009L125.599 12.411L125.918 12.1212L126.216 11.8329L126.493 11.5461L126.75 11.2625L126.989 10.985L127.208 10.7122L127.409 10.4472L127.592 10.193L127.758 9.94807L127.907 9.71402L128.04 9.49392L128.158 9.28777L128.262 9.09867L128.35 8.92507L128.424 8.77162L128.486 8.63832L128.536 8.52517L128.573 8.43527L128.599 8.36862L128.62 8.31437L128.482 8.32367Z" fill="#8CD5F5"/>
<path d="M114.214 18.98L114.201 19.4032L114.158 19.941L114.087 20.4789L113.986 21.0105L113.859 21.5329L113.705 22.0397L113.526 22.5295L113.321 22.9945L113.092 23.4332L112.841 23.8393L112.565 24.2097L112.269 24.5383L111.951 24.8235L111.611 25.0591L111.253 25.2405L110.877 25.3645L110.481 25.4249L110.123 25.4358L109.795 25.4125L109.494 25.3583L109.223 25.273L108.978 25.1568L108.761 25.0095L108.57 24.8313L108.404 24.6236L108.263 24.3864L108.146 24.1198L108.053 23.8238L107.983 23.5014L107.933 23.1495L107.907 22.7713L107.901 22.3652L107.915 21.9328L107.955 21.4151L108.025 20.9005L108.121 20.389L108.246 19.8868L108.398 19.397L108.58 18.9242L108.789 18.4747L109.026 18.05L109.291 17.6548L109.585 17.2952L109.908 16.9727L110.258 16.6937L110.638 16.4628L111.046 16.2814L111.483 16.1574L111.948 16.0908L112.23 16.0846L112.493 16.1063L112.74 16.1559L112.969 16.2334L113.18 16.3403L113.372 16.4752L113.546 16.6379L113.701 16.8301L113.836 17.0502L113.95 17.2998L114.045 17.5773L114.119 17.8842L114.172 18.2205L114.203 18.5848L114.214 18.98Z" fill="#D44126"/>
<path d="M93.5135 18.0422L93.5166 18.2576L93.4747 18.5583L93.3833 18.8466L93.2453 19.1226L93.0609 19.3861L92.8377 19.6356L92.5742 19.8712L92.2735 20.0944L91.9418 20.3037L91.5775 20.5005L91.1869 20.6819L90.77 20.8508L90.3313 21.0058L89.8741 21.1453L89.3982 21.2709L88.9084 21.3825L88.4077 21.4801L88.5674 20.7733L88.7115 20.4494L88.8681 20.127L89.0386 19.8092L89.2199 19.4977L89.4137 19.1954L89.6183 18.904L89.8369 18.6265L90.0663 18.3646L90.3065 18.1228L90.5607 17.9011L90.8242 17.7043L91.1017 17.5322L91.3884 17.3896L91.6876 17.278L91.9991 17.2005L92.32 17.1587L92.6424 17.1633L92.9059 17.2207L93.1182 17.3261L93.281 17.4687L93.3988 17.6407L93.4747 17.8345L93.5135 18.0422Z" fill="#D44126"/>
<path d="M11.3615 66.421H17.5832L17.0175 70.6061H5.67761L8.22272 51.9393H13.3424L11.363 66.4195L11.3615 66.421Z" fill="#D6AA77"/>
<path d="M31.555 66.3931C31.386 67.6378 31.6124 68.0625 32.9407 67.8067L32.6013 70.4092C32.0355 70.6913 30.9319 70.9749 29.6035 70.9749C28.0194 70.9749 27.1421 70.2108 26.8321 68.9661C25.6154 70.2666 24.1165 70.9749 22.5045 70.9749C19.761 70.9749 18.4032 68.9103 18.4032 66.1668C18.4032 61.4718 21.0615 57.8231 25.558 57.8231C26.7453 57.8231 27.6784 58.1347 28.4705 58.6431L28.7541 58.1905H32.7129L31.5535 66.3931H31.555ZM26.7469 65.9405L27.3405 61.726C26.9453 61.5276 26.4927 61.4145 25.9827 61.4145C24.2576 61.4145 23.4376 63.0265 23.4376 65.0632C23.4376 66.3931 23.8902 67.0999 24.7381 67.0999C25.5859 67.0999 26.2648 66.6473 26.7469 65.9405Z" fill="#D6AA77"/>
<path d="M42.0191 57.4558L41.9338 58.1905H44.9315L44.3658 61.8672H41.4239L40.2071 71.1718C39.6414 75.2158 37.0389 77.0541 33.787 77.0541C32.4865 77.0541 31.524 76.7426 30.8745 76.3194L31.8355 73.0954C32.2308 73.2364 32.6555 73.3217 33.136 73.3217C34.4659 73.3217 35.1727 73.1527 35.4548 70.8618L36.6142 61.8687H33.9839L34.5217 58.1921H37.0947L37.2637 56.8916C37.8294 52.564 40.2614 50.4436 43.6264 50.4436C44.899 50.4436 45.9174 50.7257 46.6815 51.1783L45.8042 54.6565C45.3516 54.4023 44.9269 54.2892 44.3906 54.2892C43.0607 54.2892 42.3539 54.8828 42.0144 57.4574L42.0191 57.4558Z" fill="#D6AA77"/>
<path d="M55.4824 57.9936L54.8035 62.6886L54.5493 62.7738C54.1246 62.5196 53.3326 62.3491 52.2584 62.3491C51.5795 62.3491 50.7595 62.4623 49.9954 62.9149L48.9212 70.6076H44.0573L45.7825 58.192H50.3643L50.4216 59.8319C51.4958 58.6725 52.8536 57.8231 54.4098 57.8231C54.8624 57.8231 55.174 57.8805 55.484 57.9921L55.4824 57.9936Z" fill="#D6AA77"/>
<path d="M67.7275 66.3931C67.557 67.6378 67.7848 68.0625 69.1132 67.8067L68.7737 70.4092C68.208 70.6913 67.1044 70.9749 65.776 70.9749C64.1919 70.9749 63.3146 70.2108 63.0046 68.9661C61.7878 70.2666 60.289 70.9749 58.677 70.9749C55.9335 70.9749 54.5757 68.9103 54.5757 66.1668C54.5757 61.4718 57.2339 57.8231 61.7305 57.8231C62.9178 57.8231 63.8509 58.1347 64.6429 58.6431L64.925 58.1905H68.8838L67.7244 66.3931H67.7275ZM62.9193 65.9405L63.513 61.726C63.1177 61.5276 62.6651 61.4145 62.1552 61.4145C60.43 61.4145 59.6101 63.0265 59.6101 65.0632C59.6101 66.3931 60.0627 67.0999 60.9105 67.0999C61.7584 67.0999 62.4373 66.6473 62.9193 65.9405Z" fill="#D6AA77"/>
<path d="M84.5838 67.8067L84.3017 70.4092C83.7359 70.6913 82.7749 70.9749 81.5024 70.9749C78.9851 70.9749 77.7126 70.0139 78.0799 67.3262L78.5046 64.2711C78.7588 62.4328 78.4767 61.8392 77.6568 61.8392C76.4121 61.8392 75.648 63.4791 75.2806 65.2895L74.5459 70.606H69.682L71.4351 58.1905H75.9037L75.7627 60.114C76.781 58.5873 78.1388 57.8231 79.8919 57.8231C82.7207 57.8231 83.9932 59.8598 83.5685 62.8575L83.088 66.3931C82.9191 67.6657 83.3996 67.8641 83.908 67.8641C84.1622 67.8641 84.4458 67.8362 84.5869 67.8083L84.5838 67.8067Z" fill="#D6AA77"/>
<path d="M85.2054 65.6305C85.2054 61.0766 88.1752 57.8247 92.757 57.8247C95.9531 57.8247 97.3946 59.3809 97.3946 62.1802L93.0964 63.2265C93.0964 62.4918 92.9554 61.4161 91.9649 61.4161C90.6645 61.4161 90.2398 63.1133 90.2398 64.6122C90.2398 66.3652 91.0039 67.2983 92.757 67.2983C93.9737 67.2983 94.9905 66.7899 96.0383 66.0258L96.6041 69.194C95.5857 70.0713 93.4653 70.9765 91.0613 70.9765C87.1026 70.9765 85.2069 68.7988 85.2069 65.6305H85.2054Z" fill="#D6AA77"/>
<path d="M97.6209 65.5732C97.6209 60.9634 100.732 57.8231 105.483 57.8231C109.187 57.8231 111.394 59.7467 111.394 63.0559C111.394 67.6378 108.255 70.9749 103.561 70.9749C99.8281 70.9749 97.6209 68.9103 97.6209 65.5732ZM106.304 63.6496C106.304 62.2065 105.766 61.4997 104.89 61.4997C103.334 61.4997 102.685 63.3101 102.685 65.0074C102.685 66.4784 103.08 67.2983 104.354 67.2983C105.628 67.2983 106.306 65.3748 106.306 63.6496H106.304Z" fill="#D6AA77"/>
<path d="M126.666 67.8067L126.384 70.4092C125.819 70.6913 124.858 70.9749 123.585 70.9749C121.068 70.9749 119.795 70.0139 120.163 67.3262L120.587 64.2711C120.842 62.4328 120.559 61.8392 119.739 61.8392C118.495 61.8392 117.731 63.4791 117.363 65.2895L116.629 70.606H111.765L113.518 58.1905H117.986L117.845 60.114C118.864 58.5873 120.222 57.8231 121.975 57.8231C124.803 57.8231 126.076 59.8598 125.651 62.8575L125.171 66.3931C125.002 67.6657 125.482 67.8641 125.991 67.8641C126.245 67.8641 126.529 67.8362 126.67 67.8083L126.666 67.8067Z" fill="#D6AA77"/>
<path d="M127.796 66.9867L129.069 58.1905H133.933L132.773 66.3931C132.604 67.6935 132.914 68.0051 134.216 67.8067L134.048 70.4092C133.482 70.6076 132.549 70.9749 130.909 70.9749C128.731 70.9749 127.345 70.2108 127.798 66.9867H127.796ZM129.239 53.6086C129.466 52.0524 130.879 50.8093 132.408 50.8093C133.936 50.8093 135.038 52.054 134.812 53.6086C134.585 55.1354 133.172 56.38 131.643 56.38C130.115 56.38 129.013 55.1354 129.239 53.6086Z" fill="#D6AA77"/>
</svg>
