<svg width="363" height="199" viewBox="0 0 363 199" fill="none" xmlns="http://www.w3.org/2000/svg">
<g clip-path="url(#clip0_2259_19304)">
<path d="M218.81 146.91H76.8101V182.91H218.81V146.91Z" fill="#FDECE3"/>
<path d="M333.89 25.73L333.53 25.76L333.11 25.79L332.54 25.83L331.84 25.88L331.02 25.94L330.1 26.01L329.09 26.08L328 26.16L326.85 26.24L325.66 26.32L324.43 26.41L323.19 26.5L321.94 26.59L320.7 26.68L319.48 26.77L318.87 28.05L318.25 29.24L317.62 30.34L316.99 31.35L316.35 32.28L315.71 33.13L315.07 33.91L314.43 34.61L313.8 35.25L313.17 35.82L312.55 36.33L311.94 36.78L311.35 37.18L310.77 37.52L310.21 37.82L309.67 38.07L308.28 36.79L306.69 35.7L304.91 34.8L302.95 34.09L300.81 33.58L298.49 33.26L296 33.15L293.34 33.24L291.73 33.39L290.15 33.6L288.6 33.88L287.09 34.22L285.62 34.62L284.18 35.09L282.78 35.61L281.42 36.19L280.1 36.83L278.82 37.52L277.58 38.27L276.39 39.07L275.24 39.92L274.14 40.82L273.08 41.77L272.07 42.77L271.11 43.82L270.2 44.91L269.34 46.04L268.53 47.22L267.77 48.44L267.71 48.54L257 38.65L256.9 38.54L256.19 37.96L255.4 37.47L257.29 27.4L239.01 10.52L222.69 11.68L221.31 19.01L214.04 12.3H213.99H213.95H213.9H213.84H213.77L213.69 12.31H213.6L213.55 12.32H213.5L213.39 12.33H213.27L213.14 12.35H213L212.85 12.37H212.69L212.53 12.39H212.36L212.18 12.41H211.99L211.8 12.44H211.7L211.6 12.45H211.39L211.18 12.48L210.96 12.5L210.73 12.52H210.61L210.49 12.54L210.25 12.56L210.01 12.58L209.76 12.6L209.5 12.62H209.37L209.24 12.64H209.11L208.98 12.66L208.71 12.68L208.44 12.7L208.16 12.72L207.88 12.74L207.59 12.76L207.3 12.78L207.01 12.8L206.72 12.82L206.42 12.84L206.12 12.86H205.97L205.82 12.88H205.8L205.52 12.9L205.21 12.92L204.9 12.94L204.59 12.96L204.28 12.98L203.97 13L203.66 13.02L203.35 13.04L203.04 13.06L202.73 13.08L202.42 13.1L202.11 13.12L201.8 13.14L201.49 13.16L201.18 13.18L200.87 13.2L200.56 13.22L200.25 13.24L199.95 13.26L199.65 13.28L199.5 13.67L199.42 13.86L199.34 14.05L199.19 14.43L199.04 14.8L198.96 14.98L198.88 15.16L198.73 15.51L198.58 15.85L198.43 16.19L198.28 16.52L198.13 16.84L197.98 17.15L197.83 17.46L197.68 17.76L197.53 18.05L197.38 18.33L197.3 18.47L197.22 18.61L197.07 18.88L196.92 19.14L196.77 19.4L196.62 19.65L196.47 19.9L196.32 20.14L196.17 20.37L196.02 20.6L195.87 20.82L195.72 21.04L195.57 21.25L195.42 21.46L195.27 21.66L195.12 21.85L194.97 22.04L194.82 22.23L194.67 22.41L194.59 22.5L185.67 14.27L185.44 14.29L185.21 14.31L184.99 14.33H184.97L184.73 14.35L184.49 14.37L184.24 14.39L183.99 14.41L183.74 14.43L183.49 14.45H183.37L183.24 14.47L182.98 14.49L182.72 14.51L182.46 14.53L182.2 14.55L181.94 14.57L181.68 14.59L181.42 14.61L181.16 14.63L180.9 14.65L180.64 14.67L180.38 14.69L180.12 14.71L179.86 14.73L179.6 14.75L179.35 14.77L179.1 14.79L178.85 14.81L178.6 14.83L178.35 14.85L178.11 14.87L177.87 14.89L177.63 14.91L177.4 14.93L177.17 14.95L176.95 14.97L176.73 14.99L176.51 15.01L176.3 15.03H176.09L175.89 15.06H175.69L175.5 15.09H175.32L175.14 15.12H174.97L174.81 15.14H174.65L174.5 15.16H174.36L174.22 15.18H174.09L173.97 15.2H173.86L173.76 15.22H173.67L173.58 15.23H173.5L173.43 15.24H173.37H173.32H173.28H173.25L173.22 15.26V15.28V15.31L173.21 15.35V15.4L173.19 15.46V15.53L173.17 15.61V15.7L173.15 15.8V15.91L173.13 16.03V16.15L173.11 16.27V16.42V16.58L173.1 16.74V16.91V17.09V17.28V17.48V17.68V17.88V18.1L173.12 18.32L173.14 18.55L173.16 18.79L173.18 19.03L173.21 19.28L173.24 19.53L173.28 19.79L173.32 20.05L173.36 20.32L173.41 20.59L173.47 20.87L173.53 21.15L173.6 21.44L173.67 21.73L173.75 22.03L173.83 22.33L173.92 22.63L173.97 22.78L174.02 22.93L174.12 23.24L174.23 23.55L174.35 23.86L174.48 24.18L174.62 24.5L174.76 24.82L174.91 25.14L175.07 25.46L175.24 25.79L175.42 26.12L175.51 26.28L175.6 26.44L175.8 26.77L176.01 27.1L176.23 27.43L176.46 27.76L176.7 28.09L176.95 28.42L177.21 28.75L177.48 29.08L177.76 29.41L177.91 29.57L178.06 29.73L178.36 30.06L178.47 30.17L178.68 30.38L179.01 30.7L179.35 31.02L179.47 31.13L179.54 31.2L179.49 31.22L189.66 40.61L189.04 40.63L187.49 40.78L185.97 40.99L184.48 41.27L183.02 41.62L181.6 42.03L180.21 42.5L178.86 43.03L177.55 43.62L176.28 44.27L175.94 44.47L176.01 44.28L176.1 44.03L176.18 43.78L176.26 43.53L176.33 43.27L176.4 43.01L176.46 42.75L176.51 42.49L176.57 42.13L176.62 41.77L176.66 41.42L176.68 41.07V40.84L176.69 40.61V40.38V40.16V39.94L176.66 39.72L176.64 39.5L176.61 39.29L176.58 39.08L176.54 38.87L176.5 38.66L176.45 38.46L176.4 38.26L176.34 38.06L176.28 37.87L176.21 37.68L176.14 37.49L176.06 37.3L175.98 37.12L175.89 36.94L175.8 36.76L175.71 36.59L175.61 36.42L175.51 36.25L175.4 36.09L175.29 35.93L175.17 35.77L175.05 35.62L174.93 35.47L174.83 35.36L174.92 35.33L156.64 18.45L156.55 18.48L156.52 18.44L156.39 18.3L156.25 18.16L156.11 18.03L155.97 17.9L155.82 17.77L155.67 17.65L155.51 17.53L155.35 17.42L155.27 17.37L155.19 17.32L155.02 17.22L154.85 17.12L154.68 17.02L154.5 16.93L154.32 16.84L154.14 16.76L153.95 16.68L153.76 16.61L153.57 16.54L153.37 16.48L153.17 16.42L152.97 16.37L152.87 16.35L152.77 16.33L152.56 16.29L152.35 16.25L152.14 16.22L151.92 16.19L151.7 16.17L151.48 16.15H151.26L151.03 16.13H150.8H150.57H150.45H150.33H150.21L150.09 16.14H149.96L149.83 16.16L149.57 16.19L149.31 16.22L149.05 16.26L148.79 16.31L148.53 16.36L148.27 16.42L148.02 16.48L147.77 16.55L147.52 16.63L147.27 16.71L147.02 16.8L146.77 16.89L146.52 16.99L146.27 17.09L146.03 17.2L145.79 17.31L145.67 17.37L145.55 17.43L145.43 17.49L145.31 17.55L145.07 17.68L144.84 17.81L144.61 17.95L144.38 18.09L144.15 18.24L143.93 18.39L143.8 18.48L143.71 18.55L143.49 18.71L143.28 18.88L143.07 19.05L142.86 19.22L142.65 19.4L142.45 19.58L142.25 19.77L142.05 19.96L141.86 20.15L141.67 20.35L141.48 20.55L141.3 20.75L141.12 20.96L140.95 21.17L140.78 21.38L140.61 21.6L140.45 21.82L140.29 22.04L140.14 22.27L139.99 22.5L139.85 22.73L139.71 22.96L139.58 23.2L139.45 23.44L139.33 23.68L139.21 23.92L139.1 24.17L138.99 24.42L138.89 24.67L138.79 24.92L138.7 25.17L138.61 25.43L138.55 25.63L138.53 25.69L138.45 25.95L138.38 26.21L138.31 26.47L138.25 26.73L138.2 27L138.14 27.35L138.09 27.69L138.05 28.03L138.03 28.37V28.6L138.02 28.82V29.04V29.26V29.48L138.05 29.7L138.07 29.91L138.1 30.12L138.13 30.33L138.16 30.5V30.53L138.19 30.63L138.21 30.73L138.26 30.93L138.31 31.13L138.37 31.33L138.39 31.39L138.43 31.52L138.5 31.71L138.57 31.9L138.65 32.08L138.73 32.26L138.82 32.44L138.91 32.62L139.01 32.79L139.11 32.96L139.21 33.13L139.32 33.29L139.43 33.45L139.55 33.61L139.67 33.76L139.8 33.91L139.93 34.05L140.06 34.19L140.15 34.28L140.04 34.31L151.14 44.56L145.94 44.93L143.85 45.16L141.95 45.53L140.2 46.02L138.59 46.62L137.1 47.31L135.7 48.08L134.37 48.91L133.09 49.79L131.84 50.71L130.59 51.65L129.33 52.59L128.53 53.17L121.49 46.67L104.94 47.85L105.11 49.07L105.27 50.38L105.41 51.77L105.52 53.23L105.6 54.77L105.64 56.37V58.04L105.57 59.76L105.52 60.66L105.45 61.58L105.39 62.27L91.54 49.48L91.53 49.47L90.97 49.04L90.34 48.68L89.65 48.4L88.89 48.19L88.07 48.04L87.19 47.96L86.25 47.94L85.25 47.98L84.41 48.06L83.55 48.17L82.68 48.31L81.8 48.47L80.92 48.65L80.05 48.85L79.19 49.07L78.35 49.31L77.53 49.56L76.74 49.82L75.99 50.08L75.28 50.35L74.62 50.62L74.01 50.89L73.46 51.15L72.98 51.4L71.55 61.87L63.76 54.68L62.85 53.67L61.8 52.8L60.61 52.06L59.27 51.45L57.79 50.98L56.17 50.64L54.4 50.44L52.49 50.38L50.43 50.46L48.88 50.61L47.36 50.82L45.87 51.1L44.41 51.45L42.99 51.86L41.6 52.33L40.25 52.86L38.94 53.45L37.67 54.1L36.44 54.81L35.25 55.57L34.1 56.38L32.99 57.25L31.92 58.17L30.9 59.13L29.92 60.14L28.99 61.2L28.11 62.3L27.28 63.44L26.5 64.63L25.77 65.86L25.09 67.12L24.46 68.42L23.88 69.76L23.36 71.13L22.89 72.53L22.48 73.96L22.13 75.42L21.84 76.91L21.6 78.42L21.42 79.96L21.31 81.52L21.28 83.68L21.42 85.74L21.72 87.69L22.19 89.52L22.84 91.23L23.66 92.81L24.65 94.25L25.82 95.55L26.57 96.19H26.56L43.92 112.23L44.1 112.44L44.64 112.9L44.84 113.08H44.85L45.44 113.59L46.96 114.58L47.83 115.01L32.32 116.11L13.13 117.47L10.52 130.18L22.47 141.21L28.81 147.06L60.2 144.83L54.49 187.15H67.76L70.91 163.77L92.46 187.15H97.96L104.16 141.71L128.79 139.96L119.65 151.02H128.96L141.53 139.05L150.36 138.42L143.54 187.14H153.07L154.02 185.45C156.22 187.06 158.86 188.09 162.37 188.09C174.02 188.09 180.91 178.56 180.91 166.47C180.91 159.36 177.39 154.01 170.21 154.01C166.62 154.01 163.17 155.4 160.24 158.11L163.16 137.5L328.95 125.73L339.61 124.97L342.22 112.26L324.4 95.81L323.93 95.38L314.81 96.03L315.02 95.92L316.29 95.2L317.52 94.42L317.84 94.19L318.71 93.58L319.86 92.7L320.96 91.76L322.02 90.78L322.35 90.44L323.03 89.75L323.99 88.67L324.91 87.55L325.78 86.39L326.41 85.45L326.59 85.18L326.82 84.8L327.35 83.94L328.01 82.74L328.06 82.65L328.71 81.33L328.91 80.88L329.31 79.98L329.48 79.56L329.86 78.6L330.18 77.65L330.34 77.18L330.51 76.61L330.77 75.73L331.06 74.55L331.13 74.25L331.44 72.75L331.68 71.22L331.83 69.9L331.86 69.67L331.98 68.1V67.43L332.01 66.05L331.95 65.11L331.89 64.11L331.62 62.29L331.25 60.8L331.2 60.59L332.73 60.05L334.19 59.47L335.58 58.86L336.9 58.22L338.15 57.55L339.34 56.86L340.46 56.15L341.52 55.43L342.52 54.69L343.46 53.95L344.34 53.2L345.17 52.45L345.94 51.7L346.66 50.96L347.33 50.23L347.95 49.51L348.52 48.8L349.04 48.11L349.51 47.45L349.94 46.81L350.33 46.21L350.68 45.64L350.99 45.11L351.26 44.62L351.49 44.17L351.68 43.77L351.84 43.42L351.97 43.13L352.07 42.9L352.14 42.73L352.19 42.59L333.91 25.71L333.89 25.73ZM164.4 164.07C166.67 164.07 167.77 165.9 167.77 169.35C167.77 174.63 165.72 178.8 161.17 178.8C159.7 178.8 158.46 178.43 157.36 177.92L158.83 167.59C160.15 165.46 161.91 164.07 164.4 164.07ZM246.96 100.86L243.4 101.11L245.42 90.35L254.45 98.69L254.84 99.01L255.1 99.25L256.19 100.03L256.35 100.14L256.44 100.19L246.96 100.86ZM121.64 109.76L121.7 109.73L122.01 109.57L122.3 109.4L123.28 108.83L124.5 108.03L125.67 107.18L126.8 106.27L127.88 105.31L128.5 104.7L128.91 104.3L129.41 103.76L129.9 103.24L130.84 102.13L131.74 100.97L132.59 99.76L133.4 98.51L133.65 98.08L134.16 97.22L134.66 96.28L134.88 95.88L135.11 95.42L135.56 94.5L135.6 94.4L150.08 107.77L136.07 108.77L121.63 109.8L121.64 109.76ZM170.2 106.31L170.62 106.08L171.3 105.66L171.98 105.24L173.26 104.38L173.75 104.02L174.45 103.5L174.99 103.08L175.57 102.62L176.6 101.75L176.82 101.55L177.55 100.91L177.98 100.51L178.41 100.11L178.88 99.66L179.19 99.37L179.89 98.7L180.45 99.75L180.58 99.94L181.09 100.73L181.81 101.65L182.61 102.51L183.48 103.3L184.43 104.02L185.32 104.58L185.46 104.67L186.34 105.13L170.18 106.28L170.2 106.31ZM212.09 103.34L212.89 102.96L214.04 102.38L215.16 101.78L216.24 101.16L216.76 100.84L217.28 100.52L218.3 99.87L219.28 99.21L219.84 98.82L220.23 98.55L220.84 98.1L225.48 102.39L217.1 102.99L212.09 103.35V103.34ZM91.5 67.48L91.97 67.91L91.75 68.02L91.37 68.22L91.43 67.88L91.5 67.48ZM73.51 113.18L73.59 113.14L74.18 112.87L75.07 112.42L75.43 112.24L76.64 111.58L77.82 110.9L78.19 110.67L78.96 110.2L79.51 109.85L80.06 109.5L81.11 108.78L82.12 108.06L82.89 107.48L83.08 107.33L84 106.61L84.88 105.9L85.61 105.28L85.71 105.2L86.49 104.51L87.23 103.84L87.92 103.19L88.17 102.94L88.55 102.57L88.8 102.32L89.13 101.99L89.66 101.44L89.71 101.39L90.14 100.93L90.57 100.46L90.94 100.04L91.25 99.68L91.46 99.43L91.51 99.37L91.53 101L91.68 102.55L91.88 103.62L91.96 104.03L92.38 105.42L92.7 106.18L92.93 106.72L93.23 107.25L93.62 107.93L94.18 108.67L94.46 109.04L95.44 110.04L95.93 110.42L96.56 110.92L96.96 111.16L97.51 111.49L82.97 112.52L73.51 113.19V113.18ZM88.04 162.31L71.31 144.04L90.73 142.66L88.04 162.31ZM288.11 97.94L276.3 98.78L276.42 98.71L276.99 98.36L277.56 98.01L278.65 97.28L279.48 96.69L279.7 96.54L280.71 95.79L281.67 95.03L281.93 94.81L282.57 94.28L282.94 93.96L283.42 93.55L284.2 92.85L284.85 93.75L285.56 94.59L285.95 94.98L286.34 95.37L287.18 96.09L287.81 96.55L288.08 96.74L288.56 97.04L289.04 97.34L289.19 97.42L289.96 97.82L288.12 97.95L288.11 97.94Z" fill="#FEEDE4"/>
<path d="M162.35 198.61C159.71 198.61 157.2 198.24 154.83 197.5C154.25 197.6 153.65 197.65 153.04 197.65H143.51C140.47 197.65 137.58 196.33 135.59 194.04C133.6 191.75 132.69 188.7 133.11 185.69L137.01 157.81L136.16 158.62C134.21 160.48 131.62 161.51 128.92 161.51H119.61C116.88 161.51 114.31 160.45 112.4 158.64L108.32 188.56C107.61 193.76 103.17 197.64 97.92 197.64H92.42C89.49 197.64 86.69 196.41 84.7 194.26L78.3 187.31L78.13 188.55C77.43 193.76 72.98 197.65 67.72 197.65H54.45C51.42 197.65 48.54 196.34 46.54 194.06C44.55 191.78 43.63 188.75 44.04 185.75L48.02 156.22L29.5 157.53C26.61 157.74 23.76 156.74 21.63 154.77L3.37998 137.89C0.679984 135.4 -0.520016 131.67 0.219984 128.07L2.82998 115.36C3.77998 110.75 7.67998 107.33 12.37 107L22.01 106.32L19.41 103.92C19.41 103.92 19.38 103.89 19.36 103.87L18.96 103.53C18.61 103.23 18.28 102.91 17.98 102.57L16.81 101.27C16.51 100.93 16.23 100.58 15.97 100.2L14.98 98.76C14.73 98.4 14.51 98.03 14.31 97.64L13.49 96.06C13.3 95.7 13.14 95.33 12.99 94.94L12.34 93.23C12.21 92.88 12.09 92.52 12 92.15L11.53 90.32C11.44 89.99 11.37 89.65 11.32 89.31L11.02 87.36C10.97 87.05 10.94 86.74 10.92 86.43L10.78 84.37C10.76 84.09 10.75 83.8 10.76 83.52L10.79 81.36C10.79 81.16 10.8 80.96 10.82 80.76L10.93 79.2C10.94 79.06 10.95 78.92 10.97 78.78L11.15 77.24C11.17 77.1 11.19 76.95 11.21 76.81L11.45 75.3C11.47 75.16 11.5 75.02 11.53 74.88L11.82 73.39C11.85 73.25 11.88 73.11 11.91 72.96L12.26 71.5C12.29 71.36 12.33 71.21 12.37 71.07L12.78 69.64C12.82 69.5 12.86 69.36 12.91 69.22L13.38 67.82C13.43 67.68 13.48 67.53 13.53 67.39L14.05 66.02C14.1 65.88 14.16 65.74 14.22 65.6L14.8 64.26C14.86 64.12 14.92 63.98 14.99 63.85L15.62 62.55C15.69 62.41 15.76 62.27 15.83 62.14L16.51 60.88C16.58 60.75 16.66 60.61 16.74 60.48L17.47 59.25C17.55 59.11 17.64 58.98 17.72 58.85L18.5 57.66C18.59 57.53 18.68 57.4 18.77 57.27L19.6 56.13C19.69 56 19.79 55.87 19.89 55.75L20.77 54.65C20.87 54.53 20.97 54.4 21.08 54.28L22.01 53.22C22.12 53.1 22.23 52.98 22.34 52.86L23.32 51.85C23.43 51.73 23.55 51.62 23.67 51.51L24.69 50.55C24.81 50.44 24.93 50.33 25.06 50.22L26.13 49.3C26.25 49.19 26.38 49.09 26.51 48.99L27.62 48.12C27.75 48.02 27.89 47.92 28.02 47.82L29.17 47.01C29.31 46.91 29.44 46.82 29.59 46.73L30.78 45.97C30.92 45.88 31.06 45.79 31.21 45.71L32.44 45C32.59 44.92 32.73 44.84 32.88 44.76L34.15 44.11C34.3 44.03 34.45 43.96 34.6 43.89L35.91 43.3C36.06 43.23 36.22 43.17 36.38 43.1L37.73 42.57C37.88 42.51 38.04 42.45 38.2 42.4L39.59 41.93C39.75 41.88 39.91 41.83 40.07 41.78L41.49 41.37C41.65 41.32 41.81 41.28 41.97 41.24L43.43 40.89C43.59 40.85 43.75 40.82 43.91 40.79L45.4 40.51C45.56 40.48 45.72 40.45 45.88 40.43L47.4 40.22C47.56 40.2 47.72 40.18 47.88 40.16L49.43 40.01C49.62 39.99 49.81 39.98 50 39.97L52.06 39.89C52.31 39.89 52.56 39.88 52.8 39.89L54.71 39.95C54.99 39.95 55.27 39.98 55.55 40.01L57.32 40.21C57.64 40.25 57.96 40.3 58.28 40.36L59.9 40.7C60.26 40.77 60.62 40.87 60.97 40.98L62.45 41.45C62.84 41.57 63.22 41.72 63.6 41.89L64.94 42.5C65.35 42.69 65.75 42.9 66.13 43.14L66.34 43.27C66.87 42.84 67.45 42.45 68.06 42.13L68.54 41.88C68.66 41.81 68.79 41.75 68.91 41.69L69.46 41.43C69.57 41.38 69.67 41.33 69.78 41.28L70.39 41.01C70.48 40.97 70.57 40.93 70.66 40.9L71.32 40.63C71.4 40.6 71.48 40.57 71.56 40.54L72.27 40.27C72.35 40.24 72.42 40.21 72.5 40.19L73.25 39.93C73.32 39.9 73.4 39.88 73.47 39.86L74.26 39.6C74.33 39.58 74.4 39.56 74.47 39.53L75.29 39.28C75.36 39.26 75.43 39.24 75.51 39.22L76.35 38.98C76.42 38.96 76.49 38.94 76.57 38.92L77.43 38.7C77.5 38.68 77.58 38.66 77.65 38.64L78.52 38.44C78.6 38.42 78.68 38.4 78.76 38.39L79.64 38.21C79.73 38.19 79.81 38.17 79.9 38.16L80.78 38C80.87 37.98 80.97 37.97 81.06 37.95L81.93 37.81C82.04 37.79 82.14 37.78 82.25 37.77L83.11 37.66C83.23 37.65 83.35 37.63 83.47 37.62L84.31 37.54C84.47 37.53 84.63 37.52 84.79 37.51L85.79 37.47C86.01 37.47 86.23 37.46 86.44 37.47L87.38 37.49C87.63 37.49 87.89 37.51 88.14 37.53L89.02 37.61C89.32 37.64 89.62 37.68 89.91 37.73L90.73 37.88C91.07 37.94 91.4 38.02 91.74 38.11L92.5 38.32C92.88 38.43 93.26 38.56 93.62 38.71L94.31 38.99C94.72 39.16 95.12 39.35 95.51 39.57L96.14 39.93C96.54 40.16 96.93 40.41 97.3 40.7C99.1 38.78 101.57 37.6 104.21 37.41L120.76 36.23C123.65 36.02 126.5 37.02 128.63 38.99L129.39 39.69L130.13 39.22C130.25 39.14 130.37 39.07 130.5 39C130.45 38.93 130.4 38.85 130.36 38.78L130.26 38.61C130.21 38.53 130.16 38.45 130.12 38.38L130.02 38.21C129.97 38.12 129.91 38.03 129.86 37.93L129.76 37.76C129.72 37.68 129.67 37.6 129.63 37.52L129.54 37.34C129.49 37.25 129.45 37.16 129.4 37.07L129.31 36.89C129.27 36.81 129.23 36.72 129.19 36.64L129.11 36.46C129.07 36.37 129.03 36.28 128.99 36.19L128.91 36.01C128.87 35.92 128.84 35.84 128.8 35.75L128.73 35.56C128.7 35.47 128.66 35.38 128.63 35.3L128.56 35.11C128.53 35.03 128.5 34.95 128.47 34.86L128.43 34.73C128.4 34.63 128.34 34.47 128.31 34.37L128.25 34.17C128.23 34.09 128.2 34.01 128.18 33.92L128.13 33.72C128.1 33.63 128.08 33.53 128.06 33.43L128.01 33.23C127.98 33.13 127.96 33.02 127.94 32.92L127.92 32.82C127.89 32.68 127.86 32.54 127.84 32.4L127.82 32.28C127.8 32.19 127.79 32.1 127.77 32.01L127.74 31.8C127.73 31.72 127.71 31.63 127.7 31.55L127.67 31.34C127.66 31.24 127.64 31.14 127.63 31.05L127.61 30.84C127.61 30.76 127.59 30.67 127.59 30.59L127.57 30.37C127.57 30.28 127.56 30.19 127.55 30.11V29.89C127.53 29.8 127.53 29.72 127.53 29.63V29.41C127.52 29.32 127.52 29.24 127.52 29.15V28.93C127.52 28.84 127.52 28.75 127.52 28.66V28.44C127.52 28.36 127.52 28.28 127.53 28.19V27.96C127.54 27.85 127.55 27.75 127.56 27.64L127.58 27.3C127.58 27.18 127.6 27.07 127.61 26.95L127.65 26.61C127.66 26.49 127.68 26.37 127.69 26.24L127.74 25.9C127.76 25.78 127.78 25.66 127.8 25.55L127.86 25.2C127.88 25.11 127.89 25.02 127.91 24.93L127.96 24.66C127.98 24.58 127.99 24.51 128.01 24.43L128.07 24.17C128.09 24.1 128.1 24.02 128.12 23.95L128.19 23.69C128.21 23.61 128.23 23.54 128.25 23.46L128.32 23.2C128.34 23.13 128.36 23.06 128.38 23L128.46 22.74C128.49 22.64 128.52 22.54 128.55 22.44L128.61 22.26C128.63 22.18 128.66 22.11 128.69 22.03L128.78 21.77C128.8 21.7 128.83 21.63 128.85 21.57L128.94 21.32C128.97 21.25 128.99 21.18 129.02 21.11L129.12 20.86C129.15 20.79 129.17 20.72 129.2 20.66L129.3 20.41C129.33 20.34 129.36 20.27 129.39 20.21L129.5 19.96C129.53 19.9 129.56 19.83 129.59 19.77L129.7 19.52C129.73 19.45 129.76 19.39 129.79 19.32L129.91 19.08C129.94 19.02 129.96 18.97 129.99 18.91L130.11 18.67C130.15 18.6 130.18 18.53 130.22 18.46L130.35 18.22C130.38 18.17 130.41 18.11 130.44 18.06L130.57 17.82C130.61 17.75 130.65 17.68 130.69 17.62L130.83 17.39C130.86 17.34 130.89 17.29 130.92 17.24L131.06 17.01C131.1 16.95 131.14 16.89 131.18 16.82L131.33 16.59C131.36 16.54 131.4 16.48 131.44 16.43L131.59 16.2C131.63 16.14 131.67 16.09 131.7 16.03L131.86 15.81C131.9 15.76 131.93 15.71 131.97 15.66L132.13 15.44C132.17 15.39 132.21 15.33 132.25 15.28L132.42 15.06C132.46 15 132.51 14.95 132.55 14.89L132.72 14.68C132.72 14.68 132.79 14.59 132.83 14.55L133 14.34C133.05 14.28 133.1 14.22 133.15 14.17L133.33 13.96C133.33 13.96 133.41 13.87 133.44 13.83L133.62 13.63C133.62 13.63 133.71 13.53 133.75 13.48L133.94 13.28C133.94 13.28 134.03 13.18 134.08 13.13L134.27 12.93C134.27 12.93 134.35 12.85 134.39 12.81L134.58 12.62C134.63 12.57 134.69 12.51 134.74 12.46L134.94 12.27C134.94 12.27 135.03 12.18 135.07 12.14L135.27 11.95C135.27 11.95 135.35 11.87 135.4 11.83L135.6 11.65C135.66 11.6 135.71 11.55 135.77 11.5L135.98 11.32C135.98 11.32 136.07 11.24 136.11 11.21L136.32 11.04C136.37 11 136.42 10.95 136.48 10.91L136.69 10.74C136.74 10.7 136.79 10.66 136.85 10.62L137.07 10.45C137.12 10.41 137.18 10.37 137.23 10.33L137.45 10.17C137.45 10.17 137.55 10.1 137.6 10.06L137.84 9.89C137.84 9.89 137.94 9.82 137.99 9.78L138.21 9.63C138.27 9.59 138.32 9.55 138.38 9.52L138.61 9.37C138.67 9.33 138.73 9.29 138.79 9.26L139.02 9.12C139.08 9.09 139.13 9.05 139.19 9.02L139.42 8.88C139.48 8.84 139.54 8.81 139.59 8.78L139.82 8.65C139.88 8.61 139.95 8.58 140.01 8.54L140.25 8.41C140.3 8.38 140.36 8.35 140.41 8.32L140.66 8.19C140.73 8.15 140.8 8.12 140.87 8.08L141.08 7.98C141.15 7.95 141.21 7.91 141.28 7.88L141.52 7.77C141.58 7.74 141.64 7.71 141.7 7.69L141.94 7.58C142.02 7.55 142.09 7.51 142.17 7.48L142.42 7.38C142.48 7.35 142.54 7.33 142.6 7.31L142.85 7.21C142.93 7.18 143.01 7.15 143.08 7.12L143.33 7.03C143.39 7.01 143.45 6.98 143.51 6.96L143.76 6.87C143.84 6.84 143.91 6.82 143.99 6.79L144.24 6.71C144.32 6.69 144.39 6.66 144.47 6.64L144.72 6.56C144.79 6.54 144.87 6.52 144.95 6.49L145.2 6.42C145.28 6.4 145.36 6.38 145.43 6.36L145.68 6.3C145.76 6.28 145.83 6.26 145.91 6.24L146.17 6.18C146.25 6.16 146.32 6.15 146.4 6.13L146.66 6.08C146.74 6.06 146.83 6.05 146.91 6.03L147.17 5.98C147.25 5.97 147.33 5.95 147.4 5.94L147.66 5.9C147.74 5.89 147.83 5.87 147.91 5.86L148.17 5.83C148.26 5.82 148.34 5.81 148.43 5.8L148.69 5.77C148.78 5.76 148.87 5.75 148.96 5.74L149.22 5.72C149.29 5.72 149.36 5.71 149.43 5.7L149.72 5.68C149.79 5.68 149.86 5.68 149.93 5.68H150.21C150.27 5.67 150.34 5.67 150.4 5.67H150.63C150.72 5.67 150.81 5.67 150.9 5.67H151.13C151.22 5.67 151.31 5.67 151.4 5.67H151.63C151.71 5.68 151.79 5.68 151.86 5.69H152.08C152.17 5.71 152.25 5.71 152.34 5.72L152.56 5.74C152.65 5.74 152.74 5.76 152.82 5.77L153.04 5.79C153.12 5.79 153.2 5.81 153.29 5.82L153.51 5.85C153.6 5.86 153.69 5.88 153.78 5.89L153.99 5.92C154.08 5.93 154.17 5.95 154.26 5.97L154.47 6.01C154.55 6.03 154.63 6.04 154.71 6.06L154.92 6.1C155.02 6.12 155.12 6.14 155.22 6.17L155.39 6.21C155.49 6.23 155.59 6.26 155.69 6.29L155.89 6.34C155.97 6.36 156.04 6.38 156.12 6.4L156.32 6.46C156.42 6.49 156.51 6.52 156.61 6.55L156.81 6.61C156.9 6.64 156.99 6.67 157.08 6.7L157.27 6.77C157.36 6.8 157.44 6.83 157.53 6.86L157.72 6.93C157.81 6.96 157.9 7 157.99 7.04L158.18 7.12C158.27 7.16 158.36 7.2 158.45 7.24L158.63 7.32C158.72 7.36 158.81 7.4 158.9 7.45L159.08 7.54C159.17 7.58 159.25 7.62 159.34 7.67L159.52 7.76C159.6 7.8 159.67 7.84 159.74 7.88L159.91 7.98C160.01 8.03 160.1 8.09 160.19 8.14L160.36 8.24C160.45 8.29 160.54 8.35 160.62 8.4L160.79 8.5C160.86 8.54 160.92 8.59 160.99 8.63C161 8.63 161.1 8.7 161.11 8.71C161.19 8.76 161.35 8.87 161.43 8.93L161.59 9.04C161.67 9.1 161.75 9.15 161.83 9.21L161.99 9.33C162.07 9.39 162.15 9.45 162.23 9.51L162.38 9.63C162.45 9.69 162.53 9.75 162.6 9.81L162.75 9.94C162.83 10 162.9 10.07 162.97 10.13C163.24 10.34 163.51 10.56 163.76 10.79L163.78 10.81C164.4 9.48 165.3 8.29 166.41 7.32C168.12 5.84 170.29 4.93 172.54 4.77C172.54 4.77 172.57 4.77 172.59 4.77C172.63 4.77 172.67 4.77 172.7 4.77H172.8L173.7 15.23L172.94 4.76C172.94 4.76 173.04 4.76 173.05 4.76L184.26 3.96C184.26 3.96 184.29 3.96 184.3 3.96L184.97 3.91C187.55 3.73 190.1 4.51 192.13 6.08C193.9 4.26 196.3 3.11 198.92 2.92L212.79 1.94C212.79 1.94 212.87 1.94 212.9 1.94C212.91 1.94 213.07 1.93 213.08 1.93C213.08 1.93 213.22 1.93 213.22 1.92C214.75 1.81 216.28 2.02 217.7 2.55C218.99 1.85 220.44 1.41 221.97 1.3L238.27 0.029996C241.16 -0.180004 244.01 0.819996 246.14 2.79L264.42 19.67C267.07 22.12 268.28 25.77 267.62 29.32L266.89 33.23L267.14 33.01C267.26 32.9 267.39 32.79 267.51 32.69L268.61 31.79C268.74 31.69 268.87 31.59 269 31.49L270.15 30.64C270.28 30.54 270.42 30.45 270.56 30.35L271.75 29.55C271.89 29.46 272.03 29.37 272.17 29.28L273.41 28.53C273.55 28.45 273.69 28.36 273.84 28.29L275.12 27.6C275.26 27.52 275.41 27.45 275.55 27.38L276.87 26.74C277.02 26.67 277.17 26.6 277.32 26.54L278.68 25.96C278.83 25.9 278.98 25.84 279.13 25.78L280.53 25.26C280.68 25.2 280.83 25.15 280.98 25.1L282.42 24.63C282.57 24.58 282.72 24.54 282.88 24.49L284.35 24.09C284.5 24.05 284.65 24.01 284.8 23.98L286.31 23.64C286.46 23.61 286.61 23.57 286.77 23.55L288.32 23.27C288.47 23.24 288.62 23.22 288.77 23.2L290.35 22.99C290.5 22.97 290.65 22.95 290.8 22.94L292.41 22.79C292.61 22.77 292.82 22.76 293.02 22.75L295.68 22.66C295.96 22.66 296.24 22.66 296.52 22.66L299.01 22.77C299.32 22.78 299.64 22.81 299.95 22.85L302.27 23.17C302.62 23.22 302.96 23.28 303.31 23.36L305.45 23.87C305.83 23.96 306.21 24.07 306.58 24.21L308.54 24.92C308.54 24.92 308.61 24.94 308.64 24.96L309.07 24.21L310.03 22.27C311.65 18.85 314.99 16.57 318.77 16.3L333.17 15.28C336.06 15.07 338.91 16.07 341.04 18.04L359.32 34.92C362.44 37.81 363.52 42.29 362.04 46.28L361.99 46.42C361.97 46.49 361.94 46.55 361.92 46.62L361.85 46.79C361.83 46.85 361.8 46.91 361.78 46.97L361.68 47.2C361.65 47.27 361.63 47.33 361.6 47.4L361.47 47.69C361.44 47.75 361.42 47.81 361.39 47.87L361.23 48.22C361.2 48.29 361.16 48.36 361.13 48.43L360.94 48.83C360.91 48.89 360.88 48.96 360.84 49.02L360.61 49.47C360.58 49.54 360.54 49.6 360.5 49.67L360.23 50.16C360.19 50.23 360.15 50.31 360.11 50.38L359.8 50.91C359.76 50.98 359.72 51.05 359.67 51.13L359.32 51.7C359.27 51.78 359.23 51.85 359.18 51.93L358.79 52.53C358.74 52.6 358.69 52.68 358.65 52.75L358.22 53.39C358.17 53.47 358.11 53.55 358.06 53.62L357.59 54.28C357.53 54.36 357.48 54.44 357.42 54.51L356.9 55.2C356.84 55.28 356.78 55.36 356.71 55.44L356.14 56.15C356.08 56.23 356.01 56.31 355.95 56.38L355.33 57.1C355.26 57.18 355.19 57.26 355.11 57.34L354.44 58.07C354.37 58.15 354.3 58.23 354.22 58.3L353.5 59.04C353.42 59.12 353.34 59.2 353.26 59.28L352.49 60.03C352.41 60.11 352.32 60.19 352.24 60.27L351.41 61.02C351.32 61.1 351.24 61.18 351.15 61.25L350.27 62C350.18 62.08 350.08 62.16 349.99 62.23L349.05 62.97C348.95 63.05 348.86 63.12 348.76 63.19L347.76 63.93C347.66 64 347.56 64.08 347.46 64.15L346.4 64.87C346.29 64.94 346.19 65.01 346.08 65.08L344.96 65.79C344.85 65.86 344.74 65.92 344.63 65.99L343.44 66.68C343.33 66.74 343.21 66.81 343.1 66.87L342.52 67.18L342.5 68.31C342.5 68.51 342.49 68.71 342.47 68.91L342.35 70.48C342.34 70.62 342.33 70.77 342.31 70.91L342.13 72.47C342.11 72.62 342.09 72.76 342.07 72.91L341.83 74.44C341.81 74.59 341.78 74.73 341.75 74.88L341.44 76.38C341.41 76.53 341.38 76.67 341.34 76.82L340.97 78.3C340.93 78.45 340.89 78.59 340.85 78.73L340.42 80.18C340.38 80.33 340.33 80.47 340.28 80.62L339.8 82.03C339.75 82.17 339.7 82.32 339.64 82.46L339.1 83.85C339.04 83.99 338.98 84.14 338.92 84.28L338.32 85.63C338.26 85.77 338.19 85.91 338.13 86.05L337.48 87.37C337.41 87.5 337.34 87.64 337.27 87.77C337.27 87.77 337.22 87.87 337.21 87.87L336.55 89.07C336.48 89.2 336.4 89.34 336.32 89.47L335.55 90.72C335.47 90.85 335.39 90.98 335.3 91.11L335.08 91.44L349.33 104.6C352.03 107.09 353.23 110.82 352.49 114.42L349.88 127.13C348.93 131.74 345.03 135.16 340.34 135.49L181.65 146.76C187.69 150.62 191.39 157.7 191.39 166.51C191.39 185.12 179.18 198.63 162.35 198.63V198.61ZM157.54 170.1C157.93 171.04 158.69 172.06 159.72 172.88L161.44 169.19L160.53 168.63C160.22 168.63 159.92 168.63 159.61 168.62C158.74 168.96 157.99 169.54 157.54 170.1ZM22.86 127.3L32.57 136.26L59.43 134.35C61.42 134.21 63.39 134.64 65.11 135.55C66.67 134.41 68.55 133.7 70.56 133.56L89.98 132.18C92.45 132.01 94.88 132.71 96.85 134.13C98.57 132.48 100.85 131.41 103.38 131.23L128.01 129.48C130.36 129.31 132.65 129.94 134.54 131.19C136.27 129.66 138.45 128.74 140.76 128.58L149.59 127.95C151.93 127.78 154.23 128.41 156.15 129.68C157.84 128.18 160.01 127.21 162.4 127.04L329.84 115.15L320.13 106.19L315.54 106.52C310.56 106.87 306.01 103.66 304.68 98.84C303.35 94.02 305.6 88.94 310.05 86.68L311.82 85.61L313.25 84.55L314.85 83.11L316 81.87L317.2 80.33L318.27 78.67L319.31 76.65L319.99 75L320.63 73L321.1 70.9L321.4 68.71L321.48 67.28L321.5 66.32L321.43 65.25L321.3 64.37L321 63.16C319.69 57.91 322.59 52.52 327.69 50.72L330.13 49.81L332.13 48.89L333.89 47.91L335.44 46.89L336.8 45.85L338.52 44.29L330.1 36.52L325.94 36.82L325.89 36.9C325.81 37.03 325.73 37.15 325.65 37.27L325.01 38.2C324.92 38.32 324.84 38.45 324.74 38.57L324.1 39.42C324.01 39.55 323.91 39.67 323.81 39.79L323.17 40.57C323.07 40.7 322.96 40.82 322.85 40.94L322.21 41.64C322.1 41.76 321.98 41.88 321.87 42L321.24 42.64C321.12 42.76 321 42.88 320.87 42.99L320.24 43.56C320.11 43.68 319.98 43.79 319.85 43.9L319.23 44.41C319.1 44.52 318.96 44.63 318.82 44.73L318.21 45.18C318.07 45.29 317.92 45.39 317.77 45.49L317.18 45.89C317.03 45.99 316.88 46.08 316.73 46.17L316.15 46.51C316 46.6 315.85 46.68 315.7 46.77L315.14 47.07C314.99 47.15 314.83 47.23 314.67 47.31L314.13 47.56C310.27 49.37 305.71 48.67 302.57 45.79L301.72 45.01L301.31 44.73L300.73 44.44L299.93 44.15L298.87 43.9L297.54 43.72L295.94 43.65L294 43.72L291.78 43.97L289.63 44.41L287.63 45.01L285.77 45.76L284.04 46.65L282.44 47.67L280.97 48.82L279.62 50.09L278.4 51.49L277.3 53.01L276.78 53.84C275.19 56.57 272.46 58.44 269.33 58.93C266.16 59.43 262.94 58.45 260.58 56.27L249.85 46.41C246.17 44.13 244.27 39.81 245.07 35.55L245.89 31.19L235.21 21.33L231.47 21.6C230.59 25.06 228.01 27.86 224.59 28.99C220.97 30.19 216.97 29.33 214.17 26.74L210.24 23.11L206.58 23.37L206.21 24.04C206.21 24.04 206.17 24.12 206.15 24.15L205.81 24.74C205.81 24.74 205.76 24.82 205.74 24.86L205.39 25.43C205.39 25.43 205.35 25.49 205.33 25.53L205.18 25.77C205.18 25.77 205.14 25.83 205.13 25.86L204.98 26.09C204.98 26.09 204.94 26.16 204.91 26.19L204.76 26.42C204.76 26.42 204.72 26.48 204.7 26.51L204.55 26.73C204.55 26.73 204.51 26.79 204.49 26.82L204.14 27.33C204.14 27.33 204.09 27.41 204.06 27.44L203.91 27.65C203.91 27.65 203.87 27.71 203.85 27.73L203.7 27.93C203.7 27.93 203.65 27.99 203.63 28.03L203.48 28.22C203.48 28.22 203.44 28.28 203.41 28.31L203.26 28.5C203.26 28.5 203.21 28.57 203.18 28.6L203.03 28.79C203.03 28.79 202.98 28.85 202.96 28.88L202.81 29.06C202.81 29.06 202.76 29.12 202.74 29.15L202.66 29.24C201.12 31.1 199 32.37 196.66 32.84L196.73 32.91C199.85 35.79 200.93 40.27 199.46 44.26C197.99 48.25 194.26 50.95 190.02 51.12H189.68L187.61 51.38L185.63 51.8L183.78 52.38L182.05 53.11L181.11 53.6C177.27 55.8 172.46 55.36 169.09 52.49C165.86 49.74 164.62 45.34 165.88 41.34L150.34 26.99C150.28 26.95 150.22 26.91 150.17 26.86L148.82 28.19L158.25 36.89C161.33 39.73 162.42 44.13 161.03 48.08C159.64 52.03 156.04 54.78 151.87 55.08L146.87 55.43L145.41 55.59L144.35 55.79L143.44 56.04L142.62 56.34L141.83 56.71L141.02 57.16L140.14 57.71L138.1 59.17L135.61 61.04C135.56 61.08 135.5 61.12 135.45 61.16L134.65 61.74C130.6 64.65 125.06 64.31 121.4 60.93L117.69 57.51L116.12 57.62V58.13C116.12 58.24 116.12 58.35 116.12 58.46L116.06 60.18C116.06 60.27 116.06 60.35 116.05 60.44L116 61.34C116 61.39 116 61.45 115.99 61.5L115.92 62.42C115.92 62.48 115.92 62.53 115.91 62.59L115.85 63.28C115.48 67.26 112.89 70.68 109.16 72.12C106.69 73.07 104.01 73.03 101.63 72.12C101.12 73.29 100.41 74.36 99.53 75.27C100.13 76.59 100.46 78.06 100.46 79.61C100.46 83.94 97.83 87.66 94.09 89.27C94.41 89.35 94.73 89.45 95.05 89.56C99.19 91.04 102 94.91 102.04 99.31V100.49L102.2 101.58L102.49 102.25L102.56 102.3L102.94 102.53C106.86 104.89 108.8 109.52 107.73 113.98C106.66 118.43 102.83 121.68 98.26 122L74.27 123.7C69.23 124.06 64.65 120.77 63.37 115.88C62.09 110.99 64.48 105.88 69.05 103.73L70.58 102.98L74.25 100.8L76.72 99.04L79.52 96.72L82.09 94.24C82.09 94.24 82.09 94.24 82.1 94.23L83.44 92.74C84.53 91.43 85.9 90.44 87.41 89.8C82.85 88.66 79.46 84.53 79.46 79.61C79.46 77.03 80.39 74.66 81.94 72.83C81 70.88 80.67 68.65 81.06 66.43C79.89 68.89 77.78 70.84 75.13 71.79C71.45 73.11 67.33 72.28 64.46 69.62L56.67 62.43C56.42 62.2 56.19 61.96 55.97 61.71L55.65 61.36L55.14 61.18L54.53 61.05L53.67 60.95L52.55 60.91L51.15 60.97L49.08 61.21L47.1 61.63L45.25 62.21L43.51 62.94L41.89 63.82L40.38 64.84L38.97 65.99L37.67 67.28L36.48 68.7L35.41 70.25L34.45 71.93L33.62 73.73L32.93 75.65L32.39 77.69L32.01 79.84L31.81 82L31.79 83.43L31.93 85.02C32.54 79.8 36.97 75.74 42.35 75.74H42.36C48.02 75.74 52.64 80.22 52.85 85.83C54.02 85.38 55.3 85.13 56.63 85.13H56.64C62.44 85.13 67.14 89.83 67.14 95.63C67.14 101.43 62.44 106.13 56.64 106.13C54.56 106.13 52.62 105.52 50.98 104.48L51.03 104.52C51.15 104.63 51.26 104.74 51.38 104.86L51.47 104.93C51.47 104.93 51.54 104.99 51.57 105.02C51.61 105.05 51.65 105.08 51.69 105.12L51.77 105.18L52.45 105.58C56.71 107.67 59.05 112.36 58.14 117.02C57.23 121.68 53.31 125.15 48.58 125.49L22.89 127.31L22.86 127.3ZM42.58 96.73L48.25 101.96C46.99 100.3 46.21 98.25 46.13 96.03C45.03 96.46 43.83 96.7 42.59 96.73H42.58ZM82.53 59.05L81.99 63.03C82.84 61.21 84.21 59.67 85.91 58.59L85.78 58.47L84.4 58.65L82.52 59.04L82.53 59.05ZM173.21 15.49H173.3V15.5H173.21V15.49ZM173.6 15.25V15.15V15.25ZM121.65 120.26C116.99 120.26 112.85 117.17 111.56 112.64C110.2 107.86 112.37 102.78 116.77 100.47L117.76 99.9L119.29 98.84L120.72 97.62L122.06 96.24L123.32 94.69L124.64 92.71L125.71 90.77L126.08 90.02C127.47 86.97 130.23 84.77 133.51 84.09C136.83 83.4 140.27 84.36 142.76 86.66L157.24 100.03C158.48 101.17 159.4 102.57 159.96 104.09C160.59 101.18 162.45 98.59 165.21 97.09L166.34 96.41L168.97 94.49L172 91.77L172.66 91.14C175.03 88.87 178.33 87.84 181.57 88.35C184.81 88.87 187.63 90.87 189.18 93.76L189.86 94.88L190.45 95.41L191.23 95.84C195.4 98.01 197.62 102.68 196.66 107.29C195.7 111.9 191.81 115.3 187.12 115.63L170.96 116.78C166.28 117.11 161.98 114.3 160.37 109.96C160.28 110.38 160.16 110.8 160.02 111.21C158.63 115.16 155.03 117.91 150.86 118.21L122.41 120.23C122.16 120.25 121.91 120.26 121.66 120.26H121.65ZM212.1 113.84C207.36 113.84 203.17 110.65 201.95 106C200.67 101.11 203.05 96.01 207.62 93.85L209.18 93.08L211.75 91.61L214.65 89.63C218.7 86.66 224.29 86.98 227.98 90.39L232.62 94.68C233.02 95.05 233.39 95.44 233.72 95.86L235.11 88.43C235.81 84.68 238.5 81.6 242.13 80.4C245.76 79.2 249.75 80.06 252.56 82.65L261.3 90.72C261.44 90.83 261.58 90.94 261.72 91.06L262.4 91.54C264.1 92.73 265.39 94.37 266.14 96.23C266.82 93.53 268.56 91.13 271.1 89.67L272.74 88.62L274.33 87.46L276.49 85.67L277.2 85.03C279.42 83.04 282.37 82.08 285.34 82.4C288.3 82.72 290.99 84.28 292.74 86.7L293.5 87.65L294.25 88.19L294.82 88.49C298.99 90.66 301.22 95.33 300.26 99.94C299.31 104.54 295.41 107.95 290.72 108.29L288.88 108.42L277.07 109.26C272.51 109.58 268.3 106.92 266.6 102.75C265.5 107.13 261.74 110.35 257.21 110.67L247.73 111.34L244.17 111.59C240.93 111.82 237.76 110.53 235.59 108.1C235.33 107.8 235.08 107.5 234.85 107.18C233.19 110.42 229.95 112.6 226.25 112.86L212.86 113.81C212.61 113.83 212.36 113.84 212.11 113.84H212.1Z" fill="#FDECE3"/>
<path d="M138.38 176.24L141.38 154.99H131.12L130.39 156.16C128.34 154.84 125.92 154.04 122.84 154.04C111.19 154.04 104.3 163.49 104.3 175.66C104.3 182.77 107.82 188.12 114.93 188.12C119.11 188.12 122.99 186.29 126.14 182.92C126.95 186.15 129.22 188.12 133.32 188.12C136.76 188.12 139.62 187.39 141.09 186.65L141.97 179.91C138.53 180.57 137.94 179.47 138.38 176.25V176.24ZM125.92 175.07C124.67 176.9 122.99 178.07 120.72 178.07C118.45 178.07 117.35 176.24 117.35 172.79C117.35 167.51 119.48 163.34 123.95 163.34C125.27 163.34 126.44 163.63 127.47 164.15L125.93 175.07H125.92Z" fill="#FEEDE4"/>
<path d="M133.33 198.61C130.1 198.61 127.15 197.91 124.61 196.62C121.55 197.93 118.28 198.61 114.93 198.61C102.49 198.61 93.8 189.17 93.8 175.65C93.8 157.04 106.01 143.53 122.84 143.53C125.34 143.53 127.74 143.87 130.01 144.54C130.38 144.5 130.75 144.48 131.12 144.48H141.38C144.42 144.48 147.31 145.8 149.31 148.09C151.3 150.39 152.21 153.43 151.78 156.45L149.5 172.58C151.73 174.87 152.8 178.07 152.38 181.26L151.5 188C151.05 191.46 148.91 194.47 145.78 196.03C142.51 197.67 137.96 198.6 133.32 198.6L133.33 198.61ZM125.05 168.97L123.11 172.85C124.43 172.45 125.83 172.31 127.22 172.46C127.36 172.33 127.49 172.19 127.6 172.06C127.19 171.06 126.31 169.87 125.05 168.97Z" fill="#FDECE3"/>
<path d="M211.38 154.47C210.57 154.18 209.77 154.03 208.59 154.03C204.56 154.03 201.04 156.23 198.26 159.23L198.11 154.98H186.24L181.77 187.15H194.38L197.17 167.22C199.15 166.05 201.27 165.75 203.03 165.75C205.82 165.75 207.87 166.19 208.97 166.85L209.63 166.63L211.39 154.46L211.38 154.47Z" fill="#FEEDE4"/>
<path d="M194.38 197.66H181.77C178.73 197.66 175.84 196.35 173.85 194.05C171.86 191.75 170.95 188.72 171.37 185.71L175.84 153.54C176.56 148.35 181 144.49 186.24 144.49H198.11C199.11 144.49 200.08 144.63 201 144.89C203.44 143.99 205.99 143.53 208.59 143.53C210.93 143.53 212.95 143.87 214.96 144.6C219.64 146.3 222.48 151.05 221.77 155.97L220.01 168.14C219.44 172.07 216.7 175.34 212.94 176.6L212.28 176.82C210.36 177.46 208.32 177.52 206.39 177.04L204.77 188.61C204.05 193.8 199.61 197.66 194.37 197.66H194.38Z" fill="#FDECE3"/>
<path d="M228.01 179.09C224.27 179.09 222.66 177.84 222.15 175.35C232.12 176.38 242.23 172.35 242.23 163.7C242.23 157.98 237.69 154.03 229.55 154.03C217.46 154.03 209.25 162.6 209.25 173.74C209.25 181.8 213.57 188.1 225.3 188.1C232.41 188.1 236.59 185.75 239.52 183.78L237.91 176.16C234.98 177.92 231.68 179.09 228.02 179.09H228.01ZM228.16 162.45C229.99 162.45 230.29 163.62 230.29 164.65C230.29 167.65 226.92 168.53 222.67 168.46C223.55 165.31 225.31 162.45 228.17 162.45H228.16Z" fill="#FEEDE4"/>
<path d="M225.3 198.61C209.17 198.61 198.75 188.85 198.75 173.75C198.75 156.53 211.99 143.54 229.55 143.54C245.48 143.54 252.73 154 252.73 163.71C252.73 168.22 251.29 172.48 248.6 176.01L249.79 181.62C250.67 185.8 248.94 190.1 245.39 192.5C241.17 195.35 235.07 198.62 225.3 198.62V198.61Z" fill="#FDECE3"/>
<path d="M244.8 165.46H257.04L242.31 182.03L241.57 187.16H271.84L273.23 176.68H260.92L275.43 160.04L276.09 154.98H246.26L244.8 165.46Z" fill="#FEEDE4"/>
<path d="M271.84 197.66H241.57C238.53 197.66 235.63 196.34 233.64 194.04C231.65 191.74 230.75 188.69 231.18 185.68L231.91 180.55C232.2 178.51 233.09 176.6 234.46 175.06L236.87 172.35C234.88 170.06 233.98 167.02 234.4 164.02L235.87 153.54C236.6 148.35 241.03 144.49 246.27 144.49H276.1C279.12 144.49 282 145.79 283.99 148.06C285.98 150.33 286.9 153.35 286.51 156.35L285.85 161.41C285.58 163.46 284.71 165.39 283.35 166.95L281.01 169.63C281.01 169.63 281.09 169.72 281.13 169.77C283.12 172.05 284.04 175.07 283.64 178.07L282.25 188.55C281.56 193.77 277.11 197.67 271.84 197.67V197.66Z" fill="#FDECE3"/>
<path d="M277.78 137.98H268.47L263.12 143.99L259.38 137.98H250.22L257.18 151.1H267.22L277.78 137.98Z" fill="#FEEDE4"/>
<path d="M267.22 161.6H257.18C253.29 161.6 249.73 159.45 247.91 156.02L240.95 142.9C239.22 139.65 239.33 135.72 241.23 132.57C243.13 129.41 246.54 127.48 250.23 127.48H259.39C260.99 127.48 262.54 127.84 263.93 128.51C265.33 127.84 266.88 127.48 268.47 127.48H277.78C281.82 127.48 285.5 129.8 287.25 133.44C289 137.09 288.49 141.41 285.96 144.56L275.41 157.68C273.42 160.16 270.41 161.6 267.23 161.6H267.22Z" fill="#FDECE3"/>
<path d="M289.5 176.24L292.5 154.99H279.89L276.59 177.78C275.42 186.13 279.01 188.11 284.65 188.11C288.9 188.11 291.32 187.16 292.78 186.64L293.22 179.9C289.85 180.41 289.04 179.61 289.48 176.24H289.5Z" fill="#FEEDE4"/>
<path d="M284.67 198.61C278.29 198.61 273.36 196.66 270.02 192.81C266.52 188.79 265.24 183.24 266.21 176.32L269.51 153.48C270.26 148.32 274.68 144.48 279.9 144.48H292.51C295.55 144.48 298.44 145.8 300.44 148.09C302.43 150.39 303.34 153.43 302.91 156.45L300.65 172.45C302.8 174.58 303.92 177.55 303.73 180.58L303.29 187.32C303.02 191.52 300.26 195.15 296.28 196.55L296.04 196.63C294.23 197.27 290.47 198.6 284.67 198.6V198.61Z" fill="#FDECE3"/>
<path d="M288.55 135.85C284.59 135.85 280.93 139.07 280.34 143.11C279.75 147.07 282.69 150.29 286.57 150.29C290.45 150.29 294.19 147.07 294.78 143.11C295.37 139.08 292.58 135.85 288.55 135.85Z" fill="#FEEDE4"/>
<path d="M286.57 160.79C281.62 160.79 276.97 158.68 273.79 155C270.63 151.34 269.23 146.44 269.95 141.57C271.29 132.34 279.29 125.35 288.55 125.35C293.52 125.35 298.17 127.44 301.33 131.08C304.49 134.74 305.89 139.67 305.17 144.61C303.82 153.69 295.66 160.78 286.57 160.78V160.79ZM286.57 139.79C285.7 139.79 284.61 140.1 284.39 141.57C284.27 142.43 284.48 143.71 285.44 144.83C286.25 145.77 287.44 146.36 288.55 146.36C289.27 146.36 290.51 146.13 290.73 144.63C290.9 143.5 290.51 142.24 289.69 141.29C288.89 140.36 287.72 139.8 286.57 139.8V139.79Z" fill="#FDECE3"/>
<path d="M328.13 163.7C328.13 157.98 323.59 154.03 315.45 154.03C303.36 154.03 295.15 162.6 295.15 173.74C295.15 181.8 299.47 188.1 311.2 188.1C318.31 188.1 322.49 185.75 325.42 183.78L323.81 176.16C320.88 177.92 317.58 179.09 313.92 179.09C310.26 179.09 308.57 177.84 308.06 175.35C318.03 176.38 328.14 172.35 328.14 163.7H328.13ZM308.56 168.46C309.44 165.31 311.2 162.45 314.06 162.45C315.89 162.45 316.19 163.62 316.19 164.65C316.19 167.65 312.82 168.53 308.57 168.46H308.56Z" fill="#FEEDE4"/>
<path d="M311.2 198.61C295.07 198.61 284.65 188.85 284.65 173.75C284.65 156.53 297.89 143.54 315.45 143.54C331.38 143.54 338.63 154 338.63 163.71C338.63 168.22 337.19 172.48 334.51 176.01L335.7 181.62C336.58 185.8 334.85 190.1 331.3 192.5C327.08 195.35 320.98 198.62 311.21 198.62L311.2 198.61Z" fill="#FDECE3"/>
<path d="M256.95 113.03H194.95V151.03H256.95V113.03Z" fill="#FDECE3"/>
<path d="M256.95 161.53H194.95C189.15 161.53 184.45 156.83 184.45 151.03V113.03C184.45 107.23 189.15 102.53 194.95 102.53H256.95C262.75 102.53 267.45 107.23 267.45 113.03V151.03C267.45 156.83 262.75 161.53 256.95 161.53ZM205.45 140.53H246.45V123.53H205.45V140.53Z" fill="#FEEDE4"/>
<path d="M333.89 25.73L333.53 25.76L333.11 25.79L332.54 25.83L331.84 25.88L331.02 25.94L330.1 26.01L329.09 26.08L328 26.16L326.85 26.24L325.66 26.32L324.43 26.41L323.19 26.5L321.94 26.59L320.7 26.68L319.48 26.77L318.87 28.05L318.25 29.24L317.62 30.34L316.99 31.35L316.35 32.28L315.71 33.13L315.07 33.91L314.43 34.61L313.8 35.25L313.17 35.82L312.55 36.33L311.94 36.78L311.35 37.18L310.77 37.52L310.21 37.82L309.67 38.07L308.28 36.79L306.69 35.7L304.91 34.8L302.95 34.09L300.81 33.58L298.49 33.26L296 33.15L293.34 33.24L291.73 33.39L290.15 33.6L288.6 33.88L287.09 34.22L285.62 34.62L284.18 35.09L282.78 35.61L281.42 36.19L280.1 36.83L278.82 37.52L277.58 38.27L276.39 39.07L275.24 39.92L274.14 40.82L273.08 41.77L272.07 42.77L271.11 43.82L270.2 44.91L269.34 46.04L268.53 47.22L267.77 48.44L267.71 48.54L257 38.65L256.9 38.54L256.19 37.96L255.4 37.47L257.29 27.4L239.01 10.52L222.69 11.68L221.31 19.01L214.04 12.3H213.99H213.95H213.9H213.84H213.77L213.69 12.31H213.6L213.5 12.32H213.39L213.27 12.34H213.14L213 12.36H212.85L212.69 12.38H212.53L212.36 12.4H212.18L211.99 12.43H211.8L211.6 12.46H211.39L211.18 12.49L210.96 12.51L210.73 12.53L210.5 12.55L210.26 12.57L210.02 12.59L209.77 12.61L209.51 12.63L209.25 12.65L208.99 12.67L208.72 12.69L208.45 12.71L208.17 12.73L207.89 12.75L207.6 12.77L207.31 12.79L207.02 12.81L206.73 12.83L206.43 12.85L206.13 12.87L205.83 12.89L205.53 12.91L205.22 12.93L204.91 12.95L204.6 12.97L204.29 12.99L203.98 13.01L203.67 13.03L203.36 13.05L203.05 13.07L202.74 13.09L202.43 13.11L202.12 13.13L201.81 13.15L201.5 13.17L201.19 13.19L200.88 13.21L200.57 13.23L200.26 13.25L199.96 13.27L199.66 13.29L199.51 13.68L199.36 14.07L199.21 14.45L199.06 14.82L198.91 15.18L198.76 15.53L198.61 15.87L198.46 16.21L198.31 16.54L198.16 16.86L198.01 17.17L197.86 17.48L197.71 17.78L197.56 18.07L197.41 18.35L197.26 18.63L197.11 18.9L196.96 19.16L196.81 19.42L196.66 19.67L196.51 19.92L196.36 20.16L196.21 20.39L196.06 20.62L195.91 20.84L195.76 21.06L195.61 21.27L195.46 21.48L195.31 21.68L195.16 21.87L195.01 22.06L194.86 22.24L194.71 22.42L194.63 22.51L185.71 14.28L185.48 14.3L185.25 14.32L185.01 14.34L184.77 14.36L184.53 14.38L184.28 14.4L184.03 14.42L183.78 14.44L183.53 14.46L183.27 14.48L183.01 14.5L182.75 14.52L182.49 14.54L182.23 14.56L181.97 14.58L181.71 14.6L181.45 14.62L181.19 14.64L180.93 14.66L180.67 14.68L180.41 14.7L180.15 14.72L179.89 14.74L179.63 14.76L179.38 14.78L179.13 14.8L178.88 14.82L178.63 14.84L178.38 14.86L178.14 14.88L177.9 14.9L177.66 14.92L177.43 14.94L177.2 14.96L176.98 14.98L176.76 15L176.54 15.02H176.33L176.12 15.05H175.92L175.72 15.08H175.53L175.35 15.11H175.17L175 15.13H174.84L174.68 15.15H174.53L174.39 15.17H174.25L174.12 15.19H174L173.89 15.21H173.79L173.7 15.22H173.61L173.53 15.23H173.46H173.4H173.35H173.31H173.28L173.25 15.25V15.28V15.31V15.35L173.24 15.4V15.46L173.22 15.53V15.61L173.2 15.7V15.8L173.18 15.91V16.03L173.16 16.15V16.28L173.14 16.42V16.58L173.13 16.74V16.91V17.09V17.28V17.48V17.68L173.14 17.89V18.11L173.16 18.33L173.18 18.56L173.2 18.8L173.22 19.04L173.25 19.29L173.28 19.54L173.32 19.8L173.36 20.06L173.4 20.33L173.45 20.6L173.51 20.88L173.57 21.16L173.64 21.45L173.71 21.74L173.79 22.04L173.87 22.34L173.96 22.64L174.06 22.95L174.16 23.26L174.27 23.57L174.39 23.88L174.52 24.2L174.66 24.52L174.8 24.84L174.95 25.16L175.11 25.48L175.28 25.81L175.46 26.14L175.65 26.47L175.85 26.8L176.06 27.13L176.28 27.46L176.51 27.79L176.75 28.12L177 28.45L177.26 28.78L177.53 29.11L177.81 29.44L178.1 29.77L178.4 30.1L178.71 30.42L179.04 30.74L179.38 31.06L179.57 31.24L179.52 31.26L189.69 40.65L189.07 40.67L187.52 40.82L186 41.03L184.51 41.31L183.05 41.66L181.63 42.07L180.24 42.54L178.89 43.07L177.58 43.66L176.31 44.31L175.97 44.51L176.04 44.32L176.13 44.07L176.21 43.82L176.29 43.57L176.36 43.31L176.43 43.05L176.49 42.79L176.54 42.53L176.6 42.17L176.65 41.81L176.69 41.46L176.71 41.11V40.88L176.72 40.65V40.42V40.2V39.98L176.69 39.76L176.67 39.54L176.64 39.33L176.61 39.12L176.57 38.91L176.53 38.7L176.48 38.5L176.43 38.3L176.37 38.1L176.31 37.91L176.24 37.72L176.17 37.53L176.09 37.34L176.01 37.16L175.92 36.98L175.83 36.8L175.74 36.63L175.64 36.46L175.54 36.29L175.43 36.13L175.32 35.97L175.2 35.81L175.08 35.66L174.96 35.51L174.86 35.4L174.95 35.37L156.67 18.49L156.58 18.52L156.55 18.48L156.42 18.34L156.28 18.2L156.14 18.07L156 17.94L155.85 17.81L155.7 17.69L155.54 17.57L155.38 17.46L155.22 17.35L155.05 17.25L154.88 17.15L154.71 17.05L154.53 16.96L154.35 16.87L154.17 16.79L153.98 16.71L153.79 16.64L153.6 16.57L153.4 16.51L153.2 16.45L153 16.4L152.79 16.35L152.58 16.31L152.37 16.27L152.16 16.24L151.94 16.21L151.72 16.19L151.5 16.17H151.28L151.05 16.15H150.82H150.59H150.36L150.12 16.17L149.86 16.19L149.6 16.22L149.34 16.25L149.08 16.29L148.82 16.34L148.56 16.39L148.3 16.45L148.05 16.52L147.8 16.59L147.55 16.67L147.3 16.75L147.05 16.84L146.8 16.93L146.55 17.03L146.31 17.13L146.07 17.24L145.83 17.35L145.59 17.47L145.35 17.59L145.12 17.72L144.89 17.85L144.66 17.99L144.43 18.13L144.2 18.28L143.98 18.43L143.76 18.59L143.54 18.75L143.33 18.92L143.12 19.09L142.91 19.26L142.7 19.44L142.5 19.62L142.3 19.81L142.1 20L141.91 20.19L141.72 20.39L141.53 20.59L141.35 20.79L141.17 21L141 21.21L140.83 21.42L140.66 21.64L140.5 21.86L140.34 22.08L140.19 22.31L140.04 22.54L139.9 22.77L139.76 23L139.63 23.24L139.5 23.48L139.38 23.72L139.26 23.96L139.15 24.21L139.04 24.46L138.94 24.71L138.84 24.96L138.75 25.21L138.66 25.47L138.58 25.73L138.5 25.99L138.43 26.25L138.36 26.51L138.3 26.77L138.25 27.04L138.19 27.39L138.14 27.73L138.1 28.07L138.08 28.41V28.64L138.07 28.86V29.08V29.3V29.52L138.1 29.74L138.12 29.95L138.15 30.16L138.18 30.37L138.22 30.58L138.26 30.78L138.31 30.98L138.36 31.18L138.42 31.38L138.48 31.57L138.55 31.76L138.62 31.95L138.7 32.13L138.78 32.31L138.87 32.49L138.96 32.67L139.06 32.84L139.16 33.01L139.26 33.18L139.37 33.34L139.48 33.5L139.6 33.65L139.72 33.8L139.85 33.95L139.98 34.09L140.11 34.23L140.2 34.32L140.09 34.35L151.19 44.6L145.99 44.97L143.9 45.2L142 45.57L140.25 46.06L138.64 46.66L137.15 47.35L135.75 48.12L134.42 48.95L133.14 49.83L131.89 50.75L130.64 51.69L129.38 52.63L128.58 53.21L121.54 46.71L104.99 47.89L105.16 49.11L105.32 50.42L105.46 51.81L105.57 53.27L105.65 54.81L105.69 56.41V58.08L105.62 59.8L105.57 60.7L105.5 61.62L105.44 62.31L91.5899 49.52L91.5799 49.51L91.0199 49.08L90.3899 48.72L89.6999 48.44L88.9399 48.23L88.1199 48.08L87.2399 48L86.2999 47.98L85.2999 48.02L84.4599 48.1L83.5999 48.21L82.7299 48.35L81.8499 48.51L80.9699 48.69L80.0999 48.89L79.2399 49.11L78.3999 49.35L77.5799 49.6L76.7899 49.86L76.0399 50.12L75.3299 50.39L74.6699 50.66L74.0599 50.93L73.5099 51.19L73.0299 51.44L71.5999 61.91L63.8099 54.72L62.8999 53.71L61.8499 52.84L60.6599 52.1L59.3199 51.49L57.8399 51.02L56.2199 50.68L54.4499 50.48L52.5399 50.42L50.4799 50.5L48.9299 50.65L47.4099 50.86L45.9199 51.14L44.4599 51.49L43.0399 51.9L41.6499 52.37L40.2999 52.9L38.9899 53.49L37.7199 54.14L36.4899 54.85L35.2999 55.61L34.1499 56.42L33.0399 57.29L31.9699 58.21L30.9499 59.17L29.9699 60.18L29.0399 61.24L28.1599 62.34L27.3299 63.48L26.5499 64.67L25.8199 65.9L25.1399 67.16L24.5099 68.46L23.9299 69.8L23.4099 71.17L22.9399 72.57L22.5299 74L22.1799 75.46L21.8899 76.95L21.6499 78.46L21.4699 80L21.3599 81.56L21.3299 83.72L21.4699 85.78L21.7699 87.73L22.2399 89.56L22.8899 91.27L23.7099 92.85L24.6999 94.29L25.8699 95.59L26.6199 96.23H26.6099L43.9699 112.27L44.1499 112.48L44.6899 112.94L44.8899 113.12H44.8999L45.4899 113.63L47.0099 114.62L47.8799 115.05L13.1799 117.51L10.5699 130.22L22.5199 141.25L28.8599 147.1L329.01 125.79L339.67 125.03L342.28 112.32L324.46 95.87L323.99 95.44L314.87 96.09L315.08 95.98L316.35 95.26L317.58 94.48L317.9 94.26L318.77 93.65L319.92 92.77L321.02 91.84L322.08 90.86L322.41 90.52L323.09 89.83L324.05 88.75L324.96 87.63L325.83 86.47L326.46 85.53L326.64 85.26L326.87 84.88L327.4 84.02L328.06 82.82L328.11 82.73L328.76 81.41L328.96 80.96L329.36 80.06L329.53 79.64L329.91 78.68L330.23 77.73L330.39 77.26L330.56 76.69L330.82 75.81L331.11 74.63L331.18 74.33L331.49 72.83L331.73 71.3L331.88 69.98L331.91 69.75L332.03 68.18V67.51L332.06 66.13L332 65.19L331.94 64.2L331.67 62.38L331.3 60.89L331.25 60.68L332.78 60.14L334.24 59.56L335.63 58.95L336.95 58.31L338.2 57.64L339.39 56.95L340.51 56.24L341.57 55.52L342.57 54.78L343.51 54.04L344.39 53.29L345.22 52.54L345.99 51.79L346.71 51.05L347.38 50.32L348 49.6L348.57 48.89L349.09 48.2L349.56 47.54L349.99 46.91L350.38 46.31L350.73 45.74L351.04 45.21L351.31 44.72L351.54 44.27L351.73 43.87L351.89 43.52L352.02 43.23L352.12 43L352.19 42.83L352.24 42.69L333.96 25.81L333.89 25.73ZM91.4999 67.48L91.9699 67.91L91.7499 68.02L91.3699 68.22L91.4299 67.88L91.4999 67.48ZM283.09 71.95L282.67 73.39L282.36 74.65L282.67 73.39L283.09 71.95L283.55 70.61L283.09 71.95ZM281.68 78.55L281.58 79.43L281.46 81.01L281.43 81.99L281.46 81.01L281.58 79.43L281.68 78.55ZM195.17 85.16V84.72V85.16ZM195.3 82.61L195.45 81.37L195.54 80.85L195.45 81.37L195.3 82.61ZM180.48 77.47L180.22 78.15L179.99 78.85L180.22 78.15L180.48 77.47ZM179.63 80L179.35 80.99L179 82.45L178.88 83.04L179 82.45L179.35 80.99L179.63 80ZM178.17 88.56L178.28 87L178.36 86.28L178.28 87L178.17 88.56V90.22H178.16V88.56H178.17ZM56.9799 90.66L57.0699 90.13L56.9799 90.66ZM56.6099 95.01L56.6399 93.7L56.6699 93.25L56.6399 93.7L56.6099 95.01L56.6399 95.62L56.6099 95.01ZM92.6199 91.92L92.6999 91.5L92.6199 91.92L92.4699 92.06L92.6199 91.92ZM92.91 90.41V90.35V90.41L92.8799 90.55L92.91 90.41ZM93.1999 88.91L93.3399 88.17L93.4799 87.45L93.6099 86.74L93.7399 86.06L93.7599 85.94L93.7399 86.06L93.6099 86.74L93.4799 87.45L93.3399 88.17L93.1999 88.91V88.97V88.91ZM94.1499 83.64L94.2199 83.19L94.1499 83.64L94.0599 84.19L94.1499 83.64ZM109.3 87.28L109.16 88.08L109.02 88.85L108.99 89L109.02 88.85L109.16 88.08L109.3 87.28L109.36 86.97L109.3 87.28ZM111.12 77.06L111.2 76.61L111.26 76.26L111.2 76.61L111.12 77.06ZM111.76 72.71V72.75L111.74 73.01L111.7 73.34L111.74 73.01L111.76 72.75V72.71ZM111.59 74.21L111.55 74.48L111.59 74.21L111.62 73.98L111.59 74.21ZM110.82 78.86L110.68 79.67L110.65 79.86L110.68 79.67L110.82 78.86V78.8V78.86ZM110.34 81.57L110.23 82.19L110.08 83.05L109.92 83.91L109.77 84.77L109.62 85.62L109.57 85.88L109.62 85.62L109.77 84.77L109.92 83.91L110.08 83.05L110.23 82.19L110.34 81.57ZM90.5499 93.71L89.8299 94.28L88.9399 94.94L89.8299 94.28L90.5499 93.71ZM74.2199 112.87L75.1099 112.42L75.4699 112.24L76.6799 111.58L77.8599 110.9L78.2299 110.67L78.9999 110.2L79.5499 109.85L80.0999 109.5L81.1499 108.78L82.16 108.06L82.9299 107.48L83.1199 107.33L84.0399 106.61L84.9199 105.89L85.6499 105.27L85.7499 105.19L86.5299 104.5L87.2699 103.83L87.9599 103.18L88.2099 102.93L88.5899 102.56L88.8399 102.31L89.1699 101.98L89.6999 101.43L89.7499 101.38L90.1799 100.92L90.6099 100.45L90.9799 100.03L91.2899 99.67L91.4999 99.42L91.5499 99.36L91.5699 100.99L91.7199 102.54L91.9199 103.61L91.9999 104.02L92.4199 105.41L92.7399 106.17L92.9699 106.71L93.2699 107.24L93.66 107.92L94.2099 108.66L94.4899 109.03L95.4599 110.03L95.9499 110.41L96.5799 110.91L96.9799 111.15L97.5299 111.48L73.5399 113.18L73.6199 113.14L74.2099 112.87H74.2199ZM121.76 109.73L122.07 109.57L122.36 109.4L123.34 108.83L124.56 108.03L125.73 107.18L126.86 106.27L127.94 105.31L128.56 104.7L128.97 104.3L129.47 103.76L129.96 103.24L130.91 102.13L131.81 100.97L132.66 99.76L133.47 98.51L133.72 98.08L134.23 97.22L134.73 96.28L134.95 95.88L135.17 95.42L135.62 94.5L135.66 94.4L150.14 107.77L121.69 109.79L121.75 109.76L121.76 109.73ZM170.67 106.09L171.35 105.67L172.03 105.25L173.31 104.39L173.8 104.03L174.5 103.51L175.04 103.09L175.62 102.63L176.65 101.76L176.87 101.56L177.6 100.92L178.03 100.52L178.46 100.12L178.93 99.67L179.24 99.38L179.94 98.71L180.5 99.76L180.63 99.95L181.14 100.74L181.86 101.66L182.66 102.52L183.53 103.31L184.48 104.03L185.37 104.59L185.51 104.68L186.39 105.14L170.23 106.29L170.65 106.06L170.67 106.09ZM212.94 102.97L214.09 102.39L215.21 101.79L216.29 101.17L216.81 100.85L217.33 100.53L218.35 99.88L219.33 99.22L219.89 98.83L220.28 98.56L220.89 98.11L225.53 102.4L212.14 103.35L212.94 102.97ZM245.46 90.37L254.49 98.71L254.88 99.03L255.14 99.27L256.23 100.05L256.39 100.16L256.48 100.21L243.44 101.14L245.46 90.38V90.37ZM276.47 98.72L277.04 98.37L277.61 98.02L278.7 97.29L279.53 96.7L279.75 96.55L280.76 95.8L281.72 95.04L281.98 94.82L282.62 94.29L282.99 93.97L283.47 93.56L284.25 92.86L284.9 93.76L285.61 94.6L286 94.99L286.39 95.38L287.23 96.1L287.86 96.56L288.13 96.75L288.61 97.05L289.09 97.35L289.24 97.43L290.01 97.83L276.36 98.8L276.48 98.73L276.47 98.72ZM277.62 82.65L270.33 75.92L277.62 82.65ZM111.59 69.71L111.47 69.23L111.59 69.71L111.65 70.12L111.59 69.71ZM110.75 67.45L110.41 66.98L110.75 67.45L111.03 67.98L110.75 67.45ZM109.84 66.37L110.15 66.69L109.84 66.37ZM89.7599 79.61L89.9599 79.57L89.7599 79.61ZM42.3699 86.24L42.1999 86.64L41.7499 87.82L42.1999 86.64L42.3699 86.24ZM41.2099 89.41L41.5199 88.48L41.2099 89.41L40.7999 90.84L40.6499 91.44L40.7999 90.84L41.2099 89.41ZM327.94 34.56L327.07 33.76L327.94 34.56ZM310.02 50.24L311.63 50.09L313.71 50.02L311.63 50.09L310.02 50.24L309.55 50.3L310.02 50.24ZM303.91 51.48L305.38 51.08L305.92 50.96L305.38 51.08L303.91 51.48L302.47 51.95L302.02 52.12L302.47 51.95L303.91 51.48ZM299.71 53.05L300.2 52.84L299.71 53.05L298.39 53.69L297.74 54.04L298.39 53.69L299.71 53.05ZM148.66 68.7L147.61 69.49L146.96 69.96L147.61 69.49L148.66 68.7Z" fill="#D54127"/>
<path d="M214.03 12.73L214.04 12.62V12.53V12.45V12.39V12.34V12.3V12.27L213.99 12.28H213.95H213.9L213.84 12.29H213.77L213.69 12.3L213.59 12.31H213.49L213.38 12.32L213.26 12.33L213.13 12.34L212.99 12.35L212.85 12.36L212.69 12.37L212.53 12.38L212.36 12.39L212.18 12.41L211.99 12.42L211.8 12.43L211.59 12.45L211.39 12.46L211.17 12.48L210.95 12.49L210.72 12.51L210.49 12.53L210.25 12.54L210.01 12.56L209.76 12.58L209.5 12.6L209.24 12.61L208.98 12.63L208.71 12.65L208.43 12.67L208.15 12.69L207.87 12.71L207.59 12.73L207.3 12.75L207.01 12.77L206.71 12.79L206.42 12.82L206.12 12.84L205.81 12.86L205.51 12.88L205.2 12.9L204.9 12.92L204.59 12.94L204.28 12.97L203.97 12.99L203.66 13.01L203.34 13.03L203.03 13.06L202.72 13.08L202.41 13.1L202.09 13.12L201.78 13.14L201.47 13.17L201.16 13.19L200.85 13.21L200.55 13.23L200.24 13.25L199.94 13.28L199.64 13.3L199.48 13.69L199.33 14.08L199.17 14.45L199.02 14.82L198.87 15.18L198.71 15.53L198.56 15.88L198.41 16.21L198.26 16.54L198.1 16.86L197.95 17.17L197.8 17.48L197.65 17.78L197.5 18.07L197.34 18.36L197.19 18.63L197.04 18.9L196.89 19.17L196.74 19.43L196.59 19.68L196.44 19.92L196.29 20.16L196.14 20.4L196 20.62L195.85 20.85L195.7 21.06L195.55 21.27L195.4 21.48L195.26 21.68L195.11 21.87L194.96 22.06L194.82 22.25L194.67 22.43L194.53 22.6L194.38 22.77L194.24 22.94L194.1 23.1L193.95 23.26L193.81 23.42L193.67 23.57L193.53 23.71L193.38 23.86L193.24 24L193.1 24.13L192.96 24.27L192.82 24.4L192.69 24.52L192.55 24.65L192.41 24.77L192.27 24.89L192.14 25L192 25.12L191.87 25.23L191.73 25.34L191.6 25.45L191.46 25.55L191.33 25.66L191.2 25.76L191.07 25.86L190.94 25.96L190.8 26.06L190.68 26.15L190.55 26.25L190.42 26.34L190.39 26.32L190.35 26.29L190.32 26.27L190.28 26.24L190.24 26.21L190.2 26.17L190.15 26.13L190.1 26.08L190.04 26.03L189.98 25.97L189.92 25.91L189.85 25.84L189.78 25.77L189.7 25.69L189.62 25.61L189.54 25.52L189.46 25.43L189.37 25.32L189.29 25.22L189.19 25.11L189.1 24.99L189.01 24.86L188.91 24.73L188.81 24.59L188.72 24.45L188.62 24.3L188.51 24.15L188.41 23.98L188.31 23.81L188.21 23.64L188.1 23.45L188 23.26L187.9 23.06L187.79 22.86L187.69 22.65L187.59 22.43L187.49 22.2L187.38 21.97L187.28 21.72L187.19 21.47L187.09 21.22L186.99 20.95L186.9 20.68L186.8 20.4L186.71 20.11L186.63 19.81L186.54 19.5L186.46 19.19L186.38 18.86L186.3 18.53L186.22 18.19L186.15 17.84L186.08 17.48L186.02 17.12L185.96 16.74L185.9 16.35L185.85 15.96L185.8 15.56L185.76 15.14L185.72 14.72L185.68 14.29L185.45 14.3L185.22 14.32L184.98 14.34L184.74 14.35L184.49 14.37L184.25 14.39L184 14.41L183.75 14.42L183.49 14.44L183.24 14.46L182.98 14.48L182.72 14.5L182.46 14.52L182.2 14.53L181.94 14.55L181.68 14.57L181.42 14.59L181.16 14.61L180.9 14.63L180.64 14.65L180.38 14.66L180.12 14.68L179.86 14.7L179.6 14.72L179.35 14.74L179.1 14.75L178.85 14.77L178.6 14.79L178.36 14.81L178.11 14.82L177.87 14.84L177.64 14.86L177.41 14.88L177.18 14.89L176.95 14.91L176.73 14.92L176.52 14.94L176.31 14.95L176.1 14.97L175.9 14.98L175.7 15L175.51 15.01L175.33 15.02L175.15 15.04L174.98 15.05L174.82 15.06L174.66 15.07L174.51 15.08L174.37 15.09L174.23 15.1L174.1 15.11L173.98 15.12L173.87 15.13H173.77L173.67 15.14L173.59 15.15H173.51L173.44 15.16H173.39H173.34L173.3 15.17H173.28L173.25 15.19V15.22L173.24 15.25L173.23 15.29V15.35L173.22 15.41L173.21 15.48L173.2 15.57L173.19 15.66L173.18 15.75L173.17 15.86L173.16 15.98L173.15 16.1L173.14 16.23L173.13 16.37L173.12 16.52V16.69L173.11 16.86V17.04V17.23V17.42V17.63L173.12 17.84L173.13 18.05L173.14 18.28L173.16 18.51L173.18 18.74L173.2 18.99L173.23 19.23L173.26 19.49L173.29 19.75L173.33 20.01L173.38 20.28L173.43 20.56L173.48 20.83L173.54 21.12L173.61 21.41L173.68 21.7L173.76 21.99L173.84 22.29L173.94 22.6L174.03 22.9L174.14 23.21L174.25 23.52L174.37 23.84L174.5 24.15L174.63 24.47L174.78 24.8L174.93 25.12L175.09 25.44L175.26 25.77L175.43 26.1L175.62 26.42L175.82 26.75L176.02 27.08L176.24 27.41L176.47 27.74L176.7 28.07L176.95 28.4L177.21 28.73L177.47 29.06L177.75 29.39L178.04 29.72L178.35 30.04L178.66 30.37L178.99 30.69L179.33 31.01L179.68 31.33L180.04 31.64L180.42 31.96L180.81 32.27L181.21 32.58L181.63 32.88L182.06 33.19L182.5 33.48L182.96 33.78L183.43 34.07L183.92 34.36L184.42 34.64L195.21 33.87L196 33.51L196.78 33.14L197.52 32.76L198.25 32.38L198.96 32L199.64 31.61L200.3 31.22L200.95 30.83L201.57 30.44L202.17 30.04L202.75 29.64L203.32 29.24L203.86 28.84L204.39 28.43L204.89 28.03L205.38 27.62L205.85 27.22L206.31 26.81L206.74 26.4L207.16 26L207.57 25.59L207.96 25.19L208.33 24.79L208.68 24.39L209.02 23.99L209.35 23.59L209.66 23.2L209.96 22.8L210.25 22.42L210.52 22.03L210.77 21.65L211.02 21.27L211.25 20.89L211.47 20.52L211.68 20.16L211.87 19.79L212.06 19.44L212.23 19.09L212.4 18.74L212.55 18.4L212.7 18.07L212.83 17.74L212.96 17.42L213.07 17.11L213.18 16.8L213.28 16.5L213.37 16.21L213.46 15.93L213.53 15.66L213.6 15.39L213.66 15.13L213.72 14.89L213.77 14.65L213.82 14.42L213.86 14.2L213.89 13.99L213.92 13.79L213.95 13.61L213.97 13.43L213.99 13.27L214 13.11L214.02 12.97L214.03 12.84V12.73Z" fill="#8DD5F6"/>
<path d="M321.31 108.11L323.91 95.4L13.11 117.47L10.5 130.18L321.31 108.11Z" fill="#8DD5F6"/>
<path d="M158.37 24.16L158.38 23.93L158.39 23.71L158.38 23.48V23.26L158.37 23.04L158.35 22.82L158.33 22.6L158.3 22.39L158.27 22.18L158.23 21.97L158.19 21.76L158.14 21.56L158.08 21.36L158.03 21.16L157.97 20.96L157.9 20.77L157.83 20.58L157.75 20.4L157.67 20.21L157.58 20.04L157.49 19.86L157.4 19.69L157.3 19.52L157.2 19.35L157.09 19.19L156.98 19.03L156.86 18.87L156.74 18.72L156.62 18.57L156.49 18.43L156.36 18.28L156.22 18.15L156.08 18.01L155.93 17.88L155.79 17.76L155.63 17.64L155.48 17.52L155.32 17.41L155.16 17.3L154.99 17.19L154.82 17.09L154.65 17L154.47 16.9L154.29 16.82L154.11 16.73L153.92 16.66L153.73 16.58L153.54 16.51L153.34 16.45L153.14 16.39L152.94 16.34L152.73 16.29L152.52 16.24L152.31 16.2L152.1 16.17L151.88 16.14L151.66 16.12L151.44 16.1L151.22 16.09L150.99 16.08L150.76 16.07L150.53 16.08L150.29 16.09L150.05 16.1L149.79 16.12L149.53 16.15L149.27 16.19L149.02 16.23L148.76 16.27L148.5 16.33L148.24 16.39L147.99 16.45L147.74 16.52L147.48 16.6L147.23 16.68L146.98 16.77L146.73 16.86L146.49 16.96L146.24 17.07L146 17.17L145.76 17.29L145.52 17.41L145.28 17.53L145.05 17.66L144.82 17.8L144.59 17.94L144.36 18.08L144.13 18.23L143.91 18.38L143.69 18.54L143.47 18.7L143.26 18.87L143.04 19.04L142.84 19.22L142.63 19.4L142.43 19.58L142.23 19.76L142.03 19.95L141.84 20.15L141.65 20.35L141.47 20.55L141.29 20.75L141.11 20.96L140.93 21.17L140.76 21.39L140.6 21.6L140.44 21.82L140.28 22.05L140.13 22.27L139.98 22.5L139.84 22.74L139.7 22.97L139.56 23.21L139.43 23.45L139.31 23.69L139.19 23.93L139.07 24.18L138.96 24.43L138.86 24.68L138.76 24.93L138.67 25.18L138.58 25.44L138.49 25.7L138.42 25.96L138.35 26.22L138.28 26.48L138.22 26.75L138.17 27.01L138.11 27.36L138.06 27.7L138.02 28.04L138 28.38L137.99 28.6V28.83V29.05V29.27L138.01 29.49L138.03 29.71L138.05 29.92L138.08 30.13L138.11 30.34L138.15 30.55L138.19 30.75L138.24 30.95L138.3 31.15L138.36 31.35L138.42 31.54L138.49 31.73L138.56 31.92L138.64 32.1L138.72 32.28L138.81 32.46L138.9 32.64L139 32.81L139.1 32.98L139.2 33.14L139.31 33.3L139.42 33.46L139.54 33.62L139.66 33.77L139.79 33.92L139.92 34.06L140.05 34.2L140.19 34.34L140.33 34.47L140.47 34.6L140.62 34.72L140.78 34.85L140.93 34.96L141.09 35.08L141.26 35.18L141.42 35.29L141.59 35.39L141.77 35.49L141.94 35.58L142.12 35.66L142.31 35.75L142.49 35.83L142.68 35.9L142.87 35.97L143.07 36.03L143.27 36.09L143.47 36.15L143.67 36.19L143.88 36.24L144.09 36.28L144.3 36.31L144.52 36.34L144.73 36.37L144.95 36.39L145.17 36.4L145.4 36.41H145.62H145.85L146.08 36.4L146.32 36.39L146.57 36.36L146.83 36.34L147.08 36.3L147.34 36.26L147.59 36.21L147.85 36.16L148.1 36.1L148.35 36.04L148.6 35.97L148.85 35.89L149.1 35.81L149.35 35.72L149.59 35.63L149.84 35.53L150.08 35.43L150.32 35.32L150.56 35.2L150.8 35.08L151.04 34.96L151.27 34.83L151.51 34.69L151.74 34.56L151.97 34.41L152.19 34.26L152.41 34.11L152.64 33.95L152.85 33.79L153.07 33.63L153.28 33.46L153.49 33.28L153.7 33.11L153.9 32.92L154.1 32.74L154.3 32.55L154.49 32.36L154.68 32.16L154.87 31.96L155.05 31.76L155.23 31.55L155.41 31.34L155.58 31.13L155.74 30.92L155.91 30.7L156.07 30.48L156.22 30.25L156.37 30.03L156.52 29.8L156.66 29.56L156.79 29.33L156.92 29.09L157.05 28.86L157.17 28.61L157.29 28.37L157.4 28.13L157.5 27.88L157.6 27.63L157.7 27.38L157.79 27.13L157.87 26.88L157.95 26.62L158.02 26.36L158.09 26.11L158.14 25.85L158.2 25.59L158.26 25.23L158.31 24.87L158.35 24.51L158.37 24.16Z" fill="#8DD5F6"/>
<path d="M333.53 25.75L333.11 25.78L332.54 25.82L331.84 25.87L331.02 25.93L330.1 26L329.09 26.07L328 26.15L326.86 26.23L325.66 26.31L324.44 26.4L323.19 26.49L321.94 26.58L320.7 26.67L319.48 26.75L318.88 28.03L318.26 29.22L317.63 30.32L317 31.33L316.36 32.26L315.72 33.11L315.08 33.88L314.44 34.59L313.81 35.22L313.18 35.79L312.56 36.3L311.96 36.75L311.36 37.15L310.79 37.49L310.23 37.79L309.69 38.04L308.3 36.77L306.71 35.67L304.93 34.77L302.97 34.06L300.83 33.54L298.51 33.23L296.02 33.11L293.35 33.21L291.74 33.35L290.16 33.57L288.62 33.85L287.1 34.19L285.63 34.6L284.19 35.06L282.79 35.59L281.44 36.17L280.12 36.81L278.84 37.5L277.6 38.25L276.41 39.05L275.26 39.9L274.16 40.81L273.1 41.76L272.09 42.76L271.13 43.8L270.21 44.89L269.35 46.03L268.54 47.2L267.78 48.42L267.08 49.68L266.43 50.97L265.83 52.3L265.29 53.67L264.81 55.07L264.39 56.51L264.02 57.98L263.72 59.47L263.48 61L263.3 62.55L263.18 64.13L263.14 65.58L263.17 66.98L263.28 68.32L263.47 69.62L263.19 69.84L262.85 70.09L262.45 70.38L262 70.68L261.48 71L260.91 71.32L260.28 71.65L259.59 71.98L258.84 72.3L258.03 72.61L257.17 72.9L256.25 73.16L255.27 73.4L254.24 73.59L253.14 73.75L251.99 73.86L250.58 73.9L249.31 73.8L248.17 73.58L247.16 73.25L246.26 72.83L245.46 72.31L244.77 71.72L244.17 71.07L243.65 70.36L243.21 69.6L242.84 68.82L242.52 68.01L242.26 67.2L242.04 66.39L241.85 65.59L241.7 64.81L243.55 64.05L245.32 63.24L247.02 62.37L248.63 61.43L250.14 60.44L251.56 59.39L252.88 58.28L254.09 57.11L255.19 55.87L256.17 54.58L257.03 53.22L257.76 51.8L258.35 50.31L258.81 48.76L259.13 47.15L259.3 45.47L259.31 44.41L259.24 43.4L259.08 42.44L258.83 41.53L258.49 40.68L258.05 39.9L257.53 39.17L256.91 38.52L256.2 37.94L255.39 37.44L254.48 37.02L253.48 36.68L252.37 36.44L251.17 36.29L249.86 36.24L248.45 36.29L247.28 36.4L246.13 36.58L245.01 36.82L243.91 37.12L242.83 37.47L241.78 37.87L240.76 38.32L239.76 38.81L238.78 39.35L237.84 39.93L236.92 40.54L236.02 41.19L235.16 41.87L234.32 42.58L233.51 43.31L232.72 44.07L239.02 10.5L222.69 11.66L212.59 65.23L211.75 65.97L210.77 66.78L209.66 67.64L208.43 68.55L207.08 69.49L205.62 70.43L204.06 71.38L202.4 72.3L200.65 73.19L198.82 74.03L196.91 74.8L194.94 75.5L192.89 76.11L190.79 76.6L188.64 76.97L186.44 77.2L185.2 77.25L184.05 77.2L182.99 77.06L182.01 76.83L181.12 76.5L180.32 76.09L179.6 75.58L178.97 74.98L178.42 74.29L177.96 73.52L177.58 72.65L177.28 71.69L177.07 70.65L176.93 69.51L176.88 68.29L176.91 66.98L177.01 65.74L177.16 64.5L177.37 63.28L177.64 62.08L177.97 60.9L178.36 59.77L178.81 58.7L179.32 57.68L179.9 56.74L180.54 55.88L181.24 55.11L182 54.44L182.84 53.89L183.74 53.46L184.7 53.17L185.73 53.02L186.48 53.01L187.14 53.1L187.73 53.28L188.25 53.53L188.69 53.86L189.07 54.25L189.39 54.69L189.66 55.19L189.87 55.72L190.04 56.28L190.16 56.87L190.25 57.47L190.3 58.09L190.32 58.7V59.3L190.3 59.89L204.91 55.36L204.95 53.49L204.85 51.73L204.62 50.1L204.26 48.6L203.76 47.21L203.12 45.95L202.34 44.82L201.43 43.82L200.38 42.95L199.18 42.21L197.85 41.6L196.37 41.13L194.75 40.79L192.98 40.59L191.07 40.53L189.01 40.61L187.46 40.76L185.94 40.97L184.45 41.26L182.99 41.6L181.57 42.01L180.18 42.48L178.83 43.02L177.52 43.61L176.25 44.26L175.02 44.97L173.82 45.73L172.67 46.54L171.56 47.41L170.5 48.32L169.48 49.29L168.5 50.3L167.57 51.36L166.69 52.46L165.86 53.6L165.07 54.79L164.34 56.01L163.66 57.28L163.03 58.58L162.45 59.91L161.93 61.28L161.47 62.68L161.05 64.11L160.7 65.58L160.41 67.06L160.17 68.58L160 70.12L159.88 71.68L159.86 74.13L160.06 76.45L159.95 76.29L159.38 76.72L158.77 77.16L158.13 77.61L157.47 78.07L156.8 78.53L156.1 78.97L155.4 79.41L154.7 79.82L153.99 80.21L153.3 80.58L152.61 80.9L151.94 81.19L151.29 81.43L150.66 81.62L150.07 81.76L149.51 81.83L148.92 81.82L148.38 81.72L147.92 81.51L147.53 81.19L147.23 80.74L147.01 80.16L146.9 79.44V78.57L146.99 77.61L147.2 76.5L153.31 44.42L145.93 44.94L143.84 45.17L141.94 45.54L140.19 46.03L138.59 46.63L137.09 47.32L135.69 48.09L134.37 48.92L133.09 49.8L131.84 50.72L130.59 51.66L129.33 52.61L128.03 53.54L126.67 54.45L125.22 55.33L123.67 56.15L121.99 56.9L122.03 55.51L122.05 54.14L122.04 52.79L122 51.47L121.93 50.19L121.82 48.96L121.67 47.79L121.49 46.68L104.93 47.85L105.1 49.08L105.26 50.38L105.4 51.77L105.51 53.24L105.59 54.77L105.63 56.38V58.04L105.56 59.77L105.51 60.67L105.44 61.58L105.35 62.52L105.25 63.47L105.13 64.43L104.99 65.39L104.84 66.37L104.67 67.34L104.48 68.31L104.27 69.28L104.04 70.24L103.8 71.19L103.53 72.12L103.24 73.04L102.94 73.94L102.61 74.82L102.26 75.66L101.89 76.49L101.49 77.27L101.08 78.03L100.64 78.74L100.17 79.41L99.69 80.04L99.17 80.62L98.64 81.15L98.08 81.63L97.49 82.05L96.88 82.41L96.24 82.71L95.58 82.94L94.88 83.1L94.16 83.19L93.08 83.16L92.15 82.93L91.38 82.5L90.76 81.88L90.3 81.08L89.99 80.1L89.84 78.97V77.68L89.9 76.86L89.94 76.55L89.99 76.18L90.06 75.73L90.14 75.23L90.23 74.67L90.33 74.06L90.45 73.4L90.57 72.7L90.7 71.96L90.84 71.19L90.98 70.39L91.12 69.57L91.27 68.73L91.43 67.88L91.58 67.02L91.74 66.16L91.89 65.3L92.04 64.45L92.2 63.61L92.34 62.78L92.48 61.97L92.62 61.19L92.75 60.44L92.87 59.73L92.98 59.06L93.08 58.43L93.18 57.85L93.25 57.32L93.32 56.86L93.37 56.46L93.41 56.13L93.43 55.87L93.45 54.76L93.39 53.74L93.26 52.82L93.05 51.98L92.77 51.23L92.42 50.56L92 49.98L91.5 49.47L90.94 49.04L90.31 48.68L89.62 48.4L88.86 48.19L88.04 48.04L87.16 47.96L86.22 47.94L85.23 47.98L84.38 48.06L83.53 48.17L82.66 48.3L81.78 48.46L80.9 48.65L80.03 48.85L79.18 49.07L78.34 49.31L77.52 49.55L76.73 49.81L75.98 50.08L75.28 50.34L74.61 50.61L74.01 50.88L73.46 51.14L72.98 51.39L71.44 62.72L71.97 62.61L72.58 62.49L73.22 62.4L73.87 62.34L74.45 62.33L74.93 62.41L75.32 62.58L75.63 62.85L75.84 63.22L75.98 63.71L76.04 64.31L76.03 65.04L76.01 65.39L75.96 65.79L75.91 66.25L75.83 66.75L75.75 67.3L75.65 67.89L75.54 68.52L75.42 69.17L75.29 69.86L75.16 70.56L75.03 71.29L74.88 72.03L74.74 72.78L74.6 73.53L74.45 74.29L74.31 75.04L73.51 75.75L72.57 76.54L71.49 77.39L70.27 78.29L68.93 79.22L67.47 80.17L65.9 81.12L64.22 82.05L62.45 82.95L60.58 83.8L58.63 84.59L56.6 85.3L54.51 85.92L52.34 86.42L50.13 86.8L47.86 87.04L46.62 87.09L45.47 87.04L44.41 86.9L43.43 86.67L42.54 86.34L41.74 85.93L41.02 85.42L40.39 84.82L39.84 84.13L39.37 83.36L38.99 82.49L38.7 81.53L38.48 80.49L38.35 79.35L38.3 78.13L38.33 76.82L38.43 75.58L38.58 74.34L38.79 73.12L39.06 71.92L39.39 70.74L39.78 69.61L40.23 68.54L40.74 67.52L41.31 66.58L41.95 65.72L42.65 64.95L43.42 64.28L44.25 63.73L45.15 63.3L46.12 63.01L47.15 62.86L47.9 62.85L48.56 62.94L49.15 63.12L49.66 63.37L50.11 63.7L50.49 64.09L50.81 64.53L51.07 65.03L51.29 65.56L51.45 66.12L51.58 66.71L51.66 67.32L51.72 67.93L51.74 68.54V69.14L51.71 69.73L66.33 65.2L66.36 63.33L66.27 61.58L66.04 59.94L65.67 58.44L65.17 57.05L64.54 55.79L63.76 54.66L62.85 53.66L61.79 52.79L60.6 52.05L59.27 51.44L57.79 50.97L56.17 50.63L54.4 50.43L52.49 50.37L50.43 50.45L48.87 50.6L47.35 50.82L45.86 51.1L44.41 51.44L42.99 51.85L41.6 52.33L40.25 52.86L38.94 53.45L37.67 54.1L36.43 54.81L35.24 55.57L34.09 56.38L32.98 57.25L31.91 58.16L30.89 59.13L29.92 60.14L28.99 61.2L28.11 62.3L27.27 63.44L26.49 64.63L25.76 65.85L25.08 67.12L24.45 68.42L23.87 69.75L23.35 71.12L22.88 72.52L22.47 73.96L22.12 75.42L21.82 76.9L21.59 78.42L21.41 79.96L21.3 81.52L21.26 83.68L21.4 85.74L21.7 87.69L22.18 89.52L22.82 91.23L23.64 92.81L24.63 94.26L25.8 95.55L27.14 96.7L28.66 97.7L30.35 98.53L32.22 99.18L34.27 99.67L36.5 99.96L38.92 100.07L41.51 99.98L43.08 99.83L44.63 99.62L46.15 99.34L47.64 99.01L49.1 98.62L50.52 98.17L51.91 97.69L53.27 97.16L54.6 96.59L55.88 95.99L57.14 95.36L58.35 94.7L59.53 94.02L60.66 93.32L61.76 92.61L62.81 91.89L63.82 91.17L64.79 90.44L65.71 89.72L66.59 89.01L67.42 88.3L68.21 87.61L68.94 86.95L69.63 86.3L70.26 85.68L70.85 85.1L71.38 84.55L71.86 84.04L72.29 83.57L72.66 83.16L72.97 82.79L73.23 82.48L73.25 84.11L73.4 85.66L73.68 87.14L74.09 88.53L74.64 89.83L75.34 91.04L76.17 92.14L77.14 93.14L78.26 94.02L79.53 94.79L80.94 95.43L82.51 95.93L84.23 96.3L86.1 96.52L88.12 96.6L90.31 96.52L91.99 96.36L93.62 96.13L95.2 95.84L96.74 95.47L98.23 95.04L99.67 94.55L101.07 93.99L102.43 93.37L103.74 92.68L105 91.94L106.22 91.14L107.39 90.29L108.52 89.38L109.6 88.42L110.63 87.4L111.62 86.34L112.57 85.22L113.47 84.06L114.32 82.85L115.13 81.6L115.9 80.31L116.62 78.97L117.29 77.59L117.92 76.18L118.51 74.73L119.05 73.24L119.54 71.71L119.99 70.16L120.4 68.57L120.76 66.95L121.08 65.31L121.35 63.63L123.1 63.25L124.86 62.79L126.6 62.25L128.31 61.63L129.96 60.94L131.54 60.17L133.03 59.31L134.41 58.37L130.46 79.7L130.12 81.8L129.94 83.68L129.92 85.1L130 86.39L130.19 87.54L130.48 88.56L130.86 89.46L131.34 90.24L131.91 90.91L132.57 91.48L133.3 91.95L134.12 92.33L135.01 92.62L135.97 92.83L137 92.96L138.09 93.02H139.24L140.45 92.96L142.4 92.74L144.26 92.4L146.05 91.94L147.74 91.37L149.36 90.72L150.89 89.99L152.34 89.2L153.7 88.37L154.99 87.51L156.18 86.63L157.3 85.75L158.33 84.88L159.28 84.05L160.14 83.25L160.93 82.51L161.62 81.84L162.18 82.89L162.82 83.88L163.54 84.8L164.34 85.66L165.21 86.45L166.16 87.17L167.19 87.83L168.3 88.4L169.5 88.91L170.77 89.33L172.12 89.68L173.55 89.94L175.06 90.12L176.66 90.22H178.33L180.09 90.14L181.54 90.01L182.97 89.82L184.37 89.57L185.74 89.28L187.09 88.94L188.42 88.55L189.71 88.13L190.98 87.67L192.22 87.17L193.43 86.64L194.61 86.08L195.75 85.5L196.87 84.9L197.95 84.27L199 83.64L200.02 82.99L201 82.33L201.94 81.66L202.85 81L203.73 80.33L204.56 79.67L205.35 79.02L206.11 78.37L206.83 77.74L207.5 77.13L208.14 76.53L208.73 75.96L209.28 75.42L209.78 74.9L210.24 74.42L210.65 73.97L211.02 73.56L208.54 86.75L224.86 85.59L228.08 68.43L229.88 68.09L230.34 70.2L230.87 72.18L231.47 74.04L232.14 75.77L232.89 77.37L233.73 78.83L234.66 80.16L235.69 81.34L236.83 82.37L238.07 83.26L239.43 84L240.91 84.58L242.52 85.01L244.26 85.27L246.14 85.37L248.17 85.31L249.47 85.16L250.76 84.92L252.04 84.58L253.3 84.16L254.55 83.66L255.77 83.1L256.97 82.49L258.14 81.83L259.27 81.13L260.36 80.41L261.42 79.66L262.42 78.91L263.38 78.15L264.28 77.4L265.13 76.67L265.91 75.97L266.56 76.86L267.27 77.7L268.04 78.48L268.88 79.2L269.78 79.86L270.75 80.45L271.77 80.98L272.86 81.45L274 81.86L275.2 82.19L276.46 82.47L277.78 82.67L279.15 82.81L280.57 82.87H282.06L283.59 82.79L285.18 82.64L286.75 82.42L288.28 82.13L289.78 81.78L291.24 81.36L292.67 80.87L294.06 80.33L295.41 79.72L296.72 79.06L298 78.33L299.23 77.56L300.42 76.73L301.57 75.84L302.67 74.91L303.73 73.92L304.74 72.89L305.71 71.81L306.62 70.69L307.49 69.53L308.3 68.32L309.06 67.08L309.77 65.79L310.43 64.47L311.03 63.12L311.57 61.73L312.05 60.31L312.48 58.87L312.85 57.39L313.15 55.89L313.4 54.36L313.58 52.81L313.69 51.23L313.73 49.19L313.6 47.25L313.33 45.44L312.91 43.74L314.44 43.2L315.9 42.62L317.29 42.01L318.61 41.37L319.86 40.7L321.05 40.01L322.17 39.3L323.24 38.58L324.24 37.84L325.18 37.1L326.06 36.35L326.89 35.6L327.66 34.85L328.38 34.1L329.05 33.37L329.66 32.65L330.23 31.94L330.75 31.26L331.23 30.6L331.66 29.96L332.04 29.36L332.39 28.79L332.69 28.25L332.96 27.76L333.19 27.31L333.39 26.91L333.55 26.57L333.67 26.27L333.77 26.04L333.84 25.87L333.89 25.73L333.53 25.75Z" fill="#8DD5F6"/>
<path d="M296.56 53.37L296.53 54.46L296.41 55.86L296.23 57.25L295.97 58.63L295.64 59.98L295.24 61.3L294.78 62.56L294.25 63.77L293.65 64.91L293 65.96L292.29 66.92L291.52 67.77L290.69 68.51L289.82 69.12L288.89 69.59L287.91 69.91L286.89 70.07L285.96 70.1L285.11 70.04L284.33 69.9L283.63 69.68L282.99 69.37L282.43 68.99L281.93 68.53L281.5 67.99L281.14 67.38L280.84 66.69L280.59 65.92L280.41 65.08L280.28 64.17L280.21 63.19L280.2 62.14L280.23 61.02L280.34 59.68L280.52 58.34L280.77 57.02L281.09 55.72L281.49 54.45L281.96 53.23L282.5 52.06L283.11 50.96L283.8 49.94L284.56 49L285.4 48.17L286.31 47.45L287.29 46.84L288.35 46.38L289.48 46.05L290.69 45.88L291.42 45.87L292.1 45.92L292.74 46.05L293.33 46.25L293.88 46.53L294.38 46.88L294.83 47.3L295.23 47.8L295.58 48.37L295.88 49.01L296.12 49.73L296.31 50.53L296.45 51.4L296.53 52.34L296.56 53.37Z" fill="#D54127"/>
<path d="M242.91 50.94L242.93 51.5L242.82 52.28L242.58 53.02L242.22 53.74L241.75 54.42L241.16 55.07L240.48 55.68L239.7 56.26L238.84 56.8L237.9 57.31L236.89 57.78L235.81 58.22L234.67 58.62L233.48 58.98L232.25 59.31L230.98 59.59L229.69 59.85L230.1 58.02L230.47 57.18L230.88 56.34L231.32 55.52L231.79 54.71L232.29 53.93L232.82 53.17L233.39 52.45L233.98 51.77L234.61 51.15L235.26 50.57L235.95 50.06L236.66 49.62L237.41 49.25L238.19 48.96L238.99 48.76L239.83 48.65L240.66 48.66L241.34 48.81L241.89 49.08L242.31 49.45L242.62 49.9L242.82 50.4L242.91 50.94Z" fill="#D54127"/>
<path d="M91.26 138.79H104.53L97.93 187.16H92.43L70.88 163.78L67.73 187.16H54.46L60.98 138.79H66.48L88.03 162.32L91.25 138.79H91.26Z" fill="#0B6384"/>
<path d="M138.38 176.24C137.94 179.46 138.53 180.56 141.97 179.9L141.09 186.64C139.62 187.37 136.77 188.11 133.32 188.11C129.22 188.11 126.94 186.13 126.14 182.91C122.99 186.28 119.1 188.11 114.93 188.11C107.82 188.11 104.3 182.76 104.3 175.65C104.3 163.48 111.19 154.03 122.84 154.03C125.92 154.03 128.34 154.84 130.39 156.16L131.12 154.99H141.38L138.38 176.24ZM125.92 175.07L127.46 164.15C126.43 163.64 125.26 163.34 123.94 163.34C119.47 163.34 117.34 167.52 117.34 172.79C117.34 176.23 118.51 178.07 120.71 178.07C122.91 178.07 124.67 176.9 125.91 175.07H125.92ZM142.63 137.99L128.93 151.04H119.62L130.39 137.99H142.63Z" fill="#0B6384"/>
<path d="M180.89 166.49C180.89 178.58 174 188.11 162.35 188.11C158.83 188.11 156.19 187.08 154 185.47L153.05 187.16H143.52L150.7 135.86H163.38L160.23 158.14C163.16 155.43 166.61 154.04 170.2 154.04C177.38 154.04 180.9 159.39 180.9 166.5L180.89 166.49ZM167.77 169.35C167.77 165.91 166.67 164.07 164.4 164.07C161.91 164.07 160.15 165.46 158.83 167.59L157.36 177.92C158.46 178.43 159.71 178.8 161.17 178.8C165.71 178.8 167.77 174.62 167.77 169.35Z" fill="#0B6384"/>
<path d="M211.38 154.47L209.62 166.64L208.96 166.86C207.86 166.2 205.81 165.76 203.02 165.76C201.26 165.76 199.14 166.05 197.16 167.23L194.38 187.16H181.77L186.24 154.99H198.11L198.26 159.24C201.04 156.24 204.56 154.04 208.59 154.04C209.76 154.04 210.57 154.19 211.38 154.48V154.47Z" fill="#0B6384"/>
<path d="M237.91 176.16L239.52 183.78C236.59 185.76 232.41 188.1 225.3 188.1C213.57 188.1 209.25 181.8 209.25 173.74C209.25 162.6 217.46 154.03 229.55 154.03C237.69 154.03 242.23 157.99 242.23 163.7C242.23 172.35 232.12 176.38 222.15 175.35C222.66 177.84 224.28 179.09 228.01 179.09C231.74 179.09 234.97 177.92 237.9 176.16H237.91ZM222.67 168.46C226.92 168.53 230.29 167.65 230.29 164.65C230.29 163.62 230 162.45 228.16 162.45C225.3 162.45 223.54 165.31 222.66 168.46H222.67Z" fill="#0B6384"/>
<path d="M244.8 165.46L246.27 154.98H276.1L275.44 160.04L260.93 176.68H273.24L271.85 187.16H241.58L242.31 182.03L257.04 165.47H244.8V165.46ZM267.23 151.1H257.19L250.23 137.98H259.39L263.13 143.99L268.48 137.98H277.79L267.24 151.1H267.23Z" fill="#0B6384"/>
<path d="M276.61 177.77L279.91 154.98H292.52L289.52 176.23C289.08 179.6 289.89 180.41 293.26 179.89L292.82 186.63C291.35 187.14 288.94 188.1 284.69 188.1C279.05 188.1 275.46 186.12 276.63 177.77H276.61ZM280.35 143.1C280.94 139.07 284.6 135.84 288.56 135.84C292.52 135.84 295.38 139.06 294.79 143.1C294.2 147.06 290.54 150.28 286.58 150.28C282.62 150.28 279.76 147.06 280.35 143.1Z" fill="#0B6384"/>
<path d="M323.8 176.16L325.41 183.78C322.48 185.76 318.3 188.1 311.19 188.1C299.46 188.1 295.14 181.8 295.14 173.74C295.14 162.6 303.35 154.03 315.44 154.03C323.57 154.03 328.12 157.99 328.12 163.7C328.12 172.35 318.01 176.38 308.04 175.35C308.55 177.84 310.17 179.09 313.9 179.09C317.63 179.09 320.86 177.92 323.79 176.16H323.8ZM308.56 168.46C312.81 168.53 316.18 167.65 316.18 164.65C316.18 163.62 315.89 162.45 314.05 162.45C311.19 162.45 309.43 165.31 308.55 168.46H308.56Z" fill="#0B6384"/>
</g>
<defs>
<clipPath id="clip0_2259_19304">
<rect width="362.67" height="198.61" fill="white"/>
</clipPath>
</defs>
</svg>
