<svg width="382" height="208" viewBox="0 0 382 208" fill="none" xmlns="http://www.w3.org/2000/svg">
<g clip-path="url(#clip0_2259_19143)">
<path d="M353.92 43.5L354.14 43.07L354.33 42.68L354.48 42.34L354.6 42.06L354.69 41.83L354.76 41.66L354.81 41.52L337.14 25.2L336.8 25.22L336.39 25.25L335.84 25.29L335.16 25.34L334.37 25.4L333.48 25.46L332.5 25.53L331.45 25.6L330.34 25.68L329.19 25.76L328 25.84L326.8 25.93L325.59 26.02L324.39 26.11L323.21 26.19L322.62 27.43L322.02 28.58L321.41 29.64L320.8 30.62L320.18 31.52L319.56 32.34L318.94 33.09L318.32 33.77L317.71 34.38L317.1 34.93L316.5 35.42L315.91 35.86L315.34 36.24L314.78 36.57L314.24 36.86L313.72 37.1L312.38 35.86L310.85 34.8L309.13 33.93L307.23 33.24L305.16 32.74L302.92 32.43L300.51 32.32L297.94 32.41L296.38 32.55L294.85 32.76L293.36 33.03L291.9 33.36L290.48 33.75L289.09 34.2L287.74 34.71L286.43 35.27L285.15 35.89L283.91 36.56L282.72 37.28L281.57 38.05L280.46 38.87L279.39 39.74L278.37 40.66L277.39 41.63L276.46 42.64L275.58 43.69L274.75 44.79L273.97 45.93L273.24 47.11L273.19 47.21L262.83 37.65L262.73 37.55L262.04 36.99L261.28 36.52L263.1 26.79L245.43 10.47L229.66 11.59L228.33 18.67L221.3 12.18H221.25H221.21H221.16H221.1H221.03L220.95 12.19H220.86L220.76 12.2H220.65L220.53 12.22H220.41L220.28 12.24H220.21H220.14H219.99L219.83 12.26H219.66L219.49 12.28H219.31L219.12 12.31H218.93L218.73 12.34H218.63L218.53 12.36L218.32 12.38L218.1 12.4L217.87 12.42L217.64 12.44L217.4 12.46L217.16 12.48L216.91 12.5L216.66 12.52L216.4 12.54L216.14 12.56L215.88 12.58L215.61 12.6L215.34 12.62H215.32L215.06 12.64L214.8 12.66H214.78H214.76L214.5 12.68L214.22 12.7L213.93 12.72L213.64 12.74L213.35 12.76L213.06 12.78L212.76 12.8L212.46 12.82L212.16 12.84L211.86 12.86L211.56 12.88L211.26 12.9L210.96 12.92L210.66 12.94L210.36 12.96L210.06 12.98L209.76 13L209.46 13.02L209.16 13.04L208.86 13.06L208.56 13.08L208.26 13.1L207.97 13.12L207.68 13.14L207.39 13.16L207.24 13.54L207.09 13.91L206.94 14.27L206.79 14.63L206.64 14.98L206.49 15.32L206.34 15.65L206.19 15.97L206.04 16.29L205.89 16.6L205.74 16.9L205.69 17L205.59 17.2L205.44 17.49L205.29 17.77L205.14 18.04L204.99 18.31L204.84 18.57L204.69 18.83L204.54 19.08L204.39 19.32L204.32 19.44L204.25 19.56L204.11 19.79L203.97 20.02L203.83 20.24L203.69 20.45L203.55 20.66L203.41 20.86L203.27 21.06L203.13 21.25L202.99 21.44L202.85 21.62L202.71 21.8L202.57 21.97L202.5 22.06L193.88 14.1H193.77L193.66 14.12L193.43 14.14L193.2 14.16L192.97 14.18L192.73 14.2L192.49 14.22L192.25 14.24L192.01 14.26L191.76 14.28L191.51 14.3L191.26 14.32L191.01 14.34L190.76 14.36L190.51 14.38L190.26 14.4L190.01 14.42L189.76 14.44L189.51 14.46L189.26 14.48L189.01 14.5L188.76 14.52L188.51 14.54L188.26 14.56L188.01 14.58H187.99L187.76 14.6L187.52 14.62L187.28 14.64H187.16L187.04 14.66L186.8 14.68L186.57 14.7L186.34 14.72L186.11 14.74L185.89 14.76L185.67 14.78H185.47L185.46 14.8L185.25 14.82L185.04 14.84H184.84L184.64 14.87H184.45L184.26 14.9H184.08L183.9 14.93H183.73L183.56 14.95H183.4L183.25 14.97H183.1L182.96 14.99H182.83L182.71 15.01H182.59L182.48 15.03H182.38L182.29 15.04H182.21L182.14 15.05H182.08H182.02H181.97H181.93H181.9L181.88 15.07V15.09V15.12V15.16L181.87 15.21V15.27L181.85 15.34V15.42L181.83 15.51V15.61L181.81 15.71V15.82L181.79 15.94V16.07L181.77 16.2V16.35L181.76 16.51V16.68V16.85V17.03V17.22V17.42V17.62L181.78 17.83V18.05L181.81 18.27L181.83 18.5L181.85 18.73L181.88 18.97L181.91 19.22L181.94 19.47L181.98 19.73L182.02 19.99L182.07 20.26L182.12 20.53L182.18 20.8L182.24 21.08L182.31 21.36L182.39 21.65L182.47 21.94L182.56 22.23L182.65 22.53L182.75 22.83L182.86 23.13L182.94 23.35L182.97 23.43L183.09 23.74L183.22 24.05L183.36 24.36L183.51 24.67L183.66 24.98L183.82 25.3L183.91 25.46L184 25.62L184.09 25.78L184.18 25.94L184.37 26.26L184.57 26.58L184.78 26.9L184.89 27.06L185 27.22L185.23 27.54L185.47 27.86L185.72 28.18L185.98 28.5L186.25 28.82L186.53 29.14L186.82 29.45L186.97 29.61L187.12 29.76L187.44 30.07L187.77 30.38L187.96 30.55L187.91 30.57L197.74 39.64L197.14 39.66L195.64 39.8L194.17 40.01L192.73 40.28L191.32 40.61L189.95 41.01L188.61 41.47L187.31 41.99L186.04 42.56L184.81 43.19L184.48 43.38L184.55 43.19L184.64 42.95L184.72 42.71L184.8 42.46L184.87 42.21L184.93 41.96L184.99 41.71L185.04 41.46L185.1 41.11L185.15 40.76L185.19 40.42L185.21 40.08V39.86L185.22 39.64V39.42V39.2V38.99L185.19 38.78L185.17 38.57L185.14 38.36L185.11 38.16L185.07 37.96L185.03 37.76L184.98 37.56L184.93 37.37L184.87 37.18L184.81 36.99L184.75 36.8L184.68 36.62L184.61 36.44L184.53 36.26L184.45 36.09L184.36 35.92L184.27 35.75L184.17 35.59L184.07 35.43L183.97 35.27L183.86 35.12L183.75 34.97L183.63 34.82L183.51 34.68L183.42 34.58L183.5 34.55L165.83 18.23L165.75 18.26L165.72 18.22L165.59 18.08L165.46 17.95L165.32 17.82L165.18 17.69L165.04 17.57L165.01 17.55L164.89 17.46L164.74 17.35L164.59 17.24L164.43 17.13L164.27 17.03L164.11 16.93L163.94 16.84L163.77 16.75L163.6 16.67L163.42 16.59L163.24 16.51L163.06 16.44L162.87 16.37L162.82 16.35L162.68 16.3L162.49 16.24L162.29 16.19L162.09 16.14L161.89 16.1L161.69 16.06L161.59 16.04L161.49 16.02L161.28 15.99L161.07 15.97H161.05L160.85 15.95H160.63L160.41 15.93H160.19H159.97H159.74L159.51 15.95L159.26 15.97L159.03 15.99H159.01L158.76 16.03L158.51 16.07L158.26 16.12L158.01 16.17L157.76 16.23L157.51 16.29L157.26 16.36L157.02 16.43L156.78 16.51L156.54 16.59L156.3 16.68L156.06 16.78L155.82 16.88L155.75 16.91L155.59 16.98L155.36 17.09L155.13 17.21L154.9 17.33L154.67 17.46L154.44 17.59L154.22 17.72L154 17.86L153.78 18L153.56 18.15L153.35 18.3L153.14 18.46L152.93 18.62L152.73 18.79L152.6 18.9L152.53 18.96L152.33 19.13L152.13 19.31L151.94 19.49L151.75 19.67L151.56 19.86L151.38 20.05L151.2 20.24L151.02 20.44L150.85 20.64L150.68 20.84L150.52 21.05L150.36 21.26L150.2 21.47L150.05 21.69L149.9 21.91L149.76 22.13L149.62 22.35L149.49 22.58L149.36 22.81L149.23 23.04L149.11 23.27L148.99 23.51L148.88 23.75L148.77 23.99L148.67 24.23L148.57 24.47L148.48 24.72L148.4 24.97L148.32 25.22L148.25 25.47L148.18 25.72L148.12 25.97L148.06 26.22L148.01 26.48L147.95 26.82L147.93 26.99L147.91 27.16L147.88 27.49L147.86 27.81V28.03L147.85 28.25V28.47V28.68V28.89L147.88 29.1L147.9 29.31L147.93 29.51L147.96 29.71L148 29.91L148.04 30.11L148.09 30.3L148.14 30.49L148.2 30.68L148.26 30.87L148.33 31.05L148.37 31.14L148.41 31.23L148.49 31.41L148.57 31.59L148.65 31.76L148.74 31.93L148.83 32.1L148.93 32.26L149.03 32.42L149.14 32.58L149.25 32.73L149.36 32.88L149.48 33.03L149.6 33.17L149.72 33.31L149.78 33.38L149.84 33.45L149.93 33.54L149.83 33.57L160.55 43.47L155.52 43.83L153.5 44.05L151.66 44.4L149.97 44.87L148.42 45.45L146.98 46.12L145.63 46.86L144.35 47.67L143.11 48.52L141.9 49.41L140.7 50.32L139.48 51.23L138.7 51.79L131.89 45.5L115.89 46.64L116.05 47.82L116.2 49.08L116.33 50.42L116.44 51.84L116.52 53.32L116.56 54.87V56.48L116.49 58.15L116.44 59.02L116.37 59.91L116.31 60.57L102.92 48.21L102.91 48.2L102.37 47.78L101.76 47.44L101.09 47.17L100.36 46.96L99.57 46.82L98.72 46.74L97.81 46.72L96.85 46.76L96.04 46.83L95.21 46.93L94.37 47.06L93.52 47.22L92.67 47.4L91.83 47.6L91 47.81L90.19 48.04L89.4 48.28L88.64 48.53L87.91 48.78L87.23 49.04L86.59 49.3L86 49.56L85.47 49.81L85.01 50.06L83.63 60.18L76.1 53.23L75.22 52.26L74.2 51.42L73.05 50.7L71.76 50.11L70.33 49.65L68.76 49.32L67.05 49.13L65.2 49.07L63.21 49.15L61.71 49.29L60.24 49.5L58.8 49.77L57.39 50.1L56.02 50.5L54.68 50.96L53.38 51.48L52.11 52.05L50.88 52.68L49.69 53.36L48.54 54.1L47.43 54.89L46.36 55.73L45.33 56.62L44.34 57.55L43.4 58.53L42.5 59.55L41.65 60.61L40.84 61.72L40.08 62.87L39.37 64.05L38.71 65.27L38.1 66.53L37.54 67.82L37.04 69.14L36.59 70.49L36.19 71.87L35.85 73.28L35.56 74.72L35.33 76.18L35.16 77.67L35.05 79.18L35.02 81.27L35.15 83.26L35.44 85.14L35.9 86.91L36.52 88.56L37.31 90.09L38.27 91.48L39.4 92.74L40.12 93.36H40.11L56.89 108.86L57.07 109.06L57.59 109.5L57.78 109.68H57.79L58.36 110.17L59.83 111.13L60.67 111.54L30.87 113.66L27.13 113.93L24.61 126.21L36.16 136.87L42.28 142.53L131.18 136.22C129.12 138.84 127.7 142.39 127.1 146.93L126.68 150.19H120.23L118.88 159.4H125.47L122.57 181.92C121.86 187.66 120.09 188.08 116.76 188.08C115.56 188.08 114.49 187.87 113.5 187.51L111.09 195.58C112.72 196.64 115.13 197.42 118.39 197.42C126.54 197.42 133.05 192.82 134.47 182.69L137.52 159.39H144.89L146.31 150.18H138.8L139.01 148.34C139.86 141.89 141.63 140.41 144.96 140.41C146.31 140.41 147.37 140.69 148.5 141.33L150.13 134.87L332.38 121.93L342.68 121.2L345.2 108.92L327.98 93.02L327.53 92.6L318.72 93.23L318.93 93.13L320.16 92.43L321.35 91.68L321.66 91.46L322.5 90.87L323.61 90.02L324.68 89.12L325.7 88.17L326.02 87.84L326.68 87.17L327.61 86.13L328.49 85.05L329.33 83.92L329.94 83.02L330.12 82.76L330.35 82.39L330.86 81.56L331.5 80.4L331.55 80.32L332.18 79.05L332.37 78.61L332.76 77.74L332.92 77.33L333.28 76.4L333.59 75.49L333.75 75.03L333.91 74.48L334.16 73.63L334.44 72.49L334.51 72.2L334.81 70.75L335.05 69.27L335.2 67.99L335.23 67.77L335.34 66.25V65.6L335.37 64.27L335.31 63.36L335.25 62.4L334.99 60.64L334.63 59.2L334.58 59L336.06 58.48L337.47 57.92L338.81 57.33L340.09 56.71L341.3 56.07L342.45 55.4L343.54 54.71L344.57 54.01L345.54 53.3L346.45 52.58L347.3 51.86L348.1 51.13L348.85 50.41L349.54 49.69L350.19 48.98L350.79 48.28L351.34 47.6L351.84 46.94L352.3 46.3L352.72 45.69L353.09 45.11L353.42 44.56L353.71 44.04L353.97 43.56L353.92 43.5ZM281.6 95.76L282.15 95.42L282.7 95.08L283.76 94.38L284.57 93.81L284.78 93.66L285.75 92.93L286.67 92.2L286.92 91.99L287.54 91.48L287.89 91.17L288.35 90.77L289.11 90.09L289.74 90.96L290.43 91.77L290.8 92.15L291.18 92.53L291.99 93.22L292.6 93.67L292.86 93.86L293.33 94.15L293.8 94.44L293.94 94.52L294.68 94.91L281.49 95.85L281.61 95.78L281.6 95.76ZM135.21 106.21L132.01 106.44L132.07 106.41L132.37 106.25L132.65 106.09L133.59 105.54L134.77 104.77L135.9 103.94L136.99 103.06L138.03 102.13L138.63 101.54L139.03 101.15L139.52 100.63L139.99 100.12L140.9 99.04L141.77 97.92L142.6 96.75L143.38 95.54L143.63 95.12L144.12 94.29L144.61 93.39L144.82 93L145.04 92.56L145.47 91.67L145.51 91.57L159.5 104.49L135.2 106.22L135.21 106.21ZM178.94 103.11L179.35 102.89L180.01 102.49L180.67 102.09L181.91 101.26L182.39 100.91L183.07 100.41L183.59 100L184.15 99.56L185.15 98.72L185.37 98.53L186.07 97.91L186.49 97.52L186.91 97.14L187.36 96.71L187.66 96.43L188.33 95.78L188.87 96.79L188.99 96.98L189.49 97.75L190.18 98.64L190.95 99.47L191.79 100.24L192.71 100.94L193.57 101.48L193.71 101.57L194.56 102.01L189.04 102.4L178.94 103.12V103.11ZM227.88 95.17L232.37 99.31L219.43 100.23L220.2 99.87L221.31 99.31L222.39 98.73L223.44 98.13L223.95 97.82L224.46 97.51L225.44 96.88L226.39 96.24L226.93 95.86L227.31 95.6L227.9 95.17H227.88ZM102.88 65.58L103.33 66L103.11 66.1L102.75 66.29L102.81 65.96L102.88 65.57V65.58ZM85.56 109.71L86.13 109.44L86.99 109L87.34 108.83L88.51 108.19L89.65 107.53L90.01 107.31L90.75 106.85L91.28 106.51L91.81 106.17L92.83 105.48L93.81 104.78L94.56 104.22L94.75 104.08L95.64 103.38L96.49 102.69L97.2 102.09L97.29 102.01L98.05 101.34L98.76 100.69L99.42 100.07L99.66 99.83L100.03 99.47L100.27 99.23L100.59 98.91L101.11 98.38L101.16 98.33L101.58 97.89L101.99 97.44L102.35 97.04L102.65 96.69L102.85 96.45L102.9 96.39L102.92 97.96L103.06 99.46L103.26 100.49L103.33 100.88L103.73 102.23L104.04 102.96L104.26 103.48L104.55 103.99L104.92 104.64L105.46 105.35L105.73 105.71L106.67 106.67L107.14 107.04L107.75 107.52L108.14 107.75L108.67 108.07L85.48 109.72L85.55 109.69L85.56 109.71ZM257.39 97.54L249.69 98.09L251.64 87.69L260.37 95.75L260.75 96.06L261 96.29L262.05 97.04L262.2 97.15L262.28 97.19L257.38 97.54H257.39Z" fill="#FEEDE4"/>
<path d="M118.38 207.88C113.41 207.88 108.91 206.65 105.35 204.33C101.46 201.79 99.6999 196.99 101.02 192.53L103.43 184.46C104.25 181.7 106.18 179.4 108.75 178.09C109.96 177.48 111.27 177.11 112.6 177L113.7 168.48C112.67 167.89 111.73 167.13 110.93 166.21C108.94 163.9 108.04 160.84 108.48 157.82L109.83 148.61C109.85 148.47 109.87 148.33 109.9 148.2L43.0099 152.95C40.1199 153.16 37.2699 152.16 35.1399 150.19L17.4699 133.87C14.7699 131.37 13.5699 127.65 14.3099 124.05L16.8299 111.77C17.7799 107.16 21.68 103.74 26.37 103.41L34.88 102.81L32.97 101.04C32.97 101.04 32.9399 101.01 32.9199 100.99L32.5499 100.67C32.1999 100.37 31.87 100.05 31.57 99.71L30.44 98.45C30.14 98.11 29.8599 97.76 29.5999 97.38L28.6399 95.99C28.3899 95.63 28.1699 95.26 27.9699 94.87L27.1799 93.34C26.9899 92.98 26.8299 92.6 26.6799 92.22L26.0599 90.57C25.9299 90.22 25.8099 89.86 25.7199 89.49L25.2599 87.72C25.1699 87.39 25.0999 87.05 25.0499 86.71L24.7599 84.83C24.7099 84.52 24.6799 84.21 24.6599 83.9L24.53 81.91C24.51 81.63 24.4999 81.34 24.5099 81.06L24.54 78.97C24.54 78.77 24.5499 78.57 24.5699 78.37L24.6799 76.86C24.6899 76.72 24.6999 76.58 24.7199 76.44L24.8899 74.95C24.9099 74.81 24.93 74.66 24.95 74.52L25.1799 73.06C25.1999 72.92 25.2299 72.78 25.2599 72.63L25.5499 71.19C25.5799 71.05 25.6099 70.91 25.6399 70.76L25.9799 69.35C26.0099 69.21 26.0499 69.07 26.0899 68.92L26.4899 67.54C26.5299 67.4 26.57 67.25 26.62 67.11L27.0699 65.76C27.1199 65.62 27.1699 65.48 27.2199 65.34L27.7199 64.02C27.7699 63.88 27.8299 63.74 27.8899 63.6L28.45 62.31C28.51 62.17 28.5699 62.03 28.6399 61.9L29.2499 60.64C29.3199 60.5 29.3899 60.36 29.4599 60.23L30.12 59.01C30.19 58.87 30.27 58.74 30.35 58.61L31.0599 57.43C31.1399 57.3 31.2199 57.16 31.3099 57.03L32.07 55.88C32.16 55.75 32.25 55.62 32.34 55.49L33.15 54.38C33.24 54.25 33.3399 54.12 33.4399 54L34.29 52.94C34.39 52.81 34.4899 52.69 34.5999 52.57L35.5 51.55C35.61 51.43 35.72 51.31 35.83 51.19L36.77 50.21C36.88 50.09 36.9999 49.98 37.1199 49.87L38.11 48.94C38.23 48.83 38.3499 48.72 38.4799 48.61L39.5099 47.72C39.6399 47.61 39.7599 47.51 39.8899 47.41L40.9599 46.57C41.0899 46.47 41.22 46.37 41.36 46.27L42.47 45.48C42.61 45.38 42.7499 45.29 42.8899 45.2L44.04 44.46C44.18 44.37 44.32 44.28 44.47 44.2L45.66 43.52C45.81 43.44 45.96 43.36 46.11 43.28L47.34 42.65C47.49 42.57 47.64 42.5 47.79 42.43L49.06 41.86C49.21 41.79 49.37 41.73 49.52 41.66L50.82 41.14C50.98 41.08 51.13 41.02 51.29 40.97L52.63 40.51C52.79 40.46 52.95 40.41 53.11 40.36L54.4799 39.96C54.6399 39.91 54.7999 39.87 54.9599 39.83L56.3699 39.5C56.5299 39.46 56.6899 39.43 56.8499 39.4L58.29 39.13C58.45 39.1 58.6099 39.07 58.7799 39.05L60.25 38.84C60.41 38.82 60.5699 38.8 60.7299 38.78L62.2299 38.64C62.4199 38.62 62.6099 38.61 62.7999 38.6L64.79 38.52C65.04 38.52 65.2799 38.51 65.5299 38.52L67.3799 38.58C67.6599 38.58 67.94 38.61 68.23 38.64L69.94 38.83C70.26 38.87 70.58 38.92 70.9 38.98L72.47 39.31C72.83 39.38 73.1799 39.48 73.5299 39.59L74.9599 40.05C75.3499 40.18 75.74 40.32 76.11 40.49L77.4 41.08C77.81 41.26 78.1999 41.48 78.5799 41.71C79.0599 41.34 79.5599 41.01 80.1099 40.72L80.5699 40.47C80.6899 40.4 80.8199 40.34 80.9499 40.28L81.4799 40.03C81.5799 39.98 81.6899 39.93 81.7899 39.89L82.3799 39.63C82.4699 39.59 82.5599 39.55 82.6499 39.52L83.2899 39.26C83.3699 39.23 83.4499 39.19 83.5399 39.16L84.2199 38.9C84.2899 38.87 84.3699 38.84 84.4399 38.82L85.1699 38.57C85.2399 38.54 85.3199 38.52 85.3899 38.5L86.1499 38.25C86.2199 38.23 86.2899 38.21 86.3599 38.18L87.1499 37.94C87.2199 37.92 87.2899 37.9 87.3699 37.88L88.1799 37.65C88.2499 37.63 88.3199 37.61 88.3999 37.59L89.2299 37.38C89.3099 37.36 89.3799 37.34 89.4599 37.32L90.2999 37.12C90.3799 37.1 90.4599 37.08 90.5299 37.07L91.3799 36.89C91.4699 36.87 91.5599 36.85 91.6399 36.84L92.4899 36.68C92.5799 36.66 92.6799 36.65 92.7799 36.63L93.6199 36.5C93.7199 36.48 93.8299 36.47 93.9299 36.46L94.7599 36.36C94.8799 36.35 94.9999 36.33 95.1199 36.32L95.9299 36.25C96.0899 36.24 96.25 36.22 96.41 36.22L97.3699 36.18C97.5899 36.18 97.8099 36.17 98.0199 36.18L98.9299 36.2C99.1799 36.2 99.4399 36.22 99.6899 36.24L100.54 36.32C100.84 36.35 101.13 36.39 101.42 36.44L102.21 36.58C102.55 36.64 102.89 36.72 103.22 36.81L103.95 37.02C104.33 37.13 104.7 37.26 105.07 37.4L105.74 37.67C106.15 37.84 106.56 38.03 106.95 38.26L107.56 38.6C107.87 38.78 108.17 38.97 108.47 39.18C110.25 37.39 112.63 36.3 115.16 36.12L131.16 34.98C134.05 34.77 136.9 35.77 139.03 37.74L139.56 38.23L140.05 37.92C140.05 37.92 140.08 37.9 140.1 37.89L140.05 37.81C140 37.74 139.96 37.67 139.92 37.59L139.82 37.43C139.77 37.34 139.72 37.25 139.67 37.17L139.58 37C139.53 36.91 139.48 36.82 139.44 36.73L139.35 36.56C139.31 36.49 139.27 36.41 139.24 36.34L139.16 36.17C139.11 36.07 139.07 35.98 139.02 35.88L138.94 35.7C138.9 35.61 138.86 35.53 138.83 35.44L138.75 35.26C138.71 35.17 138.67 35.08 138.64 34.99C138.6 34.89 138.51 34.65 138.47 34.54L138.4 34.36C138.37 34.28 138.34 34.19 138.31 34.11L138.25 33.92C138.22 33.83 138.19 33.74 138.16 33.65L138.1 33.46C138.07 33.37 138.05 33.29 138.03 33.2L137.98 33.01C137.95 32.92 137.93 32.83 137.91 32.73L137.86 32.54C137.84 32.45 137.82 32.36 137.8 32.28L137.76 32.08C137.74 31.99 137.72 31.9 137.71 31.81L137.67 31.61C137.65 31.51 137.63 31.41 137.62 31.32L137.59 31.12C137.58 31.04 137.57 30.96 137.56 30.89L137.53 30.69C137.52 30.6 137.51 30.5 137.5 30.41L137.48 30.2C137.47 30.11 137.46 30.01 137.45 29.92L137.43 29.71C137.43 29.64 137.42 29.56 137.41 29.49V29.28C137.39 29.18 137.39 29.08 137.38 28.99V28.78C137.38 28.7 137.37 28.62 137.37 28.54V28.32C137.37 28.23 137.37 28.13 137.37 28.04V27.82C137.37 27.74 137.37 27.67 137.38 27.59V27.37C137.39 27.26 137.4 27.16 137.41 27.05L137.43 26.73C137.43 26.61 137.45 26.49 137.46 26.37L137.49 26.04C137.5 25.92 137.52 25.8 137.53 25.68L137.58 25.34C137.6 25.22 137.62 25.11 137.64 24.99L137.7 24.65C137.72 24.56 137.73 24.47 137.75 24.39L137.8 24.13C137.81 24.06 137.83 23.99 137.85 23.92L137.91 23.67C137.93 23.59 137.95 23.5 137.97 23.42L138.03 23.17C138.05 23.1 138.07 23.03 138.09 22.95L138.16 22.7C138.18 22.62 138.2 22.54 138.23 22.46L138.3 22.21C138.32 22.14 138.34 22.07 138.37 22L138.45 21.75C138.47 21.69 138.49 21.62 138.51 21.56L138.59 21.31C138.62 21.23 138.64 21.16 138.67 21.08L138.76 20.83C138.79 20.76 138.81 20.69 138.84 20.63L138.94 20.39C138.97 20.32 138.99 20.25 139.02 20.18L139.12 19.94C139.15 19.88 139.17 19.81 139.2 19.75L139.31 19.51C139.34 19.44 139.37 19.37 139.4 19.3L139.51 19.06C139.54 19 139.57 18.94 139.6 18.88L139.72 18.64C139.75 18.58 139.78 18.52 139.81 18.45L139.93 18.22C139.96 18.16 140 18.09 140.03 18.03L140.16 17.8C140.19 17.74 140.22 17.68 140.26 17.62L140.39 17.39C140.43 17.33 140.46 17.26 140.5 17.2L140.63 16.97C140.66 16.92 140.69 16.87 140.73 16.81L140.87 16.59C140.91 16.53 140.95 16.47 140.99 16.41L141.13 16.19C141.17 16.14 141.2 16.08 141.24 16.03L141.39 15.81C141.43 15.76 141.46 15.7 141.5 15.65L141.65 15.43C141.69 15.37 141.73 15.32 141.77 15.26L141.93 15.05C141.97 14.99 142.01 14.94 142.05 14.89L142.21 14.68C142.21 14.68 142.28 14.59 142.31 14.55L142.47 14.34C142.52 14.28 142.56 14.22 142.61 14.17L142.78 13.97C142.78 13.97 142.86 13.87 142.9 13.82L143.07 13.62C143.07 13.62 143.15 13.53 143.19 13.48L143.37 13.28C143.42 13.23 143.47 13.17 143.52 13.12L143.7 12.93C143.7 12.93 143.78 12.84 143.82 12.8L144 12.61C144 12.61 144.1 12.51 144.14 12.46L144.33 12.27C144.33 12.27 144.41 12.19 144.46 12.14L144.65 11.96C144.65 11.96 144.75 11.86 144.8 11.82L144.99 11.64C145.04 11.59 145.09 11.55 145.14 11.5L145.34 11.32C145.34 11.32 145.43 11.24 145.47 11.2L145.67 11.03C145.67 11.03 145.76 10.96 145.8 10.92C145.8 10.92 145.89 10.85 145.9 10.84L146.03 10.73C146.03 10.73 146.12 10.65 146.17 10.61L146.37 10.44C146.42 10.4 146.48 10.35 146.54 10.31L146.75 10.15C146.75 10.15 146.85 10.08 146.9 10.04L147.11 9.88C147.17 9.84 147.22 9.8 147.28 9.76L147.49 9.61C147.54 9.57 147.59 9.54 147.64 9.5L147.86 9.35C147.92 9.31 147.99 9.26 148.05 9.22L148.27 9.08C148.27 9.08 148.37 9.02 148.42 8.99L148.64 8.85C148.7 8.81 148.76 8.77 148.83 8.73L149.05 8.6C149.11 8.56 149.17 8.53 149.22 8.5L149.45 8.37C149.51 8.33 149.57 8.3 149.63 8.27L149.86 8.14C149.92 8.11 149.98 8.07 150.05 8.04L150.28 7.92C150.34 7.89 150.41 7.85 150.47 7.82L150.7 7.7C150.76 7.67 150.82 7.64 150.88 7.61L151.11 7.5C151.18 7.47 151.25 7.43 151.32 7.4L151.48 7.33C151.48 7.33 151.57 7.29 151.58 7.28C151.63 7.26 151.68 7.23 151.73 7.21L151.97 7.11C152.04 7.08 152.11 7.05 152.19 7.02L152.43 6.92C152.5 6.89 152.57 6.86 152.64 6.84L152.88 6.75C152.95 6.72 153.02 6.7 153.09 6.67L153.33 6.58C153.4 6.55 153.47 6.53 153.55 6.51L153.79 6.43C153.86 6.41 153.94 6.38 154.01 6.36L154.25 6.29C154.32 6.27 154.39 6.25 154.46 6.23L154.71 6.16C154.79 6.14 154.88 6.11 154.96 6.09L155.21 6.03C155.28 6.01 155.36 5.99 155.43 5.98L155.68 5.92C155.75 5.9 155.83 5.89 155.9 5.87L156.15 5.82C156.24 5.8 156.32 5.79 156.41 5.77L156.66 5.72C156.75 5.7 156.84 5.69 156.92 5.68L157.17 5.64C157.24 5.63 157.32 5.62 157.39 5.61L157.64 5.58C157.72 5.57 157.8 5.56 157.88 5.55L158.16 5.52C158.25 5.52 158.34 5.5 158.42 5.49L158.67 5.47C158.75 5.47 158.84 5.46 158.92 5.45H159.15C159.23 5.43 159.31 5.43 159.39 5.42H159.62C159.71 5.41 159.8 5.41 159.89 5.41H160.11C160.18 5.41 160.25 5.41 160.32 5.41H160.54C160.63 5.41 160.73 5.41 160.82 5.41H161.04C161.12 5.42 161.2 5.42 161.28 5.43H161.5C161.59 5.45 161.68 5.45 161.76 5.46L161.96 5.48C162.04 5.48 162.14 5.5 162.23 5.51L162.44 5.53C162.53 5.54 162.63 5.55 162.72 5.56L162.93 5.59C163.02 5.6 163.1 5.61 163.19 5.63L163.35 5.66C163.45 5.68 163.56 5.69 163.66 5.71L163.86 5.75C163.95 5.77 164.04 5.78 164.13 5.8L164.33 5.84C164.41 5.86 164.49 5.88 164.58 5.9L164.78 5.95C164.88 5.97 164.97 6 165.07 6.02L165.27 6.07C165.35 6.09 165.44 6.12 165.52 6.14L165.71 6.2C165.8 6.23 165.88 6.25 165.97 6.28L166.11 6.33C166.2 6.36 166.34 6.41 166.43 6.44L166.62 6.51C166.71 6.54 166.8 6.57 166.88 6.61L167.06 6.68C167.15 6.72 167.25 6.75 167.34 6.79L167.52 6.87C167.6 6.9 167.68 6.94 167.76 6.98L167.94 7.06C168.03 7.1 168.13 7.15 168.22 7.19L168.39 7.27C168.47 7.31 168.55 7.35 168.63 7.39L168.8 7.48C168.9 7.53 168.99 7.58 169.09 7.63L169.26 7.72C169.34 7.77 169.42 7.81 169.5 7.86L169.66 7.96C169.74 8.01 169.81 8.05 169.89 8.1L170.05 8.2C170.14 8.26 170.23 8.32 170.32 8.38L170.48 8.49C170.56 8.54 170.64 8.6 170.72 8.65L170.87 8.76C170.95 8.82 171.03 8.87 171.1 8.93L171.25 9.04C171.34 9.11 171.43 9.17 171.51 9.24L171.63 9.33C171.7 9.39 171.8 9.46 171.86 9.52L172 9.64C172.07 9.7 172.14 9.76 172.2 9.82C172.35 9.94 172.5 10.06 172.65 10.18C173.26 9.01 174.09 7.96 175.1 7.09C176.8 5.63 178.95 4.73 181.18 4.56C181.21 4.56 181.26 4.56 181.29 4.56C181.3 4.56 181.38 4.56 181.39 4.56L182.2 15.03L181.52 4.55C181.52 4.55 181.62 4.55 181.63 4.55H181.73L187.34 4.15C187.34 4.15 187.41 4.15 187.44 4.15L193.23 3.74C195.71 3.57 198.15 4.28 200.14 5.72C201.88 4.03 204.2 2.96 206.72 2.78L219.47 1.87C219.47 1.87 219.57 1.87 219.59 1.87L220.08 1.84C220.08 1.84 220.2 1.84 220.21 1.84C220.22 1.84 220.3 1.84 220.32 1.84L220.69 6.36C220.69 6.36 220.74 6.28 220.76 6.24L220.46 1.82C220.46 1.82 220.59 1.82 220.61 1.81C222.06 1.71 223.51 1.91 224.87 2.39C226.12 1.73 227.52 1.32 229 1.22L244.71 0.029996C247.6 -0.180004 250.45 0.819996 252.58 2.79L270.25 19.11C272.9 21.56 274.11 25.21 273.45 28.76L272.93 31.55L273.84 30.8C273.97 30.69 274.1 30.59 274.24 30.49L275.35 29.67C275.48 29.57 275.61 29.48 275.75 29.39L276.9 28.62C277.04 28.53 277.18 28.44 277.32 28.35L278.51 27.63C278.65 27.55 278.79 27.46 278.93 27.39L280.17 26.72C280.31 26.64 280.46 26.57 280.61 26.5L281.89 25.88C282.04 25.81 282.18 25.74 282.33 25.68L283.64 25.12C283.79 25.06 283.94 25 284.09 24.94L285.44 24.43C285.59 24.37 285.74 24.32 285.89 24.27L287.28 23.82C287.43 23.77 287.58 23.73 287.73 23.68L289.15 23.29C289.3 23.25 289.45 23.21 289.61 23.18L291.07 22.85C291.22 22.82 291.37 22.79 291.52 22.76L293.01 22.49C293.16 22.46 293.31 22.44 293.47 22.42L295 22.21C295.15 22.19 295.3 22.17 295.45 22.16L297.01 22.02C297.21 22 297.42 21.99 297.62 21.98L300.19 21.89C300.47 21.89 300.75 21.89 301.03 21.89L303.44 22C303.75 22.01 304.07 22.04 304.38 22.08L306.62 22.39C306.97 22.44 307.32 22.5 307.66 22.59L309.73 23.09C310.11 23.18 310.48 23.29 310.85 23.43L312.56 24.05L313.24 22.79L313.74 21.73C315.36 18.31 318.7 16.03 322.48 15.76L336.4 14.77C339.29 14.57 342.14 15.56 344.26 17.53L361.93 33.85C365.05 36.73 366.13 41.21 364.66 45.2L364.61 45.34C364.58 45.41 364.55 45.49 364.52 45.56L364.45 45.73C364.43 45.79 364.4 45.84 364.38 45.9L364.29 46.13C364.27 46.19 364.24 46.25 364.22 46.3L364.1 46.58C364.07 46.64 364.04 46.71 364.01 46.77L363.86 47.11C363.83 47.18 363.8 47.25 363.76 47.32L363.57 47.71C363.54 47.78 363.5 47.84 363.47 47.91L363.25 48.34C363.21 48.41 363.18 48.48 363.14 48.55L362.88 49.03C362.84 49.1 362.8 49.17 362.77 49.24L362.48 49.76C362.44 49.84 362.39 49.91 362.35 49.98L362.02 50.53C361.98 50.6 361.93 50.68 361.88 50.75L361.51 51.33C361.46 51.41 361.41 51.48 361.36 51.56L360.94 52.17C360.89 52.24 360.84 52.32 360.79 52.39L360.33 53.03C360.27 53.11 360.21 53.19 360.15 53.27L359.65 53.93C359.59 54.01 359.53 54.09 359.47 54.16L358.92 54.84C358.86 54.92 358.79 55 358.72 55.08L358.12 55.78C358.05 55.86 357.98 55.94 357.91 56.02L357.26 56.73C357.19 56.81 357.11 56.89 357.04 56.97L356.35 57.69C356.27 57.77 356.19 57.85 356.11 57.93L355.36 58.65C355.28 58.73 355.19 58.81 355.11 58.89L354.31 59.62C354.22 59.7 354.13 59.78 354.04 59.85L353.19 60.57C353.1 60.65 353.01 60.72 352.91 60.8L352 61.52C351.9 61.6 351.81 61.67 351.71 61.74L350.74 62.45C350.64 62.52 350.54 62.6 350.43 62.67L349.4 63.37C349.3 63.44 349.19 63.51 349.08 63.58L347.99 64.27C347.88 64.34 347.77 64.41 347.66 64.47L346.51 65.14C346.4 65.2 346.29 65.27 346.17 65.33L345.79 65.53V66.4C345.77 66.6 345.76 66.81 345.75 67.01L345.64 68.53C345.63 68.67 345.62 68.81 345.6 68.95L345.42 70.46C345.4 70.61 345.38 70.75 345.36 70.9L345.12 72.38C345.1 72.53 345.07 72.67 345.04 72.82L344.74 74.27C344.71 74.42 344.68 74.57 344.64 74.71L344.29 76.13C344.25 76.28 344.21 76.43 344.17 76.57L343.76 77.96C343.72 78.11 343.67 78.25 343.62 78.4L343.15 79.78C343.1 79.92 343.05 80.06 342.99 80.2L342.46 81.54C342.4 81.68 342.35 81.82 342.28 81.96L341.7 83.27C341.64 83.41 341.57 83.55 341.5 83.69L340.87 84.96C340.8 85.1 340.73 85.23 340.66 85.37L339.97 86.61C339.89 86.75 339.82 86.88 339.73 87.02L339 88.22C338.92 88.36 338.83 88.49 338.74 88.62L338.7 88.68L352.25 101.2C354.95 103.7 356.15 107.42 355.41 111.02L352.89 123.3C351.94 127.91 348.04 131.33 343.35 131.66L158.34 144.8C157.92 145.98 157.3 147.07 156.52 148.02C156.78 149.24 156.81 150.51 156.62 151.77L155.2 160.98C154.51 165.47 151.03 168.93 146.69 169.72L144.82 184.05C142.79 198.59 132.4 207.92 118.33 207.92L118.38 207.88ZM37.38 123.68L46.0499 131.69L130.42 125.7C134.28 125.43 137.96 127.3 140.01 130.52C140.21 130.46 140.4 130.41 140.6 130.36C142.19 126.96 145.52 124.62 149.36 124.35L332.38 111.35L323.71 103.34L319.42 103.64C314.43 103.99 309.88 100.78 308.55 95.96C307.22 91.15 309.47 86.06 313.92 83.8L315.61 82.78L316.96 81.78L318.47 80.42L319.58 79.23L320.72 77.77L321.74 76.19L322.73 74.27L323.38 72.69L323.99 70.78L324.44 68.78L324.73 66.69L324.81 65.34V64.42L324.76 63.42L324.64 62.6L324.35 61.45C323.04 56.2 325.94 50.82 331.04 49.02L333.38 48.15L335.29 47.27L336.98 46.33L338.46 45.36L339.75 44.37L341.12 43.14L333.37 35.98L329.68 36.24C329.62 36.34 329.55 36.44 329.48 36.54L328.86 37.44C328.77 37.57 328.68 37.69 328.59 37.81L327.97 38.63C327.88 38.76 327.78 38.88 327.68 39L327.06 39.75C326.96 39.87 326.85 40 326.74 40.12L326.12 40.8C326.01 40.92 325.89 41.04 325.78 41.16L325.17 41.77C325.05 41.89 324.93 42.01 324.8 42.12L324.19 42.67C324.06 42.79 323.93 42.9 323.8 43.01L323.2 43.5C323.06 43.61 322.92 43.72 322.78 43.83L322.19 44.27C322.05 44.37 321.91 44.47 321.76 44.57L321.19 44.95C321.04 45.05 320.89 45.14 320.74 45.23L320.18 45.56C320.03 45.65 319.87 45.74 319.72 45.82L319.18 46.11C319.03 46.19 318.87 46.27 318.71 46.34L318.19 46.58C314.33 48.39 309.77 47.69 306.63 44.8L305.83 44.06L305.48 43.82L304.96 43.56L304.22 43.29L303.23 43.05L301.98 42.88L300.46 42.81L298.61 42.87L296.5 43.11L294.46 43.53L292.56 44.1L290.79 44.81L289.15 45.65L287.63 46.62L286.24 47.71L284.96 48.92L283.8 50.24L282.76 51.68L282.27 52.46C280.69 55.19 277.96 57.06 274.84 57.56C271.66 58.07 268.43 57.09 266.07 54.9L255.75 45.41C252.07 43.13 250.17 38.81 250.97 34.55L251.72 30.53L241.65 21.24L238.44 21.47C237.51 24.82 234.96 27.51 231.62 28.62C227.99 29.82 224 28.96 221.2 26.37L217.51 22.96L215.58 23.1C215.58 23.1 215.55 23.1 215.54 23.1L214.31 23.19L214.04 23.68C214.04 23.68 214.01 23.74 213.99 23.77L213.84 24.03C213.84 24.03 213.8 24.1 213.78 24.14L213.25 25.03C213.25 25.03 213.21 25.09 213.2 25.12L213.06 25.35C213.06 25.35 213.02 25.42 213 25.45L212.86 25.68C212.86 25.68 212.81 25.75 212.79 25.79L212.46 26.3C212.46 26.3 212.41 26.37 212.38 26.41L212.24 26.62C212.24 26.62 212.2 26.68 212.17 26.72L211.83 27.2C211.83 27.2 211.78 27.27 211.76 27.3L211.62 27.49C211.62 27.49 211.58 27.55 211.55 27.58L211.41 27.77C211.41 27.77 211.36 27.83 211.34 27.86L211.2 28.04C211.2 28.04 211.14 28.11 211.12 28.15L210.98 28.33C210.98 28.33 210.93 28.39 210.91 28.42L210.77 28.59C210.77 28.59 210.72 28.65 210.69 28.68L210.62 28.77C209.22 30.46 207.34 31.66 205.25 32.22C208.06 35.11 208.98 39.37 207.58 43.18C206.11 47.17 202.38 49.87 198.14 50.04H197.83L195.87 50.28L193.99 50.68L192.23 51.23L190.58 51.93L189.69 52.39C185.84 54.6 181.03 54.15 177.65 51.27C174.49 48.57 173.23 44.28 174.38 40.34L159.58 26.67L158.75 27.47L167.64 35.68C170.72 38.52 171.81 42.92 170.42 46.87C169.03 50.82 165.43 53.57 161.26 53.87L156.43 54.21L155.04 54.36L154.05 54.55L153.2 54.79L152.43 55.07L151.69 55.41L150.93 55.83L149.17 56.99L145.73 59.55C145.68 59.59 145.62 59.63 145.57 59.67L144.79 60.23C140.74 63.14 135.2 62.8 131.54 59.42L128.07 56.22L127.03 56.29V56.46C127.03 56.57 127.03 56.68 127.03 56.79L126.97 58.46C126.97 58.54 126.97 58.63 126.96 58.71L126.91 59.58C126.91 59.63 126.91 59.69 126.9 59.74L126.83 60.63C126.83 60.69 126.83 60.74 126.82 60.8L126.76 61.46C126.39 65.44 123.8 68.87 120.07 70.3C117.71 71.21 115.15 71.22 112.85 70.41C112.39 71.39 111.78 72.29 111.05 73.08C111.59 74.34 111.89 75.74 111.89 77.2C111.89 81.21 109.65 84.69 106.35 86.46C106.37 86.46 106.4 86.48 106.42 86.49C110.56 87.97 113.36 91.84 113.41 96.24L113.48 97.94L113.76 98.85L114.11 99.06C118.03 101.42 119.97 106.05 118.9 110.51C117.83 114.96 114 118.21 109.43 118.53L86.2399 120.18C81.1899 120.54 76.6 117.24 75.33 112.33C74.06 107.42 76.4799 102.31 81.0799 100.18L85.4799 109.48L81.1299 100.16L82.4899 99.49L86.0099 97.4L88.3699 95.71L91.0599 93.48L94.8199 89.67C95.7099 88.61 96.7799 87.76 97.9499 87.13C93.8399 85.7 90.8899 81.8 90.8899 77.21C90.8899 74.71 91.7599 72.41 93.2199 70.61C92.5699 69.19 92.2399 67.64 92.2699 66.06C91.0499 67.84 89.2799 69.23 87.1699 69.99C83.4899 71.31 79.37 70.48 76.5 67.82L68.97 60.87C68.72 60.64 68.48 60.39 68.25 60.13L67.9599 59.85L67.6399 59.75L67.0899 59.64L66.29 59.55L65.23 59.52L63.9 59.57L61.9399 59.8L60.06 60.2L58.2999 60.75L56.65 61.45L55.11 62.28L53.6699 63.24L52.34 64.33L51.11 65.55L49.9799 66.9L48.9599 68.37L48.0499 69.97L47.2599 71.69L46.61 73.52L46.0999 75.46L45.74 77.51L45.54 80.02C47.02 76.02 50.8699 73.16 55.3899 73.16H55.4C61.2 73.16 65.9 77.86 65.9 83.66C65.9 89.1 61.77 93.57 56.47 94.11L64.0199 101.08C64.1299 101.19 64.25 101.29 64.36 101.4L64.43 101.46C64.43 101.46 64.4999 101.52 64.5299 101.55C64.5599 101.58 64.5999 101.61 64.6299 101.63L64.69 101.68L65.3 102.03C69.56 104.12 71.8999 108.81 70.9899 113.47C70.0799 118.13 66.16 121.6 61.43 121.94L37.41 123.65L37.38 123.68ZM94.5299 57.71L94.2799 59.55C94.8599 58.72 95.5599 57.98 96.3499 57.35L94.5299 57.71ZM181.84 15.4H181.94V15.41H181.84V15.4ZM181.86 15.25H181.93H181.86ZM182.31 15.1V14.98V15.1ZM182.04 15.05V15V15.05ZM132.02 116.93C127.36 116.93 123.21 113.84 121.92 109.3C120.56 104.52 122.75 99.44 127.15 97.13L128.07 96.6L129.52 95.6L130.88 94.44L132.15 93.13L133.35 91.65L134.6 89.78L135.62 87.92L135.97 87.2C137.36 84.16 140.12 81.95 143.4 81.28C146.72 80.6 150.16 81.55 152.65 83.85L166.64 96.77C167.62 97.67 168.39 98.73 168.95 99.88C169.76 97.38 171.49 95.2 173.93 93.88L175 93.24L177.51 91.41L180.43 88.79L181.06 88.19C183.43 85.92 186.73 84.89 189.97 85.4C193.21 85.92 196.03 87.92 197.58 90.81L198.19 91.83L198.69 92.28L199.4 92.68C203.57 94.85 205.79 99.52 204.84 104.13C203.89 108.73 199.99 112.14 195.3 112.47L179.68 113.58C175.35 113.89 171.35 111.51 169.5 107.71C169.47 107.79 169.44 107.88 169.42 107.96C168.03 111.91 164.43 114.66 160.26 114.96L132.76 116.91C132.51 116.93 132.26 116.94 132.01 116.94L132.02 116.93ZM219.44 110.72C214.7 110.72 210.51 107.53 209.29 102.88C208.01 97.99 210.39 92.89 214.96 90.73L216.46 89.99L218.92 88.58L221.69 86.69C225.74 83.72 231.33 84.03 235.02 87.44L239.51 91.58C239.72 91.78 239.93 91.98 240.12 92.19L241.33 85.73C242.03 81.98 244.72 78.9 248.35 77.7C251.98 76.5 255.97 77.36 258.78 79.95L267.21 87.73C267.35 87.84 267.48 87.95 267.61 88.06L268.25 88.51C269.68 89.51 270.82 90.83 271.6 92.34C272.41 90.02 274.03 87.99 276.29 86.69L277.85 85.69L280.24 83.89L282.12 82.26C284.34 80.27 287.3 79.31 290.26 79.63C293.22 79.95 295.91 81.51 297.66 83.92L298.35 84.79L299.01 85.26L299.55 85.54C303.72 87.71 305.94 92.38 304.99 96.99C304.04 101.59 300.14 105 295.45 105.33L282.26 106.27C278.02 106.57 274.08 104.29 272.19 100.62C270.82 104.53 267.28 107.33 263.07 107.63L258.17 107.98L250.47 108.53C247.22 108.76 244.05 107.47 241.89 105.04C241.75 104.88 241.62 104.72 241.49 104.56C239.76 107.53 236.66 109.5 233.16 109.75L220.22 110.67C219.97 110.69 219.72 110.7 219.47 110.7L219.44 110.72Z" fill="#FDECE3"/>
<path d="M29.7 134.48H16.88L10.5 181.23H38.9L40.32 170.75H24.74L29.7 134.48Z" fill="#FEEDE4"/>
<path d="M38.9 191.73H10.5C7.46997 191.73 4.57997 190.42 2.58997 188.13C0.59997 185.85 -0.31003 182.81 0.09997 179.81L6.47997 133.06C7.18997 127.86 11.63 123.98 16.88 123.98H29.7C32.73 123.98 35.62 125.29 37.61 127.58C39.6 129.87 40.51 132.9 40.1 135.91L36.77 160.25H40.32C43.35 160.25 46.23 161.56 48.23 163.84C50.22 166.12 51.14 169.15 50.73 172.16L49.31 182.64C48.61 187.85 44.16 191.73 38.9 191.73V191.73Z" fill="#FDECE3"/>
<path d="M75.31 170.68L78.21 150.14H68.29L67.58 151.27C65.6 150 63.26 149.22 60.28 149.22C49.02 149.22 42.36 158.36 42.36 170.12C42.36 176.99 45.76 182.16 52.63 182.16C56.67 182.16 60.42 180.39 63.47 177.13C64.25 180.25 66.45 182.16 70.41 182.16C73.74 182.16 76.5 181.45 77.92 180.74L78.77 174.22C75.44 174.86 74.87 173.79 75.3 170.68H75.31ZM63.27 169.55C62.07 171.32 60.44 172.45 58.24 172.45C56.04 172.45 54.98 170.68 54.98 167.35C54.98 162.25 57.03 158.21 61.36 158.21C62.64 158.21 63.77 158.49 64.76 158.99L63.27 169.54V169.55Z" fill="#FEEDE4"/>
<path d="M70.42 192.65C67.3 192.65 64.44 191.99 61.98 190.76C59.02 192 55.87 192.65 52.65 192.65C40.42 192.65 31.88 183.38 31.88 170.11C31.88 151.92 43.83 138.71 60.3 138.71C62.73 138.71 65.06 139.04 67.26 139.68C67.6 139.65 67.95 139.63 68.3 139.63H78.22C81.26 139.63 84.15 140.95 86.15 143.24C88.14 145.54 89.05 148.58 88.62 151.6L86.43 167.07C88.56 169.35 89.6 172.46 89.2 175.57L88.35 182.09C87.9 185.55 85.76 188.56 82.64 190.12C79.43 191.73 74.98 192.65 70.43 192.65H70.42ZM62.58 163.34L60.76 166.98C62.2 166.59 63.72 166.51 65.22 166.77C65.23 166.75 65.24 166.74 65.26 166.72V166.65C64.87 165.58 63.94 164.29 62.58 163.33V163.34Z" fill="#FDECE3"/>
<path d="M117.53 174.22C117.18 174.29 116.47 174.36 115.83 174.36C114.55 174.36 113.35 173.86 113.78 170.68L114.98 161.83C116.04 154.32 112.86 149.22 105.77 149.22C101.38 149.22 97.98 151.13 95.43 154.96L95.78 150.14H84.59L80.2 181.24H92.38L94.22 167.92C95.14 163.39 97.05 159.28 100.17 159.28C102.22 159.28 102.93 160.77 102.29 165.37L101.23 173.02C100.31 179.75 103.5 182.16 109.8 182.16C112.99 182.16 115.4 181.45 116.81 180.74L117.52 174.22H117.53Z" fill="#FEEDE4"/>
<path d="M109.81 192.65C105.26 192.65 101.43 191.71 98.3699 189.86C96.6599 191.04 94.5999 191.73 92.3899 191.73H80.2099C77.1699 191.73 74.2799 190.41 72.2799 188.12C70.2899 185.82 69.3799 182.78 69.8099 179.77L74.1999 148.67C74.9299 143.49 79.3699 139.64 84.5999 139.64H95.7899C96.6199 139.64 97.4399 139.74 98.2399 139.93C100.58 139.13 103.1 138.72 105.78 138.72C111.89 138.72 117.25 141.01 120.87 145.18C123.65 148.38 126.69 154.12 125.39 163.3L124.92 166.75C127.2 169 128.33 172.16 127.98 175.36L127.27 181.88C126.88 185.43 124.72 188.54 121.53 190.14C118.27 191.77 114.11 192.67 109.82 192.67L109.81 192.65ZM115.76 163.87C115.66 163.88 115.55 163.91 115.47 163.92C115.57 163.9 115.66 163.88 115.76 163.87Z" fill="#FDECE3"/>
<path d="M172.71 149.64C171.93 149.36 171.15 149.22 170.02 149.22C166.12 149.22 162.72 151.34 160.03 154.25L159.89 150.14H148.42L144.1 181.24H156.28L158.97 161.97C160.88 160.84 162.94 160.55 164.64 160.55C167.33 160.55 169.31 160.97 170.38 161.61L171.02 161.4L172.72 149.64H172.71Z" fill="#FEEDE4"/>
<path d="M156.27 191.73H144.09C141.05 191.73 138.16 190.42 136.17 188.12C134.18 185.83 133.27 182.79 133.69 179.78L138.01 148.68C138.73 143.49 143.17 139.63 148.41 139.63H159.88C160.84 139.63 161.78 139.76 162.66 140C165.03 139.14 167.49 138.71 170.01 138.71C172.31 138.71 174.3 139.05 176.29 139.77C180.97 141.47 183.81 146.22 183.1 151.14L181.4 162.9C180.83 166.83 178.1 170.1 174.34 171.36L173.7 171.57C171.9 172.17 170 172.27 168.19 171.88L166.68 182.68C165.96 187.87 161.52 191.73 156.28 191.73H156.27Z" fill="#FDECE3"/>
<path d="M203.38 170.68L206.28 150.14H196.36L195.65 151.27C193.67 150 191.33 149.22 188.35 149.22C177.09 149.22 170.43 158.36 170.43 170.12C170.43 176.99 173.83 182.16 180.7 182.16C184.74 182.16 188.49 180.39 191.54 177.13C192.32 180.25 194.52 182.16 198.48 182.16C201.81 182.16 204.57 181.45 205.99 180.74L206.84 174.22C203.51 174.86 202.94 173.79 203.37 170.68H203.38ZM191.34 169.55C190.14 171.32 188.51 172.45 186.31 172.45C184.11 172.45 183.05 170.68 183.05 167.35C183.05 162.25 185.1 158.21 189.43 158.21C190.7 158.21 191.84 158.49 192.83 158.99L191.34 169.54V169.55Z" fill="#FEEDE4"/>
<path d="M198.49 192.65C195.37 192.65 192.51 191.99 190.05 190.76C187.09 192 183.94 192.65 180.72 192.65C168.49 192.65 159.95 183.38 159.95 170.11C159.95 151.92 171.9 138.71 188.37 138.71C190.8 138.71 193.13 139.04 195.33 139.68C195.67 139.65 196.02 139.63 196.37 139.63H206.29C209.33 139.63 212.22 140.95 214.22 143.24C216.21 145.54 217.12 148.58 216.69 151.6L214.5 167.07C216.63 169.35 217.67 172.46 217.27 175.57L216.42 182.09C215.97 185.55 213.83 188.56 210.7 190.12C207.49 191.72 203.04 192.65 198.5 192.65H198.49ZM190.65 163.33L188.83 166.97C190.27 166.58 191.79 166.5 193.3 166.76C193.31 166.74 193.32 166.73 193.34 166.71V166.64C192.95 165.57 192.02 164.28 190.66 163.32L190.65 163.33Z" fill="#FDECE3"/>
<path d="M241.84 170.68L243.04 161.83C244.1 154.32 240.92 149.22 233.83 149.22C229.44 149.22 226.04 151.13 223.49 154.96L223.84 150.14H212.65L208.26 181.24H220.44L222.28 167.92C223.2 163.39 225.11 159.28 228.23 159.28C230.28 159.28 230.99 160.77 230.35 165.37L229.29 173.02C228.37 179.75 231.56 182.16 237.86 182.16C241.05 182.16 243.46 181.45 244.87 180.74L245.58 174.22C245.23 174.29 244.52 174.36 243.88 174.36C242.61 174.36 241.4 173.86 241.83 170.68H241.84Z" fill="#FEEDE4"/>
<path d="M237.87 192.65C233.32 192.65 229.49 191.71 226.43 189.86C224.72 191.04 222.66 191.73 220.45 191.73H208.27C205.23 191.73 202.34 190.41 200.34 188.12C198.35 185.82 197.44 182.78 197.87 179.77L202.26 148.67C202.99 143.49 207.43 139.64 212.66 139.64H223.85C224.68 139.64 225.5 139.74 226.3 139.93C228.64 139.13 231.16 138.72 233.84 138.72C239.95 138.72 245.31 141.01 248.93 145.18C251.71 148.38 254.75 154.12 253.45 163.3L252.98 166.75C255.25 169 256.39 172.16 256.04 175.36L255.33 181.88C254.94 185.43 252.78 188.54 249.59 190.14C246.33 191.77 242.17 192.67 237.88 192.67L237.87 192.65ZM243.82 163.87C243.72 163.88 243.62 163.91 243.54 163.92C243.63 163.9 243.73 163.88 243.82 163.87Z" fill="#FDECE3"/>
<path d="M264.08 158.21C266.56 158.21 266.91 160.9 266.91 162.74L277.68 160.12C277.68 153.11 274.07 149.21 266.06 149.21C254.58 149.21 247.15 157.36 247.15 168.76C247.15 176.69 251.9 182.15 261.81 182.15C267.83 182.15 273.14 179.88 275.69 177.69L274.27 169.76C271.65 171.67 269.1 172.95 266.05 172.95C261.66 172.95 259.75 170.61 259.75 166.22C259.75 162.47 260.81 158.22 264.07 158.22L264.08 158.21Z" fill="#FEEDE4"/>
<path d="M261.81 192.65C246.76 192.65 236.65 183.05 236.65 168.76C236.65 151.35 249.02 138.71 266.06 138.71C279.5 138.71 288.18 147.11 288.18 160.12C288.18 163.21 286.83 166.05 284.63 167.99L286.03 175.84C286.68 179.49 285.36 183.22 282.54 185.64C277.52 189.96 269.58 192.65 261.81 192.65V192.65Z" fill="#FDECE3"/>
<path d="M297.94 149.22C286.04 149.22 278.25 157.08 278.25 168.63C278.25 176.99 283.77 182.16 293.13 182.16C304.89 182.16 312.75 173.8 312.75 162.33C312.75 154.04 307.23 149.23 297.95 149.23L297.94 149.22ZM295.11 172.95C291.92 172.95 290.93 170.9 290.93 167.21C290.93 162.96 292.56 158.43 296.46 158.43C298.66 158.43 300 160.2 300 163.81C300 168.13 298.3 172.95 295.11 172.95Z" fill="#FEEDE4"/>
<path d="M293.12 192.65C277.94 192.65 267.74 182.99 267.74 168.62C267.74 151.29 280.44 138.71 297.93 138.71C313.07 138.71 323.23 148.2 323.23 162.31C323.23 179.89 310.56 192.64 293.11 192.64L293.12 192.65ZM289.8 164.71C290.63 166.55 293.01 168.93 296.45 168.93C298.64 168.93 300.37 167.72 301.17 166.7C300.31 164.62 297.7 162.45 295.11 162.45C292.52 162.45 290.74 163.68 289.81 164.71H289.8Z" fill="#FDECE3"/>
<path d="M347.23 170.68L348.43 161.83C349.49 154.32 346.31 149.22 339.22 149.22C334.83 149.22 331.43 151.13 328.88 154.96L329.23 150.14H318.04L313.65 181.24H325.83L327.67 167.92C328.59 163.39 330.5 159.28 333.62 159.28C335.67 159.28 336.38 160.77 335.74 165.37L334.68 173.02C333.76 179.75 336.95 182.16 343.25 182.16C346.44 182.16 348.85 181.45 350.26 180.74L350.97 174.22C350.62 174.29 349.91 174.36 349.27 174.36C347.99 174.36 346.79 173.86 347.22 170.68H347.23Z" fill="#FEEDE4"/>
<path d="M343.27 192.65C338.72 192.65 334.89 191.71 331.83 189.86C330.12 191.04 328.06 191.73 325.85 191.73H313.67C310.63 191.73 307.74 190.41 305.74 188.12C303.75 185.82 302.84 182.78 303.27 179.77L307.66 148.67C308.39 143.49 312.83 139.64 318.06 139.64H329.25C330.08 139.64 330.9 139.74 331.7 139.93C334.04 139.13 336.56 138.72 339.24 138.72C345.35 138.72 350.71 141.01 354.33 145.18C357.11 148.38 360.15 154.12 358.85 163.3L358.38 166.75C360.66 169 361.79 172.16 361.44 175.36L360.73 181.88C360.34 185.43 358.18 188.54 354.99 190.14C351.73 191.77 347.57 192.67 343.28 192.67L343.27 192.65ZM349.22 163.87C349.12 163.88 349.01 163.91 348.93 163.92C349.03 163.9 349.12 163.88 349.22 163.87Z" fill="#FDECE3"/>
<path d="M365.37 131.65C361.55 131.65 358 134.77 357.44 138.66C356.87 142.49 359.71 145.6 363.46 145.6C367.21 145.6 370.83 142.48 371.39 138.66C371.96 134.76 369.27 131.65 365.37 131.65Z" fill="#FEEDE4"/>
<path d="M363.45 156.1C358.57 156.1 353.97 154.01 350.83 150.38C347.71 146.76 346.33 141.93 347.04 137.12C348.36 128.03 356.24 121.15 365.36 121.15C370.26 121.15 374.86 123.21 377.98 126.81C381.1 130.42 382.49 135.29 381.78 140.17C380.45 149.11 372.41 156.1 363.46 156.1H363.45ZM363.45 135.1C362.65 135.1 361.26 135.36 361 137.12C360.83 138.27 361.25 139.57 362.1 140.55C362.95 141.54 364.2 142.15 365.37 142.15C366.02 142.15 367.57 141.96 367.83 140.17C368.01 138.98 367.6 137.66 366.74 136.66C365.9 135.68 364.67 135.1 363.46 135.1H363.45Z" fill="#FDECE3"/>
<path d="M366.29 170.68L369.19 150.14H357.01L353.82 172.17C352.69 180.24 356.16 182.16 361.61 182.16C365.72 182.16 368.06 181.24 369.47 180.74L369.89 174.22C366.63 174.72 365.85 173.94 366.28 170.68H366.29Z" fill="#FEEDE4"/>
<path d="M361.61 192.65C355.34 192.65 350.49 190.72 347.18 186.92C343.73 182.95 342.47 177.5 343.42 170.7L346.61 148.63C347.36 143.47 351.78 139.63 357 139.63H369.18C372.22 139.63 375.11 140.95 377.11 143.24C379.1 145.54 380.01 148.58 379.58 151.6L377.42 166.89C379.49 169.01 380.57 171.92 380.37 174.89L379.95 181.41C379.68 185.61 376.92 189.24 372.94 190.64L372.71 190.72C370.95 191.35 367.27 192.65 361.6 192.65H361.61Z" fill="#FDECE3"/>
<path d="M349.84 110H176.84V167H349.84V110Z" fill="#FDECE3"/>
<path d="M349.84 177.5H176.84C171.04 177.5 166.34 172.8 166.34 167V110C166.34 104.2 171.04 99.5 176.84 99.5H349.84C355.64 99.5 360.34 104.2 360.34 110V167C360.34 172.8 355.64 177.5 349.84 177.5V177.5ZM187.34 156.5H339.34V120.5H187.34V156.5V156.5Z" fill="#FEEDE4"/>
<path d="M337.15 25.22L336.81 25.24L336.4 25.27L335.85 25.31L335.17 25.36L334.38 25.42L333.49 25.48L332.51 25.55L331.46 25.62L330.35 25.7L329.2 25.78L328.01 25.86L326.81 25.95L325.6 26.04L324.4 26.13L323.22 26.21L322.63 27.45L322.03 28.6L321.42 29.66L320.81 30.64L320.19 31.54L319.57 32.36L318.95 33.11L318.33 33.79L317.72 34.4L317.11 34.95L316.51 35.44L315.92 35.88L315.35 36.26L314.79 36.59L314.25 36.88L313.73 37.12L312.39 35.88L310.86 34.82L309.14 33.95L307.24 33.26L305.17 32.76L302.93 32.45L300.52 32.34L297.95 32.43L296.39 32.57L294.86 32.78L293.37 33.05L291.91 33.38L290.49 33.77L289.1 34.22L287.75 34.73L286.44 35.29L285.16 35.91L283.92 36.58L282.73 37.3L281.58 38.07L280.47 38.89L279.4 39.76L278.38 40.68L277.4 41.65L276.47 42.66L275.59 43.71L274.76 44.81L273.98 45.95L273.25 47.13L273.2 47.23L262.84 37.67L262.74 37.57L262.05 37.01L261.29 36.54L263.11 26.81L245.44 10.49L229.67 11.61L228.33 18.69L221.3 12.2H221.25H221.21H221.16H221.1H221.03L220.95 12.21H220.86L220.76 12.22H220.65L220.53 12.24H220.4L220.27 12.26H220.13L219.98 12.28H219.82L219.65 12.3H219.48L219.3 12.33H219.11L218.92 12.36H218.72L218.51 12.39L218.3 12.41L218.08 12.43L217.85 12.45L217.62 12.47L217.38 12.49L217.14 12.51L216.89 12.53L216.64 12.55L216.38 12.57L216.12 12.59L215.86 12.61L215.59 12.63L215.32 12.65L215.04 12.67L214.76 12.69L214.48 12.71L214.2 12.73L213.91 12.75L213.62 12.77L213.33 12.79L213.04 12.81L212.74 12.83L212.44 12.85L212.14 12.87L211.84 12.89L211.54 12.91L211.24 12.93L210.94 12.95L210.64 12.97L210.34 12.99L210.04 13.01L209.74 13.03L209.44 13.05L209.14 13.07L208.84 13.09L208.54 13.11L208.24 13.13L207.94 13.15L207.65 13.17L207.36 13.19L207.21 13.57L207.06 13.94L206.91 14.3L206.76 14.66L206.61 15.01L206.46 15.35L206.31 15.68L206.16 16L206.01 16.32L205.86 16.63L205.71 16.93L205.56 17.23L205.41 17.52L205.26 17.8L205.11 18.08L204.96 18.35L204.81 18.61L204.66 18.87L204.51 19.12L204.37 19.36L204.23 19.6L204.09 19.83L203.95 20.06L203.81 20.28L203.67 20.49L203.53 20.7L203.39 20.9L203.25 21.1L203.11 21.29L202.97 21.48L202.83 21.66L202.69 21.84L202.55 22.01L202.48 22.1L193.86 14.14L193.64 14.16L193.41 14.18L193.18 14.2L192.95 14.22L192.71 14.24L192.47 14.26L192.23 14.28L191.99 14.3L191.75 14.32L191.5 14.34L191.25 14.36L191 14.38L190.75 14.4L190.5 14.42L190.25 14.44L190 14.46L189.75 14.48L189.5 14.5L189.25 14.52L189 14.54L188.75 14.56L188.5 14.58L188.25 14.6L188 14.62L187.75 14.64L187.51 14.66L187.27 14.68L187.03 14.7L186.79 14.72L186.56 14.74L186.33 14.76L186.1 14.78L185.88 14.8L185.66 14.82L185.44 14.84L185.23 14.86H185.02L184.82 14.89H184.62L184.43 14.92H184.24L184.06 14.95H183.88L183.71 14.97H183.54L183.38 14.99H183.23L183.08 15.01H182.94L182.81 15.03H182.69L182.57 15.05H182.46L182.36 15.06H182.27L182.19 15.07H182.12H182.06H182H181.95H181.91H181.88L181.86 15.09V15.11V15.14V15.18L181.85 15.23V15.29L181.83 15.36V15.44L181.81 15.53V15.63L181.79 15.73V15.84L181.77 15.96V16.09L181.75 16.22V16.37L181.74 16.53V16.7V16.87V17.05V17.24V17.44V17.64V17.85L181.76 18.07L181.78 18.29L181.8 18.52L181.82 18.75L181.85 18.99L181.88 19.24L181.91 19.49L181.95 19.75L181.99 20.01L182.04 20.28L182.09 20.55L182.15 20.82L182.21 21.1L182.28 21.38L182.36 21.67L182.44 21.96L182.53 22.25L182.62 22.55L182.72 22.85L182.83 23.15L182.95 23.45L183.07 23.76L183.2 24.07L183.34 24.38L183.49 24.69L183.64 25L183.8 25.32L183.97 25.64L184.15 25.96L184.34 26.28L184.54 26.6L184.75 26.92L184.97 27.24L185.2 27.56L185.44 27.88L185.69 28.2L185.95 28.52L186.22 28.84L186.5 29.16L186.79 29.47L187.09 29.78L187.41 30.09L187.74 30.4L187.93 30.57L187.88 30.59L197.71 39.66L197.11 39.68L195.61 39.82L194.14 40.03L192.7 40.3L191.29 40.63L189.92 41.03L188.58 41.49L187.28 42.01L186.01 42.58L184.78 43.21L184.45 43.4L184.52 43.21L184.61 42.97L184.69 42.73L184.76 42.48L184.83 42.23L184.89 41.98L184.95 41.73L185 41.48L185.06 41.13L185.11 40.78L185.15 40.44L185.17 40.1V39.88L185.18 39.66V39.44V39.22V39.01L185.15 38.8L185.13 38.59L185.1 38.38L185.07 38.18L185.03 37.98L184.99 37.78L184.94 37.58L184.89 37.39L184.83 37.2L184.77 37.01L184.71 36.82L184.64 36.64L184.57 36.46L184.49 36.28L184.41 36.11L184.32 35.94L184.23 35.77L184.13 35.61L184.03 35.45L183.93 35.29L183.82 35.14L183.71 34.99L183.59 34.84L183.47 34.7L183.38 34.59L183.46 34.56L165.79 18.24L165.71 18.27L165.68 18.24L165.55 18.1L165.42 17.97L165.28 17.84L165.14 17.71L165 17.59L164.85 17.47L164.7 17.36L164.55 17.25L164.39 17.14L164.23 17.04L164.07 16.94L163.9 16.85L163.73 16.76L163.56 16.68L163.38 16.6L163.2 16.52L163.02 16.45L162.83 16.38L162.64 16.32L162.45 16.26L162.25 16.21L162.05 16.16L161.85 16.12L161.65 16.08L161.44 16.05L161.23 16.02L161.02 16L160.81 15.98H160.59L160.37 15.96H160.15H159.93H159.7L159.47 15.98L159.22 16L158.97 16.03L158.72 16.06L158.47 16.1L158.22 16.15L157.97 16.2L157.72 16.26L157.47 16.32L157.22 16.39L156.98 16.46L156.74 16.54L156.5 16.63L156.26 16.72L156.02 16.82L155.78 16.92L155.55 17.03L155.32 17.14L155.09 17.26L154.86 17.38L154.63 17.51L154.41 17.64L154.19 17.77L153.97 17.91L153.75 18.05L153.53 18.2L153.32 18.35L153.11 18.51L152.9 18.67L152.7 18.83L152.5 19L152.3 19.17L152.1 19.35L151.91 19.53L151.72 19.71L151.53 19.9L151.35 20.09L151.17 20.28L150.99 20.48L150.82 20.68L150.65 20.88L150.49 21.09L150.33 21.3L150.17 21.51L150.02 21.73L149.87 21.95L149.73 22.17L149.59 22.39L149.46 22.62L149.33 22.85L149.2 23.08L149.08 23.31L148.96 23.55L148.85 23.79L148.74 24.03L148.64 24.27L148.54 24.51L148.45 24.76L148.36 25.01L148.28 25.26L148.21 25.51L148.14 25.76L148.08 26.01L148.02 26.26L147.97 26.52L147.91 26.86L147.86 27.19L147.83 27.52L147.81 27.84V28.06L147.8 28.28V28.5V28.71V28.92L147.83 29.13L147.85 29.34L147.88 29.54L147.91 29.74L147.95 29.94L147.99 30.14L148.04 30.33L148.09 30.52L148.15 30.71L148.21 30.9L148.28 31.08L148.35 31.26L148.43 31.44L148.51 31.62L148.59 31.79L148.68 31.96L148.77 32.13L148.87 32.29L148.97 32.45L149.08 32.61L149.19 32.76L149.3 32.91L149.42 33.06L149.54 33.2L149.67 33.34L149.8 33.48L149.89 33.57L149.79 33.6L160.51 43.5L155.48 43.86L153.46 44.08L151.62 44.43L149.93 44.9L148.38 45.48L146.94 46.15L145.59 46.89L144.31 47.7L143.08 48.55L141.87 49.44L140.67 50.35L139.45 51.26L138.67 51.82L131.86 45.53L115.86 46.67L116.02 47.85L116.17 49.11L116.3 50.45L116.41 51.87L116.49 53.35L116.53 54.9V56.51L116.46 58.18L116.41 59.05L116.34 59.94L116.28 60.6L102.89 48.24L102.88 48.23L102.34 47.81L101.73 47.47L101.06 47.2L100.33 46.99L99.54 46.85L98.69 46.77L97.78 46.75L96.82 46.79L96.01 46.86L95.18 46.96L94.34 47.09L93.49 47.25L92.64 47.43L91.8 47.63L90.97 47.84L90.16 48.07L89.37 48.31L88.61 48.56L87.88 48.81L87.2 49.07L86.56 49.33L85.97 49.59L85.44 49.84L84.98 50.09L83.6 60.21L76.07 53.26L75.19 52.29L74.17 51.45L73.02 50.73L71.73 50.14L70.3 49.68L68.73 49.35L67.02 49.16L65.17 49.1L63.18 49.18L61.68 49.32L60.21 49.53L58.77 49.8L57.36 50.13L55.99 50.53L54.65 50.99L53.35 51.51L52.08 52.08L50.85 52.71L49.66 53.39L48.51 54.13L47.4 54.92L46.33 55.76L45.3 56.65L44.31 57.58L43.37 58.56L42.47 59.58L41.62 60.64L40.81 61.75L40.05 62.9L39.34 64.08L38.68 65.3L38.07 66.56L37.51 67.85L37.01 69.17L36.56 70.52L36.16 71.9L35.82 73.31L35.53 74.75L35.3 76.21L35.13 77.7L35.02 79.21L34.99 81.3L35.12 83.29L35.41 85.17L35.87 86.94L36.49 88.59L37.28 90.12L38.24 91.51L39.37 92.77L40.09 93.39H40.08L56.86 108.89L57.04 109.09L57.56 109.53L57.75 109.71H57.76L58.33 110.2L59.8 111.16L60.64 111.57L27.1 113.95L24.58 126.23L36.13 136.89L42.25 142.55L332.34 121.95L342.64 121.22L345.16 108.94L327.94 93.04L327.49 92.62L318.68 93.25L318.89 93.15L320.12 92.45L321.31 91.7L321.62 91.48L322.46 90.89L323.57 90.04L324.64 89.14L325.66 88.19L325.98 87.86L326.64 87.19L327.57 86.15L328.45 85.07L329.29 83.94L329.9 83.03L330.08 82.77L330.31 82.4L330.82 81.56L331.46 80.4L331.51 80.32L332.14 79.04L332.33 78.6L332.72 77.73L332.88 77.32L333.24 76.39L333.55 75.48L333.71 75.02L333.87 74.47L334.12 73.62L334.4 72.48L334.47 72.19L334.77 70.74L335.01 69.26L335.16 67.98L335.19 67.76L335.3 66.24V65.59L335.33 64.26L335.27 63.35L335.21 62.39L334.95 60.63L334.59 59.19L334.54 58.99L336.02 58.47L337.43 57.91L338.77 57.32L340.05 56.7L341.26 56.06L342.41 55.39L343.5 54.71L344.53 54.01L345.5 53.3L346.41 52.58L347.26 51.86L348.06 51.13L348.81 50.41L349.5 49.69L350.14 48.98L350.74 48.28L351.29 47.6L351.79 46.94L352.25 46.3L352.67 45.69L353.04 45.11L353.37 44.56L353.67 44.04L353.93 43.56L354.15 43.13L354.34 42.74L354.5 42.4L354.62 42.12L354.71 41.89L354.78 41.72L354.83 41.58L337.16 25.26L337.15 25.22ZM102.88 65.57L103.33 65.99L103.11 66.09L102.75 66.28L102.81 65.95L102.88 65.56V65.57ZM288.05 69.89L287.64 71.28L287.34 72.5L287.64 71.28L288.05 69.89L288.49 68.6L288.05 69.89ZM286.69 76.27L286.59 77.12L286.48 78.65L286.45 79.6L286.48 78.65L286.59 77.12L286.69 76.27ZM203.08 82.66V82.24V82.66ZM203.2 80.2L203.35 79L203.44 78.49L203.35 79L203.2 80.2ZM188.88 75.23L188.63 75.89L188.4 76.57L188.63 75.89L188.88 75.23ZM188.05 77.67L187.78 78.63L187.44 80.04L187.33 80.61L187.44 80.04L187.78 78.63L188.05 77.67ZM186.64 85.94L186.75 84.43L186.83 83.74L186.75 84.43L186.64 85.94V87.54H186.63V85.94H186.64ZM69.51 87.97L69.6 87.46L69.51 87.97ZM69.15 92.17L69.18 90.9L69.21 90.46L69.18 90.9L69.15 92.17L69.17 92.76L69.15 92.17ZM103.95 89.18L104.03 88.78L103.95 89.18L103.8 89.31L103.95 89.18ZM104.23 87.72V87.67V87.72L104.2 87.86L104.23 87.72ZM104.51 86.27L104.65 85.56L104.78 84.86L104.91 84.18L105.03 83.52L105.05 83.41L105.03 83.52L104.91 84.18L104.78 84.86L104.65 85.56L104.51 86.27V86.32V86.27ZM105.43 81.17L105.49 80.74L105.43 81.17L105.35 81.7L105.43 81.17ZM120.07 84.69L119.93 85.46L119.8 86.2L119.77 86.34L119.8 86.2L119.93 85.46L120.07 84.69L120.12 84.39L120.07 84.69ZM121.83 74.82L121.9 74.39L121.96 74.05L121.9 74.39L121.83 74.82ZM122.44 70.61V70.65L122.42 70.9L122.38 71.22L122.42 70.9L122.44 70.65V70.61ZM122.27 72.06L122.23 72.32L122.27 72.06L122.3 71.84L122.27 72.06ZM121.53 76.55L121.39 77.33L121.36 77.51L121.39 77.33L121.53 76.55V76.49V76.55ZM121.07 79.17L120.96 79.77L120.81 80.6L120.66 81.43L120.51 82.26L120.36 83.08L120.31 83.33L120.36 83.08L120.51 82.26L120.66 81.43L120.81 80.6L120.96 79.77L121.07 79.17ZM101.94 90.9L101.24 91.45L100.38 92.08L101.24 91.45L101.94 90.9ZM86.16 109.42L87.02 108.98L87.37 108.81L88.54 108.17L89.68 107.51L90.04 107.29L90.78 106.83L91.31 106.49L91.84 106.15L92.86 105.45L93.84 104.75L94.59 104.19L94.78 104.05L95.67 103.35L96.52 102.66L97.23 102.06L97.32 101.98L98.08 101.31L98.79 100.66L99.45 100.04L99.69 99.8L100.06 99.44L100.3 99.2L100.62 98.88L101.14 98.35L101.19 98.3L101.61 97.86L102.02 97.41L102.38 97.01L102.68 96.66L102.88 96.42L102.93 96.36L102.95 97.93L103.09 99.43L103.29 100.46L103.36 100.85L103.76 102.2L104.07 102.93L104.29 103.45L104.58 103.96L104.95 104.61L105.49 105.32L105.76 105.68L106.7 106.64L107.17 107.01L107.78 107.49L108.17 107.72L108.7 108.04L85.51 109.69L85.58 109.66L86.15 109.39L86.16 109.42ZM132.1 106.38L132.4 106.22L132.68 106.06L133.62 105.51L134.8 104.74L135.93 103.91L137.02 103.03L138.06 102.1L138.66 101.51L139.06 101.12L139.55 100.6L140.02 100.09L140.93 99.01L141.8 97.89L142.63 96.72L143.41 95.51L143.66 95.09L144.15 94.26L144.64 93.36L144.85 92.97L145.07 92.53L145.5 91.64L145.54 91.54L159.53 104.46L132.03 106.41L132.09 106.38H132.1ZM179.37 102.86L180.03 102.46L180.69 102.06L181.93 101.23L182.41 100.88L183.09 100.38L183.61 99.97L184.17 99.53L185.17 98.69L185.39 98.5L186.09 97.88L186.51 97.5L186.93 97.12L187.38 96.69L187.68 96.41L188.35 95.76L188.89 96.77L189.01 96.96L189.51 97.73L190.2 98.62L190.97 99.45L191.81 100.22L192.73 100.92L193.59 101.46L193.73 101.55L194.58 101.99L178.96 103.1L179.37 102.88V102.86ZM220.22 99.84L221.33 99.28L222.41 98.7L223.46 98.1L223.97 97.79L224.48 97.48L225.46 96.85L226.41 96.21L226.95 95.83L227.33 95.57L227.92 95.14L232.41 99.28L219.47 100.2L220.24 99.84H220.22ZM251.65 87.66L260.38 95.72L260.76 96.03L261.01 96.26L262.06 97.01L262.21 97.12L262.29 97.17L249.68 98.07L251.63 87.67L251.65 87.66ZM281.62 95.73L282.17 95.39L282.72 95.05L283.78 94.35L284.59 93.78L284.8 93.63L285.77 92.9L286.69 92.17L286.95 91.96L287.57 91.45L287.92 91.14L288.38 90.74L289.14 90.06L289.77 90.93L290.46 91.74L290.83 92.11L291.21 92.49L292.02 93.18L292.63 93.63L292.89 93.82L293.36 94.11L293.83 94.4L293.97 94.48L294.71 94.87L281.52 95.81L281.64 95.74L281.62 95.73ZM282.73 80.19L275.68 73.68L282.73 80.19ZM122.27 67.69L122.16 67.23L122.27 67.69L122.33 68.08L122.27 67.69ZM121.46 65.51L121.13 65.06L121.46 65.51L121.73 66.02L121.46 65.51ZM120.59 64.47L120.89 64.78L120.59 64.47ZM101.18 77.26L101.37 77.22L101.18 77.26ZM55.38 83.67L55.21 84.06L54.78 85.2L55.21 84.06L55.38 83.67ZM54.26 86.74L54.56 85.84L54.26 86.74L53.86 88.12L53.72 88.7L53.86 88.12L54.26 86.74ZM331.39 33.75L330.55 32.98L331.39 33.75ZM314.07 48.9L315.63 48.76L317.64 48.69L315.63 48.76L314.07 48.9L313.62 48.96L314.07 48.9ZM308.17 50.1L309.59 49.71L310.11 49.59L309.59 49.71L308.17 50.1L306.78 50.55L306.34 50.71L306.78 50.55L308.17 50.1ZM304.12 51.62L304.59 51.42L304.12 51.62L302.84 52.24L302.21 52.58L302.84 52.24L304.12 51.62ZM158.13 66.75L157.11 67.51L156.48 67.96L157.11 67.51L158.13 66.75Z" fill="#D54127"/>
<path d="M221.31 12.65V12.55V12.46L221.32 12.39V12.33V12.28V12.24V12.21L221.27 12.22H221.23H221.18L221.12 12.23H221.05L220.97 12.24H220.88L220.78 12.25L220.68 12.26L220.56 12.27L220.44 12.28L220.3 12.29L220.16 12.3L220.01 12.31L219.85 12.32L219.69 12.33L219.51 12.34L219.33 12.35L219.14 12.37L218.95 12.38L218.75 12.4L218.54 12.41L218.33 12.43L218.11 12.44L217.88 12.46L217.65 12.47L217.41 12.49L217.17 12.51L216.93 12.53L216.67 12.54L216.42 12.56L216.16 12.58L215.89 12.6L215.63 12.62L215.35 12.64L215.08 12.66L214.8 12.68L214.52 12.7L214.23 12.72L213.95 12.74L213.66 12.76L213.36 12.78L213.07 12.8L212.77 12.82L212.48 12.84L212.18 12.86L211.88 12.88L211.58 12.91L211.28 12.93L210.98 12.95L210.67 12.97L210.37 12.99L210.07 13.01L209.77 13.03L209.47 13.06L209.17 13.08L208.87 13.1L208.57 13.12L208.27 13.14L207.98 13.16L207.68 13.18L207.39 13.2L207.24 13.58L207.1 13.96L206.95 14.32L206.8 14.68L206.65 15.02L206.5 15.36L206.35 15.7L206.21 16.02L206.06 16.34L205.91 16.65L205.76 16.95L205.62 17.25L205.47 17.54L205.32 17.82L205.18 18.09L205.03 18.36L204.89 18.62L204.74 18.88L204.6 19.13L204.45 19.37L204.31 19.61L204.16 19.84L204.02 20.06L203.87 20.28L203.73 20.5L203.59 20.71L203.44 20.91L203.3 21.11L203.16 21.3L203.02 21.49L202.88 21.67L202.74 21.85L202.6 22.03L202.46 22.2L202.32 22.36L202.18 22.52L202.04 22.68L201.9 22.83L201.76 22.98L201.62 23.13L201.49 23.27L201.35 23.41L201.21 23.54L201.08 23.68L200.94 23.8L200.81 23.93L200.68 24.05L200.54 24.17L200.41 24.29L200.28 24.4L200.14 24.52L200.01 24.63L199.88 24.73L199.75 24.84L199.62 24.94L199.49 25.05L199.36 25.15L199.24 25.25L199.11 25.34L198.98 25.44L198.86 25.53L198.73 25.63L198.61 25.72L198.48 25.81L198.46 25.79L198.42 25.76L198.39 25.74L198.35 25.71L198.31 25.68L198.27 25.64L198.22 25.6L198.17 25.56L198.12 25.51L198.06 25.45L198 25.39L197.93 25.33L197.86 25.26L197.79 25.18L197.72 25.1L197.64 25.02L197.56 24.92L197.47 24.83L197.39 24.72L197.3 24.62L197.21 24.5L197.12 24.38L197.03 24.25L196.93 24.12L196.84 23.98L196.74 23.84L196.64 23.69L196.55 23.53L196.45 23.37L196.35 23.19L196.25 23.02L196.15 22.83L196.05 22.64L195.95 22.44L195.85 22.24L195.75 22.03L195.65 21.81L195.55 21.58L195.45 21.35L195.36 21.11L195.26 20.86L195.17 20.6L195.08 20.34L194.99 20.06L194.9 19.78L194.82 19.5L194.74 19.2L194.66 18.89L194.58 18.58L194.5 18.26L194.43 17.93L194.36 17.59L194.29 17.25L194.23 16.89L194.17 16.53L194.12 16.16L194.07 15.78L194.02 15.39L193.98 14.99L193.94 14.58L193.9 14.16L193.68 14.18L193.46 14.19L193.23 14.21L192.99 14.23L192.76 14.24L192.52 14.26L192.28 14.28L192.04 14.29L191.79 14.31L191.54 14.33L191.3 14.35L191.05 14.36L190.8 14.38L190.54 14.4L190.29 14.42L190.04 14.43L189.79 14.45L189.53 14.47L189.28 14.49L189.03 14.51L188.78 14.52L188.53 14.54L188.28 14.56L188.03 14.58L187.79 14.59L187.54 14.61L187.3 14.63L187.06 14.65L186.83 14.66L186.59 14.68L186.36 14.7L186.13 14.71L185.91 14.73L185.69 14.74L185.47 14.76L185.26 14.77L185.05 14.79L184.84 14.8L184.65 14.82L184.45 14.83L184.26 14.84L184.08 14.86L183.9 14.87L183.73 14.88L183.57 14.89L183.41 14.91L183.25 14.92L183.11 14.93L182.97 14.94L182.84 14.95H182.71L182.6 14.96L182.49 14.97L182.39 14.98H182.3L182.22 14.99L182.14 15H182.08H182.02L181.98 15.01H181.94H181.92L181.89 15.03V15.06L181.88 15.09L181.87 15.13V15.19L181.86 15.25L181.85 15.32L181.84 15.4L181.83 15.48L181.82 15.58L181.81 15.68L181.8 15.79L181.79 15.91L181.78 16.04V16.17L181.77 16.32L181.76 16.48V16.65V16.82L181.75 17L181.76 17.19V17.39L181.77 17.59V17.8L181.79 18.02L181.8 18.24L181.82 18.47L181.84 18.7L181.87 18.94L181.9 19.19L181.93 19.44L181.97 19.69L182.01 19.95L182.06 20.22L182.12 20.49L182.17 20.76L182.24 21.04L182.31 21.32L182.38 21.61L182.47 21.9L182.55 22.19L182.65 22.49L182.75 22.79L182.86 23.09L182.97 23.39L183.1 23.7L183.23 24.01L183.37 24.32L183.51 24.63L183.67 24.94L183.83 25.26L184 25.57L184.18 25.89L184.37 26.21L184.57 26.53L184.78 26.85L185 27.16L185.23 27.48L185.47 27.8L185.71 28.12L185.97 28.44L186.24 28.76L186.52 29.07L186.82 29.39L187.12 29.7L187.44 30.01L187.76 30.32L188.1 30.63L188.45 30.94L188.82 31.24L189.19 31.54L189.58 31.84L189.99 32.13L190.4 32.42L190.83 32.71L191.27 33L191.73 33.28L192.2 33.56L192.69 33.83L203.12 33.09L203.88 32.73L204.63 32.38L205.35 32.01L206.05 31.65L206.74 31.28L207.4 30.9L208.04 30.53L208.66 30.15L209.26 29.77L209.84 29.38L210.41 29L210.95 28.61L211.48 28.22L211.98 27.83L212.47 27.44L212.95 27.05L213.4 26.66L213.84 26.26L214.26 25.87L214.67 25.48L215.06 25.09L215.43 24.7L215.79 24.31L216.14 23.92L216.47 23.54L216.78 23.15L217.08 22.77L217.37 22.39L217.65 22.02L217.91 21.64L218.16 21.27L218.39 20.91L218.62 20.54L218.83 20.19L219.03 19.83L219.22 19.48L219.4 19.14L219.57 18.8L219.73 18.46L219.88 18.14L220.02 17.81L220.15 17.5L220.27 17.19L220.38 16.89L220.48 16.59L220.58 16.3L220.67 16.02L220.75 15.75L220.82 15.48L220.89 15.23L220.95 14.98L221.01 14.74L221.05 14.51L221.1 14.29L221.14 14.08L221.17 13.87L221.2 13.68L221.23 13.5L221.25 13.33L221.26 13.17L221.28 13.02L221.29 12.89L221.3 12.76L221.31 12.65Z" fill="#8DD5F6"/>
<path d="M324.98 104.84L327.5 92.55L27.12 113.88L24.6 126.17L324.98 104.84Z" fill="#8DD5F6"/>
<path d="M167.51 23.71L167.52 23.48L167.53 23.26L167.52 23.05V22.83L167.51 22.62L167.49 22.4L167.47 22.19L167.44 21.99L167.41 21.78L167.37 21.58L167.33 21.38L167.29 21.19L167.23 20.99L167.18 20.8L167.12 20.61L167.05 20.43L166.98 20.25L166.91 20.07L166.83 19.89L166.75 19.72L166.66 19.54L166.57 19.38L166.48 19.21L166.38 19.05L166.27 18.9L166.16 18.74L166.05 18.59L165.94 18.44L165.81 18.3L165.69 18.16L165.56 18.02L165.43 17.89L165.3 17.76L165.16 17.64L165.01 17.51L164.87 17.4L164.72 17.28L164.56 17.17L164.4 17.07L164.24 16.97L164.08 16.87L163.91 16.78L163.74 16.69L163.57 16.61L163.39 16.53L163.21 16.45L163.03 16.38L162.84 16.31L162.65 16.25L162.46 16.19L162.26 16.14L162.06 16.09L161.86 16.05L161.66 16.01L161.45 15.98L161.24 15.95L161.03 15.93L160.81 15.91L160.6 15.9L160.38 15.89H160.15H159.93L159.7 15.9L159.47 15.91L159.22 15.93L158.97 15.96L158.72 15.99L158.47 16.03L158.22 16.08L157.97 16.13L157.72 16.19L157.48 16.25L157.23 16.32L156.99 16.39L156.75 16.47L156.5 16.56L156.26 16.65L156.03 16.74L155.79 16.84L155.56 16.95L155.32 17.06L155.09 17.18L154.86 17.3L154.63 17.42L154.41 17.55L154.19 17.69L153.97 17.83L153.75 17.97L153.53 18.12L153.32 18.27L153.11 18.43L152.9 18.59L152.7 18.76L152.5 18.92L152.3 19.1L152.1 19.27L151.91 19.45L151.72 19.64L151.54 19.83L151.35 20.02L151.17 20.21L151 20.41L150.83 20.61L150.66 20.81L150.5 21.02L150.34 21.23L150.18 21.44L150.03 21.66L149.88 21.88L149.74 22.1L149.6 22.32L149.46 22.55L149.33 22.78L149.21 23.01L149.09 23.25L148.97 23.48L148.86 23.72L148.75 23.96L148.65 24.2L148.56 24.45L148.47 24.69L148.38 24.94L148.3 25.19L148.23 25.44L148.16 25.69L148.09 25.95L148.04 26.2L147.99 26.46L147.93 26.79L147.88 27.12L147.84 27.45L147.82 27.78L147.81 28V28.21V28.43L147.82 28.64L147.83 28.85L147.85 29.06L147.87 29.27L147.9 29.47L147.93 29.68L147.97 29.87L148.01 30.07L148.06 30.27L148.11 30.46L148.17 30.65L148.23 30.83L148.29 31.02L148.36 31.2L148.44 31.38L148.52 31.55L148.6 31.72L148.69 31.89L148.78 32.06L148.88 32.22L148.98 32.38L149.09 32.54L149.2 32.69L149.31 32.84L149.43 32.99L149.55 33.13L149.68 33.27L149.8 33.41L149.94 33.54L150.07 33.67L150.21 33.79L150.36 33.91L150.51 34.03L150.66 34.14L150.81 34.25L150.97 34.36L151.13 34.46L151.3 34.55L151.46 34.65L151.63 34.74L151.81 34.82L151.98 34.9L152.16 34.98L152.35 35.05L152.53 35.11L152.72 35.18L152.91 35.23L153.11 35.29L153.31 35.33L153.51 35.38L153.71 35.41L153.91 35.45L154.12 35.48L154.33 35.5L154.54 35.52L154.76 35.53L154.97 35.54H155.19H155.41L155.64 35.53L155.86 35.52L156.11 35.5L156.36 35.47L156.6 35.44L156.85 35.4L157.09 35.35L157.34 35.3L157.58 35.24L157.83 35.18L158.07 35.11L158.31 35.04L158.55 34.96L158.79 34.88L159.03 34.79L159.26 34.69L159.5 34.59L159.73 34.48L159.97 34.37L160.2 34.26L160.43 34.14L160.65 34.01L160.88 33.88L161.1 33.75L161.32 33.61L161.54 33.47L161.75 33.32L161.97 33.17L162.18 33.01L162.39 32.85L162.59 32.69L162.79 32.52L162.99 32.35L163.19 32.17L163.38 31.99L163.58 31.81L163.76 31.62L163.95 31.44L164.13 31.24L164.3 31.05L164.48 30.85L164.65 30.64L164.81 30.44L164.97 30.23L165.13 30.02L165.28 29.81L165.43 29.59L165.58 29.37L165.72 29.15L165.85 28.93L165.99 28.7L166.11 28.47L166.23 28.24L166.35 28.01L166.46 27.77L166.57 27.54L166.67 27.3L166.77 27.06L166.86 26.81L166.95 26.57L167.03 26.33L167.1 26.08L167.17 25.83L167.23 25.58L167.29 25.33L167.34 25.08L167.4 24.73L167.45 24.39L167.49 24.04L167.51 23.71Z" fill="#8DD5F6"/>
<path d="M336.8 25.24L336.39 25.27L335.84 25.31L335.16 25.36L334.37 25.42L333.48 25.48L332.5 25.55L331.46 25.62L330.35 25.7L329.19 25.78L328.01 25.87L326.81 25.95L325.6 26.04L324.4 26.12L323.22 26.21L322.64 27.44L322.04 28.59L321.43 29.65L320.82 30.63L320.2 31.53L319.58 32.35L318.96 33.1L318.35 33.78L317.74 34.39L317.13 34.95L316.53 35.44L315.95 35.87L315.38 36.26L314.82 36.59L314.28 36.88L313.75 37.12L312.41 35.88L310.88 34.83L309.16 33.96L307.27 33.27L305.19 32.77L302.95 32.47L300.54 32.36L297.97 32.44L296.41 32.59L294.88 32.8L293.39 33.07L291.93 33.4L290.5 33.79L289.12 34.24L287.76 34.74L286.45 35.31L285.17 35.93L283.94 36.6L282.74 37.32L281.59 38.09L280.48 38.92L279.41 39.79L278.39 40.71L277.42 41.68L276.49 42.69L275.6 43.74L274.77 44.84L273.99 45.97L273.25 47.15L272.57 48.36L271.94 49.62L271.37 50.9L270.85 52.22L270.38 53.58L269.97 54.97L269.62 56.38L269.33 57.83L269.09 59.31L268.92 60.81L268.81 62.34L268.77 63.74L268.8 65.09L268.91 66.38L269.08 67.63L268.81 67.85L268.49 68.1L268.1 68.37L267.66 68.66L267.17 68.97L266.61 69.28L266 69.6L265.33 69.92L264.61 70.23L263.83 70.53L263 70.81L262.11 71.06L261.16 71.29L260.16 71.48L259.11 71.63L257.99 71.74L256.63 71.77L255.4 71.68L254.3 71.47L253.32 71.15L252.45 70.74L251.68 70.24L251.02 69.67L250.43 69.04L249.94 68.35L249.51 67.62L249.15 66.86L248.84 66.09L248.59 65.3L248.37 64.51L248.2 63.74L248.04 62.99L249.83 62.26L251.55 61.47L253.19 60.63L254.74 59.73L256.2 58.77L257.58 57.75L258.85 56.68L260.02 55.54L261.08 54.35L262.03 53.1L262.86 51.79L263.57 50.41L264.14 48.98L264.59 47.48L264.89 45.92L265.05 44.29L265.07 43.27L265 42.3L264.84 41.37L264.6 40.49L264.27 39.67L263.85 38.91L263.34 38.21L262.75 37.58L262.06 37.02L261.28 36.53L260.4 36.13L259.43 35.8L258.36 35.57L257.2 35.42L255.93 35.37L254.57 35.42L253.44 35.54L252.33 35.71L251.24 35.94L250.18 36.22L249.14 36.56L248.12 36.95L247.13 37.38L246.17 37.86L245.23 38.38L244.31 38.94L243.42 39.53L242.56 40.16L241.72 40.82L240.91 41.5L240.13 42.21L239.37 42.95L245.45 10.5L229.68 11.62L219.92 63.39L219.1 64.11L218.15 64.89L217.08 65.73L215.89 66.61L214.59 67.51L213.18 68.42L211.67 69.33L210.07 70.23L208.38 71.09L206.61 71.9L204.76 72.65L202.85 73.32L200.88 73.91L198.85 74.38L196.77 74.74L194.64 74.97L193.44 75.01L192.33 74.96L191.3 74.83L190.36 74.6L189.5 74.29L188.72 73.89L188.03 73.4L187.42 72.82L186.89 72.15L186.44 71.4L186.07 70.56L185.79 69.64L185.58 68.63L185.45 67.53L185.4 66.35L185.43 65.08L185.52 63.89L185.67 62.69L185.87 61.51L186.13 60.35L186.45 59.21L186.83 58.12L187.26 57.08L187.76 56.1L188.32 55.19L188.93 54.35L189.61 53.61L190.35 52.97L191.16 52.44L192.02 52.02L192.96 51.74L193.96 51.59H194.68L195.32 51.67L195.89 51.84L196.38 52.09L196.81 52.4L197.18 52.78L197.49 53.21L197.75 53.69L197.95 54.2L198.11 54.75L198.23 55.32L198.32 55.9L198.37 56.49L198.39 57.08V57.67L198.37 58.23L212.49 53.86L212.53 52.05L212.43 50.35L212.21 48.78L211.86 47.32L211.37 45.98L210.76 44.76L210.01 43.67L209.13 42.7L208.11 41.86L206.96 41.14L205.67 40.56L204.24 40.1L202.67 39.78L200.96 39.58L199.11 39.53L197.12 39.6L195.62 39.75L194.15 39.95L192.71 40.22L191.3 40.56L189.93 40.96L188.59 41.41L187.29 41.93L186.02 42.5L184.79 43.13L183.6 43.81L182.45 44.55L181.33 45.33L180.26 46.17L179.23 47.05L178.24 47.99L177.3 48.96L176.4 49.99L175.55 51.05L174.75 52.16L173.99 53.3L173.28 54.49L172.62 55.71L172.01 56.97L171.46 58.26L170.95 59.58L170.5 60.93L170.1 62.32L169.76 63.73L169.48 65.17L169.25 66.63L169.08 68.12L168.97 69.63L168.95 72L169.14 74.24L169.04 74.08L168.49 74.5L167.9 74.93L167.28 75.36L166.64 75.8L165.99 76.24L165.32 76.68L164.64 77.1L163.96 77.5L163.28 77.88L162.61 78.23L161.94 78.54L161.29 78.82L160.66 79.05L160.06 79.24L159.49 79.37L158.95 79.44L158.37 79.43L157.86 79.34L157.41 79.13L157.03 78.82L156.74 78.39L156.53 77.83L156.43 77.13L156.42 76.29L156.52 75.36L156.72 74.28L162.62 43.28L155.49 43.79L153.47 44.01L151.63 44.36L149.94 44.84L148.39 45.41L146.95 46.08L145.6 46.83L144.31 47.63L143.08 48.49L141.87 49.37L140.67 50.28L139.44 51.19L138.19 52.1L136.87 52.98L135.47 53.82L133.97 54.62L132.35 55.34L132.39 54L132.41 52.68L132.4 51.37L132.36 50.1L132.29 48.86L132.18 47.67L132.04 46.54L131.86 45.47L115.87 46.6L116.03 47.78L116.18 49.05L116.32 50.39L116.43 51.8L116.5 53.29L116.54 54.84L116.53 56.45L116.47 58.12L116.42 58.98L116.35 59.87L116.27 60.77L116.17 61.69L116.06 62.62L115.92 63.55L115.78 64.49L115.61 65.43L115.43 66.37L115.23 67.31L115.01 68.23L114.77 69.15L114.51 70.06L114.23 70.94L113.94 71.81L113.62 72.66L113.28 73.48L112.92 74.27L112.54 75.03L112.14 75.76L111.71 76.45L111.26 77.1L110.79 77.71L110.3 78.27L109.78 78.79L109.24 79.25L108.67 79.65L108.08 80L107.46 80.29L106.82 80.51L106.15 80.66L105.46 80.75L104.41 80.73L103.51 80.5L102.76 80.09L102.17 79.49L101.72 78.71L101.43 77.77L101.28 76.67L101.27 75.42L101.34 74.64L101.37 74.34L101.43 73.98L101.49 73.55L101.57 73.06L101.66 72.52L101.76 71.93L101.86 71.29L101.98 70.61L102.11 69.9L102.24 69.15L102.38 68.38L102.52 67.59L102.66 66.78L102.81 65.96L102.96 65.13L103.11 64.3L103.26 63.47L103.41 62.64L103.55 61.83L103.7 61.03L103.83 60.25L103.96 59.49L104.09 58.77L104.21 58.08L104.31 57.43L104.41 56.82L104.5 56.26L104.58 55.75L104.64 55.3L104.69 54.92L104.73 54.6L104.75 54.35L104.77 53.28L104.71 52.29L104.58 51.4L104.38 50.59L104.11 49.87L103.77 49.22L103.36 48.65L102.88 48.16L102.34 47.75L101.73 47.4L101.06 47.13L100.33 46.92L99.54 46.78L98.69 46.7L97.78 46.69L96.82 46.73L96.01 46.8L95.18 46.9L94.34 47.03L93.49 47.19L92.64 47.37L91.8 47.56L90.97 47.78L90.16 48.01L89.37 48.25L88.61 48.49L87.89 48.75L87.2 49.01L86.56 49.27L85.98 49.52L85.45 49.78L84.98 50.02L83.49 60.97L84 60.86L84.59 60.75L85.22 60.66L85.84 60.6L86.4 60.59L86.87 60.67L87.25 60.83L87.54 61.09L87.75 61.45L87.88 61.92L87.94 62.51L87.93 63.21L87.91 63.55L87.87 63.94L87.81 64.38L87.74 64.87L87.66 65.4L87.56 65.97L87.46 66.57L87.34 67.21L87.22 67.87L87.09 68.55L86.96 69.25L86.82 69.96L86.68 70.69L86.55 71.42L86.41 72.15L86.27 72.87L85.5 73.56L84.59 74.32L83.54 75.15L82.37 76.02L81.07 76.92L79.66 77.83L78.14 78.75L76.52 79.65L74.8 80.52L73 81.34L71.12 82.11L69.16 82.79L67.13 83.39L65.04 83.88L62.9 84.25L60.71 84.48L59.51 84.52L58.39 84.47L57.37 84.34L56.42 84.11L55.56 83.8L54.79 83.4L54.09 82.91L53.48 82.33L52.95 81.67L52.5 80.91L52.14 80.08L51.85 79.15L51.64 78.14L51.51 77.04L51.47 75.86L51.5 74.6L51.59 73.4L51.73 72.2L51.94 71.02L52.2 69.86L52.51 68.72L52.89 67.63L53.33 66.59L53.82 65.61L54.38 64.7L55 63.87L55.67 63.12L56.42 62.48L57.22 61.95L58.09 61.53L59.02 61.25L60.02 61.1H60.74L61.38 61.18L61.95 61.35L62.45 61.6L62.88 61.92L63.24 62.29L63.55 62.72L63.81 63.2L64.02 63.71L64.18 64.26L64.3 64.83L64.38 65.41L64.43 66L64.45 66.59V67.18L64.43 67.74L78.55 63.37L78.59 61.56L78.49 59.86L78.27 58.29L77.92 56.83L77.44 55.49L76.82 54.28L76.07 53.18L75.19 52.21L74.17 51.37L73.02 50.66L71.73 50.07L70.3 49.61L68.73 49.29L67.03 49.1L65.18 49.04L63.19 49.12L61.69 49.26L60.21 49.46L58.77 49.74L57.37 50.07L55.99 50.47L54.65 50.92L53.35 51.44L52.08 52.01L50.85 52.64L49.66 53.32L48.51 54.06L47.4 54.84L46.32 55.68L45.29 56.56L44.31 57.5L43.36 58.48L42.47 59.5L41.62 60.56L40.81 61.67L40.05 62.81L39.34 64L38.68 65.22L38.08 66.48L37.52 67.77L37.01 69.09L36.56 70.44L36.17 71.83L35.83 73.24L35.54 74.68L35.31 76.14L35.14 77.63L35.03 79.14L35 81.23L35.13 83.22L35.43 85.1L35.88 86.87L36.51 88.53L37.3 90.05L38.26 91.45L39.38 92.7L40.68 93.81L42.14 94.77L43.78 95.57L45.59 96.21L47.57 96.68L49.73 96.96L52.06 97.07L54.57 96.98L56.09 96.84L57.58 96.63L59.05 96.36L60.49 96.04L61.9 95.66L63.28 95.24L64.62 94.76L65.94 94.25L67.22 93.7L68.46 93.12L69.67 92.51L70.84 91.88L71.98 91.22L73.08 90.55L74.14 89.86L75.15 89.17L76.13 88.47L77.07 87.76L77.96 87.07L78.81 86.37L79.61 85.69L80.37 85.03L81.08 84.38L81.74 83.76L82.36 83.16L82.92 82.6L83.44 82.07L83.9 81.57L84.31 81.12L84.67 80.72L84.98 80.37L85.23 80.07L85.24 81.64L85.38 83.14L85.66 84.57L86.06 85.91L86.59 87.17L87.26 88.34L88.06 89.41L89.01 90.37L90.09 91.22L91.31 91.96L92.68 92.58L94.19 93.07L95.85 93.42L97.66 93.64L99.62 93.71L101.73 93.63L103.35 93.48L104.93 93.26L106.46 92.98L107.94 92.62L109.38 92.21L110.78 91.73L112.13 91.19L113.44 90.59L114.71 89.93L115.93 89.21L117.11 88.44L118.24 87.61L119.33 86.73L120.37 85.8L121.37 84.82L122.33 83.79L123.24 82.72L124.11 81.6L124.94 80.43L125.72 79.22L126.46 77.97L127.16 76.68L127.81 75.34L128.42 73.98L128.98 72.57L129.51 71.13L129.98 69.66L130.42 68.16L130.81 66.62L131.16 65.06L131.47 63.47L131.73 61.85L133.42 61.48L135.12 61.03L136.8 60.51L138.46 59.92L140.05 59.25L141.58 58.5L143.02 57.67L144.36 56.76L140.53 77.38L140.2 79.41L140.04 81.23L140.01 82.6L140.09 83.84L140.28 84.95L140.55 85.94L140.93 86.81L141.39 87.57L141.94 88.22L142.57 88.77L143.28 89.22L144.07 89.58L144.93 89.86L145.86 90.06L146.85 90.19L147.91 90.25H149.02L150.19 90.19L152.08 89.99L153.88 89.65L155.6 89.21L157.24 88.66L158.8 88.03L160.28 87.33L161.68 86.56L163 85.76L164.24 84.93L165.4 84.08L166.48 83.23L167.47 82.39L168.39 81.58L169.23 80.81L169.98 80.09L170.65 79.45L171.2 80.46L171.81 81.42L172.51 82.31L173.28 83.14L174.12 83.91L175.04 84.6L176.04 85.23L177.11 85.79L178.26 86.28L179.49 86.69L180.8 87.02L182.18 87.28L183.64 87.45L185.19 87.54L186.81 87.55L188.5 87.47L189.9 87.34L191.28 87.16L192.64 86.92L193.97 86.64L195.27 86.31L196.55 85.94L197.8 85.53L199.03 85.08L200.22 84.6L201.39 84.09L202.53 83.55L203.64 82.98L204.72 82.4L205.77 81.8L206.78 81.18L207.76 80.56L208.71 79.92L209.62 79.28L210.5 78.63L211.34 77.99L212.15 77.35L212.92 76.72L213.65 76.1L214.34 75.49L215 74.89L215.61 74.32L216.18 73.77L216.71 73.24L217.2 72.74L217.64 72.27L218.04 71.84L218.4 71.45L216 84.19L231.77 83.07L234.88 66.48L236.62 66.15L237.07 68.19L237.58 70.12L238.16 71.91L238.81 73.59L239.53 75.13L240.34 76.54L241.24 77.82L242.24 78.96L243.34 79.96L244.54 80.82L245.85 81.53L247.28 82.1L248.84 82.51L250.52 82.76L252.34 82.86L254.3 82.8L255.55 82.66L256.8 82.42L258.04 82.09L259.26 81.69L260.46 81.21L261.65 80.67L262.8 80.08L263.93 79.44L265.03 78.76L266.08 78.06L267.1 77.34L268.07 76.61L269 75.88L269.87 75.16L270.69 74.45L271.44 73.77L272.07 74.64L272.76 75.45L273.51 76.2L274.32 76.9L275.19 77.53L276.12 78.11L277.11 78.62L278.16 79.07L279.26 79.46L280.42 79.79L281.64 80.05L282.91 80.25L284.24 80.38L285.62 80.44H287.05L288.53 80.37L290.07 80.22L291.58 80.01L293.06 79.73L294.51 79.39L295.92 78.98L297.3 78.52L298.65 77.99L299.95 77.4L301.22 76.76L302.46 76.06L303.65 75.31L304.8 74.5L305.91 73.65L306.98 72.75L308 71.8L308.98 70.8L309.91 69.76L310.79 68.67L311.63 67.55L312.41 66.38L313.15 65.18L313.84 63.94L314.47 62.66L315.05 61.35L315.57 60.01L316.04 58.64L316.45 57.24L316.81 55.82L317.1 54.36L317.34 52.89L317.51 51.39L317.63 49.87L317.66 47.89L317.54 46.02L317.28 44.27L316.87 42.62L318.35 42.1L319.76 41.54L321.1 40.95L322.38 40.33L323.59 39.69L324.74 39.02L325.82 38.34L326.85 37.64L327.82 36.92L328.73 36.2L329.58 35.48L330.38 34.75L331.13 34.03L331.82 33.31L332.47 32.6L333.06 31.91L333.61 31.22L334.11 30.56L334.57 29.92L334.99 29.31L335.36 28.72L335.69 28.17L335.99 27.66L336.25 27.18L336.47 26.75L336.66 26.36L336.81 26.03L336.94 25.75L337.03 25.52L337.1 25.35L337.15 25.22L336.8 25.24Z" fill="#8DD5F6"/>
<path d="M301.07 51.93L301.03 52.99L300.93 54.34L300.75 55.69L300.5 57.02L300.18 58.32L299.79 59.6L299.34 60.82L298.83 61.99L298.26 63.08L297.63 64.1L296.94 65.03L296.19 65.85L295.4 66.56L294.55 67.15L293.65 67.61L292.71 67.92L291.72 68.07L290.82 68.1L290 68.04L289.25 67.91L288.57 67.69L287.95 67.4L287.41 67.03L286.93 66.58L286.52 66.06L286.16 65.47L285.87 64.8L285.64 64.06L285.46 63.25L285.34 62.37L285.27 61.42L285.25 60.41L285.29 59.32L285.39 58.03L285.56 56.74L285.81 55.46L286.12 54.2L286.5 52.97L286.95 51.79L287.48 50.66L288.07 49.6L288.74 48.61L289.47 47.71L290.28 46.9L291.16 46.21L292.11 45.63L293.13 45.17L294.23 44.86L295.39 44.7L296.1 44.68L296.76 44.73L297.37 44.86L297.95 45.05L298.48 45.32L298.96 45.66L299.39 46.06L299.78 46.55L300.12 47.1L300.41 47.72L300.64 48.42L300.83 49.19L300.96 50.03L301.04 50.94L301.07 51.93Z" fill="#D54127"/>
<path d="M249.22 49.58L249.23 50.12L249.13 50.88L248.9 51.6L248.55 52.29L248.09 52.95L247.53 53.57L246.87 54.16L246.12 54.72L245.28 55.25L244.37 55.74L243.39 56.19L242.35 56.62L241.25 57L240.11 57.35L238.92 57.67L237.69 57.95L236.43 58.19L236.83 56.42L237.2 55.61L237.59 54.81L238.01 54.01L238.47 53.23L238.95 52.47L239.47 51.74L240.01 51.04L240.59 50.39L241.19 49.78L241.82 49.23L242.49 48.74L243.18 48.31L243.9 47.95L244.65 47.67L245.43 47.47L246.23 47.37L247.04 47.38L247.7 47.53L248.23 47.79L248.64 48.14L248.93 48.58L249.12 49.06L249.22 49.58Z" fill="#D54127"/>
<path d="M24.74 170.75H40.32L38.9 181.23H10.5L16.88 134.48H29.7L24.74 170.75Z" fill="#0B6384"/>
<path d="M75.31 170.68C74.89 173.8 75.45 174.86 78.78 174.22L77.93 180.74C76.51 181.45 73.75 182.16 70.42 182.16C66.45 182.16 64.26 180.25 63.48 177.13C60.43 180.39 56.68 182.16 52.64 182.16C45.77 182.16 42.37 176.99 42.37 170.12C42.37 158.36 49.03 149.22 60.29 149.22C63.26 149.22 65.6 150 67.59 151.27L68.3 150.14H78.22L75.32 170.68H75.31ZM63.27 169.55L64.76 159C63.77 158.5 62.64 158.22 61.36 158.22C57.04 158.22 54.98 162.26 54.98 167.36C54.98 170.69 56.11 172.46 58.24 172.46C60.37 172.46 62.06 171.33 63.27 169.56V169.55Z" fill="#0B6384"/>
<path d="M117.53 174.22L116.82 180.74C115.4 181.45 113 182.16 109.81 182.16C103.51 182.16 100.32 179.75 101.24 173.02L102.3 165.37C102.94 160.77 102.23 159.28 100.18 159.28C97.06 159.28 95.15 163.39 94.23 167.92L92.39 181.24H80.21L84.6 150.15H95.79L95.44 154.97C97.99 151.15 101.39 149.23 105.78 149.23C112.86 149.23 116.05 154.33 114.99 161.84L113.79 170.69C113.36 173.88 114.57 174.37 115.84 174.37C116.48 174.37 117.19 174.3 117.54 174.23L117.53 174.22Z" fill="#0B6384"/>
<path d="M138.99 148.3L138.78 150.14H146.29L144.87 159.35H137.5L134.45 182.65C133.03 192.78 126.52 197.38 118.37 197.38C115.11 197.38 112.7 196.6 111.07 195.54L113.48 187.47C114.47 187.82 115.53 188.04 116.74 188.04C120.07 188.04 121.84 187.61 122.55 181.88L125.45 159.36H118.86L120.21 150.15H126.66L127.09 146.89C128.51 136.05 134.6 130.74 143.03 130.74C146.22 130.74 148.77 131.45 150.68 132.58L148.48 141.29C147.35 140.65 146.28 140.37 144.94 140.37C141.61 140.37 139.84 141.86 138.99 148.3Z" fill="#0B6384"/>
<path d="M172.71 149.64L171.01 161.4L170.37 161.61C169.31 160.97 167.32 160.55 164.63 160.55C162.93 160.55 160.88 160.83 158.96 161.97L156.27 181.24H144.09L148.41 150.15H159.88L160.02 154.26C162.71 151.36 166.11 149.23 170.01 149.23C171.14 149.23 171.92 149.37 172.7 149.65L172.71 149.64Z" fill="#0B6384"/>
<path d="M203.38 170.68C202.95 173.8 203.52 174.86 206.85 174.22L206 180.74C204.58 181.45 201.82 182.16 198.49 182.16C194.52 182.16 192.33 180.25 191.55 177.13C188.5 180.39 184.75 182.16 180.71 182.16C173.84 182.16 170.44 176.99 170.44 170.12C170.44 158.36 177.1 149.22 188.36 149.22C191.33 149.22 193.67 150 195.66 151.27L196.37 150.14H206.29L203.39 170.68H203.38ZM191.34 169.55L192.83 159C191.84 158.5 190.71 158.22 189.43 158.22C185.11 158.22 183.05 162.26 183.05 167.36C183.05 170.69 184.18 172.46 186.31 172.46C188.44 172.46 190.13 171.33 191.34 169.56V169.55Z" fill="#0B6384"/>
<path d="M245.59 174.22L244.88 180.74C243.46 181.45 241.06 182.16 237.87 182.16C231.57 182.16 228.38 179.75 229.3 173.02L230.36 165.37C231 160.77 230.29 159.28 228.24 159.28C225.12 159.28 223.21 163.39 222.29 167.92L220.45 181.24H208.27L212.66 150.15H223.85L223.5 154.97C226.05 151.15 229.45 149.23 233.84 149.23C240.92 149.23 244.11 154.33 243.05 161.84L241.85 170.69C241.42 173.88 242.63 174.37 243.9 174.37C244.54 174.37 245.25 174.3 245.6 174.23L245.59 174.22Z" fill="#0B6384"/>
<path d="M247.15 168.77C247.15 157.37 254.59 149.22 266.06 149.22C274.06 149.22 277.68 153.12 277.68 160.13L266.91 162.75C266.91 160.91 266.56 158.22 264.08 158.22C260.82 158.22 259.76 162.47 259.76 166.22C259.76 170.61 261.67 172.95 266.06 172.95C269.11 172.95 271.66 171.67 274.28 169.76L275.7 177.69C273.15 179.89 267.84 182.15 261.82 182.15C251.9 182.15 247.16 176.7 247.16 168.76L247.15 168.77Z" fill="#0B6384"/>
<path d="M278.24 168.62C278.24 157.07 286.03 149.21 297.93 149.21C307.21 149.21 312.73 154.03 312.73 162.31C312.73 173.78 304.87 182.14 293.11 182.14C283.76 182.14 278.24 176.97 278.24 168.61V168.62ZM299.99 163.8C299.99 160.19 298.64 158.42 296.45 158.42C292.55 158.42 290.93 162.95 290.93 167.2C290.93 170.88 291.92 172.94 295.11 172.94C298.3 172.94 300 168.12 300 163.8H299.99Z" fill="#0B6384"/>
<path d="M350.99 174.22L350.28 180.74C348.86 181.45 346.46 182.16 343.27 182.16C336.97 182.16 333.78 179.75 334.7 173.02L335.76 165.37C336.4 160.77 335.69 159.28 333.64 159.28C330.52 159.28 328.61 163.39 327.69 167.92L325.85 181.24H313.67L318.06 150.15H329.25L328.9 154.97C331.45 151.15 334.85 149.23 339.24 149.23C346.32 149.23 349.51 154.33 348.45 161.84L347.25 170.69C346.82 173.88 348.03 174.37 349.3 174.37C349.94 174.37 350.65 174.3 351 174.23L350.99 174.22Z" fill="#0B6384"/>
<path d="M353.82 172.17L357.01 150.14H369.19L366.29 170.68C365.86 173.94 366.64 174.72 369.9 174.22L369.47 180.74C368.05 181.24 365.72 182.16 361.61 182.16C356.16 182.16 352.69 180.25 353.82 172.17ZM357.43 138.67C358 134.77 361.54 131.66 365.36 131.66C369.18 131.66 371.95 134.78 371.38 138.67C370.81 142.49 367.27 145.61 363.45 145.61C359.63 145.61 356.86 142.49 357.43 138.67Z" fill="#0B6384"/>
</g>
<defs>
<clipPath id="clip0_2259_19143">
<rect width="381.96" height="207.88" fill="white"/>
</clipPath>
</defs>
</svg>
