<svg width="360" height="208" viewBox="0 0 360 208" fill="none" xmlns="http://www.w3.org/2000/svg">
<g clip-path="url(#clip0_2259_19064)">
<path d="M271.91 137.84H124.91V178.84H271.91V137.84Z" fill="#FDECE3"/>
<path d="M331.18 25.6L330.83 25.63L330.41 25.66L329.85 25.7L329.15 25.75L328.34 25.81L327.43 25.87L326.43 25.94L325.35 26.02L324.21 26.1L323.03 26.18L321.81 26.27L320.58 26.36L319.34 26.45L318.11 26.54L316.9 26.63L316.3 27.9L315.69 29.08L315.07 30.17L314.44 31.17L313.81 32.09L313.18 32.93L312.55 33.7L311.92 34.4L311.29 35.03L310.67 35.6L310.06 36.1L309.46 36.55L308.87 36.94L308.3 37.28L307.74 37.57L307.2 37.82L305.82 36.55L304.25 35.47L302.49 34.57L300.55 33.87L298.43 33.36L296.13 33.05L293.66 32.94L291.02 33.03L289.42 33.18L287.85 33.39L286.32 33.67L284.82 34.01L283.36 34.41L281.94 34.87L280.55 35.39L279.2 35.97L277.89 36.6L276.62 37.29L275.39 38.03L274.21 38.82L273.07 39.67L271.98 40.57L270.93 41.51L269.93 42.5L268.98 43.54L268.08 44.62L267.23 45.74L266.43 46.91L265.68 48.12L265.62 48.22L255 38.41L254.9 38.3L254.19 37.72L253.41 37.24L255.28 27.26L237.15 10.52L220.97 11.67L219.6 18.94L212.39 12.28H212.34H212.3H212.25H212.19H212.12L212.04 12.29H211.95L211.85 12.3H211.74L211.62 12.32H211.49L211.35 12.34H211.28L211.21 12.35H211.06L210.98 12.37H210.9L210.73 12.39H210.55L210.36 12.42H210.17L209.97 12.45H209.76L209.55 12.48L209.33 12.5L209.1 12.52L208.87 12.54L208.63 12.56L208.39 12.58L208.16 12.6H208.14L207.89 12.62L207.63 12.64L207.37 12.66L207.1 12.68L206.83 12.7L206.55 12.72L206.27 12.74L205.99 12.76L205.72 12.78H205.7H205.68L205.41 12.8L205.12 12.82L204.83 12.84L204.53 12.86L204.23 12.88H204.21L203.93 12.9L203.65 12.92H203.63L203.33 12.94L203.02 12.96L202.71 12.98L202.4 13L202.09 13.02L201.78 13.04L201.49 13.06H201.47H201.45L201.16 13.08L200.85 13.1L200.54 13.12L200.23 13.14L199.92 13.16L199.61 13.18L199.3 13.2L199 13.22L198.7 13.24L198.4 13.26L198.1 13.28L197.95 13.67L197.87 13.86L197.79 14.05L197.64 14.42L197.49 14.79L197.34 15.15L197.19 15.5L197.04 15.84L196.89 16.17L196.74 16.5L196.65 16.69L196.59 16.82L196.44 17.13L196.29 17.43L196.14 17.73L195.99 18.02L195.84 18.3L195.8 18.37L195.69 18.57L195.54 18.84L195.39 19.1L195.24 19.36L195.09 19.61L194.94 19.85L194.79 20.09L194.64 20.32L194.49 20.55L194.34 20.77L194.19 20.98L194.04 21.19L193.89 21.39L193.74 21.59L193.59 21.78L193.44 21.97L193.3 22.15L193.16 22.33L193.08 22.42L184.24 14.26L184.03 14.28H184.02L183.79 14.3L183.55 14.32L183.31 14.34L183.07 14.36L182.83 14.38L182.58 14.4L182.33 14.42L182.08 14.44H181.95L181.82 14.46H181.69L181.57 14.48L181.31 14.5L181.05 14.52L180.79 14.54L180.53 14.56L180.27 14.58H180.25L180.01 14.6L179.75 14.62L179.49 14.64L179.23 14.66L178.97 14.68L178.71 14.7L178.46 14.72L178.21 14.74L177.96 14.76L177.71 14.78L177.46 14.8L177.21 14.82L176.97 14.84L176.73 14.86L176.49 14.88L176.26 14.9L176.03 14.92L175.8 14.94L175.58 14.96L175.36 14.98L175.15 15H174.94L174.74 15.03H174.54L174.35 15.06H174.16L173.98 15.09H173.8L173.63 15.11H173.47L173.31 15.13H173.16L173.02 15.15H172.95H172.88H172.75L172.69 15.16H172.63L172.52 15.17H172.42L172.33 15.18H172.25L172.17 15.19H172.1H172.04H171.99H171.95H171.92L171.89 15.21V15.23V15.26V15.29V15.31L171.88 15.36V15.42L171.86 15.49V15.56V15.65L171.84 15.75V15.86L171.82 15.97V16.09L171.8 16.22V16.36L171.78 16.51V16.67L171.77 16.84V17.02V17.21V17.4V17.5V17.6V17.7V17.8L171.78 18.01V18.23L171.81 18.46L171.83 18.69L171.85 18.93L171.88 19.18L171.91 19.43L171.95 19.69L171.99 19.95L172.03 20.22L172.08 20.49L172.13 20.77V20.83L172.19 21.05L172.26 21.34L172.33 21.63L172.41 21.92L172.49 22.22L172.58 22.52L172.68 22.82L172.78 23.13L172.89 23.44L173.01 23.75L173.14 24.06L173.27 24.38L173.41 24.7L173.56 25.02L173.72 25.34L173.89 25.66L174.07 25.98L174.26 26.31L174.45 26.64L174.51 26.73L174.66 26.97L174.87 27.3L175.09 27.63L175.32 27.96L175.56 28.29L175.82 28.62L176.09 28.95L176.37 29.28L176.4 29.31L176.66 29.6L176.81 29.76L176.96 29.92L177.12 30.08L177.27 30.24L177.59 30.56L177.93 30.88L178.12 31.06L178.07 31.08L188.15 40.39L187.53 40.41L185.99 40.56L184.48 40.77L183 41.05L181.56 41.39L180.15 41.8L178.78 42.27L177.44 42.8L176.14 43.39L174.88 44.03L174.54 44.22L174.61 44.03L174.7 43.78L174.78 43.53L174.86 43.28L174.93 43.03L174.99 42.77L175.05 42.51L175.1 42.25L175.16 41.89L175.21 41.53L175.25 41.18L175.27 40.83V40.6L175.28 40.37V40.15V39.93V39.71L175.25 39.49L175.23 39.28L175.2 39.07L175.17 38.86L175.13 38.65L175.09 38.45L175.04 38.25L174.99 38.05L174.93 37.85L174.87 37.66L174.8 37.47L174.73 37.28L174.65 37.1L174.57 36.92L174.49 36.74L174.4 36.57L174.31 36.4L174.21 36.23L174.11 36.07L174 35.91L173.89 35.75L173.77 35.6L173.65 35.45L173.53 35.3L173.43 35.19L173.52 35.16L155.39 18.42L155.3 18.45L155.27 18.41L155.14 18.27L155 18.13L154.86 18L154.72 17.87L154.59 17.76L154.57 17.74L154.42 17.62L154.27 17.5L154.11 17.39L153.95 17.28L153.78 17.18L153.61 17.08L153.44 16.98L153.26 16.89L153.13 16.82L153.09 16.8L152.91 16.72L152.72 16.64L152.53 16.57L152.34 16.5L152.15 16.44L151.95 16.38L151.85 16.35L151.75 16.32L151.55 16.27L151.34 16.23L151.13 16.19L150.92 16.16L150.71 16.13L150.49 16.11L150.27 16.09H150.05L149.82 16.07H149.59H149.36L149.13 16.08H148.89L148.63 16.12L148.37 16.15L148.24 16.17L148.11 16.19L147.85 16.23L147.59 16.28L147.34 16.33L147.09 16.39L146.84 16.45L146.59 16.52L146.34 16.6L146.09 16.68L145.84 16.77L145.59 16.86L145.35 16.96L145.11 17.06L144.87 17.17L144.63 17.28L144.39 17.4L144.27 17.46L144.15 17.52L143.92 17.65L143.69 17.78L143.46 17.92L143.23 18.06L143.01 18.21L142.79 18.36L142.66 18.45L142.57 18.52L142.35 18.68L142.14 18.85L141.93 19.02L141.72 19.19L141.52 19.37L141.32 19.55L141.12 19.74L141.05 19.8L140.92 19.93L140.73 20.12L140.54 20.32L140.36 20.52L140.18 20.72L140 20.93L139.83 21.14L139.66 21.35L139.5 21.57L139.34 21.79L139.18 22.01L139.03 22.23L138.88 22.46L138.74 22.69L138.6 22.92L138.47 23.15L138.34 23.39L138.22 23.63L138.1 23.87L137.99 24.11L137.88 24.36L137.82 24.5L137.78 24.6L137.73 24.73L137.68 24.85L137.66 24.9L137.59 25.1L137.54 25.25L137.5 25.36L137.44 25.55L137.42 25.61L137.34 25.87L137.27 26.13L137.21 26.39L137.15 26.65L137.1 26.91L137.04 27.25L136.99 27.59L136.95 27.93L136.93 28.26V28.49L136.92 28.71V28.82V28.93V29.15L136.94 29.37L136.96 29.58L136.98 29.79L137.01 30L137.04 30.21L137.08 30.41L137.12 30.61L137.17 30.81L137.22 31.01L137.28 31.2L137.34 31.39L137.41 31.58L137.48 31.77L137.56 31.95L137.64 32.13L137.73 32.31L137.82 32.48L137.92 32.65L138.02 32.82L138.12 32.98L138.23 33.14L138.34 33.3L138.46 33.45L138.58 33.6L138.7 33.75L138.83 33.89L138.96 34.03L139.05 34.12L138.94 34.15L149.94 44.31L144.78 44.68L142.71 44.91L140.82 45.27L139.09 45.75L137.5 46.34L136.02 47.03L134.63 47.79L133.31 48.62L132.04 49.5L130.8 50.41L129.56 51.34L128.31 52.28L127.51 52.85L120.53 46.4L104.12 47.57L104.29 48.78L104.45 50.08L104.59 51.46L104.7 52.91L104.78 54.43L104.82 56.02V57.67L104.75 59.38L104.7 60.27L104.63 61.18L104.57 61.86L90.83 49.18L90.82 49.17L90.26 48.74L89.64 48.39L88.95 48.11L88.2 47.9L87.39 47.75L86.52 47.67L85.59 47.65L84.6 47.69L83.77 47.76L82.92 47.87L82.06 48L81.19 48.16L80.32 48.34L79.46 48.54L78.61 48.76L77.78 48.99L76.97 49.24L76.19 49.5L75.45 49.76L74.75 50.03L74.1 50.3L73.5 50.56L72.96 50.82L72.48 51.07L71.06 61.45L63.34 54.32L62.43 53.32L61.39 52.46L60.21 51.73L58.89 51.13L57.42 50.66L55.81 50.33L54.06 50.13L52.16 50.07L50.12 50.15L48.58 50.29L47.07 50.5L45.59 50.78L44.15 51.12L42.74 51.53L41.37 52L40.03 52.53L38.73 53.12L37.47 53.76L36.25 54.46L35.07 55.21L33.93 56.02L32.83 56.88L31.77 57.79L30.76 58.75L29.79 59.75L28.87 60.8L28 61.89L27.17 63.02L26.39 64.2L25.66 65.42L24.98 66.67L24.36 67.96L23.79 69.28L23.27 70.64L22.81 72.03L22.4 73.45L22.05 74.9L21.76 76.38L21.53 77.88L21.36 79.41L21.25 80.96L21.22 83.1L21.35 85.14L21.65 87.07L22.12 88.89L22.76 90.59L23.57 92.16L24.55 93.59L25.71 94.88L26.45 95.51H26.44L43.66 111.41L43.84 111.61L44.37 112.07L44.57 112.25H44.58L45.17 112.75L46.67 113.73L47.53 114.15L13.12 116.59L10.53 129.19L22.38 140.13L28.66 145.93L105.17 140.5L81.24 181.21H93.16L95.99 176.2H114.09L115.69 181.21H127.61L114.14 139.87L211.17 132.98L205.8 170.75C204.42 180.2 207.91 182.16 213.43 182.16C217.79 182.16 220.12 181.21 221.57 180.49L222.15 173.29C221.13 173.51 220.33 173.51 219.75 173.36C218.59 173.14 218.08 172.12 218.44 169.73L223.79 132.08L230.76 131.58L225.2 170.74C223.82 180.19 227.31 182.15 232.83 182.15C237.19 182.15 239.52 181.2 240.97 180.48L241.55 173.28C240.53 173.5 239.73 173.5 239.15 173.35C237.99 173.13 237.48 172.11 237.84 169.72L243.39 130.68L326.28 124.79L336.85 124.04L339.44 111.44L321.77 95.13L321.31 94.7L312.27 95.34L312.48 95.23L313.74 94.51L314.96 93.74L315.28 93.52L316.14 92.92L317.28 92.04L318.37 91.11L319.42 90.13L319.75 89.8L320.42 89.11L321.38 88.04L322.29 86.93L323.15 85.78L323.78 84.85L323.96 84.58L324.19 84.2L324.71 83.34L325.37 82.15L325.42 82.06L326.07 80.75L326.27 80.3L326.67 79.4L326.83 78.98L327.2 78.02L327.52 77.08L327.68 76.61L327.85 76.05L328.11 75.18L328.4 74.01L328.47 73.72L328.77 72.23L329.01 70.71L329.16 69.4L329.19 69.17L329.31 67.61V66.94L329.34 65.58L329.28 64.65L329.22 63.66L328.95 61.86L328.58 60.38L328.53 60.17L330.05 59.63L331.5 59.06L332.88 58.45L334.19 57.81L335.43 57.15L336.61 56.47L337.72 55.77L338.77 55.05L339.76 54.32L340.69 53.58L341.57 52.84L342.39 52.09L343.16 51.35L343.87 50.61L344.53 49.88L345.14 49.16L345.7 48.46L346.22 47.78L346.69 47.12L347.12 46.49L347.5 45.89L347.84 45.32L348.14 44.79L348.4 44.3L348.63 43.86L348.82 43.46L348.98 43.12L349.11 42.83L349.21 42.6L349.28 42.43L349.33 42.29L331.2 25.55L331.18 25.6ZM101.2 166.95L107.52 155.83L111.08 166.95H101.2V166.95ZM246.82 99.98L241.45 100.36L243.45 89.69L252.41 97.96L252.8 98.27L253.06 98.51L254.14 99.28L254.29 99.39L254.37 99.44L246.81 99.98H246.82ZM120.71 108.93L120.77 108.9L121.08 108.74L121.36 108.57L122.33 108L123.54 107.21L124.7 106.36L125.82 105.46L126.89 104.51L127.51 103.9L127.92 103.5L128.42 102.96L128.9 102.44L129.84 101.34L130.73 100.19L131.58 98.99L132.38 97.75L132.63 97.32L133.14 96.46L133.64 95.53L133.85 95.13L134.07 94.67L134.52 93.76L134.56 93.66L148.91 106.91L120.7 108.91L120.71 108.93ZM168.86 105.51L169.28 105.28L169.96 104.87L170.64 104.46L171.91 103.6L172.4 103.24L173.1 102.73L173.63 102.31L174.2 101.86L175.22 101L175.44 100.8L176.16 100.16L176.59 99.76L177.02 99.36L177.49 98.92L177.8 98.63L178.49 97.97L179.05 99.01L179.17 99.2L179.68 99.99L180.39 100.91L181.18 101.76L182.05 102.55L182.99 103.27L183.87 103.83L184.01 103.92L184.89 104.38L168.87 105.52L168.86 105.51ZM210.4 102.56L211.19 102.19L212.33 101.61L213.44 101.01L214.51 100.39L215.03 100.07L215.55 99.75L216.56 99.11L217.53 98.46L218.08 98.07L218.47 97.8L219.07 97.36L223.68 101.61L213.86 102.31L210.4 102.56V102.56ZM90.82 67L91.28 67.43L91.06 67.54L90.69 67.74L90.75 67.41L90.82 67.01V67ZM73.05 112.28L73.63 112.01L74.52 111.56L74.87 111.38L76.07 110.73L77.24 110.06L77.6 109.84L78.36 109.37L78.9 109.02L79.44 108.67L80.48 107.96L81.48 107.24L82.25 106.66L82.44 106.52L83.36 105.8L84.23 105.09L84.96 104.47L85.06 104.39L85.84 103.71L86.57 103.05L87.25 102.41L87.5 102.17L87.88 101.8L88.13 101.55L88.46 101.22L88.99 100.68L89.04 100.63L89.47 100.17L89.89 99.71L90.26 99.3L90.57 98.94L90.78 98.69L90.83 98.63L90.85 100.24L91 101.78L91.2 102.84L91.28 103.24L91.69 104.62L92.01 105.37L92.24 105.91L92.54 106.44L92.92 107.11L93.47 107.84L93.74 108.21L94.71 109.2L95.19 109.58L95.82 110.08L96.22 110.32L96.76 110.65L72.97 112.34L73.05 112.3V112.28ZM282.44 97.44L274.07 98.03L274.19 97.96L274.75 97.61L275.31 97.26L276.39 96.54L277.22 95.95L277.44 95.8L278.44 95.05L279.39 94.3L279.65 94.08L280.28 93.56L280.64 93.25L281.12 92.84L281.9 92.14L282.54 93.03L283.25 93.86L283.63 94.24L284.02 94.63L284.85 95.34L285.48 95.8L285.75 95.99L286.23 96.28L286.71 96.57L286.86 96.65L287.62 97.05L282.46 97.42L282.44 97.44Z" fill="#FEEDE4"/>
<path d="M232.81 192.64C229.4 192.64 226.42 192.06 223.87 190.9C221.47 191.81 218.11 192.64 213.4 192.64C207.2 192.64 202.4 190.71 199.11 186.92C193.7 180.66 194.96 172.05 195.38 169.21L198.91 144.36L128.25 149.38L137.56 177.95C138.6 181.15 138.05 184.65 136.07 187.37C134.09 190.09 130.94 191.7 127.57 191.7H115.65C111.94 191.7 108.57 189.75 106.7 186.69H102.08C100.18 189.8 96.79 191.7 93.13 191.7H81.21C77.44 191.7 73.97 189.68 72.1 186.41C70.23 183.14 70.25 179.12 72.16 175.87L85.97 152.37L29.37 156.39C26.48 156.59 23.63 155.6 21.5 153.63L3.37998 136.89C0.679984 134.4 -0.520016 130.67 0.219984 127.07L2.80998 114.47C3.75998 109.86 7.65998 106.44 12.35 106.11L21.71 105.45L19.28 103.21C19.28 103.21 19.25 103.18 19.23 103.16L18.84 102.83C18.49 102.53 18.16 102.21 17.85 101.87L16.69 100.58C16.39 100.24 16.11 99.89 15.85 99.52L14.87 98.09C14.62 97.73 14.4 97.36 14.2 96.97L13.39 95.4C13.2 95.04 13.03 94.66 12.89 94.28L12.25 92.58C12.12 92.23 12 91.87 11.91 91.5L11.44 89.68C11.35 89.35 11.28 89.01 11.23 88.67L10.93 86.74C10.88 86.43 10.85 86.12 10.83 85.81L10.7 83.77C10.68 83.49 10.67 83.21 10.68 82.92L10.71 80.78C10.71 80.58 10.72 80.37 10.74 80.17L10.85 78.62C10.86 78.48 10.87 78.34 10.89 78.2L11.06 76.67C11.08 76.53 11.1 76.38 11.12 76.24L11.35 74.74C11.37 74.6 11.4 74.46 11.43 74.31L11.72 72.83C11.75 72.69 11.78 72.55 11.81 72.4L12.16 70.95C12.19 70.81 12.23 70.66 12.27 70.52L12.68 69.1C12.72 68.96 12.76 68.82 12.81 68.68L13.27 67.29C13.32 67.15 13.37 67.01 13.42 66.87L13.94 65.51C13.99 65.37 14.05 65.23 14.11 65.09L14.68 63.77C14.74 63.63 14.8 63.49 14.87 63.36L15.49 62.07C15.56 61.93 15.63 61.79 15.7 61.65L16.38 60.4C16.45 60.26 16.53 60.13 16.61 60L17.34 58.78C17.42 58.64 17.5 58.51 17.59 58.38L18.37 57.2C18.46 57.07 18.55 56.94 18.64 56.81L19.47 55.68C19.56 55.55 19.66 55.42 19.76 55.3L20.63 54.21C20.73 54.09 20.83 53.96 20.94 53.84L21.86 52.79C21.97 52.67 22.08 52.55 22.19 52.43L23.16 51.43C23.27 51.31 23.39 51.2 23.51 51.09L24.52 50.13C24.64 50.02 24.76 49.91 24.89 49.8L25.95 48.89C26.08 48.78 26.2 48.68 26.33 48.58L27.43 47.72C27.56 47.62 27.7 47.52 27.83 47.42L28.97 46.61C29.11 46.51 29.24 46.42 29.38 46.33L30.56 45.58C30.7 45.49 30.84 45.4 30.99 45.32L32.21 44.62C32.36 44.54 32.5 44.46 32.65 44.38L33.91 43.74C34.06 43.66 34.21 43.59 34.36 43.52L35.66 42.93C35.81 42.86 35.97 42.8 36.12 42.73L37.46 42.2C37.62 42.14 37.77 42.08 37.93 42.03L39.3 41.56C39.46 41.51 39.62 41.46 39.78 41.41L41.19 41C41.35 40.95 41.51 40.91 41.67 40.87L43.11 40.53C43.27 40.49 43.43 40.46 43.59 40.43L45.07 40.15C45.23 40.12 45.39 40.09 45.55 40.07L47.06 39.86C47.22 39.84 47.38 39.82 47.55 39.8L49.09 39.66C49.28 39.64 49.47 39.63 49.66 39.62L51.7 39.54C51.95 39.54 52.19 39.53 52.44 39.54L54.34 39.6C54.62 39.6 54.91 39.63 55.19 39.66L56.94 39.86C57.26 39.9 57.58 39.95 57.9 40.01L59.51 40.34C59.87 40.41 60.23 40.51 60.58 40.62L62.05 41.09C62.44 41.22 62.82 41.36 63.2 41.53L64.52 42.13C64.93 42.32 65.32 42.53 65.71 42.76L65.87 42.86C66.39 42.44 66.95 42.07 67.54 41.76L68.02 41.51C68.15 41.44 68.27 41.38 68.4 41.32L68.94 41.06C69.04 41.01 69.15 40.96 69.25 40.92L69.85 40.66C69.94 40.62 70.03 40.58 70.12 40.54L70.77 40.27C70.85 40.24 70.93 40.21 71.01 40.18L71.71 39.91C71.79 39.88 71.86 39.85 71.94 39.83L72.68 39.57C72.75 39.55 72.82 39.52 72.89 39.5L73.67 39.24C73.74 39.22 73.82 39.19 73.89 39.17L74.7 38.92C74.77 38.9 74.84 38.88 74.91 38.86L75.74 38.63C75.81 38.61 75.88 38.59 75.95 38.57L76.8 38.35C76.88 38.33 76.95 38.31 77.03 38.29L77.89 38.09C77.97 38.07 78.05 38.05 78.13 38.04L79 37.86C79.09 37.84 79.17 37.82 79.26 37.81L80.13 37.65C80.22 37.63 80.32 37.62 80.41 37.6L81.27 37.47C81.38 37.45 81.49 37.44 81.59 37.42L82.44 37.31C82.56 37.3 82.68 37.28 82.79 37.27L83.62 37.2C83.78 37.19 83.94 37.17 84.1 37.17L85.09 37.13C85.31 37.13 85.53 37.12 85.74 37.13L86.67 37.15C86.92 37.15 87.18 37.17 87.43 37.19L88.3 37.27C88.6 37.3 88.89 37.34 89.19 37.39L90 37.54C90.34 37.6 90.68 37.68 91.01 37.77L91.76 37.98C92.14 38.09 92.52 38.22 92.89 38.37L93.58 38.65C93.99 38.82 94.39 39.01 94.78 39.23L95.4 39.58C95.78 39.8 96.15 40.03 96.5 40.3C98.3 38.41 100.74 37.26 103.36 37.07L119.77 35.9C122.66 35.7 125.51 36.69 127.64 38.66L128.34 39.31L129.02 38.88C129.11 38.82 129.21 38.76 129.3 38.71C129.27 38.67 129.25 38.63 129.22 38.59L129.12 38.43C129.06 38.34 129.01 38.25 128.96 38.16L128.86 37.99C128.81 37.91 128.76 37.83 128.72 37.74L128.62 37.57C128.57 37.49 128.53 37.4 128.49 37.32L128.4 37.15C128.35 37.06 128.3 36.96 128.26 36.87L128.17 36.69C128.13 36.61 128.1 36.54 128.06 36.46L127.98 36.28C127.94 36.19 127.9 36.1 127.86 36.01L127.78 35.83C127.74 35.75 127.71 35.66 127.68 35.58L127.61 35.39C127.57 35.29 127.53 35.19 127.5 35.08L127.43 34.89C127.4 34.82 127.38 34.75 127.36 34.68L127.3 34.49C127.27 34.39 127.23 34.29 127.2 34.19L127.14 34C127.11 33.91 127.09 33.82 127.06 33.73L127.01 33.53C126.99 33.45 126.97 33.37 126.95 33.28L126.9 33.08C126.88 32.98 126.85 32.89 126.83 32.79L126.79 32.59C126.77 32.5 126.75 32.42 126.74 32.33L126.7 32.13C126.68 32.04 126.67 31.94 126.65 31.85L126.62 31.64C126.61 31.55 126.59 31.47 126.58 31.38L126.55 31.17C126.54 31.09 126.53 31 126.52 30.92L126.5 30.71C126.49 30.61 126.48 30.51 126.47 30.41L126.45 30.2C126.45 30.12 126.44 30.04 126.43 29.96V29.74C126.41 29.64 126.41 29.55 126.4 29.45V29.23C126.4 29.15 126.39 29.07 126.39 28.99V28.77C126.39 28.69 126.39 28.6 126.39 28.52V28.3C126.39 28.21 126.39 28.12 126.4 28.03V27.8C126.41 27.7 126.42 27.6 126.43 27.5L126.45 27.17C126.45 27.04 126.47 26.92 126.48 26.79L126.52 26.45C126.53 26.34 126.55 26.22 126.56 26.11L126.61 25.77C126.63 25.65 126.65 25.53 126.67 25.41L126.73 25.07C126.74 24.99 126.76 24.9 126.78 24.82L126.83 24.56C126.85 24.48 126.86 24.4 126.88 24.31L126.94 24.05C126.96 23.97 126.98 23.9 126.99 23.82L127.05 23.56C127.07 23.48 127.09 23.41 127.11 23.33L127.18 23.07C127.2 23 127.22 22.93 127.24 22.86L127.32 22.6C127.34 22.52 127.37 22.44 127.4 22.35L127.48 22.11C127.51 22.03 127.53 21.95 127.56 21.88L127.63 21.67C127.66 21.59 127.69 21.5 127.72 21.42L127.79 21.22C127.82 21.15 127.86 21.03 127.89 20.97L127.97 20.77C128 20.68 128.04 20.6 128.07 20.51L128.17 20.27C128.2 20.21 128.22 20.15 128.25 20.09L128.36 19.84C128.39 19.78 128.42 19.71 128.45 19.65L128.56 19.41C128.59 19.35 128.62 19.29 128.65 19.23L128.77 18.99C128.8 18.92 128.84 18.85 128.87 18.79L128.99 18.55C129.02 18.49 129.05 18.44 129.08 18.39L129.21 18.15C129.24 18.09 129.28 18.02 129.32 17.96L129.45 17.73C129.48 17.67 129.52 17.61 129.56 17.55L129.7 17.32C129.73 17.26 129.77 17.21 129.8 17.15L129.94 16.92C129.98 16.86 130.01 16.8 130.05 16.74L130.2 16.51C130.23 16.46 130.27 16.4 130.3 16.35L130.45 16.13C130.49 16.07 130.53 16.02 130.57 15.96L130.73 15.74C130.77 15.68 130.81 15.63 130.85 15.57L131.01 15.35C131.05 15.3 131.08 15.25 131.12 15.2L131.28 14.98C131.32 14.93 131.36 14.87 131.4 14.82L131.57 14.61C131.61 14.56 131.65 14.5 131.7 14.45L131.87 14.24C131.87 14.24 131.95 14.14 131.99 14.1L132.17 13.89C132.21 13.84 132.26 13.79 132.3 13.74L132.48 13.54C132.48 13.54 132.56 13.45 132.61 13.4L132.79 13.2C132.79 13.2 132.88 13.1 132.93 13.05L133.12 12.85C133.12 12.85 133.21 12.76 133.25 12.72L133.44 12.53C133.44 12.53 133.53 12.44 133.58 12.39L133.71 12.26C133.71 12.26 133.78 12.19 133.79 12.18C133.83 12.14 133.87 12.1 133.92 12.06L134.12 11.87C134.12 11.87 134.22 11.78 134.27 11.73L134.47 11.55C134.47 11.55 134.57 11.46 134.62 11.42L134.82 11.24C134.87 11.2 134.92 11.15 134.98 11.11L135.19 10.94C135.19 10.94 135.28 10.87 135.33 10.83L135.54 10.66C135.59 10.62 135.65 10.57 135.7 10.53L135.91 10.36C135.96 10.32 136.01 10.28 136.06 10.24L136.28 10.08C136.33 10.04 136.39 10 136.44 9.96L136.64 9.81C136.7 9.77 136.76 9.72 136.83 9.68L137.05 9.53C137.1 9.49 137.16 9.46 137.21 9.42L137.43 9.27C137.48 9.23 137.54 9.2 137.6 9.16L137.83 9.02C137.89 8.98 137.95 8.94 138.01 8.91L138.24 8.77C138.3 8.74 138.35 8.7 138.41 8.67L138.64 8.54C138.7 8.51 138.76 8.47 138.82 8.44L139.05 8.31C139.12 8.27 139.2 8.23 139.27 8.19L139.46 8.09C139.53 8.05 139.59 8.02 139.66 7.99L139.9 7.87C139.97 7.84 140.03 7.8 140.1 7.77L140.34 7.66C140.4 7.63 140.46 7.6 140.52 7.58L140.76 7.47C140.83 7.44 140.91 7.4 140.98 7.37L141.22 7.27C141.28 7.25 141.34 7.22 141.4 7.2L141.64 7.1C141.72 7.07 141.8 7.04 141.88 7.01L142.13 6.92C142.19 6.9 142.26 6.87 142.32 6.85L142.57 6.76C142.64 6.74 142.71 6.71 142.77 6.69L143.02 6.61C143.1 6.58 143.19 6.56 143.27 6.53L143.52 6.45C143.59 6.43 143.66 6.41 143.73 6.39L143.98 6.32C144.05 6.3 144.12 6.28 144.2 6.26L144.45 6.2C144.53 6.18 144.61 6.16 144.7 6.14L144.95 6.08C145.03 6.06 145.11 6.04 145.19 6.03L145.44 5.98C145.52 5.96 145.61 5.95 145.69 5.93L145.95 5.88C146.03 5.87 146.11 5.85 146.18 5.84L146.44 5.8C146.52 5.79 146.61 5.77 146.69 5.76L146.95 5.73C147.03 5.72 147.12 5.71 147.2 5.7L147.46 5.67C147.54 5.67 147.62 5.65 147.7 5.65L147.96 5.63C148.05 5.63 148.15 5.62 148.24 5.61H148.48C148.55 5.59 148.62 5.59 148.69 5.59H148.92C149.01 5.58 149.1 5.58 149.18 5.57H149.41C149.49 5.57 149.58 5.57 149.66 5.57H149.89C149.98 5.57 150.07 5.57 150.16 5.57H150.39C150.46 5.58 150.53 5.58 150.6 5.59H150.82C150.92 5.61 151.01 5.61 151.11 5.62L151.33 5.64C151.42 5.64 151.51 5.66 151.6 5.67L151.82 5.69C151.9 5.69 151.99 5.71 152.07 5.72L152.28 5.75C152.36 5.76 152.45 5.77 152.53 5.79L152.74 5.82C152.83 5.83 152.93 5.85 153.02 5.87L153.23 5.91C153.32 5.93 153.4 5.94 153.49 5.96L153.7 6C153.79 6.02 153.88 6.04 153.96 6.06L154.16 6.11C154.25 6.13 154.33 6.15 154.42 6.18L154.63 6.24C154.72 6.26 154.81 6.29 154.89 6.31L155.09 6.37C155.18 6.4 155.27 6.42 155.36 6.45L155.55 6.51C155.64 6.54 155.72 6.57 155.81 6.6L156 6.67C156.09 6.7 156.18 6.74 156.27 6.77L156.46 6.84C156.55 6.88 156.65 6.91 156.74 6.95L156.93 7.03C157.01 7.07 157.1 7.1 157.18 7.14L157.36 7.22C157.43 7.25 157.5 7.29 157.57 7.32C157.59 7.32 157.65 7.36 157.67 7.37L157.8 7.44C157.88 7.48 157.96 7.52 158.04 7.56L158.22 7.65C158.31 7.69 158.39 7.74 158.48 7.79L158.65 7.89C158.74 7.94 158.82 7.99 158.91 8.04L159.08 8.14C159.17 8.19 159.25 8.24 159.33 8.29L159.5 8.39C159.58 8.44 159.66 8.49 159.73 8.54L159.89 8.65C159.98 8.71 160.06 8.77 160.15 8.83L160.31 8.94C160.39 9 160.47 9.06 160.55 9.12L160.7 9.24C160.77 9.3 160.85 9.35 160.92 9.41L161.07 9.53C161.15 9.6 161.24 9.66 161.32 9.73L161.45 9.84C161.52 9.9 161.59 9.96 161.66 10.03C161.91 10.22 162.15 10.41 162.38 10.62C163 9.34 163.87 8.18 164.96 7.24C166.67 5.76 168.83 4.85 171.08 4.69C171.11 4.69 171.16 4.69 171.19 4.69C171.21 4.69 171.29 4.69 171.3 4.69C171.3 4.69 171.4 4.69 171.41 4.69L172.24 15.16L171.57 4.68H171.76C171.76 4.68 171.88 4.66 171.91 4.66H172.06L172.16 4.64L179.36 4.13C179.36 4.13 179.41 4.13 179.43 4.13L183.1 3.87C183.1 3.87 183.15 3.87 183.18 3.87L183.39 3.85C185.95 3.67 188.47 4.43 190.49 5.97C192.25 4.19 194.62 3.05 197.21 2.87L200.52 2.64C200.52 2.64 200.6 2.64 200.63 2.64L207.21 2.17C207.21 2.17 207.25 2.17 207.26 2.17L209.99 1.98C209.99 1.98 210.16 1.97 210.17 1.97H210.32C210.32 1.97 210.41 1.95 210.42 1.95L211.03 1.91C211.03 1.91 211.14 1.91 211.15 1.91C211.16 1.91 211.3 1.9 211.31 1.9H211.43C212.94 1.79 214.44 2 215.84 2.51C217.12 1.82 218.55 1.39 220.07 1.29L236.36 0.029996C239.25 -0.180004 242.1 0.819996 244.23 2.79L262.36 19.53C265.02 21.98 266.22 25.63 265.56 29.18L264.88 32.8L264.93 32.76C265.05 32.65 265.18 32.54 265.31 32.44L266.4 31.54C266.53 31.44 266.66 31.33 266.79 31.24L267.93 30.39C268.06 30.29 268.2 30.2 268.33 30.11L269.51 29.32C269.65 29.23 269.79 29.14 269.93 29.05L271.16 28.31C271.3 28.22 271.44 28.14 271.59 28.06L272.86 27.37C273 27.29 273.15 27.22 273.29 27.15L274.6 26.52C274.75 26.45 274.89 26.38 275.04 26.32L276.39 25.74C276.54 25.68 276.69 25.62 276.84 25.56L278.23 25.04C278.38 24.98 278.53 24.93 278.69 24.88L280.11 24.42C280.26 24.37 280.41 24.33 280.56 24.28L282.02 23.88C282.17 23.84 282.32 23.8 282.48 23.77L283.98 23.43C284.13 23.4 284.28 23.36 284.43 23.34L285.96 23.06C286.11 23.03 286.26 23.01 286.42 22.99L287.99 22.78C288.14 22.76 288.29 22.74 288.44 22.73L290.04 22.58C290.24 22.56 290.45 22.55 290.65 22.54L293.29 22.45C293.57 22.45 293.85 22.45 294.13 22.45L296.6 22.56C296.91 22.57 297.23 22.6 297.54 22.65L299.84 22.96C300.19 23.01 300.53 23.07 300.88 23.15L303 23.66C303.38 23.75 303.76 23.86 304.12 24L306.06 24.7H306.09L306.91 23.21L307.43 22.11C309.05 18.69 312.39 16.41 316.17 16.14L330.45 15.13C333.34 14.92 336.19 15.92 338.33 17.89L356.46 34.63C359.59 37.52 360.66 42 359.18 45.99L359.13 46.13C359.11 46.2 359.08 46.26 359.05 46.33L358.98 46.5C358.96 46.56 358.94 46.61 358.91 46.67L358.81 46.9C358.78 46.97 358.75 47.03 358.73 47.1L358.6 47.39C358.57 47.46 358.54 47.52 358.51 47.59L358.35 47.93C358.32 47.99 358.29 48.06 358.26 48.12L358.07 48.52C358.04 48.59 358 48.66 357.97 48.72L357.74 49.16C357.7 49.23 357.67 49.3 357.63 49.36L357.37 49.85C357.33 49.92 357.29 49.99 357.25 50.06L356.95 50.59C356.91 50.67 356.86 50.74 356.82 50.82L356.48 51.39C356.44 51.46 356.39 51.53 356.35 51.6L355.97 52.2C355.92 52.28 355.87 52.35 355.82 52.43L355.39 53.06C355.34 53.14 355.28 53.22 355.23 53.29L354.76 53.95C354.71 54.03 354.65 54.1 354.59 54.18L354.07 54.86C354.01 54.94 353.95 55.02 353.88 55.1L353.32 55.8C353.26 55.88 353.19 55.96 353.12 56.04L352.51 56.76C352.44 56.84 352.37 56.92 352.3 57L351.64 57.73C351.57 57.81 351.49 57.89 351.42 57.96L350.71 58.7C350.63 58.78 350.55 58.86 350.47 58.94L349.7 59.68C349.62 59.76 349.54 59.84 349.45 59.91L348.63 60.66C348.54 60.74 348.45 60.82 348.36 60.9L347.48 61.64C347.39 61.72 347.3 61.79 347.21 61.87L346.28 62.61C346.18 62.69 346.08 62.76 345.98 62.84L344.99 63.57C344.89 63.64 344.79 63.72 344.69 63.79L343.64 64.51C343.54 64.58 343.43 64.65 343.32 64.72L342.21 65.42C342.1 65.49 341.99 65.55 341.88 65.62L340.7 66.3C340.59 66.36 340.48 66.43 340.36 66.49L339.83 66.77L339.81 67.83C339.81 68.03 339.8 68.23 339.78 68.43L339.66 69.99C339.65 70.14 339.64 70.28 339.62 70.43L339.44 71.97C339.42 72.12 339.4 72.26 339.38 72.41L339.14 73.93C339.12 74.08 339.09 74.22 339.06 74.37L338.76 75.86C338.73 76.01 338.7 76.15 338.66 76.3L338.3 77.76C338.26 77.9 338.23 78.05 338.18 78.19L337.75 79.64C337.71 79.78 337.66 79.92 337.62 80.06L337.14 81.47C337.09 81.61 337.04 81.76 336.98 81.9L336.44 83.27C336.38 83.41 336.32 83.56 336.26 83.7L335.67 85.03C335.61 85.17 335.54 85.31 335.47 85.45L334.82 86.76C334.75 86.91 334.67 87.06 334.59 87.2L333.9 88.44C333.82 88.58 333.75 88.71 333.67 88.84L332.91 90.08C332.83 90.21 332.75 90.34 332.66 90.47L332.48 90.74L346.56 103.74C349.26 106.23 350.46 109.96 349.72 113.56L347.13 126.16C346.18 130.77 342.28 134.19 337.59 134.52L252.59 140.56L248.99 165.88C251.15 168.05 252.26 171.06 252.01 174.13L251.43 181.33C251.13 184.99 248.95 188.23 245.66 189.88C243.27 191.07 239.34 192.66 232.83 192.66L232.81 192.64ZM22.97 126.4L32.42 135.12L104.4 130.01C105.98 129.9 107.53 130.15 108.96 130.7C110.3 129.95 111.8 129.48 113.37 129.37L210.4 122.48C212.7 122.32 214.97 122.92 216.86 124.15C218.53 122.69 220.68 121.75 223.02 121.58L229.99 121.08C232.29 120.92 234.56 121.52 236.45 122.75C238.12 121.29 240.27 120.35 242.61 120.18L326.93 114.19L317.48 105.47L312.97 105.79C307.98 106.14 303.44 102.93 302.11 98.11C300.78 93.29 303.03 88.21 307.48 85.95L309.23 84.89L310.65 83.84L312.23 82.41L313.37 81.19L314.55 79.67L315.6 78.03L316.62 76.04L317.3 74.4L317.93 72.42L318.4 70.34L318.7 68.17L318.78 66.77L318.8 65.82L318.73 64.77L318.6 63.9L318.3 62.7C316.99 57.45 319.89 52.07 324.99 50.26L327.4 49.36L329.38 48.45L331.12 47.48L332.65 46.48L333.99 45.46L335.62 43.99L327.37 36.37L323.3 36.7C323.22 36.82 323.14 36.95 323.06 37.07L322.43 37.99C322.34 38.12 322.26 38.24 322.16 38.36L321.53 39.2C321.44 39.33 321.34 39.45 321.24 39.57L320.61 40.34C320.51 40.46 320.4 40.59 320.29 40.71L319.66 41.41C319.55 41.53 319.43 41.65 319.32 41.77L318.69 42.4C318.57 42.52 318.45 42.64 318.33 42.75L317.71 43.32C317.58 43.44 317.45 43.55 317.31 43.66L316.7 44.16C316.56 44.27 316.43 44.38 316.28 44.49L315.68 44.94C315.54 45.04 315.4 45.15 315.25 45.24L314.66 45.63C314.52 45.73 314.37 45.82 314.22 45.91L313.65 46.25C313.5 46.34 313.34 46.43 313.18 46.52L312.62 46.81C312.47 46.89 312.31 46.97 312.16 47.04L311.62 47.29C307.76 49.1 303.2 48.39 300.06 45.51L299.22 44.74L298.83 44.47L298.27 44.18L297.48 43.9L296.44 43.65L295.13 43.47L293.55 43.4L291.63 43.47L289.44 43.72L287.32 44.15L285.34 44.74L283.5 45.48L281.79 46.36L280.21 47.37L278.76 48.5L277.43 49.76L276.22 51.14L275.13 52.64L274.62 53.47C273.03 56.2 270.3 58.07 267.17 58.56C264 59.06 260.78 58.08 258.42 55.9L247.79 46.13C244.11 43.85 242.21 39.53 243.01 35.27L243.81 30.99L233.28 21.27L229.68 21.53C228.79 24.97 226.21 27.74 222.81 28.86C219.18 30.06 215.19 29.2 212.39 26.6L208.52 23.02L204.97 23.27L204.82 23.54C204.82 23.54 204.79 23.6 204.77 23.63L204.62 23.9C204.62 23.9 204.59 23.96 204.57 23.99L204.22 24.59C204.22 24.59 204.18 24.66 204.16 24.69L203.81 25.26C203.81 25.26 203.77 25.33 203.75 25.36L203.6 25.6C203.6 25.6 203.56 25.66 203.54 25.69L203.39 25.92C203.39 25.92 203.35 25.98 203.33 26.01L203.18 26.24C203.18 26.24 203.14 26.3 203.12 26.33L202.97 26.55C202.97 26.55 202.93 26.62 202.9 26.65L202.75 26.86C202.75 26.86 202.71 26.92 202.69 26.95L202.54 27.16C202.54 27.16 202.49 27.23 202.47 27.26L202.12 27.74C202.12 27.74 202.06 27.82 202.03 27.86L201.68 28.32C201.68 28.32 201.63 28.38 201.61 28.41L201.47 28.59C201.47 28.59 201.42 28.65 201.39 28.68L201.25 28.86C201.25 28.86 201.2 28.92 201.17 28.95L201.09 29.04C199.59 30.86 197.53 32.11 195.25 32.61C198.33 35.49 199.38 39.94 197.92 43.9C196.45 47.89 192.73 50.59 188.48 50.76H188.15L186.11 51.01L184.15 51.43L182.32 52.01L180.61 52.73L179.68 53.21C175.83 55.41 171.02 54.96 167.64 52.08C164.44 49.35 163.19 44.98 164.43 40.99L149.07 26.8C149.07 26.8 148.99 26.74 148.95 26.71L147.73 27.91L157.02 36.49C160.1 39.33 161.19 43.73 159.8 47.68C158.41 51.63 154.81 54.38 150.64 54.68L145.68 55.03L144.23 55.19L143.19 55.39L142.3 55.64L141.5 55.94L140.72 56.3L139.92 56.74L139.06 57.28L137.04 58.72L134.58 60.57C134.52 60.61 134.47 60.65 134.41 60.69L133.61 61.26C129.56 64.17 124.02 63.83 120.36 60.45L116.71 57.08L115.27 57.18V57.6C115.27 57.71 115.27 57.82 115.27 57.93L115.21 59.64C115.21 59.73 115.21 59.81 115.2 59.9L115.15 60.79C115.15 60.84 115.15 60.9 115.14 60.95L115.07 61.86C115.07 61.92 115.07 61.97 115.06 62.03L115 62.71C114.63 66.69 112.04 70.11 108.31 71.55C105.87 72.49 103.22 72.46 100.86 71.58C99.86 73.85 98.07 75.72 95.78 76.82L95.57 76.93C92.02 78.81 87.71 78.5 84.46 76.13C81.37 73.87 79.76 70.12 80.23 66.35C79.02 68.58 77.02 70.34 74.55 71.22C70.87 72.54 66.75 71.71 63.88 69.05L56.16 61.92C55.91 61.69 55.67 61.44 55.44 61.19L55.16 60.88L54.69 60.71L54.1 60.59L53.25 60.49L52.15 60.46L50.76 60.51L48.72 60.75L46.76 61.17L44.93 61.75L43.22 62.47L41.62 63.34L40.13 64.34L38.74 65.48L37.46 66.75L36.28 68.15L35.22 69.68L34.28 71.34L33.46 73.12L32.78 75.02L32.25 77.04L31.87 79.17L31.67 81.31L31.65 82.72L31.73 83.87L31.88 84.83L32.08 85.6L32.3 86.19L32.53 86.63L33 87.23L33.22 87.42C33.44 87.61 33.65 87.8 33.84 88L50.71 103.58C50.83 103.69 50.94 103.8 51.06 103.91L51.14 103.98C51.14 103.98 51.21 104.04 51.24 104.07C51.28 104.1 51.31 104.13 51.34 104.16L51.41 104.22L52.08 104.61C56.34 106.7 58.68 111.39 57.77 116.05C56.86 120.71 52.94 124.18 48.21 124.52L22.94 126.31L22.97 126.4ZM82.01 58.71L81.55 62.07C82.39 60.49 83.63 59.14 85.14 58.17H85.13L83.81 58.33L82.01 58.71V58.71ZM171.85 15.44H171.94V15.45H171.85V15.44ZM172.23 15.2V15.1V15.2ZM72.97 122.82C68.22 122.82 64.02 119.62 62.81 114.96C61.54 110.06 63.94 104.95 68.52 102.81L68.6 102.77L70 102.08L73.63 99.92L76.07 98.17L78.84 95.87L81.38 93.42L82.71 91.93C85.53 88.56 90.18 87.28 94.32 88.76C98.46 90.24 101.26 94.12 101.3 98.51V99.67L101.46 100.74L101.78 101.4L102.15 101.63C106.07 103.99 108.01 108.62 106.94 113.08C105.87 117.53 102.04 120.78 97.47 121.1L73.68 122.79C73.43 122.81 73.18 122.82 72.93 122.82H72.97ZM120.71 119.43C116.05 119.43 111.9 116.34 110.61 111.79C109.25 107.01 111.44 101.92 115.85 99.62L116.8 99.07L118.31 98.02L119.73 96.82L121.06 95.46L122.3 93.93L123.6 91.98L124.66 90.05L125.02 89.31C126.41 86.26 129.17 84.06 132.45 83.38C135.77 82.69 139.21 83.65 141.7 85.95L156.05 99.2C157.22 100.28 158.1 101.58 158.67 102.99C159.36 100.2 161.18 97.72 163.85 96.27L164.97 95.6L167.57 93.7L170.57 91.01L171.22 90.39C173.59 88.12 176.89 87.09 180.13 87.6C183.37 88.12 186.19 90.12 187.74 93.01L188.4 94.11L188.97 94.62L189.73 95.04C193.9 97.21 196.12 101.88 195.17 106.49C194.22 111.09 190.32 114.5 185.63 114.83L169.61 115.97C165.03 116.3 160.81 113.61 159.13 109.42C159.05 109.75 158.95 110.07 158.84 110.39C157.45 114.34 153.85 117.09 149.68 117.39L121.47 119.39C121.22 119.41 120.97 119.42 120.72 119.42L120.71 119.43ZM210.4 113.06C205.66 113.06 201.47 109.87 200.25 105.22C198.97 100.33 201.35 95.23 205.92 93.07L207.46 92.31L210 90.85L212.86 88.9C216.91 85.93 222.5 86.25 226.19 89.65L230.8 93.9C231.15 94.22 231.48 94.57 231.78 94.93L233.13 87.75C233.83 84 236.52 80.92 240.15 79.72C243.78 78.52 247.77 79.38 250.58 81.97L259.23 89.96C259.37 90.07 259.52 90.19 259.66 90.31L260.31 90.78C261.94 91.92 263.19 93.47 263.96 95.24C264.68 92.65 266.39 90.35 268.85 88.94L270.47 87.91L272.04 86.76L274.18 84.99L274.88 84.36C277.1 82.37 280.05 81.41 283.02 81.73C285.98 82.05 288.67 83.61 290.42 86.02L291.17 86.95L291.89 87.47L292.46 87.77C296.63 89.94 298.85 94.61 297.9 99.22C296.95 103.83 293.05 107.23 288.36 107.56L283.2 107.93L274.83 108.52C270.35 108.84 266.22 106.28 264.46 102.25C263.28 106.5 259.58 109.6 255.13 109.92L247.57 110.46L242.2 110.84C238.95 111.07 235.78 109.78 233.62 107.35C233.39 107.09 233.17 106.82 232.97 106.54C231.29 109.71 228.08 111.84 224.44 112.1L211.17 113.04C210.92 113.06 210.67 113.07 210.42 113.07L210.4 113.06Z" fill="#FDECE3"/>
<path d="M156.51 148.34C152.66 148.34 149.02 149.94 145.97 152.99L144.23 149.28H134.56L127.8 197.17H140.3L142.63 180.82C144.3 181.62 146.26 182.13 148.73 182.13C160.29 182.13 167.12 172.68 167.12 160.69C167.12 153.64 163.63 148.33 156.51 148.33V148.34ZM147.57 172.9C146.19 172.9 144.88 172.54 143.86 172.03L145.31 161.71C146.55 159.68 148.29 158.29 150.76 158.29C153.01 158.29 154.1 160.11 154.1 163.52C154.1 168.75 152.06 172.9 147.56 172.9H147.57Z" fill="#FEEDE4"/>
<path d="M140.3 207.68H127.8C124.76 207.68 121.87 206.36 119.87 204.07C117.88 201.77 116.97 198.73 117.4 195.72L124.16 147.83C124.89 142.65 129.32 138.8 134.56 138.8H144.23C145.49 138.8 146.71 139.02 147.85 139.44C150.6 138.39 153.51 137.85 156.51 137.85C168.94 137.85 177.62 147.25 177.62 160.71C177.62 178.15 166.83 191.09 151.57 192.52L150.69 198.67C149.95 203.85 145.52 207.69 140.29 207.69L140.3 207.68ZM143.87 164.24C144.27 165.21 145.09 166.34 146.26 167.24L148.16 163.44L147.94 163.31C146.89 163.51 145.82 163.55 144.74 163.42C144.39 163.68 144.09 163.97 143.87 164.25V164.24Z" fill="#FDECE3"/>
<path d="M188.19 148.34C175.98 148.34 167.99 156.41 167.99 168.25C167.99 176.83 173.66 182.13 183.25 182.13C195.31 182.13 203.38 173.55 203.38 161.78C203.38 153.28 197.71 148.33 188.19 148.33V148.34ZM185.28 172.69C182.01 172.69 180.99 170.58 180.99 166.8C180.99 162.44 182.66 157.79 186.66 157.79C188.91 157.79 190.29 159.61 190.29 163.31C190.29 167.74 188.55 172.69 185.28 172.69V172.69Z" fill="#FEEDE4"/>
<path d="M183.25 192.64C167.84 192.64 157.49 182.84 157.49 168.26C157.49 150.64 170.4 137.85 188.19 137.85C203.56 137.85 213.88 147.47 213.88 161.8C213.88 179.68 201 192.65 183.25 192.65V192.64ZM180.17 164.28C181.05 166.07 183.37 168.29 186.67 168.29C188.72 168.29 190.38 167.19 191.19 166.23C190.28 164.23 187.77 162.19 185.29 162.19C182.81 162.19 181.12 163.29 180.17 164.28Z" fill="#FDECE3"/>
<path d="M263.41 148.34C251.2 148.34 243.21 156.41 243.21 168.25C243.21 176.83 248.88 182.13 258.47 182.13C270.53 182.13 278.6 173.55 278.6 161.78C278.6 153.28 272.93 148.33 263.41 148.33V148.34ZM260.5 172.69C257.23 172.69 256.21 170.58 256.21 166.8C256.21 162.44 257.88 157.79 261.88 157.79C264.13 157.79 265.51 159.61 265.51 163.31C265.51 167.74 263.77 172.69 260.5 172.69V172.69Z" fill="#FEEDE4"/>
<path d="M258.47 192.64C243.06 192.64 232.71 182.84 232.71 168.26C232.71 150.64 245.62 137.85 263.41 137.85C278.78 137.85 289.1 147.47 289.1 161.8C289.1 179.68 276.22 192.65 258.47 192.65V192.64ZM255.39 164.28C256.27 166.07 258.59 168.29 261.89 168.29C263.94 168.29 265.6 167.19 266.41 166.23C265.5 164.23 262.99 162.19 260.51 162.19C258.03 162.19 256.34 163.29 255.39 164.28V164.28Z" fill="#FDECE3"/>
<path d="M229.91 127.51H107.91V158.51H229.91V127.51Z" fill="#FEEDE4"/>
<path d="M331.18 25.6L330.83 25.63L330.41 25.66L329.85 25.7L329.15 25.75L328.34 25.81L327.43 25.87L326.43 25.94L325.35 26.02L324.21 26.1L323.03 26.18L321.81 26.27L320.58 26.36L319.34 26.45L318.11 26.54L316.9 26.63L316.3 27.9L315.69 29.08L315.07 30.17L314.44 31.17L313.81 32.09L313.18 32.93L312.55 33.7L311.92 34.4L311.29 35.03L310.67 35.6L310.06 36.1L309.46 36.55L308.87 36.94L308.3 37.28L307.74 37.57L307.2 37.82L305.82 36.55L304.25 35.47L302.49 34.57L300.55 33.87L298.43 33.36L296.13 33.05L293.66 32.94L291.02 33.03L289.42 33.18L287.85 33.39L286.32 33.67L284.82 34.01L283.36 34.41L281.93 34.87L280.54 35.39L279.19 35.97L277.88 36.6L276.61 37.29L275.38 38.03L274.2 38.82L273.06 39.67L271.97 40.57L270.92 41.51L269.92 42.5L268.97 43.54L268.07 44.62L267.22 45.74L266.42 46.91L265.67 48.12L265.62 48.22L254.99 38.41L254.89 38.3L254.18 37.72L253.4 37.24L255.27 27.26L237.14 10.52L220.96 11.67L219.59 18.94L212.38 12.28H212.33H212.29H212.24H212.18H212.11L212.03 12.29H211.94L211.84 12.3H211.73L211.61 12.32H211.48L211.34 12.34H211.19L211.04 12.36H210.88L210.71 12.38H210.53L210.34 12.41H210.15L209.95 12.44H209.74L209.53 12.47L209.31 12.49L209.08 12.51L208.85 12.53L208.61 12.55L208.37 12.57L208.12 12.59L207.87 12.61L207.61 12.63L207.35 12.65L207.08 12.67L206.81 12.69L206.53 12.71L206.25 12.73L205.97 12.75L205.68 12.77L205.39 12.79L205.1 12.81L204.81 12.83L204.51 12.85L204.21 12.87L203.91 12.89L203.61 12.91L203.31 12.93L203 12.95L202.69 12.97L202.38 12.99L202.07 13.01L201.76 13.03L201.45 13.05L201.14 13.07L200.83 13.09L200.52 13.11L200.21 13.13L199.9 13.15L199.59 13.17L199.28 13.19L198.98 13.21L198.68 13.23L198.38 13.25L198.08 13.27L197.93 13.66L197.78 14.04L197.63 14.41L197.48 14.78L197.33 15.14L197.18 15.49L197.03 15.83L196.88 16.16L196.73 16.49L196.58 16.81L196.43 17.12L196.28 17.42L196.13 17.72L195.98 18.01L195.83 18.29L195.68 18.57L195.53 18.84L195.38 19.1L195.23 19.36L195.08 19.61L194.93 19.85L194.78 20.09L194.63 20.32L194.48 20.55L194.33 20.77L194.18 20.98L194.03 21.19L193.88 21.39L193.73 21.59L193.58 21.78L193.44 21.97L193.3 22.15L193.16 22.33L193.08 22.42L184.24 14.26L184.01 14.28L183.78 14.3L183.54 14.32L183.3 14.34L183.06 14.36L182.82 14.38L182.57 14.4L182.32 14.42L182.07 14.44L181.82 14.46L181.57 14.48L181.31 14.5L181.05 14.52L180.79 14.54L180.53 14.56L180.27 14.58L180.01 14.6L179.75 14.62L179.49 14.64L179.23 14.66L178.97 14.68L178.71 14.7L178.45 14.72L178.2 14.74L177.95 14.76L177.7 14.78L177.45 14.8L177.2 14.82L176.96 14.84L176.72 14.86L176.48 14.88L176.25 14.9L176.02 14.92L175.79 14.94L175.57 14.96L175.35 14.98L175.14 15H174.93L174.73 15.03H174.53L174.34 15.06H174.15L173.97 15.09H173.79L173.62 15.11H173.46L173.3 15.13H173.15L173.01 15.15H172.88L172.75 15.17H172.63L172.52 15.19H172.42L172.33 15.2H172.25L172.17 15.21H172.1H172.04H171.99H171.95H171.92L171.89 15.23V15.25V15.28V15.32L171.88 15.37V15.43L171.86 15.5V15.58L171.84 15.67V15.77L171.82 15.88V15.99L171.8 16.11V16.24L171.78 16.38V16.53L171.77 16.69V16.86V17.04V17.23V17.42V17.62L171.78 17.83V18.04L171.8 18.26L171.82 18.49L171.84 18.72L171.86 18.96L171.89 19.21L171.92 19.46L171.96 19.72L172 19.98L172.04 20.25L172.09 20.52L172.14 20.8L172.2 21.08L172.27 21.37L172.34 21.66L172.42 21.95L172.5 22.25L172.59 22.55L172.69 22.85L172.79 23.16L172.9 23.47L173.02 23.78L173.15 24.09L173.28 24.41L173.42 24.73L173.57 25.05L173.73 25.37L173.9 25.69L174.08 26.01L174.27 26.34L174.46 26.67L174.66 27L174.87 27.33L175.09 27.66L175.32 27.99L175.56 28.32L175.82 28.65L176.09 28.98L176.37 29.31L176.66 29.63L176.96 29.95L177.27 30.27L177.59 30.59L177.93 30.91L178.12 31.09L178.07 31.11L188.15 40.42L187.53 40.44L185.99 40.58L184.48 40.79L183 41.07L181.56 41.41L180.15 41.82L178.78 42.29L177.44 42.82L176.14 43.41L174.88 44.05L174.54 44.24L174.61 44.05L174.7 43.8L174.78 43.55L174.86 43.3L174.93 43.05L175 42.79L175.06 42.53L175.11 42.27L175.17 41.91L175.22 41.55L175.26 41.2L175.28 40.85V40.62L175.29 40.39V40.17V39.95V39.73L175.26 39.51L175.24 39.3L175.21 39.09L175.18 38.88L175.14 38.67L175.1 38.47L175.05 38.27L175 38.07L174.94 37.87L174.88 37.68L174.81 37.49L174.74 37.3L174.66 37.12L174.58 36.94L174.5 36.76L174.41 36.59L174.32 36.42L174.22 36.25L174.12 36.09L174.01 35.93L173.9 35.77L173.78 35.62L173.66 35.47L173.54 35.32L173.44 35.21L173.53 35.18L155.4 18.44L155.31 18.47L155.28 18.43L155.15 18.29L155.01 18.15L154.87 18.02L154.73 17.89L154.58 17.77L154.43 17.65L154.28 17.53L154.12 17.42L153.96 17.31L153.79 17.21L153.62 17.11L153.45 17.01L153.27 16.92L153.09 16.83L152.91 16.75L152.72 16.67L152.53 16.6L152.34 16.53L152.15 16.47L151.95 16.41L151.75 16.36L151.55 16.31L151.34 16.27L151.13 16.23L150.92 16.2L150.71 16.17L150.49 16.15L150.27 16.13H150.05L149.82 16.11H149.59H149.36H149.13L148.89 16.13L148.63 16.15L148.37 16.18L148.11 16.21L147.85 16.25L147.59 16.3L147.34 16.35L147.09 16.41L146.84 16.47L146.59 16.54L146.34 16.62L146.09 16.7L145.84 16.79L145.59 16.88L145.35 16.98L145.11 17.08L144.87 17.19L144.63 17.3L144.39 17.42L144.15 17.54L143.92 17.67L143.69 17.8L143.46 17.94L143.23 18.08L143.01 18.23L142.79 18.38L142.57 18.54L142.35 18.7L142.14 18.87L141.93 19.04L141.72 19.21L141.52 19.39L141.32 19.57L141.12 19.76L140.93 19.95L140.74 20.14L140.55 20.34L140.37 20.54L140.19 20.74L140.01 20.95L139.84 21.16L139.67 21.37L139.51 21.59L139.35 21.81L139.19 22.03L139.04 22.25L138.89 22.48L138.75 22.71L138.61 22.94L138.48 23.18L138.35 23.42L138.23 23.66L138.11 23.9L138 24.14L137.89 24.39L137.79 24.64L137.69 24.89L137.6 25.14L137.51 25.39L137.43 25.65L137.35 25.91L137.28 26.17L137.22 26.43L137.16 26.69L137.11 26.95L137.05 27.29L137 27.63L136.96 27.97L136.94 28.3V28.53L136.93 28.75V28.97V29.19V29.41L136.96 29.62L136.98 29.83L137.01 30.04L137.04 30.25L137.08 30.45L137.12 30.65L137.17 30.85L137.22 31.05L137.28 31.24L137.34 31.43L137.41 31.62L137.48 31.81L137.56 31.99L137.64 32.17L137.73 32.35L137.82 32.52L137.92 32.69L138.02 32.86L138.12 33.02L138.23 33.18L138.34 33.34L138.46 33.49L138.58 33.64L138.7 33.79L138.83 33.93L138.96 34.07L139.05 34.16L138.94 34.19L149.94 44.35L144.78 44.72L142.71 44.95L140.82 45.31L139.09 45.8L137.5 46.39L136.02 47.08L134.63 47.84L133.31 48.67L132.04 49.55L130.8 50.46L129.56 51.39L128.31 52.33L127.51 52.9L120.53 46.45L104.12 47.62L104.29 48.83L104.45 50.13L104.59 51.51L104.7 52.96L104.78 54.48L104.82 56.07V57.72L104.75 59.43L104.7 60.32L104.63 61.23L104.57 61.91L90.83 49.23L90.82 49.22L90.26 48.79L89.64 48.44L88.95 48.16L88.2 47.95L87.39 47.81L86.52 47.73L85.59 47.71L84.6 47.75L83.77 47.82L82.92 47.93L82.06 48.06L81.19 48.22L80.32 48.4L79.46 48.6L78.61 48.82L77.78 49.05L76.97 49.3L76.19 49.56L75.45 49.82L74.75 50.08L74.1 50.35L73.5 50.61L72.96 50.87L72.48 51.12L71.06 61.5L63.34 54.37L62.43 53.37L61.39 52.51L60.21 51.78L58.89 51.18L57.42 50.71L55.81 50.38L54.06 50.18L52.16 50.12L50.12 50.2L48.58 50.34L47.07 50.55L45.59 50.83L44.15 51.17L42.74 51.58L41.37 52.05L40.03 52.58L38.73 53.17L37.47 53.81L36.25 54.51L35.07 55.26L33.93 56.07L32.83 56.93L31.77 57.84L30.76 58.8L29.79 59.8L28.87 60.85L28 61.94L27.17 63.07L26.39 64.25L25.66 65.47L24.98 66.72L24.36 68.01L23.79 69.33L23.27 70.69L22.81 72.08L22.4 73.5L22.05 74.95L21.76 76.43L21.53 77.93L21.36 79.46L21.25 81.01L21.22 83.15L21.35 85.19L21.65 87.12L22.12 88.94L22.76 90.64L23.57 92.21L24.55 93.64L25.71 94.93L26.45 95.57H26.44L43.66 111.47L43.84 111.67L44.37 112.13L44.57 112.31H44.58L45.17 112.81L46.67 113.79L47.53 114.21L13.12 116.65L10.53 129.25L22.38 140.19L28.66 145.99L326.29 124.86L336.86 124.11L339.45 111.51L321.78 95.2L321.32 94.77L312.28 95.41L312.49 95.3L313.75 94.58L314.97 93.81L315.29 93.59L316.15 92.99L317.29 92.11L318.38 91.18L319.43 90.2L319.76 89.87L320.44 89.18L321.4 88.11L322.31 87L323.17 85.85L323.8 84.92L323.98 84.65L324.21 84.27L324.73 83.41L325.39 82.22L325.44 82.13L326.09 80.82L326.29 80.37L326.69 79.47L326.85 79.05L327.22 78.09L327.54 77.15L327.7 76.68L327.87 76.12L328.13 75.25L328.42 74.08L328.49 73.79L328.79 72.3L329.03 70.78L329.18 69.47L329.21 69.24L329.33 67.68V67.01L329.36 65.65L329.3 64.72L329.24 63.73L328.97 61.93L328.6 60.45L328.55 60.24L330.07 59.7L331.52 59.13L332.9 58.52L334.21 57.88L335.45 57.22L336.63 56.54L337.74 55.84L338.79 55.12L339.78 54.39L340.71 53.65L341.59 52.91L342.41 52.17L343.18 51.43L343.89 50.69L344.55 49.96L345.16 49.24L345.72 48.54L346.24 47.86L346.71 47.2L347.14 46.57L347.52 45.97L347.86 45.4L348.16 44.87L348.42 44.38L348.65 43.94L348.84 43.54L349 43.2L349.13 42.91L349.23 42.68L349.3 42.51L349.35 42.37L331.22 25.63L331.18 25.6ZM90.82 67L91.28 67.43L91.06 67.54L90.69 67.74L90.75 67.41L90.82 67.01V67ZM280.81 71.44L280.39 72.86L280.08 74.11L280.39 72.86L280.81 71.44L281.27 70.11L280.81 71.44ZM279.41 77.99L279.31 78.86L279.19 80.43L279.16 81.4L279.19 80.43L279.31 78.86L279.41 77.99ZM193.62 84.55V84.12V84.55ZM193.74 82.02L193.89 80.79L193.98 80.27L193.89 80.79L193.74 82.02ZM179.05 76.92L178.79 77.6L178.56 78.3L178.79 77.6L179.05 76.92ZM178.2 79.43L177.92 80.41L177.57 81.86L177.45 82.45L177.57 81.86L177.92 80.41L178.2 79.43ZM176.75 87.91L176.86 86.36L176.94 85.65L176.86 86.36L176.75 87.91V89.56H176.74V87.91H176.75ZM56.57 89.99L56.66 89.46L56.57 89.99ZM56.2 94.3L56.23 93L56.26 92.55L56.23 93L56.2 94.3L56.22 94.91L56.2 94.3ZM91.91 91.23L91.99 90.82L91.91 91.23L91.76 91.36L91.91 91.23ZM92.19 89.73V89.67V89.73L92.16 89.87L92.19 89.73ZM92.47 88.24L92.61 87.51L92.75 86.79L92.88 86.09L93 85.41L93.02 85.29L93 85.41L92.88 86.09L92.75 86.79L92.61 87.51L92.47 88.24V88.3V88.24ZM93.41 83.01L93.47 82.56L93.41 83.01L93.32 83.55L93.41 83.01ZM108.43 86.62L108.29 87.41L108.15 88.17L108.12 88.32L108.15 88.17L108.29 87.41L108.43 86.62L108.49 86.31L108.43 86.62ZM110.23 76.49L110.3 76.05L110.36 75.7L110.3 76.05L110.23 76.49ZM110.86 72.17V72.21L110.84 72.47L110.8 72.8L110.84 72.47L110.86 72.21V72.17ZM110.69 73.66L110.65 73.93L110.69 73.66L110.72 73.43L110.69 73.66ZM109.93 78.27L109.79 79.07L109.76 79.26L109.79 79.07L109.93 78.27V78.21V78.27ZM109.45 80.96L109.34 81.58L109.19 82.43L109.04 83.28L108.89 84.13L108.74 84.97L108.69 85.23L108.74 84.97L108.89 84.13L109.04 83.28L109.19 82.43L109.34 81.58L109.45 80.96ZM89.82 93L89.1 93.56L88.22 94.21L89.1 93.56L89.82 93ZM73.63 112L74.52 111.55L74.87 111.37L76.07 110.72L77.24 110.05L77.6 109.83L78.36 109.36L78.9 109.01L79.44 108.66L80.48 107.95L81.48 107.23L82.25 106.65L82.44 106.51L83.36 105.79L84.23 105.08L84.96 104.46L85.06 104.38L85.84 103.7L86.57 103.04L87.25 102.4L87.5 102.16L87.88 101.79L88.13 101.54L88.46 101.21L88.99 100.67L89.04 100.62L89.47 100.16L89.89 99.7L90.26 99.29L90.57 98.93L90.78 98.68L90.83 98.62L90.85 100.23L91 101.77L91.2 102.83L91.28 103.23L91.69 104.61L92.01 105.36L92.24 105.9L92.54 106.43L92.92 107.1L93.47 107.83L93.75 108.2L94.72 109.19L95.2 109.57L95.83 110.07L96.23 110.31L96.77 110.64L72.98 112.33L73.06 112.29L73.64 112.02L73.63 112ZM120.77 108.89L121.08 108.73L121.36 108.56L122.33 107.99L123.54 107.2L124.7 106.35L125.82 105.45L126.89 104.5L127.51 103.89L127.92 103.49L128.42 102.95L128.9 102.43L129.84 101.33L130.73 100.18L131.58 98.98L132.38 97.74L132.63 97.31L133.14 96.45L133.64 95.52L133.85 95.12L134.07 94.66L134.52 93.75L134.56 93.65L148.91 106.9L120.7 108.9L120.76 108.87L120.77 108.89ZM169.28 105.28L169.96 104.87L170.64 104.46L171.91 103.6L172.4 103.24L173.1 102.73L173.63 102.31L174.2 101.86L175.22 101L175.44 100.8L176.16 100.16L176.59 99.77L177.02 99.38L177.49 98.94L177.8 98.65L178.49 97.99L179.05 99.03L179.17 99.22L179.68 100.01L180.39 100.93L181.18 101.78L182.05 102.57L182.99 103.29L183.87 103.85L184.01 103.94L184.89 104.4L168.87 105.54L169.29 105.31L169.28 105.28ZM211.19 102.18L212.33 101.6L213.44 101L214.51 100.38L215.03 100.06L215.55 99.74L216.56 99.1L217.53 98.45L218.08 98.06L218.47 97.79L219.07 97.35L223.68 101.6L210.41 102.54L211.2 102.17L211.19 102.18ZM243.44 89.68L252.4 97.95L252.79 98.26L253.05 98.5L254.13 99.27L254.28 99.38L254.37 99.43L241.44 100.35L243.44 89.68V89.68ZM274.19 97.96L274.75 97.61L275.31 97.26L276.4 96.54L277.23 95.95L277.45 95.8L278.45 95.05L279.4 94.3L279.66 94.08L280.29 93.56L280.65 93.25L281.13 92.84L281.91 92.14L282.55 93.03L283.26 93.86L283.64 94.24L284.03 94.63L284.86 95.34L285.49 95.8L285.76 95.99L286.24 96.29L286.72 96.59L286.87 96.67L287.63 97.07L274.09 98.03L274.21 97.96H274.19ZM275.33 82.02L268.1 75.34L275.33 82.02ZM110.7 69.19L110.58 68.72L110.7 69.19L110.76 69.59L110.7 69.19ZM109.87 66.95L109.54 66.49L109.87 66.95L110.15 67.47L109.87 66.95ZM108.97 65.88L109.28 66.2L108.97 65.88ZM89.06 79.01L89.26 78.97L89.06 79.01ZM42.07 85.58L41.9 85.98L41.45 87.15L41.9 85.98L42.07 85.58ZM40.92 88.73L41.23 87.8L40.92 88.73L40.51 90.15L40.37 90.75L40.51 90.15L40.92 88.73ZM325.28 34.36L324.42 33.57L325.28 34.36ZM307.51 49.91L309.11 49.76L311.17 49.69L309.11 49.76L307.51 49.91L307.05 49.97L307.51 49.91ZM301.45 51.14L302.91 50.74L303.45 50.62L302.91 50.74L301.45 51.14L300.02 51.6L299.57 51.77L300.02 51.6L301.45 51.14ZM297.29 52.7L297.77 52.49L297.29 52.7L295.98 53.33L295.34 53.68L295.98 53.33L297.29 52.7ZM147.5 68.22L146.46 69L145.81 69.46L146.46 69L147.5 68.22Z" fill="#D54127"/>
<path d="M212.33 12.71V12.6V12.51L212.34 12.44V12.37V12.32V12.29V12.26H212.29H212.25L212.2 12.27H212.13L212.06 12.28H211.98L211.89 12.29L211.79 12.3H211.68L211.56 12.31L211.43 12.32L211.3 12.33L211.15 12.34L211 12.35L210.84 12.37L210.66 12.38L210.49 12.39L210.3 12.4L210.11 12.42L209.91 12.43L209.7 12.45L209.49 12.46L209.27 12.48L209.05 12.49L208.81 12.51L208.58 12.53L208.33 12.54L208.09 12.56L207.83 12.58L207.57 12.6L207.31 12.62L207.04 12.63L206.77 12.65L206.5 12.67L206.22 12.69L205.94 12.71L205.65 12.73L205.36 12.75L205.07 12.77L204.77 12.8L204.48 12.82L204.18 12.84L203.88 12.86L203.57 12.88L203.27 12.9L202.96 12.92L202.65 12.95L202.35 12.97L202.04 12.99L201.73 13.01L201.42 13.03L201.11 13.06L200.8 13.08L200.49 13.1L200.18 13.12L199.87 13.14L199.56 13.17L199.26 13.19L198.95 13.21L198.65 13.23L198.35 13.25L198.05 13.27L197.9 13.66L197.75 14.05L197.59 14.42L197.44 14.78L197.29 15.14L197.14 15.49L196.99 15.83L196.83 16.16L196.68 16.49L196.53 16.81L196.38 17.12L196.23 17.42L196.08 17.72L195.93 18.01L195.78 18.29L195.63 18.57L195.48 18.83L195.33 19.1L195.18 19.35L195.03 19.6L194.88 19.84L194.74 20.08L194.59 20.31L194.44 20.54L194.29 20.76L194.15 20.97L194 21.18L193.85 21.39L193.71 21.58L193.56 21.78L193.42 21.97L193.27 22.15L193.13 22.33L192.99 22.5L192.84 22.67L192.7 22.84L192.56 23L192.42 23.16L192.27 23.31L192.13 23.46L191.99 23.6L191.85 23.75L191.71 23.88L191.57 24.02L191.44 24.15L191.3 24.28L191.16 24.41L191.02 24.53L190.89 24.65L190.75 24.77L190.61 24.88L190.48 24.99L190.35 25.11L190.21 25.21L190.08 25.32L189.95 25.42L189.81 25.53L189.68 25.63L189.55 25.73L189.42 25.83L189.29 25.92L189.17 26.02L189.04 26.12L188.91 26.21L188.88 26.19L188.84 26.16L188.81 26.14L188.78 26.11L188.74 26.08L188.69 26.04L188.64 26L188.59 25.95L188.54 25.9L188.48 25.84L188.41 25.78L188.34 25.71L188.27 25.64L188.2 25.56L188.12 25.48L188.04 25.39L187.96 25.3L187.87 25.2L187.79 25.09L187.7 24.98L187.61 24.87L187.51 24.74L187.42 24.61L187.32 24.48L187.22 24.33L187.12 24.19L187.02 24.03L186.92 23.87L186.82 23.7L186.72 23.53L186.62 23.34L186.51 23.15L186.41 22.96L186.31 22.75L186.21 22.54L186.1 22.33L186 22.1L185.9 21.87L185.8 21.63L185.7 21.38L185.61 21.13L185.51 20.86L185.42 20.59L185.33 20.31L185.24 20.02L185.15 19.73L185.07 19.43L184.98 19.11L184.9 18.79L184.83 18.46L184.75 18.13L184.68 17.78L184.61 17.42L184.55 17.06L184.49 16.69L184.43 16.3L184.38 15.91L184.33 15.51L184.29 15.1L184.25 14.68L184.21 14.26L183.98 14.27L183.75 14.29L183.52 14.3L183.28 14.32L183.04 14.34L182.79 14.36L182.54 14.37L182.29 14.39L182.04 14.41L181.79 14.43L181.54 14.45L181.28 14.46L181.02 14.48L180.76 14.5L180.51 14.52L180.25 14.54L179.99 14.56L179.73 14.57L179.47 14.59L179.21 14.61L178.95 14.63L178.7 14.65L178.44 14.67L178.19 14.68L177.94 14.7L177.69 14.72L177.44 14.74L177.19 14.75L176.95 14.77L176.71 14.79L176.47 14.81L176.24 14.82L176.01 14.84L175.78 14.85L175.56 14.87L175.34 14.89L175.13 14.9L174.92 14.92L174.71 14.93L174.51 14.94L174.32 14.96L174.13 14.97L173.95 14.98L173.77 15L173.6 15.01L173.44 15.02L173.28 15.03L173.13 15.04L172.99 15.05L172.86 15.06L172.73 15.07L172.61 15.08L172.5 15.09H172.4L172.31 15.1L172.22 15.11H172.14L172.08 15.12H172.02H171.97L171.94 15.13H171.91L171.89 15.15L171.88 15.18V15.21L171.87 15.25L171.86 15.31L171.85 15.37L171.84 15.44L171.83 15.52L171.82 15.61L171.81 15.71L171.8 15.82L171.79 15.93L171.78 16.05V16.18L171.77 16.32L171.76 16.47L171.75 16.64V16.81V16.99V17.17V17.37V17.57L171.76 17.78L171.77 17.99L171.78 18.21L171.79 18.44L171.81 18.67L171.84 18.91L171.86 19.16L171.89 19.41L171.93 19.67L171.97 19.93L172.01 20.2L172.06 20.47L172.12 20.75L172.18 21.03L172.24 21.31L172.31 21.6L172.39 21.9L172.48 22.19L172.57 22.49L172.66 22.8L172.77 23.1L172.88 23.41L173 23.73L173.12 24.04L173.26 24.36L173.4 24.68L173.55 25L173.71 25.32L173.88 25.64L174.05 25.97L174.24 26.29L174.43 26.62L174.64 26.94L174.85 27.27L175.07 27.6L175.31 27.93L175.55 28.25L175.81 28.58L176.07 28.91L176.35 29.23L176.64 29.56L176.94 29.88L177.25 30.2L177.58 30.52L177.91 30.84L178.26 31.15L178.62 31.47L178.99 31.78L179.38 32.09L179.78 32.39L180.19 32.7L180.62 33L181.06 33.29L181.51 33.58L181.98 33.87L182.46 34.16L182.96 34.44L193.66 33.68L194.45 33.31L195.22 32.95L195.96 32.57L196.68 32.2L197.38 31.82L198.06 31.43L198.71 31.05L199.35 30.66L199.97 30.27L200.57 29.87L201.14 29.48L201.7 29.08L202.24 28.68L202.76 28.28L203.26 27.88L203.75 27.48L204.22 27.08L204.67 26.67L205.1 26.27L205.52 25.87L205.92 25.47L206.3 25.07L206.67 24.67L207.02 24.27L207.36 23.88L207.69 23.48L207.99 23.09L208.29 22.7L208.57 22.32L208.84 21.93L209.1 21.55L209.34 21.18L209.57 20.81L209.79 20.44L209.99 20.07L210.19 19.72L210.37 19.36L210.54 19.01L210.71 18.67L210.86 18.34L211 18L211.14 17.68L211.26 17.36L211.38 17.05L211.48 16.75L211.58 16.45L211.67 16.16L211.75 15.88L211.83 15.61L211.9 15.35L211.96 15.09L212.02 14.85L212.07 14.61L212.11 14.39L212.15 14.17L212.19 13.96L212.22 13.77L212.24 13.58L212.27 13.41L212.28 13.24L212.3 13.09L212.31 12.95L212.32 12.82L212.33 12.71Z" fill="#8DD5F6"/>
<path d="M318.7 107.29L321.29 94.69L13.09 116.57L10.5 129.18L318.7 107.29Z" fill="#8DD5F6"/>
<path d="M157.13 24.05L157.14 23.82L157.15 23.6V23.37L157.14 23.15L157.13 22.93L157.11 22.71L157.09 22.5L157.06 22.29L157.03 22.08L156.99 21.87L156.95 21.67L156.9 21.46L156.85 21.27L156.79 21.07L156.73 20.88L156.66 20.69L156.59 20.5L156.52 20.31L156.44 20.13L156.35 19.96L156.26 19.78L156.17 19.61L156.07 19.44L155.97 19.28L155.86 19.11L155.75 18.96L155.63 18.8L155.52 18.65L155.39 18.5L155.26 18.36L155.13 18.22L155 18.08L154.86 17.95L154.72 17.82L154.57 17.7L154.42 17.58L154.26 17.46L154.11 17.35L153.94 17.24L153.78 17.14L153.61 17.04L153.44 16.94L153.26 16.85L153.09 16.76L152.9 16.68L152.72 16.6L152.53 16.53L152.34 16.46L152.14 16.4L151.95 16.34L151.74 16.29L151.54 16.24L151.33 16.2L151.13 16.16L150.91 16.12L150.7 16.09L150.48 16.07L150.26 16.05L150.04 16.04L149.81 16.03H149.58H149.35L149.12 16.04L148.88 16.05L148.63 16.07L148.37 16.1L148.11 16.14L147.85 16.18L147.6 16.22L147.34 16.28L147.09 16.34L146.84 16.4L146.59 16.47L146.34 16.55L146.09 16.63L145.84 16.72L145.59 16.81L145.35 16.91L145.11 17.01L144.87 17.12L144.63 17.23L144.39 17.35L144.15 17.48L143.92 17.6L143.69 17.74L143.46 17.88L143.24 18.02L143.01 18.17L142.79 18.32L142.57 18.47L142.36 18.64L142.14 18.8L141.93 18.97L141.73 19.14L141.52 19.32L141.32 19.5L141.13 19.69L140.93 19.88L140.74 20.07L140.55 20.26L140.37 20.46L140.19 20.67L140.01 20.87L139.84 21.08L139.67 21.29L139.51 21.51L139.35 21.73L139.19 21.95L139.04 22.18L138.89 22.4L138.75 22.63L138.61 22.87L138.48 23.1L138.35 23.34L138.23 23.58L138.11 23.82L138 24.06L137.89 24.31L137.78 24.56L137.68 24.81L137.59 25.06L137.5 25.32L137.42 25.57L137.35 25.83L137.28 26.09L137.21 26.35L137.15 26.61L137.1 26.87L137.04 27.22L136.99 27.56L136.95 27.89L136.93 28.23L136.92 28.45V28.68V28.9L136.93 29.11L136.94 29.33L136.96 29.55L136.98 29.76L137.01 29.97L137.04 30.17L137.08 30.38L137.12 30.58L137.17 30.78L137.23 30.98L137.28 31.17L137.35 31.36L137.42 31.55L137.49 31.74L137.56 31.92L137.65 32.1L137.73 32.28L137.82 32.45L137.92 32.62L138.02 32.79L138.12 32.95L138.23 33.11L138.34 33.27L138.46 33.42L138.58 33.57L138.7 33.72L138.83 33.86L138.97 34L139.1 34.14L139.24 34.27L139.39 34.4L139.53 34.52L139.68 34.64L139.84 34.76L140 34.87L140.16 34.98L140.33 35.08L140.49 35.18L140.67 35.28L140.84 35.37L141.02 35.45L141.2 35.54L141.39 35.61L141.57 35.69L141.77 35.75L141.96 35.82L142.16 35.88L142.35 35.93L142.56 35.98L142.76 36.02L142.97 36.06L143.18 36.1L143.39 36.13L143.61 36.15L143.83 36.17L144.05 36.18L144.27 36.19H144.49H144.72L144.95 36.18L145.18 36.17L145.43 36.15L145.69 36.12L145.94 36.09L146.19 36.05L146.44 36L146.69 35.95L146.95 35.89L147.2 35.82L147.44 35.75L147.69 35.68L147.94 35.6L148.18 35.51L148.43 35.42L148.67 35.32L148.91 35.22L149.15 35.11L149.39 34.99L149.63 34.88L149.86 34.75L150.09 34.62L150.33 34.49L150.55 34.35L150.78 34.21L151 34.06L151.23 33.91L151.44 33.76L151.66 33.6L151.87 33.43L152.09 33.27L152.29 33.09L152.5 32.92L152.7 32.74L152.9 32.55L153.09 32.37L153.29 32.17L153.47 31.98L153.66 31.78L153.84 31.58L154.02 31.38L154.19 31.17L154.36 30.96L154.53 30.74L154.69 30.53L154.85 30.31L155 30.09L155.15 29.86L155.29 29.63L155.43 29.4L155.57 29.17L155.7 28.94L155.82 28.7L155.94 28.46L156.06 28.22L156.17 27.98L156.27 27.73L156.37 27.49L156.47 27.24L156.55 26.99L156.64 26.74L156.71 26.49L156.78 26.23L156.85 25.98L156.91 25.72L156.96 25.46L157.02 25.1L157.07 24.75L157.11 24.4L157.13 24.05Z" fill="#8DD5F6"/>
<path d="M330.83 25.63L330.41 25.66L329.84 25.7L329.15 25.75L328.33 25.8L327.42 25.87L326.42 25.94L325.34 26.02L324.21 26.1L323.02 26.18L321.81 26.27L320.57 26.35L319.33 26.44L318.1 26.53L316.9 26.62L316.29 27.88L315.68 29.06L315.06 30.15L314.43 31.15L313.8 32.08L313.16 32.92L312.53 33.69L311.89 34.39L311.27 35.02L310.65 35.58L310.03 36.09L309.43 36.53L308.84 36.93L308.27 37.27L307.72 37.56L307.18 37.81L305.8 36.54L304.23 35.46L302.47 34.57L300.52 33.86L298.4 33.35L296.1 33.04L293.62 32.92L290.98 33.01L289.38 33.16L287.82 33.38L286.28 33.65L284.79 33.99L283.33 34.39L281.9 34.86L280.51 35.38L279.16 35.95L277.86 36.59L276.59 37.28L275.36 38.02L274.18 38.81L273.04 39.66L271.95 40.55L270.9 41.5L269.9 42.49L268.94 43.52L268.04 44.61L267.18 45.73L266.38 46.9L265.63 48.1L264.93 49.35L264.28 50.63L263.69 51.95L263.16 53.31L262.68 54.7L262.26 56.12L261.9 57.58L261.6 59.06L261.36 60.58L261.18 62.12L261.06 63.68L261.02 65.12L261.06 66.51L261.17 67.84L261.35 69.12L261.07 69.34L260.74 69.59L260.34 69.87L259.89 70.17L259.38 70.49L258.81 70.81L258.19 71.14L257.5 71.47L256.76 71.78L255.96 72.09L255.1 72.38L254.19 72.64L253.22 72.87L252.19 73.07L251.11 73.22L249.97 73.33L248.57 73.36L247.31 73.27L246.18 73.05L245.17 72.73L244.28 72.3L243.5 71.79L242.81 71.21L242.21 70.56L241.7 69.85L241.26 69.11L240.89 68.33L240.58 67.53L240.32 66.72L240.1 65.92L239.92 65.13L239.76 64.36L241.59 63.61L243.36 62.8L245.04 61.93L246.63 61.01L248.13 60.02L249.54 58.98L250.85 57.88L252.05 56.72L253.14 55.49L254.11 54.21L254.96 52.86L255.69 51.45L256.28 49.98L256.73 48.44L257.05 46.84L257.21 45.17L257.23 44.13L257.15 43.13L256.99 42.17L256.75 41.27L256.41 40.43L255.98 39.65L255.46 38.93L254.85 38.28L254.14 37.71L253.34 37.21L252.44 36.79L251.44 36.46L250.35 36.22L249.15 36.07L247.86 36.02L246.46 36.07L245.3 36.19L244.16 36.36L243.04 36.6L241.95 36.89L240.88 37.24L239.84 37.64L238.83 38.08L237.84 38.57L236.87 39.11L235.93 39.68L235.02 40.29L234.13 40.93L233.27 41.61L232.44 42.31L231.64 43.04L230.86 43.79L237.1 10.5L220.92 11.65L210.9 64.77L210.06 65.5L209.09 66.31L207.99 67.17L206.77 68.07L205.43 68.99L203.99 69.93L202.44 70.86L200.79 71.78L199.06 72.66L197.25 73.49L195.35 74.26L193.39 74.96L191.36 75.56L189.28 76.05L187.15 76.41L184.97 76.64L183.74 76.69L182.6 76.64L181.54 76.5L180.58 76.27L179.69 75.95L178.9 75.54L178.18 75.03L177.56 74.44L177.01 73.76L176.55 72.99L176.18 72.13L175.88 71.18L175.67 70.14L175.54 69.02L175.49 67.8L175.52 66.5L175.61 65.28L175.76 64.05L175.97 62.84L176.24 61.64L176.57 60.48L176.95 59.36L177.4 58.29L177.91 57.28L178.48 56.35L179.11 55.5L179.81 54.73L180.57 54.07L181.39 53.53L182.28 53.1L183.24 52.81L184.26 52.66H185L185.66 52.74L186.25 52.92L186.76 53.17L187.2 53.5L187.57 53.88L187.89 54.32L188.15 54.81L188.37 55.34L188.53 55.9L188.65 56.48L188.74 57.08L188.79 57.69L188.82 58.29L188.81 58.89L188.79 59.48L203.28 54.98L203.32 53.13L203.22 51.39L202.99 49.77L202.63 48.28L202.14 46.9L201.5 45.66L200.74 44.53L199.83 43.54L198.79 42.68L197.6 41.94L196.28 41.34L194.81 40.87L193.21 40.54L191.45 40.34L189.56 40.28L187.52 40.36L185.98 40.51L184.47 40.72L182.99 41L181.54 41.34L180.14 41.75L178.76 42.22L177.42 42.74L176.12 43.33L174.86 43.98L173.64 44.68L172.45 45.43L171.31 46.24L170.21 47.1L169.16 48.01L168.15 48.96L167.18 49.97L166.26 51.01L165.38 52.11L164.56 53.24L163.78 54.42L163.05 55.63L162.38 56.89L161.75 58.17L161.18 59.5L160.66 60.86L160.2 62.25L159.79 63.67L159.44 65.11L159.15 66.59L158.92 68.09L158.74 69.62L158.63 71.17L158.61 73.6L158.8 75.9L158.7 75.74L158.13 76.16L157.53 76.6L156.9 77.05L156.24 77.5L155.57 77.95L154.88 78.4L154.19 78.83L153.49 79.24L152.79 79.63L152.1 79.99L151.42 80.31L150.75 80.6L150.11 80.84L149.49 81.03L148.9 81.16L148.35 81.23H147.76L147.23 81.13L146.77 80.92L146.38 80.6L146.08 80.15L145.87 79.58L145.76 78.86L145.75 78L145.85 77.04L146.06 75.94L152.11 44.14L144.79 44.65L142.73 44.88L140.84 45.24L139.11 45.73L137.51 46.32L136.03 47.01L134.65 47.77L133.33 48.6L132.06 49.47L130.82 50.39L129.59 51.32L128.34 52.25L127.04 53.18L125.69 54.09L124.26 54.95L122.72 55.76L121.05 56.51L121.1 55.14L121.12 53.77L121.11 52.44L121.07 51.13L120.99 49.86L120.88 48.64L120.74 47.48L120.56 46.38L104.14 47.54L104.31 48.75L104.47 50.05L104.61 51.43L104.72 52.88L104.8 54.4L104.84 55.99L104.83 57.65L104.77 59.36L104.71 60.25L104.64 61.16L104.56 62.08L104.46 63.02L104.34 63.97L104.2 64.93L104.05 65.9L103.88 66.86L103.69 67.83L103.49 68.79L103.26 69.74L103.02 70.68L102.75 71.61L102.47 72.52L102.16 73.41L101.84 74.28L101.49 75.12L101.12 75.93L100.73 76.71L100.32 77.46L99.88 78.17L99.42 78.84L98.94 79.46L98.43 80.04L97.9 80.56L97.34 81.03L96.76 81.45L96.16 81.81L95.52 82.1L94.86 82.33L94.18 82.49L93.46 82.58L92.38 82.55L91.46 82.32L90.7 81.9L90.09 81.28L89.63 80.49L89.33 79.52L89.17 78.39V77.11L89.24 76.3L89.27 76L89.33 75.63L89.39 75.19L89.47 74.69L89.56 74.13L89.67 73.52L89.78 72.87L89.9 72.18L90.03 71.44L90.16 70.68L90.3 69.89L90.45 69.08L90.6 68.25L90.75 67.4L90.9 66.55L91.06 65.7L91.21 64.84L91.36 64L91.51 63.16L91.66 62.34L91.8 61.54L91.93 60.77L92.06 60.03L92.18 59.32L92.29 58.65L92.39 58.03L92.48 57.45L92.56 56.93L92.63 56.47L92.68 56.07L92.71 55.74L92.73 55.49L92.76 54.39L92.7 53.38L92.57 52.46L92.36 51.63L92.08 50.89L91.73 50.23L91.31 49.65L90.82 49.14L90.27 48.72L89.64 48.36L88.96 48.08L88.21 47.87L87.39 47.72L86.52 47.64L85.59 47.63L84.6 47.67L83.77 47.74L82.91 47.85L82.05 47.98L81.18 48.14L80.31 48.33L79.45 48.53L78.6 48.75L77.77 48.98L76.96 49.23L76.18 49.48L75.44 49.74L74.73 50.01L74.08 50.27L73.48 50.54L72.93 50.8L72.46 51.05L70.93 62.28L71.45 62.17L72.06 62.06L72.7 61.97L73.34 61.9H73.91L74.39 61.97L74.78 62.14L75.08 62.41L75.29 62.78L75.43 63.26L75.49 63.86L75.48 64.58L75.46 64.93L75.42 65.33L75.36 65.78L75.28 66.28L75.2 66.83L75.1 67.41L74.99 68.03L74.88 68.68L74.75 69.36L74.62 70.06L74.48 70.78L74.34 71.51L74.2 72.25L74.06 73L73.92 73.75L73.78 74.5L72.99 75.2L72.05 75.99L70.98 76.83L69.77 77.72L68.44 78.65L66.99 79.59L65.44 80.53L63.77 81.45L62.01 82.34L60.16 83.19L58.23 83.97L56.22 84.67L54.14 85.29L51.99 85.79L49.8 86.16L47.55 86.4L46.32 86.45L45.18 86.4L44.12 86.26L43.15 86.03L42.27 85.71L41.47 85.29L40.76 84.79L40.14 84.2L39.59 83.52L39.13 82.75L38.75 81.89L38.46 80.94L38.25 79.9L38.12 78.78L38.07 77.56L38.1 76.26L38.19 75.04L38.34 73.81L38.55 72.59L38.82 71.4L39.14 70.24L39.53 69.12L39.98 68.05L40.49 67.04L41.06 66.11L41.69 65.25L42.39 64.49L43.15 63.83L43.97 63.29L44.86 62.86L45.82 62.57L46.84 62.42L47.58 62.41L48.24 62.5L48.82 62.68L49.33 62.93L49.78 63.25L50.15 63.64L50.47 64.08L50.73 64.57L50.94 65.1L51.11 65.66L51.23 66.24L51.32 66.84L51.37 67.45L51.39 68.05V68.65L51.37 69.23L65.86 64.74L65.9 62.89L65.8 61.15L65.57 59.53L65.21 58.03L64.71 56.66L64.08 55.41L63.31 54.29L62.41 53.3L61.36 52.43L60.18 51.7L58.86 51.1L57.39 50.63L55.78 50.3L54.03 50.1L52.14 50.04L50.09 50.12L48.55 50.26L47.04 50.48L45.57 50.76L44.12 51.1L42.71 51.51L41.34 51.97L40 52.5L38.7 53.09L37.44 53.73L36.22 54.43L35.03 55.19L33.89 56L32.79 56.86L31.73 57.76L30.72 58.72L29.76 59.72L28.83 60.77L27.96 61.86L27.13 63L26.36 64.18L25.63 65.39L24.95 66.64L24.33 67.93L23.76 69.26L23.24 70.61L22.78 72L22.37 73.42L22.02 74.87L21.73 76.35L21.49 77.85L21.32 79.38L21.21 80.93L21.17 83.07L21.31 85.11L21.61 87.04L22.08 88.86L22.72 90.56L23.53 92.12L24.51 93.55L25.67 94.84L27 95.98L28.5 96.97L30.18 97.79L32.04 98.44L34.07 98.92L36.29 99.21L38.68 99.32L41.25 99.23L42.81 99.09L44.35 98.87L45.85 98.6L47.33 98.26L48.77 97.88L50.19 97.44L51.57 96.96L52.91 96.43L54.23 95.87L55.5 95.27L56.75 94.65L57.95 93.99L59.12 93.32L60.24 92.63L61.33 91.93L62.37 91.21L63.37 90.49L64.33 89.77L65.25 89.06L66.12 88.35L66.94 87.65L67.72 86.97L68.45 86.31L69.13 85.67L69.76 85.05L70.34 84.47L70.87 83.93L71.35 83.42L71.77 82.96L72.14 82.55L72.45 82.19L72.71 81.88L72.72 83.49L72.87 85.03L73.15 86.5L73.56 87.88L74.11 89.17L74.79 90.36L75.62 91.46L76.58 92.45L77.7 93.32L78.95 94.08L80.35 94.71L81.91 95.21L83.61 95.58L85.46 95.8L87.47 95.88L89.64 95.8L91.3 95.64L92.92 95.42L94.49 95.12L96.01 94.76L97.49 94.33L98.93 93.84L100.32 93.29L101.66 92.67L102.96 91.99L104.21 91.26L105.42 90.47L106.58 89.62L107.69 88.72L108.77 87.76L109.79 86.76L110.78 85.7L111.71 84.6L112.61 83.45L113.45 82.25L114.26 81.01L115.01 79.72L115.73 78.4L116.4 77.03L117.02 75.63L117.6 74.19L118.14 72.71L118.63 71.2L119.08 69.66L119.48 68.08L119.84 66.48L120.15 64.85L120.42 63.19L122.16 62.8L123.9 62.35L125.63 61.81L127.32 61.21L128.96 60.52L130.53 59.75L132.01 58.9L133.37 57.97L129.45 79.12L129.12 81.2L128.94 83.07L128.92 84.48L129 85.75L129.19 86.89L129.47 87.9L129.86 88.8L130.33 89.57L130.89 90.24L131.54 90.8L132.27 91.27L133.08 91.64L133.96 91.93L134.92 92.14L135.94 92.27L137.02 92.33H138.16L139.36 92.27L141.3 92.05L143.14 91.71L144.91 91.26L146.59 90.69L148.19 90.05L149.71 89.32L151.15 88.54L152.5 87.72L153.78 86.86L154.96 85.99L156.07 85.12L157.09 84.26L158.03 83.43L158.89 82.64L159.67 81.91L160.36 81.24L160.91 82.28L161.55 83.26L162.26 84.18L163.05 85.03L163.91 85.82L164.86 86.53L165.88 87.18L166.98 87.75L168.16 88.25L169.42 88.67L170.76 89.01L172.18 89.27L173.68 89.45L175.27 89.55L176.93 89.56L178.67 89.47L180.11 89.34L181.52 89.15L182.91 88.91L184.27 88.62L185.61 88.28L186.93 87.9L188.21 87.48L189.47 87.02L190.7 86.52L191.89 86L193.06 85.45L194.2 84.87L195.31 84.27L196.38 83.65L197.42 83.02L198.43 82.38L199.4 81.73L200.34 81.07L201.24 80.41L202.11 79.75L202.93 79.09L203.72 78.44L204.47 77.8L205.18 77.18L205.85 76.57L206.48 75.98L207.07 75.41L207.61 74.87L208.11 74.36L208.57 73.88L208.98 73.44L209.34 73.03L206.88 86.11L223.06 84.96L226.25 67.94L228.04 67.6L228.5 69.7L229.03 71.67L229.62 73.51L230.28 75.23L231.03 76.81L231.86 78.26L232.78 79.57L233.81 80.74L234.93 81.77L236.16 82.65L237.51 83.38L238.98 83.96L240.57 84.38L242.3 84.64L244.17 84.75L246.18 84.68L247.46 84.54L248.74 84.29L250.01 83.96L251.27 83.54L252.5 83.05L253.72 82.5L254.9 81.89L256.06 81.23L257.18 80.54L258.27 79.82L259.31 79.08L260.31 78.33L261.26 77.58L262.15 76.84L262.99 76.12L263.77 75.42L264.41 76.31L265.12 77.14L265.89 77.91L266.72 78.62L267.61 79.28L268.57 79.87L269.58 80.39L270.66 80.86L271.79 81.26L272.98 81.59L274.23 81.86L275.54 82.06L276.9 82.2L278.31 82.26H279.78L281.3 82.19L282.88 82.04L284.43 81.82L285.95 81.53L287.44 81.18L288.89 80.76L290.3 80.28L291.68 79.74L293.02 79.14L294.33 78.48L295.59 77.77L296.81 76.99L297.99 76.17L299.13 75.29L300.22 74.37L301.27 73.39L302.28 72.37L303.23 71.3L304.14 70.19L305 69.03L305.81 67.84L306.56 66.6L307.26 65.33L307.91 64.02L308.51 62.68L309.05 61.3L309.53 59.9L309.95 58.46L310.31 57L310.62 55.51L310.86 53.99L311.04 52.45L311.15 50.89L311.19 48.86L311.06 46.95L310.79 45.14L310.38 43.46L311.89 42.92L313.34 42.35L314.72 41.74L316.03 41.11L317.27 40.45L318.45 39.76L319.56 39.06L320.62 38.34L321.61 37.61L322.54 36.87L323.42 36.13L324.24 35.39L325 34.64L325.72 33.91L326.38 33.18L326.99 32.46L327.55 31.76L328.07 31.08L328.54 30.43L328.97 29.8L329.35 29.2L329.69 28.63L329.99 28.1L330.26 27.62L330.49 27.17L330.68 26.78L330.84 26.43L330.97 26.14L331.06 25.91L331.13 25.74L331.18 25.6L330.83 25.63Z" fill="#8DD5F6"/>
<path d="M294.16 53.01L294.13 54.09L294.02 55.48L293.83 56.86L293.58 58.23L293.25 59.57L292.85 60.87L292.39 62.13L291.87 63.32L291.28 64.45L290.63 65.49L289.93 66.45L289.16 67.29L288.35 68.02L287.48 68.63L286.56 69.1L285.59 69.41L284.57 69.57L283.65 69.6L282.81 69.54L282.04 69.4L281.34 69.18L280.71 68.88L280.15 68.5L279.66 68.04L279.23 67.51L278.87 66.9L278.57 66.22L278.33 65.46L278.15 64.63L278.02 63.72L277.95 62.75L277.94 61.71L277.97 60.59L278.08 59.27L278.26 57.94L278.51 56.63L278.83 55.34L279.22 54.08L279.68 52.87L280.22 51.71L280.83 50.62L281.51 49.6L282.27 48.68L283.1 47.85L284 47.14L284.97 46.54L286.02 46.08L287.14 45.75L288.34 45.59L289.06 45.57L289.74 45.62L290.37 45.75L290.96 45.95L291.51 46.23L292 46.57L292.45 46.99L292.84 47.48L293.19 48.05L293.48 48.69L293.73 49.4L293.92 50.19L294.05 51.06L294.14 51.99L294.16 53.01Z" fill="#D54127"/>
<path d="M240.97 50.6L240.98 51.15L240.87 51.93L240.63 52.67L240.28 53.38L239.81 54.05L239.23 54.69L238.55 55.3L237.78 55.87L236.93 56.41L236 56.92L234.99 57.38L233.92 57.82L232.79 58.21L231.62 58.57L230.39 58.9L229.14 59.18L227.85 59.43L228.26 57.62L228.63 56.79L229.03 55.96L229.47 55.14L229.93 54.34L230.43 53.56L230.96 52.81L231.52 52.1L232.11 51.43L232.73 50.81L233.38 50.24L234.06 49.73L234.77 49.29L235.51 48.92L236.28 48.64L237.08 48.44L237.9 48.33L238.73 48.34L239.41 48.49L239.95 48.76L240.37 49.12L240.67 49.57L240.87 50.07L240.97 50.6Z" fill="#D54127"/>
<path d="M115.66 181.19L114.06 176.18H95.96L93.13 181.19H81.21L109.41 133.22H111.95L127.58 181.19H115.66V181.19ZM101.2 166.95H111.08L107.52 155.83L101.2 166.95Z" fill="#0B6384"/>
<path d="M167.12 160.7C167.12 172.69 160.29 182.14 148.73 182.14C146.26 182.14 144.3 181.63 142.63 180.83L140.3 197.18H127.8L134.56 149.29H144.23L145.97 153C149.02 149.95 152.66 148.35 156.51 148.35C163.63 148.35 167.12 153.66 167.12 160.71V160.7ZM154.11 163.53C154.11 160.11 153.02 158.3 150.77 158.3C148.3 158.3 146.55 159.68 145.32 161.72L143.87 172.04C144.89 172.55 146.2 172.91 147.58 172.91C152.09 172.91 154.12 168.77 154.12 163.53H154.11Z" fill="#0B6384"/>
<path d="M167.99 168.25C167.99 156.4 175.98 148.34 188.19 148.34C197.71 148.34 203.38 153.28 203.38 161.79C203.38 173.56 195.31 182.14 183.25 182.14C173.66 182.14 167.99 176.83 167.99 168.26V168.25ZM190.3 163.31C190.3 159.6 188.92 157.79 186.67 157.79C182.67 157.79 181 162.44 181 166.8C181 170.58 182.02 172.69 185.29 172.69C188.56 172.69 190.3 167.75 190.3 163.31V163.31Z" fill="#0B6384"/>
<path d="M205.78 170.72L211.52 130.31H224.02L218.42 169.7C218.06 172.1 218.57 173.12 219.73 173.33C220.31 173.48 221.11 173.48 222.13 173.26L221.55 180.46C220.1 181.19 217.77 182.13 213.41 182.13C207.89 182.13 204.4 180.17 205.78 170.72V170.72Z" fill="#0B6384"/>
<path d="M225.18 170.72L230.92 130.31H243.42L237.82 169.7C237.46 172.1 237.97 173.12 239.13 173.33C239.71 173.48 240.51 173.48 241.53 173.26L240.95 180.46C239.5 181.19 237.17 182.13 232.81 182.13C227.29 182.13 223.8 180.17 225.18 170.72V170.72Z" fill="#0B6384"/>
<path d="M243.2 168.25C243.2 156.4 251.19 148.34 263.4 148.34C272.92 148.34 278.59 153.28 278.59 161.79C278.59 173.56 270.52 182.14 258.46 182.14C248.87 182.14 243.2 176.83 243.2 168.26V168.25ZM265.51 163.31C265.51 159.6 264.13 157.79 261.88 157.79C257.88 157.79 256.21 162.44 256.21 166.8C256.21 170.58 257.23 172.69 260.5 172.69C263.77 172.69 265.51 167.75 265.51 163.31V163.31Z" fill="#0B6384"/>
</g>
<defs>
<clipPath id="clip0_2259_19064">
<rect width="359.81" height="207.68" fill="white"/>
</clipPath>
</defs>
</svg>
