<svg width="361" height="215" viewBox="0 0 361 215" fill="none" xmlns="http://www.w3.org/2000/svg">
<g clip-path="url(#clip0_2259_19263)">
<path d="M248.17 153.07H207.17V185.07H248.17V153.07Z" fill="#FDECE3"/>
<path d="M331.82 25.63L331.47 25.66L331.05 25.69L330.48 25.73L329.78 25.78L328.97 25.84L328.05 25.9L327.05 25.97L325.97 26.05L324.83 26.13L323.64 26.21L322.42 26.3L321.18 26.39L319.94 26.48L318.71 26.57L317.5 26.66L316.9 27.93L316.29 29.11L315.67 30.2L315.04 31.21L314.41 32.13L313.77 32.98L313.13 33.75L312.5 34.45L311.87 35.08L311.25 35.65L310.64 36.16L310.04 36.61L309.45 37L308.88 37.34L308.32 37.64L307.78 37.89L306.4 36.62L304.82 35.53L303.06 34.63L301.11 33.92L298.98 33.41L296.67 33.1L294.19 32.99L291.54 33.08L289.94 33.23L288.37 33.44L286.83 33.72L285.33 34.06L283.87 34.46L282.44 34.92L281.05 35.44L279.7 36.02L278.39 36.65L277.12 37.34L275.89 38.08L274.7 38.88L273.56 39.73L272.46 40.63L271.41 41.58L270.41 42.57L269.45 43.61L268.54 44.69L267.68 45.82L266.87 46.99L266.12 48.2L266.06 48.3L255.41 38.47L255.31 38.36L254.6 37.78L253.82 37.3L255.69 27.3L237.52 10.53L221.3 11.68L219.93 18.96L212.71 12.29H212.66H212.64H212.62H212.57H212.51H212.44L212.36 12.3H212.27L212.17 12.31H212.06L211.94 12.33H211.81L211.67 12.35H211.52L211.37 12.37H211.21L211.2 12.38H211.04L210.86 12.4H210.67L210.48 12.43H210.28L210.07 12.46L209.86 12.48L209.64 12.5L209.41 12.52L209.18 12.54L208.94 12.56L208.7 12.58L208.45 12.6L208.2 12.62H208.07L207.94 12.64H207.8L207.67 12.66H207.54L207.4 12.68L207.13 12.7L206.85 12.72L206.57 12.74L206.29 12.76L206 12.78L205.71 12.8L205.42 12.82L205.12 12.84L204.82 12.86L204.52 12.88L204.22 12.9L203.92 12.92H203.77L203.61 12.94L203.3 12.96L202.99 12.98L202.68 13L202.37 13.02L202.06 13.04L201.75 13.06L201.44 13.08L201.13 13.1L200.82 13.12L200.51 13.14L200.2 13.16L199.89 13.18H199.74L199.59 13.2L199.29 13.22L198.99 13.24L198.69 13.26L198.39 13.28L198.24 13.67L198.09 14.05L197.94 14.42L197.79 14.79L197.64 15.15L197.49 15.5L197.41 15.67L197.33 15.84L197.18 16.17L197.03 16.5L196.88 16.82L196.73 17.13L196.58 17.43L196.43 17.73L196.28 18.02L196.13 18.3L195.98 18.58L195.83 18.85L195.68 19.11L195.53 19.37L195.38 19.62L195.23 19.86L195.08 20.1L194.93 20.33L194.78 20.56L194.63 20.78L194.48 20.99L194.33 21.2L194.18 21.4L194.03 21.6L193.88 21.79L193.73 21.98L193.58 22.16L193.5 22.26L193.44 22.34L193.36 22.43L184.5 14.25H184.49L184.28 14.27L184.05 14.29L183.81 14.31L183.57 14.33H183.45L183.33 14.35L183.08 14.37L182.83 14.39L182.58 14.41L182.33 14.43L182.08 14.45L181.82 14.47L181.56 14.49L181.3 14.51L181.04 14.53L180.78 14.55L180.52 14.57L180.26 14.59L180 14.61L179.74 14.63L179.48 14.65L179.22 14.67L178.96 14.69L178.7 14.71L178.45 14.73L178.2 14.75L177.95 14.77L177.7 14.79H177.58L177.46 14.81H177.34L177.22 14.83L176.98 14.85H176.86L176.75 14.87L176.52 14.89L176.29 14.91L176.06 14.93L175.84 14.95L175.62 14.97L175.41 14.99L175.2 15.01H175L174.8 15.04H174.61L174.42 15.07H174.24L174.06 15.1H173.89L173.73 15.12H173.57L173.42 15.14H173.28L173.15 15.16H173.02L172.9 15.18H172.79L172.69 15.2H172.6L172.52 15.21H172.44H172.37H172.31H172.26H172.22H172.19L172.16 15.23V15.25V15.28L172.15 15.32V15.37L172.13 15.43V15.5L172.11 15.58V15.67L172.09 15.77V15.88L172.07 15.99V16.11L172.05 16.24V16.38L172.03 16.54V16.7L172.02 16.87V17.05V17.24V17.43V17.63V17.83V18.05L172.04 18.27L172.06 18.5L172.08 18.73L172.1 18.97L172.13 19.22L172.16 19.47L172.2 19.73L172.24 19.99L172.28 20.26L172.33 20.53L172.38 20.81L172.44 21.09L172.51 21.38L172.58 21.67L172.66 21.96L172.74 22.26L172.83 22.56L172.93 22.86L173.03 23.17L173.14 23.48L173.26 23.79L173.32 23.95L173.38 24.11L173.51 24.43L173.65 24.75L173.8 25.07L173.96 25.39L174.13 25.71L174.31 26.04L174.5 26.37L174.7 26.7L174.8 26.86L174.9 27.02L175.01 27.18L175.12 27.34L175.23 27.5L175.34 27.66L175.57 27.99L175.82 28.32L176.08 28.65L176.35 28.98L176.63 29.31L176.92 29.63L177.22 29.95L177.53 30.27L177.85 30.59L178.19 30.91L178.38 31.09L178.33 31.11L188.43 40.44L187.81 40.46L186.27 40.61L184.76 40.82L183.28 41.1L181.83 41.44L180.42 41.85L179.04 42.32L177.7 42.85L176.4 43.44L175.14 44.09L174.8 44.28L174.87 44.09L174.96 43.84L175.04 43.59L175.12 43.34L175.19 43.09L175.26 42.83L175.32 42.57L175.37 42.31L175.43 41.95L175.48 41.59L175.52 41.24L175.54 40.89V40.66L175.55 40.43V40.21V39.99V39.77L175.52 39.55L175.5 39.34L175.47 39.13L175.44 38.92L175.4 38.71L175.36 38.5L175.31 38.3L175.26 38.1L175.2 37.9L175.14 37.71L175.07 37.52L175 37.33L174.92 37.15L174.84 36.97L174.76 36.79L174.67 36.61L174.58 36.44L174.48 36.27L174.38 36.1L174.27 35.94L174.16 35.78L174.04 35.62L173.92 35.47L173.8 35.32L173.7 35.21L173.79 35.18L155.62 18.41L155.53 18.44L155.5 18.4L155.37 18.26L155.23 18.12L155.09 17.99L154.95 17.86L154.8 17.74L154.65 17.62L154.5 17.5L154.34 17.39L154.18 17.28L154.01 17.18L153.84 17.08L153.67 16.98L153.49 16.89L153.31 16.8L153.13 16.72L152.94 16.64L152.75 16.57L152.56 16.5L152.37 16.44L152.17 16.38L151.97 16.33L151.87 16.31L151.77 16.29L151.6 16.25H151.56L151.53 16.24L151.35 16.21L151.24 16.19L151.13 16.17L150.94 16.14H150.91L150.69 16.11H150.58L150.47 16.09H150.25L150.02 16.07H149.79H149.56L149.33 16.08H149.09L148.83 16.12L148.57 16.15L148.45 16.17L148.31 16.19L148.05 16.23L147.79 16.28L147.54 16.33L147.29 16.39L147.04 16.45L146.79 16.52L146.54 16.6L146.29 16.68L146.04 16.77L145.79 16.86L145.55 16.96L145.31 17.06L145.07 17.17L144.83 17.28L144.59 17.4L144.47 17.46L144.35 17.52L144.23 17.58L144.11 17.64L143.88 17.77L143.65 17.91L143.42 18.05L143.2 18.2L142.98 18.35L142.76 18.51L142.54 18.67L142.33 18.84L142.12 19.01L141.91 19.18L141.71 19.36L141.51 19.54L141.31 19.73L141.21 19.83L141.11 19.92L140.92 20.11L140.73 20.31L140.55 20.51L140.37 20.71L140.19 20.92L140.02 21.13L139.85 21.34L139.69 21.56L139.53 21.78L139.37 22L139.22 22.23L139.07 22.46L138.93 22.69L138.79 22.92L138.66 23.16L138.53 23.4L138.41 23.64L138.29 23.88L138.18 24.13L138.07 24.38L137.97 24.63L137.87 24.88L137.78 25.13L137.69 25.38L137.61 25.64L137.53 25.9L137.46 26.16L137.4 26.42L137.34 26.68L137.29 26.94L137.23 27.29L137.18 27.63L137.14 27.97L137.12 28.3V28.53L137.11 28.75V28.97V29.19V29.41L137.14 29.62L137.16 29.83L137.19 30.04L137.22 30.25L137.26 30.46L137.3 30.66L137.35 30.86L137.4 31.06L137.46 31.25L137.48 31.3L137.53 31.44L137.6 31.63L137.67 31.82L137.71 31.91L137.75 32L137.83 32.18L137.92 32.36L138.01 32.53L138.11 32.7L138.21 32.87L138.25 32.93L138.31 33.03L138.42 33.19L138.53 33.35L138.65 33.5L138.77 33.65L138.89 33.8L139.02 33.94L139.15 34.08L139.24 34.17L139.13 34.2L150.16 44.38L144.99 44.75L142.92 44.98L141.03 45.34L139.3 45.83L137.7 46.42L136.22 47.11L134.83 47.88L133.51 48.71L132.24 49.59L131 50.5L129.76 51.43L128.51 52.37L127.71 52.94L120.71 46.48L104.27 47.65L104.44 48.86L104.6 50.16L104.74 51.54L104.85 53L104.93 54.53L104.97 56.12V57.78L104.9 59.49L104.85 60.38L104.78 61.29L104.72 61.97L90.96 49.26L90.95 49.25L90.39 48.82L89.77 48.47L89.08 48.19L88.33 47.98L87.52 47.83L86.64 47.75L85.71 47.73L84.72 47.77L83.89 47.85L83.04 47.96L82.18 48.09L81.31 48.25L80.44 48.43L79.58 48.63L78.73 48.85L77.9 49.08L77.09 49.33L76.31 49.59L75.56 49.85L74.86 50.12L74.2 50.39L73.6 50.65L73.06 50.91L72.58 51.16L71.16 61.56L63.42 54.41L62.51 53.41L61.46 52.54L60.27 51.8L58.94 51.2L57.47 50.73L55.86 50.4L54.11 50.2L52.21 50.14L50.16 50.22L48.62 50.37L47.11 50.58L45.63 50.86L44.18 51.2L42.77 51.61L41.39 52.08L40.05 52.61L38.75 53.2L37.48 53.85L36.25 54.55L35.06 55.31L33.92 56.12L32.82 56.98L31.76 57.89L30.75 58.85L29.78 59.86L28.86 60.91L27.98 62L27.15 63.14L26.37 64.32L25.64 65.54L24.96 66.8L24.33 68.09L23.76 69.42L23.24 70.78L22.78 72.17L22.37 73.59L22.02 75.04L21.73 76.52L21.5 78.02L21.33 79.55L21.22 81.1L21.19 83.25L21.32 85.3L21.62 87.24L22.09 89.06L22.73 90.76L23.54 92.33L24.52 93.76L25.68 95.05L26.42 95.69H26.41L43.66 111.62L43.84 111.82L44.37 112.28L44.57 112.46H44.58L45.17 112.96L46.68 113.95L47.55 114.37L44.25 114.6L13.07 116.81L10.48 129.44L22.35 140.4L28.65 146.21L83.17 142.34L82.14 149.89H95.54L90.52 187.25H103.7L108.72 149.89H122.12L123.54 139.48L326.88 125.04L337.47 124.29L340.06 111.66L322.36 95.31L321.9 94.88L312.84 95.52L313.05 95.41L314.32 94.69L315.55 93.92L315.87 93.7L316.73 93.1L317.87 92.22L318.97 91.29L320.02 90.31L320.35 89.98L321.03 89.29L321.99 88.22L322.9 87.11L323.76 85.95L324.39 85.02L324.57 84.75L324.8 84.37L325.33 83.51L325.99 82.32L326.04 82.23L326.69 80.92L326.89 80.47L327.29 79.57L327.45 79.15L327.83 78.19L328.15 77.25L328.31 76.78L328.48 76.21L328.74 75.34L329.03 74.17L329.1 73.88L329.4 72.39L329.64 70.87L329.79 69.56L329.82 69.33L329.94 67.77V67.1L329.97 65.73L329.91 64.8L329.85 63.81L329.58 62L329.21 60.52L329.16 60.31L330.68 59.77L332.13 59.2L333.51 58.59L334.82 57.95L336.07 57.29L337.25 56.6L338.37 55.9L339.43 55.18L340.42 54.45L341.36 53.71L342.24 52.96L343.06 52.21L343.83 51.47L344.54 50.73L345.2 50L345.81 49.28L346.37 48.58L346.89 47.9L347.36 47.24L347.79 46.61L348.17 46.01L348.51 45.44L348.81 44.91L349.08 44.42L349.31 43.98L349.5 43.58L349.66 43.23L349.79 42.94L349.89 42.71L349.96 42.54L350.01 42.4L331.84 25.63H331.82ZM246.86 100.18L241.9 100.53L243.9 89.84L252.88 98.13L253.27 98.45L253.53 98.69L254.61 99.46L254.76 99.57L254.85 99.62L246.85 100.19L246.86 100.18ZM169.82 105.65L169.17 105.7L169.59 105.47L170.27 105.06L170.95 104.65L172.22 103.79L172.71 103.43L173.41 102.92L173.94 102.5L174.52 102.05L175.54 101.19L175.76 100.99L176.48 100.35L176.91 99.95L177.34 99.55L177.81 99.11L178.12 98.82L178.81 98.16L179.37 99.2L179.49 99.39L180 100.18L180.71 101.1L181.5 101.95L182.37 102.74L183.32 103.46L184.2 104.02L184.34 104.11L185.22 104.57L169.81 105.66L169.82 105.65ZM120.93 109.12L120.99 109.09L121.3 108.93L121.58 108.76L122.55 108.19L123.76 107.4L124.92 106.55L126.04 105.65L127.11 104.69L127.73 104.08L128.14 103.68L128.64 103.14L129.12 102.62L130.06 101.51L130.95 100.36L131.8 99.16L132.6 97.92L132.85 97.49L133.36 96.63L133.86 95.7L134.07 95.3L134.29 94.84L134.74 93.93L134.78 93.83L149.16 107.11L120.89 109.12H120.93ZM219.49 97.53L224.1 101.79L210.8 102.73L211.59 102.36L212.73 101.78L213.84 101.18L214.92 100.56L215.44 100.24L215.96 99.92L216.97 99.27L217.94 98.62L218.49 98.23L218.88 97.96L219.48 97.52L219.49 97.53ZM274.6 98.21L274.72 98.14L275.28 97.79L275.84 97.44L276.93 96.72L277.76 96.13L277.98 95.98L278.98 95.23L279.93 94.48L280.19 94.26L280.82 93.73L281.18 93.42L281.66 93.01L282.44 92.31L283.08 93.2L283.79 94.03L284.17 94.42L284.56 94.81L285.39 95.52L286.02 95.98L286.29 96.17L286.77 96.47L287.25 96.77L287.4 96.85L288.16 97.25L275.78 98.13L274.6 98.21ZM90.99 67.11L91.45 67.54L91.23 67.65L90.86 67.85L90.92 67.52L90.99 67.12V67.11ZM73.18 112.48L73.76 112.21L74.65 111.76L75 111.58L76.21 110.93L77.38 110.26L77.75 110.04L78.51 109.57L79.05 109.22L79.59 108.87L80.64 108.16L81.64 107.44L82.41 106.86L82.6 106.72L83.52 106L84.39 105.29L85.12 104.67L85.22 104.59L86 103.91L86.73 103.25L87.41 102.61L87.66 102.37L88.04 102L88.29 101.75L88.62 101.42L89.15 100.87L89.2 100.82L89.63 100.36L90.05 99.9L90.42 99.49L90.73 99.13L90.94 98.88L90.99 98.82L91.01 100.44L91.16 101.98L91.36 103.04L91.44 103.44L91.85 104.82L92.17 105.58L92.4 106.12L92.7 106.65L93.08 107.32L93.63 108.05L93.91 108.42L94.88 109.41L95.36 109.79L95.99 110.29L96.39 110.53L96.93 110.86L73.09 112.55L73.17 112.51L73.18 112.48Z" fill="#FEEDE4"/>
<path d="M103.71 197.72H90.53C87.5 197.72 84.62 196.41 82.63 194.13C80.64 191.85 79.72 188.82 80.13 185.82L83.55 160.36H82.16C79.13 160.36 76.24 159.05 74.25 156.77C73.43 155.83 72.79 154.76 72.35 153.61L29.41 156.66C26.52 156.86 23.67 155.87 21.54 153.9L3.37998 137.13C0.679984 134.64 -0.520016 130.91 0.219984 127.31L2.80998 114.68C3.75998 110.07 7.65998 106.65 12.35 106.32L21.78 105.65L19.31 103.37C19.31 103.37 19.27 103.34 19.26 103.32L18.87 102.98C18.52 102.68 18.2 102.36 17.89 102.02L16.73 100.73C16.43 100.39 16.15 100.04 15.89 99.67L14.91 98.24C14.66 97.88 14.44 97.51 14.24 97.12L13.43 95.55C13.24 95.19 13.08 94.81 12.93 94.43L12.29 92.73C12.16 92.38 12.04 92.02 11.95 91.65L11.48 89.83C11.39 89.5 11.32 89.16 11.27 88.82L10.97 86.88C10.92 86.57 10.89 86.26 10.87 85.95L10.74 83.9C10.72 83.62 10.71 83.33 10.72 83.05L10.75 80.9C10.75 80.7 10.76 80.5 10.78 80.29L10.89 78.74C10.9 78.6 10.91 78.46 10.93 78.32L11.1 76.79C11.12 76.65 11.14 76.51 11.16 76.37L11.39 74.87C11.41 74.73 11.44 74.58 11.47 74.44L11.76 72.96C11.79 72.82 11.82 72.67 11.85 72.53L12.2 71.08C12.23 70.94 12.27 70.8 12.31 70.65L12.72 69.23C12.76 69.09 12.8 68.95 12.85 68.81L13.31 67.42C13.36 67.28 13.41 67.14 13.46 67L13.98 65.64C14.03 65.5 14.09 65.36 14.15 65.22L14.72 63.89C14.78 63.75 14.84 63.61 14.91 63.47L15.54 62.18C15.61 62.04 15.68 61.91 15.75 61.77L16.43 60.51C16.5 60.37 16.58 60.24 16.66 60.1L17.39 58.88C17.47 58.75 17.55 58.61 17.64 58.48L18.42 57.3C18.51 57.17 18.6 57.04 18.69 56.91L19.52 55.77C19.61 55.64 19.71 55.51 19.81 55.39L20.69 54.3C20.79 54.17 20.89 54.05 21 53.93L21.92 52.88C22.03 52.76 22.14 52.64 22.25 52.52L23.22 51.51C23.33 51.39 23.45 51.28 23.57 51.17L24.58 50.21C24.7 50.1 24.82 49.99 24.94 49.88L26 48.97C26.13 48.86 26.26 48.75 26.39 48.65L27.49 47.79C27.62 47.69 27.75 47.59 27.88 47.5L29.02 46.69C29.16 46.59 29.3 46.5 29.44 46.41L30.63 45.65C30.77 45.56 30.91 45.47 31.06 45.39L32.28 44.69C32.43 44.61 32.57 44.53 32.72 44.45L33.99 43.8C34.14 43.72 34.29 43.65 34.44 43.58L35.74 42.99C35.89 42.92 36.05 42.85 36.21 42.79L37.55 42.26C37.7 42.2 37.86 42.14 38.02 42.09L39.4 41.62C39.56 41.57 39.72 41.52 39.88 41.47L41.29 41.06C41.45 41.01 41.61 40.97 41.77 40.93L43.22 40.59C43.38 40.55 43.54 40.52 43.7 40.49L45.18 40.21C45.34 40.18 45.5 40.15 45.66 40.13L47.17 39.92C47.33 39.9 47.49 39.88 47.65 39.86L49.19 39.71C49.38 39.69 49.57 39.68 49.76 39.67L51.81 39.59C52.06 39.59 52.3 39.58 52.55 39.59L54.45 39.65C54.73 39.65 55.01 39.68 55.29 39.71L57.04 39.91C57.36 39.95 57.68 40 58 40.06L59.61 40.39C59.97 40.46 60.32 40.56 60.67 40.67L62.14 41.14C62.53 41.27 62.92 41.41 63.29 41.58L64.62 42.18C65.03 42.37 65.43 42.58 65.81 42.82L65.98 42.92C66.5 42.5 67.06 42.13 67.67 41.81L68.15 41.56C68.27 41.49 68.4 41.43 68.52 41.37L69.06 41.11C69.16 41.06 69.27 41.01 69.38 40.96L69.98 40.7C70.07 40.66 70.16 40.62 70.25 40.59L70.91 40.32C70.99 40.29 71.08 40.25 71.16 40.22L71.86 39.95C71.93 39.92 72 39.9 72.08 39.87L72.83 39.61C72.9 39.58 72.98 39.56 73.05 39.54L73.83 39.28C73.9 39.26 73.97 39.23 74.05 39.21L74.86 38.96C74.93 38.94 75 38.92 75.07 38.9L75.9 38.67C75.97 38.65 76.05 38.63 76.12 38.61L76.97 38.39C77.04 38.37 77.12 38.35 77.19 38.33L78.05 38.13C78.13 38.11 78.21 38.09 78.3 38.08L79.17 37.9C79.25 37.88 79.34 37.87 79.42 37.85L80.29 37.69C80.39 37.67 80.49 37.66 80.58 37.64L81.44 37.51C81.54 37.49 81.65 37.48 81.75 37.47L82.6 37.36C82.72 37.35 82.84 37.33 82.95 37.32L83.78 37.24C83.94 37.23 84.11 37.21 84.27 37.21L85.26 37.17C85.47 37.17 85.69 37.16 85.9 37.17L86.83 37.19C87.09 37.19 87.34 37.21 87.6 37.23L88.48 37.31C88.77 37.34 89.07 37.38 89.36 37.43L90.17 37.58C90.51 37.64 90.85 37.72 91.18 37.81L91.93 38.02C92.31 38.13 92.69 38.26 93.06 38.41L93.75 38.69C94.16 38.86 94.56 39.05 94.95 39.27L95.57 39.62C95.96 39.84 96.33 40.08 96.68 40.35C98.48 38.46 100.93 37.29 103.55 37.11L119.99 35.94C122.88 35.74 125.73 36.73 127.86 38.7L128.57 39.36L129.26 38.92C129.36 38.86 129.46 38.8 129.56 38.74C129.53 38.69 129.5 38.65 129.47 38.6L129.41 38.5C129.35 38.41 129.26 38.26 129.21 38.17L129.11 38C129.06 37.92 129.01 37.83 128.96 37.74L128.87 37.57C128.82 37.49 128.78 37.41 128.74 37.32L128.65 37.15C128.61 37.06 128.56 36.98 128.52 36.89L128.43 36.71C128.39 36.63 128.35 36.55 128.32 36.47L128.24 36.29C128.2 36.19 128.15 36.1 128.11 36C128.07 35.9 127.97 35.68 127.93 35.57L127.86 35.38C127.82 35.29 127.79 35.2 127.76 35.1L127.69 34.91C127.66 34.82 127.62 34.72 127.59 34.63L127.54 34.49C127.51 34.41 127.47 34.28 127.45 34.2L127.39 34.01C127.36 33.91 127.33 33.81 127.31 33.71L127.26 33.51C127.24 33.43 127.22 33.35 127.2 33.26L127.15 33.06C127.13 32.97 127.11 32.87 127.09 32.78L127.05 32.58C127.03 32.49 127.01 32.4 127 32.31L126.96 32.1C126.94 32.01 126.93 31.93 126.91 31.84L126.88 31.63C126.86 31.54 126.85 31.44 126.84 31.35L126.81 31.14C126.8 31.05 126.79 30.96 126.78 30.86L126.76 30.65C126.76 30.57 126.74 30.48 126.74 30.4L126.72 30.19C126.72 30.1 126.71 30.01 126.7 29.92V29.7C126.68 29.6 126.68 29.51 126.67 29.41V29.19C126.67 29.11 126.66 29.03 126.66 28.96V28.74C126.66 28.66 126.66 28.57 126.66 28.49V28.27C126.66 28.18 126.66 28.09 126.67 28V27.77C126.68 27.67 126.69 27.57 126.7 27.47L126.72 27.14C126.72 27.01 126.74 26.89 126.75 26.76L126.79 26.42C126.8 26.31 126.82 26.19 126.83 26.08L126.88 25.74C126.9 25.62 126.92 25.5 126.94 25.39L127 25.04C127.02 24.95 127.03 24.86 127.05 24.77L127.1 24.51C127.12 24.43 127.13 24.36 127.15 24.28L127.21 24.02C127.23 23.94 127.25 23.87 127.26 23.79L127.32 23.53C127.34 23.45 127.36 23.38 127.38 23.3L127.45 23.04C127.47 22.96 127.49 22.89 127.51 22.81L127.59 22.55C127.61 22.47 127.64 22.4 127.66 22.32L127.74 22.06C127.76 22 127.78 21.94 127.8 21.88L127.89 21.63C127.92 21.55 127.94 21.47 127.97 21.4L128.06 21.15C128.08 21.08 128.11 21.02 128.14 20.95L128.24 20.7C128.26 20.64 128.29 20.57 128.32 20.51L128.42 20.26C128.45 20.18 128.48 20.11 128.52 20.03L128.63 19.78C128.66 19.72 128.68 19.66 128.71 19.6L128.82 19.35C128.85 19.28 128.88 19.22 128.92 19.15L129.04 18.91C129.07 18.85 129.1 18.79 129.13 18.74L129.25 18.5C129.28 18.43 129.32 18.37 129.35 18.3L129.48 18.06C129.51 18 129.54 17.95 129.57 17.89L129.7 17.65C129.74 17.59 129.77 17.52 129.81 17.46L129.95 17.23C129.98 17.17 130.02 17.12 130.05 17.06L130.19 16.83C130.23 16.77 130.26 16.72 130.3 16.66L130.45 16.43C130.49 16.37 130.52 16.32 130.56 16.26L130.71 16.03C130.75 15.97 130.79 15.92 130.83 15.86L130.99 15.64C131.03 15.59 131.06 15.54 131.1 15.49L131.26 15.27C131.3 15.21 131.35 15.15 131.39 15.1L131.55 14.88C131.55 14.88 131.62 14.79 131.66 14.74L131.83 14.53C131.87 14.47 131.92 14.42 131.96 14.36L132.13 14.15C132.13 14.15 132.21 14.05 132.25 14.01L132.43 13.8C132.47 13.75 132.52 13.7 132.56 13.65L132.74 13.45C132.74 13.45 132.82 13.36 132.86 13.32L133.04 13.12C133.09 13.07 133.14 13.02 133.19 12.96L133.38 12.76C133.43 12.71 133.48 12.66 133.53 12.61L133.72 12.42C133.72 12.42 133.78 12.36 133.82 12.32L134.05 12.1C134.05 12.1 134.13 12.02 134.18 11.98L134.38 11.79C134.43 11.74 134.49 11.69 134.54 11.64L134.74 11.46C134.74 11.46 134.83 11.38 134.87 11.34L135.07 11.16C135.12 11.11 135.18 11.07 135.23 11.02L135.44 10.85C135.44 10.85 135.53 10.78 135.58 10.74L135.79 10.57C135.85 10.52 135.9 10.48 135.96 10.43L136.17 10.26C136.17 10.26 136.26 10.19 136.31 10.15L136.53 9.99C136.58 9.95 136.64 9.91 136.7 9.87L136.92 9.71C136.98 9.67 137.03 9.63 137.09 9.59L137.31 9.44C137.36 9.4 137.42 9.37 137.47 9.33L137.69 9.18C137.74 9.14 137.8 9.11 137.85 9.07L138.08 8.93C138.14 8.89 138.21 8.85 138.28 8.81L138.51 8.67C138.51 8.67 138.61 8.61 138.66 8.58L138.89 8.45C138.96 8.41 139.02 8.37 139.09 8.34L139.32 8.21C139.38 8.18 139.44 8.14 139.5 8.11L139.75 7.98C139.81 7.95 139.86 7.92 139.92 7.89L140.16 7.77C140.22 7.74 140.29 7.71 140.35 7.68L140.59 7.57C140.66 7.54 140.73 7.5 140.8 7.47L141.04 7.36C141.1 7.33 141.16 7.31 141.22 7.28L141.46 7.18C141.53 7.15 141.6 7.12 141.67 7.09L141.91 6.99C141.97 6.96 142.04 6.94 142.11 6.91L142.36 6.82C142.43 6.79 142.51 6.76 142.58 6.74L142.83 6.65C142.91 6.62 142.98 6.6 143.06 6.57L143.31 6.49C143.38 6.47 143.45 6.45 143.52 6.42L143.77 6.34C143.84 6.32 143.91 6.3 143.98 6.28L144.23 6.21C144.31 6.19 144.4 6.16 144.48 6.14L144.73 6.08C144.81 6.06 144.88 6.04 144.96 6.02L145.21 5.96C145.28 5.94 145.35 5.93 145.42 5.91L145.67 5.86C145.76 5.84 145.85 5.82 145.95 5.81L146.21 5.76C146.29 5.75 146.37 5.73 146.44 5.72L146.7 5.68C146.78 5.67 146.86 5.66 146.94 5.65L147.19 5.62C147.28 5.61 147.37 5.6 147.47 5.59L147.73 5.56C147.82 5.56 147.9 5.54 147.99 5.54L148.25 5.52C148.33 5.52 148.41 5.51 148.49 5.5H148.73C148.81 5.48 148.89 5.48 148.96 5.47H149.19C149.28 5.46 149.38 5.46 149.47 5.45H149.61C149.72 5.45 149.84 5.45 149.95 5.45H150.18C150.26 5.45 150.33 5.45 150.41 5.45H150.64C150.73 5.46 150.81 5.46 150.9 5.47H151.12C151.21 5.49 151.29 5.49 151.38 5.5H151.55C151.65 5.52 151.76 5.53 151.86 5.54L152.08 5.56C152.17 5.56 152.25 5.58 152.34 5.59L152.55 5.62C152.64 5.63 152.73 5.65 152.82 5.66L153.04 5.7C153.12 5.71 153.2 5.73 153.27 5.74L153.45 5.77C153.45 5.77 153.55 5.79 153.58 5.79C153.61 5.79 153.67 5.81 153.7 5.81C153.74 5.81 153.78 5.83 153.81 5.83L153.98 5.87C154.06 5.89 154.14 5.91 154.22 5.93L154.42 5.98C154.51 6 154.6 6.02 154.69 6.05L154.89 6.1C154.99 6.13 155.08 6.15 155.18 6.18L155.38 6.24C155.46 6.27 155.55 6.29 155.63 6.32L155.82 6.38C155.9 6.41 155.99 6.44 156.07 6.46L156.26 6.53C156.36 6.56 156.46 6.6 156.55 6.64L156.74 6.71C156.82 6.74 156.9 6.77 156.98 6.81L157.17 6.89C157.27 6.93 157.37 6.98 157.47 7.02L157.65 7.1C157.73 7.13 157.8 7.17 157.88 7.21L158.06 7.3C158.15 7.35 158.25 7.39 158.34 7.44L158.52 7.53C158.6 7.57 158.68 7.61 158.76 7.66L158.93 7.76C159.02 7.81 159.1 7.86 159.19 7.91L159.36 8.01C159.46 8.07 159.55 8.12 159.64 8.18L159.81 8.28C159.88 8.33 159.96 8.37 160.03 8.42L160.19 8.53C160.27 8.58 160.35 8.64 160.43 8.7L160.59 8.81C160.68 8.87 160.76 8.93 160.85 9L161 9.12C161.07 9.18 161.15 9.23 161.22 9.29L161.37 9.41C161.45 9.48 161.54 9.54 161.62 9.61L161.77 9.73C161.83 9.79 161.9 9.84 161.96 9.9C162.22 10.09 162.46 10.3 162.7 10.52C163.34 9.19 164.25 8.01 165.38 7.04C167.08 5.6 169.21 4.72 171.43 4.56C171.46 4.56 171.52 4.56 171.56 4.56C171.6 4.56 171.64 4.56 171.66 4.56C171.68 4.56 171.85 4.55 171.87 4.54L183.76 3.7C186.32 3.52 188.86 4.28 190.89 5.83C192.65 4.04 195.03 2.9 197.63 2.72L210.39 1.81C210.39 1.81 210.42 1.81 210.43 1.81L211.54 1.73C211.54 1.73 211.69 1.72 211.7 1.72C211.73 1.72 211.78 1.72 211.84 1.72C211.84 1.72 211.85 1.72 211.86 1.72C213.38 1.6 214.9 1.81 216.31 2.33C217.59 1.64 219.02 1.21 220.54 1.1L236.81 0.029996C239.7 -0.180004 242.55 0.819996 244.68 2.79L262.85 19.56C265.51 22.01 266.71 25.66 266.05 29.21L265.36 32.9L265.46 32.81C265.58 32.7 265.71 32.59 265.84 32.49L266.94 31.59C267.07 31.49 267.2 31.39 267.33 31.29L268.47 30.44C268.6 30.34 268.74 30.24 268.88 30.15L270.07 29.35C270.21 29.26 270.34 29.17 270.48 29.09L271.71 28.35C271.85 28.26 272 28.18 272.14 28.1L273.41 27.41C273.55 27.33 273.7 27.26 273.85 27.19L275.16 26.56C275.3 26.49 275.45 26.42 275.6 26.36L276.95 25.78C277.1 25.72 277.25 25.66 277.4 25.6L278.79 25.08C278.94 25.02 279.09 24.97 279.24 24.92L280.67 24.46C280.82 24.41 280.97 24.37 281.13 24.32L282.59 23.92C282.74 23.88 282.89 23.84 283.05 23.81L284.55 23.47C284.7 23.44 284.85 23.41 285 23.38L286.54 23.1C286.69 23.07 286.84 23.05 286.99 23.03L288.56 22.82C288.71 22.8 288.86 22.78 289.01 22.77L290.61 22.62C290.81 22.6 291.02 22.59 291.22 22.58L293.87 22.49C294.15 22.49 294.43 22.49 294.71 22.49L297.19 22.6C297.5 22.61 297.82 22.64 298.13 22.69L300.44 23C300.79 23.05 301.14 23.11 301.48 23.19L303.61 23.7C303.99 23.79 304.37 23.9 304.73 24.04L306.68 24.75C306.68 24.75 306.71 24.76 306.73 24.77L307.56 23.25L308.08 22.15C309.7 18.73 313.04 16.45 316.82 16.18L331.13 15.16C334.03 14.95 336.87 15.95 339 17.92L357.17 34.69C360.29 37.57 361.37 42.05 359.9 46.04L359.85 46.18C359.82 46.25 359.8 46.32 359.77 46.39L359.7 46.56C359.68 46.62 359.65 46.68 359.63 46.74L359.53 46.97C359.5 47.03 359.48 47.09 359.45 47.15L359.32 47.44C359.29 47.51 359.26 47.58 359.23 47.64L359.07 47.99C359.04 48.06 359.01 48.12 358.98 48.18L358.79 48.58C358.76 48.65 358.72 48.71 358.69 48.78L358.46 49.22C358.42 49.29 358.39 49.36 358.35 49.42L358.08 49.91C358.04 49.98 358 50.05 357.96 50.12L357.66 50.65C357.62 50.72 357.57 50.8 357.53 50.87L357.19 51.44C357.15 51.51 357.1 51.59 357.05 51.66L356.67 52.26C356.62 52.34 356.57 52.41 356.52 52.49L356.09 53.12C356.04 53.2 355.99 53.27 355.93 53.35L355.46 54.01C355.4 54.09 355.34 54.17 355.29 54.25L354.77 54.93C354.71 55.01 354.65 55.09 354.59 55.16L354.03 55.86C353.96 55.94 353.9 56.02 353.83 56.1L353.22 56.82C353.15 56.9 353.08 56.98 353.01 57.06L352.35 57.79C352.28 57.87 352.2 57.95 352.13 58.03L351.42 58.77C351.34 58.85 351.26 58.93 351.18 59.01L350.41 59.75C350.33 59.83 350.24 59.91 350.16 59.99L349.34 60.74C349.25 60.82 349.17 60.89 349.08 60.97L348.2 61.72C348.11 61.8 348.01 61.88 347.92 61.95L346.98 62.69C346.88 62.77 346.79 62.84 346.69 62.91L345.7 63.64C345.6 63.71 345.5 63.79 345.4 63.86L344.34 64.58C344.24 64.65 344.13 64.72 344.02 64.79L342.9 65.49C342.79 65.56 342.68 65.63 342.57 65.69L341.39 66.38C341.28 66.44 341.17 66.51 341.05 66.57L340.51 66.86L340.49 67.94C340.49 68.14 340.48 68.34 340.46 68.55L340.34 70.11C340.33 70.26 340.32 70.4 340.3 70.55L340.12 72.09C340.1 72.24 340.08 72.38 340.06 72.53L339.82 74.05C339.8 74.2 339.77 74.34 339.74 74.49L339.44 75.98C339.41 76.13 339.38 76.27 339.34 76.42L338.98 77.89C338.94 78.04 338.9 78.18 338.86 78.33L338.44 79.77C338.4 79.91 338.35 80.06 338.3 80.2L337.82 81.61C337.77 81.75 337.72 81.9 337.66 82.04L337.12 83.42C337.06 83.56 337 83.71 336.94 83.85L336.34 85.2C336.28 85.34 336.21 85.48 336.14 85.62L335.49 86.93C335.43 87.06 335.36 87.18 335.29 87.31C335.29 87.32 335.23 87.42 335.22 87.43L334.56 88.62C334.48 88.76 334.41 88.89 334.33 89.02L333.57 90.26C333.49 90.39 333.41 90.51 333.33 90.64L333.14 90.93L347.26 103.97C349.96 106.46 351.16 110.19 350.42 113.79L347.83 126.42C346.88 131.03 342.98 134.45 338.29 134.78L132.87 149.37L132.6 151.33C131.89 156.53 127.45 160.41 122.2 160.41H117.98L114.18 188.67C113.48 193.88 109.03 197.77 103.77 197.77L103.71 197.72ZM93.26 139.36H95.56C97.98 139.36 100.3 140.19 102.15 141.69C103.96 140.23 106.26 139.36 108.74 139.36H112.97L113.15 138.03C113.82 133.1 117.85 129.32 122.81 128.97L327.63 114.43L318.12 105.65L313.59 105.97C308.6 106.32 304.06 103.11 302.73 98.3C301.4 93.49 303.64 88.4 308.1 86.14L309.87 85.07L311.28 84.03L312.86 82.6L314 81.37L315.19 79.85L316.25 78.21L317.28 76.21L317.96 74.57L318.59 72.58L319.06 70.5L319.36 68.32L319.44 66.92L319.46 65.97L319.39 64.91L319.26 64.04L318.96 62.82C317.67 57.58 320.56 52.21 325.65 50.41L328.07 49.51L330.05 48.59L331.8 47.62L333.34 46.61L334.69 45.58L336.34 44.09L328.05 36.43L323.95 36.77C323.87 36.89 323.79 37.02 323.71 37.14L323.08 38.06C322.99 38.19 322.91 38.31 322.81 38.43L322.17 39.28C322.08 39.41 321.98 39.53 321.88 39.65L321.24 40.42C321.14 40.55 321.03 40.67 320.92 40.79L320.29 41.49C320.18 41.61 320.06 41.73 319.95 41.85L319.32 42.48C319.2 42.6 319.08 42.72 318.95 42.83L318.33 43.4C318.2 43.52 318.07 43.63 317.94 43.74L317.33 44.25C317.19 44.36 317.06 44.47 316.92 44.57L316.32 45.02C316.18 45.13 316.03 45.23 315.89 45.32L315.3 45.71C315.15 45.81 315.01 45.9 314.85 45.99L314.28 46.33C314.13 46.42 313.98 46.51 313.82 46.59L313.26 46.89C313.1 46.97 312.95 47.05 312.79 47.13L312.25 47.38C308.39 49.19 303.83 48.48 300.69 45.6L299.85 44.83L299.45 44.56L298.88 44.27L298.09 43.98L297.05 43.73L295.73 43.55L294.14 43.48L292.22 43.55L290.03 43.8L287.9 44.23L285.92 44.82L284.08 45.56L282.37 46.44L280.79 47.45L279.33 48.59L277.99 49.85L276.78 51.23L275.69 52.73L275.18 53.55C273.59 56.28 270.86 58.15 267.74 58.65C264.57 59.15 261.34 58.17 258.98 55.99L248.33 46.2C244.65 43.92 242.75 39.6 243.54 35.34L244.34 31.04L233.78 21.29L230.14 21.55C229.25 24.99 226.67 27.77 223.27 28.9C219.64 30.1 215.65 29.24 212.85 26.65L208.96 23.06L205.39 23.31C205.39 23.31 205.39 23.32 205.38 23.33L204.84 24.3C204.84 24.3 204.8 24.37 204.78 24.4L204.63 24.66C204.63 24.66 204.6 24.72 204.58 24.75L204.43 25C204.43 25 204.39 25.06 204.38 25.09L204.23 25.33C204.23 25.33 204.19 25.39 204.17 25.43L204.02 25.67C204.02 25.67 203.97 25.74 203.95 25.78L203.61 26.31C203.61 26.31 203.56 26.38 203.54 26.42L203.39 26.64C203.39 26.64 203.35 26.7 203.33 26.73L203.18 26.94C203.18 26.94 203.13 27.01 203.11 27.04L202.96 27.25C202.96 27.25 202.91 27.32 202.89 27.35L202.55 27.82C202.55 27.82 202.49 27.9 202.47 27.93L202.32 28.12C202.32 28.12 202.28 28.18 202.25 28.21L202.1 28.4C202.1 28.4 202.05 28.46 202.03 28.49L201.88 28.67C201.88 28.67 201.83 28.74 201.8 28.77L201.53 29.11C200.02 30.95 197.93 32.21 195.63 32.71C198.73 35.59 199.8 40.06 198.33 44.03C196.86 48.02 193.14 50.72 188.89 50.89H188.56L186.51 51.14L184.55 51.56L182.71 52.14L180.99 52.87L180.06 53.35C176.21 55.56 171.4 55.11 168.02 52.23C164.81 49.49 163.56 45.12 164.8 41.13L149.41 26.92C149.36 26.88 149.31 26.85 149.26 26.81L148.01 28.04L157.33 36.65C160.41 39.49 161.5 43.89 160.11 47.84C158.72 51.79 155.12 54.54 150.95 54.84L145.98 55.19L144.53 55.35L143.48 55.55L142.58 55.8L141.77 56.1L140.99 56.46L140.19 56.9L139.32 57.44L137.29 58.89L134.82 60.74C134.76 60.78 134.71 60.82 134.65 60.86L133.85 61.43C129.8 64.34 124.27 64 120.6 60.61L116.94 57.23L115.47 57.33V57.77C115.47 57.88 115.47 57.99 115.47 58.1L115.41 59.81C115.41 59.89 115.41 59.98 115.4 60.06L115.35 60.95C115.35 61 115.35 61.06 115.34 61.11L115.27 62.02C115.27 62.08 115.27 62.13 115.26 62.19L115.2 62.87C114.83 66.85 112.24 70.28 108.51 71.71C106.06 72.65 103.41 72.62 101.04 71.73C100.04 74 98.26 75.88 95.96 76.98L95.73 77.1C92.18 78.98 87.87 78.66 84.63 76.3C81.51 74.02 79.9 70.22 80.42 66.41C79.22 68.69 77.19 70.48 74.69 71.38C71.01 72.7 66.89 71.87 64.02 69.21L56.28 62.06C56.03 61.83 55.79 61.58 55.56 61.32L55.27 61.01L54.79 60.84L54.19 60.72L53.34 60.62L52.23 60.59L50.84 60.64L48.79 60.88L46.83 61.3L44.99 61.88L43.27 62.61L41.66 63.48L40.16 64.49L38.77 65.63L37.48 66.91L36.3 68.32L35.23 69.86L34.28 71.52L33.46 73.31L32.78 75.22L32.25 77.24L31.87 79.37L31.67 81.52L31.65 82.94L31.72 84.04C32.53 79.05 36.86 75.23 42.08 75.23H42.09C47.89 75.23 52.59 79.93 52.59 85.73C52.59 91.53 48.11 96.01 42.49 96.22L50.75 103.85C50.87 103.96 50.98 104.07 51.1 104.19L51.18 104.26C51.18 104.26 51.24 104.31 51.27 104.34C51.31 104.37 51.35 104.41 51.39 104.44L51.46 104.5L52.13 104.89C56.39 106.98 58.73 111.67 57.82 116.33C56.91 120.99 52.99 124.46 48.26 124.8L22.89 126.6L32.4 135.38L82.39 131.83C85.54 131.61 88.63 132.82 90.79 135.12C91.93 136.34 92.75 137.79 93.21 139.35L93.26 139.36ZM82.14 58.79L81.66 62.29C82.51 60.66 83.77 59.27 85.32 58.27L85.28 58.23L83.95 58.4L82.13 58.78L82.14 58.79ZM172.14 15.62H172.26V15.63H172.14V15.62ZM73.09 123.02C68.35 123.02 64.15 119.82 62.94 115.18C61.66 110.29 64.05 105.18 68.62 103.03C68.63 103.03 68.72 102.98 68.73 102.98L70.13 102.29L73.77 100.13L76.22 98.38L79 96.08L82.89 92.13C85.71 88.76 90.36 87.48 94.5 88.96C98.64 90.44 101.44 94.32 101.49 98.71V99.88L101.65 100.95L101.91 101.58L101.98 101.63L102.35 101.85C106.27 104.21 108.21 108.84 107.14 113.3C106.07 117.75 102.24 121 97.67 121.32L73.83 123.01C73.58 123.03 73.33 123.04 73.08 123.04L73.09 123.02ZM120.92 119.62C116.25 119.62 112.1 116.52 110.82 111.97C109.47 107.18 111.67 102.09 116.09 99.8L117.02 99.26L118.54 98.21L119.96 97.01L121.29 95.64L122.54 94.1L123.85 92.14L124.91 90.21L125.28 89.46C126.67 86.41 129.43 84.21 132.72 83.54C136.03 82.86 139.47 83.82 141.96 86.11L156.34 99.39C157.52 100.48 158.41 101.8 158.98 103.24C159.66 100.42 161.49 97.92 164.18 96.46L165.3 95.79L167.91 93.88L170.92 91.18L171.57 90.56C173.94 88.29 177.24 87.26 180.48 87.77C183.72 88.29 186.54 90.29 188.09 93.18L188.75 94.28L189.32 94.8L190.08 95.23C194.25 97.4 196.47 102.07 195.51 106.68C194.56 111.28 190.66 114.69 185.97 115.02L169.91 116.16C165.31 116.49 161.07 113.77 159.4 109.55C159.32 109.9 159.22 110.24 159.1 110.58C157.71 114.53 154.11 117.28 149.94 117.58L121.67 119.59C121.42 119.61 121.17 119.62 120.92 119.62ZM210.79 113.24C206.05 113.24 201.85 110.04 200.64 105.4C199.36 100.51 201.74 95.4 206.31 93.25L207.85 92.49L210.4 91.03L213.27 89.07C217.32 86.1 222.91 86.42 226.6 89.82L231.21 94.08C231.57 94.41 231.91 94.77 232.21 95.15L233.57 87.91C234.27 84.16 236.96 81.08 240.59 79.88C244.22 78.68 248.21 79.54 251.02 82.13L259.69 90.14C259.83 90.25 259.97 90.37 260.11 90.48L260.77 90.95C262.41 92.1 263.67 93.67 264.44 95.46C265.15 92.84 266.87 90.52 269.35 89.1L270.97 88.06L272.54 86.91L274.69 85.14L275.4 84.51C277.62 82.52 280.58 81.56 283.54 81.88C286.5 82.2 289.19 83.76 290.94 86.18L291.69 87.11L292.42 87.64L292.98 87.93C297.15 90.1 299.37 94.77 298.42 99.38C297.47 103.99 293.57 107.39 288.88 107.73L275.31 108.69C270.81 109.01 266.67 106.43 264.92 102.36C263.75 106.64 260.04 109.77 255.58 110.09L247.58 110.66L242.62 111.01C239.37 111.24 236.2 109.95 234.04 107.52C233.8 107.25 233.58 106.97 233.37 106.69C231.7 109.87 228.48 112.02 224.82 112.28L211.52 113.22C211.27 113.24 211.02 113.25 210.77 113.25L210.79 113.24Z" fill="#FDECE3"/>
<path d="M135.82 174.18C134.44 176.44 132.98 177.75 131.23 177.75C128.68 177.75 128.39 174.69 128.83 171.71L131.16 155.25H118.56L115.94 174.47C114.85 182.41 117.4 188.16 125.41 188.16C129.05 188.16 131.96 187 134.37 184.45L134.01 187.22C133.35 191.66 131.02 194.14 125.05 194.14C120.9 194.14 117.7 193.56 115.44 191.96L111.65 200.41C113.69 202.23 119.15 203.83 124.98 203.83C135.98 203.83 144.93 198 146.46 187.23L150.97 155.26H138.52L135.83 174.19L135.82 174.18Z" fill="#FEEDE4"/>
<path d="M124.97 214.32C118.44 214.32 109.68 212.72 104.65 208.23C101.24 205.18 100.19 200.28 102.06 196.1L105.85 187.65C106.07 187.16 106.33 186.69 106.61 186.25C105.4 182.95 104.77 178.62 105.54 173.04L108.16 153.83C108.87 148.63 113.31 144.75 118.56 144.75H131.16C132.43 144.75 133.67 144.98 134.84 145.41C135.99 144.98 137.23 144.75 138.52 144.75H150.97C154.01 144.75 156.9 146.07 158.9 148.36C160.9 150.65 161.8 153.7 161.37 156.71L156.86 188.68C154.68 204.02 141.87 214.31 124.98 214.31L124.97 214.32Z" fill="#FDECE3"/>
<path d="M209.81 138.36H200.56L195.24 144.33L191.53 138.36H182.43L189.34 151.39H199.32L209.81 138.36Z" fill="#FEEDE4"/>
<path d="M199.32 161.89H189.34C185.45 161.89 181.89 159.74 180.07 156.31L173.15 143.28C171.42 140.03 171.53 136.1 173.43 132.95C175.33 129.79 178.74 127.86 182.43 127.86H191.53C193.12 127.86 194.66 128.22 196.04 128.88C197.44 128.22 198.98 127.86 200.55 127.86H209.8C213.84 127.86 217.52 130.18 219.27 133.82C221.02 137.46 220.51 141.79 217.98 144.94L207.49 157.97C205.5 160.45 202.49 161.89 199.31 161.89H199.32Z" fill="#FDECE3"/>
<path d="M190.36 164.28C190.36 163.04 191.82 162.46 193.56 162.46C195.3 162.46 198.15 163.19 198.29 166.17L207.39 163.69C207.39 157.43 201.2 154.3 193.77 154.3C187.35 154.3 182.01 156.83 180.07 161.37L181.03 154.74C180.23 154.45 179.43 154.3 178.26 154.3C174.26 154.3 170.76 156.49 167.99 159.47L167.84 155.25H156.04L151.6 187.22H164.12L166.89 167.41C168.86 166.24 170.97 165.95 172.72 165.95C175.49 165.95 177.53 166.39 178.62 167.04L179.28 166.82L179.34 166.4C180.38 176.25 195.3 174.87 195.3 178.11C195.3 178.91 194.28 179.64 191.73 179.64C187.58 179.64 183.28 177.16 181.24 175.2L176.58 183.58C177.82 184.82 182.41 188.17 190.85 188.17C199.29 188.17 206.36 184.02 206.36 177.1C206.36 166.47 190.34 168.43 190.34 164.28H190.36Z" fill="#FEEDE4"/>
<path d="M190.87 198.67C181.99 198.67 175.96 195.94 172.46 193.64C170.53 196.14 167.5 197.73 164.14 197.73H151.62C148.58 197.73 145.7 196.42 143.7 194.12C141.71 191.83 140.8 188.79 141.22 185.78L145.66 153.81C146.38 148.62 150.82 144.76 156.06 144.76H167.86C168.86 144.76 169.82 144.9 170.73 145.16C173.16 144.27 175.69 143.82 178.27 143.82C180.6 143.82 182.62 144.16 184.62 144.89C184.75 144.94 184.88 144.99 185.01 145.04C187.72 144.24 190.67 143.82 193.78 143.82C207.98 143.82 217.9 152 217.9 163.71C217.9 166.12 217.08 168.38 215.67 170.18C216.43 172.17 216.88 174.46 216.88 177.11C216.88 189.61 205.94 198.68 190.87 198.68V198.67Z" fill="#FDECE3"/>
<path d="M241.19 176.37L244.18 155.25H233.99L233.26 156.42C231.22 155.11 228.82 154.31 225.76 154.31C214.18 154.31 207.34 163.7 207.34 175.79C207.34 182.85 210.84 188.17 217.9 188.17C222.05 188.17 225.91 186.35 229.04 183C229.84 186.2 232.1 188.17 236.18 188.17C239.6 188.17 242.44 187.44 243.9 186.71L244.77 180.01C241.35 180.67 240.76 179.57 241.2 176.37H241.19ZM228.81 175.2C227.57 177.02 225.9 178.19 223.64 178.19C221.38 178.19 220.29 176.37 220.29 172.95C220.29 167.71 222.4 163.56 226.84 163.56C228.15 163.56 229.32 163.85 230.34 164.36L228.81 175.21V175.2Z" fill="#FEEDE4"/>
<path d="M236.17 198.67C232.96 198.67 230.03 197.98 227.5 196.7C224.46 198 221.21 198.67 217.89 198.67C205.49 198.67 196.83 189.26 196.83 175.79C196.83 157.26 208.99 143.81 225.75 143.81C228.24 143.81 230.62 144.15 232.88 144.81C233.24 144.77 233.61 144.75 233.98 144.75H244.17C247.21 144.75 250.1 146.07 252.1 148.36C254.09 150.66 255 153.7 254.57 156.72L252.31 172.71C254.52 175 255.58 178.19 255.17 181.36L254.3 188.06C253.85 191.52 251.71 194.53 248.58 196.09C245.32 197.72 240.8 198.65 236.17 198.65V198.67ZM227.98 169.1L226.06 172.94C227.41 172.54 228.83 172.41 230.26 172.58C230.37 172.47 230.47 172.36 230.56 172.25C230.15 171.23 229.26 170.02 227.98 169.11V169.1Z" fill="#FDECE3"/>
<path d="M222.55 151.32H231.8L245.41 138.36H233.25L222.55 151.32Z" fill="#FEEDE4"/>
<path d="M231.8 161.82H222.55C218.48 161.82 214.78 159.47 213.05 155.79C211.32 152.11 211.86 147.76 214.45 144.63L225.15 131.67C227.14 129.25 230.11 127.86 233.25 127.86H245.41C249.7 127.86 253.57 130.47 255.16 134.46C256.75 138.45 255.76 143 252.65 145.96L239.03 158.92C237.08 160.78 234.49 161.81 231.79 161.81L231.8 161.82Z" fill="#FDECE3"/>
<path d="M281.46 161.22C281.46 157.22 278.91 154.23 273.45 154.23C269.15 154.23 265.51 156.12 262.82 158.67L265.95 136.24H253.43L246.37 187.21H258.9L260.5 175.63C260.72 175.56 261.01 175.56 261.23 175.56C263.27 183.79 269.68 188.16 279.36 188.16L282.27 178.99C278.99 178.55 273.53 176.95 270.33 173.67C276.96 171.49 281.47 167.55 281.47 161.22H281.46ZM261.36 169.52L261.43 168.79C262.38 165.95 264.2 163.18 267.26 163.18C268.64 163.18 269.08 164.13 269.08 165C269.08 167.69 265.44 169.01 261.36 169.52Z" fill="#FEEDE4"/>
<path d="M279.35 198.67C274.01 198.67 269.21 197.63 265.1 195.69C263.35 196.98 261.19 197.73 258.88 197.73H246.35C243.31 197.73 240.43 196.42 238.43 194.13C236.43 191.84 235.53 188.8 235.95 185.79L243.01 134.82C243.73 129.63 248.17 125.76 253.41 125.76H265.93C268.97 125.76 271.86 127.08 273.85 129.37C275.84 131.66 276.75 134.71 276.33 137.71L275.48 143.83C285.27 144.67 291.95 151.59 291.95 161.23C291.95 164.93 291.1 168.35 289.49 171.39C290.11 171.98 290.65 172.64 291.12 173.37C292.78 175.99 293.2 179.21 292.26 182.17L289.35 191.34C287.97 195.7 283.92 198.66 279.34 198.66L279.35 198.67Z" fill="#FDECE3"/>
<path d="M331.82 25.63L331.47 25.66L331.05 25.69L330.48 25.73L329.78 25.78L328.97 25.84L328.05 25.9L327.05 25.97L325.97 26.05L324.83 26.13L323.64 26.21L322.42 26.3L321.18 26.39L319.94 26.48L318.71 26.57L317.5 26.66L316.9 27.93L316.29 29.11L315.67 30.2L315.04 31.21L314.41 32.13L313.77 32.98L313.13 33.75L312.5 34.45L311.87 35.08L311.25 35.65L310.64 36.16L310.04 36.61L309.45 37L308.88 37.34L308.32 37.64L307.78 37.89L306.4 36.62L304.82 35.53L303.06 34.63L301.11 33.92L298.98 33.41L296.67 33.1L294.19 32.99L291.54 33.08L289.94 33.23L288.37 33.44L286.83 33.72L285.33 34.06L283.87 34.46L282.44 34.92L281.05 35.44L279.7 36.02L278.39 36.66L277.12 37.35L275.89 38.09L274.7 38.89L273.56 39.74L272.46 40.64L271.41 41.59L270.41 42.58L269.45 43.62L268.54 44.7L267.68 45.83L266.87 47L266.12 48.21L266.06 48.31L255.41 38.48L255.31 38.37L254.6 37.79L253.82 37.31L255.69 27.31L237.52 10.54L221.3 11.69L219.93 18.97L212.71 12.3H212.66H212.62H212.57H212.51H212.44L212.36 12.31H212.27L212.17 12.32H212.06L211.94 12.34H211.81L211.67 12.36H211.52L211.37 12.38H211.21L211.04 12.4H210.86L210.67 12.43H210.48L210.28 12.46H210.07L209.86 12.49L209.64 12.51L209.41 12.53L209.18 12.55L208.94 12.57L208.7 12.59L208.45 12.61L208.2 12.63L207.94 12.65L207.68 12.67L207.41 12.69L207.14 12.71L206.86 12.73L206.58 12.75L206.3 12.77L206.01 12.79L205.72 12.81L205.43 12.83L205.13 12.85L204.83 12.87L204.53 12.89L204.23 12.91L203.93 12.93L203.62 12.95L203.31 12.97L203 12.99L202.69 13.01L202.38 13.03L202.07 13.05L201.76 13.07L201.45 13.09L201.14 13.11L200.83 13.13L200.52 13.15L200.21 13.17L199.9 13.19L199.59 13.21L199.29 13.23L198.99 13.25L198.69 13.27L198.39 13.29L198.24 13.68L198.09 14.06L197.94 14.43L197.79 14.8L197.64 15.16L197.49 15.51L197.34 15.85L197.19 16.18L197.04 16.51L196.89 16.83L196.74 17.14L196.59 17.44L196.44 17.74L196.29 18.03L196.14 18.31L195.99 18.59L195.84 18.86L195.69 19.12L195.54 19.38L195.39 19.63L195.24 19.87L195.09 20.11L194.94 20.34L194.79 20.57L194.64 20.79L194.49 21L194.34 21.21L194.19 21.41L194.04 21.61L193.89 21.8L193.74 21.99L193.6 22.17L193.46 22.35L193.38 22.44L184.52 14.26L184.29 14.28L184.06 14.3L183.82 14.32L183.58 14.34L183.34 14.36L183.09 14.38L182.84 14.4L182.59 14.42L182.34 14.44L182.09 14.46L181.83 14.48L181.57 14.5L181.31 14.52L181.05 14.54L180.79 14.56L180.53 14.58L180.27 14.6L180.01 14.62L179.75 14.64L179.49 14.66L179.23 14.68L178.97 14.7L178.71 14.72L178.46 14.74L178.21 14.76L177.96 14.78L177.71 14.8L177.46 14.82L177.22 14.84L176.98 14.86L176.74 14.88L176.51 14.9L176.28 14.92L176.05 14.94L175.83 14.96L175.61 14.98L175.4 15H175.19L174.99 15.03H174.79L174.6 15.06H174.41L174.23 15.09H174.05L173.88 15.11H173.72L173.56 15.13H173.41L173.27 15.15H173.14L173.01 15.17H172.89L172.78 15.19H172.68L172.59 15.2H172.51L172.43 15.21H172.36H172.3H172.25H172.21H172.18L172.15 15.23V15.26V15.29V15.33L172.14 15.38V15.44L172.12 15.51V15.59L172.1 15.68V15.78L172.08 15.89V16L172.06 16.12V16.25L172.04 16.39V16.54L172.03 16.7V16.87V17.05V17.24V17.43V17.63L172.04 17.84V18.06L172.06 18.28L172.08 18.51L172.1 18.74L172.12 18.98L172.15 19.23L172.18 19.48L172.22 19.74L172.26 20L172.3 20.27L172.35 20.54L172.4 20.82L172.46 21.1L172.53 21.39L172.6 21.68L172.68 21.97L172.76 22.27L172.85 22.57L172.95 22.87L173.05 23.18L173.16 23.49L173.28 23.8L173.41 24.12L173.54 24.44L173.68 24.76L173.83 25.08L173.99 25.4L174.16 25.72L174.34 26.05L174.53 26.38L174.73 26.71L174.93 27.04L175.14 27.37L175.36 27.7L175.59 28.03L175.84 28.36L176.1 28.69L176.37 29.02L176.65 29.35L176.94 29.67L177.24 29.99L177.55 30.31L177.87 30.63L178.21 30.95L178.4 31.13L178.35 31.15L188.45 40.48L187.83 40.5L186.29 40.65L184.78 40.86L183.3 41.14L181.85 41.48L180.44 41.89L179.06 42.36L177.72 42.89L176.42 43.48L175.16 44.13L174.82 44.32L174.89 44.13L174.98 43.88L175.06 43.63L175.14 43.38L175.21 43.13L175.28 42.87L175.34 42.61L175.39 42.35L175.45 41.99L175.5 41.63L175.54 41.28L175.56 40.93V40.7L175.57 40.47V40.25V40.03V39.81L175.54 39.59L175.52 39.38L175.49 39.17L175.46 38.96L175.42 38.75L175.38 38.55L175.33 38.35L175.28 38.15L175.22 37.95L175.16 37.76L175.09 37.57L175.02 37.38L174.94 37.2L174.86 37.02L174.77 36.84L174.68 36.66L174.59 36.49L174.49 36.32L174.39 36.15L174.28 35.99L174.17 35.83L174.05 35.68L173.93 35.53L173.81 35.38L173.71 35.27L173.8 35.24L155.63 18.47L155.54 18.5L155.51 18.46L155.38 18.32L155.24 18.18L155.1 18.05L154.96 17.92L154.81 17.8L154.66 17.68L154.51 17.56L154.35 17.45L154.19 17.34L154.02 17.24L153.85 17.14L153.68 17.04L153.5 16.95L153.32 16.86L153.14 16.78L152.95 16.7L152.76 16.63L152.57 16.56L152.37 16.5L152.17 16.44L151.97 16.39L151.77 16.34L151.56 16.3L151.35 16.26L151.14 16.23L150.92 16.2L150.7 16.18L150.48 16.16H150.26L150.03 16.14H149.8H149.57H149.34L149.1 16.16L148.84 16.18L148.58 16.21L148.32 16.24L148.06 16.28L147.8 16.33L147.54 16.38L147.29 16.44L147.04 16.5L146.79 16.57L146.54 16.65L146.29 16.73L146.04 16.82L145.79 16.91L145.55 17.01L145.31 17.11L145.07 17.22L144.83 17.33L144.59 17.45L144.35 17.57L144.12 17.7L143.89 17.83L143.66 17.97L143.43 18.11L143.21 18.26L142.99 18.41L142.77 18.57L142.55 18.73L142.34 18.9L142.13 19.07L141.92 19.24L141.72 19.42L141.52 19.6L141.32 19.79L141.13 19.98L140.94 20.17L140.75 20.37L140.57 20.57L140.39 20.77L140.21 20.98L140.04 21.19L139.87 21.4L139.71 21.62L139.55 21.84L139.39 22.06L139.24 22.28L139.09 22.51L138.95 22.74L138.81 22.97L138.68 23.21L138.55 23.45L138.43 23.69L138.31 23.93L138.2 24.17L138.09 24.42L137.99 24.67L137.89 24.92L137.8 25.17L137.71 25.42L137.63 25.68L137.55 25.94L137.48 26.2L137.41 26.46L137.35 26.72L137.3 26.98L137.24 27.33L137.19 27.67L137.15 28.01L137.13 28.34V28.57L137.12 28.79V29.01V29.23V29.45L137.15 29.66L137.17 29.87L137.2 30.08L137.23 30.29L137.27 30.5L137.31 30.7L137.36 30.9L137.41 31.1L137.47 31.29L137.53 31.48L137.6 31.67L137.67 31.86L137.75 32.04L137.83 32.22L137.92 32.4L138.01 32.57L138.11 32.74L138.21 32.91L138.31 33.07L138.42 33.23L138.53 33.39L138.65 33.54L138.77 33.69L138.89 33.84L139.02 33.98L139.15 34.12L139.24 34.21L139.13 34.24L150.16 44.42L144.99 44.79L142.92 45.02L141.03 45.38L139.3 45.87L137.7 46.46L136.22 47.15L134.83 47.92L133.51 48.75L132.24 49.63L131 50.54L129.76 51.47L128.51 52.41L127.71 52.98L120.71 46.52L104.27 47.69L104.44 48.9L104.6 50.2L104.74 51.58L104.85 53.04L104.93 54.57L104.97 56.16V57.82L104.9 59.53L104.85 60.42L104.78 61.33L104.72 62.01L90.96 49.3L90.95 49.29L90.39 48.86L89.77 48.51L89.08 48.23L88.33 48.02L87.52 47.87L86.65 47.79L85.72 47.77L84.73 47.81L83.9 47.88L83.05 47.99L82.19 48.12L81.32 48.28L80.45 48.46L79.59 48.66L78.74 48.88L77.91 49.11L77.1 49.36L76.32 49.62L75.57 49.88L74.87 50.15L74.21 50.42L73.61 50.68L73.07 50.94L72.59 51.19L71.17 61.59L63.43 54.44L62.52 53.44L61.47 52.57L60.28 51.83L58.95 51.23L57.48 50.76L55.87 50.43L54.11 50.23L52.21 50.17L50.16 50.25L48.62 50.4L47.11 50.61L45.63 50.89L44.18 51.23L42.77 51.64L41.39 52.11L40.05 52.64L38.75 53.23L37.49 53.88L36.26 54.58L35.07 55.34L33.93 56.15L32.83 57.01L31.77 57.92L30.76 58.88L29.79 59.89L28.87 60.94L27.99 62.03L27.16 63.17L26.38 64.35L25.65 65.57L24.97 66.83L24.34 68.12L23.77 69.45L23.25 70.81L22.79 72.2L22.38 73.62L22.03 75.07L21.74 76.55L21.51 78.06L21.34 79.59L21.23 81.14L21.2 83.29L21.33 85.34L21.63 87.28L22.1 89.1L22.74 90.8L23.55 92.37L24.53 93.8L25.69 95.09L26.43 95.73H26.42L43.67 111.66L43.85 111.86L44.38 112.32L44.58 112.5H44.59L45.18 113L46.69 113.99L47.56 114.41L13.08 116.86L10.49 129.49L22.36 140.45L28.66 146.26L326.88 125.08L337.47 124.33L340.06 111.7L322.36 95.35L321.9 94.92L312.84 95.56L313.05 95.45L314.32 94.73L315.55 93.96L315.87 93.74L316.73 93.14L317.87 92.26L318.97 91.33L320.02 90.35L320.35 90.02L321.03 89.33L321.99 88.26L322.9 87.15L323.76 85.99L324.39 85.06L324.57 84.79L324.8 84.41L325.33 83.55L325.99 82.36L326.04 82.27L326.69 80.96L326.89 80.51L327.29 79.61L327.45 79.19L327.83 78.23L328.15 77.29L328.31 76.82L328.48 76.25L328.74 75.38L329.03 74.21L329.1 73.92L329.4 72.43L329.64 70.91L329.79 69.6L329.82 69.37L329.94 67.81V67.14L329.97 65.77L329.91 64.84L329.85 63.85L329.58 62.04L329.21 60.56L329.16 60.35L330.68 59.81L332.13 59.24L333.51 58.63L334.82 57.99L336.07 57.33L337.25 56.64L338.37 55.94L339.43 55.22L340.42 54.49L341.36 53.75L342.24 53.01L343.06 52.26L343.83 51.52L344.54 50.78L345.2 50.05L345.81 49.33L346.37 48.63L346.89 47.95L347.36 47.29L347.79 46.66L348.17 46.06L348.51 45.49L348.81 44.96L349.08 44.47L349.31 44.03L349.5 43.63L349.66 43.28L349.79 42.99L349.89 42.76L349.96 42.59L350.01 42.45L331.84 25.68L331.82 25.63ZM90.98 67.12L91.44 67.55L91.22 67.66L90.85 67.86L90.91 67.53L90.98 67.13V67.12ZM281.34 71.56L280.92 72.99L280.61 74.24L280.92 72.99L281.34 71.56L281.8 70.23L281.34 71.56ZM279.94 78.12L279.84 78.99L279.72 80.56L279.69 81.54L279.72 80.56L279.84 78.99L279.94 78.12ZM193.98 84.69V84.26V84.69ZM194.1 82.16L194.25 80.93L194.34 80.41L194.25 80.93L194.1 82.16ZM179.38 77.05L179.12 77.73L178.89 78.43L179.12 77.73L179.38 77.05ZM178.53 79.56L178.25 80.54L177.9 81.99L177.78 82.58L177.9 81.99L178.25 80.54L178.53 79.56ZM177.08 88.06L177.19 86.51L177.27 85.8L177.19 86.51L177.08 88.06V89.71H177.07V88.06H177.08ZM56.67 90.15L56.76 89.62L56.67 90.15ZM56.3 94.47L56.33 93.17L56.36 92.72L56.33 93.17L56.3 94.47L56.32 95.08L56.3 94.47ZM92.08 91.4L92.16 90.99L92.08 91.4L91.93 91.53L92.08 91.4ZM92.36 89.9V89.84V89.9L92.33 90.04L92.36 89.9ZM92.65 88.41L92.79 87.68L92.93 86.96L93.06 86.26L93.18 85.58L93.2 85.46L93.18 85.58L93.06 86.26L92.93 86.96L92.79 87.68L92.65 88.41V88.47V88.41ZM93.59 83.17L93.65 82.72L93.59 83.17L93.5 83.72L93.59 83.17ZM108.64 86.79L108.5 87.58L108.36 88.35L108.33 88.5L108.36 88.35L108.5 87.58L108.64 86.79L108.7 86.48L108.64 86.79ZM110.44 76.64L110.52 76.2L110.58 75.85L110.52 76.2L110.44 76.64ZM111.07 72.32V72.36L111.05 72.62L111.01 72.95L111.05 72.62L111.07 72.36V72.32ZM110.9 73.81L110.86 74.08L110.9 73.81L110.93 73.58L110.9 73.81ZM110.13 78.43L109.99 79.23L109.96 79.42L109.99 79.23L110.13 78.43V78.37V78.43ZM109.65 81.12L109.54 81.74L109.39 82.59L109.24 83.45L109.09 84.3L108.94 85.15L108.89 85.41L108.94 85.15L109.09 84.3L109.24 83.45L109.39 82.59L109.54 81.74L109.65 81.12ZM89.98 93.18L89.26 93.74L88.38 94.39L89.26 93.74L89.98 93.18ZM73.76 112.22L74.65 111.77L75 111.59L76.21 110.94L77.38 110.27L77.75 110.05L78.51 109.58L79.05 109.23L79.59 108.88L80.64 108.17L81.64 107.45L82.41 106.87L82.6 106.73L83.52 106.01L84.39 105.3L85.12 104.68L85.22 104.6L86 103.92L86.73 103.26L87.41 102.62L87.66 102.38L88.04 102.01L88.29 101.76L88.62 101.43L89.15 100.88L89.2 100.83L89.63 100.37L90.05 99.91L90.42 99.5L90.73 99.14L90.94 98.89L90.99 98.83L91.01 100.44L91.16 101.98L91.36 103.04L91.44 103.44L91.85 104.82L92.17 105.58L92.4 106.12L92.7 106.65L93.08 107.32L93.63 108.05L93.91 108.42L94.88 109.41L95.36 109.79L95.99 110.29L96.39 110.53L96.93 110.86L73.09 112.55L73.17 112.51L73.75 112.24L73.76 112.22ZM120.99 109.1L121.3 108.94L121.58 108.77L122.55 108.2L123.76 107.41L124.92 106.56L126.04 105.66L127.11 104.7L127.73 104.09L128.14 103.69L128.64 103.15L129.12 102.63L130.06 101.52L130.95 100.37L131.8 99.17L132.6 97.93L132.85 97.5L133.36 96.64L133.86 95.71L134.07 95.31L134.29 94.85L134.74 93.94L134.78 93.84L149.16 107.12L120.89 109.13L120.95 109.1H120.99ZM169.59 105.48L170.27 105.07L170.95 104.66L172.22 103.8L172.71 103.44L173.41 102.93L173.94 102.51L174.52 102.06L175.55 101.2L175.77 101L176.49 100.36L176.92 99.96L177.35 99.56L177.82 99.12L178.13 98.83L178.82 98.17L179.38 99.21L179.5 99.4L180.01 100.19L180.72 101.11L181.51 101.96L182.38 102.75L183.33 103.47L184.21 104.03L184.35 104.12L185.23 104.58L169.17 105.72L169.59 105.49V105.48ZM211.59 102.38L212.73 101.8L213.84 101.2L214.92 100.58L215.44 100.26L215.96 99.94L216.97 99.29L217.94 98.64L218.49 98.25L218.88 97.98L219.48 97.54L224.09 101.8L210.79 102.74L211.58 102.37L211.59 102.38ZM243.9 89.86L252.88 98.15L253.27 98.47L253.53 98.71L254.61 99.48L254.76 99.59L254.85 99.64L241.89 100.56L243.89 89.87L243.9 89.86ZM274.71 98.16L275.27 97.81L275.83 97.46L276.92 96.74L277.75 96.15L277.97 96L278.97 95.25L279.92 94.5L280.18 94.28L280.81 93.75L281.17 93.44L281.65 93.03L282.43 92.33L283.07 93.22L283.78 94.05L284.16 94.44L284.55 94.83L285.38 95.54L286.01 96L286.28 96.19L286.76 96.49L287.24 96.79L287.39 96.87L288.15 97.27L274.59 98.23L274.71 98.16ZM275.85 82.19L268.61 75.5L275.85 82.19ZM110.89 69.34L110.77 68.87L110.89 69.34L110.95 69.74L110.89 69.34ZM110.05 67.1L109.72 66.64L110.05 67.1L110.33 67.62L110.05 67.1ZM109.15 66.03L109.46 66.35L109.15 66.03ZM89.2 79.18L89.4 79.14L89.2 79.18ZM42.11 85.77L41.94 86.17L41.49 87.34L41.94 86.17L42.11 85.77ZM40.95 88.92L41.26 87.99L40.95 88.92L40.54 90.34L40.39 90.94L40.54 90.34L40.95 88.92ZM325.9 34.4L325.04 33.61L325.9 34.4ZM308.1 49.98L309.7 49.83L311.76 49.76L309.7 49.83L308.1 49.98L307.63 50.04L308.1 49.98ZM302.03 51.21L303.49 50.81L304.03 50.69L303.49 50.81L302.03 51.21L300.6 51.67L300.15 51.84L300.6 51.67L302.03 51.21ZM297.86 52.77L298.34 52.56L297.86 52.77L296.55 53.41L295.9 53.76L296.55 53.41L297.86 52.77ZM147.78 68.32L146.74 69.1L146.09 69.56L146.74 69.1L147.78 68.32Z" fill="#D54127"/>
<path d="M212.73 12.71V12.61V12.52L212.74 12.44V12.38V12.33V12.29V12.26L212.68 12.27H212.65H212.6L212.53 12.28H212.46L212.38 12.29H212.29L212.19 12.3L212.08 12.31L211.96 12.32L211.83 12.33L211.69 12.34L211.55 12.35L211.39 12.36L211.23 12.37L211.06 12.38L210.88 12.39L210.7 12.41L210.5 12.42L210.31 12.43L210.1 12.45L209.88 12.46L209.67 12.48L209.44 12.5L209.21 12.51L208.97 12.53L208.73 12.55L208.48 12.56L208.22 12.58L207.97 12.6L207.7 12.62L207.43 12.64L207.16 12.66L206.89 12.68L206.61 12.7L206.32 12.72L206.04 12.74L205.75 12.76L205.45 12.78L205.16 12.8L204.86 12.82L204.56 12.84L204.26 12.86L203.96 12.89L203.65 12.91L203.34 12.93L203.04 12.95L202.73 12.97L202.42 12.99L202.11 13.02L201.8 13.04L201.49 13.06L201.17 13.08L200.86 13.1L200.55 13.13L200.25 13.15L199.94 13.17L199.63 13.19L199.33 13.21L199.02 13.24L198.72 13.26L198.42 13.28L198.27 13.67L198.12 14.05L197.96 14.43L197.81 14.79L197.66 15.15L197.51 15.5L197.36 15.84L197.2 16.18L197.05 16.5L196.9 16.82L196.75 17.13L196.6 17.44L196.45 17.73L196.3 18.02L196.15 18.31L196 18.58L195.85 18.85L195.7 19.11L195.55 19.37L195.4 19.62L195.25 19.86L195.1 20.1L194.95 20.33L194.81 20.56L194.66 20.78L194.51 20.99L194.36 21.2L194.22 21.41L194.07 21.61L193.93 21.8L193.78 21.99L193.64 22.17L193.49 22.35L193.35 22.53L193.2 22.7L193.06 22.86L192.92 23.02L192.78 23.18L192.63 23.33L192.49 23.48L192.35 23.63L192.21 23.77L192.07 23.91L191.93 24.05L191.79 24.18L191.66 24.31L191.52 24.43L191.38 24.56L191.24 24.68L191.11 24.79L190.97 24.91L190.84 25.02L190.7 25.13L190.57 25.24L190.43 25.35L190.3 25.45L190.17 25.56L190.04 25.66L189.91 25.76L189.78 25.86L189.65 25.95L189.52 26.05L189.39 26.15L189.26 26.24L189.24 26.22L189.19 26.19L189.16 26.17L189.13 26.14L189.09 26.11L189.05 26.07L189 26.03L188.95 25.98L188.89 25.93L188.83 25.87L188.76 25.81L188.7 25.74L188.63 25.67L188.55 25.59L188.47 25.51L188.39 25.42L188.31 25.33L188.23 25.23L188.14 25.12L188.05 25.01L187.96 24.89L187.86 24.77L187.77 24.64L187.67 24.5L187.57 24.36L187.47 24.21L187.37 24.06L187.27 23.9L187.17 23.73L187.07 23.55L186.96 23.37L186.86 23.18L186.76 22.98L186.66 22.78L186.55 22.57L186.45 22.35L186.35 22.12L186.25 21.89L186.15 21.65L186.05 21.4L185.96 21.15L185.86 20.88L185.77 20.61L185.67 20.33L185.58 20.04L185.5 19.75L185.41 19.44L185.33 19.13L185.25 18.81L185.17 18.48L185.1 18.14L185.03 17.79L184.96 17.44L184.89 17.07L184.83 16.7L184.78 16.32L184.72 15.92L184.68 15.52L184.63 15.11L184.59 14.69L184.56 14.26L184.33 14.28L184.09 14.3L183.86 14.31L183.62 14.33L183.38 14.35L183.13 14.36L182.88 14.38L182.63 14.4L182.38 14.42L182.13 14.44L181.87 14.45L181.62 14.47L181.36 14.49L181.1 14.51L180.84 14.53L180.58 14.55L180.32 14.56L180.06 14.58L179.8 14.6L179.55 14.62L179.29 14.64L179.03 14.66L178.77 14.67L178.52 14.69L178.27 14.71L178.02 14.73L177.77 14.74L177.52 14.76L177.28 14.78L177.04 14.8L176.8 14.81L176.57 14.83L176.33 14.85L176.11 14.86L175.88 14.88L175.67 14.89L175.45 14.91L175.24 14.92L175.04 14.94L174.84 14.95L174.64 14.97L174.46 14.98L174.27 14.99L174.1 15.01L173.93 15.02L173.76 15.03L173.61 15.04L173.46 15.05L173.31 15.06L173.18 15.07L173.05 15.08L172.93 15.09L172.82 15.1H172.72L172.63 15.11L172.54 15.12H172.47L172.4 15.13H172.34H172.29L172.26 15.14H172.23L172.21 15.16L172.2 15.18V15.22L172.19 15.26L172.18 15.32L172.17 15.38L172.16 15.45L172.15 15.53L172.14 15.62L172.13 15.72L172.12 15.83L172.11 15.94L172.1 16.06V16.19L172.09 16.33L172.08 16.49L172.07 16.65V16.82V17V17.19V17.38V17.58L172.08 17.79L172.09 18L172.1 18.23L172.11 18.46L172.13 18.69L172.16 18.93L172.18 19.18L172.21 19.43L172.25 19.69L172.29 19.95L172.33 20.22L172.38 20.49L172.44 20.77L172.5 21.05L172.56 21.34L172.64 21.63L172.71 21.92L172.8 22.22L172.89 22.52L172.98 22.82L173.09 23.13L173.2 23.44L173.32 23.75L173.45 24.07L173.58 24.38L173.72 24.7L173.87 25.02L174.03 25.35L174.2 25.67L174.38 26L174.56 26.32L174.76 26.65L174.96 26.98L175.18 27.3L175.4 27.63L175.64 27.96L175.88 28.29L176.14 28.62L176.4 28.94L176.68 29.27L176.97 29.59L177.27 29.92L177.58 30.24L177.91 30.56L178.24 30.88L178.59 31.19L178.95 31.51L179.33 31.82L179.71 32.13L180.11 32.44L180.53 32.74L180.95 33.04L181.4 33.34L181.85 33.63L182.32 33.92L182.81 34.2L183.3 34.48L194.03 33.72L194.81 33.36L195.58 32.99L196.33 32.62L197.05 32.24L197.75 31.86L198.43 31.48L199.09 31.09L199.73 30.7L200.34 30.31L200.94 29.91L201.52 29.52L202.08 29.12L202.62 28.72L203.14 28.32L203.65 27.91L204.13 27.51L204.6 27.11L205.05 26.71L205.49 26.3L205.9 25.9L206.3 25.5L206.69 25.1L207.06 24.7L207.41 24.3L207.75 23.9L208.08 23.51L208.39 23.12L208.68 22.73L208.96 22.34L209.23 21.96L209.49 21.57L209.73 21.2L209.96 20.83L210.18 20.46L210.39 20.09L210.58 19.73L210.77 19.38L210.94 19.03L211.1 18.69L211.26 18.35L211.4 18.02L211.53 17.69L211.66 17.38L211.77 17.07L211.88 16.76L211.98 16.46L212.07 16.18L212.15 15.89L212.23 15.62L212.3 15.36L212.36 15.1L212.42 14.86L212.47 14.62L212.51 14.39L212.55 14.18L212.59 13.97L212.62 13.77L212.64 13.59L212.67 13.41L212.68 13.25L212.7 13.1L212.71 12.96L212.72 12.83L212.73 12.71Z" fill="#8DD5F6"/>
<path d="M319.31 107.48L321.9 94.85L13.09 116.78L10.5 129.41L319.31 107.48Z" fill="#8DD5F6"/>
<path d="M157.42 24.08L157.43 23.85L157.44 23.62V23.4L157.43 23.17L157.42 22.96L157.4 22.74L157.38 22.52L157.35 22.31L157.32 22.1L157.28 21.89L157.24 21.69L157.19 21.49L157.14 21.29L157.08 21.09L157.02 20.9L156.95 20.71L156.88 20.52L156.81 20.33L156.73 20.15L156.64 19.97L156.55 19.8L156.46 19.63L156.36 19.46L156.26 19.29L156.15 19.13L156.04 18.97L155.92 18.82L155.8 18.67L155.68 18.52L155.55 18.37L155.42 18.23L155.28 18.1L155.14 17.97L155 17.84L154.85 17.71L154.7 17.59L154.55 17.47L154.39 17.36L154.23 17.25L154.06 17.15L153.89 17.05L153.72 16.95L153.55 16.86L153.37 16.78L153.19 16.69L153 16.62L152.81 16.54L152.62 16.48L152.42 16.41L152.23 16.35L152.02 16.3L151.82 16.25L151.61 16.21L151.4 16.17L151.19 16.13L150.98 16.1L150.76 16.08L150.54 16.06L150.31 16.05L150.09 16.04H149.86H149.63L149.39 16.05L149.16 16.06L148.9 16.09L148.64 16.11L148.38 16.15L148.13 16.19L147.87 16.24L147.62 16.29L147.36 16.35L147.11 16.41L146.86 16.48L146.61 16.56L146.36 16.64L146.11 16.73L145.86 16.82L145.62 16.92L145.37 17.02L145.13 17.13L144.89 17.25L144.65 17.36L144.42 17.49L144.19 17.62L143.95 17.75L143.73 17.89L143.5 18.03L143.27 18.18L143.05 18.33L142.83 18.49L142.62 18.65L142.4 18.82L142.19 18.99L141.99 19.16L141.78 19.34L141.58 19.52L141.38 19.7L141.19 19.89L141 20.09L140.81 20.28L140.63 20.48L140.45 20.69L140.27 20.89L140.1 21.1L139.93 21.32L139.76 21.53L139.6 21.75L139.45 21.97L139.3 22.2L139.15 22.43L139.01 22.66L138.87 22.89L138.73 23.13L138.61 23.36L138.48 23.6L138.36 23.85L138.25 24.09L138.14 24.34L138.04 24.59L137.94 24.84L137.84 25.09L137.76 25.34L137.67 25.6L137.6 25.86L137.53 26.12L137.46 26.38L137.4 26.64L137.35 26.9L137.29 27.25L137.24 27.59L137.2 27.93L137.18 28.26L137.17 28.49V28.71V28.93L137.18 29.15L137.19 29.37L137.21 29.58L137.23 29.8L137.26 30.01L137.29 30.21L137.33 30.42L137.37 30.62L137.42 30.82L137.48 31.02L137.54 31.21L137.6 31.4L137.67 31.59L137.74 31.78L137.82 31.96L137.9 32.14L137.98 32.32L138.08 32.49L138.17 32.66L138.27 32.83L138.38 33L138.48 33.16L138.6 33.31L138.71 33.47L138.83 33.62L138.96 33.77L139.09 33.91L139.22 34.05L139.36 34.18L139.5 34.32L139.64 34.44L139.79 34.57L139.94 34.69L140.1 34.81L140.25 34.92L140.42 35.03L140.58 35.13L140.75 35.23L140.92 35.33L141.1 35.42L141.28 35.5L141.46 35.58L141.65 35.66L141.83 35.74L142.03 35.8L142.22 35.87L142.42 35.93L142.62 35.98L142.82 36.03L143.02 36.07L143.23 36.11L143.44 36.15L143.66 36.18L143.87 36.2L144.09 36.22L144.31 36.23L144.53 36.24H144.76H144.99L145.22 36.23L145.45 36.22L145.7 36.2L145.95 36.17L146.21 36.14L146.46 36.1L146.71 36.05L146.96 36L147.22 35.94L147.47 35.87L147.72 35.8L147.96 35.73L148.21 35.65L148.46 35.56L148.7 35.47L148.94 35.37L149.19 35.27L149.43 35.16L149.67 35.04L149.9 34.92L150.14 34.8L150.37 34.67L150.6 34.54L150.83 34.4L151.06 34.26L151.28 34.11L151.5 33.96L151.72 33.8L151.94 33.64L152.15 33.48L152.37 33.31L152.57 33.14L152.78 32.96L152.98 32.78L153.18 32.6L153.38 32.41L153.57 32.22L153.76 32.02L153.94 31.82L154.12 31.62L154.3 31.42L154.48 31.21L154.65 31L154.81 30.78L154.98 30.57L155.13 30.35L155.29 30.13L155.44 29.9L155.58 29.67L155.72 29.44L155.85 29.21L155.98 28.97L156.11 28.74L156.23 28.5L156.35 28.26L156.46 28.01L156.56 27.77L156.66 27.52L156.75 27.27L156.84 27.02L156.93 26.77L157 26.52L157.07 26.26L157.14 26.01L157.2 25.75L157.25 25.49L157.31 25.13L157.36 24.78L157.4 24.42L157.42 24.08Z" fill="#8DD5F6"/>
<path d="M331.46 25.66L331.04 25.69L330.47 25.73L329.78 25.78L328.96 25.83L328.05 25.9L327.04 25.97L325.97 26.05L324.83 26.13L323.64 26.21L322.42 26.3L321.19 26.39L319.94 26.47L318.71 26.56L317.5 26.65L316.9 27.92L316.28 29.1L315.66 30.19L315.03 31.19L314.4 32.12L313.76 32.96L313.13 33.73L312.49 34.43L311.86 35.06L311.24 35.63L310.63 36.14L310.02 36.58L309.43 36.98L308.86 37.32L308.3 37.62L307.77 37.87L306.39 36.6L304.81 35.51L303.05 34.61L301.1 33.91L298.97 33.4L296.66 33.08L294.19 32.97L291.54 33.06L289.94 33.21L288.37 33.42L286.83 33.7L285.33 34.04L283.87 34.44L282.44 34.9L281.05 35.42L279.7 36L278.39 36.64L277.12 37.33L275.89 38.07L274.7 38.87L273.56 39.72L272.46 40.61L271.41 41.56L270.41 42.55L269.46 43.59L268.55 44.67L267.69 45.8L266.89 46.97L266.13 48.18L265.43 49.43L264.79 50.71L264.19 52.04L263.66 53.39L263.18 54.79L262.76 56.21L262.4 57.67L262.09 59.16L261.85 60.68L261.67 62.22L261.56 63.79L261.52 65.23L261.55 66.62L261.66 67.95L261.84 69.24L261.57 69.46L261.23 69.71L260.84 69.99L260.38 70.29L259.87 70.61L259.3 70.93L258.68 71.26L257.99 71.59L257.25 71.91L256.45 72.21L255.59 72.5L254.67 72.76L253.7 72.99L252.67 73.19L251.59 73.35L250.44 73.45L249.04 73.49L247.78 73.39L246.65 73.18L245.64 72.85L244.74 72.43L243.96 71.92L243.27 71.33L242.67 70.68L242.16 69.97L241.72 69.22L241.35 68.44L241.04 67.64L240.77 66.84L240.55 66.03L240.37 65.23L240.21 64.46L242.05 63.71L243.82 62.9L245.5 62.03L247.1 61.11L248.6 60.12L250.02 59.08L251.32 57.97L252.53 56.81L253.62 55.58L254.59 54.29L255.45 52.94L256.17 51.53L256.77 50.05L257.22 48.51L257.53 46.91L257.7 45.24L257.71 44.19L257.64 43.19L257.48 42.24L257.23 41.33L256.9 40.49L256.47 39.71L255.94 38.99L255.33 38.34L254.62 37.76L253.82 37.26L252.92 36.85L251.92 36.51L250.82 36.27L249.63 36.12L248.33 36.07L246.93 36.12L245.76 36.24L244.62 36.42L243.5 36.65L242.41 36.95L241.34 37.29L240.3 37.69L239.28 38.14L238.29 38.63L237.32 39.16L236.38 39.74L235.46 40.35L234.58 40.99L233.72 41.67L232.88 42.37L232.08 43.1L231.3 43.86L237.55 10.5L221.33 11.65L211.3 64.88L210.46 65.61L209.48 66.42L208.38 67.28L207.16 68.18L205.82 69.11L204.37 70.05L202.82 70.98L201.17 71.9L199.43 72.78L197.62 73.62L195.72 74.39L193.75 75.08L191.72 75.68L189.64 76.18L187.5 76.54L185.32 76.77L184.08 76.82L182.94 76.77L181.88 76.63L180.91 76.4L180.03 76.08L179.23 75.66L178.52 75.16L177.89 74.57L177.34 73.88L176.88 73.11L176.5 72.25L176.21 71.3L176 70.26L175.87 69.13L175.82 67.92L175.85 66.62L175.94 65.39L176.09 64.16L176.3 62.94L176.57 61.74L176.9 60.58L177.28 59.46L177.73 58.39L178.24 57.38L178.81 56.44L179.45 55.58L180.14 54.82L180.9 54.16L181.73 53.61L182.62 53.19L183.58 52.89L184.61 52.74H185.35L186.01 52.83L186.59 53L187.11 53.26L187.55 53.58L187.93 53.97L188.24 54.41L188.51 54.9L188.72 55.43L188.88 55.99L189.01 56.57L189.09 57.17L189.15 57.78L189.17 58.39V58.99L189.15 59.57L203.66 55.07L203.7 53.21L203.6 51.47L203.38 49.85L203.01 48.35L202.52 46.98L201.88 45.73L201.11 44.6L200.21 43.61L199.16 42.74L197.97 42L196.65 41.4L195.18 40.93L193.57 40.6L191.81 40.4L189.91 40.34L187.87 40.42L186.32 40.57L184.81 40.78L183.33 41.06L181.88 41.4L180.47 41.81L179.09 42.28L177.75 42.81L176.45 43.4L175.19 44.04L173.96 44.74L172.78 45.5L171.63 46.31L170.53 47.17L169.47 48.08L168.46 49.04L167.49 50.04L166.57 51.09L165.69 52.19L164.86 53.33L164.08 54.5L163.35 55.72L162.68 56.98L162.05 58.27L161.48 59.6L160.96 60.96L160.5 62.35L160.09 63.77L159.74 65.22L159.45 66.7L159.21 68.21L159.04 69.74L158.92 71.29L158.9 73.72L159.1 76.03L159 75.86L158.42 76.29L157.82 76.73L157.19 77.18L156.53 77.64L155.86 78.09L155.17 78.53L154.47 78.96L153.77 79.38L153.07 79.77L152.38 80.13L151.7 80.45L151.03 80.74L150.38 80.98L149.76 81.17L149.17 81.3L148.62 81.37H148.03L147.5 81.27L147.04 81.06L146.65 80.74L146.35 80.29L146.14 79.71L146.03 79L146.02 78.13L146.12 77.18L146.32 76.07L152.39 44.2L145.06 44.72L142.99 44.95L141.09 45.31L139.36 45.8L137.76 46.39L136.28 47.08L134.89 47.85L133.57 48.67L132.3 49.55L131.06 50.47L129.82 51.4L128.57 52.34L127.28 53.27L125.92 54.17L124.48 55.04L122.94 55.85L121.27 56.6L121.32 55.22L121.34 53.86L121.33 52.52L121.29 51.21L121.21 49.94L121.1 48.72L120.96 47.55L120.77 46.45L104.33 47.61L104.5 48.83L104.66 50.13L104.79 51.51L104.91 52.96L104.98 54.49L105.02 56.08V57.74L104.95 59.45L104.9 60.34L104.83 61.26L104.74 62.18L104.64 63.13L104.52 64.08L104.39 65.04L104.24 66.01L104.07 66.97L103.88 67.94L103.67 68.9L103.44 69.85L103.2 70.8L102.93 71.73L102.65 72.64L102.34 73.53L102.02 74.4L101.67 75.25L101.3 76.06L100.91 76.85L100.5 77.59L100.06 78.3L99.5999 78.97L99.11 79.6L98.61 80.17L98.0699 80.7L97.5199 81.17L96.9299 81.59L96.33 81.95L95.69 82.24L95.03 82.47L94.34 82.63L93.6299 82.72L92.55 82.7L91.6199 82.47L90.86 82.04L90.25 81.42L89.7899 80.62L89.4799 79.66L89.33 78.53V77.24L89.39 76.44L89.4299 76.13L89.4799 75.76L89.55 75.32L89.6299 74.81L89.72 74.26L89.8199 73.65L89.9299 72.99L90.06 72.3L90.1799 71.56L90.3199 70.8L90.4599 70.01L90.61 69.19L90.7599 68.36L90.91 67.52L91.06 66.66L91.22 65.81L91.3699 64.95L91.5199 64.1L91.67 63.27L91.8199 62.44L91.9599 61.64L92.09 60.87L92.22 60.12L92.34 59.41L92.45 58.74L92.55 58.12L92.64 57.54L92.72 57.02L92.7899 56.56L92.84 56.16L92.8799 55.83L92.8999 55.58L92.92 54.48L92.86 53.47L92.7299 52.55L92.5199 51.72L92.25 50.97L91.89 50.31L91.47 49.72L90.9799 49.22L90.4299 48.79L89.8 48.44L89.11 48.16L88.36 47.94L87.55 47.8L86.67 47.72L85.7399 47.7L84.75 47.74L83.91 47.82L83.0599 47.92L82.19 48.06L81.32 48.22L80.4499 48.4L79.5899 48.6L78.7399 48.82L77.9 49.06L77.0899 49.3L76.3099 49.56L75.5599 49.82L74.86 50.09L74.1999 50.35L73.5999 50.62L73.0599 50.88L72.58 51.13L71.05 62.39L71.57 62.27L72.18 62.16L72.82 62.07L73.4599 62H74.04L74.5199 62.08L74.91 62.25L75.2099 62.51L75.4199 62.88L75.5599 63.36L75.62 63.96L75.61 64.69L75.5899 65.03L75.54 65.44L75.4899 65.89L75.41 66.39L75.33 66.94L75.23 67.52L75.12 68.14L75 68.8L74.8799 69.48L74.75 70.18L74.61 70.9L74.47 71.63L74.33 72.38L74.19 73.13L74.04 73.88L73.9 74.62L73.11 75.33L72.1699 76.12L71.0999 76.96L69.8899 77.86L68.5599 78.78L67.11 79.72L65.54 80.66L63.88 81.59L62.11 82.48L60.2599 83.33L58.32 84.11L56.31 84.82L54.22 85.43L52.08 85.94L49.8699 86.31L47.6199 86.55L46.3899 86.6L45.25 86.55L44.1899 86.41L43.22 86.18L42.33 85.86L41.54 85.44L40.82 84.94L40.1899 84.35L39.65 83.66L39.1899 82.89L38.81 82.03L38.52 81.08L38.2999 80.04L38.1699 78.91L38.1199 77.7L38.15 76.39L38.25 75.16L38.4 73.93L38.61 72.72L38.8699 71.52L39.2 70.36L39.59 69.23L40.04 68.16L40.54 67.15L41.1199 66.22L41.75 65.36L42.45 64.6L43.2099 63.94L44.04 63.39L44.93 62.97L45.8899 62.67L46.91 62.52H47.66L48.32 62.6L48.9 62.78L49.41 63.03L49.8499 63.36L50.2299 63.75L50.5499 64.19L50.81 64.68L51.02 65.21L51.1899 65.77L51.31 66.35L51.4 66.95L51.45 67.56L51.47 68.17V68.77L51.45 69.35L65.97 64.85L66 62.99L65.91 61.25L65.68 59.63L65.32 58.13L64.82 56.75L64.19 55.5L63.4199 54.38L62.5099 53.38L61.47 52.52L60.2799 51.78L58.95 51.18L57.4799 50.71L55.8699 50.38L54.1199 50.18L52.22 50.12L50.1699 50.2L48.63 50.34L47.1199 50.56L45.6399 50.84L44.1899 51.18L42.7799 51.59L41.4 52.06L40.06 52.59L38.7599 53.17L37.49 53.82L36.27 54.52L35.08 55.28L33.9399 56.09L32.84 56.95L31.78 57.86L30.76 58.82L29.79 59.82L28.87 60.87L27.99 61.97L27.17 63.1L26.3899 64.28L25.66 65.5L24.9799 66.75L24.36 68.05L23.78 69.37L23.27 70.73L22.7999 72.13L22.3899 73.55L22.04 75L21.75 76.48L21.52 77.98L21.34 79.51L21.2299 81.07L21.2 83.21L21.33 85.26L21.6299 87.2L22.1 89.02L22.74 90.71L23.5599 92.28L24.54 93.72L25.7 95.01L27.03 96.15L28.54 97.14L30.2199 97.96L32.08 98.62L34.1199 99.09L36.34 99.39L38.7299 99.5L41.31 99.41L42.88 99.26L44.41 99.05L45.9199 98.77L47.4 98.44L48.8499 98.05L50.2599 97.61L51.65 97.13L53 96.6L54.31 96.04L55.59 95.44L56.84 94.81L58.04 94.16L59.2099 93.48L60.34 92.79L61.43 92.09L62.47 91.37L63.4799 90.65L64.44 89.93L65.36 89.21L66.23 88.5L67.0599 87.8L67.8399 87.12L68.57 86.46L69.25 85.81L69.8799 85.2L70.4599 84.62L70.9899 84.07L71.47 83.57L71.8899 83.1L72.26 82.69L72.57 82.33L72.83 82.02L72.8399 83.64L72.9899 85.18L73.2699 86.65L73.68 88.03L74.23 89.32L74.9199 90.52L75.75 91.62L76.72 92.61L77.83 93.49L79.0899 94.25L80.4899 94.88L82.05 95.38L83.75 95.75L85.61 95.97L87.6299 96.05L89.8 95.96L91.4599 95.81L93.08 95.58L94.66 95.29L96.1799 94.93L97.67 94.5L99.0999 94.01L100.49 93.45L101.84 92.83L103.14 92.16L104.39 91.42L105.6 90.63L106.77 89.78L107.89 88.87L108.96 87.92L109.99 86.91L110.97 85.85L111.91 84.74L112.81 83.59L113.66 82.39L114.46 81.15L115.22 79.86L115.94 78.53L116.61 77.16L117.23 75.76L117.81 74.31L118.35 72.83L118.84 71.32L119.29 69.78L119.69 68.2L120.05 66.59L120.37 64.96L120.64 63.29L122.38 62.91L124.12 62.45L125.85 61.92L127.55 61.31L129.2 60.62L130.77 59.85L132.25 59L133.62 58.06L129.69 79.25L129.35 81.34L129.18 83.21L129.15 84.62L129.24 85.9L129.42 87.04L129.71 88.06L130.09 88.95L130.57 89.73L131.13 90.4L131.78 90.96L132.51 91.43L133.32 91.8L134.21 92.09L135.16 92.3L136.19 92.43L137.27 92.49H138.42L139.62 92.43L141.55 92.22L143.41 91.87L145.18 91.42L146.86 90.85L148.47 90.2L149.99 89.48L151.43 88.7L152.79 87.87L154.06 87.01L155.25 86.14L156.36 85.27L157.38 84.41L158.33 83.57L159.18 82.78L159.96 82.05L160.65 81.38L161.21 82.43L161.85 83.41L162.56 84.32L163.35 85.18L164.22 85.96L165.16 86.68L166.19 87.33L167.29 87.9L168.48 88.4L169.74 88.83L171.08 89.17L172.5 89.43L174.01 89.61L175.59 89.7L177.26 89.71L179.01 89.63L180.44 89.5L181.86 89.31L183.25 89.07L184.62 88.78L185.96 88.44L187.27 88.05L188.56 87.63L189.82 87.17L191.05 86.68L192.25 86.15L193.43 85.6L194.57 85.02L195.67 84.42L196.75 83.8L197.79 83.17L198.8 82.52L199.78 81.87L200.72 81.21L201.62 80.55L202.49 79.88L203.31 79.23L204.11 78.58L204.86 77.94L205.57 77.31L206.24 76.7L206.87 76.11L207.46 75.54L208 75L208.5 74.49L208.96 74.01L209.37 73.56L209.74 73.16L207.27 86.26L223.48 85.11L226.68 68.05L228.47 67.72L228.93 69.81L229.46 71.79L230.05 73.64L230.72 75.36L231.47 76.94L232.3 78.4L233.22 79.71L234.25 80.88L235.37 81.91L236.61 82.8L237.96 83.53L239.43 84.11L241.03 84.53L242.76 84.79L244.63 84.89L246.64 84.83L247.93 84.68L249.22 84.44L250.49 84.1L251.74 83.68L252.98 83.19L254.2 82.64L255.39 82.03L256.55 81.37L257.67 80.68L258.76 79.96L259.81 79.22L260.81 78.47L261.76 77.72L262.65 76.97L263.49 76.25L264.27 75.55L264.91 76.44L265.62 77.27L266.39 78.04L267.23 78.76L268.12 79.41L269.08 80L270.1 80.53L271.17 81L272.31 81.4L273.5 81.73L274.75 82L276.06 82.21L277.42 82.34L278.84 82.41L280.31 82.4L281.84 82.33L283.42 82.18L284.98 81.96L286.5 81.67L287.98 81.32L289.44 80.9L290.86 80.42L292.24 79.88L293.58 79.28L294.89 78.62L296.15 77.9L297.38 77.13L298.56 76.3L299.7 75.42L300.8 74.49L301.85 73.51L302.86 72.49L303.81 71.42L304.72 70.3L305.58 69.15L306.39 67.95L307.15 66.71L307.85 65.44L308.5 64.13L309.1 62.78L309.64 61.4L310.12 59.99L310.54 58.56L310.91 57.09L311.21 55.6L311.45 54.08L311.63 52.54L311.75 50.97L311.78 48.94L311.66 47.02L311.39 45.21L310.97 43.52L312.49 42.99L313.94 42.41L315.32 41.81L316.63 41.17L317.88 40.51L319.06 39.82L320.17 39.12L321.23 38.4L322.22 37.67L323.16 36.93L324.04 36.18L324.86 35.43L325.63 34.69L326.34 33.95L327 33.22L327.62 32.51L328.18 31.81L328.7 31.12L329.17 30.47L329.6 29.84L329.98 29.24L330.32 28.67L330.63 28.14L330.89 27.65L331.12 27.21L331.31 26.81L331.47 26.46L331.6 26.17L331.7 25.94L331.76 25.77L331.82 25.63L331.46 25.66Z" fill="#8DD5F6"/>
<path d="M294.72 53.09L294.69 54.18L294.58 55.57L294.4 56.95L294.14 58.32L293.81 59.67L293.41 60.97L292.95 62.23L292.43 63.43L291.84 64.56L291.19 65.6L290.48 66.56L289.71 67.4L288.9 68.14L288.02 68.74L287.1 69.21L286.13 69.53L285.12 69.69L284.19 69.71L283.35 69.66L282.57 69.52L281.87 69.3L281.24 69L280.68 68.62L280.19 68.16L279.77 67.62L279.4 67.01L279.1 66.33L278.86 65.57L278.68 64.73L278.55 63.83L278.48 62.85L278.47 61.81L278.5 60.69L278.61 59.36L278.79 58.04L279.04 56.72L279.36 55.43L279.75 54.17L280.22 52.95L280.76 51.79L281.37 50.7L282.05 49.68L282.81 48.75L283.64 47.93L284.54 47.21L285.52 46.61L286.57 46.15L287.69 45.82L288.89 45.66L289.61 45.64L290.29 45.69L290.93 45.82L291.52 46.02L292.06 46.3L292.56 46.64L293 47.06L293.4 47.56L293.75 48.12L294.04 48.77L294.29 49.48L294.48 50.27L294.62 51.14L294.7 52.08L294.72 53.09Z" fill="#D54127"/>
<path d="M241.42 50.68L241.44 51.23L241.33 52.01L241.09 52.75L240.73 53.46L240.26 54.14L239.68 54.78L239.01 55.39L238.23 55.96L237.38 56.5L236.44 57.01L235.44 57.48L234.36 57.91L233.23 58.31L232.05 58.67L230.83 58.99L229.57 59.28L228.28 59.53L228.69 57.71L229.06 56.88L229.47 56.05L229.9 55.23L230.37 54.43L230.87 53.65L231.4 52.9L231.96 52.18L232.55 51.51L233.17 50.89L233.82 50.32L234.5 49.81L235.21 49.37L235.95 49L236.73 48.71L237.53 48.51L238.35 48.4L239.18 48.41L239.86 48.57L240.41 48.83L240.83 49.2L241.13 49.64L241.33 50.14L241.42 50.68Z" fill="#D54127"/>
<path d="M123.59 139.16L122.13 149.86H108.73L103.71 187.22H90.53L95.55 149.86H82.15L83.61 139.16H123.59Z" fill="#0B6384"/>
<path d="M138.52 155.25H150.97L146.46 187.22C144.93 198 135.97 203.82 124.98 203.82C119.15 203.82 113.69 202.22 111.65 200.4L115.44 191.95C117.7 193.55 120.9 194.13 125.05 194.13C131.02 194.13 133.35 191.65 134.01 187.21L134.37 184.44C131.97 186.99 129.05 188.15 125.41 188.15C117.4 188.15 114.85 182.4 115.94 174.46L118.56 155.24H131.16L128.83 171.7C128.39 174.69 128.68 177.74 131.23 177.74C132.98 177.74 134.43 176.43 135.82 174.17L138.51 155.24L138.52 155.25Z" fill="#0B6384"/>
<path d="M181.04 154.74L179.29 166.83L178.63 167.05C177.54 166.39 175.5 165.96 172.73 165.96C170.98 165.96 168.87 166.25 166.9 167.42L164.13 187.23H151.6L156.04 155.26H167.84L167.99 159.48C170.76 156.49 174.25 154.31 178.26 154.31C179.43 154.31 180.23 154.46 181.03 154.75L181.04 154.74Z" fill="#0B6384"/>
<path d="M190.36 164.28C190.36 168.43 206.38 166.46 206.38 177.1C206.38 184.02 199.61 188.17 190.87 188.17C182.13 188.17 177.84 184.82 176.6 183.58L181.26 175.21C183.3 177.18 187.6 179.65 191.75 179.65C194.3 179.65 195.32 178.92 195.32 178.12C195.32 174.77 179.3 176.37 179.3 165.3C179.3 158.31 185.71 154.3 193.79 154.3C201.22 154.3 207.41 157.43 207.41 163.69L198.31 166.17C198.16 163.18 195.4 162.46 193.58 162.46C191.76 162.46 190.38 163.04 190.38 164.28H190.36ZM199.32 151.39H189.34L182.42 138.36H191.52L195.23 144.33L200.55 138.36H209.8L199.31 151.39H199.32Z" fill="#0B6384"/>
<path d="M241.19 176.37C240.75 179.57 241.34 180.67 244.76 180.01L243.89 186.71C242.43 187.44 239.59 188.17 236.17 188.17C232.09 188.17 229.83 186.2 229.03 183C225.9 186.35 222.04 188.17 217.89 188.17C210.83 188.17 207.33 182.85 207.33 175.79C207.33 163.7 214.18 154.31 225.75 154.31C228.81 154.31 231.21 155.11 233.25 156.42L233.98 155.26H244.17L241.18 176.38L241.19 176.37ZM228.81 175.2L230.34 164.35C229.32 163.84 228.16 163.55 226.84 163.55C222.4 163.55 220.29 167.7 220.29 172.94C220.29 176.36 221.46 178.18 223.64 178.18C225.82 178.18 227.57 177.02 228.81 175.19V175.2ZM245.41 138.35L231.79 151.31H222.54L233.24 138.35H245.4H245.41Z" fill="#0B6384"/>
<path d="M282.26 178.99L279.35 188.17C269.66 188.17 263.26 183.8 261.22 175.57C261 175.57 260.71 175.57 260.49 175.64L258.89 187.22H246.36L253.42 136.25H265.95L262.82 158.68C265.51 156.13 269.16 154.24 273.45 154.24C278.91 154.24 281.46 157.23 281.46 161.23C281.46 167.57 276.95 171.5 270.32 173.68C273.52 176.96 278.99 178.56 282.26 179V178.99ZM261.43 168.8L261.36 169.53C265.44 169.02 269.08 167.71 269.08 165.02C269.08 164.15 268.64 163.2 267.26 163.2C264.2 163.2 262.38 165.97 261.43 168.81V168.8Z" fill="#0B6384"/>
</g>
<defs>
<clipPath id="clip0_2259_19263">
<rect width="360.48" height="214.32" fill="white"/>
</clipPath>
</defs>
</svg>
