<svg width="20" height="29" viewBox="0 0 20 29" fill="none" xmlns="http://www.w3.org/2000/svg">
<g clip-path="url(#clip0_1981_32489)">
<path d="M19.88 9.94C19.78 4.45 15.43 0 9.94 0C4.45 0 -0.13 4.45 3.49013e-07 9.94C0.18 17.96 9.94 28.34 9.94 28.34C9.94 28.34 20.02 17.19 19.88 9.94Z" fill="#024760"/>
<path d="M14.37 12.48C14.37 14.32 12.42 15.81 10.02 15.81C7.62 15.81 5.67 14.32 5.67 12.48C5.67 10.64 7.62 9.15 10.02 9.15C12.42 9.15 14.37 10.64 14.37 12.48Z" fill="#2BACE2"/>
<path d="M12.62 9.33C12.62 10.87 11.42 12.13 9.93 12.13C8.44 12.13 7.24 10.88 7.24 9.33C7.24 7.78 8.44 6.53 9.93 6.53C11.42 6.53 12.62 7.78 12.62 9.33Z" fill="#2BACE2"/>
<path d="M11.4 5.68C11.07 5.29 10.77 4.95 10.59 4.72C10.55 4.66 10.5 4.62 10.45 4.58C10.3 4.46 10.12 4.4 9.94 4.4C9.7 4.4 9.46 4.51 9.3 4.71C9.12 4.94 8.81 5.29 8.47 5.68C6.98 7.4 4.94 9.76 4.94 11.87C4.94 13.2 5.46 14.46 6.4 15.4C7.34 16.34 8.6 16.86 9.93 16.86C11.26 16.86 12.52 16.34 13.46 15.4C14.4 14.46 14.92 13.2 14.92 11.87C14.92 9.77 12.88 7.41 11.39 5.68H11.4ZM12.3 14.23C11.67 14.86 10.83 15.21 9.94 15.21C9.05 15.21 8.21 14.86 7.58 14.23C6.95 13.6 6.6 12.76 6.6 11.87C6.6 10.48 8.04 8.7 9.65 6.83L9.94 6.5L10.23 6.83C11.84 8.69 13.28 10.48 13.28 11.87C13.28 12.76 12.93 13.6 12.3 14.23Z" fill="white"/>
</g>
<defs>
<clipPath id="clip0_1981_32489">
<rect width="19.88" height="28.34" fill="white"/>
</clipPath>
</defs>
</svg>
