<svg width="64" height="64" viewBox="0 0 64 64" fill="none" xmlns="http://www.w3.org/2000/svg">
<path d="M11.7173 38.8026L11.6601 39.467L11.6219 40.1251L11.5965 40.7769L11.5901 41.4286L11.6028 42.0677L11.6283 42.7069L11.6728 43.3396L11.73 43.9724L11.8064 44.5926L11.8954 45.2064L12.0036 45.8202L12.1244 46.4213L12.2644 47.0225L12.4107 47.6109L12.5824 48.1931L12.7606 48.7689L12.9578 49.3385L13.1677 49.9016L13.3967 50.4585L13.632 51.0027L13.8865 51.5405L14.1537 52.0658L14.4336 52.591L14.7262 53.0972L15.0315 53.6034L15.3496 54.097L15.6803 54.5779L16.0239 55.0525L16.3801 55.5208L16.749 55.9764L17.1307 56.4193L17.5251 56.8496L17.9259 57.2736L18.3393 57.6849L18.7655 58.0899L19.2045 58.4759L19.6561 58.8556L20.1141 59.2226L20.5848 59.5769L21.0619 59.9186L21.5517 60.254L22.0543 60.5704L22.5632 60.8741L23.0848 61.1652L23.6128 61.45L24.1535 61.7157L24.7005 61.9689L25.2603 62.203L25.8265 62.4308L26.399 62.6396L26.9778 62.8358L27.5694 63.0193L28.1674 63.1838L28.7781 63.3357L29.3887 63.4749L30.0121 63.5951L30.6419 63.7027L31.278 63.7913L31.9205 63.8672L32.5693 63.9242L33.2245 63.9685L33.8925 63.9938L34.5604 64.0001L35.2283 63.9938L35.8962 63.9685L24.3061 51.6987L23.6382 51.7241L22.9703 51.7304L22.296 51.7241L21.6344 51.6987L20.9792 51.6544L20.3304 51.5975L19.6879 51.5216L19.0518 51.433L18.422 51.3254L17.7986 51.2052L17.188 51.066L16.5773 50.9141L15.9793 50.7496L15.3877 50.5661L14.8089 50.3699L14.2364 50.1611L13.6702 49.9333L13.1104 49.6991L12.5634 49.446L12.0227 49.1803L11.4947 48.8955L10.9731 48.6044L10.4642 48.3007L9.96163 47.9843L9.47182 47.6489L8.99473 47.3072L8.524 46.9528L8.066 46.5858L7.61435 46.2062L7.17543 45.8202L6.74923 45.4152L6.33575 45.0039L5.92864 44.5799L5.5406 44.1496L5.15893 43.7067L4.78998 43.251L4.43375 42.7828L4.09025 42.3082L3.75947 41.8273L3.44141 41.3337L3.13607 40.8275L2.84345 40.3212L2.56356 39.796L2.29639 39.2708L2.04194 38.733L1.80658 38.1888L1.57758 37.6319L1.36766 37.0687L1.17046 36.4992L0.992347 35.9234L0.820594 35.3412L0.667926 34.7527L0.534341 34.1516L0.413478 33.5504L0.305337 32.9366L0.216281 32.3228L0.139946 31.7027L0.0826956 31.0699L0.0381672 30.4371L0.0127224 29.798L0 29.1589L0.0063612 28.5071L0.031806 27.8554L0.0699732 27.1973L0.127224 26.5328L11.7173 38.8026Z" fill="#D64126"/>
<path d="M41.0296 12.2697L40.3616 12.2761L39.6937 12.3014L39.0258 12.3457L38.3579 12.4026L37.6963 12.4785L37.0411 12.5671L36.3859 12.6747L35.7307 12.7949L35.0818 12.9341L34.4394 13.086L33.7969 13.2505L33.1608 13.434L32.531 13.6302L31.9013 13.839L31.2842 14.0668L30.6672 14.3073L30.0565 14.5604L29.4522 14.8262L28.8479 15.1046L28.2563 15.3957L27.6711 15.6994L27.0922 16.0221L26.5197 16.3512L25.9535 16.6929L25.3937 17.0473L24.8403 17.4143L24.2996 17.7939L23.7589 18.1863L23.2373 18.5849L22.7157 18.9962L22.2068 19.4202L21.7043 19.8568L21.2144 20.2998L20.731 20.7554L20.2603 21.2173L19.7959 21.6919L19.3442 22.1792L18.899 22.6664L18.4664 23.1726L18.0466 23.6852L17.6394 24.2041L17.2387 24.7356L16.8507 25.2735L16.4753 25.8177L16.1128 26.3682L15.7629 26.9314L15.4258 27.5009L15.1013 28.0767L14.7833 28.6589L14.4843 29.2537L14.198 29.8485L13.9245 30.4497L13.6637 31.0635L13.422 31.6773L13.193 32.3037L12.9767 32.9302L12.7731 33.563L12.5823 34.2021L12.4169 34.8475L12.2579 35.493L12.1179 36.1511L11.9907 36.8092L11.8826 37.4673L11.7935 38.138L11.7172 38.8024L0.127075 26.5327L0.20341 25.8683L0.292466 25.1975L0.400607 24.5394L0.527831 23.8814L0.667777 23.2233L0.820446 22.5778L0.992198 21.9324L1.18303 21.2933L1.38023 20.6605L1.59651 20.034L1.83188 19.4076L2.0736 18.7937L2.33441 18.1799L2.60794 17.5788L2.8942 16.984L3.19317 16.3892L3.50487 15.807L3.83565 15.2312L4.1728 14.6617L4.52266 14.0985L4.88525 13.548L5.26056 13.0038L5.64859 12.4659L6.04935 11.9343L6.45647 11.4155L6.8763 10.9029L7.30887 10.3967L7.75415 9.90943L8.20579 9.42219L8.67016 8.9476L9.14089 8.48566L9.62434 8.03006L10.1142 7.58711L10.6167 7.15048L11.1256 6.72652L11.6408 6.31521L12.1688 5.91655L12.7095 5.52422L13.2502 5.14455L13.8036 4.77754L14.3571 4.42317L14.9232 4.08147L15.5021 3.75242L16.081 3.4297L16.6662 3.12596L17.2578 2.83488L17.8557 2.55646L18.4664 2.29069L19.0771 2.03757L19.6941 1.79711L20.3111 1.56931L20.9409 1.36049L21.5707 1.16433L22.2068 0.980819L22.8493 0.816294L23.4917 0.664425L24.1406 0.525213L24.7958 0.404983L25.451 0.29741L26.1062 0.208819L26.7678 0.132885L27.4357 0.0759343L28.1036 0.0316393L28.7715 0.00632786L29.4395 0L41.0296 12.2697Z" fill="#D64126"/>
<path d="M63.7069 38.8026L52.1168 26.5328L52.0087 27.1973L51.8815 27.8554L51.7415 28.5071L51.5888 29.1589L51.4171 29.798L51.2262 30.4371L51.0291 31.0699L50.8128 31.7027L50.5774 32.3228L50.3357 32.9366L50.0749 33.5504L49.8013 34.1516L49.5151 34.7527L49.2161 35.3412L48.9044 35.9234L48.5736 36.4992L48.2365 37.0687L47.8866 37.6319L47.524 38.1888L47.1487 38.733L46.7607 39.2708L46.3599 39.796L45.9528 40.3212L45.533 40.8275L45.1004 41.3337L44.6551 41.8273L44.2035 42.3082L43.7391 42.7828L43.2684 43.251L42.7849 43.7067L42.2951 44.1496L41.7926 44.5799L41.2837 45.0039L40.7621 45.4152L40.2405 45.8202L39.6998 46.2062L39.1591 46.5858L38.6056 46.9528L38.0522 47.3072L37.4861 47.6489L36.9072 47.9843L36.3283 48.3007L35.7431 48.6044L35.1515 48.8955L34.5472 49.1803L33.9429 49.446L33.3322 49.6991L32.7152 49.9333L32.0981 50.1611L31.4684 50.3699L30.8386 50.5661L30.2025 50.7496L29.56 50.9141L28.9175 51.066L28.2687 51.2052L27.6135 51.3254L26.9583 51.433L26.3031 51.5216L25.6415 51.5975L24.9736 51.6544L24.3057 51.6987L35.8958 63.9685L36.5637 63.9242L37.2316 63.8672L37.8932 63.7913L38.5484 63.7027L39.2036 63.5951L39.8588 63.4749L40.5076 63.3357L41.1501 63.1838L41.7926 63.0193L42.4287 62.8358L43.0585 62.6396L43.6882 62.4308L44.3053 62.203L44.9223 61.9689L45.533 61.7157L46.1437 61.45L46.7416 61.1652L47.3332 60.8741L47.9184 60.5704L48.4973 60.254L49.0762 59.9186L49.6423 59.5769L50.1957 59.2226L50.7492 58.8556L51.2962 58.4759L51.8306 58.0899L52.3585 57.6849L52.8738 57.2736L53.3827 56.8496L53.8852 56.4193L54.375 55.9764L54.8585 55.5208L55.3292 55.0525L55.7936 54.5779L56.2452 54.097L56.6905 53.6034L57.1231 53.0972L57.5429 52.591L57.95 52.0658L58.3508 51.5405L58.7388 51.0027L59.1141 50.4585L59.4767 49.9016L59.8266 49.3385L60.1637 48.7689L60.4945 48.1931L60.8062 47.6109L61.1052 47.0225L61.3914 46.4213L61.665 45.8202L61.9258 45.2064L62.1675 44.5926L62.4029 43.9724L62.6192 43.3396L62.8163 42.7069L63.0072 42.0677L63.1789 41.4286L63.3316 40.7769L63.4715 40.1251L63.5988 39.467L63.7069 38.8026Z" fill="#D64126"/>
<path d="M63.7075 38.8024L63.7966 38.138L63.8729 37.4673L63.9302 36.8092L63.9683 36.1511L63.9938 35.493L64.0001 34.8475L63.9874 34.2021L63.962 33.563L63.9174 32.9302L63.8602 32.3037L63.7839 31.6773L63.6948 31.0635L63.5867 30.4497L63.4658 29.8485L63.3322 29.2537L63.1795 28.6589L63.0078 28.0767L62.8297 27.5009L62.6325 26.9314L62.4226 26.3682L62.1936 25.8177L61.9582 25.2735L61.7037 24.7356L61.4366 24.2041L61.1567 23.6852L60.8641 23.1726L60.5587 22.6664L60.2407 22.1792L59.9099 21.6919L59.5664 21.2173L59.2102 20.7554L58.8412 20.2998L58.4595 19.8568L58.0715 19.4202L57.6644 18.9962L57.2509 18.5849L56.8247 18.1863L56.3858 17.7939L55.9341 17.4143L55.4761 17.0473L55.0054 16.6929L54.5283 16.3512L54.0385 16.0221L53.536 15.6994L53.0271 15.3957L52.5055 15.1046L51.9775 14.8262L51.4368 14.5604L50.8897 14.3073L50.3299 14.0668L49.7701 13.839L49.1913 13.6302L48.6124 13.434L48.0208 13.2505L47.4229 13.086L46.8122 12.9341L46.2015 12.7949L45.5781 12.6747L44.9484 12.5671L44.3122 12.4785L43.6698 12.4026L43.0209 12.3457L42.3657 12.3014L41.7041 12.2761L41.0299 12.2697L29.4398 0L30.114 0.00632786L30.7756 0.0316393L31.4308 0.0759343L32.0797 0.132885L32.7221 0.208819L33.3583 0.29741L33.988 0.404983L34.6114 0.525213L35.2221 0.664425L35.8328 0.816294L36.4307 0.980819L37.0223 1.16433L37.6012 1.36049L38.1737 1.56931L38.7398 1.79711L39.2996 2.03757L39.8467 2.29069L40.3874 2.55646L40.9154 2.83488L41.437 3.12596L41.9459 3.4297L42.4484 3.75242L42.9382 4.08147L43.4153 4.42317L43.886 4.77754L44.344 5.14455L44.7957 5.52422L45.2346 5.91655L45.6608 6.31521L46.0743 6.72652L46.4814 7.15048L46.8694 7.58711L47.2511 8.03006L47.6201 8.48566L47.9763 8.9476L48.3198 9.42219L48.6506 9.90943L48.9686 10.3967L49.274 10.9029L49.5666 11.4155L49.8465 11.9343L50.1136 12.4659L50.3681 13.0038L50.6035 13.548L50.8325 14.0985L51.0424 14.6617L51.2396 15.2312L51.4177 15.807L51.5894 16.3892L51.7358 16.984L51.8757 17.5788L51.9966 18.1799L52.1047 18.7937L52.1938 19.4076L52.2701 20.034L52.3273 20.6605L52.3719 21.2933L52.3973 21.9324L52.41 22.5778L52.4037 23.2233L52.3782 23.8814L52.3401 24.5394L52.2828 25.1975L52.2065 25.8683L52.1174 26.5327L63.7075 38.8024Z" fill="#D64126"/>
<path d="M23.0464 58.2164L22.6011 57.919L22.1685 57.609L21.7423 57.2862L21.3225 56.9509L20.9154 56.6091L20.5146 56.2548L20.1329 55.8878L19.7513 55.5144L19.3887 55.1284L19.0324 54.7361L18.6826 54.3311L18.3518 53.9198L18.0274 53.4958L17.7157 53.0655L17.4103 52.6289L17.1241 52.1796L16.8442 51.724L16.577 51.2621L16.3226 50.7875L16.0809 50.3066L15.8519 49.8194L15.6356 49.3195L15.432 48.8196L15.2412 48.307L15.0631 47.7944L14.8977 47.2692L14.745 46.7377L14.6114 46.2061L14.4842 45.6619L14.3761 45.1114L14.2743 44.5609L14.1916 43.9977L14.128 43.4345L14.0707 42.865L14.0325 42.2892L14.0071 41.707L14.0007 41.1249L14.0071 40.5364L14.0262 39.9416L14.0644 39.3404L14.1152 38.7393L14.1852 38.1381L14.2679 37.5306L14.3633 36.9295L14.4778 36.3347L14.6051 35.7399L14.745 35.1514L14.904 34.5629L15.0758 33.9807L15.2539 33.4112L15.4511 32.8354L15.661 32.2722L15.8837 31.7153L16.119 31.1585L16.3671 30.608L16.6279 30.0701L16.9014 29.5322L17.1877 29.0007L17.4803 28.4818L17.7857 27.9629L18.1101 27.4504L18.4345 26.9505L18.778 26.4569L19.1279 25.9633L19.4905 25.4887L19.8658 25.0141L20.2474 24.5459L20.6355 24.0903L21.0426 23.641L21.4497 23.2044L21.8695 22.7741L22.3021 22.3501L22.741 21.9388L23.1863 21.5338L23.638 21.1415L24.1023 20.7555L24.5731 20.3821L25.0501 20.0215L25.54 19.6671L26.0298 19.3191L26.5323 18.99L27.0412 18.6673L27.5565 18.3509L28.0717 18.0535L28.5997 17.7624L29.134 17.4903L17.5439 5.22058L17.0096 5.49268L16.4816 5.78376L15.96 6.08117L15.4511 6.39756L14.9422 6.72028L14.4397 7.04933L13.9499 7.39737L13.46 7.75173L12.983 8.11241L12.5122 8.48576L12.0479 8.87176L11.5962 9.26409L11.1446 9.66907L10.712 10.0804L10.2794 10.5043L9.85961 10.9346L9.44613 11.3713L9.04537 11.8205L8.65734 12.2761L8.27567 12.7444L7.90036 13.219L7.53777 13.6936L7.1879 14.1872L6.8444 14.6807L6.51998 15.1806L6.19556 15.6932L5.89022 16.2121L5.5976 16.731L5.31135 17.2625L5.03782 17.8004L4.77701 18.3382L4.52892 18.8888L4.29356 19.4456L4.07092 20.0025L3.861 20.5656L3.6638 21.1415L3.47933 21.711L3.31393 22.2932L3.1549 22.8816L3.01496 23.4701L2.88773 24.0586L2.77323 24.6598L2.67781 25.2609L2.59512 25.8684L2.52515 26.4695L2.47426 27.0707L2.43609 27.6718L2.41701 28.2667L2.41064 28.8551L2.41701 29.4373L2.44245 30.0195L2.48062 30.5953L2.53787 31.1648L2.60148 31.728L2.68418 32.2912L2.78596 32.8417L2.8941 33.3922L3.02132 33.9364L3.1549 34.468L3.30757 34.9995L3.47296 35.5247L3.65108 36.0373L3.84191 36.5498L4.04547 37.0497L4.26175 37.5496L4.49076 38.0369L4.73248 38.5178L4.98693 38.9924L5.2541 39.4543L5.53399 39.9099L5.82025 40.3592L6.12558 40.7958L6.43728 41.2261L6.7617 41.6501L7.09248 42.0614L7.44235 42.4664L7.79858 42.8587L8.16117 43.2447L8.53648 43.618L8.92451 43.9851L9.32526 44.3394L9.73238 44.6811L10.1522 45.0165L10.5784 45.3392L11.011 45.6493L11.4563 45.9467L23.0464 58.2164Z" fill="#D64126"/>
<path d="M61.4044 38.138L49.8143 25.8683L49.8843 25.2608L49.9352 24.6597L49.9733 24.0585L49.9924 23.47L49.9988 22.8815L49.9924 22.2931L49.967 21.7109L49.9288 21.1414L49.8715 20.5655L49.8079 20.0024L49.7252 19.4455L49.6235 18.8887L49.5153 18.3381L49.3881 17.8003L49.2545 17.2624L49.1018 16.7309L48.9364 16.212L48.7583 15.6931L48.5675 15.1805L48.3639 14.6806L48.1477 14.1871L47.9187 13.6935L47.6769 13.2189L47.4225 12.7443L47.1553 12.276L46.8754 11.8204L46.5892 11.3712L46.2838 10.9345L45.9721 10.5042L45.6477 10.0803L45.3169 9.66897L44.9671 9.26399L44.6108 8.87166L44.2482 8.48566L43.8666 8.11232L43.4849 7.75163L43.0841 7.39727L42.677 7.04923L42.2572 6.72019L41.831 6.39746L41.3984 6.08107L40.9531 5.78366L40.4951 5.49258L40.0308 5.22048L39.56 4.95471L39.083 4.69527L38.5931 4.45481L38.097 4.22701L37.5881 4.01186L37.0728 3.80304L36.5512 3.61321L36.0232 3.43603L35.4889 3.2715L34.9482 3.11963L34.3948 2.98042L33.835 2.85386L33.2752 2.74629L32.7027 2.65137L32.1238 2.56911L31.5386 2.4995L30.947 2.44888L30.3554 2.41091L29.7511 2.3856L29.1468 2.37927L28.5361 2.3856L27.9254 2.41091L27.3211 2.44888L26.7168 2.4995L26.1188 2.56911L25.5209 2.65137L24.9229 2.74629L24.3313 2.85386L23.7397 2.98042L23.1545 3.11963L22.5757 3.2715L21.9968 3.43603L21.4243 3.61321L20.8581 3.80304L20.292 4.01186L19.7322 4.22701L19.1788 4.45481L18.6253 4.69527L18.0846 4.95471L17.5439 5.22048L29.134 17.4902L29.6747 17.2244L30.2154 16.965L30.7689 16.7245L31.3223 16.4967L31.8821 16.2816L32.4482 16.0728L33.0144 15.8829L33.5869 15.7057L34.1658 15.5412L34.751 15.3894L35.3362 15.2501L35.9214 15.1236L36.513 15.016L37.111 14.9211L37.7089 14.8388L38.3069 14.7692L38.9112 14.7186L39.5155 14.6806L40.1262 14.6553L40.7369 14.649L41.3412 14.6553L41.9455 14.6806L42.5371 14.7186L43.1287 14.7692L43.7139 14.8388L44.2928 14.9211L44.8653 15.016L45.4251 15.1236L45.9849 15.2501L46.5383 15.3894L47.079 15.5412L47.6133 15.7057L48.1477 15.8829L48.6629 16.0728L49.1782 16.2816L49.6871 16.4967L50.1832 16.7245L50.6731 16.965L51.1501 17.2244L51.6272 17.4902L52.0852 17.7623L52.5432 18.0534L52.9885 18.3508L53.4211 18.6672L53.8537 18.9899L54.2671 19.319L54.6742 19.667L55.075 20.0214L55.463 20.382L55.8383 20.7554L56.2073 21.1414L56.5635 21.5337L56.907 21.9387L57.2378 22.35L57.5622 22.774L57.8739 23.2043L58.1793 23.6409L58.4655 24.0902L58.7454 24.5458L59.0126 25.014L59.267 25.4886L59.5088 25.9632L59.7378 26.4568L59.954 26.9504L60.1576 27.4503L60.3484 27.9628L60.5265 28.4817L60.6919 29.0006L60.8446 29.5321L60.9782 30.07L61.1054 30.6079L61.2136 31.1584L61.3153 31.7152L61.398 32.2721L61.4616 32.8353L61.5189 33.4111L61.5571 33.9806L61.5825 34.5628L61.5889 35.1513L61.5825 35.7398L61.5634 36.3346L61.5253 36.9294L61.4744 37.5305L61.4044 38.138Z" fill="#D64126"/>
<path d="M61.4047 38.1381L61.322 38.7393L61.2265 39.3404L61.112 39.9416L60.9848 40.5364L60.8449 41.1249L60.6858 41.707L60.5205 42.2892L60.336 42.865L60.1388 43.4346L59.9289 43.9977L59.7062 44.5609L59.4709 45.1114L59.2228 45.662L58.962 46.2062L58.6884 46.7377L58.4085 47.2692L58.1096 47.7944L57.8042 48.307L57.4798 48.8196L57.1554 49.3195L56.8119 49.8194L56.462 50.3066L56.0994 50.7875L55.7241 51.2621L55.3424 51.724L54.9544 52.1797L54.5536 52.6289L54.1402 53.0656L53.7203 53.4959L53.2878 53.9198L52.8552 54.3311L52.4036 54.7361L51.9519 55.1284L51.4876 55.5144L51.0168 55.8878L50.5397 56.2548L50.0499 56.6092L49.5601 56.9509L49.0576 57.2862L48.5487 57.609L48.0398 57.919L47.5182 58.2164L46.9902 58.5075L46.4558 58.7859L45.9151 59.0517L45.3744 59.3048L44.821 59.5453L44.2676 59.7731L43.7078 59.9946L43.1417 60.1971L42.5755 60.3869L42.003 60.5641L41.4241 60.7286L40.8453 60.8805L40.26 61.0197L39.6684 61.1462L39.0769 61.2538L38.4789 61.3551L37.881 61.4373L37.283 61.5006L36.6787 61.5575L36.0744 61.5955L35.4637 61.6145L34.853 61.6208L34.2487 61.6145L33.6444 61.5955L33.0528 61.5575L32.4612 61.5006L31.876 61.4373L31.2971 61.3551L30.731 61.2538L30.1648 61.1462L29.605 61.0197L29.058 60.8805L28.5109 60.7286L27.9766 60.5641L27.4486 60.3869L26.927 60.1971L26.4117 59.9946L25.9028 59.7731L25.4066 59.5453L24.9168 59.3048L24.4397 59.0517L23.969 58.7859L23.5047 58.5075L23.0466 58.2164L11.4565 45.9467L11.9145 46.2378L12.3726 46.5162L12.8496 46.782L13.3267 47.0351L13.8165 47.2756L14.3127 47.5034L14.8216 47.7248L15.3369 47.9273L15.8585 48.1172L16.3865 48.2943L16.9208 48.4589L17.4615 48.6107L18.0149 48.75L18.5747 48.8765L19.1345 48.9841L19.707 49.0853L20.2859 49.1676L20.8711 49.2309L21.4627 49.2878L22.0543 49.3258L22.6586 49.3448L23.2629 49.3511L23.8736 49.3448L24.4843 49.3258L25.0886 49.2878L25.6929 49.2309L26.2909 49.1676L26.8888 49.0853L27.4868 48.9841L28.0784 48.8765L28.6699 48.75L29.2552 48.6107L29.834 48.4589L30.4129 48.2943L30.9854 48.1172L31.5516 47.9273L32.1177 47.7248L32.6775 47.5034L33.2309 47.2756L33.7843 47.0351L34.325 46.782L34.8657 46.5162L35.4001 46.2378L35.9281 45.9467L36.4433 45.6493L36.9586 45.3392L37.4675 45.0165L37.97 44.6811L38.4598 44.3394L38.9496 43.9851L39.4267 43.6181L39.8975 43.2447L40.3618 42.8587L40.8135 42.4664L41.2587 42.0614L41.6977 41.6501L42.1302 41.2261L42.5501 40.7958L42.9572 40.3592L43.3643 39.9099L43.7523 39.4543L44.134 38.9924L44.5093 38.5178L44.8719 38.0369L45.2218 37.5496L45.5653 37.0497L45.8897 36.5498L46.2141 36.0373L46.5195 35.5247L46.8121 34.9995L47.0983 34.468L47.3719 33.9364L47.6327 33.3922L47.8808 32.8417L48.1161 32.2912L48.3388 31.728L48.5487 31.1648L48.7459 30.5953L48.9304 30.0195L49.0957 29.4373L49.2548 28.8552L49.3947 28.2667L49.5219 27.6718L49.6364 27.0707L49.7319 26.4696L49.8146 25.8684L61.4047 38.1381Z" fill="#D64126"/>
<path d="M63.7076 38.8024L63.5995 39.4668L63.4722 40.1249L63.3323 40.7767L63.1796 41.4284L63.0079 42.0676L62.817 42.7067L62.6198 43.3395L62.4036 43.9722L62.1682 44.5924L61.9265 45.2062L61.6657 45.82L61.3921 46.4211L61.1059 47.0223L60.8069 47.6108L60.4952 48.1929L60.1644 48.7688L59.8273 49.3383L59.4774 49.9015L59.1148 50.4583L58.7395 51.0025L58.3515 51.5404L57.9507 52.0656L57.5436 52.5908L57.1238 53.097L56.6912 53.6033L56.2459 54.0968L55.7943 54.5777L55.3299 55.0523L54.8592 55.5206L54.3757 55.9762L53.8859 56.4192L53.3834 56.8494L52.8745 57.2734L52.3592 57.6847L51.8313 58.0897L51.2969 58.4757L50.7499 58.8554L50.1964 59.2224L49.643 59.5768L49.0769 59.9185L48.498 60.2538L47.9191 60.5702L47.3339 60.874L46.7423 61.1651L46.1443 61.4498L45.5337 61.7156L44.923 61.9687L44.306 62.2028L43.6889 62.4306L43.0592 62.6394L42.4294 62.8356L41.7933 63.0191L41.1508 63.1836L40.5083 63.3355L39.8595 63.4747L39.2043 63.5949L38.5491 63.7025L37.8939 63.7911L37.2323 63.867L36.5644 63.924L35.8965 63.9683L35.2285 63.9936L34.5606 63.9999L33.8927 63.9936L33.2248 63.9683L32.5696 63.924L31.9207 63.867L31.2782 63.7911L30.6421 63.7025L30.0124 63.5949L29.389 63.4747L28.7783 63.3355L28.1676 63.1836L27.5697 63.0191L26.9781 62.8356L26.3992 62.6394L25.8267 62.4306L25.2605 62.2028L24.7008 61.9687L24.1537 61.7156L23.613 61.4498L23.085 61.1651L22.5634 60.874L22.0545 60.5702L21.552 60.2538L21.0622 59.9185L20.5851 59.5768L20.1143 59.2224L19.6563 58.8554L19.2047 58.4757L18.7658 58.0897L18.3396 57.6847L17.9261 57.2734L17.5253 56.8494L17.1309 56.4192L16.7493 55.9762L16.3803 55.5206L16.0241 55.0523L15.6806 54.5777L15.3498 54.0968L15.0317 53.6033L14.7264 53.097L14.4338 52.5908L14.1539 52.0656L13.8867 51.5404L13.6323 51.0025L13.3969 50.4583L13.1679 49.9015L12.958 49.3383L12.7608 48.7688L12.5827 48.1929L12.4109 47.6108L12.2646 47.0223L12.1247 46.4211L12.0038 45.82L11.8957 45.2062L11.8066 44.5924L11.7303 43.9722L11.673 43.3395L11.6285 42.7067L11.6031 42.0676L11.5903 41.4284L11.5967 40.7767L11.6221 40.1249L11.6603 39.4668L11.7176 38.8024L11.7939 38.138L11.8829 37.4672L11.9911 36.8091L12.1183 36.151L12.2583 35.4929L12.4173 34.8475L12.5827 34.202L12.7735 33.5629L12.9771 32.9301L13.1934 32.3037L13.4224 31.6772L13.6641 31.0634L13.9249 30.4496L14.1984 29.8485L14.4847 29.2536L14.7837 28.6588L15.1017 28.0767L15.4261 27.5008L15.7633 26.9313L16.1131 26.3681L16.4757 25.8176L16.851 25.2734L17.2391 24.7355L17.6398 24.204L18.0469 23.6851L18.4668 23.1726L18.8993 22.6663L19.3446 22.1791L19.7963 21.6918L20.2606 21.2173L20.7314 20.7553L21.2148 20.2997L21.7046 19.8568L22.2072 19.4201L22.7161 18.9962L23.2377 18.5849L23.7593 18.1862L24.3 17.7939L24.8407 17.4142L25.3941 17.0472L25.9539 16.6928L26.5201 16.3511L27.0926 16.0221L27.6714 15.6994L28.2567 15.3956L28.8483 15.1045L29.4526 14.8261L30.0569 14.5603L30.6676 14.3072L31.2846 14.0668L31.9016 13.839L32.5314 13.6301L33.1611 13.434L33.7973 13.2505L34.4397 13.0859L35.0822 12.9341L35.7311 12.7949L36.3863 12.6746L37.0415 12.5671L37.6967 12.4785L38.3582 12.4025L39.0262 12.3456L39.6941 12.3013L40.362 12.276L41.0299 12.2697L41.7042 12.276L42.3658 12.3013L43.021 12.3456L43.6698 12.4025L44.3123 12.4785L44.9484 12.5671L45.5782 12.6746L46.2016 12.7949L46.8123 12.9341L47.4229 13.0859L48.0209 13.2505L48.6125 13.434L49.1914 13.6301L49.7702 13.839L50.33 14.0668L50.8898 14.3072L51.4369 14.5603L51.9776 14.8261L52.5055 15.1045L53.0272 15.3956L53.5361 15.6994L54.0386 16.0221L54.5284 16.3511L55.0055 16.6928L55.4762 17.0472L55.9342 17.4142L56.3859 17.7939L56.8248 18.1862L57.251 18.5849L57.6645 18.9962L58.0716 19.4201L58.4596 19.8568L58.8413 20.2997L59.2102 20.7553L59.5665 21.2173L59.91 21.6918L60.2408 22.1791L60.5588 22.6663L60.8642 23.1726L61.1568 23.6851L61.4367 24.204L61.7038 24.7355L61.9583 25.2734L62.1936 25.8176L62.4226 26.3681L62.6326 26.9313L62.8298 27.5008L63.0079 28.0767L63.1796 28.6588L63.3323 29.2536L63.4659 29.8485L63.5867 30.4496L63.6949 31.0634L63.7839 31.6772L63.8603 32.3037L63.9175 32.9301L63.9621 33.5629L63.9875 34.202L64.0002 34.8475L63.9939 35.4929L63.9684 36.151L63.9302 36.8091L63.873 37.4672L63.7967 38.138L63.7076 38.8024Z" fill="#D64126"/>
<path d="M61.4046 38.138L61.4746 37.5305L61.5255 36.9293L61.5636 36.3345L61.5827 35.7397L61.5891 35.1512L61.5827 34.5627L61.5573 33.9805L61.5191 33.411L61.4619 32.8352L61.3982 32.272L61.3156 31.7152L61.2138 31.1583L61.1056 30.6078L60.9784 30.0699L60.8448 29.5321L60.6922 29.0005L60.5268 28.4816L60.3487 27.9627L60.1578 27.4502L59.9543 26.9503L59.738 26.4567L59.509 25.9631L59.2672 25.4886L59.0128 25.014L58.7456 24.5457L58.4657 24.0901L58.1795 23.6408L57.8741 23.2042L57.5624 22.7739L57.238 22.3499L56.9072 21.9386L56.5637 21.5336L56.2075 21.1413L55.8386 20.7553L55.4633 20.382L55.0752 20.0213L54.6745 19.6669L54.2673 19.3189L53.8539 18.9898L53.4213 18.6671L52.9887 18.3507L52.5435 18.0533L52.0855 17.7622L51.6275 17.4901L51.1504 17.2244L50.6733 16.9649L50.1835 16.7245L49.6873 16.4967L49.1784 16.2815L48.6631 16.0727L48.1479 15.8829L47.6135 15.7057L47.0792 15.5412L46.5385 15.3893L45.9851 15.2501L45.4253 15.1235L44.8655 15.0159L44.293 14.921L43.7141 14.8388L43.1289 14.7692L42.5373 14.7185L41.9457 14.6806L41.3414 14.6553L40.7371 14.6489L40.1264 14.6553L39.5157 14.6806L38.9114 14.7185L38.3071 14.7692L37.7092 14.8388L37.1112 14.921L36.5132 15.0159L35.9217 15.1235L35.3364 15.2501L34.7512 15.3893L34.166 15.5412L33.5871 15.7057L33.0146 15.8829L32.4484 16.0727L31.8823 16.2815L31.3225 16.4967L30.7691 16.7245L30.2157 16.9649L29.675 17.2244L29.1343 17.4901L28.5999 17.7622L28.0719 18.0533L27.5567 18.3507L27.0414 18.6671L26.5325 18.9898L26.03 19.3189L25.5402 19.6669L25.0504 20.0213L24.5733 20.382L24.1026 20.7553L23.6382 21.1413L23.1865 21.5336L22.7413 21.9386L22.3023 22.3499L21.8698 22.7739L21.4499 23.2042L21.0428 23.6408L20.6357 24.0901L20.2477 24.5457L19.866 25.014L19.4907 25.4886L19.1281 25.9631L18.7782 26.4567L18.4347 26.9503L18.1103 27.4502L17.7859 27.9627L17.4806 28.4816L17.1879 29.0005L16.9017 29.5321L16.6281 30.0699L16.3673 30.6078L16.1193 31.1583L15.8839 31.7152L15.6612 32.272L15.4513 32.8352L15.2541 33.411L15.076 33.9805L14.9043 34.5627L14.7452 35.1512L14.6053 35.7397L14.4781 36.3345L14.3636 36.9293L14.2681 37.5305L14.1855 38.138L14.1155 38.7391L14.0646 39.3402L14.0264 39.9414L14.0073 40.5362L14.001 41.1247L14.0073 41.7069L14.0328 42.289L14.071 42.8649L14.1282 43.4344L14.1918 43.9975L14.2745 44.5607L14.3763 45.1113L14.4844 45.6618L14.6117 46.206L14.7452 46.7375L14.8979 47.2691L15.0633 47.7943L15.2414 48.3068L15.4322 48.8194L15.6358 49.3193L15.8521 49.8192L16.0811 50.3064L16.3228 50.7873L16.5773 51.2619L16.8444 51.7239L17.1243 52.1795L17.4106 52.6288L17.7159 53.0654L18.0276 53.4957L18.352 53.9196L18.6828 54.3309L19.0327 54.7359L19.3889 55.1283L19.7515 55.5143L20.1332 55.8876L20.5148 56.2546L20.9156 56.609L21.3227 56.9507L21.7426 57.2861L22.1688 57.6088L22.6013 57.9188L23.0466 58.2163L23.5046 58.5073L23.969 58.7858L24.4397 59.0515L24.9168 59.3046L25.4066 59.5451L25.9028 59.7729L26.4117 59.9944L26.9269 60.1969L27.4485 60.3867L27.9765 60.5639L28.5109 60.7284L29.0579 60.8803L29.605 61.0195L30.1648 61.1461L30.7309 61.2536L31.2971 61.3549L31.8759 61.4371L32.4612 61.5004L33.0528 61.5574L33.6444 61.5953L34.2487 61.6143L34.853 61.6206L35.4636 61.6143L36.0743 61.5953L36.6786 61.5574L37.283 61.5004L37.8809 61.4371L38.4789 61.3549L39.0768 61.2536L39.6684 61.1461L40.26 61.0195L40.8452 60.8803L41.4241 60.7284L42.003 60.5639L42.5755 60.3867L43.1416 60.1969L43.7078 59.9944L44.2675 59.7729L44.821 59.5451L45.3744 59.3046L45.9151 59.0515L46.4558 58.7858L46.9901 58.5073L47.5181 58.2163L48.0397 57.9188L48.5486 57.6088L49.0575 57.2861L49.5601 56.9507L50.0499 56.609L50.5397 56.2546L51.0168 55.8876L51.4875 55.5143L51.9519 55.1283L52.4035 54.7359L52.8552 54.3309L53.2877 53.9196L53.7203 53.4957L54.1401 53.0654L54.5536 52.6288L54.9544 52.1795L55.3424 51.7239L55.7241 51.2619L56.0994 50.7873L56.462 50.3064L56.8118 49.8192L57.1553 49.3193L57.4798 48.8194L57.8042 48.3068L58.1095 47.7943L58.4085 47.2691L58.6884 46.7375L58.9619 46.206L59.2227 45.6618L59.4708 45.1113L59.7062 44.5607L59.9288 43.9975L60.1387 43.4344L60.3359 42.8649L60.5204 42.289L60.6858 41.7069L60.8448 41.1247L60.9848 40.5362L61.112 39.9414L61.2265 39.3402L61.3219 38.7391L61.4046 38.138Z" fill="#D64126"/>
<path d="M58.1988 19.5974L45.6418 6.30261H33.4092L45.9662 19.5974H58.1988Z" fill="#D64126"/>
<path d="M30.5274 57.6278L17.9704 44.333H5.73145L18.2948 57.6278H30.5274Z" fill="#D64126"/>
<path d="M49.8143 25.8683L49.7316 26.4694L49.6362 27.0706L49.5217 27.6717L49.3944 28.2666L49.2545 28.855L49.0955 29.4372L48.9301 30.0194L48.7456 30.5952L48.5484 31.1647L48.3385 31.7279L48.1158 32.2911L47.8805 32.8416L47.6324 33.3921L47.3716 33.9363L47.098 34.4679L46.8118 34.9994L46.5192 35.5246L46.2138 36.0372L45.8894 36.5497L45.565 37.0496L45.2215 37.5495L44.8716 38.0368L44.509 38.5177L44.1337 38.9923L43.7521 39.4542L43.364 39.9098L42.9569 40.3591L42.5498 40.7957L42.13 41.226L41.6974 41.65L41.2585 42.0613L40.8132 42.4663L40.3615 42.8586L39.8972 43.2446L39.4264 43.618L38.9494 43.985L38.4595 44.3393L37.9697 44.681L37.4672 45.0164L36.9583 45.3391L36.443 45.6492L35.9278 45.9466L35.3998 46.2377L34.8655 46.5161L34.3248 46.7819L33.7841 47.035L33.2306 47.2755L32.6772 47.5033L32.1174 47.7247L31.5513 47.9272L30.9851 48.1171L30.4126 48.2942L29.8338 48.4588L29.2549 48.6106L28.6697 48.7498L28.0781 48.8764L27.4865 48.984L26.8885 49.0852L26.2906 49.1675L25.6926 49.2308L25.0883 49.2877L24.484 49.3257L23.8733 49.3447L23.2626 49.351L22.6583 49.3447L22.054 49.3257L21.4624 49.2877L20.8708 49.2308L20.2856 49.1675L19.7067 49.0852L19.1342 48.984L18.5744 48.8764L18.0147 48.7498L17.4612 48.6106L16.9205 48.4588L16.3862 48.2942L15.8582 48.1171L15.3366 47.9272L14.8213 47.7247L14.3124 47.5033L13.8163 47.2755L13.3265 47.035L12.8494 46.7819L12.3723 46.5161L11.9143 46.2377L11.4563 45.9466L11.011 45.6492L10.5784 45.3391L10.1522 45.0164L9.73238 44.681L9.32526 44.3393L8.92451 43.985L8.53648 43.618L8.16117 43.2446L7.79858 42.8586L7.44235 42.4663L7.09248 42.0613L6.7617 41.65L6.43728 41.226L6.12558 40.7957L5.82025 40.3591L5.53399 39.9098L5.2541 39.4542L4.98693 38.9923L4.73248 38.5177L4.49076 38.0368L4.26175 37.5495L4.04547 37.0496L3.84191 36.5497L3.65108 36.0372L3.47296 35.5246L3.30757 34.9994L3.1549 34.4679L3.02132 33.9363L2.8941 33.3921L2.78596 32.8416L2.68418 32.2911L2.60148 31.7279L2.53787 31.1647L2.48062 30.5952L2.44245 30.0194L2.41701 29.4372L2.41064 28.855L2.41701 28.2666L2.43609 27.6717L2.47426 27.0706L2.52515 26.4694L2.59512 25.8683L2.67781 25.2608L2.77323 24.6597L2.88773 24.0585L3.01496 23.47L3.1549 22.8815L3.31393 22.2931L3.47933 21.7109L3.6638 21.1414L3.861 20.5655L4.07092 20.0024L4.29356 19.4455L4.52892 18.8887L4.77701 18.3381L5.03782 17.8003L5.31135 17.2624L5.5976 16.7309L5.89022 16.212L6.19556 15.6931L6.51998 15.1805L6.8444 14.6806L7.1879 14.1871L7.53777 13.6935L7.90036 13.2189L8.27567 12.7443L8.65734 12.276L9.04537 11.8204L9.44613 11.3712L9.85961 10.9345L10.2794 10.5042L10.712 10.0803L11.1446 9.66897L11.5962 9.26399L12.0479 8.87166L12.5122 8.48566L12.983 8.11232L13.46 7.75163L13.9499 7.39727L14.4397 7.04923L14.9422 6.72019L15.4511 6.39746L15.96 6.08107L16.4816 5.78366L17.0096 5.49258L17.5439 5.22048L18.0846 4.95471L18.6253 4.69527L19.1788 4.45481L19.7322 4.22701L20.292 4.01186L20.8581 3.80304L21.4243 3.61321L21.9968 3.43603L22.5756 3.2715L23.1545 3.11963L23.7397 2.98042L24.3313 2.85386L24.9229 2.74629L25.5209 2.65137L26.1188 2.56911L26.7168 2.4995L27.3211 2.44888L27.9254 2.41091L28.5361 2.3856L29.1468 2.37927L29.7511 2.3856L30.3554 2.41091L30.947 2.44888L31.5386 2.4995L32.1238 2.56911L32.7027 2.65137L33.2752 2.74629L33.835 2.85386L34.3947 2.98042L34.9482 3.11963L35.4889 3.2715L36.0232 3.43603L36.5512 3.61321L37.0728 3.80304L37.5881 4.01186L38.097 4.22701L38.5931 4.45481L39.0829 4.69527L39.56 4.95471L40.0308 5.22048L40.4951 5.49258L40.9531 5.78366L41.3984 6.08107L41.831 6.39746L42.2572 6.72019L42.677 7.04923L43.0841 7.39727L43.4849 7.75163L43.8666 8.11232L44.2482 8.48566L44.6108 8.87166L44.967 9.26399L45.3169 9.66897L45.6477 10.0803L45.9721 10.5042L46.2838 10.9345L46.5891 11.3712L46.8754 11.8204L47.1553 12.276L47.4225 12.7443L47.6769 13.2189L47.9186 13.6935L48.1476 14.1871L48.3639 14.6806L48.5675 15.1805L48.7583 15.6931L48.9364 16.212L49.1018 16.7309L49.2545 17.2624L49.3881 17.8003L49.5153 18.3381L49.6234 18.8887L49.7252 19.4455L49.8079 20.0024L49.8715 20.5655L49.9288 21.1414L49.9669 21.7109L49.9924 22.2931L49.9987 22.8815L49.9924 23.47L49.9733 24.0585L49.9351 24.6597L49.8843 25.2608L49.8143 25.8683Z" fill="#8ED7F7"/>
<path d="M34.2228 25.2969C35.031 25.761 35.0309 26.9268 34.2228 27.391L20.1995 35.4449C19.3945 35.9072 18.3907 35.3261 18.3907 34.3979L18.3907 18.29C18.3907 17.3617 19.3945 16.7807 20.1995 17.243L34.2228 25.2969Z" fill="#D64126"/>
</svg>
