<svg width="207" height="197" viewBox="0 0 207 197" fill="none" xmlns="http://www.w3.org/2000/svg">
<g clip-path="url(#clip0_2269_19357)">
<path d="M75.6242 23.4435C92.7553 23.6785 106.339 29.6667 118.799 38.8224C124.796 43.2268 130.559 48.0118 137.306 51.3137C153.654 59.3054 169.94 55.6789 182.31 41.352C187.183 35.7052 193.942 34.6195 200.454 37.9718C208.097 41.9061 208.874 51.9181 203.677 57.397C193.55 68.075 182.254 76.7439 167.68 80.348C155.668 83.3141 143.83 82.5642 132.282 78.1542C129.876 77.2363 128.506 77.533 126.945 79.7268C118.469 91.636 110.138 103.646 102.054 115.824C99.9781 118.947 100 119.019 103.106 121.146C112.605 127.66 120.998 135.434 128.897 143.767C135.163 150.376 134.095 158.972 126.206 163.545C113.702 170.792 100.622 176.942 87.6361 183.266C85.2919 184.408 82.9477 185.566 80.5364 186.563C73.5206 189.462 66.9355 186.842 63.8081 179.998C60.524 172.807 62.9017 165.486 69.7217 162.196C75.9319 159.202 82.2148 156.353 88.4585 153.432C90.3999 152.525 92.2965 151.518 94.2715 150.684C96.3248 149.816 96.0562 149.089 94.4449 147.925C88.0949 143.336 81.4595 139.189 74.7626 135.137C68.7147 131.471 68.6755 131.471 64.4739 137.157C51.08 155.273 37.4848 173.254 24.4211 191.605C18.5913 199.798 5.10241 198.489 1.0742 188.947C-0.945505 184.167 -0.0447512 179.718 2.99879 175.554C10.6356 165.106 18.2445 154.635 25.7974 144.131C46.8784 114.8 67.9314 85.4407 88.9844 56.0874C90.993 53.2892 90.9538 53.2612 87.8263 52.1979C73.4087 47.2842 59.0693 51.5599 48.4225 63.956C42.6264 70.7053 34.4692 71.528 27.5765 66.0547C22.558 62.07 21.2488 55.0353 25.3442 50.1384C38.7828 34.0991 55.3936 23.9024 75.613 23.4546L75.6242 23.4435Z" fill="white"/>
<path d="M121.523 21.3392C121.523 9.00465 130.509 -0.0111977 142.784 -4.84869e-06C154.779 0.011188 163.859 9.20613 163.837 21.3168C163.814 33.1589 154.348 42.7064 142.61 42.7343C130.777 42.7623 121.523 33.3771 121.523 21.3392Z" fill="white"/>
</g>
<defs>
<clipPath id="clip0_2269_19357">
<rect width="207" height="197" fill="white"/>
</clipPath>
</defs>
</svg>
