<svg width="16" height="16" viewBox="0 0 16 16" fill="none" xmlns="http://www.w3.org/2000/svg">
<path d="M4.93523 11.6634L7.99727 10.2675L11.0593 11.6634L11.2757 11.4679L8.00006 3.54486L4.72444 11.4679L4.93523 11.6634ZM8.00721 15.5833C6.96398 15.5833 5.98148 15.3859 5.05971 14.9912C4.13792 14.5964 3.3311 14.0533 2.63925 13.3618C1.94739 12.6703 1.40401 11.8641 1.0091 10.9433C0.6142 10.0225 0.416748 9.0387 0.416748 7.99179C0.416748 6.94488 0.614109 5.964 1.00883 5.04917C1.40355 4.13432 1.94668 3.33097 2.63821 2.63913C3.32975 1.94727 4.13591 1.40388 5.05669 1.00898C5.97746 0.614078 6.9613 0.416626 8.00821 0.416626C9.05512 0.416626 10.036 0.613988 10.9508 1.00871C11.8657 1.40343 12.669 1.94656 13.3609 2.63808C14.0527 3.32963 14.5961 4.13416 14.991 5.05169C15.3859 5.96922 15.5834 6.94958 15.5834 7.99279C15.5834 9.03602 15.386 10.0185 14.9913 10.9403C14.5966 11.8621 14.0534 12.6689 13.3619 13.3608C12.6704 14.0526 11.8658 14.596 10.9483 14.9909C10.0308 15.3858 9.05041 15.5833 8.00721 15.5833ZM8.00006 14.4999C9.80562 14.4999 11.3403 13.868 12.6042 12.6041C13.8681 11.3402 14.5001 9.80549 14.5001 7.99994C14.5001 6.19438 13.8681 4.65966 12.6042 3.39577C11.3403 2.13188 9.80562 1.49994 8.00006 1.49994C6.1945 1.49994 4.65978 2.13188 3.39589 3.39577C2.132 4.65966 1.50006 6.19438 1.50006 7.99994C1.50006 9.80549 2.132 11.3402 3.39589 12.6041C4.65978 13.868 6.1945 14.4999 8.00006 14.4999Z" fill="#1C1B1F"/>
</svg>
