<svg width="16" height="16" viewBox="0 0 16 16" fill="none" xmlns="http://www.w3.org/2000/svg">
<path d="M14.5 15.2659L12.0834 12.8493V14.8333H11.0001V10.9999H14.8334V12.0833H12.8494L15.266 14.4999L14.5 15.2659ZM8.00006 15.5833C6.96048 15.5833 5.97993 15.3859 5.05841 14.9912C4.13689 14.5964 3.33029 14.0533 2.63862 13.3618C1.94696 12.6703 1.40373 11.8638 1.00894 10.9424C0.614144 10.0211 0.416748 9.04072 0.416748 8.00133C0.416748 6.94806 0.614109 5.964 1.00883 5.04917C1.40355 4.13432 1.94668 3.33097 2.63821 2.63913C3.32975 1.94727 4.1362 1.40388 5.05756 1.00898C5.97891 0.614078 6.95928 0.416626 7.99866 0.416626C9.05194 0.416626 10.036 0.614023 10.9508 1.00881C11.8657 1.40361 12.669 1.94683 13.3609 2.6385C14.0527 3.33017 14.5961 4.13329 14.991 5.04788C15.3859 5.96245 15.5834 6.94647 15.5834 7.99994C15.5834 8.22323 15.5715 8.44652 15.5477 8.66981C15.5239 8.89309 15.4952 9.11638 15.4616 9.33967H14.3446C14.3895 9.11638 14.4266 8.89309 14.456 8.66981C14.4854 8.44652 14.5001 8.22323 14.5001 7.99994C14.5001 7.72501 14.48 7.45008 14.44 7.17515C14.3999 6.90022 14.3441 6.62706 14.2725 6.35569H10.6539C10.6924 6.61318 10.7164 6.87938 10.726 7.15431C10.7356 7.42924 10.7404 7.69723 10.7404 7.95827C10.7404 8.19545 10.7355 8.42569 10.7256 8.64898C10.7157 8.87226 10.7078 9.10249 10.702 9.33967H9.59783C9.60371 9.10249 9.61158 8.86879 9.62146 8.63856C9.63135 8.40833 9.63629 8.17462 9.63629 7.93744C9.63629 7.6764 9.63148 7.41188 9.62187 7.1439C9.61225 6.87591 9.58821 6.61318 9.54975 6.35569H6.45037C6.41191 6.62706 6.38787 6.90044 6.37825 7.17581C6.36864 7.45119 6.36383 7.72656 6.36383 8.00194C6.36383 8.27731 6.36864 8.55202 6.37825 8.82606C6.38787 9.10011 6.41191 9.37282 6.45037 9.64419H8.66033V10.7275H6.54973C6.67878 11.4109 6.85475 12.0745 7.07762 12.7184C7.30048 13.3623 7.60796 13.9641 8.00006 14.524C8.22335 14.524 8.45012 14.5128 8.68035 14.4903C8.91057 14.4679 9.13039 14.4219 9.33979 14.3525V15.4534C9.13039 15.5229 8.91057 15.5619 8.68035 15.5704C8.45012 15.579 8.22335 15.5833 8.00006 15.5833ZM1.72762 9.64419H5.34623C5.30777 9.3867 5.28373 9.12027 5.27412 8.8449C5.26451 8.56952 5.25971 8.30109 5.25971 8.03961C5.25971 7.75034 5.26451 7.46869 5.27412 7.19465C5.28373 6.92061 5.30777 6.64095 5.34623 6.35569H1.72762C1.65604 6.62706 1.60022 6.90044 1.56016 7.17581C1.5201 7.45119 1.50006 7.72656 1.50006 8.00194C1.50006 8.27731 1.5201 8.55202 1.56016 8.82606C1.60022 9.10011 1.65604 9.37282 1.72762 9.64419ZM2.10581 5.2724H5.44981C5.5517 4.62602 5.69746 3.99594 5.8871 3.38215C6.07674 2.76837 6.33342 2.18316 6.65714 1.62652C5.65287 1.83379 4.75195 2.2566 3.95439 2.89496C3.15684 3.53332 2.54064 4.3258 2.10581 5.2724ZM6.67798 14.3734C6.34251 13.8114 6.08209 13.2235 5.89673 12.6097C5.71135 11.9959 5.56364 11.3685 5.4536 10.7275H2.10581C2.54064 11.6687 3.15817 12.4585 3.95839 13.0969C4.75862 13.7353 5.66514 14.1607 6.67798 14.3734ZM6.54973 5.2724H9.45039C9.3286 4.60252 9.15571 3.95206 8.93173 3.32102C8.70775 2.68998 8.3972 2.09577 8.00006 1.5384C7.59942 2.08434 7.29146 2.67569 7.07617 3.31244C6.86089 3.9492 6.68541 4.60252 6.54973 5.2724ZM10.5465 5.2724H13.8943C13.4595 4.3258 12.8433 3.53199 12.0457 2.89096C11.2482 2.24993 10.3473 1.82845 9.34298 1.62652C9.65067 2.18849 9.89666 2.77771 10.081 3.39417C10.2653 4.01063 10.4204 4.6367 10.5465 5.2724Z" fill="#1C1B1F"/>
</svg>
