<?xml version="1.0" encoding="UTF-8"?>
<svg xmlns="http://www.w3.org/2000/svg" viewBox="-2 -2 36.45 36.04">
    <path fill="none" stroke="currentColor" stroke-linecap="round" stroke-linejoin="round" stroke-width="1" d="M28.64,26.82c3.42-2.79,5.57-6.82,5.57-11.3C34.2,7.08,26.6,.25,17.23,.25S.25,7.08,.25,15.51s7.6,15.26,16.98,15.26c2.55,0,4.97-.51,7.14-1.41l7.12,4.42-2.85-6.97Z"/>
    <path fill="none" stroke="currentColor" stroke-linecap="round" stroke-linejoin="round" stroke-width="1" d="M20.51,10.27c-1.82,.03-3.29,1.52-3.29,3.35,0-1.83-1.47-3.31-3.29-3.35-1.88-.04-3.41,1.56-3.41,3.44v-.1c0,2.2,.92,2.92,2.54,4.41l4.16,3.82,4.16-3.82c1.62-1.49,2.54-2.21,2.54-4.41v.1c0-1.88-1.54-3.47-3.41-3.44Z"/>
</svg>
