<?xml version="1.0" encoding="UTF-8"?>
<svg xmlns="http://www.w3.org/2000/svg" viewBox="-2 -2 35.35 33.28">
    <rect fill="none" stroke="currentColor" stroke-linecap="round" stroke-linejoin="round" stroke-width="1" x=".65" y="27.26" width="32.05" height="3.77"/>
    <polygon fill="none" stroke="currentColor" stroke-linecap="round" stroke-linejoin="round" stroke-width="1" points="33.1 5.77 16.67 .25 .25 5.77 .25 8.59 33.1 8.59 33.1 5.77"/>
    <polygon fill="none" stroke="currentColor" stroke-linecap="round" stroke-linejoin="round" stroke-width="1" points="28.92 18.08 28.92 18.08 28.92 8.59 24.73 8.59 24.73 16.82 24.73 16.82 24.73 23.63 23.26 27.26 30.39 27.26 28.92 23.63 28.92 18.08"/>
    <polygon fill="none" stroke="currentColor" stroke-linecap="round" stroke-linejoin="round" stroke-width="1" points="14.57 8.59 14.57 16.82 14.57 16.82 14.57 23.63 13.11 27.26 20.24 27.26 18.77 23.63 18.77 18.08 18.77 18.08 18.77 8.59 14.57 8.59"/>
    <polygon fill="none" stroke="currentColor" stroke-linecap="round" stroke-linejoin="round" stroke-width="1" points="4.42 8.59 4.42 16.82 4.42 16.82 4.42 23.63 2.96 27.26 10.08 27.26 8.62 23.63 8.62 18.08 8.62 18.08 8.62 8.59 4.42 8.59"/>
</svg>
