<svg width="22" height="20" viewBox="0 0 22 20" fill="none" xmlns="http://www.w3.org/2000/svg">
<path d="M2.65523 10.5642L1.81701 9.72596C-0.275675 7.63327 -0.275675 4.24619 1.81701 2.1535L2.15344 1.81708C4.24613 -0.275614 7.63321 -0.275614 9.7259 1.81708L10.6611 2.75223" stroke="currentColor" stroke-width="1" stroke-linecap="round" stroke-linejoin="round"/>
<path d="M12.959 9.27553L15.9355 12.252C16.5172 12.8337 17.4637 12.8337 18.0453 12.252C18.627 11.6704 18.627 10.7239 18.0453 10.1423L13.4551 5.55202C12.2405 6.76658 10.279 6.76658 9.06445 5.55202L8.46002 4.94759L11.5449 1.86273C13.6376 -0.229959 17.0247 -0.229959 19.1173 1.86273L19.4538 2.19916C21.5465 4.29185 21.5465 7.67892 19.4538 9.77161L18.4331 10.7923" stroke="currentColor" stroke-width="1" stroke-linecap="round" stroke-linejoin="round"/>
<path d="M12.959 9.27539L15.9356 12.2519C16.5172 12.8335 16.5172 13.7801 15.9356 14.3617C15.3539 14.9433 14.4074 14.9433 13.8258 14.3617L10.8492 11.3852" stroke="currentColor" stroke-width="1" stroke-linecap="round" stroke-linejoin="round"/>
<path d="M9.94802 15.9397L9.05694 16.8308C8.47351 17.4142 8.47351 18.3602 9.05694 18.9436C9.64037 19.527 10.5863 19.527 11.1697 18.9436L12.0608 18.0525C12.6442 17.4691 12.6442 16.5232 12.0608 15.9397C11.4774 15.3563 10.5314 15.3563 9.94802 15.9397Z" stroke="currentColor" stroke-width="1" stroke-linecap="round" stroke-linejoin="round"/>
<path d="M3.45455 9.78398L2.56347 10.6751C1.98004 11.2585 1.98004 12.2044 2.56347 12.7878C3.1469 13.3713 4.09283 13.3713 4.67626 12.7878L5.56733 11.8968C6.15076 11.3133 6.15076 10.3674 5.56733 9.78398C4.9839 9.20055 4.03798 9.20055 3.45455 9.78398Z" stroke="currentColor" stroke-width="1" stroke-linecap="round" stroke-linejoin="round"/>
<path d="M5.22939 12.2188L4.33831 13.1099C3.75488 13.6933 3.75488 14.6392 4.33831 15.2227C4.92174 15.8061 5.86767 15.8061 6.4511 15.2227L7.34217 14.3316C7.9256 13.7481 7.9256 12.8022 7.34217 12.2188C6.75875 11.6354 5.81282 11.6354 5.22939 12.2188Z" stroke="currentColor" stroke-width="1" stroke-linecap="round" stroke-linejoin="round"/>
<path d="M7.34066 14.3287L6.44958 15.2197C5.86615 15.8032 5.86615 16.7491 6.44958 17.3325C7.03301 17.9159 7.97894 17.9159 8.56236 17.3325L9.45344 16.4414C10.0369 15.858 10.0369 14.9121 9.45344 14.3287C8.87001 13.7452 7.92409 13.7452 7.34066 14.3287Z" stroke="currentColor" stroke-width="1" stroke-linecap="round" stroke-linejoin="round"/>
<path d="M10.8492 11.3853L13.8258 14.3618C14.4074 14.9434 14.4074 15.89 13.8258 16.4716C13.4608 16.8365 12.9533 16.9734 12.4858 16.8821" stroke="currentColor" stroke-width="1" stroke-linecap="round" stroke-linejoin="round"/>
</svg>
