<svg width="29" height="10" viewBox="0 0 29 10" fill="none" xmlns="http://www.w3.org/2000/svg">
<path d="M0.277679 1.94322L2.43758 1.94051L2.44071 4.53827L4.3215 1.93826L6.55756 1.93555L4.1732 5.10206L6.69868 8.78993L4.21532 8.79309L2.44251 6.05359L2.44564 8.79534L0.285744 8.79805L0.277679 1.94412V1.94322Z" fill="currentColor"/>
<path d="M14.8301 8.77931L20.2413 8.77299L20.2386 6.57833L17.2588 6.58194L17.253 1.93848L14.822 1.94118L14.8301 8.77931Z" fill="currentColor"/>
<path d="M10.7358 6.56382C10.6041 6.61077 10.4594 6.63785 10.3012 6.63785V6.63605C9.52927 6.63695 9.04944 6.02983 9.04854 5.30444C9.04854 4.95326 9.15293 4.65218 9.33483 4.42648H9.33572C9.55749 4.15249 9.89395 3.99044 10.2981 3.98999C10.4316 3.98999 10.5575 4.00759 10.6749 4.04054C10.6757 4.04054 10.6766 4.041 10.678 4.04145C10.7143 4.05183 10.7492 4.06402 10.7837 4.07756C10.7882 4.07936 10.7931 4.08117 10.7976 4.08298C10.8299 4.09607 10.8612 4.11051 10.8917 4.12586C10.8975 4.12902 10.9038 4.13218 10.9096 4.13534C10.9392 4.15114 10.9679 4.16784 10.9956 4.18544C11.001 4.18905 11.0064 4.19312 11.0118 4.19673C11.04 4.21568 11.0673 4.23509 11.0933 4.25631C11.0951 4.25766 11.0969 4.25947 11.0987 4.26128C11.3661 4.48155 11.5315 4.82281 11.5476 5.23944L13.9965 5.23628C13.9759 4.40617 13.7147 3.70697 13.2855 3.16169L13.2872 3.16033C13.2707 3.13957 13.2527 3.11971 13.2357 3.09939C13.2295 3.09217 13.2236 3.08495 13.2174 3.07773C13.1851 3.03936 13.1519 3.00144 13.1179 2.96488C13.1179 2.96488 13.117 2.96398 13.1166 2.96352C12.9674 2.80283 12.802 2.65838 12.6233 2.53064C12.6197 2.52793 12.6161 2.52522 12.6125 2.52297C12.5686 2.49182 12.5243 2.46158 12.4786 2.43269C11.8657 2.03998 11.1112 1.82918 10.2949 1.83008C8.25465 1.83234 6.59699 3.1495 6.59967 5.34416C6.60236 7.49369 8.27168 8.88804 10.3034 8.88578V8.88759C10.4508 8.88759 10.5951 8.87811 10.738 8.86321L10.7394 9.85085L12.9512 7.65258L10.734 5.45927L10.7353 6.56427L10.7358 6.56382Z" fill="currentColor"/>
<path d="M24.4854 1.86351V1.86171C24.338 1.86171 24.1937 1.87119 24.0508 1.88608L24.0495 0.898438L21.8376 3.09671L24.0549 5.29002L24.0535 4.18502C24.1852 4.13807 24.3299 4.11099 24.4881 4.11099V4.1128C25.26 4.11189 25.7398 4.71901 25.7407 5.4444C25.7407 5.79558 25.6364 6.09666 25.4545 6.32236H25.4536C25.2318 6.59635 24.8953 6.7584 24.4912 6.75885C24.3577 6.75885 24.2318 6.7417 24.1149 6.70829C24.114 6.70829 24.1126 6.70784 24.1117 6.70739C24.0755 6.69701 24.0405 6.68482 24.0065 6.67128C24.0015 6.66948 23.9971 6.66767 23.9921 6.66541C23.9599 6.65232 23.9285 6.63833 23.898 6.62253C23.8918 6.61937 23.8859 6.61621 23.8801 6.61305C23.8506 6.59725 23.8219 6.58055 23.7941 6.56295C23.7887 6.55934 23.7833 6.55527 23.778 6.55166C23.7497 6.5327 23.7224 6.51329 23.6964 6.49208C23.6946 6.49027 23.6924 6.48847 23.6906 6.48711C23.4231 6.26683 23.2578 5.92558 23.2421 5.50895L20.7933 5.51211C20.8139 6.34222 21.0751 7.04142 21.5043 7.5867L21.5025 7.58806C21.5191 7.60882 21.537 7.62868 21.5536 7.64899C21.5598 7.65622 21.5657 7.66389 21.5719 7.67111C21.6042 7.70948 21.6373 7.74695 21.6709 7.78396C21.6714 7.78441 21.6718 7.78486 21.6723 7.78532C21.8215 7.94556 21.9863 8.09 22.1651 8.2182C22.1687 8.22091 22.1723 8.22362 22.1759 8.22587C22.2198 8.25702 22.2641 8.28726 22.3098 8.31615C22.9227 8.70886 23.6772 8.91966 24.4935 8.91876C26.5337 8.9165 28.1914 7.59934 28.1887 5.40468C28.186 3.25515 26.5167 1.8608 24.4849 1.86306L24.4854 1.86351Z" fill="currentColor"/>
</svg>
