<?xml version="1.0" encoding="UTF-8"?>
    <svg xmlns="http://www.w3.org/2000/svg" viewBox="-2 -2 34.15 39.41">
    <path fill="none" stroke="currentColor" stroke-linecap="round" stroke-linejoin="round" stroke-width="1" d="M16.08,35.57s-.58,1.6-2.82,1.59c-7.74-.03-13-9.08-13-17.21,0-8.81,5.53-13.43,15.83-10.42,10.3-3.01,15.83,1.6,15.83,10.42,0,8.13-5.26,17.18-13,17.21-2.25,0-2.82-1.59-2.82-1.59Z"/>
    <path fill="none" stroke="currentColor" stroke-linecap="round" stroke-linejoin="round" stroke-width="1" d="M15.3,9.32c-.81-3.25,.09-6.93,2.79-9.07,0,0,1.72,2.46,1.72,2.46-.51,.32-1.03,.65-1.42,1.11-1.34,1.42-1.79,3.61-1.63,5.52"/>
    <path fill="none" stroke="currentColor" stroke-linecap="round" stroke-linejoin="round" stroke-width="1" d="M27.15,24.82c-.14,0-.28-.02-.42-.06-.8-.23-1.25-1.06-1.02-1.86,1.5-5.2-1.9-7.55-1.94-7.58-.69-.46-.87-1.39-.41-2.08,.46-.69,1.39-.87,2.08-.41,.22,.14,5.25,3.62,3.15,10.9-.19,.66-.79,1.08-1.44,1.08Z"/>
</svg>
