<svg width="19" height="23" viewBox="0 0 19 23" fill="none" xmlns="http://www.w3.org/2000/svg">
<path d="M0.25 20.4568V1.38127C6.151 -0.130346 12.6023 -0.130346 18.5033 1.38127V20.4504C12.6023 18.9388 6.151 18.9388 0.25 20.4504V20.4568Z" stroke="currentColor" stroke-width="1" stroke-linecap="round" stroke-linejoin="round"/>
<path d="M3.00757 2.93072C6.11935 2.39312 9.33233 2.25397 12.501 2.51329" stroke="currentColor" stroke-width="1" stroke-linecap="round" stroke-linejoin="round"/>
<path d="M3.00757 5.0687C7.19456 4.34136 11.565 4.34136 15.752 5.0687" stroke="currentColor" stroke-width="1" stroke-linecap="round" stroke-linejoin="round"/>
<path d="M15.7457 17.5662C11.6093 16.8705 7.35272 16.7314 3.00128 17.5662V7.68695C7.1187 6.63072 11.6283 6.63072 15.7457 7.68695C15.7457 10.9822 15.7457 14.271 15.7457 17.5662Z" stroke="currentColor" stroke-width="1" stroke-linecap="round" stroke-linejoin="round"/>
<path d="M16.0176 19.9128V22C12.1785 20.811 8.69988 19.9002 0.25 20.4504" stroke="currentColor" stroke-width="1" stroke-linecap="round" stroke-linejoin="round"/>
</svg>
