<svg width="40" height="40" viewBox="0 0 40 40" fill="none" xmlns="http://www.w3.org/2000/svg">
<path d="M20.2871 28.8276C25.0666 28.8276 28.9411 24.9531 28.9411 20.1736C28.9411 15.3941 25.0666 11.5195 20.2871 11.5195C15.5076 11.5195 11.6331 15.3941 11.6331 20.1736C11.6331 24.9531 15.5076 28.8276 20.2871 28.8276Z" stroke="currentColor" stroke-width="1.25441" stroke-linecap="round" stroke-linejoin="round"/>
<path d="M20.2872 22.899C21.7922 22.899 23.0123 21.679 23.0123 20.1739C23.0123 18.6688 21.7922 17.4487 20.2872 17.4487C18.7821 17.4487 17.562 18.6688 17.562 20.1739C17.562 21.679 18.7821 22.899 20.2872 22.899Z" fill="currentColor" stroke="currentColor" stroke-width="1.25441" stroke-linecap="round" stroke-linejoin="round"/>
<path d="M20.2871 8.59521V11.5198" stroke="currentColor" stroke-width="1.25441" stroke-linecap="round" stroke-linejoin="round"/>
<path d="M20.2871 28.8281V31.7527" stroke="currentColor" stroke-width="1.25441" stroke-linecap="round" stroke-linejoin="round"/>
<path d="M8.7085 20.1738H11.6331" stroke="currentColor" stroke-width="1.25441" stroke-linecap="round" stroke-linejoin="round"/>
<path d="M28.9414 20.1738H31.866" stroke="currentColor" stroke-width="1.25441" stroke-linecap="round" stroke-linejoin="round"/>
</svg>