<svg
    width="21"
    height="29"
    viewBox="0 0 21 29"
    fill="none"
    xmlns="http://www.w3.org/2000/svg"
    >
    <path
    d="M20.28 10.36C20.18 4.87 15.83 0.419998 10.34 0.419998C4.84999 0.419998 0.269994 4.87 0.399994 10.36C0.579994 18.38 10.34 28.76 10.34 28.76C10.34 28.76 20.42 17.61 20.28 10.36Z"
    fill="#2BACE2"
    />
    <path
        d="M14.77 12.9C14.77 14.74 12.82 16.23 10.42 16.23C8.01999 16.23 6.06999 14.74 6.06999 12.9C6.06999 11.06 8.01999 9.57 10.42 9.57C12.82 9.57 14.77 11.06 14.77 12.9Z"
        fill="white"
    />
    <path
        d="M13.02 9.75C13.02 11.29 11.82 12.55 10.33 12.55C8.84 12.55 7.64 11.3 7.64 9.75C7.64 8.2 8.84 6.95 10.33 6.95C11.82 6.95 13.02 8.2 13.02 9.75Z"
        fill="white"
    />
    <path
        d="M11.8 6.1C11.47 5.71 11.17 5.37 10.99 5.14C10.95 5.08 10.9 5.04 10.85 5C10.7 4.88 10.52 4.82 10.34 4.82C10.1 4.82 9.86 4.93 9.7 5.13C9.52 5.36 9.21 5.71 8.87 6.1C7.38 7.82 5.34 10.18 5.34 12.29C5.34 13.62 5.86 14.88 6.8 15.82C7.74 16.76 9 17.28 10.33 17.28C11.66 17.28 12.92 16.76 13.86 15.82C14.8 14.88 15.32 13.62 15.32 12.29C15.32 10.19 13.28 7.83 11.79 6.1H11.8ZM12.7 14.65C12.07 15.28 11.23 15.63 10.34 15.63C9.45 15.63 8.61 15.28 7.98 14.65C7.35 14.02 7 13.18 7 12.29C7 10.9 8.44 9.12 10.05 7.25L10.34 6.92L10.63 7.25C12.24 9.11 13.68 10.9 13.68 12.29C13.68 13.18 13.33 14.02 12.7 14.65Z"
        fill="#024760"
    />
</svg>