<svg width="24" height="24" viewBox="0 0 24 24" fill="none" xmlns="http://www.w3.org/2000/svg">
<path d="M12.0817 12.1024C13.9049 12.1024 15.3829 10.6244 15.3829 8.80122C15.3829 6.97801 13.9049 5.5 12.0817 5.5C10.2585 5.5 8.78049 6.97801 8.78049 8.80122C8.78049 10.6244 10.2585 12.1024 12.0817 12.1024Z" stroke="currentColor" stroke-miterlimit="10"/>
<path d="M9.07321 12.1025H15.0837C15.71 12.1025 16.3106 12.3513 16.7534 12.7941C17.1962 13.237 17.445 13.8376 17.445 14.4638V18.5001H6.71194V14.4606C6.71281 13.8349 6.96196 13.2351 7.40469 12.793C7.84742 12.3509 8.44753 12.1025 9.07321 12.1025V12.1025Z" stroke="currentColor" stroke-miterlimit="10"/>
<path d="M14.4265 6.46589C14.785 6.17625 15.2158 5.99003 15.6724 5.92733C16.1291 5.86463 16.5941 5.92784 17.0174 6.11013C17.4408 6.29242 17.8063 6.58687 18.0745 6.96169C18.3427 7.33651 18.5034 7.77747 18.5393 8.23697C18.5753 8.69646 18.485 9.15705 18.2783 9.569C18.0716 9.98095 17.7563 10.3286 17.3665 10.5745C16.9766 10.8204 16.5271 10.9551 16.0662 10.9641C15.6054 10.9731 15.1509 10.8562 14.7517 10.6258" stroke="currentColor" stroke-miterlimit="10"/>
<path d="M17.1359 10.7168H18.3198C18.5578 10.7164 18.7935 10.7629 19.0135 10.8538C19.2335 10.9447 19.4334 11.0781 19.6017 11.2465C19.77 11.4148 19.9034 11.6146 19.9943 11.8346C20.0852 12.0546 20.1318 12.2904 20.1314 12.5284V15.615H17.4448" stroke="currentColor" stroke-miterlimit="10"/>
<path d="M9.57384 6.46589C9.21532 6.17625 8.7845 5.99003 8.32788 5.92733C7.87127 5.86463 7.4062 5.92784 6.98288 6.11013C6.55956 6.29242 6.19407 6.58687 5.92586 6.96169C5.65765 7.33651 5.4969 7.77747 5.46098 8.23697C5.42505 8.69646 5.51531 9.15705 5.722 9.569C5.9287 9.98095 6.24399 10.3286 6.63383 10.5745C7.02367 10.8204 7.47327 10.9551 7.93408 10.9641C8.39489 10.9731 8.84941 10.8562 9.24859 10.6258" stroke="currentColor" stroke-miterlimit="10"/>
<path d="M6.86476 10.7168H5.68087C5.44285 10.7164 5.20708 10.7629 4.98709 10.8538C4.76711 10.9447 4.56723 11.0781 4.39892 11.2465C4.23061 11.4148 4.09718 11.6146 4.00629 11.8346C3.9154 12.0546 3.86884 12.2904 3.86927 12.5284V15.615H6.55253" stroke="currentColor" stroke-miterlimit="10"/>
<path d="M12.976 13.6992C12.735 13.7043 12.5055 13.8034 12.3366 13.9754C12.1676 14.1474 12.0726 14.3786 12.0718 14.6197C12.0719 14.3789 11.9776 14.1477 11.8092 13.9756C11.6407 13.8036 11.4116 13.7043 11.1709 13.6992C11.047 13.6997 10.9245 13.7245 10.8102 13.7723C10.6959 13.8201 10.5922 13.8899 10.5049 13.9778C10.4176 14.0657 10.3485 14.1699 10.3015 14.2845C10.2545 14.3991 10.2305 14.5218 10.2309 14.6457V14.6164C10.2309 15.2214 10.4846 15.423 10.9302 15.8296L12.0816 16.8736L13.2264 15.8231C13.672 15.4165 13.9224 15.2149 13.9224 14.6099V14.6392C13.9225 14.5152 13.8979 14.3924 13.8503 14.278C13.8026 14.1635 13.7328 14.0596 13.6448 13.9722C13.5569 13.8849 13.4525 13.8158 13.3377 13.7689C13.2229 13.7221 13.1 13.6984 12.976 13.6992V13.6992Z" stroke="currentColor" stroke-miterlimit="10"/>
</svg>
